<svg xmlns="http://www.w3.org/2000/svg" viewBox="0 0 1280 944.77"><title>BGAtivo 12</title><g id="Camada_2" data-name="Camada 2"><g id="Camada_1-2" data-name="Camada 1"><g id="Layer194_0_FILL" data-name="Layer194 0 FILL"><path d="M215.09,25.27h-4q-1.43,6.54-3.07,20.31-2.83,10.56-10.79,11.18l.87-9.21a22.89,22.89,0,0,0-.87-8.18L185,55.43a35.64,35.64,0,0,0-8,18.81,26.05,26.05,0,0,0,0-5.67q-.31-3.61-2.83-3.93-5.11,19.68,5.12,41.33,5.67,12.12,19.29,32.83,3.38-1.34,2.83-11.18l3.15-2.28a6.39,6.39,0,0,1,5-.71q1.18-6.54,6.85-13.38,6.77-8.58,8.19-11.81A98.93,98.93,0,0,0,225,59.05q-1.09-6.54-9.92-33.78M203.44,65c.58-3.25,1.23-5.43,2-6.53q18.5,8.51,12,34.72-5.66,21.64-18.73,34.48-3.39-3-8.27-14.8-4.25-10.47-9.37-13.38Q179.91,85,186.43,75.82a34.35,34.35,0,0,0,7.09-3,13.43,13.43,0,0,1,7.95-2C202.42,70,203.07,68,203.44,65Z" style="fill:#a43d13"/></g><g id="Layer193_0_FILL" data-name="Layer193 0 FILL"><path d="M1030.9,50.54q-7.1,2.3-13.94,12.76a66.94,66.94,0,0,0-9.37,22q-2.28-6.85-5.35-7.88-2,17.72,8.82,36.77,13.85,23.94,15.82,32.51c2.47.21,4.17-1.33,5.12-4.64a9.19,9.19,0,0,0-1.1-7.87q2.28-2,16.69-9.14,10.54-5.26,13.38-13.14-2.84-25.27-4.8-37.72-3.15-22.35-11.65-29.83.54-9.22-2.84-11.18a83.82,83.82,0,0,1-3.7,20.31q-4,10.15-9.68,9.84a18.81,18.81,0,0,1,.86-6.85,16.5,16.5,0,0,0,1.74-5.91m11.89,8.51a6.3,6.3,0,0,0,3.14,1q-.32,7.17,2.29,20,2.28,12.12,1.65,17.71-.78,8.82-9,19.69-11.34,14.72-12.52,16.69-9.06-3.94-9.61-17.4-10.79-10.47-11.1-23.62,26.7-5.52,32.91-33.07C1041.45,59.18,1042.21,58.84,1042.79,59.05Z" style="fill:#a43d13"/></g><g id="Layer192_0_FILL" data-name="Layer192 0 FILL"><path d="M92.51,69.52h-4q-3.06,13.77-12.75,30.86-11.89,21-14.72,28.9,6,.63,11.88-7.88l8.82-15.74Q93.93,82.67,92.51,69.52Z" style="fill:#f78b60"/></g><g id="Layer191_0_FILL" data-name="Layer191 0 FILL"><path d="M352.16,71.49a2.48,2.48,0,0,0-2.28-.63q-2.83,3.3-34.64,26.21Q294,112.51,288.55,132.5q8.82-12.12,32.91-29.84,23.85-17.72,32.67-30.15A3.12,3.12,0,0,1,352.16,71.49Z" style="fill:#f78b60"/></g><g id="Layer190_0_FILL" data-name="Layer190 0 FILL"><path d="M189.82,174.55a3.1,3.1,0,0,0-2-1q-4.24,8.19-4.57,25.27-.22,17.72,4.57,25a12.8,12.8,0,0,1,7.4-1.34l6.22-.31q-.56-5.91.55-19,1.18-10.78-.55-17a3.77,3.77,0,0,0-4.25-1.34q-2.83.95-4-.31.63-7.24-1.41-9.53Z" style="fill:#82745d"/></g><g id="Layer189_0_FILL" data-name="Layer189 0 FILL"><path d="M1033.73,192.26q-1.73.31-10.78-3-6.23-2.6-8.51,4.64,1.11,23.94,1.42,23.94,1.65,12.12,9.6,13.78,4-3.63,5.44-14.1,2.28-15.43,2.83-17.4Z" style="fill:#82745d"/></g><g id="Layer188_0_FILL" data-name="Layer188 0 FILL"><path d="M32.59,5V0H0V75.82Q9.38,27.55,32.59,5Z" style="fill:#5d2d26"/></g><g id="Layer187_0_FILL" data-name="Layer187 0 FILL"><path d="M1269.21,104.63q-2-2.59-19-20.94Q1230.08,62,1199.69,36.45q-14.16-9.53-20.15-14.8-10.15-8.82-9.61-21.65h-75q1.74,5.6,12,11.81,9.38,6.23,9.61,10.47h-14.73q-.54,3-3.7,8.9A24.54,24.54,0,0,0,1095,41h4q6.23-13.47,24.64-10.87,4.26,5.6,19.29,28,11.65,17.71,20.16,27.17,2-4.58,5.66-.32t-.23,6.61q4.24,16.06,13.3,46.53,7.73,26.92,9.92,47.95a7.77,7.77,0,0,1-1.41,3.23,8.2,8.2,0,0,0-1.42,3q.31,5.91,2.83,20.94,2.61,14.18,2.6,21.65,0,12.53-2,39.76-1.17,24.57,2,39-30.94,14.18-49.68,20.08-32.36,10.47-57.86,8.19a103.37,103.37,0,0,1-18.43-4.25q-14.8-4.65-18.5-5.28l-19-2.6q-10.56-2.67-15-9.84,4.49-2.67,19.29-6.3,12.43-3.22,17.56-7.87-10.17-2.59-25.51,3.62-19.85,7.88-26.14,8.9-7.95.94-21.57-1.65L937,307.36q-12.19-2-19.05,3,7.16,5.58,25.27,7.87,21.57,2.28,27.79,4.88l-52.43,1.65q-30.7,2-49.68-.31l3.15-5.28a4.92,4.92,0,0,0-.63-5.59q-8.19,5.6-22.12,7.56a68.44,68.44,0,0,1-26.69-1.26q8.58-24.33,19-36.14l-6.54-29.83q-3.37-17.4-4.25-26.93-1.1-13.06.55-35-32.91-12.83-54.71-25.58-30.7-18.11-48-38.74,7.17-52.83,17.64-75.42,2.28-2,2.83,0,3.15,10.47-4,35-7.33,25.59-5.67,35.83,2.28,14.4,26.45,28.18,6.45,3.63,37.4,17.4,22.44,9.84,28.1,22.28l2-20.63a53,53,0,0,1,4.88-14.8q4.82-10.47,5.91-15.11a52.08,52.08,0,0,0,1.42-9.45A37.27,37.27,0,0,1,847,121.4q3.46-11.18,12.84-27.87l13-25.59.31-3c0-1.1.37-1.65,1.1-1.65q3.71-5.19,20.47-32.44Q906.9,10.48,916.5,0H713.61A28.62,28.62,0,0,1,700,9.53q.32,2.28,4,4.56a6.41,6.41,0,0,1,2.83,6.62q-3.69,8.17-17,26.53Q678.19,63,675.35,72.51q15.58,2,22.12,4.25Q708.57,81,712.2,89.91a280.15,280.15,0,0,1-62.67-20.39,27.2,27.2,0,0,1-4,10.23l-5.67,8.51q-7.32-.32-14.72,9.84-7.39,10.47-15,10.78-10.79.41-21-14.72-16.14-23.61-17.32-24.64Q560.4,80.69,553.87,84q-13.07,6.84-22.68-2,3.15-2.69,12.21-3,10.47-.31,13.62-1.66-2.84-4.87-12.76-12.75-9.36-7.24-12-14.1l4.25-6.92a16.74,16.74,0,0,0,2.6-8.82q-2.29-7.56-13.94-17.4Q511.59,5.91,507.89,0H458.84q.32,27.56-22.44,43.62-19.29,14.09-47.08,14.8,10.79-8.58,38.9-20.71Q450.89,23.94,449.47,0H326.89q17.55,12.12,35.19,45.9l-10.47-.63q-6.3-.32-5.75,5.27c-.36,2.16,2.86,3.36,9.69,3.63q12.51,0,14.72,1.26Q380.28,82,387,124q1.41,8.19,10.47,76.13-4.25,2.28-25.51,15.75-15.58,9.84-27.55,14.09,13.94-3,36.61-3,13.06-.31,39.75,0,12.53-32.11,53.07-44.25a705,705,0,0,0,12.2-80.07q-5.43-8.18-21.26-21.33-15.66-12.75-19.6-19.68,6.76-2.3,14.49,3l25.19,22q8.27,8.19,9.37,14.41,1.19,7.24-1.65,21l-5.12,23q-1.19,8.19-2.84,23.31-1.73,13.06-5.43,20.62a79.62,79.62,0,0,0-30.62,18.35q-9.37,9.21-22.44,27.55l-35.43,1.34q8.82,0,8.19,14.8-.24,4.57-3.94,24.57-11.88-15.12-16.45-6.22,0,3.62,5.35,10.15T389.32,293A22.4,22.4,0,0,1,387,303.11l-5.67,8.9q29.2,25.19,36.61,33.77a103.72,103.72,0,0,1,23.23,49.53q-11.34,14.4-45.12,19.36-44.23,6.85-53.06,10.47-28.35-16.68-54.48-22-20.08-3.63-50.23,1.65-8.19-8.9-26.38-22.36Q192.65,368.7,185,360.82q29.21-18.35,42.27-23.62a231.2,231.2,0,0,1,49-17.32,151.6,151.6,0,0,1,17.32-2.67q9.93-2,13.94-8.51-3.15-5.58-13.07-3.3l-16.77,3.3q-22.12,8.82-34,11.81-21.25,5.6-34.09-5.59a40.31,40.31,0,0,0-4.8-2.28,14,14,0,0,0-6.22-.63v2.91q1.41,1,11.65,5.91,7.08,3.3,8.74,8.5-3.94,4.65-12.44,6.61l-15.9,4.25q-3.39,1.35-11.66,7.88-7.32,5.58-11.65,6.22-12.19,2.28-31.73-2.29-21.33-6.53-30.94-8.5-30.94-2.36-52.51-1-26.93,1.65-48.26,8.89,13.94-25.26,46.29-45.66-9.37-22.27-10.47-61a402,402,0,0,1,3.62-64.95q-2.21,36.13,11.65,59,9.13,15.12,33.46,33.85,12,9.14,21.89,8.82l24.41-4.25L156,275.87q13.4-.63,21-3.23,22.44-25.26,27.56-30.23Q221.08,226,236.9,217.53q.87-4.64,7.4-25,4.8-15.42,3.39-25.58-8,2.28-11.34,16.06l-5.12,23.3-15.82,11.81a159.61,159.61,0,0,0-16.77,13.47q-3.15,2.91-13.94,17.39-8.73,11.43-14.48,14.1-9.06,4.25-31.5,3.62-22.66-.71-34,4.25-4.8-6.23-21.57-16.45-14.73-8.82-19.29-19.69-3.7-9.45-5.67-29.84-2-22.27-5.12-33.14-2.28-2.28-5.66-.63t-4,.63a65.79,65.79,0,0,1,2-19.68q3.06-13.08,3.38-18c.95-1.32,2.94-1.53,6-.63s5.06.55,6.22-1q.85-4.87-3.7-6.53c-3.42-1.52-5.31-3-5.67-4.57Q68.65,55.74,116.91,0H32.59V5Q9.37,27.55,0,75.82v291.3L55.58,354.6q31.82-4.87,57.32,1.34,13.62-2,36.37,4.57,13.08,3.3,37.16,11.18,5.35,8.82,24.65,21.33,17.63,11.5,23,22.91,33.23-4.24,42-4.25,25-.31,35.74,10.55a65.93,65.93,0,0,1,27.24,12.44q-8.82,2-26.14,10.16-15.82,7.56-26.92,8.89-16.14-.32-34.09.95-23.55,1.65-36.85,5.27l10.47-21.65q6.3-14.09,1.73-23.93-3.14,3.93-9.68,21.65-5.67,14.4-13.3,19.37-5.35,3.22-19.84,6.85-15.36,3.61-22.44,7.24-5.43,2.59-17.87,11.49-11.34,7.88-17.64,10.48-16.14,6.53-41.65,6.22L39.44,496l-19.6-2.28L0,493.09V661.34a60.41,60.41,0,0,1,22.12-4.89q14.8-.71,21.26,4.89-.24,2.28-6.22,3.62Q32,666.3,34,672.52q4.89,3.3,11.1-.32Q53.06,668,55.58,668,67.24,677.4,90.78,702q21.89,23,35.74,33.46,7.39-12.12,29.52-13.15,12.77-.32,41.18.71,13.86-.7,73.22,0,47.08.32,68.65-3.31,20.16-3.3,41.18-16.37,12.19-7.56,32.28-24.64,25.82,7.54,68.41,23.61,48.51,18.35,69.21,25.28,6.52,2.28,20.78,8.18,12.45,4.58,18.66,3,4.89-1.35,12.21-9.53,8.8-9.53,11.1-11.18a62.33,62.33,0,0,1,20.39-7.87q19.92-2.91,33.22,4.25,8,4.24,23.86,16.45,19.29,11.42,44.56,7.88L784.31,726l38.58-8.18q22.13-4.57,32.36-9.22l9-7.16q6-4.65,9.92-.71-6.53,13.15-24.64,18Q828,722.66,818.32,726,789.67,737.16,773.76,742q-28,8.6-50.78,7.56a408.91,408.91,0,0,0,121.17,83.69,25.76,25.76,0,0,1,6.3,4.57q3.93,3.93,6.22,4.88,13.07,5.91,31.8,8.58l36.3,3.94q38,4.25,104.71-3.31,15.27-1.65,40.86-7.56l38.26-8.18a42,42,0,0,1,7.4,0,23.1,23.1,0,0,0,7.64,0q10.54-1.66,22.75-8.19l18.11-10.47q33.78-18.42,54.25-31.49,7.32-5,31.73-19.06,19.37-11.49,29.52-19V134.16q-2.84-18.34-10.79-29.53m-60.7,231.94q6.54,13.47,10.24,17.72-49.68-8.51-76.06-10.79,4.26-2,28.66-10.23,17.57-5.91,25.83-13.39,5.34,4.58,11.33,16.69m15.91,25.91Q1238.58,393,1246,438q1.65,9.84,6.53,30.15,2.52,17.72-5.11,29.53-17.88-3.63-48-1.66-32.13,1.65-44.56,0-5.12-.63-14.17-4.88-10.24-5-14.49-5.9l-17.32-2q-10.79-1.33-15.35-4.25-12.77.63-31.5-5.59-23.22-7.87-29.76-8.9-9.36,1.33-13.62,0-6.84-2-21.57-12.75-13.07-9.54-21.57-10.55a121.79,121.79,0,0,0,15.59-4.57q19.05-6.54,17.87-11.5a128.34,128.34,0,0,0,46.29,3.31q23.87-2.67,38.27-14.09V397a13.22,13.22,0,0,0,10.55-2q6.21-3.93,8.5-4.25,41.73-16.77,111.8-28.26m-141.88-8.19q19.85-10.79,54.72-5.91,19.6,2.6,55.66,10.87-42.27,10.47-66.68,19-15.36,10.86-37.79,10.16-21.5-.94-37.16-11.81,13.07,18.1,38.34,20.39.55,11.1-9.68,18.34-6.78,5-17.56,6.93a120.19,120.19,0,0,1-49.13-1.65c-1.31-.21-3.1-1.21-5.35-3a17.93,17.93,0,0,0-5.67-3.23A39,39,0,0,0,990.9,413l-11.65-.31q-9.91-1.66-21.89-8.19-14.72-8.26-17.87-9.21,16.21-8.91,75.82-15.44,51-5.89,67.23-25.58m83.14,153.21c4.52-1.32,7.72-2,9.61-2l34.09,1,36.61,2.29a56.11,56.11,0,0,1-6,34.4l-17,25.27c-1.16,1.73-2.49,4.91-4,9.53a53.19,53.19,0,0,1-4.25,9.53q-4.8,7.54-17.32,17-13.62,10.23-18.11,16.14-11.1-4.65-35.74-10.23-23-5.21-33.78-10.48-9.67-4.87-20.15-20.62-11.34-17.08-17.87-21.65,6-9.53,19.6-20.08,17.25-13.38,21.26-17.71l16.45-3.94q9.38-2.91,12.21-8.82-5.67-4.56-15.36-2.28-.86.32-14.72,5.59A121.74,121.74,0,0,0,1084,524.58q-3.39,2.59-14.17,14.41-9.13,10.15-14.25,12.12c-3.2,1.32-8.11,2.31-14.72,3l-16.77,2q-41.1,7.88-78.89,12.44a51.92,51.92,0,0,1-11.57,0,104.38,104.38,0,0,0-11.66,0l-30.07,7.25Q874.22,579.69,862,578c.94,1.31,1.42,4.49,1.42,9.53q-12.45-3.95-37.71-22-22.68-16.14-40-19.05l-15-3a116.28,116.28,0,0,0-14.8-3.23l-38-2q-23.54-1.65-31.49-10.55a14.37,14.37,0,0,1,.63-6.22q-7.08,5.6-12.2,8.9-11.41,7.54-18.5,2a13.94,13.94,0,0,1,8.26-7.24q8-2.6,9.37-3.94,6-3.93,16.69-21,8.82-13.77,17.32-15-1.65,7.54-8.73,16.37-8.28,10.47-10.24,15.12,7.63,13.06,28.89,13.78l38,.31q9.38,1.65,30.94,8.5,19.6,6.23,29,7.25,7.4,8.51,20.15,16.69,7.63,4.63,23.23,13.15-12.77-13.15-26.06-35.75-8-13.46-23-43Q800.77,479,798.8,472.07q-4.87-16.69-.87-35.75,17.33,11.19,49.37,8.19L901.46,438v-1.66L923.9,434l22.44.63q3.39.63,10.47,4.57,6,3.3,10.24,3.3l8-.94q.56,10.47,16.45,19,19.29,9.84,23,15.12,16.69-1,38.27,5.59,25.26,7.56,35.5,8.5h1.42q13.06-.63,33.78,8.19,23,9.84,32.9,10.87c2.1.2,5.23-.24,9.37-1.34m-49.12,98.41,21.88,8.19,19,5.59a105.36,105.36,0,0,0,19.29,3.93q16.45,1.67,54.24-2.59,31.72-3.94,48,.94-5.43,7.56-21.26,9.53l-29.29,1.65q-22.12,1.33-32.91,1-17.87-.32-29.76-4.26-6.21,2.29-21.57,13.15-13.06,9.53-23.3,10.47-13,1.35-34-7.87-23.55-10.15-32.68-10.79-16.14-1.34-46.53,7.88-31.73,9.84-46.21,9.52-13.62-.39-26.69-8.58l-21-15Q893,614.81,889.89,612.13q-12.82-10.47-18.5-22.91,14.8,1.57,41.17-7.56Q943,571.12,956,570.17l20.47,1.65q13.3,2.28,20.39,1.65,4.25-.39,34.64-7.56,20.7-4.63,33.46-2,4.88,4.56,16.77,21.65,9.91,14.08,18.74,19.36,4.56-3.3,16.14.95m75.18,38.42q-5.67,10.15-23,16.06-23.22,7.88-27.47,10.47l-5.67.32c-2.47,0-3.81-.66-4-2q-2.28,6.22-10.47,13.15-8.82,7.56-11.34,12.12-22.42,5-57.31,7.24L994.29,704a100.3,100.3,0,0,0-9.69-5.59,18,18,0,0,0-12.2-2.29,85.11,85.11,0,0,1-6.22-10.86,29.53,29.53,0,0,1-2-16.06q5.35.31,7.4,8.19,2.83,9.21,4.81,10.86,13.85,6.86,37.71,5.91l48.26-4.25q5.67-.31,22.12.31,11.34.32,17.32-2,5.12-2,12.21-10.47,6.53-7.87,10.78-8.58-4.24-3.23-15-4.88-12.19-2.28-16.21-4.25,1.17,3.23-14.41,4.56l-26.45,1.66q-51,2-62.67-7.88-1.42.32-13.07,3.94a38.44,38.44,0,0,1-14.18,2.28,68.56,68.56,0,0,0-5.66,11.5L952,688.26a146.12,146.12,0,0,1-21-.31q-12.45-1-18.74.31-3.93.63-14.17,7.24-7.64,4.57-12.76,2.29,3.7-14.49,25.83-16.46l36.61-3.93q4.25-5.52,8.19-20.63,15-1,47.39-10.47,27.79-8.26,46.53-6.93,14.49,1.33,45.43,12.44,27.79,10.23,43.14,9.53,9.61-.32,26.69-8.82,16.69-8.19,26.61-8.19M687.79,96.13q3.71,8.19,5.12,27.56.86,11.17,1.73,35.42-37.71,11.5-54.8,44.25,3.15.39,1.42,4.65-3.07,7.55-18.74,32.75-14.17,23.3-17.87,34.8-13.62,1.33-38-4.57-26.05-6.23-39.68-6.22-3.15-3.93-4.8-11.18-2-7.87-.63-12.44h-3.94q-2.52-7.25-7.63-29.21-4.26-18.74-8.82-27.55a19.74,19.74,0,0,1,8.82-7.88q7.63-3.62,10.15-6.22,6-5.58,13.62-26.29,6.3-17,15-19.37-9.91,28.58-14.17,36.45-9.6,18.35-23.86,25,10.24,35,12.21,53.46,4,.63,5.75,6.85l2.51,10.55q37.48,3.93,68.11,14.09,2.84-2.67,5.66-9.84,3.15-8.19,5.12-10.55,4.8-28.18,27.56-58.34,24.33-32.52,50.15-39.37.32-5.58-2.83-30.23-2.21-17.32,2.83-26.53m-12.44,186q-5.67-12.12,8.19-22,10,1.33,27-9.14,17-10.86,26.06-9.84,3.46-30.54,4.25-34.17,3.71-17.4,13.62-22.59,0,58-17.87,58.34a3.61,3.61,0,0,0,1.73,2.67,3.09,3.09,0,0,1,1.11,3.62q-18.66,28.82-64.09,33.07m88.49-20.63q2.83-15.42,13.62-25.27c1.53,0,2.47.55,2.84,1.65q1.41,3.94-2.84,9.85-5.12,7.23-5.35,10.78,2,3,14.49,7.56,9.92,3.62,10.15,12.83-12.19-4.25-17.87-6.92-9.92-4.26-15-10.48M809,351.37l8.26-22L898.08,333a537.38,537.38,0,0,0,79.75-5.2q3.39-3.62,17-2,12.51,1.57,15.59-4.33l3.15,5.9a15.89,15.89,0,0,1,2.28,6.61q13.3.94,32.59,5.59l31.5,6.85q-12.45,18-42.83,22.28-38.26,2.69-59.29,6.3-7.08,1.26-27.79,9.84-16.45,6.85-30.7,5.91-.8-3.94-5.67-3.31-12.76-9.84-32.6-18.74,1.65-4.24,9.61-11.8,7.16-6.54,8.26-13.39-6.21,1.58-19.05,12.44-12.75,10.15-23.22,12.75-8.82,2-26.38,3.31-19.29,1.33-28.11,3A103.6,103.6,0,0,1,809,351.37M706.84,431.76a32.77,32.77,0,0,0-6.22-3.31q-4-1.65-4.88-4.64a208.35,208.35,0,0,1-29.21,5l-32,3L598.75,437a156.92,156.92,0,0,1-36.38,1q-42-3-61.8-6.62-34.33-5.89-48.58-22,21.35,5,68.73,17.08,42.84,8.82,74.32,5.28,33.47-4,102.12-19.05,28.11-5.28,40.86-9.53,4.25-1.33,20.15-12.13,11.34-8.18,19.29-5.27-9,13.77-32,22.28-27.24,7.88-40,12.52,21.8,2,45.66,11.81,13.62,5.58,40,18-1.65,4.95-6.77,3.62a56.14,56.14,0,0,0-8.26-3.62L742.9,437.27q-19.29-7.87-36.06-5.51m89.91-3.31q-.56-28.57,5.43-45.58,16.77,18.35,57.32,17l35.43-2.6q21.57-1.65,35.19-.31,23.86,12.75,34.64,17.4a134.94,134.94,0,0,0,41.73,9.45q-17.87,8.9-44.25,8.26l-51.09-2L851,436q-34.87,3.23-54.25-7.56m43.7-49.91q21.33-2.3,29.84-6.85,18.42,10.47,29.76,15.74-53.31,10.47-89.91-3,8.19-3.54,30.31-5.9M422.78,268.31q-1.65-5.9.55-9.84c2.84-.21,4.73,1.24,5.67,4.33l2.6,8.19h31.49q5.36-2.67,11.89-14.49,6-11.42,12.52-13.77,6,26-16.77,35.11-19.85,7.88-44.56-.63a66,66,0,0,1-3.39-8.9M143,502.62q2.92,14.08,26.46,17l38.81,5L219,530.17a23,23,0,0,0,12.2,2.28v1.66q.32,3.54,4.25,4.25c4,.84,6.28,1.49,6.85,2q2-.32,2.84-4.65.86-4.56,2.52-4.88,5.12-2.59,23.3-3a245.27,245.27,0,0,0,55.9-16.06q34.64-14.73,32.59-31.18-1.1-11.1-18.42-17-21-5.28-29.21-8.19,4.26-4.65,12.2-6.93,11-2.91,13.62-4.25l8.51-6.22q5.43-5,9.05-6.22,10-3.63,28.42-3.62l28.9-1.34q6.52-1.33,15.9-9.53,9.92-9.21,14.17-10.78,5.43,7.47,7.4,21.65a92.71,92.71,0,0,1-.55,27.24l13.31-3q11.1-2.29,12.52,5.9-5.13-2.28-12.76.32-9.68,3-13.07,3a101.83,101.83,0,0,1-2,28.18q-2.6,12.45-10.55,28.58Q435,521.9,429,537q-4.8,11.18-8.19,15.75-2.28,3.3-7.95,7.24a57.94,57.94,0,0,0-8.5,7.16,30.9,30.9,0,0,0-4,6.93c-1.47,3.52-2.88,5.93-4.25,7.25q-11.56,13.38-51.64,37.71a92.76,92.76,0,0,0-9.37,6.85,49,49,0,0,1-8.19,5.59q-9.69,4.25-25.51,7.56l-25,5.27a45.08,45.08,0,0,0-8.74,3.23l-8.81,3q-42.6,8.82-74.09,7.87-42.51-1-70.38-19l15.9-22.28q9.38-12.84,19.6-18.42,6.23-3.55,21.58-7.48,14.72-3.95,21.8-8.58L216,566.86a214.69,214.69,0,0,1,22.36-14.09,10.3,10.3,0,0,0-1.42-7.25l-2.83-5.19c-1.32.42-2.16,2-2.52,4.88-.37,3.31-.84,5.27-1.42,5.9q-9.91.72-21,9.53-5.91,4.56-17.32,14.09-7.32,5-21.57,8.58-15.83,4.26-21.81,7.17-9.69,5-22.44,20-13.31,16.14-21.26,21-35.5-26.22-54.79-46.61Q22.67,555.76,9.37,521.27q43.7-13.46,76.29-14.09,7.4-5.58,20.47-4.56,16.45,1.26,20.39,0a22.78,22.78,0,0,0,8-5,87,87,0,0,1,7.09-6.22Q153,484.2,170.85,477q9.92-4.33,30.62-12.52c2.1-.42,3.89.47,5.35,2.68s3.34,2.91,5.44,2.28q48.81-13.16,95.34-6.22L330,471.12q13,4.89,19.84,10.79-12.53,16.38-41.18,25.27-34.32,8.19-51.33,12.76-22.44,10.54-57.63.7-38.82-14.08-56.77-18M974.68,706.29q6.54-4.87,11.34-2.28-.56,7.25-8.19,10.47-9,4.24-10.78,6.93-3.15-.31-44.25.63-27,.63-36.37-8.51,8.49-2.67,35,0,27.79,2.61,40,0,3.93-1,13.3-7.24M32.36,77.79Q14.17,95.51,19,124.63c2,1.1,6.22,1.65,12.84,1.65q9,0,11.57,3-1.1,6.53-12.2,5.59L13.62,132.5Q4.25,99.76,22.67,75.42,40.86,51.81,69.2,53.77,36.6,73.45,32.36,77.79Z" style="fill:#934d3a"/></g><g id="Layer186_0_FILL" data-name="Layer186 0 FILL"><path d="M809,351.37A103.6,103.6,0,0,0,802.18,375q8.82-1.65,28.11-3,17.57-1.33,26.38-3.31,10.47-2.6,23.22-12.75,12.84-10.86,19.05-12.44-1.1,6.86-8.26,13.39-7.95,7.55-9.61,11.8,19.84,8.91,32.6,18.74l-5.36-9.21q9.06-15,32.36-28.18,32.6-18.75,37.16-22.29a537.38,537.38,0,0,1-79.75,5.2l-80.86-3.62Z" style="fill:#c76d4e"/></g><g id="Layer185_0_FILL" data-name="Layer185 0 FILL"><path d="M273,39.37q3.39,12.43,7.4,14.4Q283.2,25,257.37,0H144.16q-32.37,27.87-27.25,70.86a70.2,70.2,0,0,0,2.84,10.47,76.76,76.76,0,0,1,2.83,10.23q3.15,24.57,4.25,29.53Q130,135.49,137.31,145q15.66,20.31,39.75,20.63a2.88,2.88,0,0,1-1.41-3.23q-.56-7.56,2.52-7.87-4.26-5.6-3.39-16.46Q176,126.29,185,127.62q2,2.59.86,7.88c-.94,4.35-1.23,7.53-.86,9.52,2.25,3.47,5.67,5.2,10.23,5.2a17.86,17.86,0,0,0,11.57-3.55q2.06-2.35.63-8.89c-.57-3.73.16-6,2.21-6.85q6.3-1.34,8.82,5.19a15.1,15.1,0,0,1-.55,12.13q5.35.39,0,12.52.31,2.91-4.81,7.87-4.25,3.63-.86,4.88,30.39,1,53.61-31.49,22.44-31.5,17.32-61.65L272.72,95.5q-6.84,8.82-13.93,7.16,2-6.21,11.1-15.74,7.64-8.51,7.87-16.06,0-6.23-8.74-20-8.5-12.84-6.3-22.28,7.17,0,10.24,10.79M208,45.58q1.65-13.77,3.07-20.31h4q8.82,27.24,9.92,33.78a98.93,98.93,0,0,1-.31,40.39q-1.42,3.23-8.19,11.81-5.67,6.84-6.85,13.38a6.39,6.39,0,0,0-5,.71l-3.15,2.28q.56,9.84-2.83,11.18Q185,118.1,179.35,106q-10.24-21.64-5.12-41.33,2.52.31,2.83,3.93a26.05,26.05,0,0,1,0,5.67,35.64,35.64,0,0,1,8-18.81l12.2-16.06a22.89,22.89,0,0,1,.87,8.18l-.87,9.21Q205.17,56.13,208,45.58Z" style="fill:#f78b60"/></g><g id="Layer184_0_FILL" data-name="Layer184 0 FILL"><path d="M362.08,45.9Q344.44,12.12,326.89,0H257.37q25.83,25,23,53.77L286,66.92q2.28,7.88-2.84,13.46,5.13,30.16-17.32,61.65-23.22,32.52-53.61,31.49-3.39-1.26.86-4.88,5.13-5,4.81-7.87a104.57,104.57,0,0,1-10.24,10.15q-6.54,5.28-15.9,3.94,2,2.28,1.41,9.53,1.19,1.26,4,.31a3.77,3.77,0,0,1,4.25,1.34q1.74,6.22.55,17-1.1,13.14-.55,19l-6.22.31a12.8,12.8,0,0,0-7.4,1.34q-4.8-7.25-4.57-25,.32-17.08,4.57-25.27a6.51,6.51,0,0,1-7.64-3.62q-4-7.17-4.56-7.48a2.88,2.88,0,0,0,1.41,3.23Q153,165.33,137.31,145q-7.34-9.53-10.48-23.93-1.1-5-4.25-29.53a76.76,76.76,0,0,0-2.83-10.23,70.2,70.2,0,0,1-2.84-10.47Q111.8,27.87,144.16,0H116.91Q68.66,55.74,51.65,121.4c.36,1.52,2.25,3,5.67,4.57q4.56,1.65,3.7,6.53-1.74,2.37-6.22,1c-3-.9-5-.69-6,.63q-.31,5-3.38,18a65.79,65.79,0,0,0-2,19.68q.63,1,4-.63t5.66.63q3.15,10.86,5.12,33.14,2,20.4,5.67,29.84,4.56,10.88,19.29,19.69Q99.91,264.77,104.71,271q11.34-5,34-4.25,22.44.63,31.5-3.62Q176,260.43,184.7,249q10.78-14.47,13.94-17.39a159.61,159.61,0,0,1,16.77-13.47l15.82-11.81,5.12-23.3q3.39-13.78,11.34-16.06,1.41,10.15-3.39,25.58-6.54,20.33-7.4,25-15.83,8.5-32.28,24.88-5.12,5-27.56,30.23-7.63,2.61-21,3.23l-21.25,1.34-24.41,4.25q-9.91.32-21.89-8.82Q64.16,253.9,55,238.79q-13.86-22.9-11.65-59a402,402,0,0,0-3.62,64.95q1.1,38.74,10.47,61Q17.88,326.1,3.94,351.37q21.33-7.23,48.26-8.89,21.57-1.34,52.51,1a1.88,1.88,0,0,0-1.1-1.65,3.18,3.18,0,0,1-1.5-1.66q39.21-23.61,81.73-29.83c1.36-.21,2.12,1,2.28,3.62q.63,3.54,3.15,2.6a6.11,6.11,0,0,0,4.56-.63,7.83,7.83,0,0,1,4.81-1V312a14,14,0,0,1,6.22.63,40.31,40.31,0,0,1,4.8,2.28q-.56-9.84,8.82-10.15l17,.94q4.26-.63,21.34-5.51,12.44-3.63,19.52-2.36a12.66,12.66,0,0,1,2.6,5,6.16,6.16,0,0,1-1.18,5.9l16.77-3.3q9.92-2.29,13.07,3.3-4,6.54-13.94,8.51a151.6,151.6,0,0,0-17.32,2.67,231.2,231.2,0,0,0-49,17.32,7.5,7.5,0,0,0,6.22-.63,27.68,27.68,0,0,1,4.81-2.6q8.58,5.59,39.44,23.62,27,17.71,27.24,29.84a18.85,18.85,0,0,1-3.93,11.5,12.22,12.22,0,0,1-11.89,4.56q25.82,5,53.85,21.65,8.82-3.61,53.06-10.47,33.78-4.95,45.12-19.36A103.72,103.72,0,0,0,418,345.78q-7.39-8.58-36.61-33.77l5.67-8.9A22.4,22.4,0,0,0,389.32,293q0-6.93-5.43-13.47t-5.35-10.15q4.56-8.89,16.45,6.22,3.7-20,3.94-24.57.63-16.77-10.79-14.8l-25.19,1q-15,2-19.92-1c0-2.83.47-4.91,1.42-6.22q12-4.25,27.55-14.09,21.25-13.47,25.51-15.75Q388.45,132.2,387,124q-6.77-42-16.77-68.57-2.2-1.26-14.72-1.26c-6.83-.27-10.05-1.47-9.69-3.63q-.54-5.58,5.75-5.27l10.47.63m-9.92,25.59a3.12,3.12,0,0,0,2,1q-8.82,12.43-32.67,30.15-24.09,17.72-32.91,29.84,5.43-20,26.69-35.43,31.8-22.9,34.64-26.21a2.48,2.48,0,0,1,2.28.63m-263.67-2h4q1.41,13.14-10.79,36.14L72.9,121.4Q67,129.9,61,129.28q2.83-7.87,14.72-28.9,9.67-17.09,12.75-30.86m207.22,138.8A42.86,42.86,0,0,1,309,220.76a66.81,66.81,0,0,1-1.73,18.42Q305,251,305,256.9a226.66,226.66,0,0,1-23.22,11.41q-14.49,6.3-25.83,4.33,6-6.93,19.84-11.81l22.44-8.58q5.67-19.37.87-29.21-4.26-7.87-19.92-15v-4.65Q286.58,202.73,295.71,208.32Z" style="fill:#c76d4e"/></g><g id="Layer183_0_FILL" data-name="Layer183 0 FILL"><path d="M700,9.53A28.62,28.62,0,0,0,713.61,0H507.89q3.71,5.91,17.32,17.4,11.65,9.84,13.94,17.4a16.74,16.74,0,0,1-2.6,8.82l-4.25,6.92q2.6,6.85,12,14.1,9.93,7.88,12.76,12.75-3.15,1.33-13.62,1.66-9.06.32-12.21,3,9.62,8.82,22.68,2,6.54-3.32,17.87-14.49,1.18,1,17.32,24.64,10.23,15.12,21,14.72,7.63-.31,15-10.78,7.39-10.16,14.72-9.84l5.67-8.51a27.2,27.2,0,0,0,4-10.23A280.15,280.15,0,0,0,712.2,89.91Q708.57,81,697.47,76.76q-6.53-2.28-22.12-4.25,2.83-9.53,14.49-25.27,13.3-18.35,17-26.53A6.41,6.41,0,0,0,704,14.09Q700.31,11.81,700,9.53Z" style="fill:#5d2d26"/></g><g id="Layer182_0_FILL" data-name="Layer182 0 FILL"><path d="M1105.77,36.45q.32,5.91,5.43,29.13,4.26,19.68,2.84,33.86-1.43,13.77-12.52,29.84-14.49,21.33-16.14,25.27-1.43,3.22-7.4,20.31-3.15,9.21-7.64,14.09-6.85,7.88-20.47,14.41-15.9,7.24-16.14-3.23-.56,2-2.83,17.4-1.43,10.47-5.44,14.1-8-1.66-9.6-13.78-.32,0-1.42-23.94c-1.15.21-1.55,1.74-1.18,4.57.42,3.52,0,5.69-1.42,6.53q-1.65,1-11.88-3.22a95.76,95.76,0,0,1-15.36-7.88,43.31,43.31,0,0,1-11.33-10.23l-9.06-10.16q-16.46-15-19.84-19.37-10.54-12.43-8.82-23.22h6.78q-1.43-1.65-6.22-2-5.67-.39-7.41-1.34-9.91-15.44-9.6-43.93.24-31.48,16.45-36.14-4.56.72-1.41-4.88,3.69-7.24,17.32-21.33L971,0H916.5q-9.6,10.47-21.81,30.86Q877.92,58.1,874.22,63.3q7.95,1.65,8.51,16.77l-.24,27.24q.24,3.22,6.22,26.22,3.7,14.08-.87,19.36-6.76-13.14-10.15-39.36Q874.85,83,872.81,67.94l-13,25.59Q850.45,110.23,847,121.4a37.27,37.27,0,0,0-1.41,9.53,52.08,52.08,0,0,1-1.42,9.45Q843,145,838.24,155.49a53,53,0,0,0-4.88,14.8q-4.25,37.41-2.52,56.69.87,9.53,4.25,26.93l6.54,29.83q-10.47,11.82-19,36.14a68.44,68.44,0,0,0,26.69,1.26q13.93-2,22.12-7.56a4.92,4.92,0,0,1,.63,5.59l-3.15,5.28q19,2.28,49.68.31L971,323.11q-6.21-2.6-27.79-4.88-18.11-2.28-25.27-7.87,6.84-5,19.05-3l42.52,9.22q13.62,2.6,21.57,1.65,6.3-1,26.14-8.9,15.35-6.21,25.51-3.62-5.13,4.65-17.56,7.87-14.81,3.63-19.29,6.3,4.49,7.17,15,9.84l19,2.6q3.7.63,18.5,5.28a103.37,103.37,0,0,0,18.43,4.25q25.5,2.28,57.86-8.19,18.73-5.91,49.68-20.08-3.15-14.4-2-39,2-27.24,2-39.76,0-7.47-2.6-21.65-2.52-15-2.83-20.94a8.2,8.2,0,0,1,1.42-3,7.77,7.77,0,0,0,1.41-3.23q-2.21-21-9.92-47.95-9-30.47-13.3-46.53-6.54,8.5-12.76,25.59-7.08,18.35-7.71,31.1a69.14,69.14,0,0,0,1.41,8.27q1.18,4.56-1.41,7.48-10.15-14.73-2-40.94,2.28-6.61,17-37.79-8.5-9.45-20.16-27.17-15-22.35-19.29-27.95Q1105.22,27.56,1099,41a22.34,22.34,0,0,0,6.77-4.57m47.71,164.94q17.32,8.58,23.23,16.14-2.52,43.93-19,70.86-10.23,3.54-43.46,3.23-29.2,0-41.09,7.87-15.92-9.53-24.1-14.09a145,145,0,0,0-26.45-11.18,31.91,31.91,0,0,1-1.42-9.45q0-6.3,2.84-7.87,5.43,9.84,22.75,17.32,19.53,8.58,25,14.17,26.06-17.4,78.89-9.53,7.63-8.89,11.65-25.27,3.06-12.12,4.8-32.83-25.83-12.44-36.06-22.28-17.55-17.08-15.59-42.36H1118q5.12,5,8,13.78,3.7,11.17,5.67,14.49,6,9.13,21.89,17M848.4,234.85q9.14,2,19.92,22.68,10.78,19.68,22.36,21.33,3.69.63,8.82-2a75.83,75.83,0,0,1,8.81-4.26q7.63-2.36,23.54-4.64l25.51-4.88a75.53,75.53,0,0,0,9.37-13.78l16.46-31.18q5.43-8.19,12.2-6.93-11.58,30.56-32.6,63a273.91,273.91,0,0,0-36.6,6.3q-4.26.94-17.88,6.53-11.1,4.57-16.22,4.25-5.65,0-14.72-6.85a63.63,63.63,0,0,1-12.52-11.81,81.87,81.87,0,0,1-11.33-18.42Q848.41,243.12,848.4,234.85Z" style="fill:#c76d4e"/></g><g id="Layer181_0_FILL" data-name="Layer181 0 FILL"><path d="M1250.24,83.69q17,18.35,19,20.94,8,11.19,10.79,29.53V0H1169.93q-.54,12.84,9.61,21.65,6,5.28,20.15,14.8Q1230.08,62,1250.24,83.69Z" style="fill:#5d2d26"/></g><g id="Layer180_0_FILL" data-name="Layer180 0 FILL"><path d="M269,50.86q8.75,13.78,8.74,20-.24,7.56-7.87,16.06-9.13,9.52-11.1,15.74,7.08,1.66,13.93-7.16l10.47-15.12q5.13-5.58,2.84-13.46l-5.67-13.15q-4-2-7.4-14.4-3.07-10.8-10.24-10.79Q260.52,38,269,50.86Z" style="fill:#934d3a"/></g><g id="Layer179_0_FILL" data-name="Layer179 0 FILL"><path d="M945.16,41.65q-5.91,5.9-9.61,5.9Q919.34,52.2,919.1,83.69q-.32,28.5,9.6,43.93,1.74.94,7.41,1.34,4.8.31,6.22,2a4.92,4.92,0,0,0,4.25-.71,5.77,5.77,0,0,1,4-.94q6-12.14-3.38-24.65Q935.8,88.9,935.55,83.69q-.31-8.89,8.82-21,9.61-12.84,10.16-23.3Q950,36.45,945.16,41.65Z" style="fill:#934d3a"/></g><g id="Layer178_0_FILL" data-name="Layer178 0 FILL"><path d="M201.47,70.86a13.43,13.43,0,0,0-7.95,2,34.35,34.35,0,0,1-7.09,3Q179.91,85,181,99.44q5.12,2.91,9.37,13.38,4.88,11.81,8.27,14.8,13.06-12.83,18.73-34.48,6.54-26.22-12-34.72c-.74,1.1-1.39,3.28-2,6.53C203.07,68,202.42,70,201.47,70.86Z" style="fill:#e26937"/></g><g id="Layer177_0_FILL" data-name="Layer177 0 FILL"><path d="M1148.05,148.25q.63-12.75,7.71-31.1,6.23-17.09,12.76-25.59,3.93-2.36.23-6.61t-5.66.32q-14.73,31.17-17,37.79-8.19,26.2,2,40.94,2.6-2.92,1.41-7.48A69.14,69.14,0,0,1,1148.05,148.25Z" style="fill:#f78b60"/></g><g id="Layer176_0_FILL" data-name="Layer176 0 FILL"><path d="M1042.79,59.05c-.58-.21-1.34.13-2.29,1q-6.21,27.56-32.91,33.07.31,13.14,11.1,23.62.55,13.45,9.61,17.4,1.18-2,12.52-16.69,8.27-10.87,9-19.69.63-5.58-1.65-17.71-2.6-12.84-2.29-20A6.3,6.3,0,0,1,1042.79,59.05Z" style="fill:#e26937"/></g><g id="Layer175_0_FILL" data-name="Layer175 0 FILL"><path d="M685,122.66q3.13,24.65,2.83,30.23-25.83,6.86-50.15,39.37-22.75,30.15-27.56,58.34Q614,245.4,624.25,226q8.5-15.43,15.59-22.68,17.08-32.75,54.8-44.25-.87-24.24-1.73-35.42-1.42-19.38-5.12-27.56Q682.75,105.34,685,122.66Z" style="fill:#c76d4e"/></g><g id="Layer174_0_FILL" data-name="Layer174 0 FILL"><path d="M548.75,124.63Q540,127,533.71,144q-7.63,20.7-13.62,26.29-2.52,2.61-10.15,6.22a19.74,19.74,0,0,0-8.82,7.88q4.56,8.82,8.82,27.55,5.12,22,7.63,29.21h3.94c.58.21,1-.34,1.42-1.65q-2-18.42-12.21-53.46,14.25-6.61,23.86-25Q538.82,153.21,548.75,124.63Z" style="fill:#c76d4e"/></g><g id="Layer173_0_FILL" data-name="Layer173 0 FILL"><path d="M206.82,146.67a17.86,17.86,0,0,1-11.57,3.55c-4.56,0-8-1.73-10.23-5.2-.37-2-.08-5.17.86-9.52q1.11-5.28-.86-7.88-9.06-1.34-10.24,10.47-.87,10.88,3.39,16.46,6.84,7.88,21.57,5.9,15.66-1.65,18.19-12.2a15.1,15.1,0,0,0,.55-12.13q-2.52-6.52-8.82-5.19c-2,.84-2.78,3.12-2.21,6.85Q208.88,144.31,206.82,146.67Z" style="fill:#f4c06e"/></g><g id="Layer172_0_FILL" data-name="Layer172 0 FILL"><path d="M1176.71,217.53q-5.91-7.56-23.23-16.14-15.9-7.87-21.89-17-2-3.31-5.67-14.49-2.84-8.82-8-13.78h-2.52q-2,25.27,15.59,42.36,10.24,9.84,36.06,22.28-1.72,20.7-4.8,32.83-4,16.38-11.65,25.27-52.83-7.87-78.89,9.53-5.43-5.59-25-14.17-17.33-7.49-22.75-17.32-2.84,1.58-2.84,7.87a31.91,31.91,0,0,0,1.42,9.45,145,145,0,0,1,26.45,11.18q8.19,4.56,24.1,14.09,11.88-7.87,41.09-7.87,33.23.31,43.46-3.23Q1174.19,261.47,1176.71,217.53Z" style="fill:#934d3a"/></g><g id="Layer171_0_FILL" data-name="Layer171 0 FILL"><path d="M754.47,184.39q-9.91,5.19-13.62,22.59-.78,3.63-4.25,34.17v1.58Q754.48,242.42,754.47,184.39Z" style="fill:#c76d4e"/></g><g id="Layer170_0_FILL" data-name="Layer170 0 FILL"><path d="M279.18,208q15.66,7.16,19.92,15,4.8,9.84-.87,29.21l-22.44,8.58q-13.85,4.89-19.84,11.81,11.34,2,25.83-4.33A226.66,226.66,0,0,0,305,256.9q0-5.91,2.29-17.72A66.81,66.81,0,0,0,309,220.76a42.86,42.86,0,0,0-13.31-12.44q-9.13-5.59-16.53-5Z" style="fill:#934d3a"/></g><g id="Layer169_0_FILL" data-name="Layer169 0 FILL"><path d="M641.26,208q1.72-4.26-1.42-4.65-7.08,7.24-15.59,22.68Q614,245.4,610.08,250.6q-2,2.35-5.12,10.55-2.82,7.17-5.66,9.84-30.63-10.15-68.11-14.09l-2.51-10.55q-1.74-6.22-5.75-6.85c-.37,1.31-.84,1.86-1.42,1.65q-1.41,4.57.63,12.44,1.65,7.25,4.8,11.18,13.62,0,39.68,6.22,24.4,5.91,38,4.57,3.71-11.51,17.87-34.8Q638.2,215.56,641.26,208Z" style="fill:#5d2d26"/></g><g id="Layer168_0_FILL" data-name="Layer168 0 FILL"><path d="M864.85,272.64a63.63,63.63,0,0,0,12.52,11.81q9.06,6.85,14.72,6.85,5.13.31,16.22-4.25,13.62-5.6,17.88-6.53a273.91,273.91,0,0,1,36.6-6.3q21-32.45,32.6-63-6.76-1.26-12.2,6.93l-16.46,31.18a75.53,75.53,0,0,1-9.37,13.78L931.85,268q-15.9,2.28-23.54,4.64a75.83,75.83,0,0,0-8.81,4.26q-5.13,2.6-8.82,2-11.58-1.65-22.36-21.33-10.79-20.71-19.92-22.68,0,8.27,5.12,19.37A81.87,81.87,0,0,0,864.85,272.64Z" style="fill:#934d3a"/></g><g id="Layer167_0_FILL" data-name="Layer167 0 FILL"><path d="M786.6,266q-12.52-4.56-14.49-7.56.24-3.54,5.35-10.78,4.26-5.91,2.84-9.85c-.37-1.1-1.31-1.65-2.84-1.65q-10.79,9.84-13.62,25.27,5.11,6.23,15,10.48,5.67,2.67,17.87,6.92Q796.51,269.65,786.6,266Z" style="fill:#5d2d26"/></g><g id="Layer166_0_FILL" data-name="Layer166 0 FILL"><path d="M683.54,260.13q-13.86,9.84-8.19,22,45.43-4.24,64.09-33.07a3.09,3.09,0,0,0-1.11-3.62,3.61,3.61,0,0,1-1.73-2.67v-1.58q-9-1-26.06,9.84Q693.55,261.46,683.54,260.13Z" style="fill:#5d2d26"/></g><g id="Layer165_0_FILL" data-name="Layer165 0 FILL"><path d="M422.78,268.31a66,66,0,0,0,3.39,8.9q24.72,8.51,44.56.63,22.75-9.13,16.77-35.11Q481,245.09,475,256.5q-6.54,11.82-11.89,14.49H431.6L429,262.8c-.94-3.09-2.83-4.54-5.67-4.33Q421.13,262.42,422.78,268.31Z" style="fill:#5d2d26"/></g><g id="Layer164_0_FILL" data-name="Layer164 0 FILL"><path d="M1218.75,354.29q-3.7-4.26-10.24-17.72-6-12.12-11.33-16.69-8.28,7.49-25.83,13.39-24.4,8.26-28.66,10.23Q1169.07,345.78,1218.75,354.29Z" style="fill:#c76d4e"/></g><g id="Layer163_0_FILL" data-name="Layer163 0 FILL"><path d="M1246,438q-7.41-45-21.57-75.5-70.08,11.49-111.8,28.26,3.93,2.28,15,14.09,8.82,9.14,17.55,11.1,1.43,13.47-7.08,25.28l-17.32,18.73q-8.19,10.47-12.44,14.41-6.86,6.22-14.8,4.65,4.56,2.91,15.35,4.25l17.32,2q4.24.94,14.49,5.9,9,4.26,14.17,4.88,12.43,1.65,44.56,0,30.07-2,48,1.66,7.63-11.82,5.11-29.53Q1247.65,447.82,1246,438Z" style="fill:#c76d4e"/></g><g id="Layer162_0_FILL" data-name="Layer162 0 FILL"><path d="M738,403.18q-12.75,4.24-40.86,9.53-68.65,15-102.12,19.05-31.49,3.54-74.32-5.28Q473.34,414.36,452,409.4q14.25,16.07,48.58,22,19.84,3.63,61.8,6.62a156.92,156.92,0,0,0,36.38-1l35.74-5.19,32-3a208.35,208.35,0,0,0,29.21-5q.87,3,4.88,4.64a32.77,32.77,0,0,1,6.22,3.31q16.77-2.37,36.06,5.51l33.15,13.15a56.14,56.14,0,0,1,8.26,3.62q5.12,1.33,6.77-3.62-26.37-12.45-40-18-23.85-9.84-45.66-11.81,12.75-4.65,40-12.52,23-8.51,32-22.28-8-2.91-19.29,5.27Q742.27,401.84,738,403.18Z" style="fill:#5d2d26"/></g><g id="Layer161_0_FILL" data-name="Layer161 0 FILL"><path d="M802.18,382.87q-6,17-5.43,45.58Q816.12,439.24,851,436l60.15-5.91q-2.6-2.67-2.84-5A200.25,200.25,0,0,1,930.12,397q-13.62-1.33-35.19.31l-35.43,2.6Q819,401.21,802.18,382.87Z" style="fill:#c76d4e"/></g><g id="Layer160_0_FILL" data-name="Layer160 0 FILL"><path d="M1006.49,423.81a134.94,134.94,0,0,1-41.73-9.45Q954,409.71,930.12,397a200.25,200.25,0,0,0-21.81,28.18q.24,2.3,2.84,5l51.09,2Q988.63,432.7,1006.49,423.81Z" style="fill:#f78b60"/></g><g id="Layer159_0_FILL" data-name="Layer159 0 FILL"><path d="M92.51,519.31q-7.64-3.31-6.85-12.13-32.59.63-76.29,14.09,13.3,34.49,40.55,63.62,19.28,20.39,54.79,46.61,8-4.89,21.26-21,12.75-15,22.44-20,6-2.91,21.81-7.17,14.25-3.62,21.57-8.58,11.42-9.53,17.32-14.09,11.1-8.82,21-9.53c.58-.63,1.05-2.59,1.42-5.9.36-2.84,1.2-4.46,2.52-4.88l2.83,5.19a10.3,10.3,0,0,1,1.42,7.25A214.69,214.69,0,0,0,216,566.86L193.2,582.61q-7.08,4.64-21.8,8.58-15.36,3.93-21.58,7.48-10.23,5.58-19.6,18.42l-15.9,22.28q27.87,18,70.38,19,31.5.95,74.09-7.87l8.81-3a45.08,45.08,0,0,1,8.74-3.23l25-5.27q15.83-3.31,25.51-7.56a49,49,0,0,0,8.19-5.59,92.76,92.76,0,0,1,9.37-6.85q40.07-24.33,51.64-37.71c1.37-1.32,2.78-3.73,4.25-7.25a30.9,30.9,0,0,1,4-6.93,57.94,57.94,0,0,1,8.5-7.16q5.67-3.93,7.95-7.24Q424.2,548.2,429,537q6-15.12,7.95-18.66,8-16.14,10.55-28.58a101.83,101.83,0,0,0,2-28.18q3.39,0,13.07-3,7.63-2.61,12.76-.32-1.43-8.19-12.52-5.9l-13.31,3a92.71,92.71,0,0,0,.55-27.24q-2-14.17-7.4-21.65-4.25,1.58-14.17,10.78-9.36,8.19-15.9,9.53l-28.9,1.34q-18.42,0-28.42,3.62-3.62,1.26-9.05,6.22l-8.51,6.22q-2.6,1.33-13.62,4.25-7.95,2.28-12.2,6.93,8.19,2.91,29.21,8.19,17.32,5.9,18.42,17,2.06,16.46-32.59,31.18A245.27,245.27,0,0,1,271,527.81q-18.18.39-23.3,3-1.66.32-2.52,4.88-.87,4.34-2.84,4.65c-.57-.48-2.86-1.13-6.85-2q-3.93-.71-4.25-4.25v9.13q-10.15,7.25-39.13,4.25-31.8-3.54-42.28.71-9.36-.32-21.88-9.21-17.88-13.15-20.39-14.41Q97.08,521.28,92.51,519.31Z" style="fill:#c76d4e"/></g><g id="Layer158_0_FILL" data-name="Layer158 0 FILL"><path d="M1165.68,507.5c-4.14,1.1-7.27,1.54-9.37,1.34q-9.91-1-32.9-10.87-20.72-8.82-33.78-8.19h-1.42q-7.64,9.21-26.14,11.81a107.65,107.65,0,0,1-31.17-.63c-1.53-.21-4-1.21-7.4-3a32.44,32.44,0,0,0-7.64-3.23l-23.3-1q-14.49.31-21.58-2.28-5.67-2-13.85-8.51l-14.8-11.81L919.1,457q-12.75-7.87-17.64-19l-54.16,6.53q-32,3-49.37-8.19-4,19.06.87,35.75,2,6.93,11.34,25.59,15,29.52,23,43,13.3,22.61,26.06,35.75A2.29,2.29,0,0,0,862,578q12.21,1.65,29.84-2.28l30.07-7.25a104.38,104.38,0,0,1,11.66,0,51.92,51.92,0,0,0,11.57,0q37.79-4.56,78.89-12.44l16.77-2c6.61-.69,11.52-1.68,14.72-3q5.12-2,14.25-12.12,10.79-11.81,14.17-14.41a121.74,121.74,0,0,1,27.24-14.09q13.86-5.28,14.72-5.59,9.69-2.28,15.36,2.28-2.83,5.91-12.21,8.82l-16.45,3.94q-4,4.32-21.26,17.71-13.62,10.54-19.6,20.08,6.52,4.56,17.87,21.65,10.47,15.74,20.15,20.62,10.8,5.28,33.78,10.48,24.64,5.58,35.74,10.23,4.5-5.91,18.11-16.14,12.52-9.45,17.32-17A53.19,53.19,0,0,0,1219,578c1.53-4.62,2.86-7.8,4-9.53l17-25.27a56.11,56.11,0,0,0,6-34.4l-36.61-2.29-34.09-1C1173.4,505.53,1170.2,506.18,1165.68,507.5Z" style="fill:#c76d4e"/></g><g id="Layer157_0_FILL" data-name="Layer157 0 FILL"><path d="M257.37,519.94q17-4.58,51.33-12.76,28.67-8.9,41.18-25.27Q343,476,330,471.12l-22.44-7.87c-.21,1.52.63,2.39,2.52,2.6s2.94.86,3.15,2q-8.82,13.46-26.14,28.18Z" style="fill:#c76d4e"/></g><g id="Layer156_0_FILL" data-name="Layer156 0 FILL"><path d="M1100.42,605q-8.82-5.26-18.74-19.36-11.9-17.08-16.77-21.65-12.75-2.69-33.46,2-30.39,7.17-34.64,7.56-7.09.63-20.39-1.65L956,570.17q-13,.95-43.39,11.49-26.37,9.14-41.17,7.56,5.67,12.43,18.5,22.91,3.08,2.67,23.78,16.45l21,15q13.06,8.19,26.69,8.58,14.49.31,46.21-9.52,30.39-9.21,46.53-7.88,9.14.63,32.68,10.79,21,9.21,34,7.87,10.23-.94,23.3-10.47,15.36-10.86,21.57-13.15v-1.26q-24.72-4.32-36.37-7.55Q1108.93,615.75,1100.42,605Z" style="fill:#c76d4e"/></g><g id="Layer155_0_FILL" data-name="Layer155 0 FILL"><path d="M1116.56,605.91q-11.58-4.24-16.14-.95,8.49,10.8,28.89,16.07,11.65,3.22,36.37,7.55v1.26q11.89,3.95,29.76,4.26,10.79.39,32.91-1l29.29-1.65q15.83-2,21.26-9.53-16.22-4.87-48-.94-37.79,4.25-54.24,2.59a105.36,105.36,0,0,1-19.29-3.93l-19-5.59Z" style="fill:#5d2d26"/></g><g id="Layer154_0_FILL" data-name="Layer154 0 FILL"><path d="M349.88,726q-4.26,2.29-23,7.88-55.59-2.61-163.76,1.65l-18.66-1.34q-9.37,0-12.52,9.21Q155.5,767,192.42,790q16.46,10.47,67.47,38.34,11.66-11.49,35.82-15.43,11.34-2,45.9-3.23,8.26-10.23,27-23.3,20.14-14.8,27.47-22.36-9.91-5.91-23.54-18.34Q355.24,729.91,349.88,726Z" style="fill:#934d3a"/></g><g id="Layer153_0_FILL" data-name="Layer153 0 FILL"><path d="M1107,11.81Q1096.72,5.59,1095,0H971L951.46,21.34q-13.62,14.08-17.32,21.33-3.15,5.59,1.41,4.88,3.71,0,9.61-5.9,4.88-5.2,9.37-2.28-.56,10.47-10.16,23.3-9.14,12.12-8.82,21,.24,5.19,11.66,20.94,9.36,12.53,3.38,24.65a5.77,5.77,0,0,0-4,.94,4.92,4.92,0,0,1-4.25.71h-6.78q-1.72,10.78,8.82,23.22,3.39,4.33,19.84,19.37l9.06,10.16a43.31,43.31,0,0,0,11.33,10.23,95.76,95.76,0,0,0,15.36,7.88q10.23,4.25,11.88,3.22c1.37-.84,1.84-3,1.42-6.53-.37-2.83,0-4.36,1.18-4.57q2.28-7.24,8.51-4.64,9,3.3,10.78,3v7.87q.24,10.47,16.14,3.23,13.62-6.54,20.47-14.41,4.48-4.87,7.64-14.09,6-17.09,7.4-20.31,1.65-3.95,16.14-25.27,11.1-16.07,12.52-29.84,1.41-14.18-2.84-33.86-5.12-23.22-5.43-29.13A22.34,22.34,0,0,1,1099,41h-4a24.54,24.54,0,0,1,3.15-9.84q3.15-5.91,3.7-8.9h14.73q-.24-4.25-9.61-10.47m-65.27,21.34q3.39,2,2.84,11.18,8.51,7.47,11.65,29.83,2,12.45,4.8,37.72-2.84,7.86-13.38,13.14-14.41,7.17-16.69,9.14A9.19,9.19,0,0,1,1032,142c-1,3.31-2.65,4.85-5.12,4.64q-2-8.58-15.82-32.51-10.78-19.05-8.82-36.77,3.07,1,5.35,7.88a66.94,66.94,0,0,1,9.37-22q6.85-10.47,13.94-12.76a16.5,16.5,0,0,1-1.74,5.91,18.81,18.81,0,0,0-.86,6.85q5.67.31,9.68-9.84a83.82,83.82,0,0,0,3.7-20.31m-27.55,109.9c-.74,3.47-.63,5.65.31,6.54q7.09,9.53,16.46,6.22t10.78-15.43q9.38-.31,8.19,15.74c1.52-.21,2.47.24,2.84,1.34q-3.39,14.1-15.59,20.31-12.76,6.93-26.69.4.32-3-2.52-9.21-2.28-5-.32-8.19h2.84q-5.11-3.95-5.36-14.49-.32-11.1,8.19-10.78C1014.63,137,1014.91,139.54,1014.13,143.05Z" style="fill:#f78b60"/></g><g id="Layer152_0_FILL" data-name="Layer152 0 FILL"><path d="M873.12,65l-.31,3q2,15,4.88,45.59,3.38,26.22,10.15,39.36,4.57-5.26.87-19.36-6-23-6.22-26.22l.24-27.24q-.56-15.12-8.51-16.77C873.49,63.3,873.12,63.85,873.12,65Z" style="fill:#f78b60"/></g><g id="Layer151_0_FILL" data-name="Layer151 0 FILL"><path d="M1013.26,135.5q-8.5-.31-8.19,10.78.24,10.54,5.36,14.49,8.27,7.15,21.57,6.22,14.18-1,17.87-10.87,1.19-16.05-8.19-15.74-1.41,12.19-10.78,15.43t-16.46-6.22c-.94-.89-1.05-3.07-.31-6.54S1014.63,137,1013.26,135.5Z" style="fill:#f4c06e"/></g><g id="Layer150_0_FILL" data-name="Layer150 0 FILL"><path d="M1052.71,157.46c-.37-1.1-1.32-1.55-2.84-1.34Q1046.17,166,1032,167q-13.31.94-21.57-6.22h-2.84q-2,3.22.32,8.19,2.83,6.21,2.52,9.21,13.94,6.53,26.69-.4Q1049.32,171.56,1052.71,157.46Z" style="fill:#5d2d26"/></g><g id="Layer149_0_FILL" data-name="Layer149 0 FILL"><path d="M235.48,305.71l-17-.94q-9.37.32-8.82,10.15,12.83,11.19,34.09,5.59,11.9-3,34-11.81a6.16,6.16,0,0,0,1.18-5.9,12.66,12.66,0,0,0-2.6-5q-7.08-1.26-19.52,2.36Q239.74,305.08,235.48,305.71Z" style="fill:#f78b60"/></g><g id="Layer148_0_FILL" data-name="Layer148 0 FILL"><path d="M210.29,320.83q-10.23-4.89-11.65-5.91a7.83,7.83,0,0,0-4.81,1,6.11,6.11,0,0,1-4.56.63q-2.52.94-3.15-2.6c-.16-2.63-.92-3.83-2.28-3.62q-42.53,6.21-81.73,29.83a3.18,3.18,0,0,0,1.5,1.66,1.88,1.88,0,0,1,1.1,1.65q9.6,2,30.94,8.5,19.53,4.58,31.73,2.29,4.34-.63,11.65-6.22,8.26-6.54,11.66-7.88l15.9-4.25q8.5-2,12.44-6.61Q217.38,324.14,210.29,320.83Z" style="fill:#f78b60"/></g><g id="Layer147_0_FILL" data-name="Layer147 0 FILL"><path d="M1048.45,339.56q-19.29-4.63-32.59-5.59a15.89,15.89,0,0,0-2.28-6.61l-3.15-5.9q-3.07,5.9-15.59,4.33-13.62-1.67-17,2-4.56,3.56-37.16,22.29-23.29,13.14-32.36,28.18l5.36,9.21q4.88-.63,5.67,3.31,14.25.94,30.7-5.91,20.7-8.58,27.79-9.84,21-3.62,59.29-6.3,30.39-4.24,42.83-22.28Z" style="fill:#f78b60"/></g><g id="Layer146_0_FILL" data-name="Layer146 0 FILL"><path d="M234.07,415.93q-5.35-11.42-23-22.91-19.29-12.51-24.65-21.33-24.09-7.87-37.16-11.18-22.76-6.54-36.37-4.57L86,382.16Q68.66,398.62,59.6,410.74,31.81,447.51,39.44,496l45.43,1.66q25.51.31,41.65-6.22,6.3-2.61,17.64-10.48,12.43-8.9,17.87-11.49,7.08-3.62,22.44-7.24,14.47-3.63,19.84-6.85,7.63-5,13.3-19.37,6.54-17.72,9.68-21.65,4.58,9.84-1.73,23.93l-10.47,21.65q13.31-3.62,36.85-5.27,17.94-1.26,34.09-.95,2.52-3.93,15-15.11,9.92-9.21,10.78-16.38-10.78-10.86-35.74-10.55Q267.29,411.68,234.07,415.93Z" style="fill:#f78b60"/></g><g id="Layer145_0_FILL" data-name="Layer145 0 FILL"><path d="M1107.82,358.54q-13.08-8.51-25.28-4.25-16.21,19.68-67.23,25.58-59.59,6.54-75.82,15.44,3.15.94,17.87,9.21,12,6.53,21.89,8.19l11.65.31a39,39,0,0,1,11.34,1.34,17.93,17.93,0,0,1,5.67,3.23c2.25,1.78,4,2.78,5.35,3a120.19,120.19,0,0,0,49.13,1.65q10.78-2,17.56-6.93,10.23-7.24,9.68-18.34-25.28-2.28-38.34-20.39,15.66,10.86,37.16,11.81,22.44.71,37.79-10.16A68,68,0,0,0,1107.82,358.54Z" style="fill:#f78b60"/></g><g id="Layer144_0_FILL" data-name="Layer144 0 FILL"><path d="M305,387.43q-.24-12.12-27.24-29.84-30.85-18-39.44-23.62a27.68,27.68,0,0,0-4.81,2.6,7.5,7.5,0,0,1-6.22.63q-13.06,5.28-42.27,23.62,7.64,7.88,26.92,21.65,18.19,13.47,26.38,22.36,30.15-5.26,50.23-1.65,7.71,1.65,12.52-4.25A18.85,18.85,0,0,0,305,387.43Z" style="fill:#f78b60"/></g><g id="Layer143_0_FILL" data-name="Layer143 0 FILL"><path d="M286,453.72q11.1-1.34,26.92-8.89,17.32-8.19,26.14-10.16a65.93,65.93,0,0,0-27.24-12.44q-.87,7.17-10.78,16.38Q288.55,449.79,286,453.72Z" style="fill:#c76d4e"/></g><g id="Layer142_0_FILL" data-name="Layer142 0 FILL"><path d="M991.45,460.57q-15.9-8.51-16.45-19l-8,.94q-4.26,0-10.24-3.3-7.08-3.94-10.47-4.57L923.9,434l-22.44,2.28V438q4.89,11.1,17.64,19l23.23,14.17,14.8,11.81q8.19,6.54,13.85,8.51,7.1,2.6,21.58,2.28l23.3,1a32.44,32.44,0,0,1,7.64,3.23c3.41,1.78,5.87,2.78,7.4,3a107.65,107.65,0,0,0,31.17.63q18.51-2.59,26.14-11.81-10.23-.94-35.5-8.5-21.59-6.61-38.27-5.59-3.69-5.28-23-15.12m121.17-69.83q-2.28.31-8.5,4.25a13.22,13.22,0,0,1-10.55,2v17.4q-14.41,11.42-38.27,14.09a128.34,128.34,0,0,1-46.29-3.31q1.18,5-17.87,11.5a121.79,121.79,0,0,1-15.59,4.57q8.51,1,21.57,10.55,14.73,10.78,21.57,12.75,4.26,1.33,13.62,0,6.54,1,29.76,8.9,18.75,6.21,31.5,5.59,8,1.58,14.8-4.65,4.25-3.93,12.44-14.41l17.32-18.73q8.5-11.82,7.08-25.28-8.73-2-17.55-11.1Q1116.56,393,1112.62,390.74Z" style="fill:#f78b60"/></g><g id="Layer141_0_FILL" data-name="Layer141 0 FILL"><path d="M169.43,519.62q-23.55-2.91-26.46-17,18,3.93,56.77,18,35.19,9.86,57.63-.7L287.13,496q17.33-14.72,26.14-28.18c-.21-1.11-1.26-1.76-3.15-2s-2.73-1.08-2.52-2.6q-46.53-6.93-95.34,6.22-3.15.94-5.44-2.28c-1.46-2.21-3.25-3.1-5.35-2.68q-20.7,8.19-30.62,12.52-17.88,7.16-29.29,14.41a87,87,0,0,0-7.09,6.22,22.78,22.78,0,0,1-8,5q-3.93,1.26-20.39,0-13.06-1-20.47,4.56-.8,8.82,6.85,12.13,4.56,2,15,5.27,2.52,1.26,20.39,14.41,12.51,8.89,21.88,9.21,10.47-4.25,42.28-.71,29,3,39.13-4.25V532.45a23,23,0,0,1-12.2-2.28l-10.79-5.59Z" style="fill:#f78b60"/></g><g id="Layer140_0_FILL" data-name="Layer140 0 FILL"><path d="M690.62,500.25q-10.7,17.09-16.69,21-1.41,1.35-9.37,3.94a13.94,13.94,0,0,0-8.26,7.24q7.08,5.59,18.5-2,5.12-3.32,12.2-8.9a14.37,14.37,0,0,0-.63,6.22q7.95,8.9,31.49,10.55l38,2a116.28,116.28,0,0,1,14.8,3.23l15,3q17.32,2.91,40,19.05,25.26,18,37.71,22c0-5-.48-8.22-1.42-9.53a2.29,2.29,0,0,1-2.83-1.65q-15.6-8.5-23.23-13.15-12.75-8.19-20.15-16.69-9.37-1-29-7.25-21.57-6.84-30.94-8.5l-38-.31q-21.25-.72-28.89-13.78,2-4.65,10.24-15.12,7.08-8.82,8.73-16.37Q699.45,486.48,690.62,500.25Z" style="fill:#5d2d26"/></g><g id="Layer139_0_FILL" data-name="Layer139 0 FILL"><path d="M566.39,745q-18.2-10.56-52.2-18.43-41.18-9.84-53.93-14.72L439.55,700.7q-13.38-7.17-24.17-6.22-6.45,9.21-26.06,16.38-21.88,7.88-28.42,13.78l23,20.39,14.49,9.84q9.67,6.21,10.23,10.47,1.11,9.84-15.9,20.71-19.29,12.44-21,17.32Q486.08,773.83,566.39,745Z" style="fill:#934d3a"/></g><g id="Layer138_0_FILL" data-name="Layer138 0 FILL"><path d="M1137.26,348.38q-34.87-4.87-54.72,5.91,12.21-4.26,25.28,4.25a68,68,0,0,1,18.42,19.68q24.4-8.5,66.68-19Q1156.88,351,1137.26,348.38Z" style="fill:#c76d4e"/></g><g id="Layer137_0_FILL" data-name="Layer137 0 FILL"><path d="M86,382.16l26.93-26.22q-25.52-6.22-57.32-1.34L0,367.12v126l19.84.63L39.44,496q-7.63-48.49,20.16-85.26Q68.65,398.6,86,382.16Z" style="fill:#c76d4e"/></g><g id="Layer136_0_FILL" data-name="Layer136 0 FILL"><path d="M870.29,371.69q-8.5,4.56-29.84,6.85-22.12,2.35-30.31,5.9,36.6,13.47,89.91,3Q888.71,382.17,870.29,371.69Z" style="fill:#c76d4e"/></g><g id="Layer135_0_FILL" data-name="Layer135 0 FILL"><path d="M1079.16,664.64q15.58-1.33,14.41-4.56-22.68-10.56-51-10.87-28.66-.63-52.51,9.21,11.64,9.84,62.67,7.88Z" style="fill:#c76d4e"/></g><g id="Layer134_0_FILL" data-name="Layer134 0 FILL"><path d="M458.84,0h-9.37q1.42,23.94-21.25,37.71-28.11,12.12-38.9,20.71,27.8-.7,47.08-14.8Q459.16,27.55,458.84,0Z" style="fill:#5d2d26"/></g><g id="Layer133_0_FILL" data-name="Layer133 0 FILL"><path d="M749.12,52.2q-.55-2-2.83,0-10.47,22.59-17.64,75.42,17.33,20.63,48,38.74,22.11,12.75,55.26,25.9-5.12-13.15-28.65-23.62-30.94-13.77-37.4-17.4-24.17-13.77-26.45-28.18-1.66-10.25,5.67-35.83Q752.27,62.68,749.12,52.2Z" style="fill:#5d2d26"/></g><g id="Layer132_0_FILL" data-name="Layer132 0 FILL"><path d="M19,124.63Q14.17,95.5,32.36,77.79q4.24-4.33,36.84-24-28.33-2-46.53,21.65Q4.25,99.75,13.62,132.5l17.56,2.37q11.1.94,12.2-5.59-2.52-3-11.57-3C25.19,126.28,20.92,125.73,19,124.63Z" style="fill:#5d2d26"/></g><g id="Layer131_0_FILL" data-name="Layer131 0 FILL"><path d="M459.71,64.64q-7.72-5.28-14.49-3,3.94,6.92,19.6,19.68,15.82,13.14,21.26,21.33a705,705,0,0,1-12.2,80.07Q433.34,194.87,420.81,227q-26.68-.31-39.75,0-22.68,0-36.61,3c-.95,1.31-1.42,3.39-1.42,6.22q4.88,3,19.92,1l63.22-2.36q13.06-18.34,22.44-27.55A79.62,79.62,0,0,1,479.23,189q3.7-7.56,5.43-20.62,1.66-15.12,2.84-23.31l5.12-23q2.83-13.77,1.65-21-1.09-6.23-9.37-14.41Z" style="fill:#5d2d26"/></g><g id="Layer130_0_FILL" data-name="Layer130 0 FILL"><path d="M175.65,162.42q.56.32,4.56,7.48a6.51,6.51,0,0,0,7.64,3.62,3.1,3.1,0,0,1,2,1l2,.31q9.36,1.33,15.9-3.94a104.57,104.57,0,0,0,10.24-10.15q5.35-12.14,0-12.52-2.52,10.55-18.19,12.2-14.73,2-21.57-5.9Q175.1,154.86,175.65,162.42Z" style="fill:#5d2d26"/></g><g id="Layer129_0_FILL" data-name="Layer129 0 FILL"><path d="M1191.74,644.33q-9.91,0-26.61,8.19-17.09,8.51-26.69,8.82-15.35.7-43.14-9.53-30.94-11.1-45.43-12.44-18.73-1.33-46.53,6.93Q971,655.75,956,656.77q-3.94,15.12-8.19,20.63l-36.61,3.93q-22.12,2-25.83,16.46,5.13,2.28,12.76-2.29,10.23-6.6,14.17-7.24,6.3-1.34,18.74-.31a146.12,146.12,0,0,0,21,.31l5.12-12.12a68.56,68.56,0,0,1,5.66-11.5A38.44,38.44,0,0,0,977,662.36q11.64-3.61,13.07-3.94,23.85-9.84,52.51-9.21,28.34.31,51,10.87,4,2,16.21,4.25,10.8,1.65,15,4.88-4.24.7-10.78,8.58-7.1,8.51-12.21,10.47-6,2.28-17.32,2-16.46-.63-22.12-.31l-48.26,4.25q-23.86.95-37.71-5.91-2-1.65-4.81-10.86-2-7.87-7.4-8.19a29.53,29.53,0,0,0,2,16.06,85.11,85.11,0,0,0,6.22,10.86,18,18,0,0,1,12.2,2.29,100.3,100.3,0,0,1,9.69,5.59l58.18-2.29q34.88-2.28,57.31-7.24,2.52-4.56,11.34-12.12,8.19-6.93,10.47-13.15c.21,1.31,1.55,2,4,2l5.67-.32q4.24-2.6,27.47-10.47Q1186.07,654.48,1191.74,644.33Z" style="fill:#5d2d26"/></g><g id="Layer128_0_FILL" data-name="Layer128 0 FILL"><path d="M1280,747.94q-10.15,7.56-29.52,19-24.4,14.1-31.73,19.06-20.48,13.07-54.25,31.49L1146.39,828q-12.2,6.53-22.75,8.19a23.1,23.1,0,0,1-7.64,0,42,42,0,0,0-7.4,0l-38.26,8.18q-25.59,5.91-40.86,7.56-66.69,7.56-104.71,3.31l-36.3-3.94q-18.74-2.67-31.8-8.58-2.29-.94-6.22-4.88a25.76,25.76,0,0,0-6.3-4.57A408.91,408.91,0,0,1,723,749.59q22.75,1,50.78-7.56,15.91-4.87,44.56-16.06,9.69-3.3,31.26-7.24,18.1-4.87,24.64-18-3.93-3.93-9.92.71l-9,7.16q-10.23,4.65-32.36,9.22L784.31,726,735,738.81q-25.28,3.54-44.56-7.88-15.9-12.2-23.86-16.45-13.31-7.17-33.22-4.25a62.33,62.33,0,0,0-20.39,7.87q-2.29,1.65-11.1,11.18-7.34,8.19-12.21,9.53-6.21,1.58-18.66-3-14.25-5.89-20.78-8.18Q529.46,720.7,481,702.35q-42.58-16.05-68.41-23.61-20.08,17.09-32.28,24.64-21,13.07-41.18,16.37-21.57,3.63-68.65,3.31-59.37-.7-73.22,0-28.42-1-41.18-.71-22.12,1-29.52,13.15Q112.66,725,90.78,702,67.23,677.4,55.58,668q-2.52,0-10.47,4.25-6.21,3.63-11.1.32-2-6.22,3.15-7.56,6-1.34,6.22-3.62-6.45-5.6-21.26-4.89A60.41,60.41,0,0,0,0,661.34V944.77H1280V747.94M514.19,726.6q34,7.88,52.2,18.43-80.31,28.82-194.7,58.34,1.72-4.89,21-17.32,17-10.87,15.9-20.71-.56-4.26-10.23-10.47L383.89,745l-23-20.39q6.54-5.91,28.42-13.78,19.6-7.17,26.06-16.38,10.78-.94,24.17,6.22l20.71,11.18q12.75,4.89,53.93,14.72M349.88,726q5.36,3.94,22.67,19.69Q386.17,758.1,396.09,764q-7.32,7.56-27.47,22.36-18.75,13.07-27,23.3-34.56,1.26-45.9,3.23-24.16,3.95-35.82,15.43-51-27.87-67.47-38.34Q155.49,767,132,743.37q3.15-9.21,12.52-9.21l18.66,1.34q108.18-4.25,163.76-1.65Q345.63,728.26,349.88,726Z" style="fill:#5d2d26"/></g><g id="Layer127_0_FILL" data-name="Layer127 0 FILL"><path d="M977.83,714.48q7.63-3.22,8.19-10.47-4.8-2.6-11.34,2.28-9.36,6.23-13.3,7.24-12.21,2.61-40,0-26.45-2.67-35,0,9.36,9.13,36.37,8.51,41.1-.94,44.25-.63Q968.78,718.73,977.83,714.48Z" style="fill:#5d2d26"/></g><g id="Layer126_0_FILL" data-name="Layer126 0 FILL"><path d="M1002.48,12.44c.21-2.15-.27-3.12-1.42-2.91-1.89.63-2.84,2.25-2.84,4.88q.31,3.61,4,3Z"/></g><g id="Layer125_0_FILL" data-name="Layer125 0 FILL"><path d="M130,31.81c.37-2.42-.78-3.49-3.46-3.23q1.73,4.25.63,5.51c-1,.89-2.1,0-3.46-2.6q-.56,3.32.86,5L127.94,38Z"/></g><g id="Layer124_0_FILL" data-name="Layer124 0 FILL"><path d="M306.42,47.55q-4.49,6.93,0,10.87,5.74,1.65,9.37-3.94c2.31-3.52,1.47-5.82-2.52-6.93l.55,4.65c0,1-.66,2.12-2,3.23l-3.38-.32c-1.16,0-1.84-.44-2.05-1.34q-.56-1.26.87-3.93C308.23,48.79,307.94,48,306.42,47.55Z"/></g><g id="Layer123_0_FILL" data-name="Layer123 0 FILL"><path d="M262.72,119.12c-.15-1.31-.63-2.1-1.41-2.36,0,3.09-.48,5.19-1.42,6.3a10,10,0,0,0,6.85,1.57,12.6,12.6,0,0,0,1.42-7.87c-1.89-.84-2.76.15-2.6,3,0,3-.95,4.15-2.84,3.31Z"/></g><g id="Layer122_0_FILL" data-name="Layer122 0 FILL"><path d="M764.16,135.18q.32-9.52-1.42-8.9l-.31,14.81c-.16,6.08.31,8.92,1.41,8.5Z"/></g><g id="Layer121_0_FILL" data-name="Layer121 0 FILL"><path d="M1122,124.32c-1.89-.21-2.76.44-2.6,2q5.11-.94,5.43,3-2,7.54-9.37,6.22-1.17-6.93,2.52-9.22-5.12-.32-4.8,5.28,0,5.91,3.39,7.24,13.38-3.93,9.68-14.17Z"/></g><g id="Layer120_0_FILL" data-name="Layer120 0 FILL"><path d="M715,145.34c-1.47-.9-2.41-.45-2.83,1.33l2.83,1.26c1.15.48,1.55,1.58,1.18,3.31q-3.15.94-4.25-1.34l-2.6-3.23q-.78,7.17,4.88,7.17t4.81-7.17C718.47,146.88,717.13,146.44,715,145.34Z"/></g><g id="Layer119_0_FILL" data-name="Layer119 0 FILL"><path d="M20.39,179.74q0-7.47-1.42-9.45-5-.71-5.35,3.23,3.15-1.26,4.25-.63c.95.42,1.31,2.18,1.1,5.28l-2-1c-.58,0-.87.87-.87,2.6Z"/></g><g id="Layer118_0_FILL" data-name="Layer118 0 FILL"><path d="M268.16,190q-2.84-2.37-4,.63c3.05-.21,4.38,1.86,4,6.22l-2.84,1.65q-2.28.63-2.28-3.31-.32-4.24-1.73-4.56a10.06,10.06,0,0,1-1.42,7.87c2.68,1.52,5.14,2,7.4,1.34q3.7-1,3.7-5.91A5.48,5.48,0,0,0,268.16,190Z"/></g><g id="Layer117_0_FILL" data-name="Layer117 0 FILL"><path d="M814.07,206.67c0-1.1-.36-1.66-1.1-1.66v6.22a9.11,9.11,0,0,0,8.82-1.26q3.93-3-.63-5,.63,5.28-6.77,4.65Z"/></g><g id="Layer116_0_FILL" data-name="Layer116 0 FILL"><path d="M36.61,304.14q10.47-13.15,9.6-27.95Q46,281.77,42,290q-5,10.25-5.35,14.18M5.35,207.3C2.52,208.87.73,209.66,0,209.66v1.57L5.67,210l6.53-.31q.87,12.75,17.32,32.75Q41.18,256.2,44.8,266.35a63,63,0,0,0-5.91-13.78Q16.77,222.09,12.2,206.35A10.87,10.87,0,0,0,5.35,207.3Z"/></g><g id="Layer115_0_FILL" data-name="Layer115 0 FILL"><path d="M329.41,256.9q7.71,4.25,1.42,3.23-.79,5.26,5.43,4.64Q337.67,256.19,329.41,256.9Z"/></g><g id="Layer114_0_FILL" data-name="Layer114 0 FILL"><path d="M715,297.84A17.92,17.92,0,0,0,725.82,290l-6.54,2.68A7.56,7.56,0,0,0,715,297.84Z"/></g><g id="Layer113_0_FILL" data-name="Layer113 0 FILL"><path d="M641.26,353c-.53,0-2.49,1.1-5.91,3.31a6.09,6.09,0,0,1-7.71-.32q5.11.63,6.85-3-7.63.71-10.79,4.64a22,22,0,0,0,10.79,2Q642.13,359.25,641.26,353Z"/></g><g id="Layer112_0_FILL" data-name="Layer112 0 FILL"><path d="M985.23,358.22c-.94-.63-1.62-.29-2,1q0,3.93,4.56,4.25t.87-4.25c-.21,1.05-1.08,1.57-2.6,1.57C986.23,359.51,986,358.64,985.23,358.22Z"/></g><g id="Layer111_0_FILL" data-name="Layer111 0 FILL"><path d="M410.89,375.62q4.82-1,5.67-3.93l-7.08-.63q-3.39.31-5.12,3.93Q406.33,376.57,410.89,375.62Z"/></g><g id="Layer110_0_FILL" data-name="Layer110 0 FILL"><path d="M1232.6,417.9q3.47-2.28,4-3.54a20.15,20.15,0,0,0-4.8,1.57,10.08,10.08,0,0,1-4.88,1.66q-1.11,3.62,3.14,4.64t5.12-1.65C1232.37,419.48,1231.5,418.58,1232.6,417.9Z"/></g><g id="Layer109_0_FILL" data-name="Layer109 0 FILL"><path d="M389.32,445.54c4.94-.69,8.14-1.68,9.61-3a45.91,45.91,0,0,0-15.28,1.66q-7.95,2.6-6.53,7.87,6.54,3.93,17.87-.31,11.1-3.94,6.54-9.22-1.18,5.28-10.24,7.56-8.82,2.59-11.34-1.34Q382.25,446.48,389.32,445.54Z"/></g><g id="Layer108_0_FILL" data-name="Layer108 0 FILL"><path d="M43.14,452.07a21.28,21.28,0,0,0,9.92-3.31l-10.47-.31a23.83,23.83,0,0,0-10,2Q36.3,453,43.14,452.07Z"/></g><g id="Layer107_0_FILL" data-name="Layer107 0 FILL"><path d="M1255.59,477.34h-3.93q-1.74,5.6,3.38,6.54,5.43,1,6-3.31c-.37-.21-2-.21-4.81,0-2.1.26-3.25-.26-3.46-1.57C1254.65,478.52,1255.59,478,1255.59,477.34Z"/></g><g id="Layer106_0_FILL" data-name="Layer106 0 FILL"><path d="M743.69,577c3.25-.84,4.12-2,2.6-3.55l-7.4,3.23q-4.26,2.28-3.7,7.56a45.93,45.93,0,0,0,18.73,1.34q11.1-1.33,14.17-7.56c-.36-1.73-2.25-2.84-5.66-3.31s-5.59.13-6.54,1.66q6.86,0,9.37,3.3l-14.17,3.62q-9.06,2.3-13.07-2Q737.78,578.67,743.69,577Z"/></g><g id="Layer105_0_FILL" data-name="Layer105 0 FILL"><path d="M615.75,594.73c-2.26-1.31-3.67-1.08-4.25.71q4.25,2.59,0,4.25-6.54,2.28-6.85,3.62a12.63,12.63,0,0,0,7.4-1,53.63,53.63,0,0,1,6.22-2.29Q618.9,597.09,615.75,594.73Z"/></g><g id="Layer104_0_FILL" data-name="Layer104 0 FILL"><path d="M996.81,615.75c1.89.21,3.3-.76,4.25-2.91q-7.09,1.26-6.77,6.22,2.28,3.23,8.5,1.26t2.28-6.22q.55,2.67-3.7,3.3Q997.44,618.35,996.81,615.75Z"/></g><g id="Layer103_0_FILL" data-name="Layer103 0 FILL"><path d="M1280,631.5v-2.92q-52.44.63-82.82,7.88l41.09-3Z"/></g><g id="Layer102_0_FILL" data-name="Layer102 0 FILL"><path d="M1148.36,807.7c1.16.63,1.52,1.7,1.1,3.22l-8.18,1a4.35,4.35,0,0,1-5.44-2.29l2.29-3.3c.79-1.31,0-1.87-2.29-1.66l-2,4.57a8.16,8.16,0,0,0,.55,5q8.82.94,19-3.31a5.15,5.15,0,0,0-2.83-5.59q-3.39-2.28-5.44,1Z"/></g><g id="Layer101_0_FILL" data-name="Layer101 0 FILL"><path d="M461.68,3.31C460.52,3.1,459.58,2,458.84,0h-2.6a4.81,4.81,0,0,0,2.6,3.31q-2.59,15-14.8,29.84-13.62,15.74-28.66,17.39-2,.32-7.32-1.33l-9.13-1.66q-16.46-1.26-22.13-5.19-5.67-4.34-9.36-18.43V11.18q-4.5,24.26,11.1,33.46Q388.77,50.86,414,52.2l-39.12,3.23q-23.86.32-34.33-7.88l8.5-23.3q5.67-14.73,6.22-17.72-7.08,13.79-10.15,21.34a84.62,84.62,0,0,0-6,25.9q44.25,9.52,77.16-1.57Q454.59,39.67,461.68,3.31Z"/></g><g id="Layer100_0_FILL" data-name="Layer100 0 FILL"><path d="M911.7,395.31l-16.77-.63q-20.7-.72-32.91,3.93l49.68-3.3m-710.23-14.1,6.77,3.62a66.71,66.71,0,0,0-10.78-7.55l4,3.93M748.57,350a99.18,99.18,0,0,1,19.52,15.43q-6.21-8.89-19.52-15.43m364-49.21-21,2.91q-13.3,2.37-21.26,2a41.33,41.33,0,0,1-10.55-2.6l-9.92-3.62Q1009.33,289,975,291.3q-10.56,1-28.11,7.56-19,6.86-29,8.19-7.32,1.33-20.39,0l-20.47-1.34q-15.82.71-35.75-3.23L809,296.26q-22.12-2.67-72.59,8.19-47.16,10.16-75.82,4.25,1.19-10.86-6.77-14.09-2,7.88-4.25,11.1-14.49-6.54-40-2.28-30.94,4.95-41.73,3.62-4-.32-11.33-3.62-8-3.63-11.66-3.94-24.72-3.23-72.66.32-48.19,3.62-69.21,1-1.72-.63-4.8-7.24-2.59-5.2-4.57-3.63,5.67,9.85,3.94,10.87-6.76.32-30.31-.63-20.47-.7-32.36.63a47.27,47.27,0,0,0-9.68,2.91,31.78,31.78,0,0,1-9.37,2c-2.84,0-6.9-1-12.21-2.91q-8.49-3-12.2-3.31-19.53-2.28-56.68,4.25-37.48,6.61-52.28,5l-34.33-5.9q-21.26-4.26-33.77-5a268.34,268.34,0,0,0-57.87,3.3q-23,3.63-56.45,12.44v6.3q37.16-14.81,86.29-17.4t91.88,7.88q-.24,2.28-3.94,3.22a99.22,99.22,0,0,1,26.14,4.33q16.14,4.89,18.66,12.76-15.83,10.47-25,16.06-17.32,10.86-30.94,10.86-16.14.32-51-5.59-34.32-5.89-52.27-5.59-11.58.31-30.87,5.91-21.88,5.91-29,6.93v4.56a180.77,180.77,0,0,1,31.81-8.18Q52.51,352,68.1,353q73.77,5,99.28,11.81a120.67,120.67,0,0,1,30.08,12.52l-5.91-6.62q-6-5.9-12-5.19,34.65-28.59,87.4-42.36,53.92-14.42,114.39-9.53,5.11.41,14.72,3.63,10.25,3.62,15,4.25l16.46-1.58a73.37,73.37,0,0,1,18.18,3.54l17.32,5.91q5.67,2,17.87,3.62,9.93,3,13.31,10.55-.24,3.94-6.77,9.13a124.46,124.46,0,0,0-10.79,8.19q-3.69,4.33-13.3,20.71-8.27,14.4-15.35,20.31-12.21,9.84-31.26,16.46-11.9,3.93-39.68,10.15l-18.19,4.25q-11.34,2.6-15.9,2-5-.63-15.28-6.53-12.75-7.56-17.32-9.22a168.27,168.27,0,0,0-50.54-10.86q-3.39-.31-13,1.34-8.58,1-11.42,0-2.52-.63-5.9-6.54c-3.26-5-5.36-8.11-6.3-9.21q-3.39-3.3-11-6.85l-4-2a61.43,61.43,0,0,1,19,29.53q2.52,8.5-4.8,22.91-11.42,22.05-12.83,26-15.27,3.93-47.63,18-31.18,13.77-50.55,18L55.9,508.84Q20.71,514,0,521.27v1.66a383.18,383.18,0,0,1,72-14.09q40.62-3.63,75,1.65v-1.65h1.42q-.87-.72-3.39-5.59-2-3.63-4.88-3.94,29.3-21.66,71.25-30.55,42.29-9.45,90.78-4.25v-3.23l2.83-1.34q15.36-8.51,43.46-15.74,2.28-2.28.24-4.25c-1.31-1.32-1.39-2.52-.24-3.63q7.95.31,23-4.56,14.73-5,23.54-5,8.5.31,26.38-7.56,17-7.56,25.27-6.53,6.21.63,17.55,7.87,12.84,7.88,17.88,9.52,13.38,4.26,38,7.17l42.28,3.94q19.61,1.34,48.81-3.55,30.71-5.58,45.12-5.9V430.1l-5.67-.39a16.33,16.33,0,0,0-5.12-1.26q-4.8,0-1.42,1.65-10.47-.39-37.39,5.2-26.15,5.28-41.49,4.33-43.38-3.3-67.24-8.9-36.3-8.49-51.33-25.9,2.28,0,5.67-2.67a9.82,9.82,0,0,1,6.53-2q-1.18-9.84,11.34-25.91a130.3,130.3,0,0,1,17.32-18.34q16.14-16.38,51.33-25.27a188.12,188.12,0,0,1,65.82-4.57q-2.21-2.28-9.61-3,17.33-6.86,38.27-3.23,12.2,2.28,38,9.45,47.4,9.84,55.67,12.52A128.46,128.46,0,0,1,748.57,350a129.26,129.26,0,0,0-29.52-12.84l52.19-1.57q33.46.94,52.75-3.31-38.81,1.65-59.52.95-37.23-.63-48.26-11.81,45.66-25.59,86-22,8.19.7,34.33,7.56,20.16,5.59,32.36,3.31,4.25,12.12-11.65,16.69L828,330.67q32.6.31,69.52,12.83c1.31,1.31,1.49,2.63.55,3.94l-3.39,3.93q-7.4,9.84-21,17a102.19,102.19,0,0,1-32,9.84l-40.86,7.24q-19,2.3-27.24-5.9c.94-1.31,2.25-.87,3.93,1.34q3.46,3.93,5.67,3.54a101.35,101.35,0,0,0-15-19q2.05,2.91,4.57,12.12,2,7.56,6.22,9.84h1.42v1.66q15.9-3,40.86,4.56A107.61,107.61,0,0,0,839,397.59q-5.91-3.94-18.42-6.22-16.46-3.31-21.26-5.59,5.35,0,41.73-6.54,26.61-4.64,41.41.32a87.15,87.15,0,0,1,7.64,4.88q4.25,3,4.56,0a90.43,90.43,0,0,0-11.33-4.88l-12-4.57q1.73-3.62,14.8-13.46,11.89-8.89,13.86-18-.79-2.36-4.25-3.62c-2.84-.89-4.54-1.79-5.12-2.68A454,454,0,0,1,990,332.32a431.89,431.89,0,0,1,91.32,15.75q3.71-.63,1.18-1c-2.67-.42-4-1.07-4-2q-5.12-2-36-7.17-22.44-3.93-30.71-13.46,35.52-14.1,96.76-15.43a672.24,672.24,0,0,1,100.78,5.9q-23,11.19-38.89,17.4a213.42,213.42,0,0,1-44.25,11.18q-3.71,0-1.42-3.31-4.56,4.57-23.3,7.56-17,2.91-17.56,6.54-4.8,1.65-25.82,13.77-17,9.54-29.84,11.5l-27.48.94q-19.29-.63-28.42.71-7.64.94-22.67,7.56-14.18,6.23-21,6.54l-3.62.31q35.43,20,58.11,22Q948.62,402.86,930.12,397q21-8.58,58.18-12.83l61.57-4.57q3.7,5.91,16.22,11.18,13.31,5.19,17.87,11.1c.58.89,1.13,3.1,1.65,6.61q.87,3.94,4,4.26-2.84,2.6-16.22,7.87-10.71,4.25-9.92,7.87-14.17,2.28-39.13-.71-23.29-2.91-32.91-7.16,2,1.65,7.64,2.91c3.62.89,6.09,2,7.4,3.31q-6.54,0-19.84,6.22-14.25,6.21-21,6.61-4.8,0-14.17-3Q941.53,433.33,937,433q-15.35-.63-56.45,5-36.6,5.19-56.53,1.65l-10.15-2-10.55.32a73,73,0,0,0-17.87-7.56l-20.16-5.28q2.6,2.3,17.08,6.22,14.17,3.63,18.43,8.27-2.28,2.6-7.09-1.65-4.56-3.94-6.53-1.66,4.56,2.3,5.67,6.22a8.45,8.45,0,0,0,5.11,6.22q-27.24,11.5-44.56,18-32,11.5-52.2,8.9c1.32,1.73,3.78,2.83,7.4,3.31,3.78.42,5.94.94,6.46,1.57q-.78.71-5.9,2.36-4,1.26-5.12,3.94l61.88-23q42.29-15.75,56.69-18l8.26-.71a17.58,17.58,0,0,1-5.67-2.6q14.18,1.35,44.8-.63l63-5.59q9.12-.31,0,3.31,7.15-2,17.87,0,14.25,2.91,20.15,2.91.63.31,5.12,7.88c2.26,3.3,4.15,4.41,5.67,3.3l-3.7-5.9a14.7,14.7,0,0,1-1.65-8.19q13.62-10.23,39.44-9.92l47.63,2.05q4-8.58,20.71-12.21a109.37,109.37,0,0,1,27-2q-2.6-1.66-11.1-2.6c-4.51-.68-7.16-2-7.95-3.94q8.26-14.08,31.49-23.62,60.15-24.24,156.36-28.18v-1.66q-32,3.63-75.42-1.65l-74.09-9.53q9.91-4.25,28.11-8.18,17.55-3.63,26.06-7.56,3.69-1.34,12-7.25,7.65-5.19,12.76-6.84,10.47-3,33.22-1.34l37.4,1.34v-3a238.8,238.8,0,0,0-62.43-1.57,1.86,1.86,0,0,1,1.18-1.65c.94-.48,1.41-1,1.41-1.66q-4.25,2.6-10.54.63-9.06-2.28-11-2.28,2-6.54-1.18-14.41-3.39-9.52-3.07-13.78.87-10.55,11.89-24.32,13.38-17,15.35-21.26,13.86-5.59,58.42-15.75v-1.65l-31.49,5.59q-19.85,3.93-29.76,11.81-4,3.22-14.8,22-9.06,14.73-10.47,24.57-1.74,10.54,3.7,27.24l-42.28-3.94q-26.14-2.91-42.28-2.28m76.05,64.64q-18.5,3.93-30.94,7.87-34.87,15.44-52.2,19.68-30.71,7.56-51.41-13.46,17.64-29.52,72.12-29.21,30.94.31,92.51,8.9l-30.08,6.22M983.19,298.86q33.54-.32,72.35,8.19-9.6.63-27.79,8.19-19.53,7.88-26.69,9.21-15,2.6-41.1-3-30.08-6.54-42-6.54,23.85-15.44,65.27-16.06M577.41,308.7q27-4.95,69.52.32,45.74,5.58,69.28,3a45.12,45.12,0,0,0-.55,10.47q0,7.56,2,8.19-17.88,3.93-53.93-6.54-38-11.17-55-9.21l-16.46,2a18.94,18.94,0,0,1-14.8-8.19m422.23,18.66q9.38,0,12.2,3.31-4.25,2.28-12.75,1L986,329.33q4.88-2.28,13.62-2m-84.56-13.78q-.23,3.94,25.59,7.56a349.56,349.56,0,0,0,35.75,3.31,345.31,345.31,0,0,1-55.9,7.87,299.44,299.44,0,0,1-58.5-1.65c1.15-1.52,4-3.81,8.58-6.85q5-4.65,2.21-10.24,7.4-3.93,22.75-2.91L917.92,312c.42,1.05-.53,1.57-2.84,1.57M824,441.21q-6.21,4.64-17.87,4.64,7.1-5,17.87-4.64M373.73,305.71,429,307.05q-16.14,8.19-53.61,5-43.69-3.94-55.35-1.65,19.05-5.28,53.69-4.65m116.6,0q17.32,1,50.23.39,26.93,1.26,39.45,12.13-9.69,3.61-36.61,7.87Q519,330,507.89,335.63q-13,0-40.86-9.21-27.24-8.51-44.8-8.19,17.56-15.44,68.1-12.52m-241.78,0q31.5-2.28,53.62,3c.21,1.1-.26,1.66-1.42,1.66q-11.58,2.59-37.16,10.47-23.53,6.93-37.71,9.84l-12.76-10.16q-8-5.89-15.9-6.93a303,303,0,0,1,51.33-7.87M222.49,442.54q6.78-13.14,8.74-23.62,38-22.67,113.22,20.71-6.22,1.26-21.5,9.13-15.12,7.88-23.62,9.53-12.43,2.59-43.93,2-28.43-.63-43.14,4.25,2-6.22,10.23-22m623.39-44.32A40.88,40.88,0,0,0,856.67,397l-8.51.63Z"/></g><g id="Layer99_0_FILL" data-name="Layer99 0 FILL"><path d="M195.49,735.81c2.1,0,3.15-.65,3.15-2H167.38a21.27,21.27,0,0,0-7.64-1.66h-8.81q-5-8.82-20.39-17.71l-25.83-15c-1.15-.26-1.81-.05-2,.63-.42.63.24.84,2,.63a5.09,5.09,0,0,0,1.42,3.31,4.89,4.89,0,0,1-4.25-2,2.9,2.9,0,0,1,.23-4.25q-5.67-1-13.85-5.28l-13.39-7.24A108.89,108.89,0,0,1,61,679.37q-7.65-4.57-8-13.07l-.86-.71.86-1Q44.26,668,27.79,668,9.06,667.56,0,668v4.57q31.17-3.63,58.73,6.85,20.48,7.86,44.56,26.29a62.2,62.2,0,0,1,21.26,7.56q12,6.85,17,16.06-10.16,14.41-29.45,22.6-2.28,1.33-40.07,13.46Q26.92,780.46,1.1,782.74l31.26-1.65q19.61-2,28.66,0l-.55,21a89.57,89.57,0,0,0,2,20v-1.65h1.42V778.17q15.36-6.3,34.64-14.8L132,747.94q-3.37.31-2-1.26l2-3.31q8.51-6.21,26.14-7.56,3.39-.3,32.6-.31Z"/></g><g id="Layer98_0_FILL" data-name="Layer98 0 FILL"><path d="M687.24,518.68q-11.9,13.07-24.09,15.43l-34.09-1.66q-13.3,1.66-33.46,7.56l-33.23,9.84L538.28,558l13.07-3.62,68.34-15.75a56,56,0,0,1,16.22-2.59l96.44,5.51q47.4,3,75.19,12.83-17-6.54-48.18-12.12l-51.42-8.19-12.2-1q-7.08-.95-9.37-6.85,15-22.35,17.64-30.23-11.89,17.09-16.77,22.68m-340,402.86q-8.19-5.28-30.31-26.61Q299.09,877.85,286,874.3a15.18,15.18,0,0,1-2.52-7.24q-1.74-14.49-3.15-18,19.84-11.17,61.57-30.86,33.22-16.77,52.19-33.78Q354.45,808,339.41,815.18q-40.64,19.05-82,22.67l-4.25,4.88h1.42v1.34q10.23-3.93,16.45-4.57,5.11,5.21,5.67,16.69.55,12.21,3.7,16.46a12.21,12.21,0,0,0,6.53,3.62l2.29.63a16.24,16.24,0,0,1,4.8,2,62.53,62.53,0,0,1,8.19,7.56l8.26,8.18a116.16,116.16,0,0,0,10.24,7.56,66.18,66.18,0,0,1,8.74,8.19,70,70,0,0,1-14.17-10.16l-13.07-11.81q5.11,10.8,23.85,22,19.05,11.49,23.86,22c-2.84-.42-4.54,1-5.12,4.25L343,944.77h2.83q-.23-2.92,3.7-9.14,3.15-5.26.32-9.52,8.82,1.65,21.26,7.24a143.84,143.84,0,0,1,21,11.42h1.41q-7.63-7.49-22.67-13.07-18.51-6.93-23.62-10.16m46.84-137.15,7.64-4.64c-2.26.26-3.67.71-4.25,1.34l-3.39,3.3M467,565.6c1.15.21,1.91,0,2.28-.71.21-.84-.55-1.15-2.28-.94q1.19,1.26-8.19,0,19.29,6.84,25.82,20.31-29,21.65-45.11,42.36a148.64,148.64,0,0,0-28.42,61.64q-12.44,20.63-50.78,31.81-31.73,9.52-75.74,10.86,6.54,3.24,20.71,1l21.57-2.6q16.14.94,32.59,10.16,9.38,5.26,25.83,16.69l13.62,8.26q7.15,5.52,8.26,12.13l-5.43,3.23h1.42q4.56,0,5.43-1.58-3.15-12.51-19.05-22-18.42-11.1-22.12-17.32c-.37-.69-.74-2.89-1.11-6.62-.36-3-1.31-5.11-2.83-6.22a65.57,65.57,0,0,0,24.09-8.81l12.75-8.59q5.76.72,15.91-2.91L433,699.44v-1.65h1.41q-2-3.94-7.08-2.29-5.67,1.57-6.54.63c2.84-.42,4.62-1.52,5.36-3.3a10.44,10.44,0,0,1-7.32-3.94,19.92,19.92,0,0,0-6.3-5.19q17.31-37.1,25.27-49.6,16.46-25.59,37.48-35.43-.56,2-6.22,5.59c-3.26,2-4.41,3.75-3.47,5.27q6-4.56,14.25-14.09,8.75-10.55,13-14.09,13.93-12.52,37.79-20.71l-17.08,5Q486.08,573.48,467,565.6Z"/></g><g id="Layer97_0_FILL" data-name="Layer97 0 FILL"><path d="M864.85,590.48a128.86,128.86,0,0,1,14.81,5q1.1,6.84,8.5,19.37,6.76,11.1,6.53,18.34-2.84-2.6-23.3,14.41-20.4,17.72-20.16,25T861.47,686q11.34,6.84,12.75,10.15-2.52-3.93-3.93-.63c-1.32,3.26-2.73,5-4.25,5.2l2.28,5.28q.78,2.28-.87,5.9-93.06,36.38-211.15,37.71v1.66h25.82a8.24,8.24,0,0,1-.79,3.62c-.21.63.06,1.49.79,2.6q7.39,1.34,18.19,6.53,11.88,5.91,17.32,7.56,2.28,14.81,18.19,24.33,8.73,5.19,25.5,12.12-.86-.71-22.43-15.12-13.62-8.8-18.43-19.68,3.7,1,2.52,0-3.93-3.62-2.52-7.87,0-5.28,6.54-9.21c3.78-2.15,5.19-3.78,4.25-4.88q38.58-7.56,89.91-22l24.41-8.58q14.79-5.21,23.3-5.51,5.11-.39,19.29,3.54,12.51,3.3,20.15,1a2,2,0,0,1-1.18,1.66,2.58,2.58,0,0,0-1.65,1.65q5.35.63,34-.39,20.47-.95,24.72,3.3,4.26-4.25,16.46-9.84,11.64-5.58,16.14-10.47h-1.42V704q-2.83-2-14.41-5.91-9.68-3-12.83-8.18.63-5-2.52-13.78-2.83-7.87-1.42-11.5c-.37,1.1.19,2.08,1.66,2.92s2.28.47,2.28-1.26L966.5,666c-.58-.26-.4-.71.55-1.34q14.48-8.89,42.83-13.15L1061,645.9l-30.07-1.25a115.07,115.07,0,0,0-28.66,2.59l-18.42,8.9q-13.4,6.54-21,5.2c-2.09-.21-4.27-1.53-6.53-3.94a33.38,33.38,0,0,0-5.67-5.2q-8.26-4.32-25.27-7.87-19-4.33-27.79-7.87-.87-10.87-8.51-23.62-7.95-13.79-9.36-22.36a570.63,570.63,0,0,1,81.72-17q2.28-.39,15.27.32,9.38,0,13.39-2-24.18-1.65-70.39,6.85-41.17,7.88-65.82,2.68a167.35,167.35,0,0,0-19.29-12.21l-20.15-11.41q5.67,5.19,24.09,15.74,19,10.78,26.37,17m89.68,96.13c.94,1.31,1.42,3.38,1.42,6.22q4.24-.95,11.41,5.59,7.88,6.93,13,7.24a44,44,0,0,1-5.67,8.82,30.62,30.62,0,0,1-9,6.93l-42-1.34q-24.65-.32-37.16-6.54-1.11-5.26,1.73-8.58,2.83-3.93,2.52-7.16,8.58-6.62,29.84-7.87l34-3.31m4.25-25.27A80.43,80.43,0,0,1,952,685.27l-22.44.71-19.84-.71q-3.39.71-15.59,8.27-9.14,5.9-15.9,2.59.87-2.6,3.7-1.33l4.49,1.33-17.56-9.52q-10.47-5.91-15-12.44,4.57-12.52,16.14-22.36,7.1-5.5,22.12-15.35,5.45,2.6,33.54,10.15,23.55,6.54,33.15,14.73m-82,48.57q4.48-1.65,5.67-4.25c1.89-.47,2.55.39,2,2.6q-1.43,4.56-.55,6.93a13,13,0,0,1-6.85-.71,15.8,15.8,0,0,0-6.77-1q1.1-1.65,6.53-3.62M717.63,757.47l-11.1,2.59q-6.78,1.35-10.79-.94c-.73-2.42-.16-4.17,1.73-5.28s2.73-2.52,2.52-4.25q1.43,1.35,10.55,2Q717.32,752.19,717.63,757.47Z"/></g><g id="Layer96_0_FILL" data-name="Layer96 0 FILL"><path d="M1073.18,574.73a52.43,52.43,0,0,1-4-15.43A89.29,89.29,0,0,1,1082,545.21l-14.25,10.86q-10.15,5.91-32.91,9.14-25,3.3-36.61,8.26l69.52-1.65c.79,0,1.37.87,1.73,2.6.37,1.52,1.13,2.18,2.29,2v-1.66h1.42m29.76-45.9-8.51,6.85q24.72-16.7,64.17-24.25,22.13-4.24,121.4-10.47v-1.65a588.75,588.75,0,0,1-80.86,1.65q-43.38-2.28-72.9-11.18-17-4.87-55-8.19-35.19-3.3-51.1-9.21l-17.63-9.84q-11.34-6.84-19.29-5.59,7.39.39,17.87,7.56,13.38,9.21,19.05,11.18,7.64,2.91,69.2,10.47,45.43,5.91,54.49,24.33Q1124.27,512.07,1102.94,528.83Z"/></g><g id="Layer95_0_FILL" data-name="Layer95 0 FILL"><path d="M160.3,226l-1.11.94q-15,17.4-22.67,22.36-14.25,9.14-31.81,4.25,25.28,8.82,46.53-15.75L160.3,226m0,0q11.64-13.78,15.9-20.32a94.94,94.94,0,0,0-9.06,10.79c-2.67,3.52-5,6.69-6.84,9.53M215.41,30.86q-2.61-13.45-4.33-19.68a263.49,263.49,0,0,1-2.21,26.53q-2.6,16.45-10.23,20.71-1.74-3.63.86-14.09,2.3-10.87.55-14.18-2,8.58-13.07,21.65-10.23,12.21-11.33,24,0-9.52-2.84-12.52-3.69,9.53-2.59,22.36,1.49,12.75,6.84,18.34h1.11v1.66q.86,1.26,5.67,4.56,2,7.25-4.26,15.75-7.64,10.16-8.18,14.41Q170,150.61,176,161.08q7.64,13.15,7.88,15.43,2.28,12.77-7.64,28.82v.39a41.15,41.15,0,0,1,6.22-5.59q0,24.57,9.37,25.28,8.82.63,10.23-16.77,2-25.27,4.8-32.13,1.43-3.62,8.27-11.49,6.54-7.25,6.77-8.9Q225,144,217.93,132.5q-6-9.45-1.42-15.74l-.87-1,.87-.63c.37-1.78,1.78-3.75,4.25-5.9a12.38,12.38,0,0,0,3.94-6.62V101h1.18q6.52-33.47-2.6-52.12h-1.42V47.55q-4.25-5.19-6.45-16.69m-18.19,8.51q2,2.28.24,7.87-2,6.52-1.42,9.52c.42,1.74,1.94,2.94,4.57,3.63q3.69.95,4.8-.32-2.52-1,1.73-11.49,5.12-13.15,3.94-20,13.62,21.26,14.48,49.84.63,31.49-18.74,38.34c.21,2,1,2.33,2.29,1s2-1.21,2,.32q-.24,3.3-4.26,3.93-4.48,1-5.35,2.6,1.11,12.21-4.25,14.17-.32-.39-2.6-9.84-1.65-6.62-6.77-7.56a9.91,9.91,0,0,0-1.42-9.52c-1.15-1.53-.21-2.52,2.84-3Q179,104,175.33,95.5t-2.52-24.64c.74-1.52,1.21-.53,1.42,3,.21,3.94,1.16,5.56,2.83,4.88q.87-11.17,8.51-21.65Q195.8,43,197.22,39.37m12.44,83.69A45.25,45.25,0,0,1,208,133.53,30.91,30.91,0,0,0,206.82,145q-3.37,3.94-9.6,4.25a18.41,18.41,0,0,1-10.79-2.6V133.21q0-7.88-1.41-11.81l3.7,3.62a8.14,8.14,0,0,0,4.48,2.6v12.76q6.86,1.34,9.14-7.88,2.28-9.84,7.32-9.44m8.27,12.44q3.69,9.84-3.15,16.37-5.67,5.91-16.14,6.61-10.24.63-17-4.64-7.71-5.91-6-16.69,3.15,15.43,20.39,14.09,17.33-1,21.89-15.74m-34.09-7.88q0,2-2,5.91a12.19,12.19,0,0,0-.87,6.85q-3.93-1.26-2.83-7.48,1.41-6.3,5.67-5.28m9.68,64.64q-2.84,0-1.73-3.31h9.68q-1.41,5.91-2,20.71-1.17,12.12-8.81,12.44,1.41-1.33,1.41-5.28t-1.41-5.59c-.95,0-1.13,1.11-.56,3.31.74,2.83.92,4.91.56,6.22q-4.26-2-5.36-11.81-1.19-8.82,1.1-15,3.7.63,2.29,6.54-1.42,7.25.55,9.21,2.28-.71.86-2.36c-.94-1.73-1.23-3.05-.86-3.94a9.92,9.92,0,0,1,3.7,1.34l4.25.31a3,3,0,0,0-2.6-3.22h-5.35q.87-6.93,6.77-7.88.32-1.65-2.52-1.65m6-20.39q-21.88,4.65-22.44-17.32,7.65,7.15,22.13,6.22,15.34-1,18.74-11.18Q221.31,167.62,199.5,171.87Z"/></g><g id="Layer94_0_FILL" data-name="Layer94 0 FILL"><path d="M289.73,16.06c.37-1.73,0-1.73-1.18,0s-1.58,4.41-1.42,7.87q9.38,8.91,13.38-3.22,3.71-12.53-9.13-7.88a23,23,0,0,0,5.43,2.6q2.83,1.34,2.52,5.28-1.09,2.59-5.67,3.22c-3,.48-4.69-.6-5.11-3.22Z"/></g><g id="Layer93_0_FILL" data-name="Layer93 0 FILL"><path d="M939.49,21.65q1.18-6.22-3.94-5.59A12.72,12.72,0,0,0,933,21a6.44,6.44,0,0,0,1.18,5.91Q938.39,28.19,939.49,21.65Z"/></g><g id="Layer92_0_FILL" data-name="Layer92 0 FILL"><path d="M1063.81,19.68c1.15-1.1,1-1.86-.32-2.28l-2.28,4.25a8.78,8.78,0,0,0-1.66,5.28q4.58,5.19,11-1.34,7.15-7.56-1.42-4.88,3.71,1.58-1.1,4.25-5.11,2.28-5.67-1Q1061.21,21.65,1063.81,19.68Z"/></g><g id="Layer91_0_FILL" data-name="Layer91 0 FILL"><path d="M487.18,23l.32-2.28a3.58,3.58,0,0,0-2.6,2.59l-1.42,3.63q1.42,3.22,5.44.94,4.24-2.6,1.41-3.94Q486.09,28.19,487.18,23Z"/></g><g id="Layer90_0_FILL" data-name="Layer90 0 FILL"><path d="M826,22.28l-2,1.65q0-8.17-1.41-3.22A7.14,7.14,0,0,0,824,25.27c2.84.63,4.36-.57,4.57-3.62q.32-4.87-3.39-.94C826.12,20.92,826.41,21.44,826,22.28Z"/></g><g id="Layer89_0_FILL" data-name="Layer89 0 FILL"><path d="M1041.68,19.05c-.36,1.31-.47,4.91-.31,10.79q.32,7.88-2.29,11.18c-1.46.63-3.25.18-5.35-1.34-1.52-1.31-2.47-1.42-2.83-.31V41h-1.42q-1.74,7.24-12.52,19.37-9,10.15-9.37,22.59a61.11,61.11,0,0,1,8.51-17l12.2-18.43c1.15,1.32,1.15,3.83,0,7.56q-2,6.22-1.42,9.53.87,3.3,4,3.3,5.36-3.61,7.95-12.83,1.65-5.91,2.83-18.66.55,2.91,7.64,16.06,6.54,12.45,7.4,20,.55,4.88-1.42,18.66c-1.15,8.35-1.55,13.17-1.18,14.49q.63,4.88-5.67,10.47-1.65,2-10.78,8.5c.21,2,1,2.34,2.28,1q2-1.65,1.73.63,0,3-4,3.63-4.49,1-5.36,2.59,1.11,12.21-4,14.17,0-4.32-4.25-10.86v12.44q6.84,1.33,9.13-7.87,2.28-9.84,7.32-9.45a45.25,45.25,0,0,1-1.65,10.47,30.72,30.72,0,0,0-1.18,11.49q-3.39,3.95-9.61,4.26a18.44,18.44,0,0,1-10.78-2.6V141.09q0-7.87-1.42-11.81l3.7,3.62a8.22,8.22,0,0,0,4.49,2.6l-.55-.63a28,28,0,0,1-4.81-15.12q-18.42-14.1-15-41,1.41-2.6,1.1,2.28,0,6.22,1.73,5.91a14.41,14.41,0,0,1,1.1-3.62,13.56,13.56,0,0,1-1.65-5.51l-.87-6.93q-7.4,10.47-3.15,26.92,3.71,14.41,12.52,22a25.26,25.26,0,0,1-2.83,13.15l-6.54,9.13.55,2.28-2-.94a31.78,31.78,0,0,0,2.28,24.25q8.19,16,8.5,18.42.87,4.25-1.18,25.9-1.1,13.78,6.85,19.69l1.42-.32v2q10.47-2.37,12.2-20.08,2.52-25.59,3.94-28.81a23.36,23.36,0,0,1,8.82-10.55q8-5.52,10.23-8.19h-1.18V164q-2-.31-4.25,1.65,4.88-8.51,0-20-5.91-11.18-6.77-14.72,1.65-4.34,8-8.9,6.54-4.87,8.5-8.5A128.56,128.56,0,0,0,1055.85,61q-10.47-26.54-14.17-42m-6.22,36.69,2.21-9.84q2.28,0-.55,10.23-2.83,10.48-7.64,10.16-1.74-3.62,0-10.86,2-8.19,1.42-12.76h5.35a42.76,42.76,0,0,1-2,11.1l-3.38,9.53q2.83-2,4.56-7.56m-21,79.76q-1.19,8.17-5.43,7.87-.24-7.25,5.43-7.87m42.28-20a9.23,9.23,0,0,1-6.85,4.25q6-6.54,6.85-12.44,3.39,3.93,0,8.19m-10.79,44.24q-5.65,5.91-15.9,6.62-9.91.63-17-3.94-7.71-5.59-6.53-15.75,4.56,14.1,21.26,12.44,16.77-1.34,20.7-15.74,3.71,9.84-2.52,16.37M1021.53,208a10.34,10.34,0,0,1,3.38-6.22q1.42-1-2.28-5h9.68q-1.41,5.89-1.73,20-1.41,11.82-7.95,13.15a30.86,30.86,0,0,0-.24-9.52,34.06,34.06,0,0,1-.86-9.22q2.28,2,6.77,1.66c.21-1.94-.81-2.92-3.07-2.92-2.47-.21-3.7-.86-3.7-2m-5.67-6.22h4.25a42.41,42.41,0,0,0-.55,12.75,113.28,113.28,0,0,1,.55,13.78q-3.15-3.63-3.7-11.18a140.38,140.38,0,0,1-.55-15.35m32.59-44.33q2.05,16.77-18.73,21.65-20.72,5.28-22.13-16.69,7.95,7.17,22.44,6.22Q1045.39,167.62,1048.45,157.46Z"/></g><g id="Layer88_0_FILL" data-name="Layer88 0 FILL"><path d="M616.62,32.83c-.21-2-1.08-2.89-2.6-2.68l1.42,5.28c.57,2.2.1,3.52-1.42,3.94q-3.63,1.65-4.8-2l-2-5.91q0,7.88,1.42,9.53,8,1.65,9.6-4.57C617.54,36.45,617,35.25,616.62,32.83Z"/></g><g id="Layer87_0_FILL" data-name="Layer87 0 FILL"><path d="M1200.56,38a8.83,8.83,0,0,0-.87,4.64q4.89,1.26,6.54-4.64,1.41-5.91-5.12-4.88A6.79,6.79,0,0,1,1200.56,38Z"/></g><g id="Layer86_0_FILL" data-name="Layer86 0 FILL"><path d="M971,48.58q0-5.59-1.41-2.68-.8,21.65,13.38,31.49-6.86-6.84-12-20.63Z"/></g><g id="Layer85_0_FILL" data-name="Layer85 0 FILL"><path d="M961.38,117.78q1.41-3.61-6.85-1-6.54-5.2-11.89-16.06l-8.5-20.32q1.41-5.89,7.63-18.34,5.44-11.49,6-16.14-11.1,23-14.8,34.48,12,32.45,21.57,37.72Q960,121.4,961.38,117.78Z"/></g><g id="Layer84_0_FILL" data-name="Layer84 0 FILL"><path d="M152.34,53.77q-2.52,6.93,1.42,10.87,10,.63,10.79-7.88a4.92,4.92,0,0,0-4.25-3.93c-2.47-.68-4.18.18-5.12,2.6l4.33-.32q2.84-.31,2.52,1.65a5.51,5.51,0,0,1-2.29,4.89,14.74,14.74,0,0,1-4.56,1.65q-2.52-.63-2-6.22C153.42,54.25,153.13,53.14,152.34,53.77Z"/></g><g id="Layer83_0_FILL" data-name="Layer83 0 FILL"><path d="M750,102.35a35.69,35.69,0,0,0,7.08,7.87Q739.76,94.8,746.29,64.64q-2.84,8.51-2.84,28.5l6.54,9.21M747.15,62c-1.36-1.57-1.65-.71-.86,2.6C748.39,64.43,748.67,63.56,747.15,62Z"/></g><g id="Layer82_0_FILL" data-name="Layer82 0 FILL"><path d="M204.31,90.23q3.15-11.82,3.93-12.84,3.47,25-6.77,34.49c-.37-1.53-1-1.87-2-1-1.52,1.1-2.67,1.45-3.46,1-1.47-.21-2.6-1.32-3.39-3.31-.73-2.63-1.39-4.15-2-4.57q-1.11,7.25,3.14,8.82l10.48.71q5.12-7.25,6.53-20.39,1.41-14.42-4-22.28a106,106,0,0,0-3.07,14.41q-2,8.58-6.53,10.86-2.59-.63-4.57-5.28-2.28-4.87-4.8-5.58-3.15,2.36-.55,11.17,1.09,4.26,2,4.57.31-.95-1.1-6.85-1.18-4.25,1.1-5.9a22.88,22.88,0,0,1,2.28,6.22c.95,2.41,2.44,3.51,4.49,3.3Q202,98.1,204.31,90.23Z"/></g><g id="Layer81_0_FILL" data-name="Layer81 0 FILL"><path d="M1037.67,78.73a103.25,103.25,0,0,0-3.07,14.41q-2.05,8.58-6.3,10.86-2.83-.63-4.8-5.27-2.29-4.89-4.81-5.59-3.15,2.35-.55,11.18c.74,2.83,1.39,4.35,2,4.56q.24-.94-1.42-6.85-1.17-4.25,1.42-5.9a22.34,22.34,0,0,1,2.28,6.22c1,2.41,2.44,3.52,4.49,3.31q6,.32,8.27-7.56,3.15-11.8,3.93-12.83,3.47,24.95-6.77,34.48c-.36-1.52-1-1.86-2-1-1.53,1.1-2.68,1.44-3.47,1q-2.2-.31-3.38-3.31c-.74-2.62-1.39-4.14-2-4.56q-1.18,7.23,3.15,8.81l10.47.71q5.11-7.25,6.53-20.39Q1043.11,86.61,1037.67,78.73Z"/></g><g id="Layer80_0_FILL" data-name="Layer80 0 FILL"><path d="M1186.39,108.57q7.39-6.85,5.35-15.43a17.75,17.75,0,0,1-7.63,15.11q-10.24,7.25-11.66,9.85Z"/></g><g id="Layer79_0_FILL" data-name="Layer79 0 FILL"><path d="M1003.34,127q-5.36-9.84-9.05-10.23c1.15.68,2.94,2.78,5.35,6.3Q1012.71,143.37,1003.34,127Z"/></g><g id="Layer78_0_FILL" data-name="Layer78 0 FILL"><path d="M341.61,189q-11.34-.94-20.7-11.18l-15.91-17q-2-6.61-.23-22.36,1.41-15,.23-17-3.62,25.28-1.42,41,5.44,2.91,14.49,13.78,8.26,10.16,15.35,12.75Z"/></g><g id="Layer77_0_FILL" data-name="Layer77 0 FILL"><path d="M1066.33,136.83q-.8-3.62-3.94-2.67a3.25,3.25,0,0,1-1.18,3.62,3.62,3.62,0,0,0-1.66,2.6l2.29,1.33,3.07.32A5.63,5.63,0,0,0,1066.33,136.83Z"/></g><g id="Layer76_0_FILL" data-name="Layer76 0 FILL"><path d="M849.82,162.42q14.25-8.89,9.37-6.3-11.34,3-25.83,12.52-5.67,3.63,2.84.32Z"/></g><g id="Layer75_0_FILL" data-name="Layer75 0 FILL"><path d="M554.18,176.51l.24-10.55c0-4.14-.94-6.43-2.83-6.85q6,22.29-6.22,43.31l-13.86,23.93q4.17-6.84,11.34-16.69,10.47-14.49,11.33-29.92a5.22,5.22,0,0,0,2.84-2.28c.94-1.52,1.78-2.39,2.52-2.6-.16-2.83-.71-3.39-1.66-1.65Q555.92,177.14,554.18,176.51Z"/></g><g id="Layer74_0_FILL" data-name="Layer74 0 FILL"><path d="M1175.29,166.67a7.23,7.23,0,0,0,2.6-5.9q-6.86,7.15-10.79,12.12-4,5.28,4.25-2.6Z"/></g><g id="Layer73_0_FILL" data-name="Layer73 0 FILL"><path d="M432.15,171.24q.56,1,2.28.63,5.35-2,20.71-4.88,13.94-2.6,17.32-4.57a143.38,143.38,0,0,0-20.15,3.23L433,170.29C432.28,170.29,432,170.61,432.15,171.24Z"/></g><g id="Layer72_0_FILL" data-name="Layer72 0 FILL"><path d="M590.79,165.65Q585.67,163.37,580,167q-17,2-14.8,6.53,4.32-3.93,17.63-6.53Q596.78,168.33,590.79,165.65Z"/></g><g id="Layer71_0_FILL" data-name="Layer71 0 FILL"><path d="M819.19,169l-19.84-2q2.52,2,9.61,3.3Q830,170.61,819.19,169Z"/></g><g id="Layer70_0_FILL" data-name="Layer70 0 FILL"><path d="M414.59,184.7q9.38-8.89,13-11.18a55.22,55.22,0,0,0-13,9.21l-11.65,11.18Q406.33,192.58,414.59,184.7Z"/></g><g id="Layer69_0_FILL" data-name="Layer69 0 FILL"><path d="M666,219.11l1.1,11.18a61.37,61.37,0,0,1,0,12.44q9.38,27.24,31.26,16.77,3.39-1.35,19.29-11.18,11.88-7.56,19-8.82L744,210q4.26-18.74,3.7-25.58-2.28,9.53-6,28.81-3.39,17.09-7.64,26.3-8,.63-29.84,15.43-16.46,11.1-28.89,2a97,97,0,0,1-8.27-37.79q2.61-3.56,1.18-3.55C667.32,215.56,666.56,216.74,666,219.11Z"/></g><g id="Layer68_0_FILL" data-name="Layer68 0 FILL"><path d="M633.31,206.35l-8.19-18.74Q626.53,201.4,633.31,206.35Z"/></g><g id="Layer67_0_FILL" data-name="Layer67 0 FILL"><path d="M897.21,221.78a101.77,101.77,0,0,1,5.67-29.52q-7.95,10.47-7.08,32.75.54,23.63,13.93,22.36Q896.35,244.39,897.21,221.78Z"/></g><g id="Layer66_0_FILL" data-name="Layer66 0 FILL"><path d="M276.34,203.36l-19.29,17.72q-13.85,11.8-14.72,23.3a33.64,33.64,0,0,0,5.12,19.37q5.91,10.15,15.27,13.46,7.41-3.93,44.88-22,.87-11.18.87-19.05.22-14.72-3.47-22a49.82,49.82,0,0,0-13.3-7.88q-9.06-3.61-12.52-1.34,16.53.72,23.85,15.44,7.1,14.79.55,34.79-7.08,2.29-21.49,9.85-13.38,6.84-22.2,9.13-11.58-7.87-16.14-33.07,4.8-7.56,16.77-20.39Q273.51,207.29,276.34,203.36Z"/></g><g id="Layer65_0_FILL" data-name="Layer65 0 FILL"><path d="M1150.65,206.35c-.37,1.31-1.89,4.39-4.57,9.21q-3.15,5.91-2.28,8.19.63-2.28,4.56-9.52Q1151.51,208.64,1150.65,206.35Z"/></g><g id="Layer64_0_FILL" data-name="Layer64 0 FILL"><path d="M216.51,255.24a9.66,9.66,0,0,0-6.85-1.65l-1.42,5.91a7.09,7.09,0,0,0,1.42,5.27Q216.83,264.07,216.51,255.24Z"/></g><g id="Layer63_0_FILL" data-name="Layer63 0 FILL"><path d="M1099.86,265.09c0-3.31-.28-5.52-.86-6.62q-.32,2.68-4.57,8.27c-2.46,3.25-3.23,5.75-2.28,7.48a30.77,30.77,0,0,1,5.43-9.45q.56.63,1.1,6.85c.37,3.31,1,4.17,1.74,2.6A57.2,57.2,0,0,1,1099.86,265.09Z"/></g><g id="Layer62_0_FILL" data-name="Layer62 0 FILL"><path d="M990.59,269.65q5.43-.31,4.8-4.88-1.11-5.91-9.37,0Q984.93,270,990.59,269.65Z"/></g><g id="Layer61_0_FILL" data-name="Layer61 0 FILL"><path d="M389.56,273.59l6.53,11.49q-2.52-13.14-9.6-17.4l-2.6-1.33a25.43,25.43,0,0,1,5.67,7.24m-20.71-7.24q-20.14,4.63-30.07,9.84-16.14,8.9-17.56,23.3,12.91-27.87,54.4-34Z"/></g><g id="Layer60_0_FILL" data-name="Layer60 0 FILL"><path d="M1081.13,327.75c-.37-1.1-.76-1.65-1.18-1.65a6,6,0,0,1-2,4.25c-1.52,1.32-2.65,1-3.39-1,1.52.89,2.65.37,3.39-1.58q3.15-9.21-.87,0-2.52-1.33-3.7,2.29-1.41,3.22,1.18,3.93a15,15,0,0,1,3.7-1.33c2.26-.63,3.68-1.74,4.25-3.31C1082,329.33,1081.49,328.8,1081.13,327.75Z"/></g><g id="Layer59_0_FILL" data-name="Layer59 0 FILL"><path d="M1220.4,337.2q3.46-.31,1.18-1.57-8.26.63-8.26,6.22l7.4.94a4.93,4.93,0,0,0,5.11-3.93l-5.11,1.33q-3.39.94-4.57-1.33C1216.15,338.23,1217.57,337.68,1220.4,337.2Z"/></g><g id="Layer58_0_FILL" data-name="Layer58 0 FILL"><path d="M31.18,503.56q-19.84-1.33-31.18.32v3.3q8.82-2,30.39-.63,19.53.94,29.45-2.67Q52.51,504.9,31.18,503.56Z"/></g><g id="Layer57_0_FILL" data-name="Layer57 0 FILL"><path d="M1204.26,403.18q-3.39.94-4.57-1.34,12.52-3.22,3.15-2.28-5.43.31-5.66,5.27c1.52,1.52,3.88,2.08,7.08,1.66q4.8-1,5.12-4.65Z"/></g><g id="Layer56_0_FILL" data-name="Layer56 0 FILL"><path d="M151.56,405.15q6.21.63,7.63,5.9c-.57,1.52-2.1,2.94-4.56,4.25-2.63,1.53-4.23,2.73-4.81,3.62l6.77-2.59a8.46,8.46,0,0,0,4-6.93q-.87-5.28-9.05-6.22-8.26-1.33-11.42,3.31A27.12,27.12,0,0,1,151.56,405.15Z"/></g><g id="Layer55_0_FILL" data-name="Layer55 0 FILL"><path d="M127.94,417.59q-1.11-4.89,4.56-7.88,4.81-2.91,3.7-4.88-1.72,2.28-6.85,5.2-3.61,3-2.83,8.89,3.15,3.63,10.79,3.63,7.71-.32,11.1-3.63-9.69,2.61-16.46,1.66c0-.89-.65-1.45-2-1.66S127.94,418.27,127.94,417.59Z"/></g><g id="Layer54_0_FILL" data-name="Layer54 0 FILL"><path d="M1162.53,447.5a7.12,7.12,0,0,1-.86-3.3,67.37,67.37,0,0,0-7.09,2.28,6.15,6.15,0,0,0-3.93,5.59l5.9.32,6.54-2A4.06,4.06,0,0,0,1162.53,447.5Z"/></g><g id="Layer53_0_FILL" data-name="Layer53 0 FILL"><path d="M582.84,463.25q.31.63,3.39,1.26,2.6.32,2,3.31c-1.47-.69-3.73-.37-6.78.94q-4,1.65-5.43-.94c-.16-.69.53-1.68,2-3,.94-.84.73-1.36-.63-1.57l-3.07,2.6c-1.31,1.1-1.71,2.86-1.18,5.27l12.2-.39q6.3-.94,7.09-6.22A9.76,9.76,0,0,0,588,461.6C585.49,460.7,583.79,461.26,582.84,463.25Z"/></g><g id="Layer52_0_FILL" data-name="Layer52 0 FILL"><path d="M667.08,467.82q-4.8,0-1.1,1.65a37.44,37.44,0,0,1,11,2.91q6.86,3,10.79,3.31,1.19-.31-7.32-3.62A83,83,0,0,0,667.08,467.82Z"/></g><g id="Layer51_0_FILL" data-name="Layer51 0 FILL"><path d="M1021.53,532.45c-.37-1.31-.84-1.86-1.42-1.65q.87,6.54,8.82,5.59,7.63-.71,10.15-5.59-4.49-2.28-5.9-2.28a3.63,3.63,0,0,0-4.88,2.28c.42.21,2,.21,4.88,0,2-.21,3.07.34,3.07,1.65l-7.64,1.66Q1023.5,535.06,1021.53,532.45Z"/></g><g id="Layer50_0_FILL" data-name="Layer50 0 FILL"><path d="M1260.16,549.85c1.89.63,2.65,2.16,2.28,4.57a22.23,22.23,0,0,1-8.81,2c-4-.21-6.07-2-6.22-5.28q.22-2.91,6.77-4.88c4.2-1.31,6.08-2.31,5.67-3q-13.63,1-15,11.18,2.84,3.93,11.65,3.62,8.82-.7,8.82-6.93-.32-2.6-4.81-3.22c-3.25-.48-5.35.18-6.29,2A21.45,21.45,0,0,1,1260.16,549.85Z"/></g><g id="Layer49_0_FILL" data-name="Layer49 0 FILL"><path d="M1191.51,603c.94,0,1.41-.45,1.41-1.34q-8,.63-8.26,6.22,6.52.63,9.68-2.92l-3.38-.39c-1.16,0-1.84-.42-2-1.26Z"/></g><g id="Layer48_0_FILL" data-name="Layer48 0 FILL"><path d="M141.56,652.52q8.58-5.28,2.6-9.84.85,2.28-4.81,5.59-5.43,3.22-7.4,2.28a18.43,18.43,0,0,1,2.84-4.65,17,17,0,0,0-6.85,7.56Q132.82,657.72,141.56,652.52Z"/></g><g id="Layer47_0_FILL" data-name="Layer47 0 FILL"><path d="M1092.46,910.05c-1.68-.21-2.62-.66-2.83-1.34q29-23.62,86.52-34.41,33.46-6.3,103.85-14.48v-1.66a343.4,343.4,0,0,0-46,3.94l-81.09,13.78q-21.33,3.93-33.54,9.21-4.48,2-17.56,12.12-11.1,8.89-17.87,9.84l-8.27-.31q-8.73-2.6-9.36-2.6-66.06-14.08-99.28-17.4l51.64,12.44,28.35,4.65q20.67,3.21,23.3,8.18-.55-1-1.73,3.94c-.58,1.94-.29,2.91.86,2.91q-8,3.32-21.57,12.84-13.94,9.84-22.44,13.07h9.69q9.6-5.52,28.11-20.32Q1080.57,912.65,1095,912C1095,910.91,1094.14,910.26,1092.46,910.05Z"/></g><g id="Layer46_0_FILL" data-name="Layer46 0 FILL"><path d="M859.19,878.87q17.63-1.33,54.79,3.62,34.88,4.88,51.65,2.6L883,877.21q-49.68-4.56-64.72-28.18-6.77.94-20.15-8.58t-16.46-8.82q-2.19.95,0,3.62l17.88,19.29q7.95,9.21,12,14.8-15,25-29.84,33.15c2.64,0,4.42-.55,5.36-1.66a197.17,197.17,0,0,1-23.46,23.31L738,944.77h4q19.85-16.07,31.5-26.54L788,901.86q9.38-10.87,15.28-13.47,15-6.6,55.9-9.52M809,853.6c0,.42-.48.86-1.42,1.33a2.07,2.07,0,0,0-1.42,2q-4.8-2.67-10.47-9.84-6.54-8.26-9.92-10.86,4.24.31,10.47,8.89Q802.19,853.28,809,853.6Z"/></g><g id="Layer45_0_FILL" data-name="Layer45 0 FILL"><path d="M1250.79,713.85c-2.1,0-3.23-.66-3.38-2q7.63-5.6,1.65-4.25-4.8,1.26-4.25,7.56,15.66,4.56,15-6.62-1.42.31-4.26-1.26c-1.52.84-1.6,2-.23,3.55q2,2,.23,2.67Z"/></g><g id="Layer44_0_FILL" data-name="Layer44 0 FILL"><path d="M531.19,922.8a47.24,47.24,0,0,0,9.92,3.31q5.67,2.28,6.22,7.87-2.21,2.28-6.22,1.34-5.65-1.65-7.4-1.34l-5.35-7.87q0,8.5,9.61,11.49,9.36,2.6,13.62-3.62a20.33,20.33,0,0,0-7.88-10.47Q537.41,919.57,531.19,922.8Z"/></g><g id="Layer43_0_FILL" data-name="Layer43 0 FILL"><path d="M1231.19,204.07l-1.42-3.94a56.51,56.51,0,0,0-2.83,9.53c1.89.21,3.77,1.73,5.66,4.57q1.43-3,5.44-3,.23-5.19-1.42-7.87Z"/></g><path id="Layer42_0_1_STROKES" data-name="Layer42 0 1 STROKES" d="M841.63,354.29l-.55-2.29q3.38-3.93,9.92-4.25c4.14,0,7.35,1.42,9.6,4.25a16.37,16.37,0,0,1-9.05,4.26Q845.57,356.89,841.63,354.29Z" style="fill:none;stroke:#000;stroke-linecap:round;stroke-width:0.4000000059604645px"/><path id="Layer41_0_1_STROKES" data-name="Layer41 0 1 STROKES" d="M461.68,471.12q-14.18.63-17-8.89A46,46,0,0,1,467,453.72q15-1.34,16.45,11.1A51,51,0,0,1,461.68,471.12Z" style="fill:none;stroke:#000;stroke-linecap:round;stroke-width:0.3499999940395355px"/><path id="Layer40_0_1_STROKES" data-name="Layer40 0 1 STROKES" d="M147.54,548.2a4.23,4.23,0,0,1-1.65-2.28,11,11,0,0,1,8.5-7.88,21.82,21.82,0,0,1,11.89,0q-.32,5.21-7.09,7.88Z" style="fill:none;stroke:#000;stroke-linecap:round;stroke-width:0.4000000059604645px"/><path id="Layer39_0_1_STROKES" data-name="Layer39 0 1 STROKES" d="M367.44,552.77q-.24-8.82,13.93-10.47t17.56,8.18q-5.35,5.6-15,6.22A29.37,29.37,0,0,1,367.44,552.77Z" style="fill:none;stroke:#000;stroke-linecap:round;stroke-width:0.4000000059604645px"/><path id="Layer38_0_1_STROKES" data-name="Layer38 0 1 STROKES" d="M360.9,645.9q7.17,4.65,18,1.66,10.47-2.59,15.27-10.47-6.76-7.25-19.6-5Q361.53,634.8,360.9,645.9Z" style="fill:none;stroke:#000;stroke-linecap:round;stroke-width:0.30000001192092896px"/><path id="Layer37_0_1_STROKES" data-name="Layer37 0 1 STROKES" d="M433,697.79q36.28,12.44,109.83,40.31,64.39,20,113.45,11.49" style="fill:none;stroke:#000;stroke-linecap:round;stroke-width:0.5px"/><path id="Layer36_0_1_STROKES" data-name="Layer36 0 1 STROKES" d="M1190.33,653.46q1.17-9.13-1.11-15.74l-2.83-2.29a212.11,212.11,0,0,1-28.11-6.85L1130.81,620q-14.25-3.93-20.47-8.19-7.1-4.24-21-19-13-14.4-17.55-18" style="fill:none;stroke:#000;stroke-linecap:round;stroke-width:0.30000001192092896px"/><path id="Layer35_0_1_STROKES" data-name="Layer35 0 1 STROKES" d="M1190.33,653.46q-5.13,1.35-29.45,9.84-18,6.62-30.07,6.22-17.32,29.93-62.2,31.89H1030.9q-22.13.32-35.51,4.25" style="fill:none;stroke:#000;stroke-linecap:round;stroke-width:0.4000000059604645px"/><path id="Layer34_0_1_STROKES" data-name="Layer34 0 1 STROKES" d="M254.54,842.73q-11.11,8.89-117.23,15.12-27.79,1.65-40-1.66-16.69-4.56-28.66-22.28l-3.93-5.27A12.06,12.06,0,0,1,63,821.47" style="fill:none;stroke:#000;stroke-linecap:round;stroke-width:0.5px"/><path id="Layer33_0_1_STROKES" data-name="Layer33 0 1 STROKES" d="M52.2,665.59q33.47-15,39.76-18.35,25-13.14,39.13-29.52,15.58-18,39.76-27.87,32-13.47,43.14-21,14.4-9.52,20.94-11.81l2.6-2q2.21-2.91-.63-9.13-2.84-5.91,0-8.9" style="fill:none;stroke:#000;stroke-linecap:round;stroke-width:0.4000000059604645px"/><path id="Layer32_0_1_STROKES" data-name="Layer32 0 1 STROKES" d="M236.9,537q-14.73-6.22-45.11-14.09-30.07-7.87-44.8-14.09" style="fill:none;stroke:#000;stroke-linecap:round;stroke-width:0.30000001192092896px"/><path id="Layer31_0_1_STROKES" data-name="Layer31 0 1 STROKES" d="M656.3,431.76l64.16-13.86q37.17-10.15,59.84-30.47" style="fill:none;stroke:#000;stroke-linecap:round;stroke-width:0.4000000059604645px"/><path id="Layer30_0_1_STROKES" data-name="Layer30 0 1 STROKES" d="M236.9,537q14.25-8.19,60.47-18.66,39.19-8.9,58.49-26.61a7,7,0,0,1,1.1-2.91,7.06,7.06,0,0,0-.31-5.28,202.78,202.78,0,0,0-54.48-22.28" style="fill:none;stroke:#000;stroke-linecap:round;stroke-width:0.3499999940395355px"/><path id="Layer29_0_1_STROKES" data-name="Layer29 0 1 STROKES" d="M847.85,37.08q10.23,6.22,25,2.29,15-4.26,19.6-16.07-6.23-19.68-26.93-12.83Q844.78,17.09,847.85,37.08Z" style="fill:none;stroke:#000;stroke-linecap:round;stroke-width:0.30000001192092896px"/><path id="Layer28_0_1_STROKES" data-name="Layer28 0 1 STROKES" d="M215.64,115.81q9.38,4.89,18.19,19.37L248,158.8a93.17,93.17,0,0,1-2.28,22.28l-5.12,20q-2.83,10.15-5.67,14.48-3.08,4.58-11.89,11.11-5.67,4.25-19.6,20-13.06,15.43-22.12,21.65-10.24,7.24-41.73,11.81-30.95,4.65-40.55.71-6-2.67-13.38-9.52L73.77,259.5A96.21,96.21,0,0,1,49.13,223Q40,199.43,45.66,172.89a312.35,312.35,0,0,1,35.2-39.68Q92.19,122.67,119.43,99q12.52-5.51,29.84-2l28.9,6.93" style="fill:none;stroke:#000;stroke-linecap:round;stroke-width:0.30000001192092896px"/><path id="Layer27_0_1_STROKES" data-name="Layer27 0 1 STROKES" d="M221.86,48.89a43.61,43.61,0,0,1,10.55-8.19q23.86-14.09,30.31-10.86,3.46,1.65,16.77,26.61l4.25,7.87a39.67,39.67,0,0,1,4,9.14q-5.67,10.86-23.3,31.17L224.7,101" style="fill:none;stroke:#000;stroke-linecap:round;stroke-width:0.30000001192092896px"/><path id="Layer26_0_1_STROKES" data-name="Layer26 0 1 STROKES" d="M666.53,16.77q34.1-9.21,63.54,2c1.15.63,1.73,2,1.73,4.25q-.87,5.91-3.94,18-2.28,10.78,0,18.34Q717.87,81,710,88.89q-49.12-9.14-74.08-34.41,4.8-22.35,13.07-33.14" style="fill:none;stroke:#000;stroke-linecap:round;stroke-width:0.30000001192092896px"/><path id="Layer25_0_1_STROKES" data-name="Layer25 0 1 STROKES" d="M1118,97.78a5.62,5.62,0,0,1-2.83,3.62,17.27,17.27,0,0,0-3.39,3.23q-11.34,1-19.84-12.75-8.51-17.09-13.62-23.62a12.4,12.4,0,0,1,0-3.94l3.07-10.15a21.19,21.19,0,0,1,5.44-8.27" style="fill:none;stroke:#000;stroke-linecap:round;stroke-width:0.30000001192092896px"/><path id="Layer24_0_1_STROKES" data-name="Layer24 0 1 STROKES" d="M1086.8,45.9q5.34-16.07,20.39-22.28,12.19-5.6,28.65-2.91" style="fill:none;stroke:#000;stroke-linecap:round;stroke-width:0.3499999940395355px"/><path id="Layer23_0_1_STROKES" data-name="Layer23 0 1 STROKES" d="M1118,97.78q21.88-14.09,29.29-22a49.83,49.83,0,0,0,13.62-35.43" style="fill:none;stroke:#000;stroke-linecap:round;stroke-width:0.30000001192092896px"/><path id="Layer22_0_1_STROKES" data-name="Layer22 0 1 STROKES" d="M1160.88,40.39q-3.47,1.26-9.37,9.84-5.67,7.49-10.55,8.5-9.6-4.56-11-17.08a27.06,27.06,0,0,1,5.9-20.94" style="fill:none;stroke:#000;stroke-linecap:round;stroke-width:0.25px"/><path id="Layer21_0_1_STROKES" data-name="Layer21 0 1 STROKES" d="M1160.88,40.39q7.08-13.15-4.33-19a22.84,22.84,0,0,0-20.71-.63" style="fill:none;stroke:#000;stroke-linecap:round;stroke-width:0.3499999940395355px"/><path id="Layer20_0_1_STROKES" data-name="Layer20 0 1 STROKES" d="M1118,97.78q-15.59.31-23.22-18-4.26-9.84-8-33.85" style="fill:none;stroke:#000;stroke-linecap:round;stroke-width:0.25px"/><path id="Layer19_0_1_STROKES" data-name="Layer19 0 1 STROKES" d="M1055.54,165.65q11.1-11.1,28.66-13.78l31.8,1q4.26,2.61,4.81,9.85.63,10.15,1.18,11.49,6.52,12.12,25,22.6,20.38,11.8,26.69,20.31-.87,26-5.67,43.69-7.73,27.87-39.45,29.53-46,2.59-57.31,8.82-27.87-13.47-39.21-23.62-20.16-17.4-10.47-44.25" style="fill:none;stroke:#000;stroke-linecap:round;stroke-width:0.4000000059604645px"/><path id="Layer18_0_1_STROKES" data-name="Layer18 0 1 STROKES" d="M1005.62,144.31q-13.93-9.13-34.64-12.12l-37.16-2.91-1.1-1q-14.81-22.59-12.2-46.53,2.28-21.33,17.32-34.8Q954,33.15,982.4,34.09L1030.9,41" style="fill:none;stroke:#000;stroke-linecap:round;stroke-width:0.44999998807907104px"/><path id="Layer17_0_1_STROKES" data-name="Layer17 0 1 STROKES" d="M516.16,77.39Q534.58,91.88,557,80.7,578.83,69.53,584.26,45q-4.57-12.14-18.19-16.07a56.29,56.29,0,0,0-24.4-.7q-1.42,3.3-16.14,23.61Q515.29,66,516.16,77.39Z" style="fill:none;stroke:#000;stroke-linecap:round;stroke-width:0.3499999940395355px"/><path id="Layer16_0_1_STROKES" data-name="Layer16 0 1 STROKES" d="M753.69,43.62q2.84-.32,16.45-5.2,11.9-4.65,18.74-3.62,4.8.63,14.72,8.5,11.65,8.51,16.14,10.47,6.3,2.68,34.33,2,21-.32,27,12.2,3.15,7.17,6,32.44,1.65,13.47,3.38,35.12,1.11,11.49-.86,19.36-9.06,5.2-23.86,22Q851,193.21,841.63,198.16q-39.76-19.36-59-29.83Q748,150.21,730.07,126q.63-15.75,6.3-37.4l10.47-37.4" style="fill:none;stroke:#000;stroke-linecap:round;stroke-width:0.3499999940395355px"/><path id="Layer15_0_1_STROKES" data-name="Layer15 0 1 STROKES" d="M486.63,52.83q-2.28-1.65-.31-5.28t4.56-3.93a12.5,12.5,0,0,1,4.81,2.28,8.51,8.51,0,0,1,.31,5,11.69,11.69,0,0,1-4.56,3.31Q488.05,55.43,486.63,52.83Z" style="fill:none;stroke:#000;stroke-linecap:round;stroke-width:0.25px"/><path id="Layer14_0_1_STROKES" data-name="Layer14 0 1 STROKES" d="M9.92,111.25q2,2.28,1.42,8.5-.24,6.85,1.18,9.21,32,11.81,53.06-2.68Q85.67,112.83,93.06,78.1,88.82,58.74,74.87,54.17q-12.44-3.95-28.66,4.25a70.47,70.47,0,0,0-25.82,22Q9.36,96.13,9.92,111.25Z" style="fill:none;stroke:#000;stroke-linecap:round;stroke-width:0.30000001192092896px"/><path id="Layer13_0_1_STROKES" data-name="Layer13 0 1 STROKES" d="M482.38,188q-39.75,17-55.58,44.24l-82.91,7.88q-22.42-15.75-36.84-46.61Q294,166.67,289.41,133.21q-1.65-.71-1.65-6.61,8.19-5.2,31.18-28.5,20.15-21,34.64-26.93,17-7.15,70.62-11.1,26.15-2,43.46,9.13Q482.93,79.35,494.58,102q-2,14.41-5.35,43Q485.77,170.93,482.38,188Z" style="fill:none;stroke:#000;stroke-linecap:round;stroke-width:0.3499999940395355px"/><path id="Layer12_0_1_STROKES" data-name="Layer12 0 1 STROKES" d="M1166.55,184.7q-16.46-9.52-22.75-23.93a101.48,101.48,0,0,1,4.88-48.26q8.73-24.57,27.47-35.75l41.18,1.34q24.09,1.26,39.68,8.82,7.08,14.81,1.18,38.73-8.82,36.06-9.13,38.74L1223.24,185q-15.29,11.8-28,14.4Q1175.92,190.3,1166.55,184.7Z" style="fill:none;stroke:#000;stroke-linecap:round;stroke-width:0.3499999940395355px"/><path id="Layer11_0_1_STROKES" data-name="Layer11 0 1 STROKES" d="M691.25,98.41q-15.66-12.12-50.54-10.15-40.31,2.59-70.62,18.34-36.37,18.74-43.7,50.55-2,4.24-14.48,15.74-10.25,9.21-9.37,17.72a231.76,231.76,0,0,0,9,36.37q3.46,10.23,12.75,34.48,14.49,8.19,38.66,10.79l39.45,3.94q26.61-53.77,36.29-68.5,23.53-36.13,53.38-49.6Q696.05,130.92,691.25,98.41Z" style="fill:none;stroke:#000;stroke-linecap:round;stroke-width:0.4000000059604645px"/><path id="Layer10_0_1_STROKES" data-name="Layer10 0 1 STROKES" d="M879.66,200.13q7.4-7.56,21.25-11.49Q914.53,185,923,176.2A33,33,0,0,1,933,169a101.27,101.27,0,0,1,27.87-9.53q15.82-2.91,28.34,1,20.48,54.09-28.66,114.16-11.1.31-25.82,4.57l-25,7.56" style="fill:none;stroke:#000;stroke-linecap:round;stroke-width:0.3499999940395355px"/><path id="Layer9_0_1_STROKES" data-name="Layer9 0 1 STROKES" d="M879.66,200.13q-12.52,8.51-32.91,32.75l-1.18,4.33q11.1,27.89,24.4,41.65,19,19.38,39.76,7.88" style="fill:none;stroke:#000;stroke-linecap:round;stroke-width:0.30000001192092896px"/><path id="Layer8_0_1_STROKES" data-name="Layer8 0 1 STROKES" d="M880.21,201.08l-7.64,22q-4.25,13.16-4,23,5.44,8.5,21,19.69,14.71,10.47,20.15,21" style="fill:none;stroke:#000;stroke-linecap:round;stroke-width:0.25px"/><path id="Layer7_0_1_STROKES" data-name="Layer7 0 1 STROKES" d="M704,179.11q-33.78,15.75-45.67,45.59A98.77,98.77,0,0,0,660,256.5q4,18.75,13.93,23.62Q686.38,286,711.64,273q25-12.84,34.33-29.21,1.42-9.84,5.43-25.9l5.91-25.91Q740.86,161.71,704,179.11Z" style="fill:none;stroke:#000;stroke-linecap:round;stroke-width:0.3499999940395355px"/><path id="Layer6_0_1_STROKES" data-name="Layer6 0 1 STROKES" d="M477.82,221.08q-25,5.89-37.4,14.48Q420.26,249,424.2,271.62a24.9,24.9,0,0,1,1.73,5,7.44,7.44,0,0,0,2.84,3.94q28.34,11.81,50.46-9.53Q502.54,249,477.82,221.08Z" style="fill:none;stroke:#000;stroke-linecap:round;stroke-width:0.3499999940395355px"/><path id="Layer5_0_1_STROKES" data-name="Layer5 0 1 STROKES" d="M766.13,255.87q-1.43,1-1.42,5,14.17,19.69,35.51,12.76,20.38-6.54,26.92-30.16-8.5-17.4-31.8-11.49Q773,237.53,766.13,255.87Z" style="fill:none;stroke:#000;stroke-linecap:round;stroke-width:0.30000001192092896px"/><path id="Layer4_0_1_STROKES" data-name="Layer4 0 1 STROKES" d="M632.52,270.28l2.52-2a5.53,5.53,0,0,1,3.39,2.37,3.93,3.93,0,0,1,.63,3.93q-1.42,3.54-4.89,1.26Q630.48,273.27,632.52,270.28Z" style="fill:none;stroke:#000;stroke-linecap:round;stroke-width:0.30000001192092896px"/><path id="Layer3_0_1_STROKES" data-name="Layer3 0 1 STROKES" d="M834.23,481.28a3.29,3.29,0,0,0-2,3.94q2,3.61,7.4,2.91a9.13,9.13,0,0,0,7.32-3.94v-2.6a7,7,0,0,0-4.49-2.59l-5.43-.71Z" style="fill:none;stroke:#000;stroke-linecap:round;stroke-width:0.4000000059604645px"/><path id="Layer2_0_1_STROKES" data-name="Layer2 0 1 STROKES" d="M488.05,541a3,3,0,0,1-2.83-2.29,7.53,7.53,0,0,1-.32-4.56q7.17-8.58,19.37-10.55,13.31-2,18.66,8.19-4.8,8.26-15.83,10.55Q496.55,544.9,488.05,541Z" style="fill:none;stroke:#000;stroke-linecap:round;stroke-width:0.3499999940395355px"/><path id="Layer1_0_1_STROKES" data-name="Layer1 0 1 STROKES" d="M290.59,559.3q-2.28-4.56,3.39-6.85,5.36-2.28,9.37-.63Q304.76,559.3,290.59,559.3Z" style="fill:none;stroke:#000;stroke-linecap:round;stroke-width:0.4000000059604645px"/><path id="Layer0_0_1_STROKES" data-name="Layer0 0 1 STROKES" d="M462.23,828.32l-2-2.59a8.07,8.07,0,0,1,1.73-5.59,6,6,0,0,1,3.94-3c.36,1.11,1.41,2.1,3.15,3a7.25,7.25,0,0,1,2.83,2.59,11.11,11.11,0,0,1,.24,5.59Q466.24,831.64,462.23,828.32Z" style="fill:none;stroke:#000;stroke-linecap:round;stroke-width:0.4000000059604645px"/></g></g></svg>