<svg xmlns="http://www.w3.org/2000/svg" xmlns:xlink="http://www.w3.org/1999/xlink" viewBox="0 0 14.01 14.07"><defs><linearGradient id="Gradiente_sem_nome" x1="-819.2" y1="7" x2="819.2" y2="7" gradientTransform="translate(-568.75 -482.67) rotate(-90) scale(0.01)" gradientUnits="userSpaceOnUse"><stop offset="0" stop-color="#ccc" stop-opacity="0.4"/><stop offset="1" stop-color="#fff" stop-opacity="0.6"/></linearGradient><linearGradient id="Gradiente_sem_nome_2" x1="-819.2" y1="7" x2="819.2" y2="7" gradientTransform="translate(-566.78 -482.77) rotate(-90) scale(0.01)" gradientUnits="userSpaceOnUse"><stop offset="0" stop-color="#5b5d5e"/><stop offset="1" stop-color="#b7babc"/></linearGradient><linearGradient id="Gradiente_sem_nome_3" x1="-819.2" y1="12" x2="819.2" y2="12" gradientTransform="matrix(1, 0, 0, -1, 0, 16)" gradientUnits="userSpaceOnUse"><stop offset="0" stop-color="#ccc" stop-opacity="0"/><stop offset="1" stop-color="#fff" stop-opacity="0.3"/></linearGradient><linearGradient id="Gradiente_sem_nome-2" x1="-819.2" y1="7" x2="819.2" y2="7" xlink:href="#Gradiente_sem_nome"/><linearGradient id="Gradiente_sem_nome_2-2" x1="-819.2" y1="7.07" x2="819.2" y2="7.07" xlink:href="#Gradiente_sem_nome_2"/><linearGradient id="Gradiente_sem_nome_3-2" x1="-819.2" y1="12" x2="819.2" y2="12" xlink:href="#Gradiente_sem_nome_3"/></defs><title>Ativo 2sele</title><g id="Camada_2" data-name="Camada 2"><g id="Camada_1-2" data-name="Camada 1"><g id="Camada_2-2" data-name="Camada 2"><g id="Camada_1-2-2" data-name="Camada 1-2"><g id="shape0"><path d="M11.25,11.25A5.75,5.75,0,0,1,7,13a5.77,5.77,0,0,1-4.25-1.75A5.79,5.79,0,0,1,1,7,5.72,5.72,0,0,1,2.5,3.05l.25-.3A5.81,5.81,0,0,1,7,1a5.79,5.79,0,0,1,4.25,1.75l.3.3A5.75,5.75,0,0,1,13,7a5.75,5.75,0,0,1-1.75,4.25" style="fill-rule:evenodd;fill:url(#Gradiente_sem_nome)"/><path d="M12.8,3.05A6.65,6.65,0,0,1,14,7a6.84,6.84,0,0,1-7,7,6.77,6.77,0,0,1-4.95-2A6.76,6.76,0,0,1,0,7,6.65,6.65,0,0,1,1.2,3.05l.85-1A6.74,6.74,0,0,1,7,0a6.76,6.76,0,0,1,5,2.05l.85,1m-1.55,8.2A5.74,5.74,0,0,0,13,7a5.75,5.75,0,0,0-1.45-3.95l-.3-.3A5.79,5.79,0,0,0,7,1,5.81,5.81,0,0,0,2.75,2.75l-.25.3A5.72,5.72,0,0,0,1,7a5.79,5.79,0,0,0,1.75,4.25A5.77,5.77,0,0,0,7,13a5.75,5.75,0,0,0,4.25-1.75" style="fill-rule:evenodd;fill:url(#Gradiente_sem_nome_2)"/><path d="M2.75,2.75A5.81,5.81,0,0,1,7,1a5.79,5.79,0,0,1,4.25,1.75l.3.3A5.75,5.75,0,0,1,13,7H1A5.72,5.72,0,0,1,2.5,3.05l.25-.3" style="fill-rule:evenodd;fill:url(#Gradiente_sem_nome_3)"/></g></g></g><g id="Camada_2-3" data-name="Camada 2"><g id="Camada_1-2-3" data-name="Camada 1-2"><g id="shape0-2" data-name="shape0"><path d="M11.25,11.25A5.75,5.75,0,0,1,7,13a5.78,5.78,0,0,1-4.25-1.75A5.79,5.79,0,0,1,1,7,5.72,5.72,0,0,1,2.5,3.05l.25-.3A5.82,5.82,0,0,1,7,1a5.79,5.79,0,0,1,4.25,1.75l.3.3A5.75,5.75,0,0,1,13,7a5.75,5.75,0,0,1-1.75,4.25" style="fill-rule:evenodd;fill:url(#Gradiente_sem_nome-2)"/><path d="M12.8,3.12a6.65,6.65,0,0,1,1.2,4,6.84,6.84,0,0,1-7,7,6.77,6.77,0,0,1-4.95-2,6.76,6.76,0,0,1-2-5A6.65,6.65,0,0,1,1.2,3.12l.85-1A6.74,6.74,0,0,1,7,.07a6.76,6.76,0,0,1,5,2.05l.85,1m-1.55,8.2A5.74,5.74,0,0,0,13,7.07a5.75,5.75,0,0,0-1.45-3.95l-.3-.3A5.75,5.75,0,0,0,7,1.07,5.77,5.77,0,0,0,2.75,2.82l-.25.3a5.72,5.72,0,0,0-1.5,4,5.79,5.79,0,0,0,1.75,4.25A5.77,5.77,0,0,0,7,13.07a5.75,5.75,0,0,0,4.25-1.75" style="fill-rule:evenodd;fill:url(#Gradiente_sem_nome_2-2)"/><path d="M2.75,2.75A5.82,5.82,0,0,1,7,1a5.79,5.79,0,0,1,4.25,1.75l.3.3A5.75,5.75,0,0,1,13,7H1A5.72,5.72,0,0,1,2.5,3.05l.25-.3" style="fill-rule:evenodd;fill:url(#Gradiente_sem_nome_3-2)"/></g></g></g></g></g></svg>