<svg xmlns="http://www.w3.org/2000/svg" xmlns:xlink="http://www.w3.org/1999/xlink" viewBox="0 0 14 14"><defs><linearGradient id="Gradiente_sem_nome" x1="-819.2" y1="7" x2="819.2" y2="7" gradientTransform="matrix(0, -0.01, -0.01, 0, -277.2, -237.9)" gradientUnits="userSpaceOnUse"><stop offset="0" stop-color="#5b5d5e"/><stop offset="1" stop-color="#b7babc"/></linearGradient><linearGradient id="Gradiente_sem_nome_2" x1="-819.2" y1="7" x2="819.2" y2="7" gradientTransform="matrix(0, -0.01, -0.01, 0, -279.17, -237.8)" gradientUnits="userSpaceOnUse"><stop offset="0" stop-color="#ccc" stop-opacity="0.4"/><stop offset="1" stop-color="#fff" stop-opacity="0.6"/></linearGradient><linearGradient id="Gradiente_sem_nome_3" x1="-819.2" y1="3.95" x2="819.2" y2="3.95" gradientTransform="matrix(0, 0, -0.01, 0, -279.22, -239.11)" gradientUnits="userSpaceOnUse"><stop offset="0" stop-color="#ccc" stop-opacity="0"/><stop offset="1" stop-color="#fff" stop-opacity="0.3"/></linearGradient></defs><title>Ativo 2teste</title><g id="Camada_2" data-name="Camada 2"><g id="Camada_1-2" data-name="Camada 1"><g id="shape0"><path d="M11.25,11.25A5.77,5.77,0,0,0,13,7a5.77,5.77,0,0,0-1.75-4.25A5.77,5.77,0,0,0,7,1,5.77,5.77,0,0,0,2.75,2.75,5.77,5.77,0,0,0,1,7a5.77,5.77,0,0,0,1.75,4.25A5.77,5.77,0,0,0,7,13a5.77,5.77,0,0,0,4.25-1.75m.7-9.2A6.74,6.74,0,0,1,14,7,6.74,6.74,0,0,1,12,12,6.74,6.74,0,0,1,7,14,6.74,6.74,0,0,1,2.05,12,6.74,6.74,0,0,1,0,7,6.74,6.74,0,0,1,2.05,2.05,6.74,6.74,0,0,1,7,0,6.74,6.74,0,0,1,12,2.05" style="fill-rule:evenodd;fill:url(#Gradiente_sem_nome)"/><path d="M11.25,11.25A5.77,5.77,0,0,1,7,13a5.77,5.77,0,0,1-4.25-1.75A5.77,5.77,0,0,1,1,7,5.77,5.77,0,0,1,2.75,2.75,5.77,5.77,0,0,1,7,1a5.77,5.77,0,0,1,4.25,1.75A5.77,5.77,0,0,1,13,7a5.77,5.77,0,0,1-1.75,4.25" style="fill-rule:evenodd;fill:url(#Gradiente_sem_nome_2)"/><path d="M2.75,2.7A5.77,5.77,0,0,1,7,1,5.77,5.77,0,0,1,11.25,2.7l.3.3A5.77,5.77,0,0,1,13,7H1A5.68,5.68,0,0,1,2.5,3l.25-.3" style="fill-rule:evenodd;fill:url(#Gradiente_sem_nome_3)"/></g><g id="sprite0"><g id="shape1"><path d="M7,9A1.77,1.77,0,0,1,5,7,1.77,1.77,0,0,1,7,5,1.77,1.77,0,0,1,9,7,1.77,1.77,0,0,1,7,9" style="fill:#333;fill-rule:evenodd"/></g></g></g></g></svg>