<svg xmlns="http://www.w3.org/2000/svg" viewBox="0 0 37.59 26.16"><title>Ativo 21</title><g id="Camada_2" data-name="Camada 2"><g id="Camada_1-2" data-name="Camada 1"><path d="M3.41.57H34.23a2.86,2.86,0,0,1,2.86,2.86V23.26a2.33,2.33,0,0,1-2.33,2.33H2.33A1.83,1.83,0,0,1,.5,23.76V3.48A2.91,2.91,0,0,1,3.41.57Z" style="fill:#5590e5"/><path d="M29.07,2.88H8A14.73,14.73,0,0,1,3.69,6.07s0,0-.07,0,0,0,0,0V20.65a2.82,2.82,0,0,0,2.82,2.82H27.7A7.26,7.26,0,0,0,35,16.21V8.77A5.89,5.89,0,0,0,29.07,2.88Z" style="fill:#2e5f99"/><g id="Symbol_228_0_Layer3_0_FILL" data-name="Symbol 228 0 Layer3 0 FILL"><path d="M5.09.42H2.63l-1,1.15L.73,2.89V6.74L1,15.12,1,23.85A2.67,2.67,0,0,0,3,25.57l3.45.17v-.23q-4.3-.63-4.56-7.46a5.05,5.05,0,0,1-.25-2.18V13.34a62.89,62.89,0,0,1,.2-7.7C2.25,2.66,3.32,1,5.09.71Z" style="fill:#1c3e93"/></g><rect x="0.5" y="0.5" width="36.59" height="25.16" rx="2.71" style="fill:none;stroke:#000;stroke-miterlimit:10;opacity:0.67"/><path d="M34.18,4.89,31.09,3.05a19.66,19.66,0,0,0-3.67-.13L22.05,3H22L9.38,3.06A.45.45,0,0,0,9,3.27l-2.13,0a.44.44,0,0,0-.71.13,29.74,29.74,0,0,0-2.8,9.28.53.53,0,0,0-.41.24L1.68,14.8a.45.45,0,0,0,.22.65c.23.14-.2.56,0,.33l1.32-1.41c0,.44-.06.88-.07,1.32a.49.49,0,0,0,.81.37,7.4,7.4,0,0,0,1.36,4.23,8.17,8.17,0,0,0,6,3.1c3.15.36,6.4.14,9.54.22l3.71,0a43,43,0,0,0,4.54,0,5.88,5.88,0,0,0,3.18-1.19,6.78,6.78,0,0,0,1.91-2.7A21.35,21.35,0,0,0,35.47,12C35.51,9.76,35.53,6.86,34.18,4.89ZM33.91,17c-.43,2-1.23,4.29-3.24,5.17a8.88,8.88,0,0,1-3.73.45l-4.11,0-8.36-.08c-2.56,0-5.53,0-7.53-1.88a6.32,6.32,0,0,1-1.82-6.25A.5.5,0,0,0,4.21,14a28.48,28.48,0,0,1,2.62-9.7,89,89,0,0,0,15-.3h0l5.62-.11a17.81,17.81,0,0,1,3.65.1c2.55.5,3.12,2.92,3.31,5.18A27.52,27.52,0,0,1,33.91,17Z" style="fill:#2e5f99"/></g></g></svg>