<?xml version="1.0" encoding="UTF-8" standalone="no"?>
<!DOCTYPE svg PUBLIC "-//W3C//DTD SVG 1.1//EN" "http://www.w3.org/Graphics/SVG/1.1/DTD/svg11.dtd">
<svg xmlns="http://www.w3.org/2000/svg" version="1.1" viewBox="0.00 0.00 59.00 58.00">
<g stroke-width="2.00" fill="none" stroke-linecap="butt">
<path stroke="#010101" stroke-opacity="0.576" vector-effect="non-scaling-stroke" d="
  M 47.69 11.34
  L 52.78 22.35"
/>
<path stroke="#010101" stroke-opacity="0.741" vector-effect="non-scaling-stroke" d="
  M 52.78 22.35
  C 55.22 38.94 38.38 56.61 21.44 52.81
  Q 18.41 52.13 11.77 48.52"
/>
<path stroke="#010101" stroke-opacity="0.576" vector-effect="non-scaling-stroke" d="
  M 11.77 48.52
  L 6.35 43.87"
/>
<path stroke="#362b27" vector-effect="non-scaling-stroke" d="
  M 2.69 17.75
  Q -2.97 36.25 12.21 47.30
  C 28.75 59.34 48.94 46.53 51.76 28.02
  Q 52.39 23.84 50.35 19.01"
/>
<path stroke="#524d4c" vector-effect="non-scaling-stroke" d="
  M 50.35 19.01
  C 42.41 -4.21 12.67 -3.65 2.69 17.75"
/>
<path stroke="#877772" vector-effect="non-scaling-stroke" d="
  M 50.35 19.01
  L 46.40 24.69"
/>
<path stroke="#95807e" vector-effect="non-scaling-stroke" d="
  M 46.40 24.69
  C 44.22 15.52 34.86 3.96 24.18 6.61"
/>
<path stroke="#88807d" vector-effect="non-scaling-stroke" d="
  M 24.18 6.61
  Q 19.00 6.94 13.26 10.41
  Q 11.11 11.72 13.11 13.25
  Q 14.43 14.27 15.15 16.47"
/>
<path stroke="#61504e" vector-effect="non-scaling-stroke" d="
  M 15.15 16.47
  Q 14.99 16.87 14.66 17.15"
/>
<path stroke="#95807e" vector-effect="non-scaling-stroke" d="
  M 14.66 17.15
  Q 12.29 16.08 10.90 13.84
  A 0.46 0.46 0.0 0 0 10.08 14.23
  Q 10.68 15.96 12.14 17.02
  Q 12.54 17.32 12.72 17.79
  L 12.92 18.33
  A 0.70 0.70 0.0 0 1 11.94 19.19
  L 8.57 17.43
  A 0.46 0.46 0.0 0 0 7.92 17.99
  Q 8.81 20.43 11.52 19.94
  A 0.47 0.47 0.0 0 1 12.03 20.59
  L 11.41 21.99
  A 0.67 0.66 -71.9 0 1 10.67 22.37
  L 7.90 21.76
  Q 7.39 21.64 7.57 22.13
  L 7.74 22.58
  Q 7.89 23.00 8.34 23.00
  L 10.51 23.00
  Q 11.06 23.00 11.02 23.56
  Q 10.83 25.69 8.27 25.72"
/>
<path stroke="#61504e" vector-effect="non-scaling-stroke" d="
  M 8.27 25.72
  L 6.37 24.17"
/>
<path stroke="#877772" vector-effect="non-scaling-stroke" d="
  M 6.37 24.17
  L 2.69 17.75"
/>
<path stroke="#452e29" vector-effect="non-scaling-stroke" d="
  M 6.37 24.17
  Q 6.45 26.58 8.76 27.31"
/>
<path stroke="#5f463d" vector-effect="non-scaling-stroke" d="
  M 8.04 29.80
  Q 8.96 30.85 8.08 32.18
  Q 7.77 32.66 8.30 32.88
  Q 9.03 33.17 9.34 33.95
  Q 9.53 34.44 9.24 34.88
  L 8.50 35.98
  A 0.50 0.50 0.0 0 0 9.00 36.75
  L 10.26 36.52
  A 0.70 0.69 -19.3 0 1 11.00 36.87
  Q 14.98 44.19 23.35 45.39
  A 0.79 0.79 0.0 0 0 24.19 44.32
  Q 23.28 42.03 25.37 42.17"
/>
<path stroke="#672e28" vector-effect="non-scaling-stroke" d="
  M 25.37 42.17
  Q 24.85 44.98 26.27 46.04
  A 0.55 0.55 0.0 0 0 27.15 45.56
  L 26.95 42.37
  A 0.77 0.77 0.0 0 1 28.48 42.21
  Q 28.80 44.42 30.37 45.99
  A 0.32 0.32 0.0 0 0 30.92 45.72
  Q 30.69 44.08 29.84 42.59
  Q 29.57 42.12 29.90 41.69
  Q 30.37 41.09 31.17 41.28
  Q 31.73 41.41 31.85 41.98
  Q 32.25 43.86 33.93 44.75
  A 0.63 0.63 0.0 0 0 34.59 43.67
  Q 33.23 42.71 33.00 40.91
  A 0.89 0.88 -58.7 0 1 34.71 40.49
  Q 35.49 42.64 37.64 43.02
  A 0.50 0.50 0.0 0 0 38.04 42.14
  Q 36.22 40.73 35.03 38.39"
/>
<path stroke="#785e5a" vector-effect="non-scaling-stroke" d="
  M 46.40 24.69
  Q 46.28 24.75 46.21 25.23"
/>
<path stroke="#533736" vector-effect="non-scaling-stroke" d="
  M 46.21 25.23
  L 44.49 26.92
  A 0.39 0.38 -43.3 0 0 44.47 27.45
  Q 45.24 28.31 45.17 29.34
  Q 45.13 29.98 44.51 29.82
  Q 40.68 28.80 38.00 31.76
  A 0.61 0.61 0.0 0 1 37.09 31.76
  L 32.51 26.73
  Q 32.08 26.26 32.47 25.76
  L 38.64 17.96"
/>
<path stroke="#95807e" vector-effect="non-scaling-stroke" d="
  M 38.64 17.96
  Q 41.62 20.51 41.46 25.29
  A 1.65 1.65 0.0 0 0 44.63 25.99
  C 47.38 19.51 36.34 10.56 31.46 8.41
  Q 30.96 8.19 30.63 8.63
  Q 29.91 9.58 29.98 11.60"
/>
<path stroke="#796765" vector-effect="non-scaling-stroke" d="
  M 29.98 11.60
  L 28.75 11.46"
/>
<path stroke="#95807e" vector-effect="non-scaling-stroke" d="
  M 28.75 11.46
  C 30.21 9.62 29.23 5.96 26.69 7.79
  Q 26.27 8.09 26.46 8.57
  L 27.50 11.21"
/>
<path stroke="#796765" vector-effect="non-scaling-stroke" d="
  M 27.50 11.21
  L 25.47 11.52"
/>
<path stroke="#95807e" vector-effect="non-scaling-stroke" d="
  M 25.47 11.52
  Q 26.90 7.49 24.28 7.21"
/>
<path stroke="#796765" vector-effect="non-scaling-stroke" d="
  M 24.28 7.21
  L 24.18 6.61"
/>
<path stroke="#533736" vector-effect="non-scaling-stroke" d="
  M 14.66 17.15
  C 13.29 19.25 18.75 24.08 20.06 25.87
  Q 20.41 26.35 20.02 26.80
  L 15.91 31.52
  Q 15.60 31.87 15.21 31.61
  L 9.63 27.92"
/>
<path stroke="#785e5a" vector-effect="non-scaling-stroke" d="
  M 9.63 27.92
  L 8.76 27.31"
/>
<path stroke="#533736" vector-effect="non-scaling-stroke" d="
  M 8.76 27.31
  Q 8.73 26.49 8.27 25.72"
/>
<path stroke="#88807d" vector-effect="non-scaling-stroke" d="
  M 24.28 7.21
  Q 24.08 7.22 23.92 7.28
  Q 23.39 7.49 23.58 8.03
  L 24.69 11.17
  Q 24.81 11.51 25.17 11.52
  L 25.47 11.52"
/>
<path stroke="#88807d" vector-effect="non-scaling-stroke" d="
  M 27.50 11.21
  Q 28.01 11.66 28.75 11.46"
/>
<path stroke="#88807d" vector-effect="non-scaling-stroke" d="
  M 29.98 11.60
  Q 34.40 12.72 36.83 15.93"
/>
<path stroke="#463734" vector-effect="non-scaling-stroke" d="
  M 36.83 15.93
  C 32.93 16.05 29.39 14.86 27.10 18.85
  A 0.80 0.80 0.0 0 1 25.79 18.97
  L 23.80 16.63
  A 1.25 1.23 73.7 0 0 23.05 16.21
  Q 18.90 15.57 15.15 16.47"
/>
<path stroke="#452e29" vector-effect="non-scaling-stroke" d="
  M 46.21 25.23
  L 46.09 30.62
  Q 46.08 31.11 45.59 31.09
  L 41.64 30.97
  A 0.74 0.74 0.0 0 0 41.51 32.44
  Q 43.71 32.77 44.77 34.72
  A 0.42 0.42 0.0 0 1 44.25 35.31
  Q 42.38 34.59 40.67 33.52
  A 0.54 0.54 0.0 0 0 39.95 33.65
  L 39.45 34.32
  Q 38.97 34.97 39.68 35.34
  C 40.54 35.79 43.27 36.62 42.96 37.97
  Q 42.83 38.55 42.31 38.27
  L 39.00 36.46
  A 0.89 0.89 0.0 0 0 38.05 37.96
  Q 39.23 38.82 40.82 40.04
  A 0.41 0.41 0.0 0 1 40.41 40.74
  L 35.03 38.39"
/>
<path stroke="#410704" vector-effect="non-scaling-stroke" d="
  M 35.03 38.39
  L 29.78 37.23
  Q 29.34 37.13 29.09 36.76
  L 27.21 33.92
  A 1.11 1.11 0.0 0 0 25.28 34.06
  Q 23.27 38.40 15.75 37.51"
/>
<path stroke="#3a1f19" vector-effect="non-scaling-stroke" d="
  M 15.75 37.51
  Q 13.48 35.04 11.23 29.70
  Q 10.99 29.13 10.38 29.26
  L 8.04 29.80"
/>
<path stroke="#452e29" vector-effect="non-scaling-stroke" d="
  M 8.04 29.80
  Q 7.37 29.58 7.04 29.21
  Q 6.59 28.72 7.24 28.55
  L 9.63 27.92"
/>
<path stroke="#5c1f17" vector-effect="non-scaling-stroke" d="
  M 15.75 37.51
  Q 20.40 41.75 25.37 42.17"
/>
<path stroke="#61504e" vector-effect="non-scaling-stroke" d="
  M 38.64 17.96
  L 36.83 15.93"
/>
<path stroke="#88807d" vector-effect="non-scaling-stroke" d="
  M 20.20 8.49
  L 21.19 11.63
  A 0.44 0.44 0.0 0 0 21.74 11.92
  L 22.02 11.83
  A 1.90 1.59 72.5 0 0 22.96 9.54
  L 22.85 9.18
  A 1.90 1.59 72.5 0 0 20.76 7.85
  L 20.48 7.93
  A 0.44 0.44 0.0 0 0 20.20 8.49"
/>
<path stroke="#88807d" vector-effect="non-scaling-stroke" d="
  M 19.01 8.71
  L 17.32 9.26
  A 0.16 0.16 0.0 0 0 17.22 9.46
  L 17.41 10.05
  A 3.36 0.80 71.9 0 0 19.22 13.00
  L 19.69 12.84
  A 3.36 0.80 71.9 0 0 19.41 9.40
  L 19.21 8.81
  A 0.16 0.16 0.0 0 0 19.01 8.71"
/>
<path stroke="#88807d" vector-effect="non-scaling-stroke" d="
  M 14.69 10.94
  Q 14.39 10.97 14.23 11.12
  Q 13.83 11.48 14.18 11.90
  C 14.75 12.55 16.27 15.38 17.26 14.13
  Q 17.57 13.73 17.29 13.30
  L 15.61 10.71
  A 0.54 0.53 65.3 0 0 15.00 10.48
  Q 14.67 10.58 14.69 10.94"
/>
<path stroke="#8d7253" vector-effect="non-scaling-stroke" d="
  M 26.11 22.25
  Q 24.27 20.43 22.73 18.41
  Q 22.42 18.00 21.91 18.00
  L 17.03 18.00
  Q 15.99 18.00 16.66 18.79
  L 22.62 25.85
  A 0.58 0.57 -45.4 0 1 22.62 26.60
  L 15.66 34.70
  A 0.39 0.39 0.0 0 0 15.96 35.35
  L 20.95 35.36
  Q 21.50 35.36 21.87 34.95
  L 25.80 30.46
  Q 26.22 29.98 26.64 30.46
  L 30.38 34.77
  Q 30.73 35.17 31.26 35.19
  L 36.28 35.37
  A 0.50 0.50 0.0 0 0 36.67 34.54
  L 29.84 26.63
  Q 29.48 26.22 29.84 25.81
  L 35.95 18.71
  Q 36.25 18.36 35.80 18.23
  Q 29.64 16.56 27.00 22.09
  A 0.56 0.55 -54.9 0 1 26.11 22.25"
/>
</g>
<path fill="#010101" fill-opacity="0.996" d="
  M 47.69 11.34
  L 52.78 22.35
  C 55.22 38.94 38.38 56.61 21.44 52.81
  Q 18.41 52.13 11.77 48.52
  L 6.35 43.87
  Q 0.51 36.63 0.00 27.48
  L 0.00 24.91
  C 2.78 -0.24 32.16 -8.64 47.69 11.34
  Z
  M 2.69 17.75
  Q -2.97 36.25 12.21 47.30
  C 28.75 59.34 48.94 46.53 51.76 28.02
  Q 52.39 23.84 50.35 19.01
  C 42.41 -4.21 12.67 -3.65 2.69 17.75
  Z"
/>
<path fill="#a39996" d="
  M 50.35 19.01
  L 46.40 24.69
  C 44.22 15.52 34.86 3.96 24.18 6.61
  Q 19.00 6.94 13.26 10.41
  Q 11.11 11.72 13.11 13.25
  Q 14.43 14.27 15.15 16.47
  Q 14.99 16.87 14.66 17.15
  Q 12.29 16.08 10.90 13.84
  A 0.46 0.46 0.0 0 0 10.08 14.23
  Q 10.68 15.96 12.14 17.02
  Q 12.54 17.32 12.72 17.79
  L 12.92 18.33
  A 0.70 0.70 0.0 0 1 11.94 19.19
  L 8.57 17.43
  A 0.46 0.46 0.0 0 0 7.92 17.99
  Q 8.81 20.43 11.52 19.94
  A 0.47 0.47 0.0 0 1 12.03 20.59
  L 11.41 21.99
  A 0.67 0.66 -71.9 0 1 10.67 22.37
  L 7.90 21.76
  Q 7.39 21.64 7.57 22.13
  L 7.74 22.58
  Q 7.89 23.00 8.34 23.00
  L 10.51 23.00
  Q 11.06 23.00 11.02 23.56
  Q 10.83 25.69 8.27 25.72
  L 6.37 24.17
  L 2.69 17.75
  C 12.67 -3.65 42.41 -4.21 50.35 19.01
  Z"
/>
<path fill="#866766" d="
  M 46.40 24.69
  Q 46.28 24.75 46.21 25.23
  L 44.49 26.92
  A 0.39 0.38 -43.3 0 0 44.47 27.45
  Q 45.24 28.31 45.17 29.34
  Q 45.13 29.98 44.51 29.82
  Q 40.68 28.80 38.00 31.76
  A 0.61 0.61 0.0 0 1 37.09 31.76
  L 32.51 26.73
  Q 32.08 26.26 32.47 25.76
  L 38.64 17.96
  Q 41.62 20.51 41.46 25.29
  A 1.65 1.65 0.0 0 0 44.63 25.99
  C 47.38 19.51 36.34 10.56 31.46 8.41
  Q 30.96 8.19 30.63 8.63
  Q 29.91 9.58 29.98 11.60
  L 28.75 11.46
  C 30.21 9.62 29.23 5.96 26.69 7.79
  Q 26.27 8.09 26.46 8.57
  L 27.50 11.21
  L 25.47 11.52
  Q 26.90 7.49 24.28 7.21
  L 24.18 6.61
  C 34.86 3.96 44.22 15.52 46.40 24.69
  Z"
/>
<path fill="#6c6663" d="
  M 24.18 6.61
  L 24.28 7.21
  Q 24.08 7.22 23.92 7.28
  Q 23.39 7.49 23.58 8.03
  L 24.69 11.17
  Q 24.81 11.51 25.17 11.52
  L 25.47 11.52
  L 27.50 11.21
  Q 28.01 11.66 28.75 11.46
  L 29.98 11.60
  Q 34.40 12.72 36.83 15.93
  C 32.93 16.05 29.39 14.86 27.10 18.85
  A 0.80 0.80 0.0 0 1 25.79 18.97
  L 23.80 16.63
  A 1.25 1.23 73.7 0 0 23.05 16.21
  Q 18.90 15.57 15.15 16.47
  Q 14.43 14.27 13.11 13.25
  Q 11.11 11.72 13.26 10.41
  Q 19.00 6.94 24.18 6.61
  Z
  M 20.20 8.49
  L 21.19 11.63
  A 0.44 0.44 0.0 0 0 21.74 11.92
  L 22.02 11.83
  A 1.90 1.59 72.5 0 0 22.96 9.54
  L 22.85 9.18
  A 1.90 1.59 72.5 0 0 20.76 7.85
  L 20.48 7.93
  A 0.44 0.44 0.0 0 0 20.20 8.49
  Z
  M 19.01 8.71
  L 17.32 9.26
  A 0.16 0.16 0.0 0 0 17.22 9.46
  L 17.41 10.05
  A 3.36 0.80 71.9 0 0 19.22 13.00
  L 19.69 12.84
  A 3.36 0.80 71.9 0 0 19.41 9.40
  L 19.21 8.81
  A 0.16 0.16 0.0 0 0 19.01 8.71
  Z
  M 14.69 10.94
  Q 14.39 10.97 14.23 11.12
  Q 13.83 11.48 14.18 11.90
  C 14.75 12.55 16.27 15.38 17.26 14.13
  Q 17.57 13.73 17.29 13.30
  L 15.61 10.71
  A 0.54 0.53 65.3 0 0 15.00 10.48
  Q 14.67 10.58 14.69 10.94
  Z"
/>
<path fill="#a39996" d="
  M 24.28 7.21
  Q 26.90 7.49 25.47 11.52
  L 25.17 11.52
  Q 24.81 11.51 24.69 11.17
  L 23.58 8.03
  Q 23.39 7.49 23.92 7.28
  Q 24.08 7.22 24.28 7.21
  Z"
/>
<path fill="#a39996" d="
  M 28.75 11.46
  Q 28.01 11.66 27.50 11.21
  L 26.46 8.57
  Q 26.27 8.09 26.69 7.79
  C 29.23 5.96 30.21 9.62 28.75 11.46
  Z"
/>
<path fill="#a39996" d="
  M 20.20 8.49
  A 0.44 0.44 0.0 0 1 20.48 7.93
  L 20.76 7.85
  A 1.90 1.59 72.5 0 1 22.85 9.18
  L 22.96 9.54
  A 1.90 1.59 72.5 0 1 22.02 11.83
  L 21.74 11.92
  A 0.44 0.44 0.0 0 1 21.19 11.63
  L 20.20 8.49
  Z"
/>
<path fill="#a39996" d="
  M 38.64 17.96
  L 36.83 15.93
  Q 34.40 12.72 29.98 11.60
  Q 29.91 9.58 30.63 8.63
  Q 30.96 8.19 31.46 8.41
  C 36.34 10.56 47.38 19.51 44.63 25.99
  A 1.65 1.65 0.0 0 1 41.46 25.29
  Q 41.62 20.51 38.64 17.96
  Z"
/>
<path fill="#a39996" d="
  M 19.01 8.71
  A 0.16 0.16 0.0 0 1 19.21 8.81
  L 19.41 9.40
  A 3.36 0.80 71.9 0 1 19.69 12.84
  L 19.22 13.00
  A 3.36 0.80 71.9 0 1 17.41 10.05
  L 17.22 9.46
  A 0.16 0.16 0.0 0 1 17.32 9.26
  L 19.01 8.71
  Z"
/>
<path fill="#a39996" d="
  M 14.69 10.94
  Q 14.67 10.58 15.00 10.48
  A 0.54 0.53 65.3 0 1 15.61 10.71
  L 17.29 13.30
  Q 17.57 13.73 17.26 14.13
  C 16.27 15.38 14.75 12.55 14.18 11.90
  Q 13.83 11.48 14.23 11.12
  Q 14.39 10.97 14.69 10.94
  Z"
/>
<path fill="#010101" fill-opacity="0.153" d="
  M 47.69 11.34
  Q 51.39 12.09 53.20 16.27
  C 59.63 31.11 57.95 43.86 44.27 53.49
  C 35.78 59.47 22.34 57.36 13.64 52.89
  Q 7.32 49.64 6.35 43.87
  L 11.77 48.52
  Q 12.01 49.46 13.19 49.74
  Q 13.99 49.93 13.28 50.35
  L 12.95 50.54
  Q 12.52 50.80 12.94 51.07
  Q 19.60 55.51 27.36 56.34
  C 36.13 57.27 47.07 51.87 52.03 44.56
  C 54.65 40.69 58.42 31.07 55.82 26.27
  Q 55.40 25.50 55.59 26.35
  Q 57.13 33.09 53.90 38.99
  Q 53.40 39.89 53.64 38.89
  Q 55.60 30.42 52.78 22.35
  L 47.69 11.34
  Z"
/>
<path fill="#866766" d="
  M 14.66 17.15
  C 13.29 19.25 18.75 24.08 20.06 25.87
  Q 20.41 26.35 20.02 26.80
  L 15.91 31.52
  Q 15.60 31.87 15.21 31.61
  L 9.63 27.92
  L 8.76 27.31
  Q 8.73 26.49 8.27 25.72
  Q 10.83 25.69 11.02 23.56
  Q 11.06 23.00 10.51 23.00
  L 8.34 23.00
  Q 7.89 23.00 7.74 22.58
  L 7.57 22.13
  Q 7.39 21.64 7.90 21.76
  L 10.67 22.37
  A 0.67 0.66 -71.9 0 0 11.41 21.99
  L 12.03 20.59
  A 0.47 0.47 0.0 0 0 11.52 19.94
  Q 8.81 20.43 7.92 17.99
  A 0.46 0.46 0.0 0 1 8.57 17.43
  L 11.94 19.19
  A 0.70 0.70 0.0 0 0 12.92 18.33
  L 12.72 17.79
  Q 12.54 17.32 12.14 17.02
  Q 10.68 15.96 10.08 14.23
  A 0.46 0.46 0.0 0 1 10.90 13.84
  Q 12.29 16.08 14.66 17.15
  Z"
/>
<path fill="#1f0705" d="
  M 36.83 15.93
  L 38.64 17.96
  L 32.47 25.76
  Q 32.08 26.26 32.51 26.73
  L 37.09 31.76
  A 0.61 0.61 0.0 0 0 38.00 31.76
  Q 40.68 28.80 44.51 29.82
  Q 45.13 29.98 45.17 29.34
  Q 45.24 28.31 44.47 27.45
  A 0.39 0.38 -43.3 0 1 44.49 26.92
  L 46.21 25.23
  L 46.09 30.62
  Q 46.08 31.11 45.59 31.09
  L 41.64 30.97
  A 0.74 0.74 0.0 0 0 41.51 32.44
  Q 43.71 32.77 44.77 34.72
  A 0.42 0.42 0.0 0 1 44.25 35.31
  Q 42.38 34.59 40.67 33.52
  A 0.54 0.54 0.0 0 0 39.95 33.65
  L 39.45 34.32
  Q 38.97 34.97 39.68 35.34
  C 40.54 35.79 43.27 36.62 42.96 37.97
  Q 42.83 38.55 42.31 38.27
  L 39.00 36.46
  A 0.89 0.89 0.0 0 0 38.05 37.96
  Q 39.23 38.82 40.82 40.04
  A 0.41 0.41 0.0 0 1 40.41 40.74
  L 35.03 38.39
  L 29.78 37.23
  Q 29.34 37.13 29.09 36.76
  L 27.21 33.92
  A 1.11 1.11 0.0 0 0 25.28 34.06
  Q 23.27 38.40 15.75 37.51
  Q 13.48 35.04 11.23 29.70
  Q 10.99 29.13 10.38 29.26
  L 8.04 29.80
  Q 7.37 29.58 7.04 29.21
  Q 6.59 28.72 7.24 28.55
  L 9.63 27.92
  L 15.21 31.61
  Q 15.60 31.87 15.91 31.52
  L 20.02 26.80
  Q 20.41 26.35 20.06 25.87
  C 18.75 24.08 13.29 19.25 14.66 17.15
  Q 14.99 16.87 15.15 16.47
  Q 18.90 15.57 23.05 16.21
  A 1.25 1.23 73.7 0 1 23.80 16.63
  L 25.79 18.97
  A 0.80 0.80 0.0 0 0 27.10 18.85
  C 29.39 14.86 32.93 16.05 36.83 15.93
  Z
  M 26.11 22.25
  Q 24.27 20.43 22.73 18.41
  Q 22.42 18.00 21.91 18.00
  L 17.03 18.00
  Q 15.99 18.00 16.66 18.79
  L 22.62 25.85
  A 0.58 0.57 -45.4 0 1 22.62 26.60
  L 15.66 34.70
  A 0.39 0.39 0.0 0 0 15.96 35.35
  L 20.95 35.36
  Q 21.50 35.36 21.87 34.95
  L 25.80 30.46
  Q 26.22 29.98 26.64 30.46
  L 30.38 34.77
  Q 30.73 35.17 31.26 35.19
  L 36.28 35.37
  A 0.50 0.50 0.0 0 0 36.67 34.54
  L 29.84 26.63
  Q 29.48 26.22 29.84 25.81
  L 35.95 18.71
  Q 36.25 18.36 35.80 18.23
  Q 29.64 16.56 27.00 22.09
  A 0.56 0.55 -54.9 0 1 26.11 22.25
  Z"
/>
<path fill="#6a554d" d="
  M 2.69 17.75
  L 6.37 24.17
  Q 6.45 26.58 8.76 27.31
  L 9.63 27.92
  L 7.24 28.55
  Q 6.59 28.72 7.04 29.21
  Q 7.37 29.58 8.04 29.80
  Q 8.96 30.85 8.08 32.18
  Q 7.77 32.66 8.30 32.88
  Q 9.03 33.17 9.34 33.95
  Q 9.53 34.44 9.24 34.88
  L 8.50 35.98
  A 0.50 0.50 0.0 0 0 9.00 36.75
  L 10.26 36.52
  A 0.70 0.69 -19.3 0 1 11.00 36.87
  Q 14.98 44.19 23.35 45.39
  A 0.79 0.79 0.0 0 0 24.19 44.32
  Q 23.28 42.03 25.37 42.17
  Q 24.85 44.98 26.27 46.04
  A 0.55 0.55 0.0 0 0 27.15 45.56
  L 26.95 42.37
  A 0.77 0.77 0.0 0 1 28.48 42.21
  Q 28.80 44.42 30.37 45.99
  A 0.32 0.32 0.0 0 0 30.92 45.72
  Q 30.69 44.08 29.84 42.59
  Q 29.57 42.12 29.90 41.69
  Q 30.37 41.09 31.17 41.28
  Q 31.73 41.41 31.85 41.98
  Q 32.25 43.86 33.93 44.75
  A 0.63 0.63 0.0 0 0 34.59 43.67
  Q 33.23 42.71 33.00 40.91
  A 0.89 0.88 -58.7 0 1 34.71 40.49
  Q 35.49 42.64 37.64 43.02
  A 0.50 0.50 0.0 0 0 38.04 42.14
  Q 36.22 40.73 35.03 38.39
  L 40.41 40.74
  A 0.41 0.41 0.0 0 0 40.82 40.04
  Q 39.23 38.82 38.05 37.96
  A 0.89 0.89 0.0 0 1 39.00 36.46
  L 42.31 38.27
  Q 42.83 38.55 42.96 37.97
  C 43.27 36.62 40.54 35.79 39.68 35.34
  Q 38.97 34.97 39.45 34.32
  L 39.95 33.65
  A 0.54 0.54 0.0 0 1 40.67 33.52
  Q 42.38 34.59 44.25 35.31
  A 0.42 0.42 0.0 0 0 44.77 34.72
  Q 43.71 32.77 41.51 32.44
  A 0.74 0.74 0.0 0 1 41.64 30.97
  L 45.59 31.09
  Q 46.08 31.11 46.09 30.62
  L 46.21 25.23
  Q 46.28 24.75 46.40 24.69
  L 50.35 19.01
  Q 52.39 23.84 51.76 28.02
  C 48.94 46.53 28.75 59.34 12.21 47.30
  Q -2.97 36.25 2.69 17.75
  Z"
/>
<path fill="#fbdca0" d="
  M 27.00 22.09
  Q 29.64 16.56 35.80 18.23
  Q 36.25 18.36 35.95 18.71
  L 29.84 25.81
  Q 29.48 26.22 29.84 26.63
  L 36.67 34.54
  A 0.50 0.50 0.0 0 1 36.28 35.37
  L 31.26 35.19
  Q 30.73 35.17 30.38 34.77
  L 26.64 30.46
  Q 26.22 29.98 25.80 30.46
  L 21.87 34.95
  Q 21.50 35.36 20.95 35.36
  L 15.96 35.35
  A 0.39 0.39 0.0 0 1 15.66 34.70
  L 22.62 26.60
  A 0.58 0.57 -45.4 0 0 22.62 25.85
  L 16.66 18.79
  Q 15.99 18.00 17.03 18.00
  L 21.91 18.00
  Q 22.42 18.00 22.73 18.41
  Q 24.27 20.43 26.11 22.25
  A 0.56 0.55 -54.9 0 0 27.00 22.09
  Z"
/>
<path fill="#010102" fill-opacity="0.482" d="
  M 52.78 22.35
  Q 55.60 30.42 53.64 38.89
  Q 53.40 39.89 53.90 38.99
  Q 57.13 33.09 55.59 26.35
  Q 55.40 25.50 55.82 26.27
  C 58.42 31.07 54.65 40.69 52.03 44.56
  C 47.07 51.87 36.13 57.27 27.36 56.34
  Q 19.60 55.51 12.94 51.07
  Q 12.52 50.80 12.95 50.54
  L 13.28 50.35
  Q 13.99 49.93 13.19 49.74
  Q 12.01 49.46 11.77 48.52
  Q 18.41 52.13 21.44 52.81
  C 38.38 56.61 55.22 38.94 52.78 22.35
  Z"
/>
<path fill="#1f0705" d="
  M 6.37 24.17
  L 8.27 25.72
  Q 8.73 26.49 8.76 27.31
  Q 6.45 26.58 6.37 24.17
  Z"
/>
<path fill="#54362c" d="
  M 15.75 37.51
  Q 20.40 41.75 25.37 42.17
  Q 23.28 42.03 24.19 44.32
  A 0.79 0.79 0.0 0 1 23.35 45.39
  Q 14.98 44.19 11.00 36.87
  A 0.70 0.69 -19.3 0 0 10.26 36.52
  L 9.00 36.75
  A 0.50 0.50 0.0 0 1 8.50 35.98
  L 9.24 34.88
  Q 9.53 34.44 9.34 33.95
  Q 9.03 33.17 8.30 32.88
  Q 7.77 32.66 8.08 32.18
  Q 8.96 30.85 8.04 29.80
  L 10.38 29.26
  Q 10.99 29.13 11.23 29.70
  Q 13.48 35.04 15.75 37.51
  Z"
/>
<path fill="#630702" d="
  M 35.03 38.39
  Q 36.22 40.73 38.04 42.14
  A 0.50 0.50 0.0 0 1 37.64 43.02
  Q 35.49 42.64 34.71 40.49
  A 0.89 0.88 -58.7 0 0 33.00 40.91
  Q 33.23 42.71 34.59 43.67
  A 0.63 0.63 0.0 0 1 33.93 44.75
  Q 32.25 43.86 31.85 41.98
  Q 31.73 41.41 31.17 41.28
  Q 30.37 41.09 29.90 41.69
  Q 29.57 42.12 29.84 42.59
  Q 30.69 44.08 30.92 45.72
  A 0.32 0.32 0.0 0 1 30.37 45.99
  Q 28.80 44.42 28.48 42.21
  A 0.77 0.77 0.0 0 0 26.95 42.37
  L 27.15 45.56
  A 0.55 0.55 0.0 0 1 26.27 46.04
  Q 24.85 44.98 25.37 42.17
  Q 20.40 41.75 15.75 37.51
  Q 23.27 38.40 25.28 34.06
  A 1.11 1.11 0.0 0 1 27.21 33.92
  L 29.09 36.76
  Q 29.34 37.13 29.78 37.23
  L 35.03 38.39
  Z"
/>
</svg>
