<?xml version="1.0" encoding="utf-8"?>
<!-- Generator: Adobe Illustrator 24.0.1, SVG Export Plug-In . SVG Version: 6.00 Build 0)  -->
<svg version="1.1" id="Camada_1" xmlns="http://www.w3.org/2000/svg" xmlns:xlink="http://www.w3.org/1999/xlink" x="0px" y="0px"
	 viewBox="0 0 13 13" style="enable-background:new 0 0 13 13;" xml:space="preserve">
<style type="text/css">
	.st0{fill:#FFFFFF;}
</style>
<g>
	<path id="path839" class="st0" d="M1.9,1.4c-0.1,0-0.2,0.1-0.3,0.1c-0.2,0.2-0.2,0.5,0,0.7c0,0,0,0,0,0l4.2,4.2l-4.2,4.2
		c-0.2,0.2-0.2,0.5,0,0.7c0,0,0,0,0,0c0.2,0.2,0.5,0.2,0.7,0c0,0,0,0,0,0l4.2-4.2l4.2,4.2c0.2,0.2,0.5,0.2,0.7,0c0,0,0,0,0,0
		c0.2-0.2,0.2-0.5,0-0.7c0,0,0,0,0,0L7.2,6.5l4.2-4.2c0.2-0.2,0.2-0.5,0-0.7c0,0,0,0,0,0c-0.2-0.2-0.5-0.2-0.7,0c0,0,0,0,0,0
		L6.5,5.8L2.3,1.6C2.2,1.5,2.1,1.4,1.9,1.4z"/>
</g>
</svg>
