<svg xmlns="http://www.w3.org/2000/svg" viewBox="0 0 167 45.12"><title>Ativo 2Criar</title><g id="Camada_2" data-name="Camada 2"><g id="Camada_1-2" data-name="Camada 1"><g id="create_btn" data-name="create btn"><g id="button0"><g id="sprite2"><g id="shape2"><path d="M125.73,3.24Q91.1,3,83.84,3.11L43.26,3q-25-.19-37,1.69L4.81,7.39a5.48,5.48,0,0,0-.39,3.5V38L6,39.61l2.06,1.17.38.45.3.52H167v3.37H147.62q-26.55-.39-70.49-.32H6.26a12.77,12.77,0,0,1-5.5-4.35Q.31,34.95.31,23.86L0,7.2,1.68,4.54l1.6-2.66Q10.6.26,25.63.32,44.56.4,49.44,0H153.8l7.63.06q4.27.27,5.19,2.14v.33q-15.18.84-40.89.71" style="fill-rule:evenodd"/><path d="M150.14,41.75q-19.53-.45-51-.39l-51.49.07q22.8-.47,59.5-.39L167,41.1v.65H150.14" style="fill:#beb447;fill-rule:evenodd"/><path d="M141.37,11.22c-.1,2,.89,4,3,5.9s3.38,3.76,3.59,5.31a20.69,20.69,0,0,1-8-3.76,64.14,64.14,0,0,0-7-4.67q-2,3,2,5.64L141,24c-1.43-.09-2.27.13-2.52.65.61.08.71.17.3.25A36.07,36.07,0,0,0,134,28a6.06,6.06,0,0,0-2.21,5.31,4.81,4.81,0,0,0,3.66,1.56q-.84-3.57,2.9-6.35a12.66,12.66,0,0,1,8.09-2.66l-4.66,7q-1.66,4.47,4.66,5.12a58,58,0,0,0,4.88-7.52,49.06,49.06,0,0,1,5-7.46l-4.81-5.7a17.45,17.45,0,0,1-4-6.42,4.49,4.49,0,0,0-3.28-1.1,3.84,3.84,0,0,0-3,1.43M167,41.1,107.11,41q-36.69-.07-59.5.39H18.31c.05-.35.51-.65,1.37-.91s1-.65.84-1.3L16,37.73l-4.27-1.62L9.38,30.28a31.81,31.81,0,0,1-2.06-7.85,37.08,37.08,0,0,1,.08-6.16L7.71,10c-.31.22-.44.72-.39,1.49v1.95c-.15,0-.25-.17-.3-.52s-.2-.45-.46-.45a41.65,41.65,0,0,0,0,11.8A25.06,25.06,0,0,0,9.92,34l-.77.2c-.3-.09-.53,0-.68.38l2.82,4a9,9,0,0,0,4.12,2.86H11.29c-1.63,0-2.69-.18-3.2-.65L6,39.61,4.42,38V10.89c1,.17,1.89-.41,2.75-1.75,1-1.51,1.93-2.38,2.75-2.59a.56.56,0,0,1,.68.32A2.84,2.84,0,0,0,9,8.36a1.43,1.43,0,0,0,.54,2l3.35-1.49a10.32,10.32,0,0,1,3.59-1H167V41.1" style="fill:#a49d31;fill-rule:evenodd"/><path d="M155,7.78q-25.78-.39-68.59-.32H17.24C17.6,6.37,18.89,5.9,21.13,6l5.27-.39a22.72,22.72,0,0,0-8.47-1Q13,4.93,10.6,6.87a.56.56,0,0,0-.68-.32c-.82.21-1.73,1.08-2.75,2.59-.86,1.34-1.78,1.92-2.75,1.75a5.48,5.48,0,0,1,.39-3.5L6.26,4.67q12-1.89,37-1.69l40.58.13q41.58.78,83.16,0V7.78H155" style="fill:#f8f25b;fill-rule:evenodd"/><path d="M167,2.2v.91q-41.58.78-83.16,0,7.26-.12,41.89.13,25.71.13,40.89-.71V2.2H167" style="fill:#1d2829;fill-rule:evenodd"/><path d="M17.24,7.46H86.36q42.8-.08,68.59.32H16.48c0-.09.25-.19.76-.32" style="fill:#beb447;fill-rule:evenodd"/><path d="M147.62,10.89a17.45,17.45,0,0,0,4,6.42L156.4,23a49.06,49.06,0,0,0-5,7.46A58,58,0,0,1,146.48,38q-6.33-.65-4.66-5.12l4.66-7a12.66,12.66,0,0,0-8.09,2.66q-3.73,2.77-2.9,6.35a4.81,4.81,0,0,1-3.66-1.56A6.06,6.06,0,0,1,134,28a36.07,36.07,0,0,1,4.73-3.12c.41-.08.31-.17-.3-.25.25-.52,1.09-.74,2.52-.65l-6.11-4.35q-4-2.66-2-5.64a64.14,64.14,0,0,1,7,4.67,20.69,20.69,0,0,0,8,3.76c-.21-1.55-1.4-3.33-3.59-5.31s-3.07-3.87-3-5.9a3.84,3.84,0,0,1,3-1.43,4.49,4.49,0,0,1,3.28,1.1" style="fill:#fffef2;fill-rule:evenodd"/><path d="M47.61,41.43l51.49-.07q31.52-.06,51,.39H8.77l-.3-.52-.38-.45c.51.47,1.57.69,3.2.65H47.61" style="fill:#939393;fill-rule:evenodd"/><path d="M6.26,44.8H77.13q44-.07,70.49.32H6.56c-.25,0-.35-.11-.3-.32" style="fill:#1d2829;fill-rule:evenodd"/><path d="M26.4,5.64,21.13,6c-2.24-.13-3.53.34-3.89,1.43-.51.13-.76.23-.76.32a10.32,10.32,0,0,0-3.59,1L9.54,10.31a1.43,1.43,0,0,1-.54-2,2.84,2.84,0,0,1,1.6-1.49Q13,4.94,17.93,4.6a22.72,22.72,0,0,1,8.47,1" style="fill:#fff;fill-rule:evenodd"/><path d="M9.38,30.28l2.37,5.83L16,37.73l4.5,1.49c.15.65-.12,1.08-.84,1.3s-1.32.56-1.37.91h-2.9a9,9,0,0,1-4.12-2.86l-2.82-4c.15-.34.38-.47.68-.38l.77-.2a25.06,25.06,0,0,1-3.36-9.72,41.65,41.65,0,0,1,0-11.8c.26,0,.41.15.46.45s.15.52.3.52V11.47c-.05-.77.08-1.27.39-1.49L7.4,16.27a37.08,37.08,0,0,0-.08,6.16,31.81,31.81,0,0,0,2.06,7.85" style="fill:#f8f25b;fill-rule:evenodd"/></g></g><g id="sprite3"><g id="shape3"><path d="M43.14,12.47l.36,2.37a4,4,0,0,1-.36,2.22,4,4,0,0,1-1.84-1.82,2.85,2.85,0,0,0-2-1.46q-3.73,1.47-3.74,8.68t3.26,9.23c1,.1,1.9-.45,2.74-1.66s1.47-1.55,2.1-1.31a12.42,12.42,0,0,1-.47,4.18l-1.48.36a1.81,1.81,0,0,0-1.15.5H38.3a6.49,6.49,0,0,1-3.79-3.23,24.2,24.2,0,0,1-1.84-5.09v-5.5a52,52,0,0,1,1.74-5,7.1,7.1,0,0,1,3.47-3.38h3a1.22,1.22,0,0,0,.94.61l1.27.25" style="fill:#fff;fill-rule:evenodd"/><path d="M90.72,15c.45,2.32,2,4,4.78,5,.14.77-.21,1.21-1,1.31H92V30a3.39,3.39,0,0,0,1.73-1.11,2.76,2.76,0,0,1,1.79-1l-1.37,3c-.66,1-1.8,1.41-3.41,1.11A7.28,7.28,0,0,1,89,27.4a19.85,19.85,0,0,1,.42-5.7c-.1-.4-.7-.67-1.79-.81s-1.4-.53-1.26-1.31c.6-.33,1.6-.82,3-1.46A3,3,0,0,0,90.72,15" style="fill:#fff;fill-rule:evenodd"/><path d="M67.58,23.32q-.26-3-2.78-3.28c-1.72-.24-2.39,1-2,3.73l2.63.1c1.15,0,1.87-.18,2.15-.55M63,28.21a3.83,3.83,0,0,0,2,2.17c.74.17,1.37-.3,1.9-1.41.45-.91.82-1.25,1.1-1,1.72.91,1.75,1.88.11,2.92a7.12,7.12,0,0,1-5.26.81q-4-2.48-3-8.37t6-5q3.36.51,4.36,6.66l-3.58.35L63.11,25A3.39,3.39,0,0,0,63,28.21" style="fill:#fff;fill-rule:evenodd"/><path d="M109.43,22.91V25a16.92,16.92,0,0,1-7.36,0,14.6,14.6,0,0,0,.37,3.38A2.27,2.27,0,0,0,104.6,30q.74.6,1.47-.81c.59-1.14,1.14-1.72,1.63-1.72q1.83,2.63-.79,3.84a6.33,6.33,0,0,1-4.37.35q-4.2-1.15-3.68-7.31t5.37-6.06a4,4,0,0,1,3.2,1.57l2,3m-7.36.86h4.73q.17-3.37-2.57-3.83c-1.83-.24-2.54,1-2.16,3.83" style="fill:#fff;fill-rule:evenodd"/><path d="M55.33,25.44c-.56-.31-1-1.18-1.36-2.63s-1-2.18-1.74-2.42c-1.51.47-2.36,1.95-2.57,4.44a22,22,0,0,0,.47,6.41l-1.74.45a2.49,2.49,0,0,1-1.78-.45,24.38,24.38,0,0,0,.52-6.66c-.1-2.73-.72-4.53-1.84-5.4h3c1,0,1.49.4,1.42,1.21a4.71,4.71,0,0,1,2.68-1.56,2.85,2.85,0,0,1,3,.75,9.32,9.32,0,0,0,0,5.86" style="fill:#fff;fill-rule:evenodd"/><path d="M75.42,22.06l-1.16-.71a2.31,2.31,0,0,0-1.47-.56c2.77-2.75,5.4-3.06,7.88-.9s3.07,5.41,1.74,9.68a1.38,1.38,0,0,0,1,1.06l1.57.61-3.36.45c-1.33-.13-2.1-.57-2.31-1.31L75.89,32.1q-4.1-1.58-2.21-5.55a5.31,5.31,0,0,1,6.1-3.23,2.71,2.71,0,0,0-.26-2.07l-1-1.31a4.7,4.7,0,0,0-3.1,2.12m3.89,6.15a2.88,2.88,0,0,0,0-3.23,2.71,2.71,0,0,0-3,1.31,3.58,3.58,0,0,0,0,3.28,2.74,2.74,0,0,0,3-1.36" style="fill:#fff;fill-rule:evenodd"/></g></g></g></g></g></g></svg>