<?xml version="1.0" encoding="utf-8"?>
<!-- Generator: Adobe Illustrator 24.0.1, SVG Export Plug-In . SVG Version: 6.00 Build 0)  -->
<svg version="1.1" id="Camada_1" xmlns="http://www.w3.org/2000/svg" xmlns:xlink="http://www.w3.org/1999/xlink" x="0px" y="0px"
	 viewBox="0 0 13 13" style="enable-background:new 0 0 13 13;" xml:space="preserve">
<style type="text/css">
	.st0{fill:#FFFFFF;}
</style>
<g>
	<path id="path841" class="st0" d="M2.4,0.9c-0.8,0-1.5,0.7-1.5,1.5v8.1c0,0.8,0.7,1.5,1.5,1.5h8.1c0.8,0,1.5-0.7,1.5-1.5V2.4
		c0-0.8-0.7-1.5-1.5-1.5H2.4z M2.4,1.9h8.1c0.3,0,0.5,0.2,0.5,0.5v8.1c0,0.3-0.2,0.5-0.5,0.5H2.4c-0.3,0-0.5-0.2-0.5-0.5V2.4
		C1.9,2.2,2.2,1.9,2.4,1.9z"/>
</g>
</svg>
