<?xml version="1.0" encoding="utf-8"?>
<!-- Generator: Adobe Illustrator 24.0.1, SVG Export Plug-In . SVG Version: 6.00 Build 0)  -->
<svg version="1.1" id="Camada_1" xmlns="http://www.w3.org/2000/svg" xmlns:xlink="http://www.w3.org/1999/xlink" x="0px" y="0px"
	 viewBox="0 0 62.6 42" style="enable-background:new 0 0 62.6 42;" xml:space="preserve">
<style type="text/css">
	.st0{fill:#5590E5;}
	.st1{fill:#2E5F99;}
	.st2{fill:#1C3E93;}
	.st3{opacity:0.67;fill:none;stroke:#000000;stroke-miterlimit:10;enable-background:new    ;}
	.st4{fill:#FFFFFF;}
	.st5{fill:none;stroke:#282828;stroke-width:0.5;stroke-miterlimit:10;}
</style>
<title>Ativo 61</title>
<g id="Camada_2_1_">
	<g id="Camada_1-2">
		<path class="st0" d="M15.9,8.5h30.8c1.6,0,2.9,1.3,2.9,2.9c0,0,0,0,0,0v19.8c0,1.3-1,2.3-2.3,2.3H14.8c-1,0-1.8-0.8-1.8-1.8V11.4
			C13,9.8,14.3,8.5,15.9,8.5z"/>
		<path class="st1" d="M41.6,9.8H20.5c-1.2,1.4-2.7,2.6-4.3,3.5h-0.1c0,0,0,0,0,0.1v16c-0.1,1.6,1.2,3,2.8,3.1h21.3
			c4,0,7.3-3.6,7.3-8v-8.2C47.5,12.6,44.8,9.8,41.6,9.8z"/>
		<g id="Symbol_228_0_Layer3_0_FILL">
			<path class="st2" d="M17.6,8.3h-2.5l-1,1.1l-0.9,1.3v3.8l0.3,8.4v8.7c0.3,0.9,1.1,1.5,2,1.7l3.4,0.2v-0.2
				c-2.9-0.4-4.4-2.9-4.6-7.5c-0.2-0.7-0.3-1.4-0.3-2.2v-2.5c-0.1-2.6,0-5.1,0.2-7.7c0.4-3,1.5-4.6,3.3-4.9V8.3z"/>
		</g>
		<path class="st3" d="M15.7,8.4h31.2c1.5,0,2.7,1.2,2.7,2.7v19.7c0,1.5-1.2,2.7-2.7,2.7H15.7c-1.5,0-2.7-1.2-2.7-2.7V11.1
			C13,9.6,14.2,8.4,15.7,8.4z"/>
		<path class="st1" d="M46.7,12.8L43.6,11c-1.2-0.2-2.4-0.2-3.7-0.1l-5.4,0.1h0L21.9,11c-0.2,0-0.3,0.1-0.4,0.2h-2.1
			c-0.2-0.2-0.5-0.2-0.6,0c0,0-0.1,0.1-0.1,0.1c-1.4,2.9-2.4,6.1-2.8,9.3c-0.2,0-0.3,0.1-0.4,0.2l-1.3,1.9c-0.1,0.2-0.1,0.5,0.2,0.6
			c0,0,0,0,0.1,0c0.2,0.1-0.2,0.6,0,0.3l1.3-1.4c0,0.4-0.1,0.9-0.1,1.3c0,0.3,0.2,0.5,0.5,0.5c0.1,0,0.2,0,0.3-0.1
			c0,1.5,0.5,3,1.4,4.2c1.5,1.9,3.6,3,6,3.1c3.1,0.4,6.4,0.1,9.5,0.2h3.7c1.5,0.1,3,0.1,4.5,0c1.2-0.1,2.3-0.5,3.2-1.2
			c0.8-0.7,1.5-1.7,1.9-2.7c0.9-2.5,1.3-5.1,1.3-7.7C48,17.7,48,14.8,46.7,12.8z M46.4,24.9c-0.4,2-1.2,4.3-3.2,5.2
			c-1.2,0.4-2.5,0.6-3.7,0.5h-4.1L27,30.5c-2.6,0-5.5,0-7.5-1.9c-1.7-1.6-2.4-4-1.8-6.3c0.1-0.3,0-0.5-0.3-0.6
			c-0.2-0.1-0.5,0-0.6,0.2c0.3-3.4,1.2-6.6,2.6-9.7c5,0.3,10,0.2,15-0.3l0,0l5.6-0.1c1.2-0.1,2.4-0.1,3.7,0.1
			c2.5,0.5,3.1,2.9,3.3,5.2C47.1,19.7,47,22.3,46.4,24.9z"/>
		<path class="st4" d="M31.1,11.7c-5,0-9,4-9,9s4,9,9,9s9-4,9-9S36,11.7,31.1,11.7L31.1,11.7z M35.4,13.7c2.4,1.5,3.9,4.2,3.9,7
			c0,0.6-0.1,1.3-0.2,1.9l-1.3-0.7l0.8,2.1c-0.4,0.8-0.8,1.6-1.5,2.3l-1.7-1.2l-2.4,1.8l-2.4,0.3l-0.5-1.6l-1.9,1l-2.6-0.7l0.4,1.4
			c-1.1-0.8-2-2-2.5-3.2l1-1.4l1.2,0.7L28,23l0.1-1.6l-1.4-0.1l0.2-0.7l1.2-1l-1-0.6l2.6-1.5l-1.7-1.1L25.3,18l-1.9-0.6
			c0.5-1.2,1.3-2.3,2.4-3.1L25.7,16l1.7-1.3l2.8,0.8l-0.9-1l1-0.6l1,1.1l2.7,0.4l-0.1-1.3l1.7,0.4L35.4,13.7L35.4,13.7z M35.4,18.3
			L32,18.7l1.1,1.6l0.1,2.5l1.1,0.5l0.4-1.1l2.4,1.9l-0.6-1.8l0.2-1.9l-1.7-0.9L35.4,18.3L35.4,18.3z M29.8,18.5l-1.2,0.8l1.4,0.6
			l0.6-0.6C30.6,19.3,29.8,18.5,29.8,18.5z M30.7,23.9l0.7,2l0.8-1.6L30.7,23.9z"/>
		<path class="st5" d="M31.1,11.7c-5,0-9,4-9,9s4,9,9,9s9-4,9-9S36,11.7,31.1,11.7L31.1,11.7z"/>
		<path class="st4" d="M31.1,11.7c-5,0-9,4-9,9s4,9,9,9s9-4,9-9S36,11.7,31.1,11.7L31.1,11.7z M35.4,13.7c2.4,1.5,3.9,4.2,3.9,7
			c0,0.6-0.1,1.3-0.2,1.9l-1.3-0.7l0.8,2.1c-0.4,0.8-0.8,1.6-1.5,2.3l-1.7-1.2l-2.4,1.8l-2.4,0.3l-0.5-1.6l-1.9,1l-2.6-0.7l0.4,1.4
			c-1.1-0.8-2-2-2.5-3.2l1-1.4l1.2,0.7L28,23l0.1-1.6l-1.4-0.1l0.2-0.7l1.2-1l-1-0.6l2.6-1.5l-1.7-1.1L25.3,18l-1.9-0.6
			c0.5-1.2,1.3-2.3,2.4-3.1L25.7,16l1.7-1.3l2.8,0.8l-0.9-1l1-0.6l1,1.1l2.7,0.4l-0.1-1.3l1.7,0.4L35.4,13.7L35.4,13.7z M35.4,18.3
			L32,18.7l1.1,1.6l0.1,2.5l1.1,0.5l0.4-1.1l2.4,1.9l-0.6-1.8l0.2-1.9l-1.7-0.9L35.4,18.3L35.4,18.3z M29.8,18.5l-1.2,0.8l1.4,0.6
			l0.6-0.6C30.6,19.3,29.8,18.5,29.8,18.5z M30.7,23.9l0.7,2l0.8-1.6L30.7,23.9z"/>
	</g>
</g>
</svg>
