<?xml version="1.0" encoding="utf-8"?>
<!-- Generator: Adobe Illustrator 24.0.1, SVG Export Plug-In . SVG Version: 6.00 Build 0)  -->
<svg version="1.1" id="Camada_1" xmlns="http://www.w3.org/2000/svg" xmlns:xlink="http://www.w3.org/1999/xlink" x="0px" y="0px"
	 viewBox="0 0 778.1 85" style="enable-background:new 0 0 778.1 85;" xml:space="preserve">
<style type="text/css">
	.st0{fill:#080403;}
	.st1{fill:#1B0705;}
	.st2{fill:#33100C;}
	.st3{fill:#1E110F;}
	.st4{fill:#6B2E28;}
	.st5{fill:#9E3126;}
	.st6{fill:#691F17;}
	.st7{fill:#393737;}
	.st8{fill:#AC3C2F;}
	.st9{fill:#B44336;}
	.st10{fill:#79777B;}
	.st11{fill:#5F5C5D;}
	.st12{fill:#1B1817;}
	.st13{fill:#0E0E0E;}
	.st14{fill:#DCD2D1;}
	.st15{fill:#4EC9F1;}
	.st16{fill:#96271B;}
	.st17{fill:#6B4542;}
	.st18{fill:#47241F;}
	.st19{fill:#87271D;}
	.st20{fill:#5B9CB7;}
	.st21{fill:#8D504F;}
	.st22{fill:#55241E;}
	.st23{fill:#7B251C;}
	.st24{fill:#4C4949;}
	.st25{fill:#45140E;}
	.st26{fill:#B0655E;}
	.st27{fill:#282728;}
	.st28{fill:#391F1C;}
	.st29{fill:#959392;}
</style>
<title>Ativo 11</title>
<g id="Camada_2_1_">
	<g id="Camada_1-2">
		<g id="Border_Top">
			<g id="Symbol_206_0_Layer417_0_FILL">
				<path class="st0" d="M317,16.5l7.2,0.2h7.5l-7.2-0.3L317,16.5z"/>
			</g>
			<g id="Symbol_206_0_Layer415_0_FILL">
				<path class="st0" d="M364.4,17.7c7,0.4,14.1,0.4,21.1,0H364.4z"/>
			</g>
			<g id="Symbol_206_0_Layer414_0_FILL">
				<path class="st0" d="M364.4,18.3h22C379.1,17.9,371.8,17.9,364.4,18.3z"/>
			</g>
			<g id="Symbol_206_0_Layer413_0_FILL">
				<path class="st1" d="M511.3,18.5v-0.2h-9.5l-9.2,0.2H511.3z"/>
			</g>
			<g id="Symbol_206_0_Layer412_0_FILL">
				<path class="st2" d="M560.1,18.5v-0.2h-48.8v0.2H560.1z"/>
			</g>
			<g id="Symbol_206_0_Layer411_0_FILL">
				<path class="st1" d="M574.1,18.3h-14v0.2h27.7C584.4,18.3,579.8,18.2,574.1,18.3z"/>
			</g>
			<g id="Symbol_206_0_Layer410_0_FILL">
				<path class="st0" d="M589.7,18.5h45.3C619.8,18.2,604.7,18.2,589.7,18.5z"/>
			</g>
			<g id="Symbol_206_0_Layer409_0_FILL">
				<path class="st3" d="M190.3,19.1v-0.2h-22c-9.1,0-16.3,0.1-21.6,0.2L190.3,19.1z"/>
			</g>
			<g id="Symbol_206_0_Layer408_0_FILL">
				<path class="st2" d="M259.4,19.1v-0.2h-69.1v0.2H259.4z"/>
			</g>
			<g id="Symbol_206_0_Layer407_0_FILL">
				<path class="st4" d="M282.4,19.1h8.2l7.9-0.3h-16.1V19.1z"/>
			</g>
			<g id="Symbol_206_0_Layer406_0_FILL">
				<path class="st5" d="M218.1,20c-7.7-0.1-16.1-0.1-25.2-0.1c-8.8,0-17.2,0-25.2,0.1l25.5,0.1L218.1,20z"/>
			</g>
			<g id="Symbol_206_0_Layer405_0_FILL">
				<path class="st6" d="M230.6,20.8v-0.2h-67.8v0.2H230.6z"/>
			</g>
			<g id="Symbol_206_0_Layer404_0_FILL">
				<path class="st1" d="M248.3,20.8h7.8l7.5-0.2h-15.4V20.8z"/>
			</g>
			<g id="Symbol_206_0_Layer403_0_FILL">
				<path class="st0" d="M298.5,20.7h-30.1C278.5,21,288.5,21,298.5,20.7z"/>
			</g>
			<g id="Symbol_206_0_Layer402_0_FILL">
				<path class="st0" d="M177,20.8h-53.8C141.2,21.2,159.1,21.2,177,20.8z"/>
			</g>
			<g id="Symbol_206_0_Layer401_0_FILL">
				<path class="st2" d="M425.3,21.3v-0.2h-25.1v0.2L425.3,21.3z"/>
			</g>
			<g id="Symbol_206_0_Layer400_0_FILL">
				<path class="st0" d="M378.9,21.8h17.5C390.5,21.5,384.7,21.5,378.9,21.8z"/>
			</g>
			<g id="Symbol_206_0_Layer399_0_FILL">
				<path class="st7" d="M426.7,22.1h29.4v-0.2h-29.4V22.1z"/>
			</g>
			<g id="Symbol_206_0_Layer398_0_FILL">
				<path class="st5" d="M477.9,26.2c-0.4,6.3-0.4,12.6,0,18.9V26.2z"/>
			</g>
			<g id="Symbol_206_0_Layer397_0_FILL">
				<path class="st2" d="M754.1,53.6V29C753.6,37.2,753.6,45.4,754.1,53.6z"/>
			</g>
			<g id="Symbol_206_0_Layer396_0_FILL">
				<path class="st8" d="M85.6,29.2V35c0.4-0.8,0.7-1.6,0.9-2.5l0.3-3.1L85.6,29.2z"/>
			</g>
			<g id="Symbol_206_0_Layer395_0_FILL">
				<path class="st2" d="M28.7,29.4v24.1C29.2,45.5,29.2,37.5,28.7,29.4z"/>
			</g>
			<g id="Symbol_206_0_Layer394_0_FILL">
				<path class="st5" d="M90.8,30.4c-0.2,1.9-0.3,3.9-0.3,5.9v6.1l0.3-5.9L90.8,30.4z"/>
			</g>
			<g id="Symbol_206_0_Layer393_0_FILL">
				<path class="st9" d="M759.7,34.4l-0.3,6.9c-0.1,2.5,0,5,0.5,7.4C760.4,42,760.4,37.2,759.7,34.4z"/>
			</g>
			<g id="Symbol_206_0_Layer392_0_FILL">
				<path class="st8" d="M26.4,35c0,0.1-0.2,0.2-0.7,0.2l-0.2,6.3c-0.1,1.8,0.2,3.6,0.9,5.3c0.5-1.7,0.7-3.5,0.7-5.3
					C27.2,39.3,27,37.1,26.4,35z"/>
			</g>
			<g id="Symbol_206_0_Layer391_0_FILL">
				<path class="st9" d="M22.8,35.4l-0.3,7.1c-0.1,2.1,0.1,4.3,0.5,6.4C23.6,43,23.5,38.5,22.8,35.4z"/>
			</g>
			<g id="Symbol_206_0_Layer390_0_FILL">
				<path class="st10" d="M327.7,49V37.2C327.2,41.1,327.2,45.1,327.7,49z"/>
			</g>
			<g id="Symbol_206_0_Layer389_0_FILL">
				<path class="st0" d="M322.7,40.8v16.2C323.1,51.6,323.1,46.2,322.7,40.8z"/>
			</g>
			<g id="Symbol_206_0_Layer388_0_FILL">
				<path class="st11" d="M479.6,52.8v-9.6h-0.3v18.9L479.6,52.8z"/>
			</g>
			<g id="Symbol_206_0_Layer387_0_FILL">
				<path class="st3" d="M58.6,64.5c-4.4,0-7.9,0.1-10.4,0.2H69l0.2-0.2L58.6,64.5z"/>
			</g>
			<g id="Symbol_206_0_Layer386_0_FILL">
				<path class="st0" d="M108.1,65.1h60.7C148.5,64.8,128.3,64.8,108.1,65.1z"/>
			</g>
			<g id="Symbol_206_0_Layer385_0_FILL">
				<path class="st6" d="M124.2,65.1v0.2h41v-0.2H124.2z"/>
			</g>
			<g id="Symbol_206_0_Layer384_0_FILL">
				<path class="st8" d="M185.3,65.3h-65.6C141.6,65.7,163.4,65.7,185.3,65.3z"/>
			</g>
			<g id="Symbol_206_0_Layer383_0_FILL">
				<path class="st0" d="M664.3,65.5v-0.2h-86.6c-3.4,0-6.7,0-10,0.1L664.3,65.5z"/>
			</g>
			<g id="Symbol_206_0_Layer382_0_FILL">
				<path class="st1" d="M685.5,65.3h-21.2v0.2h42.1C701.1,65.3,694.2,65.3,685.5,65.3z"/>
			</g>
			<g id="Symbol_206_0_Layer381_0_FILL">
				<path class="st8" d="M119.7,66.3H186C164,66,141.9,66,119.7,66.3z"/>
			</g>
			<g id="Symbol_206_0_Layer380_0_FILL">
				<path class="st5" d="M193.9,66.3c6.2,0.2,14.5,0.2,25,0.2H244c-6.3-0.2-14.6-0.3-24.9-0.3L193.9,66.3z"/>
			</g>
			<g id="Symbol_206_0_Layer379_0_FILL">
				<path class="st12" d="M114.3,69.5h21.6C128.6,69.1,121.4,69.1,114.3,69.5z"/>
			</g>
			<g id="Symbol_206_0_Layer378_0_FILL">
				<path class="st13" d="M677.1,69.3v0.2h65.9c-8.4-0.2-19.3-0.3-32.8-0.3L677.1,69.3z"/>
			</g>
			<g id="Symbol_206_0_Layer377_0_FILL">
				<path class="st14" d="M342.8,69.7h11c4.5,0,8-0.1,10.6-0.2h-10.9C349,69.4,345.4,69.5,342.8,69.7z"/>
			</g>
			<g id="Symbol_206_0_Layer376_0_FILL">
				<path class="st11" d="M592.3,69.7v-0.2h-27.2v0.2H592.3z"/>
			</g>
			<g id="Symbol_206_0_Layer375_0_FILL">
				<path class="st10" d="M592.3,69.5v0.2h34.4v-0.2H592.3z"/>
			</g>
			<g id="Symbol_206_0_Layer372_0_FILL">
				<path class="st11" d="M500.4,17.3v-0.2c-2.4-0.1-4.8-0.1-7.2,0c-2.3,0.2-4.5,0.2-6.8,0h-0.6c-0.2,0-0.1-0.2,0.1-0.4h-0.3
					l-0.2,0.1c0.1,0.3,0.4,0.5,1.1,0.5l1.7-0.1L500.4,17.3z"/>
			</g>
			<g id="Symbol_206_0_Layer371_0_FILL">
				<path class="st13" d="M754.1,53.6c-0.5-8.2-0.5-16.4,0-24.5l0.3,0.2l0.3,0.2l-1-0.9l-0.9-0.9v29.3c0.1-0.3,0.3-0.4,0.7-0.5
					l1-0.3c-0.4,0-0.5-0.1-0.5-0.4v-0.8L754.1,53.6z"/>
			</g>
			<g id="Symbol_206_0_Layer370_0_FILL">
				<path d="M760.9,29v-1.4c-0.6,0.1-1.3,0.3-1.8,0.7c-0.6,0.3-1.3,0.5-2,0.5l-7.9-6.5c-2.6-2.1-5.1-4.4-7.5-6.8l-1.1-0.6h-1
					c-0.2,0.1-0.3,0.3-0.3,0.7c0,0.3,0.1,0.5,0.3,0.7c0.2,0,0.3,0.2,0.3,0.6l1,0.3c0.4,0.2,0.4,0.4,0.2,0.5
					c-26.9-0.4-61.7-0.5-104.4-0.5H531.8h-43.6l-1.7,0.1c-0.7,0-1-0.2-1.1-0.5l0.2-0.1h0.3c0.2-0.2,0.3-0.4,0.3-0.7
					c0-0.2-0.1-0.5-0.4-0.5c0,0-0.1,0-0.1,0l-4.9,0.3c-1.4,0.1-2.8-0.2-4-0.9l-0.6-0.7c-0.3-0.2-0.6-0.3-1-0.3
					c-0.6,0-1.2,0.3-1.7,0.8c-0.5,0.6-1.2,0.9-1.9,1.1c-1.7,0.2-3.3,0.2-5,0c-1.2-0.2-2.5-0.2-3.8,0l-0.7,0.1c-0.1,0-0.1,0.4,0,1.1
					c0.2,0,0.3,0.2,0.2,0.4c0,0,0,0,0,0h-1.4l-1,0.3h-1.3c-8.8,0.2-20.6,0.2-35.3,0.2h-37.7c-7,0.4-14.1,0.4-21.1,0h-10.5
					c-4.1,0-7.4,0-9.7-0.2l-0.3-0.2l-0.5-0.2l-7.5,0.2c0.5,0.7,0.3,1.5-0.6,2.5c-1,0.8-1.9,1.6-2.7,2.5c-1.2,1.2-2.1,2.7-2.6,4.4
					l0.9-0.2c0.3,0,0.3-0.2,0-0.7l0.7-0.8L332,25l0.2-0.2c1-2.1,2.5-3.8,4.5-5c0-1,0.7-1.6,2.1-1.8c1.4-0.1,2.7-0.1,4.1-0.1
					l-0.5,0.6l-0.5,1.1l-0.8,0.9c0.2,0.3,0.2,0.5-0.1,0.6s-0.6,0.3-0.6,0.6c0.2,0,0.4,0,0.5,0.2h38.1c5.8-0.4,11.7-0.4,17.5,0h59.7
					c0-0.1,0.1-0.2,0.2-0.3l0.3-0.3h-65.8c-8.6,0.4-17.2,0.4-25.9,0h-0.2H355l-9.3-0.2c-1.4,0.3-2.9,0.3-4.3,0
					c0.8-0.5,1.5-1.1,2-1.9c1-0.8,2.3-1.1,3.5-0.7h17.3c0-0.2,0.1-0.2,0.3-0.2c7.3-0.4,14.7-0.4,22,0h11.2h24.1l23.7-0.2
					c0.2-0.2,0.5-0.2,0.8,0c0.3,0.2,0.7,0.3,1.1,0.2l3.8-0.3l3.8,0.3h1.7c0.4,0,0.9,0.1,1.2,0.4l0.5-0.5c0.1-0.2,0.4-0.3,0.7-0.2
					c-0.4,0.6-0.3,1.4,0.2,1.9c0.6,0.7,0.8,1.1,0.8,1.3h-1.8c-0.6,0-1,0.2-1,0.6h2.2l1.8,0.2l3.7,2.8l3.4,3c0.3,0.1,0.5,0.1,0.5,0.2
					c0.2,4,0.3,9.5,0.3,16.4v16.6l0,1.3c0,0.4-0.3,0.7-0.7,0.7l-0.9,1.2c-11.1,0.2-26,0.2-44.5,0.2h-48.4c-12.1,0.3-24.3,0.3-36.5,0
					c-1.9-1.1-4-1.8-6.2-2.2c-0.2-2.4-0.3-4.8-0.3-7.2l0-7.5V27.8h0.2l1.7-0.2l1.6-0.2v-0.4c-0.4-0.4-1.3-0.5-2.5-0.3
					c-0.9,0.1-1.8,0.5-2.5,1l0,1.5l0,1.1v33c5,0.6,8,2.2,9,4.8c0.2,0,0.3,0.3,0.3,0.7v0.9c0.4-0.1,0.8-0.1,1.2,0
					c0.5,0.1,0.9,0.5,0.9,1l-15.4,0.2c0-0.3-0.2-0.5-0.8-0.7l-2-0.1c0-0.4,0.2-0.6,0.7-0.6l0-1l0.2-1c-0.7,0.1-1.3,0.6-1.4,1.3
					l-0.7,1.9h-5h-2l-1.8-0.2c0.4-1.8,1.5-3.4,3.1-4.3c1.7-1,3.6-1.8,5.5-2.3h0.4c-0.3,0.9-0.8,1.7-1.5,2.3
					c-0.7,0.7-1.1,1.7-1.1,2.7c0,0.2,0.2,0.2,0.4,0c0.8-2.4,2.4-4.4,4.4-5.8V46.8c0-6.7,0.1-12.1,0.3-16v-1
					c-0.2-0.9-0.3-1.8-0.1-2.7c0.2-0.8,0.1-1.5-0.1-2.3c-0.3-0.9-1.6-2-4-3.4c-2-1.2-3-2.4-2.9-3.7c0-0.3-0.3-0.4-0.9-0.4l-1.2-0.2
					l0.6-0.4l0.8-0.2h7.5l7.2,0.3h3.2c0.9,0.2,1.8,0,2.6-0.4l-0.3-0.4h-10.5c-4.3,0-7.7-0.1-10.2-0.2c-0.6-0.2-1-0.1-1.1,0.5
					c-0.1,0.5-0.4,0.8-0.8,0.7h-2.8c-0.8-0.1-1.5,0.1-2.2,0.5v0.4l-0.3,0.2l-0.2,0.5l0.2,0.5c0.5,0.3,1,0.6,1.4,1
					c0.5,0.5,0.6,0.8,0.3,0.9h-3.8v0.2c0,0.4-0.1,0.5-0.3,0.4c-1.2-0.6-4-0.8-8.5-0.6c-10,0.4-20,0.4-30.1,0h-4.7l-7.5,0.2h-7.8H177
					c-17.9,0.3-35.9,0.3-53.8,0h-1.9h-10.2l-9.9-0.3h-1.6c-0.4,0.1-0.9,0-1.3-0.2c-0.6-0.1-1.2,0-1.6,0.5c-0.4,0.4-0.3,0.8,0.2,1.1
					h0.2c6-0.2,14.1-0.2,24.3-0.2h27.1c54.4-0.3,108.8-0.3,163.2,0h0.8c0.2,0.1,0.3,0.2,0.3,0.4c0.9,0.7,1.7,1.5,2.4,2.4
					c0.6,1,1.5,1.7,2.6,2.2l2.2,0.3c0.8,0,1.6,0.2,2.3,0.5v3.8l0.3,4.6l0,4.8c0.4,5.4,0.4,10.8,0,16.2v5.6H322
					c-0.7,0.2-1.5,0.4-2.2,0.7l-2.1,0.8l-41.8,0.3h-42.1H95.1l-0.3,0.3c-0.2,0.1-0.2,0.2-0.2,0.3c0,0.2,0.2,0.4,0.5,0.4h13
					c20.2-0.3,40.4-0.3,60.7,0h146.6c-1.2,1-2.3,2-3.3,3.2c-0.3,0.2-0.5,0.5-0.5,0.8l-0.6,0.8l-0.2,0.2v1.4l2.9,0.4h30.3
					c0.3-0.3,0.3-0.7-0.1-1l-0.8-1c-0.3-0.4,0.4-0.6,2-0.7l3.9,0.1h95.4l0-0.2l-0.1-0.2c-2.5-0.2-5.9-0.2-10.2-0.2h-91.2l-2.6-3.2
					h106.7l5.9-0.1l6.6,0.1v0.3l-0.2,0.1l-0.7,0.9l-0.7,0.9c-0.7,0.9-2.7,1.2-6.1,1c-3.6-0.2-5.8,0-6.7,0.6h18.5l-0.3,0.4
					c-0.6,0.5-0.6,1.4,0,2.6h22c0.6-0.1,0.6-0.8,0.3-2.2l-0.3-0.3c0-0.1,0.1-0.3,0.3-0.3l4.6-0.3l5.1,0.3h74.4
					c13.8-0.2,31.7-0.3,53.7-0.3h54h33.1c13.5,0,24.4,0.1,32.8,0.3h1.2c0.4,0.1,0.4,0.3,0,0.5l-0.5,2.5c-0.1,0.8,0.5,1.6,1.3,1.7
					c0-0.2,0.1-0.2,0.3-0.2l7.8-0.2h8v-2h-15.8c0-0.3,0.1-0.6,0.4-0.8l0.7-1c0.5-1.3,1.2-2.6,1.9-3.8c0.7-1.6,1.6-3.1,2.7-4.5
					l3.5-3.9c1.8-0.9,3.7-1.6,5.7-2.2c0-0.1,0.2-0.2,0.5-0.3l0.5-0.1v-1.1l-6.4,2l-1,0.3c-0.4,0.1-0.6,0.3-0.7,0.5l0,0.4l-0.2,0.2
					l-2.5,3.4l-2.6,3.2l-7.4,0.3h-7.6h-182c-28.6,0-51.6-0.1-69-0.2h-0.7l-0.3-0.4l-0.7-0.7c-0.3-0.2-0.5-0.5-0.4-0.9v-19
					c0.2-2.6,0.2-5.2-0.1-7.7c-0.3-2.5-0.3-5,0.1-7.4c0-0.1,0.2-0.2,0.4-0.2c1.4-0.7,2.6-1.7,3.7-2.8c1-1.1,2.2-2.1,3.4-3
					c3.8-0.2,9-0.2,15.6-0.2H746c2.4,1.3,4.6,3,6.4,5l0.3,0.2c0.2,0,0.3,0.2,0.3,0.6l0.9,0.9l1,0.9C756,30.7,758.1,30.5,760.9,29
					 M744.3,20.5l0.3,0.2l0.4,0.2l-11.1,0.6l-11.3-0.6H489.9c-0.1,0.2-0.4,0.4-0.7,0.4c-0.3,0.1-0.7,0-0.9-0.2
					c-0.1-0.7,0.2-1.4,0.8-1.8c0.8-0.6,1.7-0.9,2.7-0.8h0.7l9.2-0.2h72.3c5.7,0,10.3,0.1,13.7,0.2h1.9c15.1-0.3,30.1-0.3,45.3,0
					h71.8h12.5c5.1,0,9.1,0.1,12.1,0.3h1.2l1.9-0.2l1.9,0.2l1.1-0.3c0.6,0,0.9,0,1,0.3c0.7,0,1.4-0.1,2-0.4c0.5-0.3,1-0.4,1.6-0.3
					c0.3,0.5,0.8,0.8,1.3,1C743.8,19.3,744.2,19.8,744.3,20.5 M747.2,66.1l-1.4,2.2h-9.2l-5.7,0.2h-5.9l0.3-0.4l0.1-0.6h0.3
					c0-0.7,0.2-1.4,0.7-2h0.7c0.4,0,0.6,0.1,0.7,0.6l0.2,1c0.2-0.1,0.3-0.3,0.3-0.7l0-0.9h4.3l4.6-0.3l6.3-0.1l3,0.1
					C747.3,65.3,747.6,65.6,747.2,66.1 M664.3,65.2h21.2c8.7,0,15.6,0.1,20.9,0.3h8.8l8.2,0.4c-0.1,0-0.1,0.1-0.2,0.4L723,67
					l-0.3,0.7c0,0.2,0,0.4,0.2,0.4c0.4-0.1,0.7-0.6,0.9-1.4c0.2-0.8,0.6-1.1,1.2-1.2c0.3,0.1,0.3,0.5,0,1.1
					c-0.3,0.6-0.4,1.2-0.3,1.9h-26.3l-7.4,0.2h-7.7H489.7l-2.4-0.3l-2.8-0.1c-0.2,0-0.3,0.2-0.4,0.5c-0.1,0.3-0.4,0.6-0.7,0.7
					l0.6,0.5c0.3,0.2,0.4,0.4,0.4,0.6l-4.8,0.3l-4.9,0.2l-0.3,0.4c-0.3,0.1-0.6,0-0.8-0.2c-0.2-0.2-0.4-0.3-0.6-0.2h-8.3
					c-0.1-0.4,0-0.7,0.3-1l0.5-0.8l-0.2-0.2l-0.3-0.2c0-0.3,0.2-0.5,0.4-0.5l1-0.1l0.2-0.3l0.2-0.3c0.1-0.5,0.4-0.9,0.8-1.2l1.1-1
					l1.4-2.2c0.6-0.8,0.7-1.9,0.5-2.8v-2.8l-0.4-2.5c-0.2-0.8-0.1-1.7,0.2-2.5v-0.2c0-0.6,0-1.2-0.2-1.8c-0.2-0.5-0.1-1.1,0.2-1.6
					l0.2-0.8c0.1-0.2,0-0.4-0.2-0.4s-0.4-0.2-0.3-0.4c-0.4-4.8-0.4-9.7,0-14.6c-0.1-1.9-0.1-3.7,0-5.6c0.1-2.3-0.1-3.8-0.5-4.6
					l-0.4,0.5l-0.3,0.5v1c0,0.4-0.2,0.6-0.5,0.6c-2.9-1.7-5.6-3.8-8-6.2l-0.6-0.4c-0.2-0.1-0.3-0.4-0.4-0.6c2-0.6,4.2-0.1,5.8,1.3
					c2,1.8,3.3,2.8,3.9,2.9c-0.8-1.1-1.7-2-2.8-2.9c-1-0.9-1.9-1.8-2.7-2.9h3.9l3.8,0.1h0.9l-0.3,1.5l-0.6,1.2
					c0.2,0.4,0.5,0.8,0.8,1.1l1,0.9l0.4-0.5c0.3-0.2,0.6-0.3,1-0.3l-0.2,0.9l0,1.1c0.2,0.3,0.5,0.5,0.8,0.7l0.8,0.3l1.8-2.7
					c0.7-1.1,0.7-1.8-0.2-2.2c0.1,0.3,0,0.6-0.1,0.8l-0.3,0.6l-1.1-0.1l-1-0.3v-1.1l0.6-0.2h0.7l-0.3-0.2l-0.3-0.2
					c-0.4-0.3-0.9-0.4-1.3-0.3c-0.5,0.1-0.7,0.4-0.6,1.1l0.2,0.2l0.3,0.2c0,0.3-0.3,0.5-0.7,0.6h-1.4c0.1-0.2,0-0.4-0.2-0.5
					l-0.3-0.3c0-0.3,0.1-0.5,0.3-0.6l0.6-0.4l0.4-1.5c0.1-0.5,0.2-1,0.5-1.5h1.2l1.4,3l0.5,0.1l0.4,0.1l-0.1-0.7
					c-0.1-0.2-0.2-0.5-0.1-0.8h-0.2c0.5-0.5,1.6-0.7,3.4-0.6l3.8,0.5l-1.7,2l-2.5,2.8c-0.9,1-1.6,2.1-2,3.3l0.3,11.2v11.4
					c0.4,0.3,0.5,0.8,0.5,1.7l-0.1,2.2c0.2,1.8,0.1,3.7-0.1,5.5c-0.3,1.9-0.4,3.7-0.3,5.6l2.1,3l0.4,0.5l0.4,0.5l0.8,0.9
					c0.3,0.4,0.8,0.6,1.3,0.5c0.4-0.1,0.3-0.5-0.3-1.1c-0.6-0.7-0.8-1.1-0.6-1.3h9.2c22.3-0.2,51-0.3,86.3-0.3L664.3,65.2
					 M483.3,18.3h2.1l1.7,0.2h0.7c-1.8,2.1-3.9,3.9-6.2,5.3c-0.7,0.8-1.4,1.7-1.9,2.6c-0.9-0.8-0.8-1.8,0.4-3.1l3-2.7l-0.2-0.3
					l-0.1-0.3c-0.2-0.1-0.5-0.1-0.6,0.1c0,0,0,0,0,0c-0.1,0.2-0.3,0.3-0.5,0.3l0.8-1.2L483.3,18.3 M460.5,68.8c-1.4,0-2.1-0.1-2-0.4
					l1.1-1.4l1.2-1.4l3.6,0.2l1.4-0.2c-0.2,0.6-0.5,1.2-1,1.7c-0.4,0.5-0.8,1-1.1,1.5L460.5,68.8 M322.5,24.9v0.6
					c-0.2,0.3-0.7,0.5-1.7,0.5l-2.3-0.1l-0.7-0.8l-0.7-0.8l-3.5-2.9c-1.5-1.1-2.2-2.2-2.2-3.3h0.4c0.5-0.2,1-0.3,1.5-0.2h1.8l4,3
					l3.9,3c0,0.2-0.1,0.4-0.3,0.5c-0.2,0-0.3,0.2-0.3,0.4C322.4,24.8,322.4,24.8,322.5,24.9 M323.2,45.3l0-12.8
					c0.5,4.1,0.7,8.2,0.5,12.3c-0.1,7.1-0.2,11.3-0.1,12.8C323.2,53.5,323,49.4,323.2,45.3L323.2,45.3z"/>
			</g>
			<g id="Symbol_206_0_Layer369_0_FILL">
				<path class="st0" d="M330.1,26.7v1c0.8-0.5,1.6-0.9,2.5-1c1.2-0.2,2-0.1,2.5,0.3v0.4h0.2c-0.1-0.3,0-0.7,0.3-0.9l0.5-0.7
					l-2.6,0.4c-0.8,0.2-1.7,0-2.4-0.4c0.3,0.4,0.3,0.6,0,0.7L330.1,26.7z"/>
			</g>
			<g id="Symbol_206_0_Layer368_0_FILL">
				<path class="st15" d="M760.9,20.8h-0.3c0.1,0.5-0.3,0.7-1.2,0.6l-4.4-3.4l-4.2-3.6h-1c-0.2,0.2-0.3,0.4-0.2,0.7l0.2,0.7l1.1,0.9
					c0.4,0.2,0.8,0.6,1.1,1c1.4,0.8,2.7,1.7,4,2.8c1.4,1.1,3,1.8,4.8,2.1V20.8z"/>
			</g>
			<g id="Symbol_206_0_Layer367_0_FILL">
				<path class="st8" d="M760.9,16.9v-2.4H751l4.1,3.6l4.3,3.4l-0.6-0.7c-0.3-0.3-0.3-0.5-0.1-0.7l1.1,0c0.3-0.3,0.4-0.7,0.3-1.2
					l-1,0.1c-0.2,0-0.4-0.3-0.4-0.7c0.3-0.2,0.6-0.3,0.9-0.4c0.3-0.1,0.4-0.5,0.3-1c0.2,0,0.4,0,0.5,0.1
					C760.6,17.1,760.8,17,760.9,16.9z"/>
			</g>
			<g id="Symbol_206_0_Layer366_0_FILL">
				<path class="st9" d="M760.9,27.7v-1.6c-0.7,0.1-1.4,0.4-2,0.7l-1.8,0.8c-1.2-1.2-3.6-3.2-7.1-5.9c-2.5-1.9-4.8-4-6.9-6.2
					c0-0.2-0.2-0.2-0.5-0.2h-0.9v0.4c2.4,2.4,4.9,4.7,7.5,6.8l7.9,6.5c0.7,0,1.4-0.2,2-0.5C759.7,28,760.3,27.8,760.9,27.7z"/>
			</g>
			<g id="Symbol_206_0_Layer365_0_FILL">
				<path class="st5" d="M748.9,16.9c-0.7-0.4-1.3-1-1.7-1.7h-1.1c-0.5,0-0.8,0.1-0.8,0.2l10.2,7.8l1.6,1.6c0.7,0.6,1.3,0.8,1.7,0.6
					c-1.6-1-3.1-2.2-4.4-3.4l-4.1-3.7l0.5,0.2L748.9,16.9z"/>
			</g>
			<g id="Symbol_206_0_Layer364_0_FILL">
				<path class="st13" d="M750.8,18.5l1.7,1.4l1.9,1.2l-8-7l-3.9-0.1c-1.6,0-2.5,0.2-2.8,0.9h1l1.1,0.6v-0.4h0.9
					c0.4,0,0.5,0,0.5,0.2l2-0.1l2-0.1v0.2c0.4,0.7,1,1.3,1.7,1.7L750.8,18.5z"/>
			</g>
			<g id="Symbol_206_0_Layer363_0_FILL">
				<path class="st16" d="M760.9,24.8v-0.8l-0.8,0.4l-1,0.2c-1.5-1.4-3.1-2.6-4.8-3.6l-1.9-1.2l-1.7-1.4l-0.5-0.2l4.1,3.7
					c1.4,1.3,2.9,2.4,4.4,3.4l1-0.4C760.2,24.9,760.5,24.8,760.9,24.8z"/>
			</g>
			<g id="Symbol_206_0_Layer362_0_FILL">
				<path d="M36.3,15.9c0-0.1,0-0.2-0.3-0.2H20.9v1.2h0.4c6.2-0.4,10.3-0.3,12.3,0.2c0,0.6-0.3,0.9-0.9,1l-1.4,1.1l-1.4,1.1
					l-3.1,2.6l-3.3,2.4l-1.4-0.3c-0.4-0.2-0.8-0.3-1.2-0.4v1.2c0.5,0,1,0.2,1.4,0.4l1.4,0.4c2.3-2,4.8-3.8,7.4-5.4l0.5-0.4l1.2-1.1
					l1.4-1.1l1.3-1.2l0.8-1.2V15.9z"/>
			</g>
			<g id="Symbol_206_0_Layer361_0_FILL">
				<path d="M41.6,17.4l-0.5,0.3c-2.1,2.2-4.4,4.2-6.9,6l-7.3,5.8V30c0.6,0,1.2-0.2,1.7-0.7c0.4-0.4,0.9-0.7,1.4-0.9
					c0.1-0.2,0.1-0.2,0.3-0.2c0.1-0.3,0.4-0.5,0.7-0.6l3.1-2.2l3.1-2.2c0.1-0.2,0.2-0.2,0.5-0.2c0-0.1,0.2-0.2,0.5-0.2l1.4-1.4
					c0.1-0.2,0.1-0.2,0.2-0.2h0.3c0-0.2,0-0.2,0.2-0.2c0.4-0.5,0.8-0.9,1.4-1.2l1-1.2l0.1-0.8l-0.1-0.6L41.6,17.4z"/>
			</g>
			<g id="Symbol_206_0_Layer360_0_FILL">
				<path class="st8" d="M482.4,18.7l1.7-2l-3.8-0.5c-1.7-0.1-2.8,0.1-3.4,0.6h0.3l0.7,0.1l0.5,0.3l1.7,0.1l1.6-0.1l-0.6,0.9
					c-0.2,0.4-0.3,0.7,0,0.9h0.8L482.4,18.7z"/>
			</g>
			<g id="Symbol_206_0_Layer359_0_FILL">
				<path class="st8" d="M21.4,16.9c-0.2,0.3-0.3,0.7-0.2,1.1l0.4,0.9l0.3,0.1l0.4,0.1l0.2-0.6c0-0.4,0-0.6,0.3-0.6h1.5
					c0.4-0.1,0.8,0,1.1,0.2c-0.5-0.1-1,0-1.4,0.2l-1.2,0.4l-0.1,2.5c-0.1,0.7,0,1.3,0.1,2c1.8-0.9,3.4-2,4.9-3.3
					c1.5-1.3,3.2-2.3,5-3.1C28.9,16.6,25.1,16.6,21.4,16.9 M32.8,18.1c0.7,0,1-0.4,0.9-1l-0.9-0.2l0.2,0.6L32.8,18.1z"/>
			</g>
			<g id="Symbol_206_0_Layer358_0_FILL">
				<path class="st8" d="M471,17.7l0.2-0.8l-3.8-0.1h-3.9c0.8,1.1,1.7,2,2.7,2.9c1,0.8,2,1.8,2.8,2.9l0.5,0.4
					c0.5,0.8,0.6,2.3,0.5,4.6c-0.1,1.9-0.1,3.7,0,5.6v14.5c-0.1,0.2,0,0.3,0.3,0.4s0.3,0.2,0.2,0.4l0.4-0.3l0.6-0.1l0.3,1.7
					c0,0.8,0.2,1.2,0.7,1.3c0.2,0,0.3-0.2,0.3-0.6l0-0.8c-0.3-0.3-0.5-0.6-0.6-1l-0.7-1V36.4c-0.2-3.8-0.2-7.6,0-11.3
					c0.1-0.7,0-1.4-0.3-2.1l-1.4-1.5l-1.6-2l-1.3-1.6l2.3,0.1L471,17.7z"/>
			</g>
			<g id="Symbol_206_0_Layer357_0_FILL">
				<path class="st15" d="M91.1,21l0.4-0.3l3.1-2.4c-0.1-0.2,0-0.4,0.2-0.5c0.2-0.1,0.3-0.3,0.2-0.5c0,0,0,0,0,0
					c0-0.4-0.2-0.5-0.7-0.4c-0.5,0.1-0.8,0.2-0.9,0.4l-1.4,1l-1.4,1.2c-0.6,0.3-1,0.9-1,1.6l0.4,0.2h0.5L91.1,21z"/>
			</g>
			<g id="Symbol_206_0_Layer356_0_FILL">
				<path class="st8" d="M322,18.1l1.2-0.3h-2.7c-1,0-1.5-0.2-1.4-0.6v-0.2c-0.5-0.1-1,0-1.4,0.2v0.4l3.9,3c1.3,0.9,2.5,2.1,3.5,3.3
					l0.3-0.5l0.4-0.4v-0.2l0.5-0.8c0.1-0.4,0.4-0.5,0.9-0.4v-0.4c-0.2,0-0.3-0.2-0.3-0.6l-0.8,0.8c-0.4,0.3-1,0.4-1.5,0.2l-0.3-0.7
					c-0.2-0.2-0.3-0.5-0.2-0.7c-0.2,0-0.3,0.2-0.3,0.6l-1.8-1.3c-0.6-0.4-1.1-0.9-1.5-1.5H322z"/>
			</g>
			<g id="Symbol_206_0_Layer355_0_FILL">
				<path class="st17" d="M741,17.7c0.2-0.1,0.2-0.3-0.2-0.5l-1-0.3c-26.8,0.2-61.5,0.3-103.8,0.3l-104.2,0v0.2h104.8
					C679.4,17.2,714.2,17.3,741,17.7z"/>
			</g>
			<g id="Symbol_206_0_Layer354_0_FILL">
				<path class="st13" d="M81.1,24.8l1.4,1.6h0.2c0.4,11.7,0.4,23.4,0,35.1l-0.2,0.2l-1.9,1.8c-2.9,0.2-6.9,0.2-11.9,0.2H56.5H34.2
					v-0.2l-2-2.7l-2-2.7h-0.3c0,0.2-0.1,0.3-0.4,0.2l-0.6-0.3c1.2,1.5,2.2,3,3.1,4.7c1.4,1.6,3.6,2.3,6.4,1.9
					c0.1-0.5,0.4-0.7,0.8-0.7c0.4,0.1,0.7,0.4,1,0.7H41c0.4-0.4,1.1-0.5,2.3-0.3l2.9,0.3c0.2-0.2,0.5-0.2,0.8-0.1l1.1,0.1
					c2.5-0.2,6-0.2,10.4-0.2l10.7,0.1c0.2-0.1,0.4-0.2,0.6-0.2c0.3,0,0.4,0.1,0.3,0.4h1.2c0.9-0.7,1.4-0.7,1.7,0h3.1l2.8,0.2
					l0.7-0.8h0.9c-0.4,1-1.1,1.8-2,2.4l-2.2,2.1h-0.7l-0.6,0.4c-0.3,0.2-0.2,0.3,0.1,0.5c0.1-0.2,0.3-0.4,0.5-0.5
					c0.3-0.2,0.6-0.1,0.7,0.1l4.2-3.8l3.1-3.1c0.8-1.3,1.1-2.8,0.7-4.3v-9.2c0-4.1,0.1-7.2,0.3-9.5V27.1c-0.1-0.2-0.1-0.4,0-0.6
					c0.2-0.2,0.2-0.6,0-0.8v-0.2c-0.4-0.2-0.7-0.6-0.7-1c-1.1-0.8-2.2-1.7-3.1-2.6c-2.7-1.3-4.5-2.8-5.2-4.4c-0.9,1-1.5,1-1.7,0
					l-7.3,0.2H42.9c-0.2-0.4-0.3-0.8-0.3-1.2l-3.3-0.2c-1.6,0-2.6-0.1-3.1-0.5v0.2l-0.8,1.2l-1.3,1.2l-1.4,1.1l-1.2,1.1l2.6-2
					c0.9-0.8,2.1-1.2,3.3-1.3h2.1l0.9-0.3c0.5,0,0.6,0.1,0.5,0.5l0.5-0.3l0.9-0.1l0.1,0.6l-0.1,0.8l7.8,0.2h8
					c2.8-0.2,5.5-0.3,8.3-0.2l8.3-0.3l1.5,1.5l1.3,1.7l-9,0.2H58.1H43.4l-2.5,0c-0.9,0-1.4-0.1-1.5-0.4l-1.5,1.4h20.7
					c8.5,0,15.3,0.1,20.3,0.2h0.5l0.2,0.2L81.1,24.8z"/>
			</g>
			<g id="Symbol_206_0_Layer353_0_FILL">
				<path class="st15" d="M82.8,17.3l-0.6-0.1l-0.6-0.1c0.1,0.7,0.5,1.3,1,1.7l1.3,1.3l1.3,1c0.4,0.4,1.1,0.4,1.5,0
					c-0.1-0.7-0.6-1.3-1.3-1.7c-0.7-0.4-1.2-0.8-1.8-1.3C83.3,17.9,83,17.6,82.8,17.3z"/>
			</g>
			<g id="Symbol_206_0_Layer352_0_FILL">
				<path class="st9" d="M99.1,18.1c0.3,0,0.5-0.3,0.4-0.5c0,0,0,0,0-0.1l-2.1-0.2h-2.4c0.1,0.2,0,0.4-0.2,0.5c0,0,0,0,0,0
					c-0.2,0.1-0.3,0.3-0.2,0.5c0.2-0.2,0.7-0.3,1.4-0.2h1.2l-2.6,2.3l-2.3,2.5c0.1-0.3,0-0.4-0.3-0.4h-0.8c-0.2,0.1-0.2,0.3-0.1,0.4
					l0.3,0.4c0.1,0.3,0.4,0.5,1,0.6c1.2-0.9,2.2-2,3.2-3.1C96.4,19.5,97.7,18.6,99.1,18.1z"/>
			</g>
			<g id="Symbol_206_0_Layer351_0_FILL">
				<path class="st9" d="M330.8,17.7h0.7c0.5,0.5,0.6,1.3,0.3,2c-0.3,0.7-0.9,1.2-1.7,1.2v0.4l1.2,0.2l1.3-1.1l1.1-1.3
					c0-0.2,0.3-0.5,0.6-0.8c0.3-0.2,0.5-0.5,0.5-0.8l-4.4-0.3l-4.4,0.3l0.5,0.4h2.1c-0.2,0.2-0.2,0.6,0,1.1l0.2,0.9l0.5,0.4
					c0.4-0.1,0.6-0.6,0.4-1c0,0,0-0.1-0.1-0.1c-0.2-0.4-0.4-0.9-0.4-1.3L330.8,17.7z"/>
			</g>
			<g id="Symbol_206_0_Layer350_0_FILL">
				<path class="st5" d="M333.6,19.1l1.2-0.8c0.5-0.3,0.9-0.6,0.9-1c0-0.2-0.2-0.2-0.5-0.2h-16v0.2h3.4l3.1,0.2h0.4l4.4-0.3l4.4,0.3
					c0,0.4-0.2,0.7-0.5,0.8C333.9,18.6,333.6,18.8,333.6,19.1z"/>
			</g>
			<g id="Symbol_206_0_Layer349_0_FILL">
				<path class="st4" d="M39.6,17.5h-2.1l-13,9.8l-1.6-0.5l-2-0.3v1.2c0.9,0,1.8,0.1,2.6,0.4l2.1,0.9c2.3-2,4.6-3.9,7.1-5.6
					C35.2,21.6,37.5,19.7,39.6,17.5z"/>
			</g>
			<g id="Symbol_206_0_Layer348_0_FILL">
				<path class="st9" d="M40.5,17.2l-0.9,0.3c-2.1,2.2-4.4,4.2-6.9,5.9c-2.5,1.8-4.8,3.6-7.1,5.6l-2.1-0.9c-0.8-0.3-1.7-0.5-2.6-0.4
					v1c1.1,0.3,2.1,0.7,3.1,1.2c0.9,0.6,2.1,0.4,2.9-0.4l7.3-5.7c2.5-1.8,4.8-3.8,6.9-6C41.2,17.4,41,17.2,40.5,17.2z"/>
			</g>
			<g id="Symbol_206_0_Layer347_0_FILL">
				<path class="st18" d="M80.9,21.8c-0.7-0.9-1.6-1.6-2.5-2.2c-1-0.6-1.8-1.3-2.5-2.2h-0.2C76.4,19.1,78.1,20.6,80.9,21.8z"/>
			</g>
			<g id="Symbol_206_0_Layer346_0_FILL">
				<path class="st3" d="M84.7,39.2c-0.2,2.3-0.3,5.5-0.3,9.5v8c0-0.2,0.1-0.3,0.3-0.4V39.2z"/>
			</g>
			<g id="Symbol_206_0_Layer345_0_FILL">
				<path d="M46.3,67.5l-5.4-0.2h-2.9c-0.8,0.1-1.6-0.1-2.4-0.4c0.1,0.4,0.3,0.7,0.6,0.9c0.3,0.2,0.5,0.5,0.5,0.9
					c0.3,0.6,0.9,0.7,1.8,0.3c0.7-0.4,1.5-0.6,2.3-0.7c4.3-0.1,10.1-0.2,17.2-0.2h17.4c0.3,0.1,0.3,0.3,0,0.4
					c-0.3,0.1-0.1,0.2,0.3,0.2h0.7l2.3-2.2c0.9-0.6,1.6-1.4,2-2.4h-0.9L79,64.8l-1.6,1.2l-1.6,1.2l-3.4,0.2h-3.7L46.3,67.5z"/>
			</g>
			<g id="Symbol_206_0_Layer344_0_FILL">
				<path class="st13" d="M309.4,18.9l-0.2-0.5l0.2-0.5h-78.2l-21.6,0c-8.9,0-16-0.1-21.3-0.2h-0.7c-14.3,0.4-28.6,0.4-42.9,0h-41.9
					c-1.2,0.4-1.8,0.3-1.7-0.2c-0.2,0.7-0.8,0.7-1.7,0c0.1,0.3-0.1,0.5-0.4,0.6c0,0,0,0-0.1,0c-2.8,2.2-5.3,4.8-7.3,7.8v14.7
					c0.4,6.3,0.4,12.7,0,19c-0.3,2.2,0.6,4.4,2.3,5.8l4.3,4c-0.3-0.3-0.1-0.3,0.6-0.1c0.5,0.1,0.9,0.2,1.3,0.5c4.5-0.3,9-0.3,13.5,0
					c0.1-0.1,0.3-0.2,0.5-0.2c7.2-0.4,14.4-0.4,21.6,0h0.3c13.2-0.4,26.4-0.4,39.5,0h7.1c42.8-0.4,85.6-0.4,128.4,0l-0.3,0.4
					l0.6-0.8c0.1-0.3,0.3-0.6,0.5-0.8l-0.9,0.1l-1,0.1v-0.2h-3.8c-0.4,0.2-0.9,0.3-1.3,0.3l-1.3-0.3h-6.6
					c-41.8,0.3-83.6,0.3-125.3,0h-68.7c-3.2,0.4-5.3-0.3-6.1-2l-0.6-0.5c-0.3-0.1-0.4-0.4-0.4-0.7h-0.9c-0.3-0.1-0.5-0.2-0.5-0.4
					c0-0.2,0-0.3,0.2-0.3l0.3-0.3h-0.3L94.6,64c-0.5-0.3-0.9-0.8-1.2-1.4c-0.2-0.1-0.3-0.5-0.2-1v-1.5c-0.2-2.7-0.3-6.3-0.3-10.8
					v-17c-0.1-1.9,0-3.9,0.3-5.8c0.8-1.8,2.1-3.4,3.8-4.4c-0.5-0.4-0.6-0.7-0.2-1.1c0.4-0.4,1-0.6,1.6-0.5c0.6-0.3,1.2-0.8,1.6-1.3
					l2.2-0.1h44.6c5.3-0.2,12.5-0.2,21.6-0.2L309.4,18.9L309.4,18.9z"/>
			</g>
			<g id="Symbol_206_0_Layer343_0_FILL">
				<path d="M98.4,69.3v0.2c0.2,0,0.3,0.2,0.2,0.4c-0.1,0.2,0.2,0.5,0.7,0.7c0.5,0.2,0.4,0.4,0.2,0.7h1l0.4-0.2
					c0.2-0.8-0.1-1.3-0.7-1.4c-0.4-0.3-0.8-0.5-1.3-0.5C98.2,68.9,98,69,98.4,69.3z"/>
			</g>
			<g id="Symbol_206_0_Layer342_0_FILL">
				<path class="st16" d="M32,20.6c-0.2,0.3-0.5,0.5-0.9,0.4c-2.6,1.6-5.1,3.4-7.4,5.4l-1.4-0.4c-0.4-0.2-0.9-0.4-1.4-0.4v0.8
					l1.9,0.3l1.6,0.5c1.2-1.3,2.6-2.4,4-3.4C29.8,22.9,31,21.8,32,20.6z"/>
			</g>
			<g id="Symbol_206_0_Layer341_0_FILL">
				<path class="st5" d="M37.5,17.5c-1.2,0-2.4,0.5-3.3,1.3l-2.6,2l-0.5,0.4c0.4,0,0.7-0.2,0.9-0.4c-1,1.2-2.2,2.3-3.5,3.2
					c-1.4,1-2.8,2.2-4,3.5L37.5,17.5z"/>
			</g>
			<g id="Symbol_206_0_Layer340_0_FILL">
				<path class="st1" d="M445.4,18.5v-0.4l-23.8,0.3h-24.1v0.1H445.4z"/>
			</g>
			<g id="Symbol_206_0_Layer339_0_FILL">
				<path class="st5" d="M24.3,17.9h-1.5c-0.2,0-0.3,0.2-0.3,0.6l-0.2,0.6c0.2,0.5,0.2,1.1,0,1.6c-0.2,0.6-0.4,1.3-0.4,2
					c0.2,0,0.3,0.1,0.2,0.2c0.1,0.3,0.4,0.4,0.7,0.4c-0.1-0.7-0.2-1.3-0.1-2l0.1-2.5l1.2-0.4c0.4-0.2,0.9-0.3,1.4-0.2
					C25.1,17.9,24.7,17.8,24.3,17.9z"/>
			</g>
			<g id="Symbol_206_0_Layer338_0_FILL">
				<path class="st18" d="M335.9,17.3h-0.3c0,0.4-0.3,0.8-0.9,1l-1.2,0.8l-1.1,1.3l-1.3,1.1l-1,1.3c-0.5,0.3-0.9,0.8-1.1,1.3
					c0.2,0.5,0.2,1-0.1,1.5c-0.3,0.6-0.7,0.8-1.1,0.5l-0.3,0.4v1.8c0.3-0.4,0.6-0.4,1,0.1c0.3,0.4,0.5,0.9,0.4,1.5l0.3,0.3
					c0,0.2,0.2,0.3,0.4,0.3c0,0,0,0,0,0c0-0.2,0.1-0.2,0.3-0.2l0-1.1l0-1.5v-1c0.5-1.7,1.4-3.2,2.6-4.4c0.8-0.9,1.8-1.8,2.7-2.5
					C336.3,18.8,336.5,18,335.9,17.3z"/>
			</g>
			<g id="Symbol_206_0_Layer337_0_FILL">
				<path class="st16" d="M482.4,18.7l-0.5,0.3l-0.9,0.1c-0.2-0.2-0.2-0.5,0-0.9l0.6-0.9l-1.6,0.1l-1.7-0.1c1.5,1.2,1.8,3.2,0.7,4.8
					c-1,1.7-2.5,3-4.2,3.7c-1.1-0.8-2-1.7-2.9-2.7l-2.4-3.2l1.4-2.2l-2,0.2l-2.3,0l1.3,1.6l1.6,2l1.4,1.5c0.3,0.7,0.4,1.4,0.3,2.1
					c-0.2,3.8-0.2,7.6,0,11.3v11.2l0.7,1c0.1,0.4,0.4,0.7,0.6,1c0-1.9,0.2-3.8,0.5-5.7l0.6-5.5V38c0.1-2,0.1-4.1-0.1-6.1
					c-0.1-1.9-0.1-3.9,0.1-5.8l0.5-0.2c0.2,2,0.2,4,0.1,6c-0.1,2.1-0.2,4.2-0.1,6.4c1.1,3.8,1.5,7.6,1.4,11.5l-0.4,1
					c-0.2,0.4,0,0.6,0.4,0.7s0.9-0.3,1.1-1.2l0.4-2.4l0.5-0.7c0.3-0.3,0.3-0.7,0.1-1.1c-0.1,0-0.2,0.1-0.4,0.1l-0.3,0.1
					c-0.5-3.2-0.7-6.5-0.5-9.8l0.1-10.4v-0.6l0.6-0.2l0.6,0.2v-0.6c0.4-1.2,1.1-2.4,2-3.3L482.4,18.7z"/>
			</g>
			<g id="Symbol_206_0_Layer336_0_FILL">
				<path class="st9" d="M92,18.3l1.4-1H82.8c0.2,0.4,0.5,0.6,0.9,0.8h2.4l1,0.9l1.1,0.9l1.3-1C90.2,18.2,91.1,18,92,18.3z"/>
			</g>
			<g id="Symbol_206_0_Layer335_0_FILL">
				<path class="st8" d="M94.6,18.3l-3.1,2.4c0.8,0.9,1.6,0.8,2.5-0.2l2-2.5C95.3,18,94.8,18.1,94.6,18.3z"/>
			</g>
			<g id="Symbol_206_0_Layer334_0_FILL">
				<path class="st4" d="M99.1,18.1c-1.5,0.5-2.7,1.4-3.7,2.7c-0.9,1.2-2,2.2-3.2,3.1c0,0.3-0.1,0.5-0.5,0.8c-0.3,0.3-0.4,0.6-0.3,1
					c0.2,0,0.3,0.1,0.3,0.2C93.8,22.9,96.3,20.3,99.1,18.1z"/>
			</g>
			<g id="Symbol_206_0_Layer333_0_FILL">
				<path class="st16" d="M322.5,24.8c-0.1-0.1-0.1-0.4,0.1-0.5c0,0,0.1-0.1,0.1-0.1c0.2-0.1,0.3-0.3,0.3-0.5l-3.9-3l-4-2.9h-1.8
					c-0.5-0.1-1,0-1.5,0.2l0.3,0.2h0.9l2.7,2.8l2.8,2.7h1.8c0.7,0,1.1,0.1,1.2,0.5c0.1,0.3-0.3,0.4-1,0.4c-0.7,0-0.8,0.1-0.6,0.2
					L322.5,24.8z"/>
			</g>
			<g id="Symbol_206_0_Layer332_0_FILL">
				<path class="st18" d="M326.8,28.1v-1.8c0.1-1.1,0-1.7-0.2-2c-0.5-0.1-0.9-0.7-0.7-1.2l-0.4,0.4l-0.3,0.5c-1-1.3-2.2-2.4-3.5-3.3
					l-3.9-3c-0.1,1.3,0.9,2.6,2.9,3.7c2.3,1.4,3.6,2.5,4,3.4c0.2,0.7,0.3,1.5,0.1,2.3c-0.1,0.9-0.1,1.8,0.1,2.7l0.3,0.1l0.4,0.1
					v-0.5c0-0.2,0.1-0.3,0.2-0.3C325.8,28.4,326.2,28.1,326.8,28.1z"/>
			</g>
			<g id="Symbol_206_0_Layer331_0_FILL">
				<path class="st16" d="M326.5,17.9l0.5,1c0.2,0.4,0.3,0.8,0.1,1.2h0.2l1.4-0.2l-0.2-0.9c-0.2-0.5-0.3-0.9,0-1.1L326.5,17.9z"/>
			</g>
			<g id="Symbol_206_0_Layer330_0_FILL">
				<path class="st16" d="M340.9,19.1c0.3-0.4,0.8-0.7,1.4-0.7l0.5-0.6c-1.4-0.1-2.7,0-4.1,0c-1.4,0.2-2.1,0.8-2.1,1.8l0.7-0.3
					c0.1,0,0.2,0.1,0.3,0.3l0.3-0.5c0-0.3,0.1-0.4,0.2-0.5l1.4-0.3c0.4-0.2,0.9-0.1,1.2,0.1l-0.3,0.7l-0.5,0.5
					C340.2,19.8,340.5,19.6,340.9,19.1z"/>
			</g>
			<g id="Symbol_206_0_Layer329_0_FILL">
				<path class="st9" d="M336.3,21.5l1.6-1.8h2.1l0.5-0.5l0.3-0.7c-0.4-0.3-0.8-0.3-1.2-0.1l-1.4,0.3c-0.2,0-0.2,0.2-0.2,0.5
					l-0.3,0.5c0-0.2-0.1-0.3-0.3-0.3l-0.7,0.3c-1.9,1.2-3.5,2.9-4.5,5c0.7,0,1.3-0.3,1.8-0.8c0.5-0.5,0.4-0.9-0.1-1.2
					C334.8,22.7,335.7,22.3,336.3,21.5z"/>
			</g>
			<g id="Symbol_206_0_Layer328_0_FILL">
				<path class="st18" d="M455.1,19.1l-0.7,0.4c0.7,0.4,1.4,0.9,1.9,1.6l0.3,0.2l-0.3,0.3c-0.1,0.1-0.2,0.2-0.2,0.3v0.2h5l-1.8-0.2
					h-2.2c0.1-0.4,0.4-0.6,1-0.6h1.8c0.1-0.2-0.2-0.7-0.8-1.3c-0.5-0.5-0.5-1.3-0.1-1.9c-0.4-0.1-0.6,0-0.7,0.2l-0.5,0.5v0.9
					l-0.6,0.9l-0.9-0.7L455.1,19.1z"/>
			</g>
			<g id="Symbol_206_0_Layer327_0_FILL">
				<path class="st18" d="M461.8,18.5c0.3,0.6,1.4,1.4,3.3,2.5c1.4,0.6,2.5,1.6,3.4,2.9h0.5l0.3-0.5l0.4-0.5l-0.5-0.4
					c-0.6-0.1-1.9-1.1-3.9-2.9c-1.6-1.4-3.8-1.9-5.8-1.3c0,0.3,0.1,0.5,0.4,0.6l0.6,0.4l-0.4-0.4l-0.4-0.4L461.8,18.5z"/>
			</g>
			<g id="Symbol_206_0_Layer326_0_FILL">
				<path class="st18" d="M73.5,20.5c0.3,0,0.5,0.3,0.5,0.6v0.2l0.3,0.2H39.6c4.7,0.2,11,0.2,19,0.2h19.2L76.5,20l-1.5-1.5l-8.3,0.2
					c-2.8-0.1-5.5-0.1-8.3,0.2h7.2l6.6,0.5l0.7,0.6C73.1,20,73.3,20.2,73.5,20.5z"/>
			</g>
			<g id="Symbol_206_0_Layer325_0_FILL">
				<path class="st15" d="M320.7,25.9c1,0,1.6-0.1,1.7-0.5v-0.6h-2.6c-0.2-0.1,0-0.2,0.6-0.2c0.6,0,1.1-0.1,1-0.4
					c-0.1-0.2-0.5-0.5-1.2-0.5h-1.8l-2.8-2.7l-2.7-2.8H312c0,0.9,0.8,1.9,2.2,3c1.2,0.7,2.1,1.8,2.8,3l0.7,0.8l0.7,0.8L320.7,25.9z"
					/>
			</g>
			<g id="Symbol_206_0_Layer324_0_FILL">
				<path class="st18" d="M341.4,21.1c1.4,0.3,2.9,0.3,4.3,0h0.2l0.5-0.4l0.4-0.7l0.3-0.7v-0.2c-0.2,0-0.3-0.2-0.2-0.6
					c-1.2-0.4-2.5-0.1-3.5,0.7C342.9,19.9,342.2,20.6,341.4,21.1z"/>
			</g>
			<g id="Symbol_206_0_Layer323_0_FILL">
				<path class="st8" d="M438.8,19.7l2.8,0.1c0.9,0.1,1.7-0.2,2.4-0.7c-10-0.4-23.3-0.5-39.8-0.4l-40.1,0.1l-8.7-0.1l-8.4,0.2v0.4
					l11.6,0.6l12.1-0.2L438.8,19.7z"/>
			</g>
			<g id="Symbol_206_0_Layer322_0_FILL">
				<path class="st16" d="M455.1,19.1l1,0.7l0.9,0.7l0.6-0.9v-0.9c-0.3-0.3-0.7-0.5-1.2-0.4h-1.7l0.4,0.4
					C455.3,18.8,455.3,18.9,455.1,19.1z"/>
			</g>
			<g id="Symbol_206_0_Layer321_0_FILL">
				<path class="st15" d="M475,18.7v1.2l1,0.3l1.1,0.2l0.3-0.6c0.2-0.2,0.3-0.5,0.1-0.8l-0.1-0.1l-0.1-0.3h-0.9h-0.7L475,18.7z"/>
			</g>
			<g id="Symbol_206_0_Layer320_0_FILL">
				<path class="st18" d="M485.4,18.3h-2.1l-0.8,1l-0.8,1.2c0.2,0,0.4-0.1,0.5-0.3c0.1-0.2,0.4-0.2,0.6-0.1l0,0.4l0.2,0.3
					c0.6-0.7,1.5-1.3,2.4-1.6c0.2-0.2,0.2-0.3,0-0.3l-0.6-0.3h2.1L485.4,18.3z"/>
			</g>
			<g id="Symbol_206_0_Layer319_0_FILL">
				<path class="st19" d="M724.9,20.7c-15.1-0.2-34.6-0.3-58.6-0.3h-58.9h-114h-1.9c-0.8,0-1-0.1-0.7-0.5c-0.3,0.1-0.6,0.3-0.7,0.6
					L724.9,20.7z"/>
			</g>
			<g id="Symbol_206_0_Layer318_0_FILL">
				<path class="st18" d="M489.9,20.8c0-0.1,0.1-0.2,0.2-0.2c0.1-0.3,0.4-0.5,0.8-0.6l1.2-1.2l-0.3-0.4c-1-0.1-2,0.1-2.7,0.8
					c-0.6,0.4-1,1.1-0.9,1.8c0.3,0.2,0.6,0.2,0.9,0.2C489.6,21.2,489.9,21.1,489.9,20.8z"/>
			</g>
			<g id="Symbol_206_0_Layer317_0_FILL">
				<path class="st16" d="M744.3,20.5c0-0.6-0.4-1.1-1-1.4c-0.6-0.2-1-0.5-1.4-1c-0.5-0.1-1.1,0-1.5,0.3c-0.6,0.3-1.3,0.4-2,0.4
					c0,1-0.6,1.6-1.9,1.6c-0.3,0-0.5-0.3-0.5-0.7c-0.1-0.3,0-0.6,0.3-0.9l-1.9-0.2l-1.9,0.2c0.1,0.4,0,0.6-0.5,0.7l-1-0.1l-14.5,0.4
					l-15-0.3H498.9l-3.5,0.1c-1.2,0-2.3-0.2-3.4-0.8l-1.1,1.2c-0.3,0.3,0,0.5,0.7,0.5h1.9h114h58.9c24,0,43.5,0.1,58.6,0.3h9.8
					C738.8,20.7,742,20.6,744.3,20.5z"/>
			</g>
			<g id="Symbol_206_0_Layer316_0_FILL">
				<path class="st18" d="M342.4,18.5c-0.5,0-1.1,0.2-1.4,0.7c-0.4,0.5-0.8,0.7-1,0.5h-1.6l1.1,0.3l-0.4,0.5l-2.9,3.5
					c-1,1.2-2.5,1.8-4,1.8c1.9,0.3,3.8-0.3,5.1-1.7c1.2-1.2,2.4-2.4,3.8-3.5l0.8-0.9L342.4,18.5z"/>
			</g>
			<g id="Symbol_206_0_Layer315_0_FILL">
				<path class="st18" d="M85.3,21.1l-1.3-1c0,0.3,0.1,0.5,0.3,0.6c0.3,0.2,0.4,0.4,0.3,0.6l1.9,2.1l0.8,1.1h-0.1
					c-0.3,0-0.5,0.1-0.7,0.2c0,0.3-0.2,0.5-0.6,0.6l-1.2,0.2v0.2h1.5c0.6,0,0.8,0.1,0.9,0.4c-0.2,0.1-0.4,0.3-0.3,0.6
					c0.1,0.2,0,0.5-0.2,0.6l-0.9-0.1l-0.9-0.2v13.3h0.3l-0.1-6.3c-0.1-2,0-3.9,0.3-5.9l0.3,0.3c0.2,0.1,0.3,0.3,0.2,0.5
					c0.1,0.2,0.5,0.3,1,0.2h0.7v1.5c-0.1,0.4,0,0.9,0.3,1.2l0.8,1l0.6,1v-0.6c0.6-1.5,0.7-3.1,0.3-4.6l1.2,0.1l1.1-0.1v5.9
					c-0.1,1.7,0,3.3,0.3,5V25.8c0-0.1,0-0.2-0.3-0.2c0,0.2-0.2,0.4-0.4,0.3c0,0-0.1,0-0.1,0l-0.9-0.2c-0.1,0.3,0.1,0.4,0.4,0.5
					c0.4,0,0.5,0.2,0.3,0.5h-1.1c-0.4,0-0.6-0.1-0.6-0.4c0-0.9,0.4-1.7,0.9-2.4c0.2,0.1,0.4,0.2,0.6,0.2c0.3,0,0.5,0,0.5-0.2
					L90.5,24l-0.4-0.5l0.2-0.2c0.2-0.3,0.3-0.7,0.2-1.1c-0.1-0.5-0.1-0.8,0-0.9H90l-0.3-0.2c0-0.7,0.4-1.3,1-1.6l1.4-1.2
					c-0.9-0.3-1.8-0.1-2.5,0.6l-1.3,1L87.1,19l-1-0.9h-2.4c0.5,0.5,1.1,1,1.8,1.3c0.7,0.3,1.2,0.9,1.3,1.7
					C86.3,21.4,85.7,21.4,85.3,21.1 M86.8,23.1c0-0.3,0-0.6,0.2-0.8l0.3-0.7c1.1-0.1,1.7,0.2,2,1c0.3,0.7,0,1.4-0.7,1.7
					c0,0-0.1,0-0.1,0c-0.4,0-0.7-0.2-0.9-0.5L86.8,23.1 M87.4,24.7l0.3,1c-0.2-0.1-0.3-0.3-0.3-0.6L87.4,24.7z"/>
			</g>
			<g id="Symbol_206_0_Layer314_0_FILL">
				<path class="st16" d="M307.3,20.8v-0.4c-2.1-0.6-4.2-0.8-6.4-0.7l-6.9,0.1l-8.1-0.2l-7.5,0.2c-22,0.2-50.4,0.3-85.1,0.3l-85.4,0
					l-2.6,0.4l-2,0.1c-0.8,0-1.2-0.2-1.1-0.5l0.5-0.5l0.4-0.5h-0.9c0,0.3-0.2,0.6-0.4,0.8c-0.2,0.2-0.4,0.5-0.5,0.8l9.9,0.2h10.2
					c5.2-0.2,12-0.2,20.6-0.2h20.9h82c6.9-0.4,13.9-0.4,20.8,0h1.7l20.2-0.3C295.4,20.4,302,20.5,307.3,20.8z"/>
			</g>
			<g id="Symbol_206_0_Layer313_0_FILL">
				<path class="st16" d="M454.4,19.5h-6.9l1.1,0.8c0.5,0.3,0.7,0.6,0.5,0.8h7.1C455.8,20.4,455.1,19.9,454.4,19.5z"/>
			</g>
			<g id="Symbol_206_0_Layer312_0_FILL">
				<path class="st16" d="M483.1,20.7l-3,2.7c-1.1,1.3-1.2,2.3-0.4,3.1c0.6-0.9,1.2-1.8,1.9-2.6c-0.2,0.1-0.3,0.1-0.3,0.2
					c-0.2-0.6,0.2-1.4,1.2-2.3c0.9-0.8,1.8-1.4,2.9-1.9c-0.2-0.2-0.3-0.5-0.1-0.7c0,0,0.1-0.1,0.1-0.1
					C484.6,19.4,483.7,20,483.1,20.7z"/>
			</g>
			<g id="Symbol_206_0_Layer311_0_FILL">
				<path class="st16" d="M329.3,17.9c0,0.5,0.2,0.9,0.4,1.3c0.2,0.4,0.1,0.8-0.3,1c0,0-0.1,0-0.1,0.1c0.2,0.2,0.3,0.6,0.3,1.2
					l-0.8,0.5l-1.1,0.2l0.3,0.6c0.2,0.1,0.3,0.3,0.2,0.8c0,0.4-0.2,0.6-0.5,0.6c0.3,0.2,0.5,0.5,0.4,0.9l-0.4,0.9l0.3,0.2
					c0.4,0.3,0.8,0.1,1.1-0.5c0.3-0.4,0.3-1,0.1-1.5c0.3-0.5,0.6-0.9,1.1-1.2l1-1.3l-1.2-0.2v-0.5l0.5-1.7c0.2-0.5,0.3-1,0.2-1.5
					L329.3,17.9z"/>
			</g>
			<g id="Symbol_206_0_Layer310_0_FILL">
				<path class="st18" d="M312.1,18.3l-0.3-0.2h-0.4c0,1.1,0.8,2.2,2.2,3.3l3.5,2.9c-0.6-1.2-1.6-2.3-2.8-3
					C312.8,20.2,312.1,19.2,312.1,18.3z"/>
			</g>
			<g id="Symbol_206_0_Layer309_0_FILL">
				<path class="st16" d="M74,21.1c0-0.3-0.2-0.5-0.5-0.6c-3.3-0.2-8.2-0.3-14.5-0.3H43.7h-1.6c-0.7,0-0.8-0.1-0.5-0.4
					c-0.5,0.3-1,0.8-1.4,1.3H74z"/>
			</g>
			<g id="Symbol_206_0_Layer308_0_FILL">
				<path class="st5" d="M72.1,19.3c0.2,0.5-0.7,0.9-2.6,0.9l-4.7-0.1l-11,0l-10.1,0.3H59c6.3,0,11.1,0.1,14.5,0.3
					c-0.2-0.3-0.4-0.5-0.7-0.6L72.1,19.3z"/>
			</g>
			<g id="Symbol_206_0_Layer307_0_FILL">
				<path class="st15" d="M338.4,19.7h-0.5l-1.6,1.8c-0.6,0.8-1.5,1.2-2.4,1.2c0.6,0.3,0.6,0.7,0.1,1.2c-0.5,0.5-1.1,0.8-1.8,0.8
					l-0.2,0.2l-0.3,0.2v0.4l0.2,0.2c1.6,0.2,3.2-0.5,4.2-1.7l2.9-3.4l0.4-0.5L338.4,19.7z"/>
			</g>
			<g id="Symbol_206_0_Layer306_0_FILL">
				<path class="st18" d="M326.5,17.9l-0.5-0.4h-0.4c-0.2,0.3-0.1,0.6,0.1,1.1c0.3,0.4,0.4,1,0.3,1.5c-0.6,0-1.1-0.4-1.5-1.2
					c-0.4-0.9-0.7-1.1-1.1-1c-0.1,0.5,0,0.9,0.2,1.3l0.5,1.1c-0.1,0.3,0,0.5,0.2,0.7l0.3,0.7c0.5,0.2,1.1,0.1,1.5-0.2l0.8-0.8
					c0,0.4,0.1,0.5,0.3,0.6l0.1-0.6l0.1-0.6h-0.2c0.1-0.4,0.1-0.9-0.1-1.3L326.5,17.9z"/>
			</g>
			<g id="Symbol_206_0_Layer305_0_FILL">
				<path class="st2" d="M745.1,20.8l-0.4-0.2l-0.3-0.2c-2.3,0.2-5.5,0.2-9.6,0.2h-12.2v0.2l11.4,0.6L745.1,20.8z"/>
			</g>
			<g id="Symbol_206_0_Layer304_0_FILL">
				<path class="st13" d="M340.7,22.1v-0.2c-0.1-0.1-0.3-0.2-0.5-0.2c0-0.3,0.2-0.5,0.6-0.6c0.4-0.1,0.4-0.3,0.1-0.6
					c-1.3,1.1-2.6,2.2-3.8,3.5c-1.4,1.4-3.3,2.1-5.3,1.7l-0.2-0.2v-0.4l-0.7,0.8c0.7,0.4,1.6,0.5,2.4,0.4l2.6-0.4
					C337.4,24.5,339,23.2,340.7,22.1z"/>
			</g>
			<g id="Symbol_206_0_Layer303_0_FILL">
				<path class="st16" d="M87.4,24.7v0.4c0,0.3,0.1,0.5,0.3,0.6L87.4,24.7 M84.6,21.3l-0.8,0.9c-0.2,0.3-0.2,0.8,0.1,1.1
					c0.6-0.2,1.2,0,1.7,0.3l0.8,1.1c0.2-0.1,0.5-0.2,0.7-0.2h0.1l-0.8-1.1L84.6,21.3z"/>
			</g>
			<g id="Symbol_206_0_Layer302_0_FILL">
				<path class="st4" d="M752.2,17.7l3.5,2.9c1.3,0.8,2.3,1.9,3.2,3.1l2.1-0.6v-0.4c-1.7-0.3-3.4-1.1-4.7-2.2
					C754.9,19.4,753.6,18.5,752.2,17.7z"/>
			</g>
			<g id="Symbol_206_0_Layer301_0_FILL">
				<path class="st15" d="M88.5,24.3c0.7-0.2,1.1-1,0.8-1.6c0,0,0-0.1,0-0.1c-0.3-0.8-0.9-1.1-2-1l-0.3,0.7
					c-0.2,0.3-0.2,0.5-0.2,0.8l0.7,0.7C87.7,24,88.1,24.2,88.5,24.3z"/>
			</g>
			<g id="Symbol_206_0_Layer300_0_FILL">
				<path class="st15" d="M325.8,22.8v0.2c-0.1,0.5,0.2,1.1,0.7,1.2l1.2-0.2c0.3,0,0.5-0.2,0.5-0.6c0-0.4,0-0.7-0.2-0.8l-0.3,0.2
					l-0.3,0.2c-0.2,0-0.3,0-0.4-0.2l-0.1-0.4l-0.7,0.1L325.8,22.8z"/>
			</g>
			<g id="Symbol_206_0_Layer296_0_FILL">
				<path class="st4" d="M21.4,16.9h-0.4v7.6c0.4,0.1,0.8,0.3,1.2,0.4l1.4,0.3l3.3-2.4l3.1-2.6c-1.3,0.7-2.5,1.5-3.7,2.4
					c-1.2,1-2.8,1.7-4.4,1.8c-0.3-0.2-0.5-0.5-0.5-0.9c0-0.5,0.2-0.7,0.7-0.7c0-0.1,0-0.2-0.2-0.2h-0.5v-2c-0.1-0.6,0-1.2,0.3-1.8
					l-0.4-0.9C21.1,17.6,21.1,17.2,21.4,16.9z"/>
			</g>
			<g id="Symbol_206_0_Layer294_0_FILL">
				<path class="st15" d="M83.9,23.3c-0.6,0-0.8,0.1-0.6,0.4l0.6,0.8c0,0.4,0.3,0.8,0.7,1l1.2-0.2c0.5-0.1,0.7-0.3,0.6-0.6l-0.8-1.1
					C85.2,23.2,84.5,23.1,83.9,23.3z"/>
			</g>
			<g id="Symbol_206_0_Layer293_0_FILL">
				<path class="st15" d="M90.1,23.5l0.4,0.5l0.8,0.1c0,0.2-0.2,0.3-0.5,0.2c-0.2,0-0.5-0.1-0.6-0.2c-0.6,0.7-0.9,1.5-0.9,2.4
					c0,0.2,0.2,0.4,0.6,0.4h1.1c0.2-0.3,0.1-0.5-0.3-0.5c-0.4,0-0.5-0.2-0.4-0.5L91,26c0.2,0.1,0.4,0,0.5-0.2c0,0,0-0.1,0-0.1
					c-0.1-0.4,0-0.7,0.3-1c0.4-0.3,0.5-0.5,0.5-0.8c-0.6-0.1-0.9-0.3-1-0.6h-0.9L90.1,23.5z"/>
			</g>
			<g id="Symbol_206_0_Layer292_0_FILL">
				<path class="st8" d="M476.7,25.5v0.6c0.3,3.3,0.4,6.7,0.3,10c-0.1,3.4-0.1,6.7,0.3,10l0.3-0.1c0.1-0.1,0.2-0.1,0.4-0.1v-0.7
					c-0.4-6.3-0.4-12.6,0-18.9v-0.8l-0.6-0.2L476.7,25.5z"/>
			</g>
			<g id="Symbol_206_0_Layer291_0_FILL">
				<path class="st5" d="M476.7,26.1l0,10.3c-0.1,3.3,0.1,6.6,0.5,9.8c-0.3-3.4-0.4-6.8-0.2-10.1C477,32.7,476.9,29.4,476.7,26.1z"
					/>
			</g>
			<g id="Symbol_206_0_Layer290_0_FILL">
				<path class="st18" d="M473.8,26.1c0,0.8,0.1,2.8,0.3,6.1c0.2,2,0.1,3.9-0.3,5.9v0.4l0.5-0.2c-0.1-2.1,0-4.2,0.1-6.4
					c0.1-2,0.1-4-0.1-6L473.8,26.1z"/>
			</g>
			<g id="Symbol_206_0_Layer289_0_FILL">
				<path class="st20" d="M84.7,27.1l0.9,0.1l0.9,0.1c0.2-0.1,0.3-0.4,0.2-0.6c-0.1-0.2,0.1-0.5,0.3-0.6c0-0.3-0.3-0.4-0.9-0.4h-1.5
					c0.2,0.2,0.2,0.6,0,0.8C84.5,26.6,84.5,26.9,84.7,27.1z"/>
			</g>
			<g id="Symbol_206_0_Layer288_0_FILL">
				<path class="st21" d="M326.9,55.3c0,0.9-0.1,1.8-0.4,2.6l0-0.2h-0.2l0.3,0.4c0.4,0,0.5-0.2,0.4-0.4V55.3 M326.7,26.2v24.3l0.2,4
					V26.5L326.7,26.2z"/>
			</g>
			<g id="Symbol_206_0_Layer287_0_FILL">
				<path class="st16" d="M329.1,52.9l0-2.9c-0.1-0.9,0-1.7,0.3-2.5c0.5-8.4,0.4-14.4-0.2-17.8c0.1-0.5-0.1-1.1-0.4-1.4
					c-0.4-0.5-0.7-0.5-1-0.1v30.5c0.8-0.6,1.2-1.4,1.3-2.4L329.1,52.9z"/>
			</g>
			<g id="Symbol_206_0_Layer286_0_FILL">
				<path class="st16" d="M326.8,50.6V28.1c-0.6,0-0.9,0.4-1,1.2c-1,5.6-1.1,14.2-0.2,25.7v1.7c0,0.5,0.3,0.9,0.7,1.1h0.2l0,0.2
					c0.4-1.1,0.5-2.2,0.4-3.4L326.8,50.6z"/>
			</g>
			<g id="Symbol_206_0_Layer285_0_FILL">
				<path class="st19" d="M329.3,47.6l0.3,0.6c0,0.4,0,0.5,0.2,0.6V30.4c-0.2,0-0.4-0.1-0.4-0.3c0,0,0,0,0,0l-0.3-0.3
					C329.7,33.2,329.8,39.2,329.3,47.6z"/>
			</g>
			<g id="Symbol_206_0_Layer284_0_FILL">
				<path class="st16" d="M89.1,28.8c0.5,1.5,0.4,3.1-0.2,4.6c-0.5,1.6-0.7,3.4-0.5,5.1c0.2,2.1,0.9,3.6,2.2,4.3v-6.5
					c-0.1-2,0-3.9,0.3-5.9v-0.8c0.1-0.2,0.3-0.3,0.7-0.2v-0.6l-1.1,0.1L89.1,28.8z"/>
			</g>
			<g id="Symbol_206_0_Layer283_0_FILL">
				<path class="st18" d="M760.9,32v-3c-2.9,1.5-4.9,1.6-6.2,0.4l-0.3-0.2l-0.3-0.2v3l0.5,0.4l0.9,0.8l1.2,0.6l1.2-0.2l0.9-0.6
					l0.9-0.6L760.9,32z"/>
			</g>
			<g id="Symbol_206_0_Layer282_0_FILL">
				<path class="st13" d="M29.9,28.4c-0.5,0.2-1,0.5-1.4,0.9c-0.4,0.5-1.1,0.7-1.7,0.7v-0.6c-0.7,0.8-1.9,1-2.9,0.4
					c-1-0.5-2-0.9-3.1-1.2v1c1.2,0.9,2.7,1.5,4.2,1.7c1.5,0.2,2.9-0.5,3.6-1.9c0.4,8,0.4,16.1,0,24.1v2c0,0.3-0.2,0.5-0.5,0.4l1,0.3
					c0.4,0.1,0.6,0.3,0.6,0.5L29.9,28.4z"/>
			</g>
			<g id="Symbol_206_0_Layer281_0_FILL">
				<path class="st19" d="M27.8,34l0.7-0.2v19.8h0.3V33.2C28.3,33.4,28,33.6,27.8,34z"/>
			</g>
			<g id="Symbol_206_0_Layer280_0_FILL">
				<path class="st9" d="M85.6,29c0.1-0.2,0-0.4-0.2-0.5l-0.3-0.3c-0.3,2-0.4,3.9-0.3,5.9l0.1,6.3v8.1l-0.3,7.8
					c-0.2,0-0.3,0.3-0.3,0.7v0.9c0.4,1.5,0.1,3-0.7,4.3l-3.1,3.1l-4.2,3.8l-0.3,0.4v0.8h0.7l10.8-0.5h10.8v-0.6l-4.3-4
					c-1.7-1.4-2.5-3.6-2.3-5.8V39.8c-0.2-1.7-0.3-3.3-0.3-5v-5.3c-0.4-0.1-0.6,0-0.7,0.2v0.8l0.1,6.1l-0.3,5.9v2.2
					c-0.2,1.5-0.2,3.1-0.2,4.7l0.2,4.9v9.9c1.1,0.7,2,1.6,2.9,2.6l-0.2,0.9c-0.1,0.3-0.1,0.7,0,1c0.4,0.1,0.6,0,0.7-0.3
					c0-0.4,0.2-0.5,0.5-0.5c0,0.3,0.1,0.5,0.3,0.7l0.4,0.5H78.7c0.3-0.4,0.7-0.8,1.2-1l2.3-1.8l2.2-1.8v-0.2l-0.1-0.6
					c-0.1-0.1-0.1-0.3,0.1-0.4H85l0.3,0.5c0.2-0.1,0.3-0.4,0.2-0.6c-0.1-0.2-0.1-0.5,0.1-0.6c0.3-2.7,0.4-5.5,0.2-8.2
					c-0.2-2.7-0.2-5.4,0-8.1c-0.6-0.4-0.8-1.3-0.3-1.9c0,0,0.1-0.1,0.1-0.1l1.2-2.2c-0.2,0.1-0.3,0.3-0.4,0.5l-0.5,0.5v-0.6
					c-0.2-1.1-0.3-2.3-0.2-3.5L85.6,29L85.6,29z"/>
			</g>
			<g id="Symbol_206_0_Layer279_0_FILL">
				<path class="st4" d="M87.5,32v0.8c0.5,3.8,0.3,6.6-0.5,8.4c0.7,0.4,1.4,0.9,2,1.4c0.6,0.5,1,1.2,1.3,2h0.3v-1.8
					c-1.3-0.7-2.1-2.1-2.2-4.3c-0.2-1.6,0-3.1,0.4-4.7L88.3,33L87.5,32z"/>
			</g>
			<g id="Symbol_206_0_Layer278_0_FILL">
				<path class="st5" d="M756.7,33.8c0.1,0.3,0.4,0.5,0.7,0.4c-0.3,0.9-0.4,1.8-0.2,2.7l0.2,2.8l0.5,0.2c0.3-1.2,0.4-2.5,0.2-3.7
					c-0.1-1.7,0.2-2.8,0.7-3.3l-0.9,0.6L756.7,33.8z"/>
			</g>
			<g id="Symbol_206_0_Layer277_0_FILL">
				<path class="st8" d="M757.4,34.2c-0.3,0-0.6-0.1-0.7-0.4l-1.2-0.6v3l-0.3,2.8h0.3c0.1-0.6,0.6-1,1.2-1c0.5,0.1,0.6,0.5,0.3,1.2
					s-0.1,0.7,0.4,0.6l-0.2-2.8C757,36,757.1,35.1,757.4,34.2z"/>
			</g>
			<g id="Symbol_206_0_Layer276_0_FILL">
				<path class="st5" d="M757.9,41.2v0.1h-0.2h-1.2l-0.4-1.2c-0.1-0.4-0.4-0.8-0.8-1l0.3,1.7c0,0.6-0.1,1.2-0.5,1.7
					c0.8-0.8,1.4-0.7,1.8,0.3s-0.1,1.4-1.3,1.3c0.1,1.5,0.1,3.1-0.1,4.6c-0.1,1.8,0,3.1,0.5,3.7l1.7-0.3c0.4-0.1,0.7,0.2,0.9,0.7
					c0.8,0,1.6-0.1,2.4-0.4V32.6c-0.4,0.8-0.6,1.7-0.6,2.7l0.2,2.9l0.1,6.6l0.1,6c-0.2,0.2-0.4,0.5-0.5,0.8
					c-0.1,0.3-0.4,0.6-0.7,0.6l-2.4-0.1c-0.6,0.1-1.3-0.2-1.6-0.7l0.2-0.8c0-0.3,0.2-0.5,0.5-0.6h0.9h1c-0.1-1.5-0.1-3.1,0-4.7
					C758.4,43.9,758.3,42.6,757.9,41.2z"/>
			</g>
			<g id="Symbol_206_0_Layer275_0_FILL">
				<path class="st5" d="M22.4,50.2c-0.2-2-0.2-4.6-0.2-7.8l0.2-8.5c-0.4,0-0.6,0-0.6-0.2s0.1-0.3,0.6-0.2c0-0.2-0.3-0.3-0.7-0.2
					L21.3,42c0,2.6,0.1,5.2,0.3,7.8C22,49.7,22.3,49.9,22.4,50.2z"/>
			</g>
			<g id="Symbol_206_0_Layer274_0_FILL">
				<path class="st16" d="M21.3,33l-0.4-0.2v19.7c0.2-0.1,0.4-0.1,0.8,0l1.1,0.2c-0.4-0.4-0.6-1-0.5-1.6c-0.1-0.1-0.2-0.3-0.2-0.5
					l0.2-0.5c-0.1-0.3-0.3-0.4-0.7-0.4c-0.2-2.6-0.3-5.2-0.3-7.8l0.3-8.8L21.3,33z"/>
			</g>
			<g id="Symbol_206_0_Layer273_0_FILL">
				<path class="st8" d="M24.5,34.4l-1-0.5l-1.1-0.5c-0.5-0.1-0.7-0.1-0.6,0.2c0.1,0.2,0.3,0.3,0.6,0.2l-0.2,8.5
					c0,3.2,0.1,5.8,0.2,7.8l-0.2,0.5c0,0.2,0.1,0.4,0.2,0.5l0.3,0.5l0.3,0.5l4.1-0.2l0.1-0.7l-0.1-0.8c-0.2-0.3-0.7-0.4-1.3-0.3
					s-0.9,0.1-1-0.2l0-7.8L24.5,34.4 M22.5,42.6l0.3-7.1C23.4,38.5,23.5,43,23,49C22.6,46.9,22.4,44.7,22.5,42.6L22.5,42.6z"/>
			</g>
			<g id="Symbol_206_0_Layer272_0_FILL">
				<path class="st15" d="M755.2,39v0.2c0.4,0.2,0.7,0.6,0.8,1l0.4,1.2h1.2l0.5-0.7c0.1-0.3,0-0.6-0.2-0.7l-0.5-0.2
					c-0.5,0.1-0.6-0.1-0.4-0.6s0.2-1-0.3-1.2c-0.6,0-1.1,0.4-1.2,1L755.2,39z"/>
			</g>
			<g id="Symbol_206_0_Layer271_0_FILL">
				<path class="st15" d="M87,41.2c-0.2,0-0.3,0.2-0.3,0.6l-1.2,2.2c-0.5,0.6-0.4,1.4,0.1,1.9c0,0,0.1,0.1,0.1,0.1l1,0.9l0.9,0.9
					c-0.5,1.3-0.6,2.7-0.5,4.2v4.7c0.2,0.2,0.3,0.7,0.2,1.6s0.1,1.3,0.5,1.4c0.4-0.2,0.5-0.7,0.5-1.6v-2v-4.4c0.1-1.4-0.1-2.7-0.5-4
					c0.6-0.3,1.1-0.8,1.4-1.3l1-1.7c-0.2-0.8-0.7-1.5-1.3-2C88.4,42,87.7,41.5,87,41.2 M87.5,43.1c0-0.3,0.2-0.2,0.7,0.2l0.9,1
					l-0.4,1.1l-0.5,1.1c-0.4-0.1-0.8-0.4-1.1-0.8c-0.2-0.4-0.6-0.7-1-0.9C86.4,44.2,86.9,43.7,87.5,43.1L87.5,43.1z"/>
			</g>
			<g id="Symbol_206_0_Layer270_0_FILL">
				<path class="st15" d="M755,42.6c-0.4,0.7-0.3,1.2,0.2,1.6h0.3c1.2,0.1,1.7-0.3,1.3-1.3S755.8,41.8,755,42.6z"/>
			</g>
			<g id="Symbol_206_0_Layer269_0_FILL">
				<path class="st4" d="M87.5,43.2c-0.6,0.5-1.1,1.1-1.4,1.8c0.4,0.2,0.8,0.5,1,0.9c0.2,0.4,0.6,0.7,1.1,0.8l0.5-1.1l0.4-1.1
					l-0.9-1C87.8,43,87.5,42.9,87.5,43.2z"/>
			</g>
			<g id="Symbol_206_0_Layer268_0_FILL">
				<path class="st16" d="M88.9,49.4l1-1.4c0.4-0.5,0.4-1.3,0-1.8l-1.1,1.5C88.4,48.2,88.5,48.9,88.9,49.4z"/>
			</g>
			<g id="Symbol_206_0_Layer267_0_FILL">
				<path class="st16" d="M85.8,46.5c-0.2,2.5-0.2,5.1,0,7.6c0.2,2.8,0.1,5.5-0.2,8.3c0.5,0.5,1.2,0.9,1.9,1.2
					c0.4-0.3,0.4-0.7,0.2-1.3s-0.2-0.9,0.3-1.2c1,0,1.4,0.2,1.2,0.8c-0.2,0.7-0.2,1.1,0,1.2l0.3,0.2l0.2,0.3c0.4-1.3,0.6-2.6,0.6-4
					c0-1.4,0.1-2.8,0.3-4.2v-1.2c-0.1,0-0.2,0.1-0.3,0.3l-0.2,0.3v-3.1c0.1-1,0-1.9-0.3-2.9c-0.8,0.4-1.2,1.5-1.2,3.2l-0.3,4v2
					c0,0.8-0.1,1.4-0.5,1.6c-0.4-0.1-0.6-0.5-0.5-1.4s0-1.5-0.2-1.6c-0.2-1.3-0.3-2.7-0.2-4v-4.2l-0.8-1
					C85.9,47.1,85.8,46.8,85.8,46.5z"/>
			</g>
			<g id="Symbol_206_0_Layer266_0_FILL">
				<path class="st15" d="M474.3,38.2l-0.5,0.2l-0.6,5.5c-0.4,1.9-0.5,3.8-0.5,5.7l0,0.8c0,0.4,0,0.5-0.3,0.6
					c-0.5-0.1-0.7-0.5-0.7-1.3l-0.3-1.7l-0.6,0.1l-0.4,0.3l-0.2,0.8c0,1.9,1.1,3.7,2.8,4.6l0,0.8c0,0.3-0.1,0.5-0.3,0.5
					c-0.8,0.1-1.2-0.3-1.4-1.1s-0.6-1.3-1.2-1.3v0.2c-0.4,2.3,0.5,3.6,2.8,3.8l0,0.7c0,0.3-0.1,0.5-0.3,0.5c-0.4,0.1-0.9,0-1.2-0.2
					c-0.3-0.3-0.7-0.4-1.1-0.4v0.8c0.2,0,0.4,0.2,0.5,0.6l2.1,0.4l0.3-0.3l0.4-0.1v-0.7l-0.2-0.5l0.6-0.6c0.3-0.2,0.7-0.3,1-0.2
					l-0.3-0.3c-0.1,0-0.2-0.2-0.2-0.3c0,0,0,0,0,0l2.6-0.3c0.7-0.2,1.2-0.8,1.1-1.5c-0.7,0-1.3,0.2-1.9,0.5h-1.9
					c0.4-0.7,1-1.4,1.8-1.8c0.7-0.4,1.4-1,2-1.6l0.1-2.2c0-0.9-0.2-1.5-0.5-1.7c-0.3-0.1-0.5-0.1-0.6,0.1l-0.3,0.3l-0.3,2.4
					c-0.2,0.9-0.6,1.3-1.1,1.2s-0.6-0.3-0.4-0.7l0.4-1C475.8,45.8,475.4,41.9,474.3,38.2 M474.9,50.3c0.3,0.4,0.2,0.9-0.1,1.3
					c0.1,0.2,0.2,0.3,0.3,0.3l0.6-0.1c0.1,0.5-0.1,1-0.5,1.2l-1.1,0.8l-1.4-1.1c-0.5-0.3-0.9-0.8-1.2-1.3c0.5,0.1,1.1-0.1,1.5-0.5
					l0.7-1.1C474.2,49.6,474.7,49.8,474.9,50.3z"/>
			</g>
			<g id="Symbol_206_0_Layer265_0_FILL">
				<path class="st18" d="M20.9,53.9h0.4v-0.5l0.2-0.3L25,54l3.6,0.7v-1.2h-0.2l-2-0.2l-2.3-0.4h-0.8l-0.6-0.2l-1.1-0.2
					c-0.4-0.1-0.6-0.1-0.8,0L20.9,53.9z"/>
			</g>
			<g id="Symbol_206_0_Layer264_0_FILL">
				<path class="st18" d="M758.6,52.9l-3.8,0.6c0,0.2-0.2,0.2-0.7,0.2v1.2l3.5-0.8c1.2-0.2,2.3-0.5,3.4-1v-0.6
					C760.2,52.8,759.4,52.9,758.6,52.9z"/>
			</g>
			<g id="Symbol_206_0_Layer263_0_FILL">
				<path class="st18" d="M470.3,49.2c-0.3,0.5-0.4,1-0.2,1.6c0.2,0.6,0.2,1.2,0.2,1.8c0.6,0,1,0.4,1.2,1.3s0.6,1.2,1.4,1.1
					c0.2,0,0.3-0.2,0.3-0.5l0-0.8C471.4,52.9,470.3,51.1,470.3,49.2z"/>
			</g>
			<g id="Symbol_206_0_Layer262_0_FILL">
				<path class="st18" d="M470.5,57.7v-0.6c0.4,0,0.8,0.1,1.1,0.4c0.4,0.3,0.8,0.3,1.2,0.2c0.2,0,0.3-0.2,0.3-0.5l0-0.7
					c-2.3-0.2-3.2-1.5-2.8-3.8c-0.3,0.8-0.4,1.7-0.2,2.5L470.5,57.7z"/>
			</g>
			<g id="Symbol_206_0_Layer261_0_FILL">
				<path class="st16" d="M22.6,55.6c-0.2,0.1-0.2,0.3,0,0.5l0.3,0.6c2.8,0.4,5.4,2,7,4.3l2.1,3.2c0.7,1.1,1.5,2.1,2.5,3l-0.1-0.6
					c-0.1-0.2-0.1-0.3,0.1-0.4c0.4,0.4,0.7,0.9,1,1.5c0.2,0.6,0.7,1,1.2,1.3l0.2-0.4c0-0.4-0.2-0.7-0.5-0.9
					c-0.3-0.2-0.5-0.5-0.6-0.9c0.7,0.3,1.6,0.5,2.4,0.4h2.9c-0.2-0.5-0.5-1-0.9-1.3c-0.4-0.3-0.8-0.8-1-1.3h-0.5
					c-2.9,0.4-5-0.2-6.4-1.9c-0.9-1.7-1.9-3.2-3.1-4.7c-0.8-0.7-1.8-1.3-2.9-1.6L22.6,55.6z"/>
			</g>
			<g id="Symbol_206_0_Layer260_0_FILL">
				<path class="st16" d="M759.9,55.7c-1.9,0.6-3.8,1.3-5.7,2.2l-2.9,4.4c-0.9,1.5-2,2.8-3.3,4c-0.7,1.2-1.3,2.5-1.8,3.8
					c0.5-0.1,0.9-0.6,1.2-1.5c0.1-0.7,0.6-1.2,1.2-1.5l-0.2,0.5v0.7c1.3-1.5,2.5-3.2,3.5-4.9c0.9-1.7,2-3.3,3.4-4.7
					c0.8-0.5,1.7-0.8,2.6-1c1-0.2,1.8-0.8,2.4-1.6c0.2,0,0.2-0.1,0.1-0.2L759.9,55.7z"/>
			</g>
			<g id="Symbol_206_0_Layer259_0_FILL">
				<path class="st22" d="M473.1,60.5c0.4,0,0.7-0.4,0.7-0.8c0-0.4-0.3-0.8-0.7-0.8c0,0,0,0,0,0l-2.1-0.4l0.7,1.3
					C472.1,60.3,472.6,60.5,473.1,60.5z"/>
			</g>
			<g id="Symbol_206_0_Layer258_0_FILL">
				<path class="st13" d="M748.1,66.3c1.3-1.2,2.4-2.5,3.3-4l2.9-4.4l-3.5,3.9C749.8,63.2,748.8,64.7,748.1,66.3z"/>
			</g>
			<g id="Symbol_206_0_Layer257_0_FILL">
				<path class="st16" d="M328.6,58.7c-0.2,0.5-0.7,0.8-1.3,0.8c-0.6,0.1-1.1-0.2-1.3-0.8c-0.3,0.7-0.1,1.4,0.5,1.8l1.2,1.2
					c0.7,0,1-0.3,1.2-1.1C329,60,328.9,59.3,328.6,58.7z"/>
			</g>
			<g id="Symbol_206_0_Layer256_0_FILL">
				<path class="st8" d="M470.5,60.5c0.2,1,0.1,2-0.5,2.8l-1.4,2.2c0,0.3,0.2,0.4,0.6,0.5l1,0.1c1.3-0.2,2.2-1.4,2-2.7
					c0-1.2-0.4-2.5-1.3-3.4L470.5,60.5z"/>
			</g>
			<g id="Symbol_206_0_Layer255_0_FILL">
				<path class="st15" d="M760.9,60.5v-1l-2.3,0.3l-2.2,0.3c-0.7,1.8-1.8,3.5-3.1,5c-1.3,1.5-2.3,3.3-2.8,5.2c0.2,0.2,0.5,0.3,1,0.2
					l0.8-0.4l1.9-3.5c0.6-1.1,1.3-2.2,2.1-3.3c0.4-1,1-1.9,1.9-2.6L760.9,60.5z"/>
			</g>
			<g id="Symbol_206_0_Layer254_0_FILL">
				<path class="st23" d="M26.4,67.4l0.7-0.1c-0.1-0.6-0.5-1.2-0.9-1.6c-0.4-0.4-0.9-0.7-1.4-0.6l0.1,0.7c0,0.1,0.1,0.3,0.3,0.5
					c-0.7-0.1-1.3-0.6-1.5-1.3c-0.4-0.9-0.8-1.4-1.3-1.5c0,0.5,0.1,0.9,0.4,1.3l0.6,1.1l-0.8-0.1c-0.2-0.1-0.5,0-0.6,0.1l2.1,0.4
					c0.8,0,1.5,0.4,1.9,1C25.9,67.2,26.1,67.2,26.4,67.4z"/>
			</g>
			<g id="Symbol_206_0_Layer253_0_FILL">
				<path class="st16" d="M22.4,60.1h-0.7v2.8l0.9-0.1l0.8-0.1c0.6,0.8,1.3,1.5,2.1,2c0.7,0.5,1.5,1,2.4,1.2c-0.2-0.5-0.4-1-0.8-1.5
					c-0.4-0.6-0.5-1-0.4-1.3c-0.5-1-1.1-1.9-1.9-2.8L22.4,60.1z"/>
			</g>
			<g id="Symbol_206_0_Layer252_0_FILL">
				<path class="st8" d="M478.8,66.3l1.4,0.1l0.8,0.1l-0.4-0.5l-0.4-0.5l-1.6-1.2c-0.8-0.4-1.3-0.3-1.7,0.3l0.7,1
					C478,66,478.4,66.2,478.8,66.3z"/>
			</g>
			<g id="Symbol_206_0_Layer251_0_FILL">
				<path class="st15" d="M87.5,63.5v0.2c0.1,0.2,0.3,0.4,0.7,0.4c0.3,0.1,0.6,0,0.9-0.2v-0.8c-0.2-0.1-0.2-0.5,0-1.2
					c0.2-0.5-0.2-0.8-1.2-0.8c-0.4,0.2-0.5,0.6-0.3,1.2S87.9,63.3,87.5,63.5z"/>
			</g>
			<g id="Symbol_206_0_Layer250_0_FILL">
				<path class="st4" d="M84.4,64.1c0.5-0.5,0.7-0.5,0.8,0.2c0.1,0.5,0,1-0.3,1.4l1.4,1.4l1.3,1.4h-6.4l0.3-0.6
					c-0.9,0.8-1.7,0.9-2.2,0.4l0.5-0.4c-0.5,0.2-0.9,0.6-1.2,1h16.3l-0.4-0.5c-0.2-0.2-0.3-0.4-0.3-0.7c-0.3-0.1-0.5,0.1-0.5,0.5
					s-0.3,0.5-0.7,0.3c-0.1-0.3-0.1-0.7,0-1l0.2-0.9h-0.2c-0.2,0.3-0.3,0.6-0.3,1l-0.4,0.9h-2.2l-2-0.2l0.7-0.4
					c-0.9,0.1-1.4-0.2-1.4-0.8c-0.1-0.2,0-0.5,0.2-0.7l0.5-0.3c-0.2,0-0.4-0.2-0.4-0.4v-0.8c0.2-0.2,0.5-0.3,0.8-0.3
					c0.3,0,0.6,0.1,0.8,0.3c-0.3-0.3-0.2-0.6,0.3-0.9c0.5-0.3,0.9-0.7,0.9-0.9v-7.8c-0.3,1.4-0.4,2.8-0.3,4.2c0,1.4-0.2,2.7-0.6,4
					l-0.2-0.3l-0.3-0.2v0.8c-0.2,0.2-0.6,0.3-0.9,0.2c-0.4-0.1-0.7-0.2-0.7-0.4v-0.2c-0.7-0.3-1.4-0.7-1.9-1.2
					c-0.2,0.2-0.2,0.4-0.1,0.6c0.1,0.2,0,0.5-0.2,0.6L85,63.1h-0.6c-0.2,0.1-0.2,0.3-0.1,0.4L84.4,64.1z"/>
			</g>
			<g id="Symbol_206_0_Layer249_0_FILL">
				<path class="st16" d="M473.1,61.5v-1c-0.6,0-1.1-0.3-1.4-0.7l-0.7-1.3c-0.1-0.4-0.3-0.6-0.5-0.6v2.6l0.5-0.4
					c0.8,0.9,1.3,2.1,1.3,3.3c0.2,1.3-0.7,2.4-2,2.7c1.3,0.8,2.5,1.8,3.5,3l-0.9-3.4C472.4,64.3,472.5,62.9,473.1,61.5z"/>
			</g>
			<g id="Symbol_206_0_Layer248_0_FILL">
				<path class="st23" d="M760.9,67.1v-0.4l-0.7-0.1l-0.7-0.1c0.6-0.6,1-1.5,1-2.4c-0.4,0.1-0.9,0.7-1.4,1.8
					c-0.4,0.9-0.9,1.3-1.5,1.2l0.4-0.5l0.1-0.7c-0.6,0-1.2,0.2-1.5,0.7c-0.5,0.4-0.8,1-0.8,1.7c0.1,0.2,0.3,0.2,0.6,0
					c0.3-0.2,0.5-0.2,0.6,0C757.9,67.1,759.5,66.6,760.9,67.1z"/>
			</g>
			<g id="Symbol_206_0_Layer247_0_FILL">
				<path class="st19" d="M760.9,66.7v-3.1l-0.6-0.1l-0.6-0.1l-2.3,2.1c-0.7,0.6-1.6,1.1-2.4,1.5c-0.6,0.5-1,1.2-1.2,2l1.9,0.1
					c0.8,0,1.2-0.2,1.2-0.6c-0.1-0.2-0.3-0.2-0.6,0s-0.5,0.2-0.6,0c0-0.7,0.3-1.3,0.8-1.7c0.4-0.5,0.9-0.7,1.5-0.7l-0.1,0.7
					l-0.4,0.5c0.6,0.1,1.1-0.3,1.5-1.2c0.5-1.1,1-1.7,1.4-1.8c0,0.9-0.4,1.8-1,2.4l0.7,0.1L760.9,66.7z"/>
			</g>
			<g id="Symbol_206_0_Layer246_0_FILL">
				<path class="st4" d="M760.9,70.1v-3c-1.5-0.5-3.1,0-4,1.2c0,0.5-0.4,0.7-1.2,0.6l-1.9-0.1c0.2-0.8,0.6-1.5,1.2-2
					c0.1-0.6,0.4-1.2,0.8-1.7c0.4-0.5,0.6-1.2,0.6-1.9c-0.8,1-1.5,2.1-2.1,3.3l-2,3.5l0.8-0.1c0-0.2,0.1-0.4,0.2-0.4l1.9,0.1
					l0.8,0.4l1.7,0.1H760.9z"/>
			</g>
			<g id="Symbol_206_0_Layer244_0_FILL">
				<path class="st18" d="M321.8,63.9l-2.2,2.2c-0.8,0.8-1.2,1.9-1.1,3c0.4-0.2,0.8-0.3,1.2-0.2c0-1,0.4-2,1.1-2.7
					c0.6-0.7,1.1-1.5,1.5-2.3L321.8,63.9z"/>
			</g>
			<g id="Symbol_206_0_Layer243_0_FILL">
				<path class="st18" d="M69.3,64.5L69,64.7L67.7,66c-0.5,0.4-1,0.8-1.3,1.3h1.4l1.3-1.2c0.5-0.3,0.8-0.9,1-1.5
					c0.1-0.3,0-0.4-0.3-0.4C69.6,64.3,69.4,64.4,69.3,64.5z"/>
			</g>
			<g id="Symbol_206_0_Layer242_0_FILL">
				<path class="st18" d="M331.5,63.9c-0.1,0.2,0,0.4,0.2,0.5c0,0,0,0,0,0c0.2,0.1,0.3,0.3,0.2,0.5l-0.8-0.4l-0.8,0l2.5,2
					c0.7,0.6,1.2,1.6,1.3,2.6l-1.1-0.2l-1.3-0.1c-1,0.7-2.3,1-3.5,1l-4.2-0.4c-0.5-0.1-0.7,0.1-0.7,0.6l2,0.1
					c0.6,0.2,0.9,0.4,0.8,0.7l15.4-0.2c0-0.5-0.4-0.9-0.9-1c-0.4-0.1-0.8-0.1-1.2,0v-0.9c0-0.4-0.1-0.6-0.3-0.7v0.2
					c0.3,0.5,0.1,0.7-0.4,0.8l-1.2-0.2l-2.4-2.9C333.8,64.5,332.6,63.8,331.5,63.9z"/>
			</g>
			<g id="Symbol_206_0_Layer241_0_FILL">
				<path class="st8" d="M77.4,66.1l1.5-1.2l-2.8-0.2h-3.1l-0.7,0.9c-0.3,0.4-0.4,0.6-0.3,0.7c0-0.3,0.3-0.5,0.9-0.4l0.3,0.3
					l0.2,0.3c0.1,0.2,0,0.4-0.2,0.4l-0.3,0.3h2.8L77.4,66.1z"/>
			</g>
			<g id="Symbol_206_0_Layer240_0_FILL">
				<path class="st18" d="M328.1,65.6c-0.4,0.2-0.9,0.4-1.4,0.3c0-0.8-0.4-1.5-1.2-1.8l-0.8,1.4c-0.2,0.3-0.3,0.8-0.1,1.2
					c0.7,0.2,1.3,0.6,1.7,1.1l1.2,1.5c0.5-1,1.3-1.9,2.4-2.4c0-0.2,0.1-0.4,0.3-0.5l0.3-0.5l-0.5-0.3l-0.4-0.4
					C328.9,65.2,328.5,65.4,328.1,65.6z"/>
			</g>
			<g id="Symbol_206_0_Layer239_0_FILL">
				<path class="st8" d="M71.4,64.7h-1.2c-0.2,0.6-0.5,1.1-1,1.4l-1.3,1.2v0.2h0.9l1.4-1.3L71.4,64.7z"/>
			</g>
			<g id="Symbol_206_0_Layer238_0_FILL">
				<path class="st8" d="M41.1,64.7h-0.7c0.3,0.5,0.6,1,1.1,1.3c0.5,0.3,0.8,0.8,1.1,1.3h1c0.4,0,0.6-0.1,0.6-0.3
					c-0.5-0.3-1-0.8-1.4-1.3C42.3,65.2,41.7,64.8,41.1,64.7z"/>
			</g>
			<g id="Symbol_206_0_Layer237_0_FILL">
				<path class="st9" d="M101.7,66.5v-0.8c-0.3-0.1-0.6-0.3-0.8-0.6h-5c0,0.3,0.2,0.5,0.4,0.7l0.6,0.5L101.7,66.5z"/>
			</g>
			<g id="Symbol_206_0_Layer236_0_FILL">
				<path class="st18" d="M102.7,65.1h-1.7c0.2,0.3,0.4,0.5,0.7,0.6l1.4,2.6h1.5c-0.4-0.9-1.1-1.6-1.9-2.2l0.1-0.5L102.7,65.1z"/>
			</g>
			<g id="Symbol_206_0_Layer235_0_FILL">
				<path class="st16" d="M107.4,65.1h-2.9c0.3,0.3,0.2,0.4-0.4,0.4c0.1,0.5,0.6,0.9,1.5,1.4c0.9,0.4,1.4,0.9,1.5,1.4h3.6
					c-0.5-0.6-1-1.2-1.7-1.6C108.4,66.3,107.8,65.7,107.4,65.1z"/>
			</g>
			<g id="Symbol_206_0_Layer234_0_FILL">
				<path class="st18" d="M108.6,65.1h-1.2c0.4,0.6,1,1.2,1.6,1.6c0.7,0.4,1.2,0.9,1.7,1.6h2.1v-0.2c-0.8-0.3-1.6-0.8-2.1-1.4h-1.2
					l-0.3-0.4l-0.3-0.6L108.6,65.1z"/>
			</g>
			<g id="Symbol_206_0_Layer233_0_FILL">
				<path class="st16" d="M298.8,66.3l-0.9,0.9c-0.3,0.3-0.6,0.7-0.7,1.1h6.6c0.1-0.6,0.3-1.1,0.6-1.6l0.8-1.4h-4.5
					c-0.3,0.2-0.6,0.4-1,0.5C299.3,65.8,299,66,298.8,66.3z"/>
			</g>
			<g id="Symbol_206_0_Layer232_0_FILL">
				<path class="st18" d="M300.7,65.1v0.2h4.5l-0.8,1.4c-0.3,0.5-0.5,1-0.6,1.6l1.3,0.3c0.5,0,0.9-0.1,1.3-0.3
					c-0.2-1.4,0.8-2.6,2.1-2.8c0.3,0.4,0.2,1-0.1,1.3c-0.4,0.3-0.7,0.8-0.8,1.3c0.4,0,0.8-0.3,0.9-0.7c0.2-0.4,0.5-0.6,0.9-0.7
					c-0.1,0.3,0.1,0.6,0.4,0.8c0.2,0.2,0.4,0.5,0.4,0.8v0.2l1-0.1l0.9-0.1c1-1.2,2.1-2.2,3.3-3.2H300.7 M310.6,67.1
					c-0.4-0.4-0.6-0.9-0.7-1.4c0.3-0.3,0.8-0.4,1.2-0.4h1.6l-0.9,1L310.6,67.1z"/>
			</g>
			<g id="Symbol_206_0_Layer231_0_FILL">
				<path class="st16" d="M312.7,65.3h-1.6c-0.4,0-0.9,0.1-1.2,0.4c0.1,0.5,0.3,1,0.7,1.4l1.2-0.8L312.7,65.3z"/>
			</g>
			<g id="Symbol_206_0_Layer230_0_FILL">
				<path class="st8" d="M741.3,66.9l1.2-1.4h-1.7c-0.1,0.6-0.5,1.1-1,1.5c-0.5,0.3-0.9,0.8-1.1,1.3h1.4L741.3,66.9z"/>
			</g>
			<g id="Symbol_206_0_Layer229_0_FILL">
				<path class="st18" d="M342.6,68.7h5.2c-0.2-0.7-0.8-1.2-1.4-1.4l0.2,0.7c0.1,0.3,0.1,0.4-0.2,0.5c-0.7-0.3-1.4-0.8-2-1.4
					c-0.5-0.4-0.9-1-1-1.6h-3.5L342.6,68.7z"/>
			</g>
			<g id="Symbol_206_0_Layer228_0_FILL">
				<path class="st15" d="M349.3,65.7l-0.3-0.2h-5.7c0.1,0.6,0.5,1.2,1,1.6c0.6,0.6,1.3,1,2,1.4c0.3-0.1,0.3-0.3,0.2-0.5l-0.2-0.7
					c0.7,0.2,1.2,0.7,1.4,1.4h0.7v-0.4l-0.6-0.9c-0.3-0.2-0.5-0.5-0.6-0.9l0.4-0.2l0.3-0.2c0.4,0.1,0.8,0.3,1.1,0.5l1.2,0.3
					c0.1-0.4-0.1-0.6-0.5-0.7S349.3,65.9,349.3,65.7z"/>
			</g>
			<g id="Symbol_206_0_Layer227_0_FILL">
				<path class="st16" d="M444,68.5c0.3-0.5,0.7-1,1.1-1.4l1.2-1.4h-97.1c0,0.2,0.2,0.4,0.7,0.5s0.6,0.3,0.5,0.7l-1.2-0.3
					c-0.4-0.2-0.8-0.3-1.1-0.5l-0.3,0.2l-0.4,0.2c0.1,0.3,0.3,0.7,0.6,0.9l0.6,0.9h8.3l8,0.3L444,68.5z"/>
			</g>
			<g id="Symbol_206_0_Layer226_0_FILL">
				<path class="st16" d="M447.6,65.7l-0.5,0.8c-0.3,0.3-0.3,0.5,0,0.6c0.6-1,1.1-1.3,1.4-1c-0.3,1-1,1.9-1.9,2.4h5.2l4.9-0.2
					l-2.6-0.8c-0.8-0.2-1.5-0.6-2.2-1.2l-0.5,0.7c-0.2,0.2-0.3,0.6-0.2,0.9c0.6,0,1.3,0.1,1.9,0.4h-2.1l-1.7-0.4l1.7-2.2L447.6,65.7
					z"/>
			</g>
			<g id="Symbol_206_0_Layer225_0_FILL">
				<path class="st16" d="M458.9,65.9l-3.1-0.2h-3.3c0.6,0.6,1.3,1,2.2,1.2l2.8,0.8l0.7-0.9L458.9,65.9z"/>
			</g>
			<g id="Symbol_206_0_Layer224_0_FILL">
				<path class="st8" d="M459.6,66.9c-0.1,0.4,0,0.7,0.3,1c0.5,0,1-0.3,1.4-0.7c0.5-0.4,1.1-0.5,1.7-0.3c0.1-0.3,0.3-0.5,0.6-0.7
					l0.8-0.5l-3.6-0.2L459.6,66.9z"/>
			</g>
			<g id="Symbol_206_0_Layer223_0_FILL">
				<path class="st18" d="M460.2,68.5l-1.7-0.2c0,0.3,0.6,0.5,2,0.4h3.1c0.3-0.5,0.7-1,1.1-1.5c0.5-0.5,0.8-1,1-1.7l-1.4,0.2
					l-0.8,0.5c-0.3,0.2-0.5,0.4-0.6,0.7c-0.2,0.2-0.4,0.5-0.4,0.8l-0.4,0.8L460.2,68.5z"/>
			</g>
			<g id="Symbol_206_0_Layer222_0_FILL">
				<path class="st8" d="M707.9,66.7c-0.1,0.7,0.1,1,0.7,1c0.5,0.1,0.9-0.2,1.2-0.5c0-0.6,0.1-0.7,0.3-0.3c0.3,0.6,0.7,0.9,1.1,0.7
					c0.3,0.2,0.7,0,0.9-0.3c0-0.1,0.1-0.2,0.1-0.3c0.1-0.5,0.4-0.8,1-0.6h9.9v-0.4c-27-0.2-61.9-0.2-104.7-0.2h-105h-12
					c-4.9,0-8.8,0-11.7-0.2h-0.5l-0.3,0.3c-0.1,0-0.2,0.2-0.2,0.3c0,0,0,0,0,0.1c21.5,0.2,58,0.3,109.6,0.2
					C645.8,66.2,682.3,66.3,707.9,66.7z"/>
			</g>
			<g id="Symbol_206_0_Layer221_0_FILL">
				<path class="st8" d="M738.9,65.5h-10.4v0.4c1.5,0.4,3.1,0.6,4.6,0.7l4.8,0.5c0-0.2,0.3-0.5,0.8-1
					C739.2,65.8,739.3,65.6,738.9,65.5z"/>
			</g>
			<g id="Symbol_206_0_Layer220_0_FILL">
				<path class="st18" d="M84.4,64.3l-2.2,1.8l-2.2,1.8l-0.5,0.4c0.5,0.5,1.3,0.4,2.2-0.4l1.3-1.9C83.3,65.4,83.8,64.8,84.4,64.3z"
					/>
			</g>
			<g id="Symbol_206_0_Layer219_0_FILL">
				<path class="st18" d="M104.5,65.1h-1.4l1.2,1.6l1.2,1.6h1.7c-0.1-0.5-0.6-1-1.5-1.4c-0.9-0.4-1.4-0.9-1.5-1.4
					C104.7,65.6,104.9,65.4,104.5,65.1z"/>
			</g>
			<g id="Symbol_206_0_Layer218_0_FILL">
				<path class="st9" d="M29.2,68.6l-2.4,0.1l0.7,0.2l-6.6,0.2v0.6l8.3,0.5c2.7-0.1,5.3-0.1,8,0.2L37,69.5l-0.5-0.5
					c-0.5-0.3-0.9-0.8-1.2-1.3c-0.3-0.5-0.6-1-1-1.5c-0.2,0.1-0.3,0.2-0.1,0.4l0.1,0.6l0.5,1c0.2,0.4,0.2,0.6,0,0.8h-1.4l-1.2,0.2
					l-1.2,0.2C30.5,69.2,29.9,68.9,29.2,68.6z"/>
			</g>
			<g id="Symbol_206_0_Layer217_0_FILL">
				<path class="st16" d="M298.1,66.3h-0.5c-6.2,0.2-14.6,0.2-25.2,0.2h-25.5c-1-0.1-1.9-0.1-2.9,0h-25.2c-10.5,0-18.8-0.1-25-0.2
					h-74.1h-4.6l-4.3,0.3v0.2c0.6,0.6,1.3,1.1,2.1,1.4h92.2c37.6,0,68.1-0.1,91.6-0.5c0-0.1,0.1-0.2,0.3-0.2L298.1,66.3z"/>
			</g>
			<g id="Symbol_206_0_Layer216_0_FILL">
				<path class="st3" d="M296.4,68.3h0.7c0.2-0.4,0.4-0.8,0.7-1.1l0.9-0.9h-0.7l-1.1,1.2C296.9,68,296.8,68.3,296.4,68.3z"/>
			</g>
			<g id="Symbol_206_0_Layer215_0_FILL">
				<path class="st5" d="M103.1,65.1h-0.4l0.1,0.5l-0.1,0.5c0.8,0.6,1.4,1.3,1.9,2.2h0.9l-1.2-1.6L103.1,65.1z"/>
			</g>
			<g id="Symbol_206_0_Layer214_0_FILL">
				<path class="st16" d="M466.7,67.7l-0.2,0.3l-0.2,0.3l3.1,0.4c1.1,0,2.1,0.3,3.1,0.8c-0.4-1.2-1.6-2.1-3.5-2.8
					c-0.4,0.1-0.8,0.4-1.1,0.7C467.4,67.8,467,67.9,466.7,67.7z"/>
			</g>
			<g id="Symbol_206_0_Layer213_0_FILL">
				<path class="st16" d="M90.6,63.1c0,0.2-0.3,0.5-0.9,0.9c-0.6,0.4-0.6,0.6-0.3,0.9c-0.2,0.5-0.2,1.1-0.2,1.6c0.1,0.5,0,1-0.3,1.4
					l-0.7,0.4l2,0.2h2.3l0.4-0.9c0-0.4,0.1-0.7,0.3-1h0.2c-0.9-1-1.8-1.8-2.9-2.6V63.1z"/>
			</g>
			<g id="Symbol_206_0_Layer212_0_FILL">
				<path class="st16" d="M306.4,68.3h3.8c0-0.3-0.1-0.6-0.4-0.8c-0.3-0.2-0.4-0.5-0.4-0.8c-0.4,0.1-0.8,0.3-0.9,0.7
					c-0.1,0.4-0.5,0.7-0.9,0.7c0.1-0.5,0.4-1,0.8-1.3c0.4-0.3,0.4-0.9,0.1-1.3C307.1,65.7,306.2,67,306.4,68.3z"/>
			</g>
			<g id="Symbol_206_0_Layer211_0_FILL">
				<path class="st9" d="M760.9,71.1v-1h-3.1l-1.7-0.1l-0.8-0.4l-1.9-0.1c-0.1,0-0.2,0.2-0.2,0.4l-0.8,0.1l-0.8,0.4
					c-0.5,0.1-0.9,0-1-0.2c-0.1-0.2-0.6-0.2-1.4-0.2l-1.4-0.2l0.7-1.6v-0.7l0.2-0.5c-0.6,0.3-1,0.8-1.2,1.5
					c-0.3,0.9-0.7,1.4-1.2,1.5l-0.7,1c0.1,0.3,0.2,0.4,0.5,0.4l6.9-0.2L760.9,71.1z"/>
			</g>
			<g id="Symbol_206_0_Layer210_0_FILL">
				<path class="st16" d="M84.4,64.1v0.2c-0.6,0.5-1.1,1.1-1.5,1.7l-1.3,1.9l-0.3,0.6h6.4l-1.3-1.4l-1.4-1.4
					c0.3-0.4,0.4-0.9,0.3-1.4C85.1,63.6,84.9,63.6,84.4,64.1z"/>
			</g>
			<g id="Symbol_206_0_Layer209_0_FILL">
				<path class="st16" d="M317,70.7c0.1-0.3,0.4-0.6,0.7-0.8l0.7-0.8c0-1.1,0.4-2.2,1.1-3l2.2-2.2c-1.9,0.5-3.8,1.3-5.5,2.3
					c-1.6,0.9-2.7,2.5-3.1,4.3l1.8,0.2L317,70.7z"/>
			</g>
			<g id="Symbol_206_0_Layer208_0_FILL">
				<path class="st0" d="M58,68.1c-7.1,0-12.9,0.1-17.2,0.2h34.1c0.1,0.2,0,0.4-0.2,0.5l-0.3,0.3c-0.2,0.4-0.3,0.8-0.2,1.2
					c0,0.4,0.3,0.8,0.7,0.8h0.5c0.2-0.1,0.3-0.4,0.3-0.9s0.1-0.7,0.4-0.7l0.3-0.4c-0.1-0.2-0.4-0.3-0.7-0.1
					c-0.2,0.1-0.4,0.3-0.5,0.5c-0.3-0.1-0.4-0.3-0.1-0.5l0.6-0.4c-0.4,0-0.5-0.1-0.3-0.2c0.2-0.1,0.3-0.3,0-0.4L58,68.1z"/>
			</g>
			<g id="Symbol_206_0_Layer207_0_FILL">
				<path class="st13" d="M42.7,68.9l4.3-0.1c8-0.4,15.9-0.4,23.9,0l3.6,0.2l0.3-0.3c0.2-0.1,0.2-0.3,0.2-0.5H40.8
					c-0.8,0.1-1.6,0.3-2.3,0.7c-0.9,0.4-1.5,0.3-1.8-0.3l-0.2,0.4l0.5,0.5l0.2,0.8l-8.1,0.2c-2.7-0.1-5.5,0-8.2,0.2v0.6l1.2,0.2
					h16.6c0.4-0.3,0.4-0.8,0-1.4c-0.4-0.6-0.4-0.9-0.3-1L42.7,68.9z"/>
			</g>
			<g id="Symbol_206_0_Layer206_0_FILL">
				<path class="st13" d="M98.6,69.9l-11.1,0.5H76.9h-0.7v-0.8c-0.3,0-0.5,0.2-0.4,0.7s0,0.9-0.3,0.9h-0.5l0.2,0.2h24.4
					c0.2-0.3,0.1-0.5-0.2-0.7C99,70.5,98.6,70.1,98.6,69.9z"/>
			</g>
			<g id="Symbol_206_0_Layer205_0_FILL">
				<path class="st16" d="M483.9,70.1l-0.6-0.5l-4,0.2l-4.2,1v-0.6c0-0.2-0.2-0.3-0.5-0.2s-0.3,0.3-0.3,0.5l0.3,0.7l4.9-0.2l4.8-0.3
					C484.3,70.4,484.2,70.2,483.9,70.1z"/>
			</g>
			<g id="Symbol_206_0_Layer204_0_FILL">
				<path class="st11" d="M746.9,13.3h14v-0.2h-7.1L746.9,13.3z"/>
			</g>
			<g id="Symbol_206_0_Layer203_0_FILL">
				<path class="st3" d="M760.9,14.5v-0.2H755l-5.7,0.2c-0.1,0.8,0.1,1.3,0.7,1.4l-0.2-0.7c-0.1-0.2,0-0.5,0.2-0.7L760.9,14.5z"/>
			</g>
			<g id="Symbol_206_0_Layer202_0_FILL">
				<path class="st24" d="M20.9,15.5v0.2h15.1l-7.4-0.3L20.9,15.5z"/>
			</g>
			<g id="Symbol_206_0_Layer201_0_FILL">
				<path class="st10" d="M316.5,15.7c2.5,0.2,5.8,0.2,10.2,0.2h10.5c-2.5-0.2-5.8-0.2-10.2-0.2L316.5,15.7z"/>
			</g>
			<g id="Symbol_206_0_Layer199_0_FILL">
				<path class="st12" d="M76.1,16.3c-0.1,0-0.2,0-0.3,0.2l10.5,0.1l10.2-0.3H76.1z"/>
			</g>
			<g id="Symbol_206_0_Layer198_0_FILL">
				<path class="st13" d="M343.5,17.1v-0.2h-3.5c-1.4,0.1-2.3-0.1-2.7-0.6c-0.8,0.4-1.7,0.6-2.6,0.5h-3.2h-7.4l-7.2-0.2l-0.8,0.2
					l-0.6,0.4l1.2,0.2c0.6,0,0.9,0.1,0.9,0.4v-0.4c0.4-0.2,0.9-0.3,1.4-0.2h0.7c4.8-0.4,9.6-0.4,14.5,0h0.9c0.3,0,0.5,0,0.5,0.2h0.2
					L343.5,17.1z"/>
			</g>
			<g id="Symbol_206_0_Layer196_0_FILL">
				<path class="st25" d="M319.8,17.1h14.5C329.5,16.7,324.7,16.7,319.8,17.1z"/>
			</g>
			<g id="Symbol_206_0_Layer194_0_FILL">
				<path class="st18" d="M478.4,17.3l-0.5-0.3l-0.7-0.1c-0.1,0.3,0,0.5,0.1,0.8l0.1,0.7l-0.4-0.1l-0.5-0.1h-0.5l0.2,0.2l0.3,0.2
					h0.9l0.1,0.3l0.1,0.1c0.9,0.3,0.9,1,0.2,2.2l-1.8,2.6l-0.8-0.3c-0.3-0.1-0.6-0.4-0.8-0.7l0-1.1l0.2-0.9c-0.4,0-0.7,0.1-1,0.3
					l-0.4,0.5l-1-0.9c-0.4-0.3-0.7-0.6-0.8-1.1l0.6-1.2l0.3-1.5h-0.9l-0.2,0.8l-1.4,2.2l2.3,3.2c0.8,1,1.8,2,2.8,2.8
					c1.8-0.8,3.3-2.1,4.3-3.8C480.1,20.5,479.8,18.4,478.4,17.3z"/>
			</g>
			<g id="Symbol_206_0_Layer193_0_FILL">
				<path class="st18" d="M531.8,17.3v-0.2h-31.5v0.2L531.8,17.3z"/>
			</g>
			<g id="Symbol_206_0_Layer192_0_FILL">
				<path class="st26" d="M458.5,17.5h1.3l1-0.3H371v0.3H458.5z"/>
			</g>
			<g id="Symbol_206_0_Layer191_0_FILL">
				<path class="st10" d="M42.7,16.5c-0.1,0.4,0,0.8,0.2,1.2h3.3l-2.1-0.2l-1-0.3C42.9,17.2,42.8,16.9,42.7,16.5 M59.1,17.7
					l-7.6-0.2L48,17.7H59.1z"/>
			</g>
			<g id="Symbol_206_0_Layer190_0_FILL">
				<path class="st10" d="M102.9,17.7H137v-0.2h-17.2C112.8,17.4,107.2,17.5,102.9,17.7z"/>
			</g>
			<g id="Symbol_206_0_Layer186_0_FILL">
				<path class="st1" d="M423.2,17.7c14.7,0,26.5-0.1,35.3-0.2h-70.9v0.2H423.2z"/>
			</g>
			<g id="Symbol_206_0_Layer185_0_FILL">
				<path class="st18" d="M231.3,17.9v-0.2h-42.9c5.3,0.2,12.4,0.2,21.3,0.2L231.3,17.9z"/>
			</g>
			<g id="Symbol_206_0_Layer183_0_FILL">
				<path class="st5" d="M475.9,18.1h0.5l-1.4-3h-1.2c-0.3,0.4-0.5,0.9-0.5,1.5l-0.4,1.5h0.9l0,0.5l0.2,0.3c-0.1-0.6,0.1-1,0.6-1.1
					C475.1,17.7,475.6,17.8,475.9,18.1z"/>
			</g>
			<g id="Symbol_206_0_Layer182_0_FILL">
				<path class="st18" d="M330.8,17.7c0.1,0.5,0,1-0.2,1.5l-0.5,1.7c0.8,0,1.4-0.5,1.7-1.2c0.4-0.6,0.3-1.4-0.3-2H330.8z"/>
			</g>
			<g id="Symbol_206_0_Layer181_0_FILL">
				<path class="st9" d="M324.5,18.9c0.4,0.9,0.9,1.3,1.5,1.2c0.1-0.5,0-1-0.3-1.5c-0.3-0.5-0.4-0.9-0.1-1.1l-3.1-0.2h-3.4
					c-0.1,0.3,0.3,0.5,1.4,0.6h2.9C323.8,17.7,324.2,18.1,324.5,18.9z"/>
			</g>
			<g id="Symbol_206_0_Layer180_0_FILL">
				<path class="st6" d="M397.6,18.5v-0.2h-33.2c-0.2,0-0.3,0-0.3,0.2H397.6z"/>
			</g>
			<g id="Symbol_206_0_Layer179_0_FILL">
				<path class="st19" d="M346.9,18.5c-0.1,0.4,0,0.6,0.2,0.6v-0.2l8.4-0.2l8.7,0.1v-0.2H346.9z"/>
			</g>
			<g id="Symbol_206_0_Layer178_0_FILL">
				<path class="st16" d="M444,19.1c-0.7,0.6-1.5,0.8-2.4,0.8l-2.8-0.1h-68l-12.1,0.2l-11.6-0.6l-0.3,0.7l-0.4,0.7l9.1,0.2
					c3-0.1,6.1-0.1,9.1,0.2v0.2h7.5c3.4-0.2,8-0.2,13.8-0.2h62.2c-1.2-0.6-2.2-1.5-2.8-2.6h-81.3v0.2l40.1-0.1
					C420.7,18.6,434,18.7,444,19.1z"/>
			</g>
			<g id="Symbol_206_0_Layer177_0_FILL">
				<path class="st16" d="M468.4,25.5c0.3,0,0.5-0.2,0.5-0.6v-1h-0.5c-0.8-1.2-2-2.2-3.4-2.9c-1.9-1-2.9-1.9-3.3-2.5h-2.2l0.4,0.4
					l0.4,0.4C462.8,21.7,465.5,23.7,468.4,25.5z"/>
			</g>
			<g id="Symbol_206_0_Layer176_0_FILL">
				<path class="st8" d="M701.5,19.5l15,0.3l14.5-0.4l1,0.1c0.4,0,0.5-0.3,0.5-0.7h-98l-7.5-0.2H491.8l0.3,0.4
					c1.1,0.5,2.2,0.8,3.4,0.8l3.5-0.1H701.5z"/>
			</g>
			<g id="Symbol_206_0_Layer175_0_FILL">
				<path class="st19" d="M642.2,18.5h-15.1l7.5,0.2h7.7L642.2,18.5z"/>
			</g>
			<g id="Symbol_206_0_Layer174_0_FILL">
				<path class="st23" d="M678.5,18.7v-0.2h-36.3v0.2H678.5z"/>
			</g>
			<g id="Symbol_206_0_Layer173_0_FILL">
				<path class="st22" d="M706.7,18.7v-0.2h-28.2v0.2H706.7z"/>
			</g>
			<g id="Symbol_206_0_Layer172_0_FILL">
				<path class="st25" d="M706.7,18.5v0.2h24.6c-3-0.2-7.1-0.3-12.1-0.3L706.7,18.5z"/>
			</g>
			<g id="Symbol_206_0_Layer171_0_FILL">
				<path class="st15" d="M738.4,18.7c-0.1-0.2-0.5-0.3-1-0.3l-1.1,0.3c-0.2,0.2-0.3,0.6-0.3,0.9c0,0.4,0.2,0.7,0.5,0.7
					C737.8,20.3,738.4,19.7,738.4,18.7z"/>
			</g>
			<g id="Symbol_206_0_Layer170_0_FILL">
				<path class="st23" d="M104.5,19.1l16.1,0.3H137v-0.3H104.5z"/>
			</g>
			<g id="Symbol_206_0_Layer169_0_FILL">
				<path class="st19" d="M193.4,19.3v-0.2H137v0.2L193.4,19.3z"/>
			</g>
			<g id="Symbol_206_0_Layer168_0_FILL">
				<path class="st5" d="M193.4,19.1v0.2l41.4-0.1L193.4,19.1z"/>
			</g>
			<g id="Symbol_206_0_Layer167_0_FILL">
				<path class="st16" d="M323.4,17.9h-0.2l-1.2,0.2h-1.4c0.4,0.6,0.9,1.1,1.5,1.5l1.8,1.3c0-0.4,0.1-0.5,0.3-0.6l-0.5-1.1
					C323.4,18.8,323.3,18.3,323.4,17.9z"/>
			</g>
			<g id="Symbol_206_0_Layer166_0_FILL">
				<path class="st16" d="M21.9,22.7c0.1-0.7,0.2-1.4,0.4-2c0.2-0.5,0.2-1.1,0-1.6L21.9,19l-0.3-0.1c-0.2,0.6-0.3,1.2-0.3,1.8v2
					L21.9,22.7z"/>
			</g>
			<g id="Symbol_206_0_Layer165_0_FILL">
				<path class="st18" d="M101.2,20.7c0.1-0.3,0.2-0.6,0.5-0.8c0.3-0.2,0.4-0.5,0.5-0.8l-2.2,0.1c-0.5,0.5-1,1-1.6,1.3
					c0.4,0.2,0.8,0.3,1.3,0.2L101.2,20.7z"/>
			</g>
			<g id="Symbol_206_0_Layer164_0_FILL">
				<path class="st18" d="M309.4,18.9h-2.4c0.8,0.3,1.4,0.9,1.7,1.6h-1.4v0.2h3.8c0.3-0.1,0.2-0.4-0.3-0.9
					C310.4,19.4,309.9,19.1,309.4,18.9z"/>
			</g>
			<g id="Symbol_206_0_Layer163_0_FILL">
				<path class="st19" d="M244.8,20.7h20.8C258.7,20.3,251.7,20.3,244.8,20.7z"/>
			</g>
			<g id="Symbol_206_0_Layer162_0_FILL">
				<path class="st6" d="M287.5,20.4l-15.1,0.3h30.5C298.4,20.4,293.3,20.4,287.5,20.4 M307.3,20.8l-3-0.2c0.9,0,1.9,0.2,2.8,0.6
					C307.2,21.3,307.3,21.2,307.3,20.8L307.3,20.8z"/>
			</g>
			<g id="Symbol_206_0_Layer161_0_FILL">
				<path class="st25" d="M248.3,20.7h-17.8v0.2h17.8V20.7z"/>
			</g>
			<g id="Symbol_206_0_Layer160_0_FILL">
				<path class="st25" d="M722.6,20.8v-0.2h-68.7v0.2H722.6z"/>
			</g>
			<g id="Symbol_206_0_Layer159_0_FILL">
				<path class="st5" d="M760.9,16.9c-0.2,0.1-0.3,0.2-0.4,0.1c-0.2-0.1-0.4-0.1-0.5-0.1c0.1,0.5,0,0.9-0.3,1
					c-0.3,0-0.6,0.2-0.9,0.4c0.1,0.4,0.2,0.6,0.4,0.7l1-0.1c0.1,0.4,0,0.9-0.3,1.2l-1.2,0.1c-0.2,0.2-0.2,0.4,0.1,0.7l0.6,0.7
					c0.9,0,1.3-0.1,1.2-0.6h0.3V16.9z"/>
			</g>
			<g id="Symbol_206_0_Layer158_0_FILL">
				<path class="st23" d="M345.9,21.1h18.8c-3-0.2-6.1-0.3-9.1-0.2l-9.1-0.2L345.9,21.1z"/>
			</g>
			<g id="Symbol_206_0_Layer157_0_FILL">
				<path class="st0" d="M364.7,21.1h-18.9l9.3,0.3h9.6V21.1z"/>
			</g>
			<g id="Symbol_206_0_Layer156_0_FILL">
				<path class="st22" d="M400.2,21.3v-0.2H386c-5.8,0-10.4,0.1-13.8,0.2L400.2,21.3z"/>
			</g>
			<g id="Symbol_206_0_Layer155_0_FILL">
				<path class="st1" d="M456.3,21.1h-31v0.2h31.3L456.3,21.1z"/>
			</g>
			<g id="Symbol_206_0_Layer154_0_FILL">
				<path class="st7" d="M146,22.1v-0.2h-24.5c-10.2,0-18.3,0.1-24.3,0.2L146,22.1z"/>
			</g>
			<g id="Symbol_206_0_Layer151_0_FILL">
				<path class="st7" d="M518.4,22.1v-0.2h-15.9c-6.6,0-11.8,0.1-15.6,0.2L518.4,22.1z"/>
			</g>
			<g id="Symbol_206_0_Layer150_0_FILL">
				<path class="st27" d="M518.4,21.8v0.2h14.9v-0.2H518.4z"/>
			</g>
			<g id="Symbol_206_0_Layer149_0_FILL">
				<path class="st3" d="M639.2,22.1v-0.2H533.3v0.2H639.2z"/>
			</g>
			<g id="Symbol_206_0_Layer148_0_FILL">
				<path class="st5" d="M97.2,18.1H96l-2.1,2.4c-0.9,1-1.7,1-2.5,0.2L91,21l-0.5,0.3c-0.1,0.1-0.2,0.4,0,0.9c0.1,0.4,0,0.8-0.2,1.1
					h0.9l-0.3-0.4c-0.1-0.1-0.1-0.2,0.1-0.4h0.8c0.3,0,0.4,0.1,0.3,0.4l2.3-2.5L97.2,18.1z"/>
			</g>
			<g id="Symbol_206_0_Layer145_0_FILL">
				<path class="st15" d="M327.7,37.2V26.5h-0.8v31.3c0.1,0.2-0.1,0.4-0.4,0.4l-0.3-0.4c-0.4-0.2-0.7-0.6-0.7-1.1v-1.7
					c-0.4,0.1-0.6,0.4-0.5,1v1.5l0.1,3.5c-0.1,1,0.1,2.1,0.4,3.1c0.7,0.3,1.2,1,1.2,1.8c0.5,0.1,1-0.1,1.4-0.3
					c0.4-0.2,0.8-0.4,1.2-0.5l0.3-3v-3.2v-2.7v-3.2h-0.5l-0.1,3.4c-0.1,0.9-0.6,1.8-1.3,2.4V49C327.2,45.1,327.2,41.1,327.7,37.2
					 M326.4,63.3c-0.4-0.6-0.6-1.3-0.4-2c0.6,0.3,1.1,0.8,1.4,1.4c0.5,0.1,1-0.1,1.2-0.6c0.2,0.1,0.3,0.5,0.3,1l0,1.2
					c-0.2,0-0.5,0-0.6,0.2l-0.8,0.2L326.4,63.3 M327.7,61.7l-1.2-1.2c-0.6-0.4-0.8-1.2-0.5-1.8c0.2,0.5,0.8,0.8,1.3,0.8
					c0.5,0,1.1-0.3,1.3-0.8c0.3,0.6,0.4,1.2,0.2,1.9C328.7,61.4,328.4,61.7,327.7,61.7L327.7,61.7z"/>
			</g>
			<g id="Symbol_206_0_Layer144_0_FILL">
				<path class="st7" d="M752.9,27.7c0-0.4-0.1-0.6-0.3-0.6v30.5l0.2-0.2l0-0.4V27.7z"/>
			</g>
			<g id="Symbol_206_0_Layer142_0_FILL">
				<path class="st7" d="M30.2,28.2c-0.1,0-0.2,0-0.3,0.2v29.7h0.3V28.2z"/>
			</g>
			<g id="Symbol_206_0_Layer141_0_FILL">
				<path class="st18" d="M20.9,29.7v3.1l0.4,0.2l0.3,0.3c0.5-0.1,0.7,0,0.7,0.2l1.1,0.5l1,0.5c0.4,0.4,0.9,0.6,1.4,0.5
					c0.5,0,1-0.2,1.4-0.5l0.5-0.4c0.2-0.4,0.5-0.7,0.9-0.8v-3.8c-0.7,1.3-2.1,2.1-3.6,1.9C23.6,31.1,22.2,30.6,20.9,29.7z"/>
			</g>
			<g id="Symbol_206_0_Layer140_0_FILL">
				<path class="st23" d="M325.8,29.2c-0.1,0-0.2,0.1-0.2,0.3V30l-0.4-0.1l-0.3-0.1v27.7h0.2V56c0-0.6,0.1-1,0.5-1
					C324.7,43.4,324.8,34.9,325.8,29.2z"/>
			</g>
			<g id="Symbol_206_0_Layer139_0_FILL">
				<path class="st5" d="M87.5,32c-0.2-0.4-0.3-0.8-0.3-1.2v-1.5h-0.7c-0.5,0.1-0.8,0-1-0.2v0.2l1.2,0.2l-0.3,3.1
					c-0.1,0.9-0.4,1.7-0.9,2.5v3.7c-0.1,1.2,0,2.3,0.2,3.5v-3.2c-0.2-0.9-0.2-1.9,0-2.8l0.9-0.4l0.4-1.5c0-0.5,0.1-1,0.3-1.5
					L87.5,32z"/>
			</g>
			<g id="Symbol_206_0_Layer138_0_FILL">
				<path class="st16" d="M86.8,41.8c0-0.4,0.1-0.5,0.3-0.6c0.8-1.8,1-4.6,0.5-8.4c-0.2,0.4-0.4,1-0.3,1.5l-0.4,1.5l-0.9,0.4
					c-0.2,0.9-0.2,1.9,0,2.8v3.2v0.6l0.5-0.5C86.4,42.1,86.6,41.9,86.8,41.8z"/>
			</g>
			<g id="Symbol_206_0_Layer136_0_FILL">
				<path class="st0" d="M323.2,32.4l0,12.8c-0.1,4.1,0,8.2,0.5,12.3c-0.1-1.4,0-5.7,0.1-12.8C323.9,40.6,323.7,36.5,323.2,32.4z"/>
			</g>
			<g id="Symbol_206_0_Layer135_0_FILL">
				<path class="st27" d="M93.2,38.2V26.5c-0.2,1.9-0.3,3.8-0.3,5.8v6L93.2,38.2z"/>
			</g>
			<g id="Symbol_206_0_Layer134_0_FILL">
				<path class="st23" d="M473.8,26.1c-0.2,1.9-0.2,3.9-0.1,5.8c0.2,2,0.2,4.1,0.1,6.1c0.3-1.9,0.4-3.9,0.3-5.9
					C473.9,28.9,473.8,26.9,473.8,26.1z"/>
			</g>
			<g id="Symbol_206_0_Layer132_0_FILL">
				<path class="st19" d="M84.9,40.4h-0.3v16l0.3-7.9V40.4z"/>
			</g>
			<g id="Symbol_206_0_Layer131_0_FILL">
				<path class="st0" d="M470.1,33c-0.4,4.8-0.4,9.7,0,14.6V33z"/>
			</g>
			<g id="Symbol_206_0_Layer130_0_FILL">
				<path class="st25" d="M478.1,47.4V36l-0.3-11.2V46c0.2,0.4,0.1,0.8-0.1,1.1l-0.5,0.7l0.3-0.3C477.6,47.3,477.8,47.3,478.1,47.4z
					"/>
			</g>
			<g id="Symbol_206_0_Layer128_0_FILL">
				<path class="st21" d="M87.2,51.9c-0.1-1.4,0-2.8,0.5-4.2l-0.9-0.9l-1-0.9c-0.1,0.5,0,1,0.3,1.4l0.8,1v4.2c-0.1,1.3,0,2.7,0.2,4
					L87.2,51.9z"/>
			</g>
			<g id="Symbol_206_0_Layer127_0_FILL">
				<path class="st10" d="M329.8,48.8c-0.2,0-0.3-0.2-0.2-0.6l-0.3-0.6c-0.2,0.8-0.3,1.7-0.3,2.5l0,2.8h0.5c-0.1-0.7,0-1.4,0.1-2.1
					L329.8,48.8z"/>
			</g>
			<g id="Symbol_206_0_Layer126_0_FILL">
				<path class="st28" d="M91.8,59.5c0.4-6.3,0.4-12.7,0-19V59.5z"/>
			</g>
			<g id="Symbol_206_0_Layer125_0_FILL">
				<path class="st18" d="M478.6,51.4c-0.6,0.6-1.3,1.2-2,1.6c-0.7,0.4-1.4,1-1.8,1.8h1.9c0.6-0.3,1.2-0.5,1.9-0.5
					c0,0.7-0.4,1.4-1.1,1.5l-2.6,0.3c-0.1,0.1,0,0.3,0.1,0.4c0,0,0,0,0,0l0.3,0.3h0.3l0.3,0.6V58h0.9c0.4-0.2,0.8-0.3,1.2-0.2
					c0.2,0.5,0,1.2-0.6,1.4c0,0,0,0,0,0c-0.6,0.3-1.2,0.3-1.8,0c-0.1,0.3,0,0.5,0.3,0.7c0.2,0.2,0.3,0.4,0.2,0.7l1.1-0.4
					c0.4-0.2,0.7-0.3,0.7-0.2v1.4c0,0.6,0,1,0.2,1.2c-0.1-1.9,0-3.7,0.3-5.6C478.6,55.1,478.7,53.2,478.6,51.4z"/>
			</g>
			<g id="Symbol_206_0_Layer124_0_FILL">
				<path class="st5" d="M27.3,34.4C27,34.8,26.5,35,25.9,35c-0.5,0.1-1.1-0.1-1.4-0.5l0.3,7.7l0,7.9c0.1,0.3,0.4,0.3,1,0.2
					c0.6-0.2,1.1-0.1,1.3,0.3l0.1,0.8l-0.1,0.7l-4,0.2l-0.3-0.5l-0.4-0.5c-0.2,0.6,0,1.2,0.5,1.6l0.6,0.2h0.8
					c0.2-0.5,0.5-0.7,0.9-0.6l1.7,0.2c0.4-0.2,0.7-0.7,0.6-1.2l-0.2-1.4L27.3,34.4 M25.7,35.2c0.4,0,0.7-0.1,0.7-0.2
					c0.6,2.1,0.8,4.3,0.7,6.5c0,1.8-0.3,3.5-0.7,5.3c-0.7-1.7-1-3.5-0.9-5.3L25.7,35.2z"/>
			</g>
			<g id="Symbol_206_0_Layer123_0_FILL">
				<path class="st16" d="M755.5,33.2l-0.9-0.8c-0.2,2.6-0.3,6.1-0.3,10.4v10.7h0.4l3.8-0.6c-0.2-0.5-0.5-0.7-0.9-0.7l-1.7,0.3
					c-0.5-0.6-0.7-1.9-0.5-3.7c0.2-1.5,0.2-3.1,0.1-4.6h-0.3c-0.5-0.4-0.6-0.9-0.2-1.6c0.3-0.5,0.5-1.1,0.5-1.7l-0.3-1.7V39l0.3-2.8
					L755.5,33.2z"/>
			</g>
			<g id="Symbol_206_0_Layer122_0_FILL">
				<path class="st16" d="M28.5,33.8L27.8,34l-0.5,0.4V50l0.2,1.4c0.1,0.5-0.2,1-0.6,1.2l-1.7-0.2c-0.4-0.1-0.7,0.2-0.9,0.6l2.3,0.4
					l2,0.2L28.5,33.8z"/>
			</g>
			<g id="Symbol_206_0_Layer121_0_FILL">
				<path class="st16" d="M25.1,54l-3.5-0.9l-0.2,0.3v0.5l6.9,2c0.3,0.1,0.5,0,0.5-0.4v-0.8L25.1,54z"/>
			</g>
			<g id="Symbol_206_0_Layer120_0_FILL">
				<path class="st19" d="M754.1,32v21.7c0.5,0,0.7,0,0.7-0.2h-0.4V42.9c0-4.4,0.1-7.8,0.3-10.4L754.1,32z"/>
			</g>
			<g id="Symbol_206_0_Layer119_0_FILL">
				<path class="st16" d="M760.9,53.2c-1.1,0.5-2.2,0.8-3.4,1l-3.5,0.8v0.8c0,0.3,0.2,0.4,0.5,0.4l6.4-2L760.9,53.2z"/>
			</g>
			<g id="Symbol_206_0_Layer117_0_FILL">
				<path class="st15" d="M20.9,59.1v0.6l0.4,0.2h0.6c0.2,0,0.4,0.1,0.4,0.2l2.4,0.2c0.7,0.8,1.4,1.8,1.9,2.8c0.9,1,1.6,2.1,2.2,3.3
					c0.5,1.2,1.3,2.3,2.3,3.1l1.2-0.2c-0.5-1.8-1.5-3.5-2.8-4.9c-1.3-1.4-2.4-3-3.1-4.7C24.6,59.2,22.8,59.1,20.9,59.1z"/>
			</g>
			<g id="Symbol_206_0_Layer116_0_FILL">
				<path class="st15" d="M476.7,58h-0.9c-0.6,0.6-0.9,1.4-0.6,2.3c0.3,0.8,0.3,1.7-0.1,2.5h-1c-0.1,0.4-0.1,0.8,0.1,1.1
					c0.1,0.4,0.1,0.6-0.1,0.7c-0.6-0.2-0.8-0.7-0.6-1.7s0-1.6-0.4-1.7v0.4c-0.3,4.9,0.6,7,2.6,6.3c0.9-3.3,1-5.8,0.2-7.3
					c0.1-0.3,0-0.5-0.2-0.7c-0.2-0.2-0.3-0.4-0.3-0.7c0.6,0.3,1.2,0.3,1.8,0c0.5-0.2,0.8-0.8,0.6-1.4c0,0,0,0,0,0
					C477.4,57.7,477,57.8,476.7,58z"/>
			</g>
			<g id="Symbol_206_0_Layer115_0_FILL">
				<path class="st7" d="M331.7,47.6h-0.2l0,7.5c-0.1,2.4,0,4.8,0.3,7.3V47.6z"/>
			</g>
			<g id="Symbol_206_0_Layer114_0_FILL">
				<path class="st18" d="M327.4,62.7c-0.3-0.6-0.8-1.1-1.4-1.4c-0.2,0.7,0,1.4,0.4,2l1,1.4l0.8-0.2c0.2-0.2,0.4-0.2,0.6-0.2
					l0.1-1.3c0-0.5-0.1-0.8-0.3-1C328.4,62.5,327.9,62.8,327.4,62.7z"/>
			</g>
			<g id="Symbol_206_0_Layer112_0_FILL">
				<path class="st1" d="M324.8,30.8c-0.2,4-0.3,9.3-0.3,16v16.3c0.3-0.9,0.4-1.8,0.3-2.7l0-3V30.8z"/>
			</g>
			<g id="Symbol_206_0_Layer111_0_FILL">
				<path class="st2" d="M330.1,30.2c-0.2,0-0.3,0-0.3,0.2v18.3l-0.1,2.1c-0.1,0.7-0.2,1.4-0.1,2.1v3.2v2.7c0.3,0.7,0.4,1.5,0.2,2.2
					c-0.1,0.7,0,1.5,0.3,2.2V30.2z"/>
			</g>
			<g id="Symbol_206_0_Layer106_0_FILL">
				<path class="st24" d="M233.9,63.9v0.2l52.5-0.1L233.9,63.9z"/>
			</g>
			<g id="Symbol_206_0_Layer105_0_FILL">
				<path class="st16" d="M331.7,64.4c-0.2-0.1-0.3-0.3-0.3-0.5c0,0,0,0,0,0c1.1-0.1,2.3,0.6,3.5,2.1l2.4,2.9l1.2,0.2
					c0.5,0,0.6-0.3,0.4-0.8v-0.2c-1-2.6-4-4.2-9-4.8c-0.3-0.7-0.4-1.5-0.3-2.2c0.2-0.7,0.1-1.5-0.2-2.2v3.2l-0.3,3l0.4,0.5l0.5,0.3
					l-0.3,0.5c-0.2,0.1-0.3,0.3-0.3,0.5l1,1c0.4,0.2,0.7,0.6,0.9,1l1.3,0l1.1,0.2c-0.1-1-0.5-1.9-1.3-2.5l-2.5-2l0.8-0.1l0.8,0.4
					C332,64.7,331.9,64.5,331.7,64.4z"/>
			</g>
			<g id="Symbol_206_0_Layer104_0_FILL">
				<path class="st13" d="M601.8,64.2h4.5l13.5-0.2v0.2l-13.5-0.1L601.8,64.2l-53.9,0L601.8,64.2 M619.8,64.1l-13.5,0.1l13.5,0.1
					V64.1z"/>
			</g>
			<g id="Symbol_206_0_Layer103_0_FILL">
				<path class="st12" d="M674.9,64.3v-0.2h-55.2v0.2L674.9,64.3z"/>
			</g>
			<g id="Symbol_206_0_Layer101_0_FILL">
				<path class="st10" d="M732.5,64.1v0.2h7.6l7.4-0.3L732.5,64.1z"/>
			</g>
			<g id="Symbol_206_0_Layer100_0_FILL">
				<path class="st16" d="M325.6,64.1c-0.3-1-0.5-2-0.4-3.1l-0.1-3.5h-0.2l0,3c0.1,0.9,0,1.8-0.3,2.7c-2.1,1.4-3.7,3.4-4.5,5.8
					l-0.4,1.8h2.4l0.7-1.9c0.1-0.7,0.7-1.3,1.4-1.3c0.2,0.1,0.3-0.1,0.2-0.4c-0.1-0.3,0-0.4,0.2-0.4c-0.2-0.4-0.1-0.9,0.1-1.2
					L325.6,64.1z"/>
			</g>
			<g id="Symbol_206_0_Layer98_0_FILL">
				<path class="st15" d="M89.2,66.5c-0.1-0.5,0-1.1,0.2-1.6c-0.2-0.2-0.5-0.3-0.8-0.3c-0.3,0-0.6,0.1-0.8,0.3v0.8
					c0,0.2,0.2,0.4,0.4,0.4l-0.5,0.3c-0.2,0.1-0.3,0.4-0.2,0.7c0,0.6,0.5,0.9,1.4,0.8C89.2,67.5,89.3,67,89.2,66.5z"/>
			</g>
			<g id="Symbol_206_0_Layer97_0_FILL">
				<path class="st0" d="M374.3,64.5h-36.5C350,64.9,362.2,64.9,374.3,64.5z"/>
			</g>
			<g id="Symbol_206_0_Layer96_0_FILL">
				<path class="st23" d="M108.6,65.1l0.3,0.6l0.3,0.6c0.6-0.8,2.1-1.2,4.5-1.1l5.9,0.1h4.5v-0.2H108.6z"/>
			</g>
			<g id="Symbol_206_0_Layer95_0_FILL">
				<path class="st23" d="M236.9,65.3v-0.2h-71.8v0.2L236.9,65.3z"/>
			</g>
			<g id="Symbol_206_0_Layer94_0_FILL">
				<path class="st19" d="M290.7,65.3l5.6-0.1c2,0,2.9,0.4,2.5,1.1l0.8-0.5c0.4-0.1,0.7-0.2,1-0.5v-0.2h-63.7v0.2L290.7,65.3z"/>
			</g>
			<g id="Symbol_206_0_Layer93_0_FILL">
				<path class="st16" d="M760.9,63.5v-3l-2.6,0.2c-0.8,0.7-1.5,1.6-1.9,2.6c0,0.7-0.2,1.3-0.6,1.9c-0.4,0.5-0.7,1.1-0.8,1.7
					c0.9-0.4,1.7-0.9,2.4-1.5l2.3-2.1l0.6,0.1L760.9,63.5z"/>
			</g>
			<g id="Symbol_206_0_Layer92_0_FILL">
				<path class="st25" d="M349,65.5l0.3,0.2h31.2v-0.2H349z"/>
			</g>
			<g id="Symbol_206_0_Layer91_0_FILL">
				<path class="st1" d="M446.4,65.7l0.3-0.2h-66.1v0.2H446.4z"/>
			</g>
			<g id="Symbol_206_0_Layer90_0_FILL">
				<path class="st19" d="M501.4,65.7h12v-0.2h-23.7C492.6,65.7,496.5,65.8,501.4,65.7z"/>
			</g>
			<g id="Symbol_206_0_Layer89_0_FILL">
				<path class="st5" d="M723,65.9v0.4h0.3c0.1-0.3,0.2-0.4,0.2-0.4l-8.2-0.4h-8.8h-193v0.2h105C661.2,65.7,696,65.7,723,65.9z"/>
			</g>
			<g id="Symbol_206_0_Layer88_0_FILL">
				<path class="st8" d="M272.4,66.5c10.5,0,18.9-0.1,25.2-0.2h-25.5c-10.4,0-18.8,0.1-25.2,0.3L272.4,66.5z"/>
			</g>
			<g id="Symbol_206_0_Layer87_0_FILL">
				<path class="st16" d="M722.9,67l0.3-0.7h-10.2c-0.6-0.2-0.9,0-1,0.6c0,0.4-0.3,0.6-0.7,0.6c-0.1,0-0.2,0-0.3-0.1
					c-0.4,0.2-0.8-0.1-1.1-0.7c-0.2-0.3-0.3-0.2-0.3,0.3l-0.2,0.6l6.1,0.1c3.3-0.4,5.5-0.4,6.7-0.1h0.3L722.9,67z"/>
			</g>
			<g id="Symbol_206_0_Layer86_0_FILL">
				<path class="st16" d="M741.5,68.3h4.2l1.4-2.2v-0.6h-3.3L741.5,68.3z"/>
			</g>
			<g id="Symbol_206_0_Layer85_0_FILL">
				<path class="st16" d="M728.5,65.9v-0.4h-0.3l0,0.9c0,0.4-0.1,0.6-0.3,0.7l-0.2-1c-0.1-0.4-0.3-0.6-0.7-0.6h-0.7
					c-0.5,0.6-0.7,1.3-0.7,2c1.7,0.4,3.4,0.7,5.1,0.8l5.8,0.1h0.3l0.8-0.4c0.3-0.2,0.4-0.5,0.3-0.9l-4.8-0.5
					C731.6,66.5,730,66.3,728.5,65.9z"/>
			</g>
			<g id="Symbol_206_0_Layer84_0_FILL">
				<path class="st6" d="M46.3,67.3v0.2h21.6v-0.2H46.3z"/>
			</g>
			<g id="Symbol_206_0_Layer83_0_FILL">
				<path class="st15" d="M329.8,66.9c-1,0.5-1.9,1.4-2.4,2.4l-1.2-1.5c-0.4-0.6-1-1-1.7-1.1c-0.2,0-0.3,0.1-0.2,0.4s0,0.4-0.2,0.4
					l-0.2,1l0,1l4.3,0.3c1.2,0,2.5-0.3,3.5-1c-0.2-0.4-0.5-0.8-0.9-1L329.8,66.9z"/>
			</g>
			<g id="Symbol_206_0_Layer82_0_FILL">
				<path class="st23" d="M696.9,67.8l2.7,0.1c1.9,0.1,3.8,0.1,5.8-0.1H696.9 M687,67.7l9.9,0.1l-4.5-0.1L687,67.7 M716.6,67.7h5.8
					C720.4,67.4,718.5,67.4,716.6,67.7 M715.7,67.8l0.9-0.1h-6.8C711.8,68,713.7,68,715.7,67.8 M705.4,67.7h4.5l-0.3-0.1l0.2-0.6
					c-0.3,0.4-0.7,0.6-1.2,0.5c-0.6,0-0.8-0.3-0.7-1l-0.3,0.9l-1.3,0.1L705.4,67.7z"/>
			</g>
			<g id="Symbol_206_0_Layer81_0_FILL">
				<path class="st16" d="M459.9,67.9c-0.2-0.3-0.3-0.6-0.3-1l-1.1,1.4l1.7,0.2h2l0.4-0.8c0-0.3,0.2-0.6,0.4-0.8
					c-0.6-0.2-1.2-0.1-1.7,0.3C460.9,67.6,460.4,67.8,459.9,67.9z"/>
			</g>
			<g id="Symbol_206_0_Layer80_0_FILL">
				<path class="st16" d="M475.9,70.1c0.9-0.6,1.8-1,2.8-1.3l2.7-0.9l-0.9-0.1c-0.4-0.2-0.8-0.4-1.3-0.4c-0.8,0.1-1.5,0.5-2,1
					L475.9,70.1z"/>
			</g>
			<g id="Symbol_206_0_Layer79_0_FILL">
				<path class="st16" d="M103.1,68.3l-1.4-2.6v0.8L97,66.3C97.8,68,99.9,68.7,103.1,68.3z"/>
			</g>
			<g id="Symbol_206_0_Layer78_0_FILL">
				<path class="st23" d="M296.4,68.3c0.4,0,0.6-0.3,0.5-0.8c-0.2,0-0.3,0.1-0.3,0.2c-23.5,0.4-54,0.5-91.6,0.5l-92.2-0.1v0.2
					L296.4,68.3z"/>
			</g>
			<g id="Symbol_206_0_Layer77_0_FILL">
				<path class="st23" d="M348.5,68.3v0.2h16.3l-8-0.3L348.5,68.3z"/>
			</g>
			<g id="Symbol_206_0_Layer76_0_FILL">
				<path class="st2" d="M423.4,68.7v-0.2h-50.4v0.2H423.4z"/>
			</g>
			<g id="Symbol_206_0_Layer75_0_FILL">
				<path class="st1" d="M423.4,68.5v0.2h10.5c4.3,0,7.7,0,10.2,0.2v-0.4H423.4z"/>
			</g>
			<g id="Symbol_206_0_Layer74_0_FILL">
				<path class="st4" d="M21.4,63.3v-3.4l-0.5-0.2v9.4l6.6-0.2l-0.7-0.2l2.4-0.1c0.7,0.2,1.3,0.6,1.9,0.9c-1-0.9-1.8-1.9-2.3-3.1
					c-0.6-1.2-1.3-2.3-2.2-3.3c-0.1,0.3,0,0.8,0.4,1.3c0.4,0.4,0.6,0.9,0.8,1.5c0.6,0.6,1,1.2,1.2,2h-3v-0.6c-0.5-0.6-1.2-1-1.9-1
					l-2.1-0.4C21.5,65.1,21.4,64.2,21.4,63.3z"/>
			</g>
			<g id="Symbol_206_0_Layer73_0_FILL">
				<path class="st27" d="M47,68.9h23.9C62.9,68.5,55,68.5,47,68.9z"/>
			</g>
			<g id="Symbol_206_0_Layer72_0_FILL">
				<path class="st12" d="M136.1,69.5h39.5C162.4,69.1,149.3,69.1,136.1,69.5z"/>
			</g>
			<g id="Symbol_206_0_Layer71_0_FILL">
				<path class="st24" d="M367,69.3v0.2h32.2v-0.2H367z"/>
			</g>
			<g id="Symbol_206_0_Layer70_0_FILL">
				<path class="st11" d="M425.5,69.5v-0.2h-26.3v0.2H425.5z"/>
			</g>
			<g id="Symbol_206_0_Layer69_0_FILL">
				<path class="st7" d="M425.5,69.3v0.2h18.9c7.7,0,13.9,0.1,18.6,0.2l0.3-0.4L425.5,69.3z"/>
			</g>
			<g id="Symbol_206_0_Layer68_0_FILL">
				<path class="st0" d="M677.1,69.5v-0.2h-54c-4.1,0-8,0-11.8,0.1L677.1,69.5z"/>
			</g>
			<g id="Symbol_206_0_Layer65_0_FILL">
				<path class="st7" d="M524.1,69.7v-0.2h-29.1l-5.1-0.3l-4.6,0.3c-0.1,0-0.2,0.1-0.3,0.3l0.3,0.3c0.1-0.3,0.2-0.4,0.3-0.4
					L524.1,69.7z"/>
			</g>
			<g id="Symbol_206_0_Layer62_0_FILL">
				<path class="st18" d="M98.6,69.9c0.1-0.2,0-0.3-0.2-0.4v0.4H87.6l-10.8,0.5h10.7L98.6,69.9z"/>
			</g>
			<g id="Symbol_206_0_Layer61_0_FILL">
				<path class="st18" d="M37.3,70.3c-2.7-0.2-5.3-0.3-8-0.2l-8.3-0.5v1c2.7-0.2,5.5-0.3,8.2-0.2L37.3,70.3z"/>
			</g>
			<g id="Symbol_206_0_Layer60_0_FILL">
				<path class="st3" d="M320.1,68.9c-0.3,0.2-0.4,0.2-0.4,0c-0.4,0-0.8,0-1.2,0.2l-0.7,0.8c-0.3,0.1-0.6,0.4-0.7,0.8h2.6
					L320.1,68.9z"/>
			</g>
			<g id="Symbol_206_0_Layer59_0_FILL">
				<path class="st16" d="M464.8,70.1c-0.2,0.3-0.3,0.6-0.3,1h8.3c-0.5-0.7-1.3-1.1-2.1-1.3l-3.1-0.5c0.1,0.5-0.1,1.1-0.6,1.3
					l-1.8,0.3c-0.1,0-0.2-0.2-0.2-0.4S465,70.1,464.8,70.1z"/>
			</g>
			<g id="Symbol_206_0_Layer58_0_FILL">
				<path class="st18" d="M724.7,68.5c-0.1-0.6,0-1.3,0.3-1.9c0.3-0.6,0.3-1,0-1.1c-0.6,0-1,0.4-1.2,1.2c-0.2,0.7-0.5,1.3-0.9,1.4
					c-0.2-0.1-0.2-0.2-0.2-0.4h-0.3c-30.2,0.2-69,0.3-116.6,0.3h-117c0,0.3-0.3,0.5-0.9,0.4c0.1-0.6-0.2-1.1-0.6-1.5
					c-0.5-0.5-0.7-0.9-0.5-1.1h1c0.4,0,0.6,0,0.6-0.2h-6.1c-0.2,0.2,0,0.6,0.6,1.3s0.7,1,0.3,1.1c-0.5,0.2-1,0-1.3-0.5l-0.8-0.9
					l-0.8-0.1l-1.4-0.1c-0.4,0-1,0.4-1.8,1.3c-0.7,0.6-1.1,0.7-1.3,0.3c-2,0.7-2.9-1.5-2.6-6.3c-0.6,1.3-0.7,2.8-0.2,4.2l0.9,3.4
					c-1-1.2-2.2-2.2-3.5-3l-1-0.1c-0.4-0.1-0.6-0.2-0.6-0.5l-1.1,1c-0.4,0.3-0.7,0.7-0.8,1.2c0.3,0.2,0.6,0.1,1-0.3
					c0.3-0.3,0.7-0.6,1.1-0.7c1.9,0.7,3.1,1.6,3.5,2.8c-1-0.5-2-0.8-3.1-0.8l-3.1-0.4l-1,0.1c-0.3,0-0.4,0.3-0.4,0.5l0.3,0.2
					l0.2,0.2c0.4-0.3,1.2-0.3,2.4,0l3.1,0.5c0.8,0.2,1.6,0.6,2.1,1.3c0.2,0,0.5,0.1,0.6,0.2c0.2,0.2,0.5,0.3,0.8,0.2l0.3-0.4
					l-0.3-0.7c-0.1-0.3,0-0.5,0.3-0.5s0.5,0,0.5,0.2v0.6l4.2-1l4-0.2c0.3-0.1,0.6-0.3,0.7-0.7c0.1-0.3,0.3-0.5,0.4-0.5l2.8,0.1
					l2.4,0.3c24.8-0.2,57-0.2,96.6-0.2h96.9L724.7,68.5 M479.3,67.3c0.4,0.1,0.9,0.2,1.3,0.4l0.9,0.1l-2.7,0.9
					c-1,0.3-1.9,0.8-2.8,1.4l1.3-1.7C477.8,67.8,478.5,67.4,479.3,67.3L479.3,67.3z"/>
			</g>
			<g id="Symbol_206_0_Layer56_0_FILL">
				<path class="st24" d="M22.1,71.5c5.5,0.4,11.1,0.4,16.6,0H22.1z"/>
			</g>
			<g id="Symbol_206_0_Layer55_0_FILL">
				<path class="st13" d="M746,71.5c-0.3,0-0.4-0.1-0.5-0.4c-0.3,0.1-0.5,0.5-0.4,0.8h15.9v-0.2h-7.6L746,71.5z"/>
			</g>
			<g id="Symbol_206_0_Layer54_0_FILL">
				<path class="st11" d="M313.9,72.1c9.1,0.4,18.2,0.4,27.2,0H313.9z"/>
			</g>
			<g id="Symbol_206_0_Layer53_0_FILL">
				<path class="st27" d="M463.2,72.3v0.2h21.7v-0.2H463.2z"/>
			</g>
			<g id="Symbol_206_0_Layer50_0_FILL">
				<path class="st23" d="M162.8,20.8v-0.2l-20.9,0c-8.5,0-15.4,0.1-20.6,0.2H162.8z"/>
			</g>
			<g id="Symbol_206_0_Layer49_0_FILL">
				<path class="st19" d="M22.4,60.1c0-0.1-0.2-0.2-0.4-0.2h-0.6v3.4c0,0.9,0.1,1.8,0.5,2.6c0.2-0.1,0.4-0.2,0.6-0.1l0.8,0.1
					l-0.6-1.1c-0.3-0.4-0.4-0.8-0.4-1.3c0.5,0.1,0.9,0.6,1.3,1.5c0.2,0.7,0.8,1.2,1.5,1.3c-0.2-0.2-0.3-0.3-0.3-0.5l0-0.7
					c0.5,0,1.1,0.2,1.4,0.6c0.5,0.4,0.8,1,0.9,1.6l-0.7,0.1c-0.3-0.2-0.4-0.2-0.4-0.1v0.6h3c-0.2-0.8-0.6-1.4-1.2-2
					c-0.9-0.3-1.7-0.7-2.4-1.2c-0.8-0.5-1.5-1.2-2.1-2l-0.8,0.1l-0.9,0.1v-2.8H22.4z"/>
			</g>
			<g id="Symbol_206_0_Layer48_0_FILL">
				<path class="st9" d="M82.6,18.7c-0.5-0.4-0.9-1-1-1.7l-2.7,0.3h-3v0.2c0.7,0.9,1.5,1.6,2.5,2.2c1,0.6,1.8,1.3,2.5,2.2
					c0.9,1,2,1.8,3.1,2.6l-0.6-0.8c-0.2-0.3,0-0.4,0.6-0.4c-0.3-0.3-0.3-0.7-0.1-1.1l0.8-0.9c0.1-0.2,0-0.4-0.3-0.6
					c-0.2-0.1-0.4-0.4-0.3-0.6L82.6,18.7z"/>
			</g>
			<g id="Symbol_206_0_Layer47_0_FILL">
				<path class="st8" d="M64.8,20.1l4.7,0.1c1.9-0.1,2.8-0.4,2.6-0.9l-6.6-0.5h-7.2h-8l-7.8-0.2l-1,1.2c-0.3,0.3-0.1,0.4,0.5,0.4
					h1.6L53.8,20L64.8,20.1z"/>
			</g>
			<g id="Symbol_206_0_Layer46_0_FILL">
				<path class="st9" d="M300.9,19.8c2.1-0.1,4.3,0.2,6.4,0.7h1.4c-0.3-0.8-0.9-1.3-1.7-1.6h-8.5l-7.9,0.3l-8.2,0h-23l-32.9,0.3
					h-33.2H137h-16.4l-16.1-0.3h-1.4l-0.4,0.5l-0.5,0.5c0,0.3,0.3,0.5,1.1,0.5l2-0.1l2.5-0.4c21.5-0.2,49.9-0.2,85.1-0.2h85.4
					l7.5-0.2l8.1,0.2L300.9,19.8z"/>
			</g>
			<g id="Symbol_206_0_Layer45_0_FILL">
				<path class="st9" d="M74,21.3v-0.2H40.1c-0.2,0-0.3,0-0.3,0.2L74,21.3z"/>
			</g>
			<g id="Symbol_206_0_Layer44_0_FILL">
				<path class="st8" d="M760.9,32.6V32l-1.2,0.4l-0.9,0.6c-0.6,0.5-0.8,1.6-0.7,3.3c0.2,1.2,0.1,2.5-0.2,3.7
					c0.2,0.2,0.3,0.5,0.2,0.7l-0.5,0.7h0.2v-0.1c0.4,1.3,0.5,2.7,0.3,4.1c-0.2,1.5-0.2,3.1,0,4.7h-1h-0.9c-0.3,0.1-0.5,0.3-0.5,0.6
					l-0.2,0.8c0.4,0.5,1,0.8,1.6,0.7l2.4,0.1c0.3-0.1,0.6-0.3,0.7-0.6c0.1-0.3,0.2-0.6,0.5-0.8l-0.1-6l-0.1-6.6l-0.2-2.9
					C760.3,34.4,760.5,33.5,760.9,32.6 M759.5,41.4l0.3-6.9c0.6,2.8,0.7,7.5,0.2,14.3C759.5,46.3,759.3,43.8,759.5,41.4L759.5,41.4z
					"/>
			</g>
			<g id="Symbol_206_0_Layer43_0_FILL">
				<path class="st9" d="M297.6,66.3h1.2c0.5-0.7-0.3-1.1-2.4-1.1l-5.6,0.1H185.3c-21.9,0.3-43.8,0.3-65.6,0l-5.9-0.1
					c-2.5-0.1-4,0.3-4.5,1.1l0.3,0.4h1.2v-0.2l4.3-0.3h4.6c22.1-0.3,44.2-0.3,66.3,0h7.9h25.3c10.3,0,18.6,0.1,24.9,0.3
					c1-0.1,1.9-0.1,2.9,0c6.4-0.2,14.8-0.3,25.2-0.3L297.6,66.3z"/>
			</g>
			<g id="Symbol_206_0_Layer41_0_FILL">
				<path class="st23" d="M387.6,17.7v-0.2h-23.7v0.2H387.6z"/>
			</g>
			<g id="Symbol_206_0_Layer39_0_FILL">
				<path class="st18" d="M446.7,18.9c-0.1-0.2,0-0.4,0.4-0.5c-0.3,0-0.6-0.1-0.9-0.3c-0.3-0.2-0.6-0.2-0.8,0v0.4
					c0.7,1.1,1.6,2,2.8,2.6h0.9c0.2-0.3,0-0.5-0.5-0.8l-1.1-0.8L446.7,18.9z"/>
			</g>
			<g id="Symbol_206_0_Layer38_0_FILL">
				<path class="st18" d="M20.9,54.9v4.2c1.8-0.1,3.7,0.1,5.4,0.6c0.8,1.7,1.8,3.3,3.1,4.7c1.3,1.4,2.3,3.1,2.8,4.9l1.2-0.2h1.5
					c0.2-0.2,0.2-0.5-0.1-0.8l-0.4-1c-0.9-0.9-1.8-1.9-2.5-3l-2.1-3.2c-1.6-2.4-4.2-3.9-7-4.3l-0.3-0.7c-0.2-0.2-0.2-0.4,0-0.5
					c-0.2-0.2-0.4-0.4-0.7-0.4L20.9,54.9z"/>
			</g>
			<g id="Symbol_206_0_Layer37_0_FILL">
				<path class="st18" d="M760.9,55.4l-0.5,0.1c-0.3,0-0.4,0.1-0.5,0.3l0.3,0.2c0.1,0.1,0.1,0.2-0.1,0.2c-0.5,0.8-1.4,1.4-2.4,1.6
					c-0.9,0.2-1.8,0.5-2.6,1c-1.4,1.3-2.5,2.9-3.4,4.7c-0.9,1.8-2.1,3.4-3.5,4.9l-0.7,1.6l1.4,0.2c0.8,0,1.3,0,1.4,0.2
					c0.5-1.9,1.4-3.7,2.8-5.2c1.3-1.5,2.4-3.2,3.1-5l2.2-0.3l2.3-0.3L760.9,55.4z"/>
			</g>
			<g id="Symbol_206_0_Layer36_0_FILL">
				<path class="st18" d="M46.3,67.5v-0.2c-0.5-0.3-1-0.7-1.4-1.1l-1.2-1.3l-0.2-0.1l0.2-0.1h2.6l-2.9-0.3c-1.1-0.1-1.9,0-2.3,0.3
					c0.7,0.2,1.3,0.5,1.7,1.1c0.4,0.5,0.8,1,1.4,1.3c0,0.2-0.2,0.3-0.6,0.3h-1c-0.3-0.5-0.6-1-1.1-1.3c-0.5-0.4-0.8-0.8-1.1-1.3
					c-0.3-0.3-0.6-0.5-1-0.7c-0.5-0.1-0.7,0.1-0.8,0.7h0.5c0.2,0.5,0.6,0.9,1,1.3c0.4,0.3,0.8,0.8,0.9,1.3L46.3,67.5z"/>
			</g>
			<g id="Symbol_206_0_Layer35_0_FILL">
				<path class="st18" d="M70.1,66.1l-1.4,1.3h3.7l3.4-0.2h-2.8l0.3-0.3c0.2-0.1,0.2-0.3,0.2-0.4l-0.2-0.3l-0.3-0.3
					c-0.6-0.1-0.9,0.1-0.9,0.4c-0.1-0.1-0.1-0.3,0.3-0.7l0.7-0.9c-0.3-0.7-0.8-0.7-1.7,0L70.1,66.1z"/>
			</g>
			<g id="Symbol_206_0_Layer34_0_FILL">
				<path class="st18" d="M447.1,66.5l0.5-0.8h3.5l-1.7,2.2l1.7,0.4h2.1c-0.6-0.3-1.2-0.4-1.9-0.4c0-0.3,0.1-0.6,0.2-0.9l0.5-0.7
					c0.6,0.6,1.4,0.9,2.2,1.2l2.5,0.8l0.8-0.6l-2.8-0.8c-0.8-0.2-1.6-0.6-2.2-1.2h3.3l3.1,0.2l0.2-0.1v-0.3l-6.6-0.1l-5.9,0.1
					l-0.3,0.2l-1.2,1.4c-0.4,0.4-0.8,0.9-1.1,1.4v0.4l0.1,0.2l0,0.2h0.5c0.8-0.6,3-0.8,6.7-0.6l5.1-0.4l-4.6,0.2h-5.2
					c0.9-0.6,1.6-1.4,1.9-2.4c-0.4-0.3-0.8,0-1.4,1C446.8,67,446.9,66.8,447.1,66.5z"/>
			</g>
			<g id="Symbol_206_0_Layer33_0_FILL">
				<path class="st18" d="M741.5,68.3l2.4-2.8h3.3v0.6c0.4-0.4,0.1-0.7-0.8-0.9l-3-0.1l-6.3,0.1l-4.6,0.3h6.4
					c0.4,0.1,0.3,0.3-0.1,0.6s-0.8,0.8-0.8,1c0.1,0.3-0.1,0.6-0.3,0.8l-0.8,0.4h1.9c0.3-0.5,0.7-1,1.1-1.3c0.5-0.3,0.9-0.9,1-1.4
					h1.7l-1.2,1.4l-1.2,1.4L741.5,68.3z"/>
			</g>
			<g id="Symbol_206_0_Layer32_0_FILL">
				<path class="st18" d="M725.6,67.5h-0.3l-0.1,0.6l-0.3,0.4h5.9l5.7-0.2l-5.8-0.1C729,68.2,727.3,67.9,725.6,67.5z"/>
			</g>
			<g id="Symbol_206_0_Layer31_0_FILL">
				<path class="st22" d="M760.9,71.7v-0.6l-8,0.2l-6.9,0.2l7.3,0.2L760.9,71.7z"/>
			</g>
			<g id="Symbol_206_0_Layer30_0_FILL">
				<path class="st8" d="M454.9,18.3l-3.8-0.3l-3.8,0.3c-0.5,0.1-0.7,0.3-0.6,0.6l0.8,0.6h6.9l0.7-0.4c0.2-0.2,0.2-0.3,0.1-0.4
					L454.9,18.3z"/>
			</g>
			<g id="Symbol_206_0_Layer29_0_FILL">
				<path class="st8" d="M43.7,64.9l1.2,1.3c0.4,0.4,0.9,0.8,1.4,1.1h20.1c0.4-0.5,0.8-0.9,1.3-1.3l1.3-1.3h-8.5l-8.2,0.3L43.7,64.9
					z"/>
			</g>
			<g id="Symbol_206_0_Layer28_0_FILL">
				<path class="st8" d="M465.3,69.3l-0.5,0.8c0.2,0,0.3,0.2,0.3,0.4c0,0.2,0.1,0.4,0.2,0.4l1.8-0.3c0.5-0.2,0.7-0.8,0.6-1.3
					C466.5,69,465.7,69,465.3,69.3z"/>
			</g>
			<g id="Symbol_206_0_Layer27_0_FILL">
				<path class="st16" d="M478.1,62.5c-0.2-0.2-0.3-0.5-0.2-1.2v-1.4c-0.1-0.1-0.3,0-0.7,0.2l-1.1,0.4c0.7,1.5,0.6,4-0.2,7.3
					c0.2,0.4,0.6,0.3,1.3-0.3c0.8-0.8,1.4-1.3,1.8-1.3c-0.4-0.1-0.8-0.3-1.1-0.6l-0.7-1c0.4-0.6,1-0.7,1.7-0.3l1.6,1.2L478.1,62.5z"
					/>
			</g>
			<g id="Symbol_206_0_Layer26_0_FILL">
				<path class="st16" d="M43.7,64.9h8.5l8.2-0.3H48.2l-1.1-0.1c-0.3-0.1-0.6,0-0.8,0.1h-2.6l-0.2,0.1L43.7,64.9z"/>
			</g>
			<g id="Symbol_206_0_Layer25_0_FILL">
				<path class="st16" d="M692.5,67.7l7.1,0.2l6.6-0.2l1.3-0.1l0.3-0.9c-25.5-0.4-62-0.5-109.5-0.4c-51.5,0.1-88,0.1-109.6-0.2
					c-0.1-0.1,0-0.3,0.1-0.3c0,0,0,0,0.1,0l0.3-0.3h-0.9c0,0.2-0.3,0.2-0.6,0.2h-1c-0.2,0.3,0,0.6,0.5,1.1c0.5,0.4,0.7,0.9,0.6,1.5
					c0.6,0.1,0.9-0.1,0.9-0.4c27.5-0.2,61.3-0.3,101.5-0.3H692.5z"/>
			</g>
			<g id="Symbol_206_0_Layer24_0_FILL">
				<path class="st22" d="M89.3,46.3c-0.3,0.6-0.8,1-1.4,1.3c0.4,1.3,0.6,2.6,0.5,4V56l0.3-4c0-1.7,0.4-2.8,1.2-3.2
					c0.2,0.9,0.3,1.9,0.3,2.9v3.1l0.2-0.3c0-0.2,0.1-0.3,0.3-0.3l-0.2-4.9c0-1.6,0-3.1,0.2-4.7h-0.3L89.3,46.3 M89.9,46.2
					c0.4,0.5,0.4,1.3,0,1.8l-1,1.4c-0.5-0.4-0.5-1.2-0.2-1.7L89.9,46.2z"/>
			</g>
			<g id="Symbol_206_0_Layer23_0_FILL">
				<path class="st24" d="M426.7,22.1v-0.2h-43.8v0.2H426.7z"/>
			</g>
			<g id="Symbol_206_0_Layer22_0_FILL">
				<path class="st11" d="M674.9,64.1v0.2h36v-0.2H674.9z"/>
			</g>
			<g id="Symbol_206_0_Layer21_0_FILL">
				<path class="st24" d="M422.7,64.5c18.5,0,33.4-0.1,44.5-0.2h-89.3v0.2H422.7z"/>
			</g>
			<g id="Symbol_206_0_Layer20_0_FILL">
				<path class="st2" d="M653.9,20.8v-0.2H490.2c-0.2,0-0.2,0-0.2,0.2H653.9z"/>
			</g>
			<g id="Symbol_206_0_Layer19_0_FILL">
				<path class="st29" d="M74.2,21.5L74,21.3H39.6v0.2H74.2z"/>
			</g>
			<g id="Symbol_206_0_Layer18_0_FILL">
				<path class="st24" d="M692.8,22.1l15.6-0.1l-69.2-0.2v0.3H692.8z"/>
			</g>
			<g id="Symbol_206_0_Layer17_0_FILL">
				<path class="st24" d="M524.1,69.5v0.2h41v-0.2H524.1z"/>
			</g>
			<g id="Symbol_206_0_Layer12_0_FILL">
				<path class="st22" d="M282.4,19.1v-0.2h-23v0.2H282.4z"/>
			</g>
			<g id="Symbol_206_0_Layer10_0_FILL">
				<path class="st15" d="M31.4,19.2l1.4-1.1l0.2-0.5l-0.2-0.7c-1.9,0.7-3.6,1.8-5.1,3.1c-1.5,1.3-3.1,2.4-4.9,3.3
					c-0.3,0-0.6-0.1-0.7-0.4c-0.5,0-0.8,0.2-0.7,0.7c0,0.4,0.2,0.7,0.5,0.9c1.6-0.1,3.1-0.8,4.4-1.8c1.1-0.9,2.4-1.7,3.7-2.4
					L31.4,19.2z"/>
			</g>
			<g id="Symbol_206_0_Layer9_0_FILL">
				<path class="st28" d="M68.8,21.9l9-0.2H58.6c-8,0-14.3-0.1-19-0.2v-0.2c-0.1,0-0.2,0.1-0.2,0.2c0.1,0.3,0.6,0.4,1.5,0.4l2.5-0.1
					h14.7L68.8,21.9z"/>
			</g>
			<g id="Symbol_206_0_Layer8_0_FILL">
				<path class="st3" d="M683.3,68.7v-0.2h-96.9c-5,0-9.8,0-14.5,0.1L683.3,68.7z"/>
			</g>
			<g id="Symbol_206_0_Layer7_0_FILL">
				<path d="M760.9,24.1v-1l-2.1,0.6c-0.8-1.2-1.9-2.3-3.2-3.1l-3.5-2.9c-0.3-0.4-0.6-0.8-1.1-1l-1.1-0.9c-0.6-0.1-0.8-0.6-0.7-1.4
					l5.7-0.2h5.9v-1h-14c-0.6-0.1-0.8,0.2-0.7,0.8l8,7c1.7,1,3.3,2.2,4.7,3.6l1-0.2L760.9,24.1z"/>
			</g>
			<g id="Symbol_206_0_Layer6_0_FILL">
				<path d="M101.2,17.5c0.6-0.6,0.7-1,0.3-1.2h-5l-10.2,0.3l-10.5-0.1l-1.4,0.1C74,16.7,73.9,17,74,17.5c0.2,1,0.8,1,1.7,0h0.2
					v-0.2h3l2.7-0.2l0.6,0.1l0.6,0.1h10.7c0.1-0.2,0.4-0.3,0.9-0.4c0.5-0.1,0.8,0,0.7,0.4h2.4l2.1,0.2
					C100.4,18.2,101,18.2,101.2,17.5z"/>
			</g>
			<g id="Symbol_206_0_Layer5_0_FILL">
				<path d="M21.4,53.9h-0.4v1l0.9,0.2c0.3,0.1,0.5,0.2,0.7,0.4l3.5,1c1,0.3,2,0.8,2.8,1.6l0.6,0.2c0.3,0.1,0.4,0,0.4-0.2v-1.4
					c0-0.3-0.3-0.4-0.6-0.5l-1-0.3L21.4,53.9z"/>
			</g>
			<g id="Symbol_206_0_Layer4_0_FILL">
				<path class="st1" d="M372.9,68.5h-24.4v0.2h24.4V68.5z"/>
			</g>
			<g id="Symbol_206_0_Layer3_0_FILL">
				<path class="st0" d="M683.3,68.5v0.2h7.7l7.4-0.2L683.3,68.5z"/>
			</g>
			<g id="Symbol_206_0_Layer2_0_FILL">
				<path class="st0" d="M390.7,21.3h-25.9C373.5,21.6,382.1,21.6,390.7,21.3z"/>
			</g>
			<g id="Symbol_206_0_Layer1_0_FILL">
				<path class="st0" d="M341.2,72.1l0.3-0.2h-27.9l0.1,0.2h0.3L341.2,72.1z"/>
			</g>
			<g id="Symbol_206_0_Layer0_0_FILL">
				<path class="st4" d="M760.9,26.1v-1.2c-0.4,0-0.8,0.1-1.1,0.3l-1,0.4c-0.4,0.3-1,0.1-1.7-0.6l-1.6-1.6l-10.2-7.8
					c0.1-0.2,0.3-0.2,0.8-0.2h1.1v-0.2l-2,0.1l-2,0.1c2.1,2.3,4.4,4.4,6.9,6.2c3.6,2.8,5.9,4.8,7.1,5.9l1.8-0.8
					C759.6,26.4,760.3,26.2,760.9,26.1z"/>
			</g>
		</g>
	</g>
</g>
</svg>
