<svg xmlns="http://www.w3.org/2000/svg" viewBox="0 0 1307.76 774.21"><defs><style>.cls-1{fill:none;stroke:#000;stroke-miterlimit:10;}</style></defs><title>Ativo 41</title><g id="Camada_2" data-name="Camada 2"><g id="Camada_1-2" data-name="Camada 1"><path d="M1289.07,7.21a3.7,3.7,0,0,1,3.69,3.7V757.52a3.69,3.69,0,0,1-3.69,3.69H18.46a3.7,3.7,0,0,1-3.7-3.69V10.91a3.7,3.7,0,0,1,3.7-3.7H1289.07m0-1H18.46a4.71,4.71,0,0,0-4.7,4.7V757.52a4.7,4.7,0,0,0,4.7,4.69H1289.07a4.69,4.69,0,0,0,4.69-4.69V10.91a4.7,4.7,0,0,0-4.69-4.7Z"/><line class="cls-1" x1="14.26" y1="757.71" x2="14.26" y2="764.71"/><line class="cls-1" x1="13.26" y1="764.71" x2="1294.26" y2="773.71"/><line class="cls-1" x1="1293.26" y1="756.71" x2="1293.26" y2="773.71"/><ellipse cx="16.26" cy="763.21" rx="2" ry="1.5"/><path d="M16.26,762.21c.8,0,1.5.47,1.5,1s-.7,1-1.5,1-1.5-.46-1.5-1,.7-1,1.5-1m0-1a2,2,0,1,0,0,4,2.05,2.05,0,1,0,0-4Z"/><rect x="14.26" y="762.71" width="1278" height="6"/><path d="M1291.76,763.21v5H14.76v-5h1277m1-1H13.76v7h1279v-7Z"/><path d="M14.93,761.71c-.14,0-.34-.26-.34-.66s.2-.67.34-.67.33.27.33.67S15.06,761.71,14.93,761.71Z"/><path d="M14.93,759.88c-.47,0-.84.52-.84,1.17s.37,1.16.84,1.16.83-.52.83-1.16-.37-1.17-.83-1.17Z"/><path d="M1289.8,763.87a1.4,1.4,0,0,1-1.36-.62.19.19,0,0,1,0-.16c.15-.38,1.19-.83,2-1.2l.52-.22.51-.23a4.52,4.52,0,0,1,1.36-.5c.08,0,.15,0,.25.23a1.23,1.23,0,0,1-.22,1.13,3.57,3.57,0,0,1-1.53,1.21A3.84,3.84,0,0,1,1289.8,763.87Z"/><path d="M1292.66,761.48a1,1,0,0,1-.21.54,3,3,0,0,1-1.31,1,3.34,3.34,0,0,1-1.34.31,1.41,1.41,0,0,1-.79-.19,10,10,0,0,1,1.64-.82l.52-.23.52-.24c.33-.15.72-.33,1-.41m.18-1a7.07,7.07,0,0,0-2.08.77c-1.53.69-3.21,1.27-2.78,2.25a1.87,1.87,0,0,0,1.82.91,4.34,4.34,0,0,0,1.75-.4c1.54-.68,2.43-2,2-3a.74.74,0,0,0-.71-.53Z"/><path d="M1296.6,13.77a1.4,1.4,0,0,1-1.39-.78c-.4-.79-.72-1.48-1-2.08-2-4.17-2.21-4.31-8.37-5.19-.69-.1-1.42-.56-1.39-1.12,0-.32.54-3.11,14.85-3.89h.63c3.91,0,7.34,2.11,7.34,4.51C1307.26,7.18,1300.09,13.77,1296.6,13.77Z"/><path d="M1299.92,1.2h0c4,0,6.84,2.11,6.84,4,0,1.51-6.67,8.06-10.16,8.06a.89.89,0,0,1-.94-.5c-.4-.79-.72-1.48-1-2.08-2.05-4.31-2.46-4.57-8.75-5.47-.61-.08-1-.44-1-.6s.73-2.67,14.39-3.41h.6m0-1h-.66c-18.5,1-16.23,5.61-13.5,6,7,1,6,1,9,7a1.9,1.9,0,0,0,1.84,1.06c3.79,0,11.16-6.79,11.16-9.06,0-2.63-3.46-5-7.84-5Z"/><path d="M11.16,13.58C7.67,13.58.5,7,.5,5,.5,2.61,3.93.5,7.84.5l.63,0c14.31.77,14.84,3.57,14.86,3.88,0,.57-.71,1-1.4,1.12-6.16.88-6.39,1-8.37,5.19-.28.6-.61,1.29-1,2.08a1.38,1.38,0,0,1-1.39.79Z"/><path d="M7.84,1l.61,0C22.1,1.75,22.83,4.4,22.83,4.43s-.37.51-1,.6c-6.29.9-6.7,1.15-8.75,5.47-.28.6-.61,1.28-1,2.07a.91.91,0,0,1-.95.51C7.67,13.08,1,6.53,1,5c0-1.9,2.81-4,6.84-4m0-1C3.46,0,0,2.39,0,5c0,2.27,7.38,9.06,11.16,9.06A1.9,1.9,0,0,0,13,13c3-6,2-6,9-7,2.73-.39,5-5-13.5-6L7.84,0Z"/></g></g></svg>