<?xml version="1.0" encoding="utf-8"?>
<!-- Generator: Adobe Illustrator 24.0.1, SVG Export Plug-In . SVG Version: 6.00 Build 0)  -->
<svg version="1.1" id="Camada_1" xmlns="http://www.w3.org/2000/svg" xmlns:xlink="http://www.w3.org/1999/xlink" x="0px" y="0px"
	 viewBox="0 0 62.6 42" style="enable-background:new 0 0 62.6 42;" xml:space="preserve">
<style type="text/css">
	.st0{fill:#5590E5;}
	.st1{fill:#2E5F99;}
	.st2{fill:#1C3E93;}
	.st3{opacity:0.67;fill:none;stroke:#000000;stroke-miterlimit:10;enable-background:new    ;}
	.st4{fill:none;stroke:#282828;stroke-width:0.5;stroke-miterlimit:10;}
	.st5{fill:#FFFFFF;}
</style>
<title>Ativo 31</title>
<g id="Camada_2_1_">
	<g id="Camada_1-2">
		<path class="st0" d="M15.9,8.5h30.8c1.6,0,2.9,1.3,2.9,2.9l0,0v19.8c0,1.3-1,2.3-2.3,2.3H14.8c-1,0-1.8-0.8-1.8-1.8V11.4
			C13,9.8,14.3,8.5,15.9,8.5z"/>
		<path class="st1" d="M41.6,9.7H20.5c-1.2,1.5-2.7,2.6-4.3,3.5h-0.1c0,0,0,0,0,0.1v16c-0.1,1.6,1.2,3,2.8,3.1h21.3
			c4,0,7.3-3.6,7.3-8v-8.2C47.5,12.6,44.8,9.7,41.6,9.7z"/>
		<g id="Symbol_228_0_Layer3_0_FILL">
			<path class="st2" d="M17.6,8.3h-2.5l-1,1.1l-0.9,1.4v3.8l0.3,8.4v8.7c0.3,0.9,1.1,1.5,2,1.7l3.4,0.2v-0.2
				c-2.9-0.4-4.4-2.9-4.6-7.5c-0.2-0.7-0.3-1.4-0.3-2.2v-2.5c-0.1-2.6,0-5.1,0.2-7.7c0.4-3,1.5-4.6,3.3-4.9V8.3H17.6z"/>
		</g>
		<path class="st3" d="M15.7,8.4h31.2c1.5,0,2.7,1.2,2.7,2.7v19.8c0,1.5-1.2,2.7-2.7,2.7H15.7c-1.5,0-2.7-1.2-2.7-2.7V11.1
			C13,9.6,14.2,8.4,15.7,8.4z"/>
		<path class="st1" d="M46.7,12.8l-3.1-1.9c-1.2-0.2-2.4-0.2-3.7-0.1l-5.4,0.1l0,0L21.9,11c-0.2,0-0.3,0-0.4,0.2h-2.1
			c-0.2-0.2-0.5-0.2-0.6,0l-0.1,0.1c-1.4,2.9-2.4,6.1-2.8,9.3c-0.2,0-0.3,0.1-0.4,0.2l-1.3,1.9c-0.1,0.2-0.1,0.5,0.2,0.6
			c0,0,0,0,0.1,0c0.2,0.1-0.2,0.6,0,0.3l1.3-1.4c0,0.4-0.1,0.9-0.1,1.3c0,0.3,0.2,0.5,0.5,0.5c0.1,0,0.2,0,0.3-0.1
			c0,1.5,0.5,3,1.4,4.2c1.5,1.9,3.6,3,6,3.1c3.1,0.4,6.4,0.1,9.5,0.2h3.7c1.5,0.1,3,0.1,4.5,0c1.2-0.1,2.3-0.5,3.2-1.2
			c0.8-0.7,1.5-1.7,1.9-2.7c0.9-2.5,1.3-5.1,1.3-7.7C48,17.7,48,14.8,46.7,12.8z M46.4,24.9c-0.4,2-1.2,4.3-3.2,5.2
			c-1.2,0.4-2.5,0.6-3.7,0.5h-4.1L27,30.5c-2.6,0-5.5,0-7.5-1.9c-1.7-1.6-2.4-4-1.8-6.3c0.1-0.3,0-0.5-0.3-0.6
			c-0.2-0.1-0.5,0-0.6,0.2c0.3-3.4,1.2-6.6,2.6-9.7c5,0.3,10,0.2,15-0.3l0,0l5.6-0.1c1.2-0.1,2.4-0.1,3.6,0.1
			c2.6,0.5,3.1,2.9,3.3,5.2C47.1,19.7,46.9,22.3,46.4,24.9z"/>
		<path class="st4" d="M31.7,16.1L31.7,16.1L31.7,16.1c-0.2,0.2-0.2,0.4-0.2,0.6c0,0.2,0.1,0.4,0.3,0.5c0.1,0.1,0.3,0.2,0.5,0.3
			c0.2,0,0.4-0.1,0.5-0.2c1-1.1,1.6-2.5,1.7-4c0.2-1.2-0.2-2.3-1-3.2C33.9,12.3,32.6,14.5,31.7,16.1z M26.7,13.2
			c0.1,0.9,0.3,1.7,0.6,2.5c0.4-0.4,0.8-0.8,1.2-1.1c-0.7-1.4-1-3-0.8-4.5C26.9,10.9,26.5,12,26.7,13.2L26.7,13.2z M30.4,14.5
			c-0.4,0.1-0.7,0.2-1,0.4c-0.6,0.4-1.1,0.9-1.6,1.4c-0.6,0.6-1.1,1.2-1.6,1.9l4.3,0.4l3.6,0.3l0.7,0.1c-0.3-0.6-0.6-1.2-1-1.7
			c-0.1,0.2-0.3,0.3-0.4,0.5l0,0c-0.3,0.3-0.7,0.5-1.2,0.5c-0.4,0-0.7-0.2-1-0.5s-0.4-0.6-0.5-1c0-0.4,0.1-0.8,0.4-1.1
			c0.1-0.2,0.3-0.5,0.4-0.7c-0.3-0.2-0.7-0.4-1-0.5H30.4z M31,15.7L31,15.7L31,15.7L31,15.7z M25.3,19.7l10.1,0.8
			c-0.1-0.2-0.1-0.5-0.2-0.7L34,19.7l-3.6-0.3L25.7,19C25.5,19.2,25.4,19.5,25.3,19.7L25.3,19.7z M30.7,20.9c0.1,2.5-0.6,5-2.1,7
			c1,0.1,2,0.4,2.9,0.9c1,0.6,1.9,1.4,2.7,2.1l0.8-0.4c-0.7-0.8-1.3-1.7-1.9-2.6c0.7,0.6,1.9,1.5,2.9,2.2l0.7-0.3
			c-0.2-0.3-0.3-0.7-0.5-1.1c0.4,0.3,0.8,0.5,1.2,0.7l0.7-0.5l-2.6-2.4c1.1,0.7,2.3,1.4,3.5,1.9c0.2-0.2,0.4-0.3,0.6-0.5
			c-0.6-0.4-1.2-0.8-1.8-1.3c0.8,0.2,1.6,0.4,2.3,0.6c0.2-0.4,0.3-0.8,0.3-1.2c-2.2-0.9-3.9-2.5-5-4.6L30.7,20.9z M25.4,21
			c-0.3,0.4-0.6,0.9-0.9,1.4c0.4,0.2,0.9,0.3,1.4,0.3h0.8c0,0,0,0,0-0.1c0.1-0.3,0.2-0.6,0.4-0.9H27l-0.7-0.3L25.4,21L25.4,21z
			 M29.9,21.5L28,21.6c-0.3,0.4-0.5,0.8-0.6,1.2c0,0.4,0,0.8,0.1,1.1c0,0.1,0,0.1,0,0.2h0.1c0.7-0.2,1.3-0.4,1.9-0.8
			c0.1-0.1,0.2-0.2,0.3-0.3C29.9,22.5,30,22,29.9,21.5L29.9,21.5z M26.6,22.7L26,23.4l0.7,0.6l0,0C26.6,23.7,26.5,23.2,26.6,22.7
			L26.6,22.7z M24.4,23.9c-0.1,0.3-0.2,0.5-0.2,0.8c0.8,0.9,1.8,1.6,3,1.9c0.3,0.1,0.7,0.2,1,0.3l0.2-0.3c-1.3-0.9-2.5-1.9-3.6-3
			C24.7,23.6,24.5,23.7,24.4,23.9z M27.9,24.7l-0.2,0.1c0.4,0.3,0.8,0.6,1.2,1c0.3-0.5,0.5-1,0.6-1.6C29,24.4,28.4,24.6,27.9,24.7
			L27.9,24.7z M24.5,26.2c-0.1,0.6-0.2,1.2-0.1,1.9v0.2l-0.2,0.1c-0.3,0.2-0.5,0.5-0.5,0.8c-0.1,0.2-0.1,0.5-0.2,0.8
			c0.3,0.3,0.6,0.5,0.9,0.6c0.5-0.4,0.8-0.9,1.1-1.5c0.3,0.5,0.2,1.2-0.1,1.6c0.2,0,0.5,0,0.8,0c0.5-0.5,1-1,1.5-1.5
			c-0.2,0.5-0.4,1-0.7,1.5c0.3,0,0.7-0.1,1-0.1c0.4-0.1,0.8-0.3,1-0.7c0.2-0.3,0.4-0.6,0.6-1c-0.4-0.1-1-0.2-1.6-0.3l-0.6-0.1
			l0.1-0.6c0.1-0.1,0.2-0.3,0.3-0.4L27,27.3C26.1,27.1,25.3,26.7,24.5,26.2z"/>
		<path class="st5" d="M31.7,16.1L31.7,16.1L31.7,16.1c-0.2,0.2-0.2,0.4-0.2,0.6c0,0.2,0.1,0.4,0.3,0.5c0.1,0.1,0.3,0.2,0.5,0.3
			c0.2,0,0.4-0.1,0.5-0.2c1-1.1,1.6-2.5,1.7-4c0.2-1.2-0.2-2.3-1-3.2C33.9,12.3,32.6,14.5,31.7,16.1z M26.7,13.2
			c0.1,0.9,0.3,1.7,0.6,2.5c0.4-0.4,0.8-0.8,1.2-1.1c-0.7-1.4-1-3-0.8-4.5C26.9,10.9,26.5,12,26.7,13.2L26.7,13.2z M30.4,14.5
			c-0.4,0.1-0.7,0.2-1,0.4c-0.6,0.4-1.1,0.9-1.6,1.4c-0.6,0.6-1.1,1.2-1.6,1.9l4.3,0.4l3.6,0.3l0.7,0.1c-0.3-0.6-0.6-1.2-1-1.7
			c-0.1,0.2-0.3,0.3-0.4,0.5l0,0c-0.3,0.3-0.7,0.5-1.2,0.5c-0.4,0-0.7-0.2-1-0.5s-0.4-0.6-0.5-1c0-0.4,0.1-0.8,0.4-1.1
			c0.1-0.2,0.3-0.5,0.4-0.7c-0.3-0.2-0.7-0.4-1-0.5H30.4z M31,15.7L31,15.7L31,15.7L31,15.7z M25.3,19.7l10.1,0.8
			c-0.1-0.2-0.1-0.5-0.2-0.7L34,19.7l-3.6-0.3L25.7,19C25.5,19.2,25.4,19.5,25.3,19.7L25.3,19.7z M30.7,20.9c0.1,2.5-0.6,5-2.1,7
			c1,0.1,2,0.4,2.9,0.9c1,0.6,1.9,1.4,2.7,2.1l0.8-0.4c-0.7-0.8-1.3-1.7-1.9-2.6c0.7,0.6,1.9,1.5,2.9,2.2l0.7-0.3
			c-0.2-0.3-0.3-0.7-0.5-1.1c0.4,0.3,0.8,0.5,1.2,0.7l0.7-0.5l-2.6-2.4c1.1,0.7,2.3,1.4,3.5,1.9c0.2-0.2,0.4-0.3,0.6-0.5
			c-0.6-0.4-1.2-0.8-1.8-1.3c0.8,0.2,1.6,0.4,2.3,0.6c0.2-0.4,0.3-0.8,0.3-1.2c-2.2-0.9-3.9-2.5-5-4.6L30.7,20.9z M25.4,21
			c-0.3,0.4-0.6,0.9-0.9,1.4c0.4,0.2,0.9,0.3,1.4,0.3h0.8c0,0,0,0,0-0.1c0.1-0.3,0.2-0.6,0.4-0.9H27l-0.7-0.3L25.4,21L25.4,21z
			 M29.9,21.5L28,21.6c-0.3,0.4-0.5,0.8-0.6,1.2c0,0.4,0,0.8,0.1,1.1c0,0.1,0,0.1,0,0.2h0.1c0.7-0.2,1.3-0.4,1.9-0.8
			c0.1-0.1,0.2-0.2,0.3-0.3C29.9,22.5,30,22,29.9,21.5L29.9,21.5z M26.6,22.7L26,23.4l0.7,0.6l0,0C26.6,23.7,26.5,23.2,26.6,22.7
			L26.6,22.7z M24.4,23.9c-0.1,0.3-0.2,0.5-0.2,0.8c0.8,0.9,1.8,1.6,3,1.9c0.3,0.1,0.7,0.2,1,0.3l0.2-0.3c-1.3-0.9-2.5-1.9-3.6-3
			C24.7,23.6,24.5,23.7,24.4,23.9z M27.9,24.7l-0.2,0.1c0.4,0.3,0.8,0.6,1.2,1c0.3-0.5,0.5-1,0.6-1.6C29,24.4,28.4,24.6,27.9,24.7
			L27.9,24.7z M24.5,26.2c-0.1,0.6-0.2,1.2-0.1,1.9v0.2l-0.2,0.1c-0.3,0.2-0.5,0.5-0.5,0.8c-0.1,0.2-0.1,0.5-0.2,0.8
			c0.3,0.3,0.6,0.5,0.9,0.6c0.5-0.4,0.8-0.9,1.1-1.5c0.3,0.5,0.2,1.2-0.1,1.6c0.2,0,0.5,0,0.8,0c0.5-0.5,1-1,1.5-1.5
			c-0.2,0.5-0.4,1-0.7,1.5c0.3,0,0.7-0.1,1-0.1c0.4-0.1,0.8-0.3,1-0.7c0.2-0.3,0.4-0.6,0.6-1c-0.4-0.1-1-0.2-1.6-0.3l-0.6-0.1
			l0.1-0.6c0.1-0.1,0.2-0.3,0.3-0.4L27,27.3C26.1,27.1,25.3,26.7,24.5,26.2z"/>
	</g>
</g>
</svg>
