<svg xmlns="http://www.w3.org/2000/svg" viewBox="0 0 333.39 65.71"><title>Ativo 5teste</title><g id="Camada_2" data-name="Camada 2"><g id="Camada_1-2" data-name="Camada 1"><path d="M21.24.58A1.75,1.75,0,0,0,23,1.12a.49.49,0,0,1,.52.47.48.48,0,0,1,0,.12,2.16,2.16,0,0,0,.79,2.13" style="fill:none;stroke:#1a1f02;stroke-width:2px"/><path d="M24.26,3.84q-8.86.31-12.2.59A3,3,0,0,0,9.05,7" style="fill:none;stroke:#883f00;stroke-width:2px"/><path d="M9.05,7A3,3,0,0,0,7.2,9.6" style="fill:none;stroke:#643700;stroke-width:2px"/><path d="M7.2,9.6c-3.07,1.24-1.67,4.08-1.75,6.28q-.75,19.63.19,26.48a34.14,34.14,0,0,1,.29,8.45,7.05,7.05,0,0,0,.21,3.43,3.56,3.56,0,0,0,2.74,2.34" style="fill:none;stroke:#413001;stroke-width:2px"/><path d="M8.88,56.58A14.1,14.1,0,0,1,14.72,60a1.52,1.52,0,0,0,.87.44,113.43,113.43,0,0,0,13.4.74c12.21,0,20.14.28,30.26.61" style="fill:none;stroke:#643700;stroke-width:2px"/><path d="M59.25,61.74l-14.75,3" style="fill:none;stroke:#131501;stroke-width:2px"/><path d="M209.54.58A3.41,3.41,0,0,1,206.6,2a.61.61,0,0,0-.56.39l-.24.58h0l.28.1a.12.12,0,0,1,.09.14.11.11,0,0,1-.13.1l-37.55.15" style="fill:none;stroke:#141b02;stroke-width:2px"/><path d="M168.5,3.43H50.24" style="fill:none;stroke:#7d3702;stroke-width:2px"/><path d="M50.24,3.43l-19.79.41" style="fill:none;stroke:#845112;stroke-width:2px"/><path d="M30.45,3.84H24.26" style="fill:none;stroke:#7d3702;stroke-width:2px"/><path d="M29.26,6.21l-4.61.53a1.7,1.7,0,0,0-.9.39,5,5,0,0,1-2.31,1.09,2.82,2.82,0,0,0-.88.32l-3.93,2.22a1.12,1.12,0,0,0-.57,1,2.7,2.7,0,0,0,.48,1.59" style="fill:none;stroke:#e29643;stroke-width:2px"/><path d="M16.54,13.33a1.89,1.89,0,0,1-1.75-.18,1.13,1.13,0,0,1-.52-1l0-1c0-.49-.25-.69-.69-.61a1.87,1.87,0,0,0-1.65,1.81.74.74,0,0,1-.49.65L7.47,14.44" style="fill:none;stroke:#c64f00;stroke-width:2px"/><path d="M7.47,14.44a5.41,5.41,0,0,1,.1-4.1" style="fill:none;stroke:#a34801;stroke-width:2px"/><path d="M7.57,10.34c1.48-.13,2-1.24,1.48-3.35" style="fill:none;stroke:#c64f00;stroke-width:2px"/><path d="M333.23,60.09c-5.76-.51-12.42.59-17,.71q-8.87.24-17.75.77" style="fill:none;stroke:#643700;stroke-width:2px"/><path d="M298.49,61.57l-239.24.17" style="fill:none;stroke:#522401;stroke-width:2px"/><path d="M8.88,56.58Q5.5,50,6.67,40.81c1.09-8.7.46-17.63.8-26.37" style="fill:none;stroke:#7f4001;stroke-width:2px"/><path d="M7.57,10.34A1,1,0,0,0,7.2,9.6" style="fill:none;stroke:#7f4001;stroke-width:2px"/><path d="M41.74,8.07,42,7.33c.13-.34,0-.52-.32-.54L29.26,6.21" style="fill:none;stroke:#e9af53;stroke-width:2px"/><path d="M29.26,6.21a3.41,3.41,0,0,0,1.19-2.37" style="fill:none;stroke:#f27110;stroke-width:2px"/><path d="M333.24,10.46q-12.8-.24-25.49-.16-58.21.36-116.44,0c-35-.2-70.07-.05-105.12-.26C78,10,66.87,8.84,57.44,9.39q-15,.87-25.2.84" style="fill:none;stroke:#c64f00;stroke-width:2px"/><path d="M32.24,10.23c1.82-2.49,7.6-1.89,9.5-2.16" style="fill:none;stroke:#e29643;stroke-width:2px"/><path d="M41.74,8.07l7.06.34a.69.69,0,0,0,.71-.59l.73-4.39" style="fill:none;stroke:#f27110;stroke-width:2px"/><path d="M333.22,3.69c-6.47-.77-14.41-.14-19.13-.14q-72.79.09-145.59-.12" style="fill:none;stroke:#823b00;stroke-width:2px"/><path d="M32.24,10.23c-5.41.84-9.17,2.71-15.7,3.1" style="fill:none;stroke:#be8d43;stroke-width:2px"/><path d="M306.05,64.63a2.83,2.83,0,0,1-.93-2.68.47.47,0,0,0-.29-.57.45.45,0,0,0-.23,0l-2.74.91a1.26,1.26,0,0,1-.77,0l-2.6-.73" style="fill:none;stroke:#131501;stroke-width:2px"/><path d="M10.76,18.08l-.71.2a.84.84,0,0,0-.61.8,82.08,82.08,0,0,0-.34,10c.12,2.72,1.75,5,2.21,7.6A24.48,24.48,0,0,0,15.55,46.8a1.62,1.62,0,0,1,.31,1c0,5.83,5.35,7.59,8.94,10.91a1.41,1.41,0,0,0,.81.39c4.19.62,13.77,1.83,13.13-1.41a1.86,1.86,0,0,0-1.39-1.49L24.11,53.27a4.69,4.69,0,0,1-2.95-2.11C17,44.57,12.51,37.29,12.45,28.74q0-6.25.26-12.56c0-.45-.17-.6-.56-.45a1.37,1.37,0,0,0-.89,1.57.77.77,0,0,1-.5.78" style="fill:none;stroke:#c64f00;stroke-width:2px"/><path d="M21.24.58A1.75,1.75,0,0,0,23,1.12a.49.49,0,0,1,.52.47.48.48,0,0,1,0,.12,2.16,2.16,0,0,0,.79,2.13q-8.86.31-12.2.59A3,3,0,0,0,9.05,7,3,3,0,0,0,7.2,9.6c-3.07,1.24-1.67,4.08-1.75,6.28q-.75,19.63.19,26.48a34.14,34.14,0,0,1,.29,8.45,7.05,7.05,0,0,0,.21,3.43,3.56,3.56,0,0,0,2.74,2.34A14.1,14.1,0,0,1,14.72,60a1.52,1.52,0,0,0,.87.44,113.43,113.43,0,0,0,13.4.74c12.21,0,20.14.28,30.26.61l-14.75,3q-15,.39-30,.25a27.2,27.2,0,0,1-8.28-1.36c-2.5-.84-3.7-3.14-5.72-4.91A1.48,1.48,0,0,1,0,57.56V7.86a1.73,1.73,0,0,1,.26-.92C5.58-1.5,13.14.58,21.24.58Z" style="fill:#0f1704"/><path d="M21.24.58h188.3A3.41,3.41,0,0,1,206.6,2a.61.61,0,0,0-.56.39l-.24.58h0l.28.1a.12.12,0,0,1,.09.14.11.11,0,0,1-.13.1l-37.55.15H50.24l-19.79.41H24.26a2.16,2.16,0,0,1-.79-2.13.52.52,0,0,0-.41-.59H23A1.75,1.75,0,0,1,21.24.58Z" style="fill:#0f1704"/><path d="M209.54.58l123,0a.7.7,0,0,1,.68.59,6.78,6.78,0,0,1,.05,2.5c-6.47-.77-14.41-.14-19.13-.14q-72.79.09-145.59-.12l37.55-.15a.11.11,0,0,0,.13-.1.12.12,0,0,0-.09-.14h0l-.28-.1h0l.24-.58A.61.61,0,0,1,206.6,2,3.41,3.41,0,0,0,209.54.58Z" style="fill:#191e00"/><path d="M168.5,3.43q72.8.21,145.59.12c4.72,0,12.66-.63,19.13.14l0,6.77q-12.8-.24-25.49-.16-58.21.36-116.44,0c-35-.2-70.07-.05-105.12-.26C78,10,66.87,8.84,57.44,9.39q-15,.87-25.2.84c1.82-2.49,7.6-1.89,9.5-2.16l7.06.34a.69.69,0,0,0,.71-.59l.73-4.39Z" style="fill:#ea5700"/><path d="M50.24,3.43l-.73,4.39a.69.69,0,0,1-.71.59l-7.06-.34L42,7.33c.13-.34,0-.52-.32-.54L29.26,6.21a3.41,3.41,0,0,0,1.19-2.37Z" style="fill:#f98a20"/><path d="M24.26,3.84h6.19a3.41,3.41,0,0,1-1.19,2.37l-4.61.53a1.7,1.7,0,0,0-.9.39,5,5,0,0,1-2.31,1.09,2.82,2.82,0,0,0-.88.32l-3.93,2.22a1.12,1.12,0,0,0-.57,1,2.7,2.7,0,0,0,.48,1.59,1.89,1.89,0,0,1-1.75-.18,1.13,1.13,0,0,1-.52-1l0-1c0-.49-.25-.69-.69-.61a1.87,1.87,0,0,0-1.65,1.81.74.74,0,0,1-.49.65L7.47,14.44a5.41,5.41,0,0,1,.1-4.1c1.48-.13,2-1.24,1.48-3.35a3,3,0,0,1,3-2.56Q15.4,4.15,24.26,3.84Z" style="fill:#ea5700"/><path d="M29.26,6.21l12.42.58c.34,0,.45.2.32.54l-.26.74c-1.9.27-7.68-.33-9.5,2.16-5.41.84-9.17,2.71-15.7,3.1a2.7,2.7,0,0,1-.48-1.59,1.12,1.12,0,0,1,.57-1l3.93-2.22a2.82,2.82,0,0,1,.88-.32,5,5,0,0,0,2.31-1.09,1.7,1.7,0,0,1,.9-.39Z" style="fill:#d9d485"/><path d="M9.05,7c.49,2.11,0,3.22-1.48,3.35A1,1,0,0,0,7.2,9.6,3,3,0,0,1,9.05,7Z" style="fill:#a24600"/><path d="M333.24,10.46V60.09c-.5,1.12-12.42.59-17,.71q-8.87.24-17.75.77l-239.24.17c-10.12-.33-18-.63-30.26-.61a113.43,113.43,0,0,1-13.4-.74,1.52,1.52,0,0,1-.87-.44,14.1,14.1,0,0,0-5.84-3.37Q5.5,50,6.67,40.81c1.09-8.7.46-17.63.8-26.37L11.41,13a.74.74,0,0,0,.49-.65,1.87,1.87,0,0,1,1.65-1.81c.44-.08.67.12.69.61l0,1a1.13,1.13,0,0,0,.52,1,1.89,1.89,0,0,0,1.75.18c6.53-.39,10.29-2.26,15.7-3.1q10.23,0,25.2-.84c9.43-.55,20.57.64,28.75.69,35.05.21,70.09.06,105.12.26q58.22.33,116.44,0Q320.44,10.23,333.24,10.46ZM10.76,18.08l-.71.2a.84.84,0,0,0-.61.8,82.08,82.08,0,0,0-.34,10c.12,2.72,1.75,5,2.21,7.6A24.48,24.48,0,0,0,15.55,46.8a1.62,1.62,0,0,1,.31,1c0,5.83,5.35,7.59,8.94,10.91a1.41,1.41,0,0,0,.81.39c4.19.62,13.77,1.83,13.13-1.41a1.86,1.86,0,0,0-1.39-1.49L24.11,53.27a4.69,4.69,0,0,1-2.95-2.11C17,44.57,12.51,37.29,12.45,28.74q0-6.25.26-12.56c0-.45-.17-.6-.56-.45a1.37,1.37,0,0,0-.89,1.57A.77.77,0,0,1,10.76,18.08Z" style="fill:#a24600"/><path d="M7.2,9.6a1,1,0,0,1,.37.74,5.41,5.41,0,0,0-.1,4.1c-.34,8.74.29,17.67-.8,26.37Q5.52,50,8.88,56.58a3.56,3.56,0,0,1-2.74-2.34,7.05,7.05,0,0,1-.21-3.43,34.14,34.14,0,0,0-.29-8.45Q4.7,35.5,5.45,15.88C5.53,13.68,4.13,10.84,7.2,9.6Z" style="fill:#5c3901"/><path d="M11.26,17.3a1.37,1.37,0,0,1,.89-1.57c.39-.15.58,0,.56.45q-.32,6.3-.26,12.56c.06,8.55,4.56,15.83,8.71,22.42a4.69,4.69,0,0,0,2.95,2.11l13.24,2.89a1.86,1.86,0,0,1,1.39,1.49c.64,3.24-8.94,2-13.13,1.41a1.41,1.41,0,0,1-.81-.39c-3.59-3.32-8.91-5.08-8.94-10.91a1.62,1.62,0,0,0-.31-1,24.48,24.48,0,0,1-4.24-10.13c-.46-2.61-2.09-4.88-2.21-7.6a82.08,82.08,0,0,1,.34-10,.84.84,0,0,1,.61-.8l.71-.2A.77.77,0,0,0,11.26,17.3Z" style="fill:#ea5700"/><path d="M333.28,60.57c.26,0,0-.26,0,0a11.33,11.33,0,0,1-.34,4.14.66.66,0,0,1-.7.55l-26.19-.63a2.83,2.83,0,0,1-.93-2.68.47.47,0,0,0-.29-.57c-.07,0-.1,1.6-.18,1.62l-2.79-.71a1.26,1.26,0,0,1-.77,0l-2.6-.73c5.92-.35,13.21-.2,17.75-.77C320.92,61.37,329.35,61,333.28,60.57Z" style="fill:#010201"/><path d="M298.49,61.57l2.6.73a1.26,1.26,0,0,0,.77,0l2.74-.91a.42.42,0,0,1,.52.31.57.57,0,0,1,0,.26,2.83,2.83,0,0,0,.93,2.68l-261.55.1,14.75-3Z" style="fill:#010201"/></g></g></svg>