<?xml version="1.0" encoding="utf-8"?>
<!-- Generator: Adobe Illustrator 24.0.1, SVG Export Plug-In . SVG Version: 6.00 Build 0)  -->
<svg version="1.1" id="Camada_1" xmlns="http://www.w3.org/2000/svg" xmlns:xlink="http://www.w3.org/1999/xlink" x="0px" y="0px"
	 viewBox="0 0 150 66.4" style="enable-background:new 0 0 150 66.4;" xml:space="preserve">
<style type="text/css">
	.st0{fill-rule:evenodd;clip-rule:evenodd;fill:#151000;}
	.st1{fill-rule:evenodd;clip-rule:evenodd;fill:#96281C;}
	.st2{fill-rule:evenodd;clip-rule:evenodd;fill:#120B0A;}
	.st3{fill-rule:evenodd;clip-rule:evenodd;fill:#A33428;}
	.st4{fill-rule:evenodd;clip-rule:evenodd;fill:#53251F;}
	.st5{fill-rule:evenodd;clip-rule:evenodd;fill:#5C251F;}
	.st6{fill-rule:evenodd;clip-rule:evenodd;fill:#6F2B23;}
	.st7{fill-rule:evenodd;clip-rule:evenodd;fill:#76271F;}
	.st8{fill-rule:evenodd;clip-rule:evenodd;}
	.st9{fill-rule:evenodd;clip-rule:evenodd;fill:#150B00;}
	.st10{fill-rule:evenodd;clip-rule:evenodd;fill:#4B241F;}
	.st11{fill-rule:evenodd;clip-rule:evenodd;fill:#862E25;}
	.st12{fill-rule:evenodd;clip-rule:evenodd;fill:#462420;}
	.st13{fill-rule:evenodd;clip-rule:evenodd;fill:#150000;}
	.st14{fill-rule:evenodd;clip-rule:evenodd;fill:#CF502E;}
</style>
<title>Ativo 1pl</title>
<g id="Camada_2_1_">
	<g id="Camada_1-2">
		<g id="sprite3">
			<g id="shape3">
				<path class="st0" d="M105.3,5.1C98.2,3,91,1.5,83.7,0.5L85,0.6l1-0.3c6.8,0.9,13.4,2.5,19.9,4.7C105.5,4.9,105.3,5,105.3,5.1"/>
				<path class="st1" d="M27.8,11.5l-4.6-0.2c-1.3-0.5-2.5-1.3-3.4-2.3c0-0.1,0-0.2,0-0.4l0.1-0.3l5.4-0.1
					C27.2,8.8,28.1,9.9,27.8,11.5"/>
				<path class="st1" d="M130.5,9c-0.8,1.2-2,2-3.3,2.5l-4.7,0.2c-0.5-1.7,0.4-2.8,2.7-3.4C127,7.8,128.9,8,130.5,9"/>
				<path class="st2" d="M35.8,8.5c-2.4,1.2-4.7,2.5-6.8,4c-2,1.4-3.9,3-5.5,4.8c-0.6,0-1.2,0.1-1.7,0.4l-2.3-0.2l-2.2-0.2h2.3
					l2.2-0.3l1.1-0.9l1.2-1.2c2.2-1.7,4.4-3.2,6.8-4.7c1.4-0.8,2.8-1.5,4.2-2.2l4-2c0.5,0.2,0.2,0.6-0.9,1.2L35.8,8.5"/>
				<path class="st3" d="M35.2,10.2c-0.2,0.5-1.2,1.4-2.9,2.5c-2,1.3-3.1,2.4-3.4,3.2c-0.3,0-0.5,0.1-0.7,0.4
					c-0.2,0.2-0.5,0.3-0.8,0.3l-1,1.2l-1,1.1h-1.9c-0.8,0-1.2-0.2-1.3-0.7l0.7-0.2h0.8l5.4-4.1c1.9-1.4,3.8-2.6,5.9-3.7L35.2,10.2"
					/>
				<path class="st3" d="M127.8,18.3c-0.2,0.7-0.9,1-2.3,0.9l-3.3-0.1c-0.6-2.2-1.8-4.1-3.4-5.7c-0.7-0.6-1.5-1.2-2.3-1.5
					c-0.7-0.3-1.4-0.8-1.9-1.5c-0.1-0.1-0.1-0.2,0.1-0.3l0.3,0.1c3.9,2.2,7.6,4.8,10.9,7.8L127.8,18.3"/>
				<path class="st2" d="M144.2,21c0.4,0.1,0.8,0.2,1.1,0.4l1.1,1.5l2.3,2.3c0.8,0.9,1.3,2,1.4,3.2c-3.7,0.4-7.3,1.1-10.8,2.1
					l0.2-0.4c1.5-0.6,3-1.1,4.6-1.3l4.9-1c-0.1-0.4-0.6-0.6-1.5-0.6v-0.2l-3.6-5.1c-1-0.1-2-0.5-2.9-1c-1-0.6-2.1-1-3.3-1.1
					c0.1-0.2-0.1-0.3-0.4-0.2s-0.5,0-0.4-0.2c-0.1-0.8,0.3-1.1,1.3-1c0-0.2-0.1-0.3-0.4-0.2h-0.7v-0.2c1.1-0.1,2.2,0.2,3.1,0.9
					l2.6,1.9L144.2,21"/>
				<path class="st3" d="M143.6,24c-0.9,0.2-1.7,0.4-2.6,0.7l-2.9,0.4c0.2-0.2,0.3-0.5,0.2-0.7c0-0.4-0.2-0.5-0.4-0.5
					c0.6-0.4,1.3-0.6,1.9-0.6c0.7,0,1.3-0.3,1.9-0.7l-2.5-0.2c-0.9,0.2-1.9,0.2-2.8,0c0.1-0.2,0.4-0.3,0.9-0.4l1-0.3
					c0.1-0.5-0.1-1-0.6-1.2c-0.1,0-0.2,0-0.2,0l-1.7-0.3c0.6-0.4,1.2-0.5,1.9-0.4c1.2,0.2,2.3,0.6,3.3,1.1c0.9,0.5,1.9,0.9,2.9,1
					l3.6,5.1c-0.8-0.2-1.5-0.7-2.1-1.3L143.6,24"/>
				<path class="st1" d="M37.1,32.3c-0.2,0.3-0.5,0.4-0.7,0.4c0.1-0.4,0-0.8-0.2-1.1h-0.8c-0.3,0-0.4,0.1-0.3,0.4
					c-0.3-0.8-1-1.3-1.8-1.3c-0.8,0-1.5-0.7-1.6-1.5c0.7,0,1.4,0.1,1.9,0.5l1.9,1.1c-1.5-1.5-3.2-2.8-5-3.9c-1.9-1.1-3.2-3-3.7-5.1
					L26.4,22l-0.5,0.1c-0.1,0.4,0,0.8,0.2,1.1c-0.8-1-1.8-1.7-3-2l3-0.2h3.2c0.4,1.4,1.1,2.8,1.9,4c1.5,2.4,3.5,4.4,5.9,5.9
					c2.4,1.6,4.9,3,7.5,4.2l-0.2,0.6c-0.1,0-0.2-0.1-0.2-0.3l-0.2-0.5l-0.6,0.5l-0.9-0.1c-0.2-0.4-0.3-0.8-0.2-1.3
					c-0.3,0.1-0.5,0.4-0.7,1c-1.3-0.8-2.8-1.4-4.2-1.9c0.5-0.3,0.6-0.7,0.2-1C37.4,32,37.3,32,37.1,32.3"/>
				<path class="st4" d="M53.2,32l0.6,0.3l0.7,0.1c0.3,0.3,0.3,0.4,0.1,0.3l-0.9-0.1c1.1,1.7,2.7,2.9,4.5,3.6c2,0.8,4.1,1.3,6.3,1.5
					l2.3,0.3l2.3,0.3l0.4,0.1l-0.1,0.1l-6.1-0.1l-5.7-0.5l-2.3-0.4L53,37c-4.3-1.3-8.4-3.1-12.3-5.3l-6.1-3.8
					c-2.4-1.6-3.4-3.6-3-5.9c0.8-0.2,1.7,0,2.2,0.7l1.4,1.8c2.2,2.2,4.8,4,7.7,5.1c3.3,1.2,6.7,2.1,10.1,2.8L53.2,32"/>
				<path class="st5" d="M128.3,18.5l-0.3,0.4h4.5l4-0.3c-1.6-0.6-3.3-0.8-5.1-0.8l-5.1-0.5c-2-2.5-4.5-4.5-7.3-6.1
					c-1.8-1.1-4.7-2.6-8.9-4.6c0-0.1,0.2-0.2,0.3-0.2l0.3-0.2c6.3,2.7,12.1,6.5,17.2,11l4.5,0.3l4.6,0.3V18h0.7c0.3,0,0.4,0,0.4,0.2
					c-1-0.1-1.4,0.3-1.3,1c0,0.2,0.1,0.3,0.4,0.2s0.5,0,0.4,0.2c-0.7-0.1-1.3,0-1.9,0.4l1.7,0.3c0.5,0,0.9,0.5,0.9,1
					c0,0.1,0,0.2,0,0.2l-1,0.3c-0.5,0-0.8,0.1-0.9,0.4h-13.4l-3,0.2l-0.6,1.4l-0.7,1.2c-2.8,2.8-6,5.1-9.5,6.7l4.3-2.7l4-2.9
					c0.6-0.6,1-1.4,1.2-2.3c0.2-1-0.2-1.6-1.2-1.7c-0.6-0.1-1.1,0.2-1.7,1l-1.3,1.8c-1.6,1.5-3.4,2.8-5.3,3.8
					c-2.3,1.3-4.7,2.2-7.2,2.8L99,32h-2.2l6.6-2.7c2.1-0.9,4.2-2,6.1-3.2l0.9-1l1-1.1c0.3-0.2,0.5-0.3,0.8-0.3l0.9-0.4
					c1.9-1.1,3-3.2,2.7-5.3c0-0.4,0-0.5,0.2-0.3l0.4,0.3c0.1-1.6-0.8-3-2.6-4.1l-5.9-2.8c-3.1-1.5-6.2-2.7-9.5-3.6
					c-3.7-1-7.6-1.6-11.4-1.7c-7.9-0.4-15.9-0.4-23.9,0c-10.5,0.5-20.6,3.9-29.3,9.7l-0.3,1c-0.1,0.4-0.1,0.9-0.1,1.3
					c0,0.2,0.2,0.1,0.4-0.2l0.4-0.8l0,1.5c0.1,0.5,0.5,0.9,1,1c0,0.3-0.2,0.5-0.4,0.6l-0.6,0.4l1,1.6c0.3,0.5,0.8,1,1.3,1.4l1,0.4
					l0.9,0.3l0.8,1l0.8,1.1c1,0.6,2.1,1.1,3.2,1.5c3.1,1.7,6.4,3.2,9.8,4.5L53,32.4c-3.4-0.7-6.8-1.6-10.1-2.8
					c-2.9-1.1-5.6-2.8-7.7-5.1l-1.4-1.8c-0.5-0.6-1.4-0.9-2.2-0.7c-0.4,2.3,0.6,4.2,3,5.9l6.1,3.8c-3.5-1.7-6.8-4-9.5-6.8
					c-0.8-1.2-1.5-2.6-1.9-4H26l-3,0.2l-5.5,0.1c-1.8-0.1-3.6,0.1-5.3,0.6c-0.2-0.5-0.1-1,0.2-1.4l0.8-0.8h-1.6
					c-0.3-0.5-0.7-0.5-1.4-0.1s-1.2,0.5-1.4,0.3l2.2-1.3c1-0.5,1.7-0.4,2,0.5l0.4-0.3c-0.1-0.2,0-0.3,0.1-0.3
					c1.3,0.5,2.7,0.7,4.1,0.6l4.6-0.1l-0.5-0.4c-0.1-0.1,0.1-0.2,0.5-0.3c0.1,0.4,0.5,0.7,1.3,0.7h1.9l1-1.1l1-1.2
					c0.3,0,0.6-0.1,0.8-0.3c0.2-0.2,0.4-0.3,0.7-0.4c0.3-0.8,1.4-1.9,3.4-3.2c1.7-1.1,2.7-2,2.9-2.5v-0.1c5.4-3.3,13.2-5.8,23.3-7.5
					c11-0.7,22.1-0.7,33.1,0c10.2,1.7,18,4.2,23.3,7.5h-0.2c-0.2,0-0.2,0.1-0.1,0.3c0.5,0.6,1.2,1.1,1.9,1.5
					c0.9,0.4,1.6,0.9,2.3,1.5c1.6,1.6,2.8,3.5,3.4,5.7l3.3,0.1c1.3,0.1,2.1-0.3,2.3-0.9C128.1,18.3,128.3,18.4,128.3,18.5"/>
				<path class="st4" d="M109.3,31.8c-3.9,2.2-8,3.9-12.3,5.2l-4.4,0.9l-6.9,0.6c-2.4,0.2-4.7,0.1-7.1-0.2
					c8.9,0.1,14.9-1.7,17.8-5.5l-0.8-0.1c-0.3,0.1-0.3,0,0-0.3c0.5,0.1,1-0.1,1.3-0.4H99l3.1-0.7c2.5-0.6,4.9-1.5,7.2-2.8
					c1.9-1,3.7-2.3,5.3-3.8l1.3-1.8c0.6-0.7,1.1-1,1.7-1c1,0.1,1.4,0.7,1.2,1.7c-0.2,0.9-0.6,1.6-1.2,2.3l-4,2.9L109.3,31.8"/>
				<path class="st1" d="M116.2,30.8c-0.6,0-1.1,0.5-1.1,1.1c0,0,0,0.1,0,0.1c-0.2-0.4-0.5-0.5-1-0.4s-0.7,0.5-0.5,1.1
					c-0.2,0-0.5-0.1-0.6-0.3c-0.1-0.2-0.3-0.3-0.5-0.4l-0.2,0.7c-0.1,0.3,0.1,0.4,0.4,0.3l-2.1,1c-0.7,0.2-1.4,0.6-2,1.1l-0.4-0.5
					l-0.3-0.6c-0.2,0-0.2,0.2-0.2,0.6s-0.1,0.6-0.2,0.7l-0.9,0.1c-0.2,0-0.3-0.2-0.4-0.6c-0.3,0-0.5,0.3-0.4,0.8l-0.4-0.6
					c2.6-1.3,5.1-2.7,7.5-4.2c2.3-1.5,4.3-3.5,5.8-5.9l0.7-1.2l0.6-1.4l3-0.2c-0.7,2-2,3.7-3.8,4.8l-4.9,3.6
					c0.6-0.1,1.2-0.4,1.7-0.8c0.7-0.4,1.4-0.7,2.1-0.9c-0.4,0.4-0.5,1-0.4,1.5L116.2,30.8"/>
				<path class="st6" d="M13.6,25l5-1l4.7-0.3v0.6c1,0.5,1.8,1.1,2.6,1.8c0.8,0.8,1.8,1.3,2.9,1.6c-0.4,0.7-0.7,1.4-0.9,2.1
					c-0.2,0.9-0.3,1.9-0.2,2.8c-0.8-1-1.8-2-2.8-2.9c-1.1-0.9-1.8-2.3-1.9-3.7l-4.6,1c-2.2,0.4-3.7,1-4.5,1.7c0-0.1-0.1-0.1-0.2-0.1
					l-0.4,0.1l0.2-1.7L13.6,25"/>
				<path class="st7" d="M44.5,35.1c-2.6-1.3-5.1-2.7-7.5-4.2c-2.4-1.5-4.4-3.5-5.8-5.9c2.8,2.8,6,5.1,9.5,6.7
					c3.9,2.2,8,3.9,12.3,5.3l-2.8-0.5L47.3,36c-0.3-0.4-0.8-0.6-1.3-0.6L44.5,35.1"/>
				<path class="st7" d="M113.1,30.9c-2.4,1.5-5,3-7.5,4.2l-1.5,0.2c-0.5,0-1,0.2-1.3,0.6c-1,0.1-1.9,0.2-2.9,0.5L97,37
					c4.3-1.3,8.4-3.1,12.3-5.3c3.6-1.7,6.8-3.9,9.6-6.7C117.4,27.4,115.4,29.4,113.1,30.9"/>
				<path class="st6" d="M122.2,32.6c0.1-0.9,0.1-1.7-0.1-2.6l-0.7-1.9c0.6-0.7,1.4-1.2,2.2-1.6c0.8-0.4,1.5-1.1,1.8-2
					c0.9,0.2,1.4-0.1,1.5-0.8c0.4,0.1,0.7,0.5,0.9,1.3s0.5,1.3,0.8,1.4c0.2-0.1,0.2-0.3,0.1-0.7c-0.1-0.3-0.2-0.7-0.1-1
					c0.2-0.2,0.4-0.3,0.7-0.2h1c0-0.2-0.2-0.3-0.6-0.2h-0.9v-0.5l-0.2-0.3c0.1-0.2,0.2-0.4,0.4-0.4c1.5,0.2,2.9,0.6,4.3,1.1
					c1.5,0.5,3,0.8,4.6,0.8l-0.4,0.3c-0.3,0-0.4,0-0.4,0.1V29l-0.7-0.2c-0.2-0.2-0.3-0.2-0.4,0c-1.4-0.5-2.8-0.9-4.3-1.2l-4.6-0.9
					c-0.6,1.1-1.4,2.2-2.3,3.1L122.2,32.6"/>
				<path class="st8" d="M72.7,64.5l-1.5-0.8h-1.3l-0.6-0.1l-0.5-0.3c0-0.1,0.1-0.2,0.3-0.2c0,0,0,0,0.1,0l0.4,0.1
					c0.3-0.2-0.1-0.5-1.3-0.8l0.6,0.4c-1.8-0.7-3.4-1.6-5-2.6l-4.9-3.3h0.4c-1-1.2-2.2-2.1-3.6-2.8l-4-2.5c0.9-1.4,2.2-2.5,3.6-3.3
					c1.5-0.8,2.8-1.8,4-3c-2.5,0.1-4.9-0.2-7.2-0.9L46,42.1l-10.3-3.8c-3.2-1.3-6.1-2.9-8.8-5l-2-2.1c-0.6-0.8-1.3-1.4-2.2-1.9
					l-0.8-1.5l-1,0l-1,0.2l0.9,0c0.5-0.2,0.8-0.1,0.8,0.4c-1.4,0-2.7,0.3-3.9,0.8L14,30.7l0.3-0.4c-2,0.1-4-0.2-5.8-0.9
					c-2.3-0.8-4.7-1.3-7.2-1.4c-0.4-0.5,0-0.8,1.3-0.8c2,0.3,4,0.7,6,1.4l5.5,0.3c0.8-0.7,2.3-1.3,4.5-1.7l4.6-1
					c0.2,1.4,0.8,2.7,1.9,3.7c1,0.9,1.9,1.8,2.7,2.9c0,0.3,0.1,0.6,0.4,0.7l0.7,0.3c1.1,0.9,2.3,1.6,3.6,2.1c4.4,2.7,10.6,5,18.6,7
					c0,0.2,0.2,0.4,0.4,0.4l0.8,0l0.4-0.2l5.1,1c2.2,0.3,3.5-0.1,4.2-1.3c0.1-0.2-0.1-0.2-0.4-0.3s-0.3-0.1,0-0.2
					c-0.1-0.3,0.1-0.5,0.5-0.4h1l0.2,0.6c-2.8,3.1-6.1,5.8-9.8,7.8c-0.4,0.2-0.6,0.8-0.3,1.2c0,0.1,0.1,0.1,0.2,0.2
					c0.4,0.5,1,0.7,1.6,0.5C61,56.4,67.3,60.1,74,63l-0.6,0.8L72.7,64.5"/>
				<path class="st8" d="M144,28.8c-1.6,0.3-3.1,0.7-4.6,1.3c-0.6,0.4-1.3,0.6-2.1,0.5l-1.3,0.1l-2.8-1.1l-3-1
					c0-0.1,0.3-0.2,0.7-0.2c-0.2-0.3-0.7-0.5-1.5-0.4c0.5,0.3,0.5,0.4,0.2,0.4l-1.2,0c-0.1-0.3,0-0.4,0.3-0.4h0.8
					c-0.3-0.3-0.9-0.4-1.2,0c0,0-0.1,0.1-0.1,0.1l-0.8,1.2c-0.9,0.5-1.6,1.1-2.2,1.9l-2,2.1c-2.7,2-5.6,3.7-8.7,5
					c-2.4,1.1-5.8,2.3-10.2,3.8l-6.1,2.2c-2.4,0.8-4.9,1.1-7.5,1l0.2,0.3l0.2,0.3c0-0.2,0.4-0.4,1.3-0.4l1.9,0.2l-1.9,0.2l1.1,1
					l1.4,0.8c-0.1,0.2-0.2,0.3-0.4,0.2s-0.4-0.2-0.5-0.2c1.6,1,3,2.2,4.3,3.6c-1.2,1.2-2.6,2.1-4.1,2.8c-2,1-3.3,2-3.8,3.1
					c-1.9,0.7-3.8,1.7-5.4,2.9l-5.2,3.1c0.3,0.2,0.8,0,1.5-0.5s1.2-0.7,1.4-0.6c-1.3,0.9-2.7,1.7-4.2,2.3c0-0.3,0.2-0.5,0.6-0.6
					s0.7-0.3,0.7-0.4c-0.9,0.2-1.8,0.6-2.7,1.2L74.8,66l-0.5-0.5l-0.6-0.3l0.4-0.4l0.6-0.3h0.8c0.2,0,0.4-0.2,0.4-0.4
					c0.2,0,0.3-0.1,0.2-0.4V63c3.1-1.5,6.6-3.3,10.5-5.5l10-6.1c-0.2-0.7-0.6-1.3-1.2-1.8l-2-1c-1.4-0.9-2.8-2-4-3.2
					c-1.9-1.7-2.9-2.9-3-3.6H87c0.5,0.2,0.9,0.6,1.1,1c0.2,0.4,0.6,0.8,1,1.1l4.9-0.5l4.3-0.4l0.7-0.3l0.3-0.6
					c3.4-0.5,6.7-1.4,9.8-2.6c2.9-1.1,5.7-2.5,8.4-4c1.3-0.5,2.5-1.2,3.6-2.1l0.7-0.3c0.3-0.1,0.4-0.4,0.4-0.7l2.6-2.9
					c0.9-0.9,1.7-1.9,2.3-3.1l4.6,0.9c1.5,0.3,2.9,0.7,4.3,1.3c1.2,0.5,3,0.4,5.4-0.4c1.9-0.7,4-1.1,6-1.3c0.9,0,1.4,0.3,1.5,0.6
					L144,28.8"/>
				<path class="st8" d="M97.5,49.6c0.9,0.7,1.4,1.9,1.2,3.1c-2.9,1.2-5.6,2.7-8.1,4.6l-0.1,0.1c-2.5,1.7-5,3.4-7.6,4.8
					c-0.2-0.1-0.7,0.1-1.4,0.6s-1.2,0.7-1.5,0.5l5.1-3.1c1.7-1.2,3.5-2.1,5.4-2.8c0.5-1.1,1.8-2.1,3.8-3.1c1.5-0.7,2.9-1.6,4.1-2.8
					C97,50,95.6,48.8,94,47.8c0.1-0.1,0.3,0,0.5,0.2s0.3,0.1,0.4-0.2L97.5,49.6"/>
				<path class="st9" d="M117.7,37.1c-1.9,1-6.6,3-13.9,5.9l-4.3,1.8c-1.7,0.6-3.5,0.9-5.3,0.9l-1.9-0.2c-0.8,0-1.3,0.2-1.3,0.4
					l-0.2-0.3l-0.2-0.3c2.5,0.1,5.1-0.2,7.5-1l6.1-2.2c4.3-1.5,7.7-2.8,10.2-3.8c3.1-1.3,6-3,8.7-5l2-2.1c0.6-0.8,1.4-1.4,2.2-1.9
					l0.8-1.2c0.3-0.4,0.8-0.5,1.2-0.2c0,0,0.1,0.1,0.1,0.1h-0.8c-0.3,0-0.4,0.1-0.3,0.4C126.1,31.7,122.6,34.6,117.7,37.1"/>
				<path class="st6" d="M117.4,35.8c0.4-0.6,0.5-1.4,0.4-2.1c0-0.7-0.1-1.5-0.4-2.1c1.2-0.5,2.2-1.4,2.7-2.5
					c0.6,0.3,0.8,1.2,0.5,2.6c-0.2,1.5-0.1,2,0.5,2c-1.1,0.9-2.3,1.6-3.6,2.1L117.4,35.8"/>
				<path class="st10" d="M28.8,33.7h0.8c-0.6-1.5-0.6-3.1,0-4.6l1.3,1.4l1.7,1.1c-0.3,0.7-0.5,1.4-0.4,2.1c0,0.7,0.1,1.5,0.4,2.1
					h-0.2C31.2,35.2,29.9,34.5,28.8,33.7"/>
				<path class="st1" d="M50.5,37.7c-0.2,0.3-0.3,0.3-0.5,0.2c-0.6-0.2-1.1-0.8-1.1-1.5c-0.3-0.1-0.6,0-0.9,0.2
					c-0.2,0.2-0.5,0.3-0.8,0.2V36l2.9,0.5L53,37l2.2,0.5l2.3,0.4l4.9,0.9l6,0.3l1.6-0.1c0.7,0,1,0.3,1.1,0.8v0.4
					c-6.6-0.5-13.2-1.5-19.7-3C51.1,37.1,50.8,37.3,50.5,37.7"/>
				<path class="st11" d="M110.2,36.3c-1.5,0.7-2.9,1.6-4.2,2.7c-0.1,0.6-0.5,1.2-1.1,1.5l-0.5-0.1L104,40l-0.8,0.7l-0.9,0.6
					c-0.4-0.4-0.9-0.6-1.5-0.5l-1.7,0.5v0.7c0,0.3,0,0.4,0.2,0.4L99,42.9l-0.7,0.3c0-0.1-0.1-0.2-0.3-0.2h-0.5v-3.2L96,40.2
					l-1.5,0.3c0.9-1.1,2.5-1.5,3.8-0.8l1.4-0.6c0.5-0.3,1.1-0.3,1.5,0c0.6-0.3,1.1-0.6,1.7-0.9l1.8-0.4c1.1-1.1,2.5-1.9,4.1-2.1
					c2.1-0.5,3.5-1.1,4-1.7c-0.1,0.4,0,0.9,0.4,1.2c0.4,0.3,0.5,0.7,0.4,1.1C113.8,35.1,112.5,35.1,110.2,36.3"/>
				<path class="st10" d="M78.6,38.3c-0.5-0.7-1.4-1-2.2-0.6L74,38.5c-1.9-0.9-3.9-1.4-6-1.5c-2.2-0.2-4.3-0.6-6.4-1.2
					c0.2,0.5,0.7,0.9,1.2,1.2l1.6,0.8c-2.1-0.2-4.3-0.7-6.3-1.5c-1.9-0.7-3.5-1.9-4.5-3.6l0.9,0.1c0.3,0,0.2-0.1-0.1-0.3
					c6.8,1.1,13.7,1.7,20.5,1.6c6.9,0,13.7-0.5,20.5-1.7c-0.3,0.3-0.3,0.4,0,0.3l0.8,0.1C93.5,36.6,87.5,38.4,78.6,38.3"/>
				<path class="st12" d="M43.3,38.4c2.4,1.1,4.8,1.8,7.4,2.3v0.9c0,0.3,0,0.5,0.2,0.6l0.2,0.7c-8-2-14.2-4.3-18.6-7h1.2
					c-0.2-1.2-0.2-2.4-0.2-3.6l1.1,0.6l1.2,0.5V35c0,0.5,0,1,0.1,1.4c0.2,0.1,0.3-0.1,0.2-0.4s0-0.5,0.2-0.4
					C37.4,35.9,39.8,36.8,43.3,38.4"/>
				<path class="st5" d="M36.5,35.6c-0.1-0.3,0-0.6,0.3-0.7c0,0,0,0,0.1,0c0.3-0.1,0.4-0.5,0.3-0.8c2.4,0.7,4.6,1.6,6.8,2.8
					c2.1,1.1,4.4,1.9,6.8,2.3l0.2,1.4v1.6c-0.2,0-0.3-0.2-0.2-0.6v-0.9c-2.5-0.5-5-1.2-7.4-2.3C39.8,36.8,37.5,35.9,36.5,35.6"/>
				<path class="st12" d="M117.6,35.8c-2.7,1.5-5.5,2.9-8.4,4c-3.2,1.2-6.5,2.1-9.8,2.6c-0.2,0-0.3-0.1-0.2-0.4v-0.7l1.7-0.5
					c0.5-0.1,1.1,0.1,1.5,0.5l0.9-0.6L104,40l0.3,0.3l0.5,0.1c0.6-0.3,1-0.8,1.1-1.5c1.4-0.1,2.7-0.5,4-1.1c1.2-0.6,2.4-1,3.6-1.5
					l-0.1,0.4c-0.1,0.1-0.1,0.3-0.1,0.4c1.3-1.7,2.4-2.2,3.2-1.5L117.6,35.8"/>
				<path class="st3" d="M117.4,31.5c0.3,0.7,0.4,1.4,0.4,2.2c0.1,0.7-0.1,1.4-0.4,2.1h-0.9l0.2-1.8c0.1-0.6,0.1-1.2-0.2-1.7
					c-0.4,0.3-1,0.5-1.5,0.4c-0.3,0-0.7,0.3-1,0.8l0.2,1.5c0,0.6-0.1,1-0.4,1.2c0.1-0.4-0.1-0.9-0.4-1.1c-0.4-0.3-0.5-0.7-0.4-1.2
					c-0.6,0.6-1.9,1.2-4,1.7c-1.5,0.3-3,1-4.1,2.1l-1.8,0.4c-0.6,0.3-1.2,0.5-1.7,0.9c-0.5-0.3-1.1-0.3-1.5,0l-1.4,0.6
					c-1.3-0.6-2.9-0.3-3.8,0.8l0.1,1c0.1,0.3,0.1,0.6-0.1,0.9h-1.1v-1.7l-3.2,0.7l-3.2,0.6h-0.4c0.1,0.7,1.1,1.9,3,3.6
					c1.2,1.2,2.6,2.2,4,3.2l1.6,1.2c0.6,0.3,1.1,0.9,1.3,1.5c-0.6-0.2-1.2-0.4-1.7-0.8l-1.5-0.9l-8.7,3.3c-2.8,1.1-5.5,2.4-8,4
					c0.1,0.7,0,1.5-0.2,2.2c-0.2,0.6-0.4,1.2-0.4,1.9v2.9c0,0.2-0.2,0.4-0.4,0.4h-0.8c-0.5-0.2-0.7-0.9-0.8-1.9l-0.3-2.5
					c0-0.6-0.1-1.1-0.3-1.7c-0.2-0.5-0.3-1.1-0.3-1.7l-1.3-0.3l-1.4-0.3c0-0.2,0-0.3,0-0.5l0.2-0.3c-2.1-1-4.3-1.9-6.5-2.7
					c-3.2-1.2-5.1-2.2-5.9-3c0.9-1.3,2-2.4,3.2-3.5c1.2-1.1,2.3-2.2,3.2-3.5c0-0.2-0.2-0.3-0.5-0.2l-0.5,0.2l-0.2-0.6l-1.4-0.2
					l-1.4-0.2l-3.6-0.8c-0.2,0-0.3,0.3-0.2,0.7v1c-0.3-0.2-0.7-0.3-1.1-0.2v-1.5c-0.4-0.3-0.8-0.5-1.3-0.4c-0.5,0-1-0.1-1.4-0.4
					c-0.3,0.5-0.3,1.1-0.2,1.7c0.1,0.6,0,1.2-0.2,1.7l-0.8,0c-0.2,0-0.4-0.2-0.4-0.4l-0.2-0.7v-1.6l-0.2-1.4
					c-2.4-0.4-4.7-1.2-6.8-2.3c-2.2-1.1-4.4-2.1-6.8-2.8c0.1,0.3,0,0.6-0.3,0.8c-0.3,0.1-0.4,0.4-0.3,0.7c0,0,0,0,0,0.1
					c-0.2,0-0.3,0.1-0.2,0.4s0,0.5-0.2,0.4c-0.1-0.5-0.2-0.9-0.2-1.4v-1.7l-1.2-0.5l-1.1-0.6c-0.1,1.2,0,2.4,0.2,3.6h-1
					c-0.3-0.7-0.5-1.4-0.4-2.1c0-0.7,0.1-1.5,0.4-2.1L31,30.5L29.7,29c-0.6,1.5-0.6,3.1,0,4.6h-0.8l-0.7-0.3
					c-0.3-0.1-0.4-0.4-0.4-0.7c-0.1-0.9-0.1-1.9,0.2-2.8c0.2-0.7,0.5-1.4,0.9-2.1c-1.1-0.3-2.1-0.8-2.9-1.6
					c-0.8-0.7-1.7-1.3-2.6-1.8v-0.6c0.3,0,0.6-0.1,0.7-0.4l-0.3-0.4l-0.4-0.4l-5.1,0.7c-1.5,0.2-3,0.7-4.4,1.4
					c-0.2-0.3-0.6-0.4-1.3-0.4L11,24.4c0.3,0.3,0.7,0.5,1.1,0.6l1.4,0.3v1.9l-0.2,1.7L12.9,29v-3.4c-1-0.4-2-0.7-3.1-0.9L6.6,24
					c-1,0.6-1.9,1.4-2.6,2.3c-0.2,0.1-0.5,0.2-0.7,0.4c-0.2,0.2-0.5,0.3-0.8,0.3l2-2.7c0.6-0.9,1.3-1.8,2.1-2.5
					c0.2,0.2,0.9,0,2.2-0.6c0.9-0.5,1.9-0.9,2.9-1.3h1.7l-0.8,0.8c-0.3,0.4-0.4,0.9-0.2,1.4c1.7-0.5,3.5-0.7,5.3-0.6l5.5-0.1
					c1.2,0.3,2.2,1,3,2c-0.2-0.3-0.3-0.8-0.2-1.1l0.5-0.1l0.5-0.1c0.5,2.1,1.8,4,3.7,5.2c1.8,1.1,3.5,2.4,5,3.9l-1.9-1.1
					c-0.6-0.4-1.3-0.6-1.9-0.5c0.1,0.8,0.8,1.4,1.6,1.5c0.8,0,1.5,0.5,1.8,1.3c-0.1-0.3,0-0.4,0.3-0.4h0.8c0.2,0.3,0.3,0.7,0.2,1.1
					c0.2,0.1,0.4,0,0.7-0.4s0.3-0.3,0.4-0.1c0.4,0.4,0.3,0.7-0.2,1c1.5,0.5,2.9,1.1,4.2,1.9c0.1-0.6,0.3-0.9,0.7-1
					c-0.1,0.4,0,0.9,0.2,1.3l0.9,0.1l0.6-0.5l0.2,0.5c0,0.2,0.1,0.3,0.2,0.3l0.2-0.6l1.5,0.2c0.5,0,1,0.2,1.3,0.6v0.8
					c0.3,0,0.6,0,0.8-0.2c0.2-0.2,0.6-0.3,0.9-0.2c0,0.7,0.4,1.3,1.1,1.5c0.2,0.2,0.4,0.1,0.5-0.2s0.5-0.5,0.8-0.5
					c6.5,1.5,13.1,2.5,19.7,3v1.4c-1.9-0.6-3.4-0.4-4.4,0.5l-2.4,3.3L62.6,47c-0.5,0.4-0.8,0.9-1,1.5L61,48.6l-0.4,0.1
					c5.1,2.2,9.7,4.4,13.8,6.5c2.7-0.7,5.2-1.8,7.6-3.1c2.4-1.3,4.9-2.4,7.5-3.3c0-0.3-0.1-0.4-0.3-0.3l-0.8-0.1l-3.7-5
					c-1.7-2-3.7-2.6-5.8-1.5v-1.1c-0.1-0.3,0-0.6,0.1-0.8l10.3-0.9l9.4-1.8c0.6,0.1,0.8,0.3,0.8,0.8l1-0.6c0.4-0.2,0.5-0.7,0.5-1.1
					l0.8,0.1c0.2,0.2,0.4,0.2,0.7,0.3l0.2-0.3V36c0.3-0.4,0.8-0.6,1.3-0.6l1.5-0.2l0.4,0.6c-0.1-0.5,0.1-0.8,0.4-0.8
					c0.1,0.4,0.2,0.5,0.4,0.6l0.9-0.1c0.1,0,0.2-0.2,0.2-0.7c0-0.4,0.1-0.6,0.2-0.6l0.3,0.6l0.4,0.5c0.6-0.5,1.3-0.9,2-1.1l2.1-1
					c-0.3,0-0.5-0.1-0.4-0.3l0.2-0.7c0.2,0.1,0.4,0.2,0.5,0.4c0.1,0.2,0.4,0.3,0.6,0.3c-0.2-0.6,0-0.9,0.5-1.1s0.9,0,1,0.4
					c0-0.6,0.4-1.1,1-1.1c0,0,0.1,0,0.1,0l1.6-0.3c-0.1-0.5,0.1-1.1,0.4-1.5c-0.8,0.2-1.5,0.5-2.1,0.9c-0.5,0.4-1.1,0.6-1.7,0.8
					l4.9-3.6c1.8-1.1,3.1-2.9,3.8-4.8h12.5l-3.9,0.3l-4.7-0.1c0.1,0.2,0.4,0.4,0.8,0.4h1.3v0.2c-0.2,0.1-0.4,0.2-0.4,0.4l0.2,0.3
					v0.5h0.9c0.4,0,0.5,0,0.6,0.2h-1c-0.3,0-0.5,0-0.7,0.2c-0.1,0.3-0.1,0.7,0.1,1c0.1,0.3,0.1,0.5-0.1,0.7
					c-0.3-0.1-0.6-0.6-0.8-1.4s-0.5-1.2-0.9-1.3c-0.1,0.8-0.6,1-1.5,0.8c-0.4,0.9-1,1.6-1.8,2c-0.8,0.4-1.5,1-2.2,1.6l0.7,1.9
					c0.2,0.8,0.3,1.7,0.1,2.6c0,0.3-0.1,0.6-0.4,0.7l-0.7,0.3c-0.6,0-0.8-0.7-0.5-2c0.2-1.5,0.1-2.4-0.5-2.6
					C119.5,30.2,118.5,31.1,117.4,31.5"/>
				<path class="st9" d="M46,42.1l6.1,2.2c2.3,0.8,4.8,1.1,7.2,0.9c-1.2,1.2-2.5,2.2-4,3c-1.4,0.8-2.7,2-3.6,3.3l4,2.5
					c1.4,0.6,2.6,1.6,3.6,2.8h-0.4l-3.6-2.3c-1.3-0.8-2.6-1.4-4.1-1.9c0-1.7,1-3.2,2.5-4l3.8-2.7l-2.7-0.1l-2.8-0.3
					c-8.3-3.1-13.8-5.3-16.5-6.6c-5.9-2.8-10.3-6-13.3-9.4l-0.1-0.1l0.3,0.1c0.3,0.3,0.2,0.2-0.1-0.3l-0.7-0.8
					c0-0.4-0.3-0.5-0.8-0.4l-1-0.1l0.9-0.2l1,0l0.8,1.5c0.9,0.4,1.6,1.1,2.2,1.9l2,2.2c2.7,2.1,5.7,3.7,8.8,5L46,42.1"/>
				<path class="st6" d="M52.3,43.2c0.2-0.5,0.3-1.1,0.2-1.7c-0.1-0.6,0-1.2,0.2-1.7c0.4,0.3,0.9,0.4,1.4,0.4c0.5,0,1,0.1,1.3,0.4
					V42l0.5,0.2h-0.5V42L53,41c-0.2,0.1-0.3,0.4-0.2,0.8v1.1L52.3,43.2 M56.6,42.3v-1c0-0.4,0-0.7,0.2-0.7l3.6,0.8l-0.8,0.1
					l-0.8,0.1c0.3,0.3,0.8,0.4,1.2,0.5l1.4,0.3c-1.4,0.3-2.9,0.3-4.3,0L56.6,42.3"/>
				<path class="st12" d="M52.7,41.9c0-0.4,0-0.7,0.2-0.8l4,1.4c1.4,0.3,2.9,0.4,4.3,0.1l-1.4-0.3c-0.4-0.1-0.9-0.2-1.2-0.5l0.8-0.1
					l0.8-0.1l1.4,0.2l1.4,0.2h-1c-0.4,0-0.5,0.1-0.5,0.4c-0.3,0.1-0.3,0.1,0,0.2s0.5,0.1,0.4,0.3c-0.6,1.2-2,1.6-4.2,1.3L52.8,43
					L52.7,41.9"/>
				<path class="st6" d="M87.1,41.9l3.2-0.6l3.2-0.7v1.7h1.1c0.2-0.2,0.3-0.6,0.1-0.9l-0.1-1l1.5-0.3l1.5-0.3V43H98
					c0.2,0,0.3,0.1,0.3,0.2L94,43.6L89.2,44c-0.4-0.3-0.8-0.7-1-1.1C87.9,42.5,87.6,42.1,87.1,41.9"/>
				<path class="st1" d="M78.8,41.9v0.4h2h2.5c0.4,1.4,1.2,2.6,2.3,3.5c1,0.8,1.7,1.8,2.2,3c-2.7,1.1-5.5,2-8.3,2.7
					c-0.8,0.3-1.5,0.6-2.3,1l-2,0.7c-0.7,0-1.5-0.3-2.1-0.7c-0.7-0.4-1.5-0.8-2.3-1.1l-1.2-0.1l-1.1-0.1c-1-0.4-2-0.9-3-1.5
					c-0.9-0.6-2-1-3.1-1.1c0.5-1.2,1.2-2.2,2.2-3c1.1-0.9,1.8-2.2,2.2-3.5H69l2,0.2v3L67.2,46c0.1,0.5,0.5,1,1,1.3l1.6,0.8l2.5,2.3
					c0.7,0.8,1.6,1.3,2.6,1.5c0.3,0,0.6-0.1,0.8-0.3l0.7-0.7c1.2-0.7,3.4-2,6.8-3.8c0-0.5-0.4-0.8-1-0.8s-1-0.3-1.1-0.7l-1.4,0.2
					l-1.1,0.4c0.2-2.3,0.3-4.7,0.2-7c6.3,0.1,11-0.3,14-1.2l4.3-1l2.8-0.5c0.9-0.3,1.9-0.5,2.9-0.5v0.5l-0.2,0.3
					c-0.2,0-0.5-0.1-0.7-0.3l-0.8-0.1c0.1,0.4-0.1,0.9-0.5,1.1l-1,0.6c0-0.5-0.3-0.8-0.8-0.8l-9.4,1.8L79,40
					c-0.2,0.2-0.3,0.5-0.2,0.8L78.8,41.9"/>
				<path class="st6" d="M71.4,60l-2.1-2.1c-2.2-1.6-4.5-2.9-7-3.8l-7.4-3.3l1.4-0.8c0.5-0.3,1.2-0.5,1.8-0.4c0.8,0.8,2.7,1.8,5.9,3
					c2.3,0.8,4.5,1.7,6.6,2.7l-0.2,0.3c0,0.2,0,0.3,0,0.5l1.4,0.3l1.3,0.3c0,0.6,0.1,1.2,0.3,1.7c0.2,0.5,0.3,1.1,0.3,1.7L71.4,60"
					/>
				<path class="st12" d="M74,63c-6.7-2.9-13-6.5-18.9-10.7c-0.6,0.2-1.3,0-1.6-0.5c-0.4-0.3-0.4-0.9,0-1.3c0.1-0.1,0.1-0.1,0.2-0.2
					l-0.1,0.5l-0.1,0.5c0.6,0,1.1-0.2,1.5-0.7l7.4,3.3c2.5,1,4.8,2.3,7,3.8l2.1,2.1l2.3,0l0.3,2.5c0.1,1.1,0.3,1.7,0.8,1.9l-0.6,0.3
					l-0.4,0.4l0.6,0.3l0.5,0.5l2.4-1.4c0.8-0.5,1.7-0.9,2.7-1.2c-0.1,0.2-0.3,0.3-0.7,0.4c-0.4,0.1-0.6,0.3-0.6,0.6
					c-0.6,0.3-1.2,0.6-1.8,1l-1.8,1l-5.1-2.8h1.3l1.5,0.8l0.7-0.7L74,63"/>
				<path class="st5" d="M76.1,61.2c0.1-0.6,0.2-1.3,0.4-1.9c0.2-0.7,0.3-1.4,0.2-2.2c2.5-1.6,5.2-3,8-4l8.7-3.3l-7.6,3.5
					c-2.5,1.1-4.8,2.5-7,4.1c0,0.9-0.4,1.7-1.1,2.2L76.1,61.2"/>
				<path class="st8" d="M126,18c-3.4-3-7.1-5.6-11-7.8c-5.4-3.3-13.2-5.9-23.5-7.6L75,1.5L58.5,2.6C48.2,4.4,40.3,6.9,35,10.2
					c-2,1.1-3.9,2.3-5.8,3.7L23.7,18h-0.8l-0.7,0.2c-0.4,0.1-0.6,0.1-0.5,0.3l0.5,0.4L17.6,19c-1.4,0.1-2.8-0.1-4.1-0.6l4.1-0.5
					l4.1-0.1c0.5-0.3,1.1-0.4,1.7-0.4c1.6-1.8,3.4-3.4,5.5-4.8c2.2-1.5,4.5-2.9,6.8-4.1l2.5-1.1c1.1-0.6,1.4-1,0.9-1.2l0.9-0.3
					l1-0.1l0.1,0.1l14.3-3.6c5.5-1.4,11.2-2,16.8-1.8l5.2,0.1l5.8-0.1l-3.3-0.2l-3.4-0.2c3,0,6.1,0,9.3,0.2l-1,0.3l-1.3-0.1
					c7.3,1,14.6,2.5,21.6,4.6l1.5,0.4l1.4,0.5c-0.2-0.4,0-0.5,0.8-0.3l1.8,0.5l-0.3,0.2c-0.2,0-0.3,0.1-0.3,0.2
					c4.1,2,7.1,3.5,8.9,4.6c2.8,1.6,5.2,3.7,7.2,6.2l5.1,0.5c1.7,0,3.4,0.2,5.1,0.8l-4,0.3H128l0.3-0.4c0-0.1-0.2-0.2-0.5-0.3
					L126,18"/>
				<path class="st1" d="M91.5,2.6c-11-0.7-22.1-0.7-33.1,0L75,1.5L91.5,2.6"/>
				<path class="st13" d="M72.5,0.5C66.8,0.3,61.1,1,55.6,2.4L41.3,5.9l-0.1-0.1C46.5,4,51.9,2.5,57.4,1.4
					c6.4-1.2,12.8-1.6,19.3-1.4l3.4,0.2l3.3,0.2l-5.8,0.1L72.5,0.5"/>
				<path class="st1" d="M2.6,13.8c1-1.3,2.3-2.4,3.7-3.2C8,9.5,10.1,9,12.1,9.2c1.7,0.2,3.4,0.6,5,1.2c2,0.7,3,1.4,3,2
					c0.1,1.1-0.9,1.6-2.8,1.6l-5-0.4l-5.5,0.1L2.6,13.8"/>
				<path class="st8" d="M17.7,17.9l-4.1,0.5c-0.1,0-0.1,0.1-0.1,0.3l-0.4,0.3c-0.4-0.9-1-1-2-0.5L9,19.9c-4.2,2-7,4.7-8.5,8
					c0.1,0.2,0.2,0.3,0.3,0.1l0.5,0c2.4,0.2,4.8,0.7,7.2,1.5c1.9,0.7,3.8,1,5.8,1L14,30.7c-1.4,0.2-3.6-0.1-6.5-0.9
					C5.1,29,2.5,28.5,0,28.4c0-1.1,0.5-2.2,1.3-3l2.3-2.3l0.6-0.9l0.5-0.8C5,21.2,5.4,21,5.8,20.9L7,20.6c0.6-0.4,1.3-0.8,1.8-1.3
					c0.6-0.5,1.3-0.9,2-1.2l3.2-0.3l3.4-0.3l2.2,0.2l2.3,0.2L17.7,17.9"/>
				<path class="st2" d="M10.3,19.6c0.6-0.4,1.1-0.3,1.4,0.1c-1,0.3-2,0.8-2.9,1.3c-1.2,0.6-2,0.8-2.2,0.6c-0.8,0.8-1.5,1.6-2.1,2.6
					l-1.9,2.7v0.2c-1.3,0.1-1.7,0.4-1.3,0.8l-0.5,0.1c-0.1,0.2-0.3,0.1-0.3-0.1c1.4-3.4,4.3-6,8.5-8C9.1,20.2,9.6,20.1,10.3,19.6"/>
				<path class="st14" d="M136.4,22.3c0.9,0.2,1.9,0.2,2.8,0l2.5,0.2c-0.6,0.4-1.2,0.6-1.9,0.7c-0.7,0-1.4,0.2-1.9,0.6
					c0.3,0,0.4,0.2,0.4,0.5c0.1,0.3,0,0.5-0.2,0.7h-0.2c-1.6,0-3.1-0.3-4.6-0.8c-1.4-0.5-2.8-0.9-4.3-1.1v-0.2h-1.3
					c-0.5-0.1-0.8-0.2-0.8-0.4l4.7,0.1l3.9-0.3H136.4"/>
				<path class="st14" d="M13.6,25.2l-1.4-0.3c-0.4,0-0.9-0.3-1.2-0.6l1.5-0.2c0.7,0,1.1,0.2,1.3,0.4c1.4-0.7,2.9-1.2,4.4-1.4
					l5.1-0.7l0.4,0.4l0.3,0.4c-0.1,0.3-0.4,0.5-0.7,0.4L18.6,24l-5,1L13.6,25.2"/>
				<path class="st11" d="M4,26.3c0.7-0.9,1.6-1.7,2.6-2.3l3.3,0.8c1.1,0.2,2.1,0.4,3.1,0.9V29c0-0.4-0.4-0.6-1-0.8L10,28l-2.9-1
					C6.1,26.6,5.1,26.3,4,26.3"/>
				<path class="st12" d="M14,28.8l-5.5-0.3c-2-0.6-4-1.1-6-1.4v-0.2c0.3,0,0.6-0.1,0.8-0.3c0.2-0.2,0.4-0.3,0.7-0.4
					c1.1,0.1,2.1,0.3,3.1,0.7l2.9,1l2,0.3c0.6,0.1,0.9,0.4,1,0.8l0.4-0.2l0.4-0.1C14,28.7,14,28.8,14,28.8"/>
				<path class="st5" d="M147.4,27.1c-2,0.2-4.1,0.6-6,1.3c-1.4,0.5-2.9,0.7-4.5,0.6h0.1v-3.6c0-0.1,0.2-0.1,0.4-0.1l0.4-0.3h0.2
					l2.9-0.4c0.9-0.3,1.7-0.5,2.6-0.7l1.7,1.7c0.5,0.6,1.3,1.1,2.1,1.3V27.1 M136,28.8c0.1-0.2,0.2-0.2,0.4,0l0.4,0.2L136,28.8"/>
				<path class="st6" d="M113.8,36.2c0.3-0.2,0.5-0.6,0.4-1.2l-0.2-1.5c0.3-0.5,0.7-0.8,1-0.8c0.5,0,1.1-0.1,1.5-0.4
					c0.3,0.5,0.3,1.1,0.2,1.7l-0.2,1.8c-0.8-0.7-1.8-0.2-3.2,1.5c0-0.1,0.1-0.3,0.1-0.4l0.1-0.4c-1.2,0.4-2.4,0.9-3.6,1.5
					c-1.3,0.6-2.6,1-4,1.1c1.3-1,2.7-1.9,4.2-2.6C112.5,35.1,113.7,35.1,113.8,36.2"/>
				<path class="st5" d="M92.6,37.9c-3,0.9-7.7,1.4-14,1.2c0.1,2.3,0,4.7-0.2,7l1.1-0.4l1.4-0.2c0.1,0.4,0.4,0.7,1.1,0.7
					s1,0.3,1,0.8c-3.3,1.8-5.6,3-6.8,3.8l-0.7,0.7c-0.2,0.2-0.5,0.3-0.8,0.3c-1-0.2-1.9-0.7-2.6-1.5L69.7,48l-1.6-0.8
					c-0.5-0.3-0.9-0.7-1-1.3l3.9-0.4v-5.7c-0.1-0.5-0.5-0.8-1.1-0.8l-1.6,0.1l-6-0.3l-4.9-0.9l5.7,0.5l6.1,0.1l0.1-0.1l-0.4-0.1
					L66.8,38l-2.3-0.3L62.8,37c-0.5-0.3-0.9-0.7-1.2-1.2c2.1,0.6,4.2,1,6.4,1.2c2.1,0.1,4.1,0.6,6,1.5l2.5-0.8
					c0.8-0.4,1.7-0.1,2.2,0.6c2.4,0.3,4.7,0.4,7.1,0.2L92.6,37.9"/>
				<path class="st14" d="M64.4,42.5c-0.9,1.3-2,2.5-3.2,3.5c-1.2,1.1-2.2,2.2-3.2,3.5c-0.6-0.1-1.3,0.1-1.8,0.4l-1.4,0.8
					c-0.4,0.4-0.9,0.7-1.5,0.7l0.1-0.5l0.1-0.5c3.7-2.1,6.9-4.7,9.8-7.8l0.5-0.2C64.2,42.3,64.4,42.3,64.4,42.5"/>
				<path class="st6" d="M96.8,51.4l-10,6.1c-3.9,2.2-7.4,4.1-10.6,5.5v0.7c0,0.3,0,0.4-0.2,0.4v-2.9l1.7-1.6c0.6-0.5,1-1.3,1.1-2.2
					c2.2-1.6,4.5-3,7-4.1l7.6-3.5l1.5,0.9c0.5,0.4,1.1,0.6,1.7,0.8c-0.2-0.7-0.7-1.2-1.3-1.5l-1.6-1.2l2,1
					C96.2,50.1,96.6,50.7,96.8,51.4"/>
				<path class="st12" d="M113.9,13.9c1.8,1.1,2.7,2.5,2.6,4.1l-0.4-0.3c-0.1-0.1-0.2,0-0.2,0.3c0.2,2.1-0.9,4.2-2.7,5.3l-0.9,0.4
					c-0.3,0-0.6,0.2-0.8,0.3l-1,1.1l-0.9,1c-2,1.2-4,2.3-6.1,3.2L96.8,32c-0.3,0.3-0.8,0.5-1.3,0.4c-6.8,1.1-13.7,1.7-20.5,1.7
					c-6.9,0-13.8-0.5-20.6-1.7l-0.7-0.1L53.2,32c-3.4-1.2-6.6-2.7-9.8-4.5c-1.1-0.4-2.2-0.9-3.2-1.5L39.4,25l-0.8-1l-0.9-0.3l-1-0.4
					c-0.5-0.4-1-0.8-1.3-1.4l-1-1.6l0.6-0.4c0.2-0.1,0.4-0.4,0.4-0.6c-0.5-0.1-0.9-0.5-1-1l0-1.5l-0.4,0.8c-0.2,0.3-0.3,0.4-0.4,0.2
					c-0.1-0.4,0-0.9,0.1-1.3l0.3-1c8.7-5.8,18.8-9.2,29.3-9.7c8-0.4,16-0.4,23.9,0c3.9,0.1,7.7,0.7,11.5,1.7
					c3.3,0.9,6.4,2.1,9.5,3.6L113.9,13.9"/>
				<path class="st14" d="M78.8,41.9c2.2-1,4.1-0.5,5.8,1.5l3.7,5l0.8,0.1c0.2-0.1,0.3,0,0.3,0.3c-2.6,0.9-5,2-7.4,3.3
					c-2.4,1.3-4.9,2.4-7.6,3.1c-4.2-2.1-8.8-4.3-13.8-6.6l0.4-0.1l0.7-0.1c0.2-0.6,0.5-1.1,1-1.5l1.6-1.5l2.4-3.3
					c0.9-0.9,2.4-1.1,4.4-0.5v0.8l-2-0.2h-2.3c-0.4,1.4-1.1,2.6-2.2,3.5c-1,0.8-1.7,1.8-2.2,3c1.1,0.2,2.2,0.6,3.1,1.2
					c1,0.6,2,1,3,1.5l1.1,0.1l1.2,0.1c0.8,0.3,1.6,0.6,2.3,1.1c0.6,0.4,1.3,0.6,2.1,0.7l2-0.7c0.7-0.4,1.5-0.7,2.3-1
					c2.8-0.7,5.6-1.6,8.3-2.7c-0.5-1.2-1.2-2.2-2.2-3c-1.1-0.9-1.9-2.1-2.3-3.5h-2.5h-2L78.8,41.9"/>
				<path class="st1" d="M143.5,14l-5.4-0.2l-4.9,0.4c-2.1,0-3.1-0.5-3.2-1.5c0-0.9,1.4-1.7,4.3-2.6s5.1-1,6.7-0.6
					c2.6,0.6,5,2.2,6.6,4.4H143.5"/>
				<path class="st1" d="M12.9,41.5c-2,0.1-4-0.1-5.9-0.6c-2.3-0.7-3.7-1.7-4.2-3c0.6-0.7,1.5-1.1,2.4-1.1l3.1-0.2
					c2.1-0.4,4.2-1.1,6.1-1.9l3-1.5c0.8-0.4,1.8-0.6,2.7-0.6c0.5,0.1,1,0.4,1.3,0.7c0.3,0.3,0.6,0.7,0.6,1.2c0,0.4-0.6,1-1.7,2
					L18,38.3l-2.9,1.4C14.2,40,13.4,40.7,12.9,41.5"/>
				<path class="st1" d="M147.4,37.9c-0.1,1-0.7,1.8-1.7,2.2l-3.4,1l-2.4,0.8l-2.6-0.1c-0.5-0.8-1.3-1.4-2.2-1.8l-2.9-1.4l-2.3-1.8
					c-1.1-0.9-1.7-1.5-1.7-1.8c-0.1-0.7,0.3-1.4,1-1.7l2.4-0.2l4.6,1.8c1.8,0.9,3.7,1.5,5.6,1.9l3.1,0.2
					C145.8,37.1,146.7,37.4,147.4,37.9"/>
				<path class="st1" d="M27.4,37.5c-0.6,1.3-2,2.7-4.3,4.2c-2.7,1.7-4.4,1.8-5.3,0.3c0.4-0.8,1-1.5,1.7-2l2.6-1.6
					c0.8-0.5,1.7-1,2.6-1.4C25.6,36.5,26.7,36.7,27.4,37.5"/>
				<path class="st1" d="M132.4,41.9c-0.8,1.7-2.5,1.7-5,0.1c-1.8-1-3.4-2.5-4.5-4.3c1-1.1,2.7-0.9,5,0.5
					C129.6,39.2,131.1,40.4,132.4,41.9"/>
			</g>
		</g>
	</g>
</g>
</svg>
