<?xml version="1.0" encoding="utf-8"?>
<!-- Generator: Adobe Illustrator 24.0.1, SVG Export Plug-In . SVG Version: 6.00 Build 0)  -->
<svg version="1.1" id="Camada_1" xmlns="http://www.w3.org/2000/svg" xmlns:xlink="http://www.w3.org/1999/xlink" x="0px" y="0px"
	 viewBox="0 0 76.6 92.6" style="enable-background:new 0 0 76.6 92.6;" xml:space="preserve">
<style type="text/css">
	.st0{opacity:0.43;}
	.st1{opacity:0.29;fill:#FFFFFF;enable-background:new    ;}
	.st2{fill:#F9F1E6;}
	.st3{fill:#F9F2DF;}
	.st4{opacity:0.36;}
</style>
<title>Ativo 1TestTal</title>
<g id="Camada_2_1_">
	<g id="Camada_1-2">
		<g id="Camada_2-2" class="st0">
			<g id="Camada_1-2-2">
				<ellipse class="st1" cx="37" cy="53" rx="19.2" ry="11.5"/>
			</g>
		</g>
		<path id="path842" class="st2" d="M37,37.3c-6.4,0-13.1,0.7-16.5,4.1C17,45,13,47.9,13,52.4c0,2-0.1,4.1,1.1,5.7
			c1.4,2,4.2,3.7,6.4,5.3c4.8,3.4,10.7,4.9,16.5,4.1c6.4-0.6,12.6-0.5,16.5-4.1c3.7-3.4,6.6-6.6,7.5-11.1s-2.8-8.4-7.5-11.1
			C48.4,38.7,42.7,37.3,37,37.3z M37,42c2.8,0,5.3,1.2,7.7,1.8s4.6,0.4,6.1,1.6c2.8,2.2,3.8,4.9,5.1,7c-0.1,3.2-1.9,6.1-4.7,7.7
			c-3.4,2-17,5.1-21.8,2.7c-5.7-1.7-2.9,0-6.2-2.7c-3.4-2-5.1-5.2-5-7.7s2.8-4.3,5.1-7c1.8-2.1,5.6-2.4,9.5-2.7
			C34.3,42.6,35.5,42,37,42L37,42z"/>
		<path id="path844" class="st3" d="M26.5,41.3C24.5,42.2,12,40,12.1,39.5c1.6,2.6,2,5.6,5.8,7.4L26.5,41.3z"/>
		<path id="path846" class="st3" d="M44.6,41c0,0.5,16.9-1.6,17.7-3.2c-2.1,3.6-4.1,7.2-7.6,9.2L44.6,41z"/>
		<path id="path848" class="st3" d="M21.8,63c-2.6,1.9-6.5,2.7-10,3.8c1.9-2.6,5.4-3.2,4.7-8.8L21.8,63z"/>
		<path id="path850" class="st3" d="M51.2,62.7c3.6,1.8,7.3,3.1,11.2,4c-2.7-2-5-4.6-6.6-7.5L51.2,62.7z"/>
		<ellipse id="ellipse856" class="st2" cx="36.5" cy="51.4" rx="4.2" ry="3.2"/>
		<path id="path858" class="st2" d="M68.6,56.6c2.3-0.4,4.7-0.7,6.1-2c-0.8-1.4-1.7-2.6-2.9-3.7c-1.2-0.4-2.5-0.4-3.7,0l-2.9,2
			C65.1,52.9,67.7,56.6,68.6,56.6z"/>
		<path id="path860" class="st2" d="M3.3,55.1c2.8,0.1,4.7-0.3,5.6-2.2C8.6,51.3,7.5,50,6,49.4c-1-0.4-2.1-0.4-3.1,0
			c-1.1,0.4-2.1,1.1-2.9,2C-0.2,51.5,2.4,55.1,3.3,55.1z"/>
		<path id="path862" class="st3" d="M32.3,34.4c3,0,7.5-0.1,7.2-3.5c-0.7-1.5-2.1-2.5-3.8-2.7c-1.1-0.1-2.1,0.1-3,0.8
			c-1,0.7-1.7,1.6-2.2,2.7C30.4,31.7,31.5,34.7,32.3,34.4z"/>
		<ellipse id="ellipse864" class="st2" cx="36.8" cy="73.6" rx="4.2" ry="3.2"/>
		<g class="st4">
			<path id="path842-2" class="st2" d="M37.4,65.7c-6.1,0-12.5-0.7-15.7-4.1c-3.3-3.6-7.1-6.5-7.1-11.1c0-2-0.1-4.1,1-5.8
				c1.3-2,4-3.7,6.1-5.3c4.5-3.4,10.1-4.8,15.7-4.1c6.1,0.6,11.9,0.5,15.7,4.1c3.5,3.4,6.3,6.6,7.1,11.1s-2.6,8.4-7.1,11.1
				C48.3,64.2,42.9,65.7,37.4,65.7z M47.1,63.7c2.7,0,5-2.4,7.3-3s1.3-2.9,2.7-4.1c2.6-2.2,0.6-7.4-1.2-7.5c0-2.5-2.3-3.6-5.5-5.7
				S42,37.6,37.4,40c-4.9,2.5-9.8,2-13.2,2.7c-3.2,2-1.8,4.2-4,3.1c-4.3-2.2-3.8,10-1.6,12.6c1.7,2.1,4.6,5.8,8.3,6.1
				c1.4,0.1,12.1,0,13.5,0L47.1,63.7z"/>
			<path id="path848-2" class="st3" d="M21.9,41.9c-2-2-5.2-3.2-8.1-4.5c-0.1-0.1-0.2,0-0.3,0.1c0,0.1,0,0.2,0,0.2
				c1.2,1.8,2.9,3,3.2,5.6c0.1,0.8,0.8,1.4,1.6,1.3c0.3,0,0.5-0.1,0.7-0.3l2.8-2.1C21.9,42.2,21.9,42,21.9,41.9
				C21.9,41.9,21.9,41.9,21.9,41.9z"/>
			<path id="path850-2" class="st3" d="M49.9,40.2c3.4-1.8,7-3.1,10.7-4c-2.6,2-4.8,4.6-6.3,7.6L49.9,40.2z"/>
			<ellipse id="ellipse856-2" class="st2" cx="36" cy="52.5" rx="4" ry="3.2"/>
			<path id="path858-2" class="st2" d="M69.5,46.8c2.2,0.4,4.4,0.7,5.8,2c-0.7,1.4-1.6,2.6-2.7,3.7c-1.1,0.4-2.3,0.4-3.5,0l-2.7-2
				C66.2,50.5,68.6,46.8,69.5,46.8z"/>
			<path id="path860-2" class="st2" d="M3.3,45.8C5.9,45.7,7.8,46,8.6,48c-0.3,1.6-1.3,2.9-2.7,3.6c-1,0.4-2,0.4-3,0
				c-1.1-0.4-2-1.1-2.7-2C0,49.5,2.5,45.8,3.3,45.8z"/>
			<path id="path862-2" class="st3" d="M33.9,72.6c2.9,0,7.1,0.1,6.8,3.5c-0.7,1.5-2,2.5-3.6,2.8c-1,0.1-2-0.1-2.9-0.8
				c-0.9-0.7-1.7-1.6-2.1-2.7C32,75.4,33.1,72.4,33.9,72.6z"/>
			<ellipse id="ellipse864-2" class="st2" cx="35.2" cy="29.2" rx="4" ry="3.1"/>
		</g>
	</g>
</g>
</svg>
