<?xml version="1.0" encoding="utf-8"?>
<!-- Generator: Adobe Illustrator 24.0.1, SVG Export Plug-In . SVG Version: 6.00 Build 0)  -->
<svg version="1.1" id="Camada_1" xmlns="http://www.w3.org/2000/svg" xmlns:xlink="http://www.w3.org/1999/xlink" x="0px" y="0px"
	 viewBox="0 0 168.1 145.2" style="enable-background:new 0 0 168.1 145.2;" xml:space="preserve">
<style type="text/css">
	.st0{fill:#CCDDEB;}
	.st1{fill:#BCB9C6;}
	.st2{fill:#84A8C2;}
	.st3{fill:#CCDDE5;}
	.st4{fill:#CDE1E8;}
	.st5{fill:#D3CFE2;}
	.st6{fill:none;stroke:#84A8C2;stroke-width:0.35;stroke-linecap:round;}
	.st7{fill:none;stroke:#84A8C2;stroke-width:0.3;stroke-linecap:round;}
	.st8{fill:none;stroke:#84A8C2;stroke-width:0.45;stroke-linecap:round;}
	.st9{fill:none;stroke:#84A8C2;stroke-width:0.25;stroke-linecap:round;}
	.st10{fill:none;stroke:#84A8C2;stroke-width:0.5;stroke-linecap:round;}
	.st11{fill:none;stroke:#84A8C2;stroke-width:0.55;stroke-linecap:round;}
	.st12{fill:none;stroke:#84A8C2;stroke-width:0.4;stroke-linecap:round;}
	.st13{fill:none;stroke:#84A8C2;stroke-width:0.6;stroke-linecap:round;}
	.st14{fill:none;stroke:#84A8C2;stroke-width:0.65;stroke-linecap:round;}
	.st15{fill:none;stroke:#84A8C2;stroke-width:0.7;stroke-linecap:round;}
	.st16{opacity:0.11;}
	.st17{fill:#28112C;}
</style>
<g>
	<g transform="matrix( 1, 0, 0, 1, 0,0) ">
		<g transform="matrix( 1, 0, 0, 1, 0,0) ">
			<g>
				<g id="Symbol_261_0_Layer112_0_FILL_1_">
					<path class="st0" d="M163.6,64.2l2.6-0.1c0.2-0.6,0.2-1.4,0-2.4c-0.2-1.1-0.2-1.9-0.1-2.4l-4.4-6c-1.7-2.5-3.7-3.9-5.8-4.3
						c-0.3,0.3-0.9,0.7-2,1.1l-8-2.9l-8.4-0.7c-3.6,0.1-6.4-0.3-8.4-1.2c-0.5-0.4-1-0.6-1.4-0.6l-2.8-5.9c-1.2-2.1-2.6-3.8-4.3-5.2
						l-3.6-5.4c-3.3-0.6-7.3-1-12-1c-5.4-0.1-9.3,0.2-11.6,1c-3.6,1.2-7.8,3.3-12.7,6.4l-12.4,7.8l-0.6,0.3l0.5,1l0.4,1l0.1-0.1
						c0.9-0.2,1.6,0.1,2.3,0.9c0.8,0.9,1.4,1.4,2,1.5c0.4,0.1,1.5-0.3,3.3-1.1c1.6-0.7,3.1-0.8,4.4-0.3c0.8,0.4,1.6,1.2,2.4,2.6
						l1.7,0.2l1.4,0.5l-0.1,0.4l0.3-0.2l7.8-0.7c3.1-0.2,5.3,0.5,6.4,2.3c-0.4,0.4-0.6,0.8-0.4,1.2l11.8,0.3c4.8,0.5,8,2.2,9.4,5
						c0.3,0.7,0.3,1.5-0.2,2.5c-0.5,1.1-1.2,1.9-2.3,2.4l-0.2,0.7c2.2,1.5,6.1,2.2,11.5,2.1c5.4-0.1,9.2,0.5,11.4,2
						c0.3,0.5,0.3,1.1,0.1,1.8l-0.3,1.8c1.4,1.2,2.2,2.5,2.4,3.8l0.1-0.1l0.8-0.6c0.3-0.3,0.6-0.4,1-0.4l0.1,0.4l0.9-0.6l-0.6-2.4
						c-0.2-1-0.2-1.8,0.1-2.4c1.1-1.2,2.4-1.8,4-1.8c1.1-1.4,2.9-2,5.4-1.6l5.9,0.5C161.9,64.8,162.6,64.4,163.6,64.2 M91,43.1
						c-0.6,0.2-1,0.2-1.3-0.3l1,0c0.6,0,0.8-0.2,0.7-0.7c0-0.2-0.2-0.3-0.5-0.3l-0.9,0c0.6-0.4,1.1-0.5,1.7-0.3
						C91.7,42.3,91.5,42.8,91,43.1 M108.9,44.3l-1.1,0.3c-1.2,0.4-1.9,0.8-2.1,1.1c-0.3,1.8,0.2,2.9,1.3,3.3c0.9,0.4,2,0.2,3.3-0.4
						c1.3-0.6,2-1.4,2.3-2.2c0.3-1-0.4-1.7-2-2.1c1.2,0.1,1.9,0.5,2.1,1.2c0.2,0.6,0,1.3-0.7,2.1c-1.6,2-3.5,2.6-5.5,1.7
						c-0.4-0.3-0.6-0.9-0.8-1.7l-0.3-2.1l1.6-0.8C107.7,44.4,108.3,44.3,108.9,44.3 M133,59.1c0.4,0.3,0.5,0.7,0.4,1
						c-0.2,0.2-0.5,0.4-0.9,0.4l-0.9-0.3c-0.2-0.3-0.1-0.6,0.3-0.9C132.3,59.1,132.7,59,133,59.1z"/>
				</g>
			</g>
		</g>
		<g transform="matrix( 1, 0, 0, 1, 0,0) ">
			<g>
				<g id="Symbol_261_0_Layer111_0_FILL_1_">
					<path class="st1" d="M124.9,39l2.8,5.9c0.5,0,0.9,0.2,1.4,0.6c2,0.9,4.8,1.3,8.4,1.2l8.4,0.7l8,2.9c1.1-0.4,1.7-0.8,2-1.1
						l-0.4-0.3l-2.3-6.2c-0.7-1.7-2.1-2.8-4.4-3.3l-5,0.4l-5.3,0.8c-0.2-0.1-0.3-0.4-0.3-0.8l-0.5-0.3l-3-0.1l-2.9-1.2
						c-1.6,0.3-3.3-0.9-5.1-3.5l-3.8-6.2c-1.1-1.7-2.5-2.8-4-3.4c-2.5-1-6.2-1.6-11-1.8l-11.2-0.9l-0.3-0.5l-0.2-0.6l-0.2-1.1
						l-0.5-1l-0.2-0.3L94,18.7L92.8,19l-0.5,0.4l-0.3,1.6l-0.3,0.5c-4.2,0.8-9.3,3.1-15.2,6.7c-7.4,4.6-12.2,7.4-14.4,8.3
						c0.1,0.7,0,1.7-0.2,3.1l1.5,1.3c0.7-0.8,1.4-1.4,2.3-1.8l2.8-1c2.4-0.7,5.1-1.8,8-3.5l7.3-4.1c0.8-0.4,1.9-1.1,3.2-2l3-1.9
						c1.2-0.6,2.7-1,4.6-1.1l4.8-0.1l13,0.6l2.8,0.4c1,0.3,1.7,1,1.9,2l3.6,5.4C122.3,35.1,123.7,36.9,124.9,39z"/>
				</g>
			</g>
		</g>
		<g transform="matrix( 1, 0, 0, 1, 0,0) ">
			<g>
				<g id="Symbol_261_0_Layer110_0_FILL_1_">
					<path class="st2" d="M143.7,74.3v0.4c-1.7,0.6-2.9,1.2-3.6,1.8c-1.2,0.9-1.6,2.1-1.2,3.6c-0.4,0.1-0.8,0.3-1.1,0.7l-0.9,1
						c0,1.1,0.1,2,0.4,2.7l1.3,2.1c-0.4,0.7-0.7,1.4-0.8,2.1l0.5,0.2l2,2.3c0.8,0.8,1.7,1.3,2.6,1.5l-2.8-2c-1-1-1.3-2-1-3.2
						c0.4,1.2,1.8,2.3,4.3,3.6c2.3,1.1,3.4,2.3,3.4,3.7c-0.4-0.1-0.9-0.5-1.7-1.3c-0.6-0.6-1.2-0.9-1.9-0.9c1.5,0.9,2.5,1.7,3.1,2.6
						l-0.3,1.6c-0.2,0.6-0.2,1.2-0.1,1.8c-0.4-0.9-1.9-2.3-4.4-4.2c-2-1.5-3-3.3-3.1-5.4l-0.6,0.1c-0.2,1.7,0.8,3.5,2.9,5.4
						c3,2.6,4.6,4.1,4.9,4.5l0.3-0.1l0.2,0.3c0.2-2.5,1.1-4.6,2.7-6.5c0.8-0.9,2.4-2.3,4.9-4.3l-0.8,0.2l-0.6,0.3
						c-0.1-1.1-0.9-2.1-2.6-2.8c-1.7-0.8-2.5-1.7-2.6-2.8c-2.9-0.2-5.2-1.1-6.9-2.7l-0.1-0.3c-0.1,0-0.2,0.1-0.1,0.3
						c1.5,1.6,3.7,2.5,6.7,2.9c0.3,0.9,1.2,1.8,2.8,2.6c1.6,0.8,2.5,1.6,2.8,2.5c-0.4,0.9-1.1,1.7-2.1,2.5l-2.6,2
						c-0.4-1.5-1.3-2.7-2.7-3.6c-1.1-0.7-2.6-1.3-4.5-1.9c0-0.6-0.4-1.2-1.2-1.9c-0.9-0.7-1.3-1.3-1.4-1.7c-0.2-1-0.1-1.8,0.4-2.4
						l1.8-1.9c0.1-2,0.8-3.2,2.1-3.6l0.9,0l0.8,0l0.9-1.3c0.3-0.5,0.7-0.8,1.2-0.7l-0.2-0.3l-0.1-0.4c-0.4,0-0.7,0.1-1,0.4l-0.8,0.6
						l-0.1,0.1L143.7,74.3 M144.2,89.3c1.9,1.1,2.9,2.4,3.2,4.1c-0.5-0.9-1.8-1.9-4-2.9c-2-1-3.3-2.1-3.7-3.3
						C140.4,87.7,141.9,88.4,144.2,89.3z"/>
				</g>
			</g>
		</g>
		<g transform="matrix( 1, 0, 0, 1, 0,0) ">
			<g>
				<g id="Symbol_261_0_Layer109_0_FILL_1_">
					<path class="st3" d="M88.3,87.2l-4.4-0.5l-2.1-1.6l-1.9-1.4L77,83.3c-1.3-0.7-2.5-1.2-3.3-1.5c-2.3-0.7-4.9-1.1-8-1
						c-3.3,0-6.1,0.5-8.6,1.4c-7.4,2.8-14.3,6-20.8,9.6c-7.7,4.2-14,8.6-18.9,13.2c-1.2,1.1-2.8,2.2-4.8,3.2L8,110.4l0.4-0.1
						c0.1,2.1-0.5,4.3-1.8,6.3c-1.6,2.5-2.5,4.3-2.7,5.4c1.2,0.4,2.1,1.2,2.8,2.3c0.5,0.9,0.9,2.2,1.3,3.9c2.1,0,3.7,1.2,4.5,3.6
						c1.2,0,2.3,0.4,3.1,1.3l1.8,2.5c2.5-1,5-1,7.3,0.1c2.3,1,3.7,2.7,4.2,4.9l2.7,0.1l2.1,1.1c1.1-0.6,2.6-0.9,4.5-0.9
						c1.7,0,3.2,0.3,4.5,0.9v0.3c0.4-0.1,1.1-0.6,2.2-1.6c1.7-1,3.8-1.3,6.2-0.7c3.1,0.8,5.4,1.1,6.8,1c1.1-1.6,2.8-2.9,5.1-4.1
						c2.8-1.2,4.8-2.1,6.1-2.8c0.7-2.8,2.3-5.4,4.8-8c-0.5-1.3-0.5-2.6,0.1-4.1c0.4-1.2,1.2-2.4,2.3-3.6c1.8-1.8,4.3-2.6,7.4-2.4
						l7.9,1.1c0.7-1.4,1.8-2.5,3.6-3.2c1.5-0.6,3.2-0.8,4.8-0.7l0.9,0.6l0.9,0.6l3.4,0.3c1.3,0.1,2.1-0.4,2.4-1.6l1.4-1.4l1.5-1.3
						l4.8-0.8c1.8,0,3.3,0.5,4.3,1.7h0.4c1.3-1.4,3.3-1.4,5.8,0c1-1,2.4-1.4,4.2-1.3l4.5,0.3c0.5-1.6,1.5-2.9,3-4
						c1-0.8,2.5-1.7,4.4-2.5c0.1-1,0.7-2,1.9-2.8c1.5-1,2.3-1.8,2.6-2.3l-0.3,0.1c-0.3-0.4-1.9-1.9-4.9-4.5
						c-2.1-1.9-3.1-3.7-2.9-5.4c-0.4-0.1-0.9-0.5-1.3-1.3c-0.4-0.7-0.7-1.3-0.8-1.8l-2.9-0.7c-1-0.2-1.9-0.2-2.6,0l-0.3,0l-2.7,2.2
						c-1.1,1-2.1,1.6-3,1.9l-4.9-0.2c0.1,0.6-0.1,0.9-0.4,1.1l-0.1,0.1c-1.2,1.7-3.5,2.9-6.8,3.6l-8.3,1c-1.9,0.3-3.2-0.1-3.9-1
						c-0.4-0.5-0.8-1.8-1.4-3.9l-0.1-1.8c-1,0.2-2.5,0.2-4.4,0L88.3,87.2 M95.4,98.6c1.7-0.3,2.8,0.3,3.2,1.7
						c-0.4,1-1.1,1.7-2.3,1.9c-1.1,0.2-2.2,0.1-3.1-0.5l-0.1-0.6C92.9,99.8,93.7,98.9,95.4,98.6 M129.5,99c-0.2,0.6-0.7,1-1.4,1.1
						c-0.7,0.1-1.4,0-1.9-0.4c0.2-0.7,0.4-1.1,0.8-1.1c0.4,0,0.2,0.3-0.5,0.9c0.3,0.3,0.8,0.5,1.4,0.4c0.7,0,1.1-0.3,1.3-0.7
						c-0.8-0.7-1.2-1-1-1.1L129.5,99 M28.1,99.4c-1.7,0-2.9,0.2-3.6,0.6c0.6-0.6,3.3-0.8,8-0.6c3.9,0.1,5.8-1,5.8-3.3
						c0-0.5-0.2-1-0.6-1.4l-1.1-1.2c0.4-0.9,0.7-1.4,1-1.5c0.3-0.1,0,0.3-0.8,1.3l1,1.3c0.4,0.4,0.6,0.9,0.6,1.3
						c0.2,2.5-1.7,3.7-5.5,3.7L28.1,99.4 M57.4,87.3c0.2-2.4,1.4-4.2,3.4-5.3c-1.6,1-2.6,2.6-3.1,4.9c-0.5,2.6,0.6,4.2,3.3,4.6
						l1.4,1.9c0.5,0.7,1.2,1.3,2,1.7l0.3,0.2c-2.2-0.7-3.4-1.9-3.7-3.5C58.4,91.4,57.1,89.9,57.4,87.3 M49.4,86l-0.4,1.5
						c-0.4,0.8-0.6,1.5-0.5,2.1c-0.8,0.4-2.1,0.7-4.1,0.9c-2.1,0.2-3.6,0.5-4.3,0.8c0.7-0.5,1.9-0.8,3.8-0.9
						c2.1-0.2,3.5-0.4,4.1-0.7C48.4,88.1,48.9,86.9,49.4,86 M43.8,98.2c0.9-2,1.6-3.5,2.2-4.5c1-1.8,2.3-2.7,3.9-2.8
						c1.1,0,2.1,0.3,3,1.1c1,0.9,1.4,2,1.4,3.4l0.2,0.2c-0.1,1.9,0.7,3.9,2.5,5.9c2,2.4,3.1,4.1,3.3,5.2c1.1,5.1,0.1,9.8-3.1,14.2
						c-2.9,3.8-6.9,6.5-11.9,8.1c-2.4,0.8-7,0.3-13.7-1.4v0.3c-0.2,0-0.5,0-0.6-0.2l-0.6-0.3l-0.9-2.9c-0.4-1.1-0.2-2,0.4-2.8v0.3
						l0.7-2.1c-0.5-2.5-0.6-4.5-0.5-6c0.2-2.4,1-4.3,2.5-5.6c-0.6-1.7-0.3-3.2,1-4.5c1.2-1.4,2.7-2,4.4-1.9c0.3-1.2,1.2-2.1,2.5-2.7
						C41.2,98.5,42.4,98.3,43.8,98.2 M23.3,111.6c-0.2-0.5,0-1,0.6-1.4c0.6-0.4,1.1-0.5,1.7-0.3l0.7,0.4c0,0.7-0.3,1.1-1,1.3
						L23.3,111.6 M71.9,97.4c-0.6-0.5-1.7-0.9-3.3-1.3l2.9,0.6c1,0.4,1.6,1.2,1.8,2.2c0.3,1.5-0.1,2.9-1.3,4.2l-3.3,3.1
						c0.2-0.5,1-1.3,2.3-2.5c1.2-1,1.9-2,2-3C73.3,99.3,72.9,98.2,71.9,97.4z"/>
				</g>
			</g>
		</g>
		<g transform="matrix( 1, 0, 0, 1, 0,0) ">
			<g>
				<g id="Symbol_261_0_Layer108_0_FILL_1_">
					<path class="st1" d="M138.4,88.7c0.1,2.1,1.1,3.9,3.1,5.4c2.5,1.9,3.9,3.3,4.4,4.2c-0.1-0.6,0-1.2,0.1-1.8l0.3-1.6
						c-0.6-0.9-1.6-1.7-3.1-2.6c0.7,0,1.4,0.3,1.9,0.9c0.7,0.7,1.3,1.1,1.7,1.3c0-1.4-1.2-2.6-3.4-3.7c-2.5-1.2-3.9-2.4-4.3-3.6
						c-0.3,1.2,0.1,2.2,1,3.2l2.8,2c-0.9-0.2-1.8-0.7-2.6-1.5L138.4,88.7z"/>
				</g>
			</g>
		</g>
		<g transform="matrix( 1, 0, 0, 1, 0,0) ">
			<g>
				<g id="Symbol_261_0_Layer107_0_FILL_1_">
					<path class="st4" d="M100.6,50.8c-1.1-1.7-3.2-2.5-6.4-2.3l-7.8,0.7l-0.3,0.2l0.4,0.1l2.4,2.4c0.1,0.8,0.5,1.7,1.3,2.6
						c0.8,1,1.3,1.8,1.4,2.5l-0.1,0.3c1,1.5,1.5,3.3,1.6,5.5c0,2.2-0.5,4.1-1.4,5.8l0.3,0.5c0.4,0.4,0.9,0.6,1.3,0.7l0.5,0.6
						L93.7,73l-6,5.9c-2.7,2.7-5.2,4.3-7.3,4.7l1.5,1.5c1.7,0.8,3.9,1.5,6.5,2.1l10.2,0.8c0.1-1.7,0.4-3.3,1-4.8
						c0.2-0.8,0.7-1.8,1.5-2.9l1.9-2.8h-0.3c0.7-0.9,1.4-2.5,2.2-4.9c0.9-1.9,2.4-2.8,4.5-2.5v0.3l0.3-0.5l3.8,0.1
						c0.9-3.7,2.7-5,5.6-4c1.1,0.4,2,1.2,2.8,2.3c0.7,1.2,1,2.5,0.8,3.8v0.9l0.4,1.3c0.3,1,0.2,2.7-0.4,5c-0.5,2.1-1.1,3.8-1.8,5.1
						l-0.3,2.5c-0.1,1-0.5,1.7-1,2.3l1.8,0.3l2.3,0.2l0.8-0.2c0.7-0.3,1.7-1.1,2.9-2.2c1.2-1,2.1-1.7,2.8-1.9c1.6-1,3.5-0.8,5.8,0.4
						l0.9,1.6c0.4,0.7,0.8,1.2,1.2,1.4c0.1-0.6,0.4-1.3,0.8-2.1l-1.3-2.1c-0.3-0.7-0.4-1.6-0.4-2.7l0.9-1c0.3-0.4,0.7-0.6,1.1-0.7
						c-0.4-1.4,0-2.6,1.2-3.6c0.7-0.6,1.9-1.2,3.6-1.8v-0.4l0.1,0.1c-0.1-1.4-0.9-2.6-2.4-3.8l0.3-1.8c0.2-0.7,0.2-1.3-0.1-1.8
						c-2.2-1.5-6-2.2-11.4-2c-5.4,0.2-9.3-0.5-11.5-2.1l0.2-0.7c1-0.5,1.8-1.3,2.3-2.4c0.4-1,0.5-1.8,0.2-2.5
						c-1.4-2.9-4.5-4.5-9.4-5L100.2,52C100,51.6,100.1,51.2,100.6,50.8z"/>
				</g>
			</g>
		</g>
		<g transform="matrix( 1, 0, 0, 1, 0,0) ">
			<g>
				<g id="Symbol_261_0_Layer106_0_FILL_1_">
					<path class="st1" d="M139,36.3c-0.7-1-3.3-3.9-7.7-8.6l-7.9-8.4l-6.9-1.8c-2.7-0.6-5.1-0.8-7.1-0.6l-0.9,0.7
						c-0.4,0.3-0.6,0.6-0.6,0.9c1.6,0.8,4,1.6,7.2,2.2l7.6,1.7c0.9,1.2,3,3.3,6.3,6.5c3.8,3.5,6.6,5.8,8.5,6.8l0.6,0.1h0.2L139,36.3
						z"/>
				</g>
			</g>
		</g>
		<g transform="matrix( 1, 0, 0, 1, 0,0) ">
			<g>
				<g id="Symbol_261_0_Layer105_0_FILL_1_">
					<path class="st5" d="M138.3,6.9c-0.5-0.9-1.4-1.8-2.6-2.7l-3-2.2c-3.4,1.1-5.8,2.1-7.2,3c-2.4,1.5-3.9,3.5-4.4,5.9
						c0.8,1.8,1.2,3.2,1.2,4.1c2.7,1.3,5.4,1.9,8,1.7c2.9-0.1,5.4-1.1,7.6-2.9C138.2,12.8,138.3,10.5,138.3,6.9z"/>
				</g>
			</g>
		</g>
		<g transform="matrix( 1, 0, 0, 1, 0,0) ">
			<g>
				<g id="Symbol_261_0_Layer104_0_FILL_1_">
					<path class="st1" d="M138.1,36l-0.7-0.3l-2.3,0.1l-2.3,0.2l-1.2,2l2.9,1.2l3,0.1l0.5-1.6C138.3,37.1,138.3,36.5,138.1,36z"/>
				</g>
			</g>
		</g>
		<g transform="matrix( 1, 0, 0, 1, 0,0) ">
			<g>
				<g id="Symbol_261_0_Layer103_0_FILL_1_">
					<path class="st2" d="M138.4,88.7l-0.5-0.2l-0.1,0.3L138.4,88.7z"/>
				</g>
			</g>
		</g>
		<g transform="matrix( 1, 0, 0, 1, 0,0) ">
			<g>
				<g id="Symbol_261_0_Layer102_0_FILL_1_">
					<path class="st2" d="M136.7,87.1l-0.9-1.6c-2.2-1.2-4.2-1.4-5.8-0.4l0.3,0c0.7-0.2,1.5-0.2,2.6,0l2.9,0.7
						c0.1,0.5,0.3,1.1,0.8,1.8c0.4,0.7,0.9,1.2,1.3,1.3l0.1-0.3C137.5,88.3,137.1,87.9,136.7,87.1z"/>
				</g>
			</g>
		</g>
		<g transform="matrix( 1, 0, 0, 1, 0,0) ">
			<g>
				<g id="Symbol_261_0_Layer101_0_FILL_1_">
					<path class="st1" d="M137.5,35.7c-1.9-1.1-4.7-3.4-8.5-6.8c-3.4-3.2-5.5-5.3-6.3-6.5l-7.6-1.7c-3.2-0.6-5.6-1.4-7.2-2.2
						c0.1-0.3,0.3-0.6,0.6-0.9l0.9-0.7l-7.6-0.8h-7.7c-1,0.9-2.5,1.4-4.3,1.7l-4.8,0.5c-1.9,0.4-4,1.7-6.1,3.9
						c-2.4,2.5-4.2,4-5.4,4.5l-5.5,2.1l-5.9,1.5c-0.3,2.3-0.4,4.4-0.1,6.3c2.2-0.9,7-3.7,14.4-8.3c5.9-3.6,10.9-5.9,15.2-6.7
						l0.3-0.5l0.3-1.6l0.5-0.4l1.3-0.3l1.3,0.1l0.2,0.3l0.5,1l0.2,1.1l0.2,0.6l0.3,0.5l11.2,0.9c4.9,0.2,8.5,0.8,11,1.8
						c1.5,0.6,2.9,1.7,4,3.4l3.8,6.2c1.8,2.6,3.5,3.8,5.1,3.5l1.2-2l2.3-0.2L137.5,35.7z"/>
				</g>
			</g>
		</g>
		<g transform="matrix( 1, 0, 0, 1, 0,0) ">
			<g>
				<g id="Symbol_261_0_Layer100_0_FILL_1_">
					<path class="st2" d="M129.1,99.2c-0.2,0.4-0.6,0.6-1.3,0.7c-0.6,0.1-1.1-0.1-1.4-0.4c0.8-0.6,0.9-0.9,0.5-0.9
						c-0.4,0-0.6,0.4-0.8,1.1c0.6,0.4,1.2,0.5,1.9,0.4c0.7-0.1,1.2-0.5,1.4-1.1l-1.4-0.8C127.9,98.2,128.2,98.6,129.1,99.2z"/>
				</g>
			</g>
		</g>
		<g transform="matrix( 1, 0, 0, 1, 0,0) ">
			<g>
				<g id="Symbol_261_0_Layer99_0_FILL_1_">
					<path class="st2" d="M130,85.1c-0.6,0.2-1.6,0.9-2.8,1.9c-1.3,1.1-2.3,1.9-2.9,2.2c0.9-0.3,1.9-0.9,3-1.9L130,85.1z"/>
				</g>
			</g>
		</g>
		<g transform="matrix( 1, 0, 0, 1, 0,0) ">
			<g>
				<g id="Symbol_261_0_Layer98_0_FILL_1_">
					<path class="st2" d="M121.2,89.2l-1.8-0.3V89l4.9,0.2l-0.8,0.2L121.2,89.2z"/>
				</g>
			</g>
		</g>
		<g transform="matrix( 1, 0, 0, 1, 0,0) ">
			<g>
				<g id="Symbol_261_0_Layer97_0_FILL_1_">
					<path class="st5" d="M106.1,71.8c-1,0.9-1.3,2.3-1,4.1c-0.9,0.8-1.5,1.5-1.7,2.2v-0.2c-0.2,0.3-0.2,0.7,0.1,1.3l0.3,1.2
						c-2.7,1.5-3.2,3.2-1.3,5.2c1.8,2,3.8,2.2,5.9,0.7c2.2,1.6,4.5,2,6.9,1.2c1.4-0.5,3.2-1.5,5.6-3.1c0.7-1.3,1.3-3,1.8-5.1
						c0.6-2.4,0.7-4,0.4-5l-0.4-1.3v-0.9c0.2-1.3,0-2.6-0.8-3.8c-0.7-1.1-1.6-1.8-2.8-2.3c-2.9-1.1-4.7,0.3-5.6,4l-3.8-0.1l-0.3,0.5
						h0.3C107.8,70.8,106.6,71.3,106.1,71.8z"/>
				</g>
			</g>
		</g>
		<g transform="matrix( 1, 0, 0, 1, 0,0) ">
			<g>
				<g id="Symbol_261_0_Layer96_0_FILL_1_">
					<path class="st1" d="M100.1,86.3c-0.2,1.7-0.3,2.8-0.1,3.3c2.2,2.3,5.4,3,9.4,2l5.1-1.6l4.9-1V89c0.5-0.5,0.9-1.3,1-2.3
						l0.3-2.5c-2.4,1.6-4.2,2.6-5.6,3.1c-2.4,0.8-4.7,0.4-6.9-1.2c-2.2,1.5-4.2,1.3-5.9-0.7c-1.8-2-1.3-3.7,1.3-5.2l-0.3-1.2
						c-0.2-0.5-0.3-0.9-0.1-1.3h-0.3l-0.2-0.3v-0.3l-1.9,2.8c-0.8,1.1-1.3,2.1-1.5,2.9C100.1,83.8,100.3,84.9,100.1,86.3z"/>
				</g>
			</g>
		</g>
		<g transform="matrix( 1, 0, 0, 1, 0,0) ">
			<g>
				<g id="Symbol_261_0_Layer95_0_FILL_1_">
					<path class="st1" d="M119.5,89l-4.9,1l-5.1,1.6c-4.1,1-7.2,0.3-9.4-2c1.1,3.5,3.9,4.7,8.4,3.7c2.5-0.5,6-1.6,10.6-3.2
						C119.4,90,119.5,89.6,119.5,89z"/>
				</g>
			</g>
		</g>
		<g transform="matrix( 1, 0, 0, 1, 0,0) ">
			<g>
				<g id="Symbol_261_0_Layer94_0_FILL_1_">
					<path class="st1" d="M115.2,26.4l-2.8-0.4l-13-0.6l-4.8,0.1c-1.8,0.1-3.4,0.5-4.6,1.1l-3,1.9c-1.3,0.9-2.4,1.6-3.2,2l-7.3,4.1
						c-2.9,1.7-5.6,2.8-8,3.5l-2.8,1c-0.9,0.4-1.7,1-2.3,1.8l0.3,0.9l2.2,0c0.8,0.1,1.4,0.4,1.9,0.9l0.6-0.3l12.4-7.8
						c4.9-3.1,9.1-5.2,12.7-6.4c2.3-0.8,6.2-1.1,11.6-1c4.7,0.1,8.7,0.5,12,1C116.9,27.4,116.2,26.7,115.2,26.4z"/>
				</g>
			</g>
		</g>
		<g transform="matrix( 1, 0, 0, 1, 0,0) ">
			<g>
				<g id="Symbol_261_0_Layer93_0_FILL_1_">
					<path class="st2" d="M107.9,44.6l1.1-0.3c-0.6,0-1.3,0.1-1.8,0.4l-1.6,0.8l0.3,2.1c0.1,0.8,0.4,1.3,0.8,1.7
						c2,0.9,3.9,0.4,5.5-1.7c0.7-0.8,0.9-1.5,0.7-2.1c-0.2-0.7-0.9-1.1-2.1-1.2c1.6,0.4,2.3,1.1,2,2.1c-0.2,0.8-1,1.6-2.3,2.2
						c-1.3,0.6-2.4,0.8-3.3,0.4c-1.1-0.4-1.5-1.5-1.3-3.3C106,45.4,106.7,45.1,107.9,44.6z"/>
				</g>
			</g>
		</g>
		<g transform="matrix( 1, 0, 0, 1, 0,0) ">
			<g>
				<g id="Symbol_261_0_Layer92_0_FILL_1_">
					<path class="st2" d="M109.4,70.2v-0.3c-2.1-0.2-3.6,0.6-4.5,2.5c-0.7,2.4-1.5,4-2.2,4.9h0.3v0.3l0.2,0.3h0.3v0.2
						c0.2-0.7,0.8-1.4,1.7-2.2c-0.3-1.8,0-3.2,1-4.1c0.6-0.5,1.7-1.1,3.5-1.7H109.4z"/>
				</g>
			</g>
		</g>
		<g transform="matrix( 1, 0, 0, 1, 0,0) ">
			<g>
				<g id="Symbol_261_0_Layer91_0_FILL_1_">
					<path class="st2" d="M99.5,87.8l-1,0.2l-0.1,0.2L99.5,87.8z"/>
				</g>
			</g>
		</g>
		<g transform="matrix( 1, 0, 0, 1, 0,0) ">
			<g>
				<g id="Symbol_261_0_Layer90_0_FILL_1_">
					<path class="st2" d="M98.5,87.9l-10.2-0.8l5.8,0.9c1.9,0.2,3.4,0.2,4.4,0L98.5,87.9z"/>
				</g>
			</g>
		</g>
		<g transform="matrix( 1, 0, 0, 1, 0,0) ">
			<g>
				<g id="Symbol_261_0_Layer89_0_FILL_1_">
					<path class="st3" d="M98.6,100.3c-0.4-1.4-1.5-1.9-3.2-1.7c-1.7,0.3-2.4,1.1-2.3,2.5l0.1,0.6c0.9,0.6,1.9,0.7,3.1,0.5
						C97.4,102,98.2,101.3,98.6,100.3z"/>
				</g>
			</g>
		</g>
		<g transform="matrix( 1, 0, 0, 1, 0,0) ">
			<g>
				<g id="Symbol_261_0_Layer88_0_FILL_1_">
					<path class="st1" d="M87.7,78.9l6-5.9l0.1-2.7l-0.5-0.6c-0.4-0.1-0.9-0.3-1.3-0.7l-4.8,4.2c-2.2,1.6-4.1,2.6-5.8,2.9
						c-0.9,0.2-2.3,0.2-4.3,0l-5.4-0.6l-7-0.6c-2.2-0.1-4.4,0.3-6.5,1.1c-5.7,2-12.8,5-21.3,9.1l-5.6,2.3c-1.9,0.9-3.3,1.9-4.1,3.1
						c-1.1,1.6-3.9,4.1-8.3,7.5c-4,3.1-7.4,5.4-10.2,7l-0.4,4.8v0.3L8,110.4l4.7-2.3c2-1,3.6-2,4.8-3.2c4.9-4.6,11.1-9,18.9-13.2
						c6.5-3.6,13.4-6.8,20.8-9.6c2.5-0.9,5.3-1.4,8.6-1.4c3,0,5.7,0.3,8,1c0.9,0.3,2,0.8,3.3,1.5l2.9,0.3l-0.3-0.6l0.8,0.5
						C82.5,83.2,85,81.7,87.7,78.9 M85.7,77c2.7-1.7,5.1-4,7.1-6.8c-0.3,1-1.1,2.1-2.4,3.3l-3.6,3c-1.3,1.1-3,2.1-5,2.8
						c-2.1,0.8-4.2,1.1-6.1,1.1l-5.7-1.7c-2.4-0.6-4.4-0.8-6.1-0.5c-0.6,0.1-1.6,0.4-3,1l-3.5,1.4l-5,1.6l-4.6,1.3
						c1-0.5,2.3-1,3.9-1.4l4.3-1.2l4.1-1.6c1.6-0.7,2.9-1.1,3.8-1.3l5.9,0.5c2.1,0.5,4,1.2,5.8,1.9C79.3,80,82.6,78.9,85.7,77
						 M16.3,99.9c0-0.1,0.2-0.2,0.4-0.2l0.6,0v0.3h0.3c0,0.2-0.2,0.3-0.6,0.3L16.3,99.9z"/>
				</g>
			</g>
		</g>
		<g transform="matrix( 1, 0, 0, 1, 0,0) ">
			<g>
				<g id="Symbol_261_0_Layer87_0_FILL_1_">
					<path class="st1" d="M85.1,18.3l4.8-0.5c1.8-0.3,3.2-0.8,4.3-1.7l-0.6-0.3l-0.7-0.1c-3.1-1.1-7.2-0.4-12.3,1.9
						c-5.8,3.2-10.2,5.4-13.1,6.6c-1.8,0.7-3.1,1.4-3.8,2c-1.1,0.9-1.4,2.1-1.1,3.4l-0.2,0.6l5.9-1.5l5.5-2.1c1.2-0.5,3-2,5.4-4.5
						C81.1,20,83.1,18.7,85.1,18.3z"/>
				</g>
			</g>
		</g>
		<g transform="matrix( 1, 0, 0, 1, 0,0) ">
			<g>
				<g id="Symbol_261_0_Layer86_0_FILL_1_">
					<path class="st1" d="M91.5,57.3l-0.2,0.4c0,0.4,0,0.7,0.1,0.8c0.1,0.2,0.3,0.3,0.7,0.2l-1.7,1.3c-1,0.7-1.6,1.2-1.6,1.5
						C86,65,81.6,67,75.6,67.3l-15.1,0.5c-0.8-0.2-1.8-0.2-2.8,0c-0.5,0.1-1.4,0.4-2.7,0.8c-11.5,7.2-22.7,12.9-33.6,17
						c-2.2,0.6-3.7,1.2-4.6,1.7c-1.3,0.8-2.6,2.2-4,4.2l-3.4,4.7l-0.7,6.9c1.8-0.9,4.4-3.2,7.9-6.8c3.4-3.5,6.2-5.8,8.3-6.8l15.4-7
						l8.4-4.3c3.4-1.8,6.1-3,8.3-3.8c2.8-0.9,6-1.2,9.6-0.8l8.8,1.1c3.3,0.3,6.3-0.4,9-1.9l7.3-4.4c0.9-1.6,1.4-3.6,1.4-5.8
						C93,60.7,92.5,58.8,91.5,57.3z"/>
				</g>
			</g>
		</g>
		<g transform="matrix( 1, 0, 0, 1, 0,0) ">
			<g>
				<g id="Symbol_261_0_Layer85_0_FILL_1_">
					<path class="st2" d="M86.6,49.5l-0.4-0.1l0.1-0.4l-1.4-0.5l-1.7-0.2c-0.8-1.4-1.6-2.3-2.4-2.6c-1.3-0.5-2.7-0.4-4.4,0.3
						c-1.8,0.8-2.9,1.2-3.3,1.1c-0.6-0.1-1.3-0.6-2-1.5c-0.6-0.8-1.4-1.1-2.3-0.9l-0.1,0.1l-0.1-0.1l-0.2,0.3l-0.1,0.4
						c1.1-0.2,2,0.1,2.8,0.9c0.9,0.9,1.6,1.4,2.2,1.5c-0.2,0.1-0.4,0.4-0.8,0.9c1.4-1.6,3.2-2.5,5.5-2.7c2.5-0.2,4.1,0.7,4.9,2.7
						c1.2,0,2.2,0.3,3.1,0.9l1.9,2c0.1,0.9,0.6,1.9,1.5,3c0.9,1.2,1.5,2.3,1.6,3.3c0.1,0.3-0.3,0.9-1.3,1.8c-0.9,0.9-1.2,1.4-1,1.7
						c0-0.3,0.5-0.8,1.6-1.5l1.7-1.3c-0.4,0.1-0.6,0-0.7-0.2c-0.1-0.1-0.1-0.4-0.1-0.8l0.2-0.4l0.1-0.3c-0.1-0.6-0.6-1.5-1.4-2.5
						c-0.7-0.9-1.2-1.8-1.3-2.6L86.6,49.5z"/>
				</g>
			</g>
		</g>
		<g transform="matrix( 1, 0, 0, 1, 0,0) ">
			<g>
				<g id="Symbol_261_0_Layer84_0_FILL_1_">
					<path class="st2" d="M91.6,41.6c-0.6-0.3-1.1-0.2-1.7,0.3l0.9,0c0.4,0,0.5,0.1,0.5,0.3c0.1,0.5-0.1,0.7-0.7,0.7l-1,0
						c0.3,0.4,0.7,0.5,1.3,0.3C91.5,42.8,91.7,42.3,91.6,41.6z"/>
				</g>
			</g>
		</g>
		<g transform="matrix( 1, 0, 0, 1, 0,0) ">
			<g>
				<g id="Symbol_261_0_Layer83_0_FILL_1_">
					<path class="st2" d="M92.8,70.2c-2,2.8-4.4,5.1-7.1,6.8c-3.1,1.9-6.4,3-9.9,3.3c1.9,0.1,3.9-0.3,6.1-1.1c2-0.7,3.7-1.7,5-2.8
						l3.6-3C91.7,72.3,92.5,71.2,92.8,70.2z"/>
				</g>
			</g>
		</g>
		<g transform="matrix( 1, 0, 0, 1, 0,0) ">
			<g>
				<g id="Symbol_261_0_Layer82_0_FILL_1_">
					<path class="st2" d="M83.9,86.7l4.4,0.5c-2.6-0.6-4.8-1.3-6.5-2.1L83.9,86.7z"/>
				</g>
			</g>
		</g>
		<g transform="matrix( 1, 0, 0, 1, 0,0) ">
			<g>
				<g id="Symbol_261_0_Layer81_0_FILL_1_">
					<path class="st2" d="M80.4,83.6l-0.4,0.1l1.9,1.4L80.4,83.6z"/>
				</g>
			</g>
		</g>
		<g transform="matrix( 1, 0, 0, 1, 0,0) ">
			<g>
				<g id="Symbol_261_0_Layer80_0_FILL_1_">
					<path class="st2" d="M80.4,83.6l-0.8-0.5l0.3,0.6L80.4,83.6z"/>
				</g>
			</g>
		</g>
		<g transform="matrix( 1, 0, 0, 1, 0,0) ">
			<g>
				<g id="Symbol_261_0_Layer79_0_FILL_1_">
					<path class="st2" d="M68.7,96.2c1.5,0.3,2.6,0.8,3.3,1.3c1,0.7,1.4,1.8,1.2,3.3c-0.1,1-0.8,2-2,3c-1.3,1.1-2.1,2-2.3,2.5
						l3.3-3.1c1.2-1.3,1.6-2.7,1.3-4.2c-0.2-1-0.8-1.8-1.8-2.2L68.7,96.2z"/>
				</g>
			</g>
		</g>
		<g transform="matrix( 1, 0, 0, 1, 0,0) ">
			<g>
				<g id="Symbol_261_0_Layer78_0_FILL_1_">
					<path class="st2" d="M72.2,49.3c-0.9-0.4-1.8-0.5-2.8-0.5c-1.1,0.1-1.9,0.5-2.3,1.2c0.7-0.5,1.5-0.8,2.3-0.8
						c0.9-0.1,1.8,0.1,2.5,0.6L72.2,49.3L72.2,49.3z"/>
				</g>
			</g>
		</g>
		<g transform="matrix( 1, 0, 0, 1, 0,0) ">
			<g>
				<g id="Symbol_261_0_Layer77_0_FILL_1_">
					<path class="st2" d="M57.5,80.5l3.5-1.4c1.4-0.6,2.4-0.9,3-1c1.6-0.2,3.7,0,6.1,0.5l5.7,1.7C74,79.5,72,78.8,70,78.3L64,77.9
						c-0.9,0.2-2.2,0.6-3.8,1.3l-4.1,1.6l-4.3,1.2c-1.6,0.4-2.9,0.9-3.9,1.4l4.6-1.3L57.5,80.5z"/>
				</g>
			</g>
		</g>
		<g transform="matrix( 1, 0, 0, 1, 0,0) ">
			<g>
				<g id="Symbol_261_0_Layer76_0_FILL_1_">
					<path class="st2" d="M64.5,95.1c-0.8-0.4-1.5-0.9-2-1.7l-1.4-1.9c-2.8-0.4-3.9-1.9-3.3-4.6c0.5-2.3,1.5-3.9,3.1-4.9
						c-2.1,1.1-3.2,2.8-3.4,5.3c-0.3,2.5,1,4,3.7,4.4c0.2,1.6,1.5,2.8,3.7,3.5L64.5,95.1z"/>
				</g>
			</g>
		</g>
		<g transform="matrix( 1, 0, 0, 1, 0,0) ">
			<g>
				<g id="Symbol_261_0_Layer75_0_FILL_1_">
					<path class="st1" d="M64.2,54.6l-0.6-0.3c-1.1,2.2-3,3.9-5.5,5.1c-2.6,1.2-5,1.5-7.3,0.8l0-0.1c-0.5,0-1-0.2-1.7-0.6l-1.6-0.8
						c-0.4,0.2-0.7,0.6-0.7,1.2l0.2,1.5l0.7,0.5c2.9,1.6,6.9,1.6,12.1,0.1C65,60.3,66.5,57.9,64.2,54.6z"/>
				</g>
			</g>
		</g>
		<g transform="matrix( 1, 0, 0, 1, 0,0) ">
			<g>
				<g id="Symbol_261_0_Layer74_0_FILL_1_">
					<path class="st1" d="M54.4,95.6l-0.2-0.2L54,95.5c-0.5,0.6-0.6,1.5-0.5,2.7c0.2,1.3,0.1,2.3-0.1,2.8c1.5,0.7,2.1,2,2,3.9
						c-0.1,2.5,0,4.1,0.2,4.6c0.4,1.2,0.1,2.8-1,4.8c-1.1,2-1.4,3.5-0.9,4.7c-0.6,0.9-1.8,1.7-3.5,2.4c-1.9,0.8-3.2,1.5-3.8,2.3
						c-1.1,1.1-2.9,1.7-5.4,1.6l-6.2-0.3c-0.3-0.6-1.1-1.1-2.5-1.6c-1.4-0.5-2.2-1-2.5-1.6v1.4c0,0.6,0.1,1,0.3,1.2l-0.4,0.1
						l0.4,0.2l0.1,0.4c0.2,0.6,0.6,1.4,1.3,2.4h-0.3c6.7,1.7,11.3,2.2,13.7,1.4c5-1.6,9-4.3,11.9-8.1c3.2-4.3,4.3-9,3.1-14.2
						c-0.2-1.1-1.3-2.8-3.3-5.2C55.1,99.5,54.3,97.5,54.4,95.6z"/>
				</g>
			</g>
		</g>
		<g transform="matrix( 1, 0, 0, 1, 0,0) ">
			<g>
				<g id="Symbol_261_0_Layer73_0_FILL_1_">
					<path class="st5" d="M49.6,55.5l0.6,2.3l0.5,2.3l0,0.1c2.2,0.7,4.6,0.5,7.3-0.8c2.6-1.2,4.4-2.9,5.5-5.1
						c-2-1.1-4.3-1.5-7.1-1.2C53.8,53.4,51.5,54.2,49.6,55.5z"/>
				</g>
			</g>
		</g>
		<g transform="matrix( 1, 0, 0, 1, 0,0) ">
			<g>
				<g id="Symbol_261_0_Layer72_0_FILL_1_">
					<path class="st5" d="M53.6,98.1c-0.2-1.2,0-2.1,0.5-2.7l0.2-0.1c0.1-1.4-0.4-2.5-1.4-3.4c-0.8-0.8-1.8-1.1-3-1.1
						c-1.6,0.1-2.9,1-3.9,2.8c-0.6,1-1.3,2.5-2.2,4.5c-1.4,0-2.6,0.3-3.6,0.8c-1.3,0.6-2.2,1.5-2.5,2.7c-1.7-0.1-3.2,0.5-4.4,1.9
						c-1.2,1.4-1.5,2.9-1,4.5c-1.4,1.3-2.3,3.2-2.5,5.6c-0.1,1.6,0.1,3.6,0.5,6l-0.7,2.1h0.2c0.3,0.6,1.1,1.1,2.5,1.6
						c1.4,0.5,2.2,1,2.5,1.6l6.2,0.3c2.5,0.1,4.3-0.5,5.4-1.6c0.6-0.7,1.9-1.5,3.8-2.3c1.8-0.8,2.9-1.6,3.5-2.4
						c-0.5-1.1-0.2-2.7,0.9-4.7c1.1-2,1.4-3.6,1-4.8c-0.2-0.5-0.3-2.1-0.2-4.6c0.1-1.9-0.6-3.3-2-3.9
						C53.7,100.4,53.7,99.5,53.6,98.1z"/>
				</g>
			</g>
		</g>
		<g transform="matrix( 1, 0, 0, 1, 0,0) ">
			<g>
				<g id="Symbol_261_0_Layer71_0_FILL_1_">
					<path class="st2" d="M49.4,86c-0.5,0.9-1,2.1-1.4,3.6c-0.6,0.3-2,0.5-4.1,0.7c-1.9,0.1-3.1,0.4-3.8,0.9
						c0.7-0.3,2.2-0.5,4.3-0.8c2-0.2,3.3-0.5,4.1-0.9c-0.1-0.6,0.1-1.3,0.5-2.1L49.4,86z"/>
				</g>
			</g>
		</g>
		<g transform="matrix( 1, 0, 0, 1, 0,0) ">
			<g>
				<g id="Symbol_261_0_Layer70_0_FILL_1_">
					<path class="st2" d="M42.4,142.2v-0.3c-1.3-0.6-2.8-0.9-4.5-0.9c-1.8,0-3.3,0.3-4.5,0.9l-2.1-1.1l-2.7-0.1
						c-0.5-2.3-1.9-3.9-4.2-4.9c-2.4-1.1-4.8-1.1-7.3-0.1l-1.8-2.5c-0.8-0.8-1.8-1.3-3.1-1.3c-0.9-2.4-2.4-3.6-4.5-3.6
						c-0.4-1.7-0.8-3-1.3-3.9c-0.7-1.2-1.6-2-2.8-2.3c0.2-1.1,1.1-2.9,2.7-5.4c1.3-2.1,1.9-4.2,1.8-6.3L8,110.4l0.2-0.3v-0.3
						l-0.3-0.9l-0.3-0.9H7.4c0.4,2.4,0,4.9-1.3,7.7c-1.9,3.9-2.9,6.2-3,6.9L2,122.8c-0.4,0.2-0.5,0.3-0.3,0.4
						c0.2-0.1,0.6-0.3,1.1-0.4l1-0.5l1.8,2.4c0.8,1.2,1.3,2.4,1.3,3.6c1,0.1,1.9,0.7,2.8,1.8l2.4,2.5l3,1.5c1,0.6,1.6,1.4,1.9,2.3
						c2.4-0.9,4.7-0.9,7,0.1c2.3,1,3.7,2.5,4,4.7l3.1,0.4c1.2,0.2,1.7,0.7,1.5,1.5c0.9-0.9,2.5-1.2,5-1.1l5.1,0.1H42.4z"/>
				</g>
			</g>
		</g>
		<g transform="matrix( 1, 0, 0, 1, 0,0) ">
			<g>
				<g id="Symbol_261_0_Layer69_0_FILL_1_">
					<path class="st2" d="M24.4,99.9c0.7-0.4,1.9-0.6,3.6-0.6l4.8,0.2c3.8,0,5.7-1.2,5.5-3.7c0-0.5-0.2-0.9-0.6-1.3l-1-1.3
						c0.8-0.9,1-1.3,0.8-1.3c-0.3,0.1-0.6,0.6-1,1.5l1.1,1.2c0.4,0.4,0.6,0.9,0.6,1.4c0.1,2.3-1.8,3.4-5.8,3.3
						C27.7,99.2,25,99.4,24.4,99.9z"/>
				</g>
			</g>
		</g>
		<g transform="matrix( 1, 0, 0, 1, 0,0) ">
			<g>
				<g id="Symbol_261_0_Layer68_0_FILL_1_">
					<path class="st2" d="M30.3,125.1l-0.5-0.6l0.4-0.1c-0.2-0.2-0.3-0.6-0.3-1.2v-1.4h-0.2v-0.3c-0.6,0.8-0.8,1.7-0.4,2.8l0.9,2.9
						l0.6,0.3c0.2,0.2,0.4,0.2,0.6,0.2v-0.3h0.3C30.9,126.5,30.5,125.7,30.3,125.1z"/>
				</g>
			</g>
		</g>
		<g transform="matrix( 1, 0, 0, 1, 0,0) ">
			<g>
				<g id="Symbol_261_0_Layer67_0_FILL_1_">
					<path class="st2" d="M30.2,124.7l-0.4-0.2l0.5,0.6L30.2,124.7z"/>
				</g>
			</g>
		</g>
		<g transform="matrix( 1, 0, 0, 1, 0,0) ">
			<g>
				<g id="Symbol_261_0_Layer66_0_FILL_1_">
					<path class="st3" d="M26.3,110.3l-0.7-0.4c-0.6-0.2-1.1-0.1-1.7,0.3c-0.6,0.4-0.8,0.9-0.6,1.4l2,0
						C26,111.4,26.3,111,26.3,110.3z"/>
				</g>
			</g>
		</g>
		<g transform="matrix( 1, 0, 0, 1, 0,0) ">
			<g>
				<g id="Symbol_261_0_Layer65_0_FILL_1_">
					<path class="st2" d="M17.2,99.9v-0.3l-0.6,0c-0.2,0-0.3,0.1-0.4,0.2l0.6,0.3c0.3,0.1,0.5,0,0.6-0.3H17.2z"/>
				</g>
			</g>
		</g>
		<g transform="matrix( 1, 0, 0, 1, 0,0) ">
			<g>
				<path id="Symbol_261_0_Layer64_0_1_STROKES_1_" class="st6" d="M23.3,111.6c-0.2-0.5,0-1,0.6-1.4c0.6-0.4,1.1-0.5,1.7-0.3
					l0.7,0.4c0,0.7-0.3,1.1-1,1.3L23.3,111.6z"/>
			</g>
		</g>
		<g transform="matrix( 1, 0, 0, 1, 0,0) ">
			<g>
				<path id="Symbol_261_0_Layer63_0_1_STROKES_1_" class="st6" d="M98.6,100.3c-0.4,1-1.1,1.7-2.3,1.9c-1.1,0.2-2.2,0.1-3.1-0.5
					l-0.1-0.6c-0.1-1.4,0.6-2.2,2.3-2.5C97.1,98.4,98.1,98.9,98.6,100.3z"/>
			</g>
		</g>
		<g transform="matrix( 1, 0, 0, 1, 0,0) ">
			<g>
				<path id="Symbol_261_0_Layer62_0_1_STROKES_1_" class="st7" d="M29.8,124.5l0.5,0.6c0.5,0.4,1.5,0.6,3,0.7
					c1.3,0.1,2.2,0.5,2.5,1.3c0.7-0.2,2.4-0.2,5-0.1l5.9-0.4c1.9-0.5,4-1.6,6.2-3.4c2.3-1.9,3.3-3.4,3.2-4.6l-0.1-2.2
					c0.1-1,0.6-1.8,1.4-2.5"/>
			</g>
		</g>
		<g transform="matrix( 1, 0, 0, 1, 0,0) ">
			<g>
				<path id="Symbol_261_0_Layer61_0_1_STROKES_1_" class="st8" d="M54.2,95.4l0.2,0.2c-0.1,1.9,0.7,3.9,2.5,5.9
					c2,2.4,3.1,4.1,3.3,5.2c1.1,5.1,0.1,9.8-3.1,14.2c-2.9,3.8-6.9,6.5-11.9,8.1c-2.4,0.8-7,0.3-13.7-1.4"/>
			</g>
		</g>
		<g transform="matrix( 1, 0, 0, 1, 0,0) ">
			<g>
				<path id="Symbol_261_0_Layer60_0_1_STROKES_1_" class="st9" d="M54,95.5c-0.5,0.6-0.6,1.5-0.5,2.7c0.2,1.3,0.1,2.3-0.1,2.8
					c1.5,0.7,2.1,2,2,3.9c-0.1,2.5,0,4.1,0.2,4.6c0.4,1.2,0.1,2.8-1,4.8c-1.1,2-1.4,3.5-0.9,4.7c-0.6,0.9-1.8,1.7-3.5,2.4
					c-1.9,0.8-3.2,1.5-3.8,2.3c-1.1,1.1-2.9,1.7-5.4,1.6l-6.2-0.3c-0.3-0.6-1.1-1.1-2.5-1.6c-1.4-0.5-2.2-1-2.5-1.6"/>
			</g>
		</g>
		<g transform="matrix( 1, 0, 0, 1, 0,0) ">
			<g>
				<path id="Symbol_261_0_Layer59_0_1_STROKES_1_" class="st8" d="M30.4,119.7l-0.7,2.1"/>
			</g>
		</g>
		<g transform="matrix( 1, 0, 0, 1, 0,0) ">
			<g>
				<path id="Symbol_261_0_Layer58_0_1_STROKES_1_" class="st9" d="M30.4,119.7l-1.1-0.6c-0.7,0-1.7,0.5-3.1,1.8l-4,3.3
					c-3.6,2.5-6.6,2-8.8-1.5c3-1.7,5.1-3.2,6.4-4.4c2.4-2.3,1.6-3.9-2.6-4.8l-1.8-0.8l-3.3-0.4c-1.4-0.3-2.1-0.9-2-1.8"/>
			</g>
		</g>
		<g transform="matrix( 1, 0, 0, 1, 0,0) ">
			<g>
				<path id="Symbol_261_0_Layer57_0_1_STROKES_1_" class="st10" d="M30.4,119.7c-0.5-2.5-0.6-4.5-0.5-6c0.2-2.4,1-4.3,2.5-5.6
					c-0.6-1.7-0.3-3.2,1-4.5c1.2-1.4,2.7-2,4.4-1.9c0.3-1.2,1.2-2.1,2.5-2.7c1-0.5,2.2-0.7,3.6-0.8c0.9-2,1.6-3.5,2.2-4.5
					c1-1.8,2.3-2.7,3.9-2.8c1.1,0,2.1,0.3,3,1.1c1,0.9,1.4,2,1.4,3.4"/>
			</g>
		</g>
		<g transform="matrix( 1, 0, 0, 1, 0,0) ">
			<g>
				<path id="Symbol_261_0_Layer56_0_1_STROKES_1_" class="st9" d="M8.1,109.7l1.3-13.4l3.4-4.7c1.4-2,2.7-3.4,4-4.2
					c0.9-0.5,2.4-1.1,4.6-1.7c10.9-4.2,22.1-9.8,33.6-17c1.3-0.5,2.2-0.8,2.7-0.8c1-0.2,1.9-0.2,2.8,0l15.1-0.5
					c6-0.4,10.4-2.3,13.3-5.9"/>
			</g>
		</g>
		<g transform="matrix( 1, 0, 0, 1, 0,0) ">
			<g>
				<path id="Symbol_261_0_Layer55_0_1_STROKES_1_" class="st7" d="M131.6,60.2c-0.2-0.3-0.1-0.6,0.3-0.9c0.4-0.3,0.8-0.4,1.1-0.3
					c0.4,0.3,0.5,0.7,0.4,1c-0.2,0.2-0.5,0.4-0.9,0.4L131.6,60.2z"/>
			</g>
		</g>
		<g transform="matrix( 1, 0, 0, 1, 0,0) ">
			<g>
				<path id="Symbol_261_0_Layer54_0_1_STROKES_1_" class="st8" d="M99.5,83.1c0.2-0.8,0.7-1.8,1.5-2.9l1.9-2.8"/>
			</g>
		</g>
		<g transform="matrix( 1, 0, 0, 1, 0,0) ">
			<g>
				<path id="Symbol_261_0_Layer53_0_1_STROKES_1_" class="st9" d="M100,89.6c-0.2-0.5-0.1-1.6,0.1-3.3c0.2-1.4,0-2.5-0.6-3.2"/>
			</g>
		</g>
		<g transform="matrix( 1, 0, 0, 1, 0,0) ">
			<g>
				<path id="Symbol_261_0_Layer52_0_1_STROKES_1_" class="st7" d="M119,90.1c-4.6,1.6-8.1,2.7-10.6,3.2c-4.5,1-7.3-0.2-8.4-3.7"/>
			</g>
		</g>
		<g transform="matrix( 1, 0, 0, 1, 0,0) ">
			<g>
				<path id="Symbol_261_0_Layer51_0_1_STROKES_1_" class="st8" d="M119,90.2c-1.2,1.7-3.5,2.9-6.8,3.6l-8.3,1
					c-1.9,0.3-3.2-0.1-3.9-1c-0.4-0.5-0.8-1.8-1.4-3.9l-0.1-1.8l0.1-0.2c0.1-1.7,0.4-3.3,1-4.8"/>
			</g>
		</g>
		<g transform="matrix( 1, 0, 0, 1, 0,0) ">
			<g>
				<path id="Symbol_261_0_Layer50_0_1_STROKES_1_" class="st9" d="M119.5,89l-4.9,1l-5.1,1.6c-4.1,1-7.2,0.3-9.4-2"/>
			</g>
		</g>
		<g transform="matrix( 1, 0, 0, 1, 0,0) ">
			<g>
				<path id="Symbol_261_0_Layer49_0_1_STROKES_1_" class="st10" d="M119.5,89c0.1,0.6-0.1,0.9-0.4,1.1"/>
			</g>
		</g>
		<g transform="matrix( 1, 0, 0, 1, 0,0) ">
			<g>
				<path id="Symbol_261_0_Layer48_0_1_STROKES_1_" class="st9" d="M120.8,84.2c-2.4,1.6-4.2,2.6-5.6,3.1c-2.4,0.8-4.7,0.4-6.9-1.2
					c-2.2,1.5-4.2,1.3-5.9-0.7c-1.8-2-1.3-3.7,1.3-5.2l-0.3-1.2c-0.2-0.5-0.3-0.9-0.1-1.3"/>
			</g>
		</g>
		<g transform="matrix( 1, 0, 0, 1, 0,0) ">
			<g>
				<path id="Symbol_261_0_Layer47_0_1_STROKES_1_" class="st11" d="M120.8,84.2l-0.3,2.5c-0.1,1-0.5,1.7-1,2.3"/>
			</g>
		</g>
		<g transform="matrix( 1, 0, 0, 1, 0,0) ">
			<g>
				<path id="Symbol_261_0_Layer46_0_1_STROKES_1_" class="st11" d="M109.7,69.7l3.8,0.1c0.9-3.7,2.7-5,5.6-4c1.1,0.4,2,1.2,2.8,2.3
					c0.7,1.2,1,2.5,0.8,3.8v0.9l0.4,1.3c0.3,1,0.2,2.7-0.4,5c-0.5,2.1-1.1,3.8-1.8,5.1"/>
			</g>
		</g>
		<g transform="matrix( 1, 0, 0, 1, 0,0) ">
			<g>
				<path id="Symbol_261_0_Layer45_0_1_STROKES_1_" class="st8" d="M109.7,69.7l-0.3,0.5"/>
			</g>
		</g>
		<g transform="matrix( 1, 0, 0, 1, 0,0) ">
			<g>
				<path id="Symbol_261_0_Layer44_0_1_STROKES_1_" class="st9" d="M92.2,55.9l9.6-0.5c3.8-0.3,6.8,0.3,9,1.8l0.3,0.4v1.1
					c-0.8,1.3-2.4,2.5-4.8,3.6c-2.6,1.2-4.2,2.2-4.9,3.2c0.3,1.7,1.4,2.8,3.4,3.3l4.9,0.9"/>
			</g>
		</g>
		<g transform="matrix( 1, 0, 0, 1, 0,0) ">
			<g>
				<path id="Symbol_261_0_Layer43_0_1_STROKES_1_" class="st9" d="M50.8,60.1c2.2,0.7,4.6,0.5,7.3-0.8c2.6-1.2,4.4-2.9,5.5-5.1"/>
			</g>
		</g>
		<g transform="matrix( 1, 0, 0, 1, 0,0) ">
			<g>
				<path id="Symbol_261_0_Layer42_0_1_STROKES_1_" class="st10" d="M49.6,55.5c1.9-1.3,4.2-2.1,6.9-2.4c2.8-0.3,5.1,0.1,7.1,1.2"/>
			</g>
		</g>
		<g transform="matrix( 1, 0, 0, 1, 0,0) ">
			<g>
				<path id="Symbol_261_0_Layer41_0_1_STROKES_1_" class="st9" d="M49.6,55.5l0.6,2.3l0.5,2.3"/>
			</g>
		</g>
		<g transform="matrix( 1, 0, 0, 1, 0,0) ">
			<g>
				<path id="Symbol_261_0_Layer40_0_1_STROKES_1_" class="st7" d="M47.4,58.6c-0.4,0.2-0.7,0.6-0.7,1.2l0.2,1.5l0.7,0.5
					c2.9,1.6,6.9,1.6,12.1,0.1c5.3-1.6,6.8-4.1,4.5-7.4l-0.6-0.3"/>
			</g>
		</g>
		<g transform="matrix( 1, 0, 0, 1, 0,0) ">
			<g>
				<path id="Symbol_261_0_Layer39_0_1_STROKES_1_" class="st9" d="M47.4,58.6l1.6,0.8c0.6,0.4,1.2,0.6,1.7,0.6"/>
			</g>
		</g>
		<g transform="matrix( 1, 0, 0, 1, 0,0) ">
			<g>
				<path id="Symbol_261_0_Layer38_0_1_STROKES_1_" class="st12" d="M47.4,58.6c0.5-0.2,0.9-0.7,1.1-1.5c0.3-0.8,0.6-1.4,1-1.6"/>
			</g>
		</g>
		<g transform="matrix( 1, 0, 0, 1, 0,0) ">
			<g>
				<path id="Symbol_261_0_Layer37_0_1_STROKES_1_" class="st8" d="M125.6,5c-2.4,1.5-3.9,3.5-4.4,5.9c0.8,1.8,1.2,3.2,1.2,4.1
					c2.7,1.3,5.4,1.9,8,1.7c2.9-0.1,5.4-1.1,7.6-2.9c0.2-1.1,0.3-3.4,0.3-6.9c-0.5-0.9-1.4-1.8-2.6-2.7l-3-2.2
					C129.4,3.1,127,4.1,125.6,5z"/>
			</g>
		</g>
		<g transform="matrix( 1, 0, 0, 1, 0,0) ">
			<g>
				<path id="Symbol_261_0_Layer36_0_1_STROKES_1_" class="st9" d="M8.1,109.7v0.3"/>
			</g>
		</g>
		<g transform="matrix( 1, 0, 0, 1, 0,0) ">
			<g>
				<path id="Symbol_261_0_Layer35_0_1_STROKES_1_" class="st9" d="M86.2,49.4l0.3-0.2l7.8-0.7c3.1-0.2,5.3,0.5,6.4,2.3
					c-0.4,0.4-0.6,0.8-0.4,1.2l11.8,0.3c4.8,0.5,8,2.2,9.4,5c0.3,0.7,0.3,1.5-0.2,2.5c-0.5,1.1-1.2,1.9-2.3,2.4l-0.2,0.7
					c2.2,1.5,6.1,2.2,11.5,2.1c5.4-0.1,9.2,0.5,11.4,2c0.3,0.5,0.3,1.1,0.1,1.8l-0.3,1.8c1.4,1.2,2.2,2.5,2.4,3.8"/>
			</g>
		</g>
		<g transform="matrix( 1, 0, 0, 1, 0,0) ">
			<g>
				<path id="Symbol_261_0_Layer34_0_1_STROKES_1_" class="st13" d="M166.1,64.1l-2.6,0.1c-1,0.2-1.7,0.6-2.1,1.3l-5.9-0.5
					c-2.5-0.4-4.3,0.2-5.4,1.6c-1.6,0-2.9,0.6-4,1.8c-0.3,0.6-0.4,1.4-0.1,2.4l0.6,2.4l-0.9,0.6"/>
			</g>
		</g>
		<g transform="matrix( 1, 0, 0, 1, 0,0) ">
			<g>
				<path id="Symbol_261_0_Layer33_0_1_STROKES_1_" class="st12" d="M138.3,35.9l0.7,0.4l-0.3,3l-0.6,0.3"/>
			</g>
		</g>
		<g transform="matrix( 1, 0, 0, 1, 0,0) ">
			<g>
				<path id="Symbol_261_0_Layer32_0_1_STROKES_1_" class="st9" d="M137.7,39.3l0.5-1.6c0.2-0.6,0.2-1.2,0-1.7"/>
			</g>
		</g>
		<g transform="matrix( 1, 0, 0, 1, 0,0) ">
			<g>
				<path id="Symbol_261_0_Layer31_0_1_STROKES_1_" class="st11" d="M137.7,39.3l0.5,0.3"/>
			</g>
		</g>
		<g transform="matrix( 1, 0, 0, 1, 0,0) ">
			<g>
				<path id="Symbol_261_0_Layer30_0_1_STROKES_1_" class="st9" d="M123.4,19.2l-6.9-1.8c-2.7-0.6-5.1-0.8-7.1-0.6l-0.9,0.7
					c-0.4,0.3-0.6,0.6-0.6,0.9c1.6,0.8,4,1.6,7.2,2.2l7.6,1.7c0.9,1.2,3,3.3,6.3,6.5c3.8,3.5,6.6,5.8,8.5,6.8l0.7,0.3l0.8,0.3
					c-0.7-1-3.3-3.9-7.7-8.6L123.4,19.2z"/>
			</g>
		</g>
		<g transform="matrix( 1, 0, 0, 1, 0,0) ">
			<g>
				<path id="Symbol_261_0_Layer29_0_1_STROKES_1_" class="st12" d="M155.9,49.1l-0.4-0.3l-2.3-6.2c-0.7-1.7-2.1-2.8-4.4-3.3l-5,0.4
					l-5.3,0.8c-0.2-0.1-0.3-0.4-0.3-0.8"/>
			</g>
		</g>
		<g transform="matrix( 1, 0, 0, 1, 0,0) ">
			<g>
				<path id="Symbol_261_0_Layer28_0_1_STROKES_1_" class="st12" d="M155.9,49.1c2.1,0.4,4.1,1.8,5.8,4.3l4.4,6
					c-0.1,0.5-0.1,1.3,0.1,2.4c0.2,1,0.2,1.8,0,2.4"/>
			</g>
		</g>
		<g transform="matrix( 1, 0, 0, 1, 0,0) ">
			<g>
				<path id="Symbol_261_0_Layer27_0_1_STROKES_1_" class="st7" d="M131.7,38l1.2-2l2.3-0.2l2.3-0.1l0.6,0.1"/>
			</g>
		</g>
		<g transform="matrix( 1, 0, 0, 1, 0,0) ">
			<g>
				<path id="Symbol_261_0_Layer26_0_1_STROKES_1_" class="st7" d="M131.7,38l2.9,1.2l3,0.1"/>
			</g>
		</g>
		<g transform="matrix( 1, 0, 0, 1, 0,0) ">
			<g>
				<path id="Symbol_261_0_Layer25_0_1_STROKES_1_" class="st7" d="M94.1,16.1h7.7l7.6,0.8"/>
			</g>
		</g>
		<g transform="matrix( 1, 0, 0, 1, 0,0) ">
			<g>
				<path id="Symbol_261_0_Layer24_0_1_STROKES_1_" class="st9" d="M127.7,44.9c-1.2,0.5-2.1,1-2.6,1.5c-0.8,0.6-1.3,1.3-1.6,2.2
					c-1,3,0.5,5.2,4.4,6.6c3.8,1.4,6.8,1.1,9-1.1l6.8,0.5c2.6,0.7,4,2.2,4.1,4.4c-2.5,1.3-3.9,2.4-4.1,3.4c-0.2,1.1,1.1,1.9,3.9,2.4
					"/>
			</g>
		</g>
		<g transform="matrix( 1, 0, 0, 1, 0,0) ">
			<g>
				<path id="Symbol_261_0_Layer23_0_1_STROKES_1_" class="st10" d="M127.7,44.9c0.5,0,0.9,0.2,1.4,0.6c2,0.9,4.8,1.3,8.4,1.2
					l8.4,0.7l8,2.9c1.1-0.4,1.7-0.8,2-1.1"/>
			</g>
		</g>
		<g transform="matrix( 1, 0, 0, 1, 0,0) ">
			<g>
				<path id="Symbol_261_0_Layer22_0_1_STROKES_1_" class="st12" d="M96.1,21.2l0.2,0.6l0.3,0.5l11.2,0.9c4.9,0.2,8.5,0.8,11,1.8
					c1.5,0.6,2.9,1.7,4,3.4l3.8,6.2c1.8,2.6,3.5,3.8,5.1,3.5"/>
			</g>
		</g>
		<g transform="matrix( 1, 0, 0, 1, 0,0) ">
			<g>
				<path id="Symbol_261_0_Layer21_0_1_STROKES_1_" class="st9" d="M96.1,21.2l-1.1,1c-0.4,0.4-0.9,0.7-1.3,0.7l-0.1,0.3
					c9.5,0.4,17.1,1.1,22.9,2.3c1.5,0.3,2.6,0.7,3.3,1.1c0.7,0.5,1.5,1.4,2.4,2.6l3.8,6.3c1.7,2.5,3.6,3.8,5.5,4.1"/>
			</g>
		</g>
		<g transform="matrix( 1, 0, 0, 1, 0,0) ">
			<g>
				<path id="Symbol_261_0_Layer20_0_1_STROKES_1_" class="st7" d="M62.2,30.2l5.9-1.5l5.5-2.1c1.2-0.5,3-2,5.4-4.5
					c2.1-2.2,4.2-3.5,6.1-3.9l4.8-0.5c1.8-0.3,3.2-0.8,4.3-1.7"/>
			</g>
		</g>
		<g transform="matrix( 1, 0, 0, 1, 0,0) ">
			<g>
				<path id="Symbol_261_0_Layer19_0_1_STROKES_1_" class="st9" d="M62.2,30.2l0.2-0.6c-0.3-1.4,0-2.5,1.1-3.4c0.7-0.6,2-1.2,3.8-2
					c2.9-1.1,7.3-3.3,13.1-6.6c5.1-2.4,9.3-3,12.3-1.9l0.7,0.1l0.6,0.3"/>
			</g>
		</g>
		<g transform="matrix( 1, 0, 0, 1, 0,0) ">
			<g>
				<path id="Symbol_261_0_Layer18_0_1_STROKES_1_" class="st8" d="M120.7,33.8c1.6,1.3,3.1,3,4.3,5.2l2.8,5.9"/>
			</g>
		</g>
		<g transform="matrix( 1, 0, 0, 1, 0,0) ">
			<g>
				<path id="Symbol_261_0_Layer17_0_1_STROKES_1_" class="st9" d="M120.7,33.8c-2.3-0.9-4.1-0.9-5.5,0.1c-1.2,0.9-2,2.6-2.6,5.1
					c-2.9,0.9-6.1,0.9-9.7,0l-0.5-0.5c-0.1-0.3-0.1-0.6,0-1l0.1-1l-0.7-0.8l-6.2,0.3c-0.6,0.2-2.7,1-6.2,2.5
					c-5,2.1-8.8,1.9-11.4-0.7"/>
			</g>
		</g>
		<g transform="matrix( 1, 0, 0, 1, 0,0) ">
			<g>
				<path id="Symbol_261_0_Layer16_0_1_STROKES_1_" class="st8" d="M67.8,42.9l0.5,1l0.4,1"/>
			</g>
		</g>
		<g transform="matrix( 1, 0, 0, 1, 0,0) ">
			<g>
				<path id="Symbol_261_0_Layer15_0_1_STROKES_1_" class="st6" d="M62.1,36.6c2.2-0.9,7-3.7,14.4-8.3c5.9-3.6,10.9-5.9,15.2-6.7
					l0.3-0.5l0.3-1.6l0.5-0.4l1.3-0.3l1.3,0.1l0.2,0.3l0.5,1l0.2,1.1"/>
			</g>
		</g>
		<g transform="matrix( 1, 0, 0, 1, 0,0) ">
			<g>
				<path id="Symbol_261_0_Layer14_0_1_STROKES_1_" class="st9" d="M62.1,36.6c-0.3-1.9-0.2-4,0.1-6.3"/>
			</g>
		</g>
		<g transform="matrix( 1, 0, 0, 1, 0,0) ">
			<g>
				<path id="Symbol_261_0_Layer13_0_1_STROKES_1_" class="st6" d="M117.1,28.4l3.6,5.4"/>
			</g>
		</g>
		<g transform="matrix( 1, 0, 0, 1, 0,0) ">
			<g>
				<path id="Symbol_261_0_Layer12_0_1_STROKES_1_" class="st8" d="M117.1,28.4c-3.3-0.6-7.3-1-12-1c-5.4-0.1-9.3,0.2-11.6,1
					c-3.6,1.2-7.8,3.3-12.7,6.4l-12.4,7.8l-0.6,0.3"/>
			</g>
		</g>
		<g transform="matrix( 1, 0, 0, 1, 0,0) ">
			<g>
				<path id="Symbol_261_0_Layer11_0_1_STROKES_1_" class="st13" d="M63.4,41l0.3,0.9l2.2,0c0.8,0.1,1.4,0.4,1.9,0.9"/>
			</g>
		</g>
		<g transform="matrix( 1, 0, 0, 1, 0,0) ">
			<g>
				<path id="Symbol_261_0_Layer10_0_1_STROKES_1_" class="st10" d="M63.4,41l-1.5-1.3c0.2-1.4,0.3-2.4,0.2-3.1"/>
			</g>
		</g>
		<g transform="matrix( 1, 0, 0, 1, 0,0) ">
			<g>
				<path id="Symbol_261_0_Layer9_0_1_STROKES_1_" class="st9" d="M63.4,41c0.7-0.8,1.4-1.4,2.3-1.8l2.8-1c2.4-0.7,5.1-1.8,8-3.5
					l7.3-4.1c0.8-0.4,1.9-1.1,3.2-2l3-1.9c1.2-0.6,2.7-1,4.6-1.1l4.8-0.1l13,0.6l2.8,0.4c1,0.3,1.7,1,1.9,2"/>
			</g>
		</g>
		<g transform="matrix( 1, 0, 0, 1, 0,0) ">
			<g>
				<path id="Symbol_261_0_Layer8_0_1_STROKES_1_" class="st9" d="M75.9,118.3l-1.3-1.4c-0.4-0.6-0.5-1.3-0.3-1.8l0.5-0.5l3.2-1.3
					c1.2-0.5,2.1-1.3,2.5-2.2l-0.1-0.8c-0.2-0.7-1.1-1.3-2.6-2c-1.4-0.6-2.1-1.4-2.1-2.3c0.8-1.6,2.8-2.8,6-3.7
					c3.3-0.8,5.3-2,6.2-3.6c0.4-3.1-1.6-4.9-5.8-5.4c-5.2-0.1-8.8-0.4-10.6-1.1c-2.5-1-4.1-2.3-4.6-4.1c-0.6-2,0.3-3.9,2.8-5.8"/>
			</g>
		</g>
		<g transform="matrix( 1, 0, 0, 1, 0,0) ">
			<g>
				<path id="Symbol_261_0_Layer7_0_1_STROKES_1_" class="st8" d="M75.9,118.3c1.8-1.8,4.3-2.6,7.4-2.4l7.9,1.1
					c0.7-1.4,1.8-2.5,3.6-3.2c1.5-0.6,3.2-0.8,4.8-0.7l0.9,0.6l0.9,0.6l3.4,0.3c1.3,0.1,2.1-0.4,2.4-1.6l1.4-1.4l1.5-1.3l4.8-0.8
					c1.8,0,3.3,0.5,4.3,1.7h0.4c1.3-1.4,3.3-1.4,5.8,0c1-1,2.4-1.4,4.2-1.3l4.5,0.3c0.5-1.6,1.5-2.9,3-4c1-0.8,2.5-1.7,4.4-2.5
					c0.1-1,0.7-2,1.9-2.8c1.5-1,2.3-1.8,2.6-2.3"/>
			</g>
		</g>
		<g transform="matrix( 1, 0, 0, 1, 0,0) ">
			<g>
				<path id="Symbol_261_0_Layer6_0_1_STROKES_1_" class="st14" d="M42.4,142.2c0.4-0.1,1.1-0.6,2.2-1.6c1.7-1,3.8-1.3,6.2-0.7
					c3.1,0.8,5.4,1.1,6.8,1c1.1-1.6,2.8-2.9,5.1-4.1c2.8-1.2,4.8-2.1,6.1-2.8c0.7-2.8,2.3-5.4,4.8-8c-0.5-1.3-0.5-2.6,0.1-4.1
					c0.4-1.2,1.2-2.4,2.3-3.6"/>
			</g>
		</g>
		<g transform="matrix( 1, 0, 0, 1, 0,0) ">
			<g>
				<path id="Symbol_261_0_Layer5_0_1_STROKES_1_" class="st9" d="M91.7,68.6L84.4,73c-2.7,1.5-5.7,2.2-9,1.9l-8.8-1.1
					c-3.6-0.3-6.8-0.1-9.6,0.8c-2.2,0.7-5,2-8.3,3.8l-8.4,4.3l-15.4,7c-2.1,1-4.9,3.2-8.3,6.8c-3.5,3.6-6.1,5.9-7.9,6.8l-1.3,0.6"/>
			</g>
		</g>
		<g transform="matrix( 1, 0, 0, 1, 0,0) ">
			<g>
				<path id="Symbol_261_0_Layer4_0_1_STROKES_1_" class="st13" d="M91.7,68.6c0.9-1.6,1.4-3.6,1.4-5.8c0-2.2-0.6-4.1-1.6-5.5"/>
			</g>
		</g>
		<g transform="matrix( 1, 0, 0, 1, 0,0) ">
			<g>
				<path id="Symbol_261_0_Layer3_0_1_STROKES_1_" class="st15" d="M92,69.1l-0.3-0.5"/>
			</g>
		</g>
		<g transform="matrix( 1, 0, 0, 1, 0,0) ">
			<g>
				<path id="Symbol_261_0_Layer2_0_1_STROKES_1_" class="st9" d="M92,69.1l-4.8,4.2c-2.2,1.6-4.1,2.6-5.8,2.9
					c-0.9,0.2-2.3,0.2-4.3,0l-5.4-0.6l-7-0.6c-2.2-0.1-4.4,0.3-6.5,1.1c-5.7,2-12.8,5-21.3,9.1l-5.6,2.3c-1.9,0.9-3.3,1.9-4.1,3.1
					c-1.1,1.6-3.9,4.1-8.3,7.5c-4,3.1-7.4,5.4-10.2,7L8,105.3"/>
			</g>
		</g>
		<g transform="matrix( 1, 0, 0, 1, 0,0) ">
			<g>
				<path id="Symbol_261_0_Layer1_0_1_STROKES_1_" class="st8" d="M8,110.4l4.7-2.3c2-1,3.6-2,4.8-3.2c4.9-4.6,11.1-9,18.9-13.2
					c6.5-3.6,13.4-6.8,20.8-9.6c2.5-0.9,5.3-1.4,8.6-1.4c3,0,5.7,0.3,8,1c0.9,0.3,2,0.8,3.3,1.5l2.9,0.3l0.4-0.1
					c2.2-0.4,4.6-1.9,7.3-4.7l6-5.9l0.1-2.7l-0.5-0.6c-0.4-0.1-0.9-0.3-1.3-0.7"/>
			</g>
		</g>
		<g transform="matrix( 1, 0, 0, 1, 0,0) ">
			<g>
				<path id="Symbol_261_0_Layer0_0_1_STROKES_1_" class="st9" d="M47.1,83.7c-2.8,1-6,2.3-9.3,4l-8.9,4.7c-2.1,1.2-3.9,2.7-5.3,4.5
					c-1.4,2-3.4,3.8-5.9,5.4c-1.9,1.3-4.4,2.5-7.4,3.7l-0.9,0.2l-1,0.2l0,0.1c-0.3,0.2-0.6,0.6-1,1.3"/>
			</g>
		</g>
	</g>
</g>
<g transform="matrix( 1, 0, 0, 1, 0,0) ">
	<g transform="matrix( 1, 0, 0, 1, 0,0) ">
		<g>
			<g id="Symbol_261_0_Layer112_0_FILL">
				<path class="st0" d="M163.6,64.2l2.6-0.1c0.2-0.6,0.2-1.4,0-2.4c-0.2-1.1-0.2-1.9-0.1-2.4l-4.4-6c-1.7-2.5-3.7-3.9-5.8-4.3
					c-0.3,0.3-0.9,0.7-2,1.1l-8-2.9l-8.4-0.7c-3.6,0.1-6.4-0.3-8.4-1.2c-0.5-0.4-1-0.6-1.4-0.6l-2.8-5.9c-1.2-2.1-2.6-3.8-4.3-5.2
					l-3.6-5.4c-3.3-0.6-7.3-1-12-1c-5.4-0.1-9.3,0.2-11.6,1c-3.6,1.2-7.8,3.3-12.7,6.5l-12.4,7.8l-0.6,0.3l0.5,1l0.4,1l0.1-0.1
					c0.9-0.2,1.6,0.1,2.3,0.9c0.8,0.9,1.4,1.4,2,1.5c0.4,0.1,1.5-0.3,3.3-1.1c1.6-0.7,3.1-0.8,4.4-0.3c0.8,0.4,1.6,1.2,2.4,2.6
					l1.7,0.2l1.4,0.5l-0.1,0.4l0.3-0.2l7.8-0.7c3.1-0.2,5.3,0.5,6.4,2.3c-0.4,0.4-0.6,0.8-0.4,1.2l11.8,0.3c4.8,0.5,8,2.2,9.4,5
					c0.3,0.7,0.3,1.5-0.2,2.5c-0.5,1.1-1.2,1.9-2.3,2.4l-0.2,0.7c2.2,1.5,6.1,2.2,11.5,2.1c5.4-0.1,9.2,0.5,11.4,2
					c0.3,0.5,0.3,1.1,0.1,1.8l-0.3,1.8c1.4,1.2,2.2,2.5,2.4,3.8l0.1-0.1l0.8-0.6c0.3-0.3,0.6-0.4,1-0.4l0.1,0.4l0.9-0.6l-0.6-2.4
					c-0.2-1-0.2-1.8,0.1-2.4c1.1-1.2,2.4-1.8,4-1.8c1.1-1.4,2.9-2,5.4-1.6l5.9,0.5C161.9,64.8,162.6,64.4,163.6,64.2 M91,43.1
					c-0.6,0.2-1,0.2-1.3-0.3l1,0c0.6,0,0.8-0.2,0.7-0.7c0-0.2-0.2-0.3-0.5-0.3l-0.9,0c0.6-0.4,1.1-0.5,1.7-0.3
					C91.7,42.3,91.5,42.8,91,43.1 M108.9,44.3l-1.1,0.3c-1.2,0.4-1.9,0.8-2.1,1.1c-0.3,1.8,0.2,2.9,1.3,3.3c0.9,0.4,2,0.2,3.3-0.4
					c1.3-0.6,2-1.4,2.3-2.2c0.3-1-0.4-1.7-2-2.1c1.2,0.1,1.9,0.5,2.1,1.2c0.2,0.6,0,1.3-0.7,2.1c-1.6,2-3.5,2.6-5.5,1.7
					c-0.4-0.3-0.6-0.9-0.8-1.7l-0.3-2.1l1.6-0.8C107.7,44.4,108.3,44.3,108.9,44.3 M133,59.1c0.4,0.3,0.5,0.7,0.4,1
					c-0.2,0.2-0.5,0.4-0.9,0.4l-0.9-0.3c-0.2-0.3-0.1-0.6,0.3-0.9C132.3,59.1,132.7,59,133,59.1z"/>
			</g>
		</g>
	</g>
	<g transform="matrix( 1, 0, 0, 1, 0,0) ">
		<g>
			<g id="Symbol_261_0_Layer111_0_FILL">
				<path class="st1" d="M124.9,39l2.8,5.9c0.5,0,0.9,0.2,1.4,0.6c2,0.9,4.8,1.3,8.4,1.2l8.4,0.7l8,2.9c1.1-0.4,1.7-0.8,2-1.1
					l-0.4-0.3l-2.3-6.2c-0.7-1.7-2.1-2.8-4.4-3.3l-5,0.4l-5.3,0.8c-0.2-0.1-0.3-0.4-0.3-0.8l-0.5-0.3l-3-0.1l-2.9-1.2
					c-1.6,0.3-3.3-0.9-5.1-3.5l-3.8-6.3c-1.1-1.7-2.5-2.8-4-3.4c-2.5-1-6.2-1.6-11-1.8l-11.2-0.9l-0.3-0.5l-0.2-0.6l-0.2-1.1l-0.5-1
					l-0.2-0.3L94,18.7L92.8,19l-0.5,0.4l-0.3,1.6l-0.3,0.5c-4.2,0.8-9.3,3.1-15.2,6.7c-7.4,4.6-12.2,7.4-14.4,8.4
					c0.1,0.7,0,1.7-0.2,3.1l1.5,1.3c0.7-0.8,1.4-1.4,2.3-1.8l2.8-1c2.4-0.7,5.1-1.8,8-3.5l7.3-4.2c0.8-0.4,1.9-1.1,3.2-2l3-1.9
					c1.2-0.6,2.7-1,4.6-1.1l4.8-0.1l13,0.6l2.8,0.4c1,0.3,1.7,1,1.9,2l3.6,5.4C122.3,35.1,123.7,36.9,124.9,39z"/>
			</g>
		</g>
	</g>
	<g transform="matrix( 1, 0, 0, 1, 0,0) ">
		<g>
			<g id="Symbol_261_0_Layer110_0_FILL">
				<path class="st2" d="M143.7,74.3v0.4c-1.7,0.6-2.9,1.2-3.6,1.8c-1.2,0.9-1.6,2.1-1.2,3.6c-0.4,0.1-0.8,0.3-1.1,0.7l-0.9,1
					c0,1.1,0.1,2,0.4,2.7l1.3,2.1c-0.4,0.7-0.7,1.4-0.8,2.1l0.5,0.2l2,2.3c0.8,0.8,1.7,1.3,2.6,1.5l-2.8-2c-1-1-1.3-2-1-3.2
					c0.4,1.2,1.8,2.3,4.3,3.6c2.3,1.1,3.4,2.3,3.4,3.7c-0.4-0.1-0.9-0.5-1.7-1.3c-0.6-0.6-1.2-0.9-1.9-0.9c1.5,0.9,2.5,1.7,3.1,2.6
					l-0.3,1.6c-0.2,0.6-0.2,1.2-0.1,1.8c-0.4-0.9-1.9-2.3-4.4-4.2c-2-1.5-3-3.3-3.1-5.4l-0.6,0.1c-0.2,1.7,0.8,3.5,2.9,5.4
					c3,2.6,4.6,4.1,4.9,4.5l0.3-0.1l0.2,0.3c0.2-2.5,1.1-4.6,2.7-6.5c0.8-0.9,2.4-2.3,4.9-4.3l-0.8,0.2l-0.6,0.3
					c-0.1-1.1-0.9-2.1-2.6-2.8c-1.7-0.8-2.5-1.7-2.6-2.8c-2.9-0.2-5.2-1.1-6.9-2.7l-0.1-0.3c-0.1,0-0.2,0.1-0.1,0.3
					c1.5,1.6,3.7,2.5,6.7,2.9c0.3,0.9,1.2,1.8,2.8,2.6c1.6,0.8,2.5,1.6,2.8,2.5c-0.4,0.9-1.1,1.7-2.1,2.5l-2.6,2
					c-0.4-1.5-1.3-2.7-2.7-3.6c-1.1-0.7-2.6-1.3-4.5-1.9c0-0.6-0.4-1.2-1.2-1.9c-0.9-0.7-1.3-1.3-1.4-1.7c-0.2-1-0.1-1.8,0.4-2.4
					l1.8-1.9c0.1-2,0.8-3.2,2.1-3.6l0.9,0l0.8,0l0.9-1.3c0.3-0.5,0.7-0.8,1.2-0.7l-0.2-0.3l-0.1-0.4c-0.4,0-0.7,0.1-1,0.4l-0.8,0.6
					l-0.1,0.1L143.7,74.3 M144.2,89.3c1.9,1.1,2.9,2.4,3.2,4.1c-0.5-0.9-1.8-1.9-4-2.9c-2-1-3.3-2.1-3.7-3.3
					C140.4,87.7,141.9,88.4,144.2,89.3z"/>
			</g>
		</g>
	</g>
	<g transform="matrix( 1, 0, 0, 1, 0,0) ">
		<g>
			<g id="Symbol_261_0_Layer109_0_FILL">
				<path class="st3" d="M88.3,87.2l-4.4-0.5l-2.1-1.6l-1.9-1.4L77,83.3c-1.3-0.7-2.5-1.2-3.3-1.5c-2.3-0.7-4.9-1.1-8-1
					c-3.3,0-6.1,0.5-8.6,1.4c-7.4,2.8-14.3,6-20.8,9.6c-7.7,4.2-14,8.6-18.9,13.2c-1.2,1.1-2.8,2.2-4.8,3.2L8,110.4l0.4-0.1
					c0.1,2.1-0.5,4.3-1.8,6.3c-1.6,2.5-2.5,4.3-2.8,5.4c1.2,0.4,2.1,1.2,2.8,2.3c0.5,0.9,0.9,2.2,1.3,3.9c2.1,0,3.7,1.2,4.5,3.6
					c1.2,0,2.3,0.4,3.1,1.3l1.8,2.5c2.5-1,5-1,7.3,0.1c2.3,1,3.7,2.7,4.2,4.9l2.7,0.1l2.1,1.1c1.1-0.6,2.6-0.9,4.5-0.9
					c1.7,0,3.2,0.3,4.5,0.9v0.3c0.4-0.1,1.1-0.6,2.2-1.6c1.7-1,3.8-1.3,6.2-0.7c3.1,0.8,5.4,1.1,6.8,1c1.1-1.6,2.8-2.9,5.1-4.1
					c2.8-1.2,4.8-2.1,6.1-2.8c0.7-2.8,2.3-5.4,4.8-8c-0.5-1.3-0.5-2.6,0.1-4.1c0.4-1.2,1.2-2.4,2.3-3.6c1.8-1.8,4.3-2.6,7.4-2.4
					l7.9,1.1c0.7-1.4,1.8-2.5,3.6-3.2c1.5-0.6,3.2-0.8,4.8-0.7l0.9,0.6l0.9,0.6l3.4,0.3c1.3,0.1,2.1-0.4,2.4-1.6l1.4-1.4l1.5-1.3
					l4.8-0.8c1.8,0,3.3,0.5,4.3,1.7h0.4c1.3-1.4,3.3-1.4,5.8,0c1-1,2.4-1.4,4.2-1.3l4.5,0.3c0.5-1.6,1.5-2.9,3-4
					c1-0.8,2.5-1.7,4.4-2.5c0.1-1,0.7-2,1.9-2.8c1.5-1,2.3-1.8,2.6-2.3l-0.3,0.1c-0.3-0.4-1.9-1.9-4.9-4.5c-2.1-1.9-3.1-3.7-2.9-5.4
					c-0.4-0.1-0.9-0.5-1.3-1.3c-0.4-0.7-0.7-1.3-0.8-1.8l-2.9-0.7c-1-0.2-1.9-0.2-2.6,0l-0.3,0l-2.7,2.2c-1.1,1-2.1,1.6-3,1.9
					l-4.9-0.2c0.1,0.6-0.1,0.9-0.4,1.1l-0.1,0.1c-1.2,1.7-3.5,2.9-6.8,3.6l-8.3,1c-1.9,0.3-3.2-0.1-3.9-1c-0.4-0.5-0.8-1.8-1.4-3.9
					l-0.1-1.8c-1,0.2-2.5,0.2-4.4,0L88.3,87.2 M95.4,98.6c1.7-0.3,2.8,0.3,3.2,1.7c-0.4,1-1.1,1.7-2.3,1.9c-1.1,0.2-2.2,0.1-3.1-0.5
					l-0.1-0.6C92.9,99.8,93.7,98.9,95.4,98.6 M129.5,99c-0.2,0.6-0.7,1-1.4,1.1c-0.7,0.1-1.4,0-1.9-0.4c0.2-0.7,0.4-1.1,0.8-1.1
					c0.4,0,0.2,0.3-0.5,0.9c0.3,0.3,0.8,0.5,1.4,0.4c0.7,0,1.1-0.3,1.3-0.7c-0.8-0.7-1.2-1-1-1.1L129.5,99 M28.1,99.4
					c-1.7,0-2.9,0.2-3.6,0.6c0.6-0.6,3.3-0.8,8-0.6c3.9,0.1,5.8-1,5.8-3.3c0-0.5-0.2-1-0.6-1.4l-1.1-1.2c0.4-0.9,0.7-1.4,1-1.5
					c0.3-0.1,0,0.3-0.8,1.3l1,1.3c0.4,0.4,0.6,0.9,0.6,1.3c0.2,2.5-1.7,3.7-5.5,3.7L28.1,99.4 M57.4,87.3c0.2-2.4,1.4-4.2,3.4-5.3
					c-1.6,1-2.6,2.6-3.1,4.9c-0.5,2.6,0.6,4.2,3.3,4.6l1.4,1.9c0.5,0.7,1.2,1.3,2,1.7l0.3,0.2c-2.2-0.7-3.4-1.9-3.7-3.5
					C58.4,91.4,57.1,89.9,57.4,87.3 M49.4,86l-0.4,1.5c-0.4,0.8-0.6,1.5-0.5,2.1c-0.8,0.4-2.1,0.7-4.1,0.9c-2.1,0.2-3.6,0.5-4.3,0.8
					c0.7-0.5,1.9-0.8,3.8-0.9c2.1-0.2,3.5-0.4,4.1-0.7C48.4,88.1,48.9,86.9,49.4,86 M43.8,98.2c0.9-2,1.6-3.5,2.2-4.5
					c1-1.8,2.3-2.7,3.9-2.8c1.1,0,2.1,0.3,3,1.1c1,0.9,1.4,2,1.4,3.4l0.2,0.2c-0.1,1.9,0.7,3.9,2.5,5.9c2,2.4,3.1,4.1,3.3,5.2
					c1.1,5.1,0.1,9.8-3.1,14.2c-2.9,3.8-6.9,6.5-11.9,8.1c-2.4,0.8-7,0.3-13.7-1.4v0.3c-0.2,0-0.5,0-0.6-0.2l-0.6-0.3l-0.9-2.9
					c-0.4-1.1-0.2-2,0.4-2.8v0.3l0.7-2.1c-0.5-2.5-0.6-4.5-0.5-6c0.2-2.4,1-4.3,2.5-5.6c-0.6-1.7-0.3-3.2,1-4.5
					c1.2-1.4,2.7-2,4.4-1.9c0.3-1.2,1.2-2.1,2.5-2.7C41.2,98.5,42.4,98.3,43.8,98.2 M23.3,111.6c-0.2-0.5,0-1,0.6-1.4
					c0.6-0.4,1.1-0.5,1.7-0.3l0.7,0.4c0,0.7-0.3,1.1-1,1.3L23.3,111.6 M71.9,97.4c-0.6-0.5-1.7-0.9-3.3-1.3l2.9,0.6
					c1,0.4,1.6,1.2,1.8,2.2c0.3,1.5-0.1,2.9-1.3,4.2l-3.3,3.1c0.2-0.5,1-1.3,2.3-2.5c1.2-1,1.9-2,2-3C73.3,99.3,72.9,98.2,71.9,97.4
					z"/>
			</g>
		</g>
	</g>
	<g transform="matrix( 1, 0, 0, 1, 0,0) ">
		<g>
			<g id="Symbol_261_0_Layer108_0_FILL">
				<path class="st1" d="M138.4,88.7c0.1,2.1,1.1,3.9,3.1,5.4c2.5,1.9,3.9,3.3,4.4,4.2c-0.1-0.6,0-1.2,0.1-1.8l0.3-1.6
					c-0.6-0.9-1.6-1.7-3.1-2.6c0.7,0,1.4,0.3,1.9,0.9c0.7,0.7,1.3,1.1,1.7,1.3c0-1.4-1.2-2.6-3.4-3.7c-2.5-1.2-3.9-2.4-4.3-3.6
					c-0.3,1.2,0.1,2.2,1,3.2l2.8,2c-0.9-0.2-1.8-0.7-2.6-1.5L138.4,88.7z"/>
			</g>
		</g>
	</g>
	<g transform="matrix( 1, 0, 0, 1, 0,0) ">
		<g>
			<g id="Symbol_261_0_Layer107_0_FILL">
				<path class="st4" d="M100.6,50.8c-1.1-1.7-3.2-2.5-6.4-2.3l-7.8,0.7l-0.3,0.2l0.4,0.1l2.4,2.4c0.1,0.8,0.5,1.7,1.3,2.6
					c0.8,1,1.3,1.8,1.4,2.5l-0.1,0.3c1,1.5,1.5,3.3,1.6,5.5c0,2.2-0.5,4.1-1.4,5.8l0.3,0.5c0.4,0.4,0.9,0.6,1.3,0.7l0.5,0.6L93.7,73
					l-6,5.9c-2.7,2.7-5.2,4.3-7.3,4.7l1.5,1.5c1.7,0.8,3.9,1.5,6.5,2.1l10.2,0.8c0.1-1.7,0.4-3.3,1-4.8c0.2-0.8,0.7-1.8,1.5-2.9
					l1.9-2.8h-0.3c0.7-0.9,1.4-2.5,2.2-4.9c0.9-1.9,2.4-2.8,4.5-2.5v0.3l0.3-0.5l3.8,0.1c0.9-3.7,2.7-5,5.6-4c1.1,0.4,2,1.2,2.8,2.3
					c0.7,1.2,1,2.5,0.8,3.8v0.9l0.4,1.3c0.3,1,0.2,2.7-0.4,5c-0.5,2.1-1.1,3.8-1.8,5.1l-0.3,2.5c-0.1,1-0.5,1.7-1,2.3l1.8,0.3
					l2.3,0.2l0.8-0.2c0.7-0.3,1.7-1.1,2.9-2.2c1.2-1,2.1-1.7,2.8-1.9c1.6-1,3.5-0.8,5.8,0.4l0.9,1.6c0.4,0.7,0.8,1.2,1.2,1.4
					c0.1-0.6,0.4-1.3,0.8-2.1l-1.3-2.1c-0.3-0.7-0.4-1.6-0.4-2.7l0.9-1c0.3-0.4,0.7-0.6,1.1-0.7c-0.4-1.4,0-2.6,1.2-3.6
					c0.7-0.6,1.9-1.2,3.6-1.8v-0.4l0.1,0.1c-0.1-1.4-0.9-2.6-2.4-3.8l0.3-1.8c0.2-0.7,0.2-1.3-0.1-1.8c-2.2-1.5-6-2.2-11.4-2
					c-5.4,0.2-9.3-0.5-11.5-2.1l0.2-0.7c1-0.5,1.8-1.3,2.3-2.4c0.4-1,0.5-1.8,0.2-2.5c-1.4-2.9-4.5-4.5-9.4-5L100.2,52
					C100,51.6,100.1,51.2,100.6,50.8z"/>
			</g>
		</g>
	</g>
	<g transform="matrix( 1, 0, 0, 1, 0,0) ">
		<g>
			<g id="Symbol_261_0_Layer106_0_FILL">
				<path class="st1" d="M139,36.3c-0.7-1-3.3-3.9-7.7-8.6l-7.9-8.4l-6.9-1.8c-2.7-0.6-5.1-0.8-7.1-0.6l-0.9,0.7
					c-0.4,0.3-0.6,0.6-0.6,0.9c1.6,0.8,4,1.6,7.2,2.2l7.6,1.7c0.9,1.2,3,3.3,6.3,6.5c3.8,3.5,6.6,5.8,8.5,6.9l0.6,0.1h0.2L139,36.3z
					"/>
			</g>
		</g>
	</g>
	<g transform="matrix( 1, 0, 0, 1, 0,0) ">
		<g>
			<g id="Symbol_261_0_Layer105_0_FILL">
				<path class="st5" d="M138.3,6.9c-0.5-0.9-1.4-1.8-2.6-2.7l-3-2.2c-3.4,1.1-5.8,2.1-7.2,3c-2.4,1.5-3.9,3.5-4.4,5.9
					c0.8,1.8,1.2,3.2,1.2,4.1c2.7,1.3,5.4,1.9,8,1.8c2.9-0.1,5.4-1.1,7.6-2.9C138.2,12.8,138.3,10.5,138.3,6.9z"/>
			</g>
		</g>
	</g>
	<g transform="matrix( 1, 0, 0, 1, 0,0) ">
		<g>
			<g id="Symbol_261_0_Layer104_0_FILL">
				<path class="st1" d="M138.1,36l-0.7-0.3l-2.3,0.1l-2.3,0.2l-1.2,2l2.9,1.2l3,0.1l0.5-1.6C138.3,37.1,138.3,36.5,138.1,36z"/>
			</g>
		</g>
	</g>
	<g transform="matrix( 1, 0, 0, 1, 0,0) ">
		<g>
			<g id="Symbol_261_0_Layer103_0_FILL">
				<path class="st2" d="M138.4,88.7l-0.5-0.2l-0.1,0.3L138.4,88.7z"/>
			</g>
		</g>
	</g>
	<g transform="matrix( 1, 0, 0, 1, 0,0) ">
		<g>
			<g id="Symbol_261_0_Layer102_0_FILL">
				<path class="st2" d="M136.7,87.1l-0.9-1.6c-2.2-1.2-4.2-1.4-5.8-0.4l0.3,0c0.7-0.2,1.5-0.2,2.6,0l2.9,0.7
					c0.1,0.5,0.3,1.1,0.8,1.8c0.4,0.7,0.9,1.2,1.3,1.3l0.1-0.3C137.5,88.3,137.1,87.9,136.7,87.1z"/>
			</g>
		</g>
	</g>
	<g transform="matrix( 1, 0, 0, 1, 0,0) ">
		<g>
			<g id="Symbol_261_0_Layer101_0_FILL">
				<path class="st1" d="M137.5,35.7c-1.9-1.1-4.7-3.4-8.5-6.9c-3.4-3.2-5.5-5.3-6.3-6.5l-7.6-1.7c-3.2-0.6-5.6-1.4-7.2-2.2
					c0.1-0.3,0.3-0.6,0.6-0.9l0.9-0.7l-7.6-0.8h-7.7c-1,0.9-2.5,1.4-4.3,1.7l-4.8,0.5c-1.9,0.4-4,1.7-6.1,3.9
					c-2.4,2.5-4.2,4-5.4,4.5l-5.5,2.1l-5.9,1.5c-0.3,2.3-0.4,4.4-0.1,6.4c2.2-0.9,7-3.7,14.4-8.4c5.9-3.6,10.9-5.9,15.2-6.7l0.3-0.5
					l0.3-1.6l0.5-0.4l1.3-0.3l1.3,0.1l0.2,0.3l0.5,1l0.2,1.1l0.2,0.6l0.3,0.5l11.2,0.9c4.9,0.2,8.5,0.8,11,1.8
					c1.5,0.6,2.9,1.7,4,3.4l3.8,6.3c1.8,2.6,3.5,3.8,5.1,3.5l1.2-2l2.3-0.2L137.5,35.7z"/>
			</g>
		</g>
	</g>
	<g transform="matrix( 1, 0, 0, 1, 0,0) ">
		<g>
			<g id="Symbol_261_0_Layer100_0_FILL">
				<path class="st2" d="M129.1,99.2c-0.2,0.4-0.6,0.6-1.3,0.7c-0.6,0.1-1.1-0.1-1.4-0.4c0.8-0.6,0.9-0.9,0.5-0.9
					c-0.4,0-0.6,0.4-0.8,1.1c0.6,0.4,1.2,0.5,1.9,0.4c0.7-0.1,1.2-0.5,1.4-1.1l-1.4-0.8C127.9,98.2,128.2,98.6,129.1,99.2z"/>
			</g>
		</g>
	</g>
	<g transform="matrix( 1, 0, 0, 1, 0,0) ">
		<g>
			<g id="Symbol_261_0_Layer99_0_FILL">
				<path class="st2" d="M130,85.1c-0.6,0.2-1.6,0.9-2.8,1.9c-1.3,1.1-2.3,1.9-2.9,2.2c0.9-0.3,1.9-0.9,3-1.9L130,85.1z"/>
			</g>
		</g>
	</g>
	<g transform="matrix( 1, 0, 0, 1, 0,0) ">
		<g>
			<g id="Symbol_261_0_Layer98_0_FILL">
				<path class="st2" d="M121.2,89.2l-1.8-0.3V89l4.9,0.2l-0.8,0.2L121.2,89.2z"/>
			</g>
		</g>
	</g>
	<g transform="matrix( 1, 0, 0, 1, 0,0) ">
		<g>
			<g id="Symbol_261_0_Layer97_0_FILL">
				<path class="st5" d="M106.1,71.8c-1,0.9-1.3,2.3-1,4.1c-0.9,0.8-1.5,1.5-1.7,2.2v-0.2c-0.2,0.3-0.2,0.7,0.1,1.3l0.3,1.2
					c-2.7,1.5-3.2,3.2-1.3,5.2c1.8,2,3.8,2.2,5.9,0.7c2.2,1.6,4.5,2,6.9,1.2c1.4-0.5,3.2-1.5,5.6-3.1c0.7-1.3,1.3-3,1.8-5.1
					c0.6-2.4,0.7-4,0.4-5l-0.4-1.3v-0.9c0.2-1.3,0-2.6-0.8-3.8c-0.7-1.1-1.6-1.8-2.8-2.3c-2.9-1.1-4.7,0.3-5.6,4l-3.8-0.1l-0.3,0.5
					h0.3C107.8,70.8,106.6,71.3,106.1,71.8z"/>
			</g>
		</g>
	</g>
	<g transform="matrix( 1, 0, 0, 1, 0,0) ">
		<g>
			<g id="Symbol_261_0_Layer96_0_FILL">
				<path class="st1" d="M100.1,86.3c-0.2,1.7-0.3,2.8-0.1,3.3c2.2,2.3,5.4,3,9.4,2l5.1-1.6l4.9-1V89c0.5-0.5,0.9-1.3,1-2.3l0.3-2.5
					c-2.4,1.6-4.2,2.6-5.6,3.1c-2.4,0.8-4.7,0.4-6.9-1.2c-2.2,1.5-4.2,1.3-5.9-0.7c-1.8-2-1.3-3.7,1.3-5.2l-0.3-1.2
					c-0.2-0.5-0.3-0.9-0.1-1.3h-0.3l-0.2-0.3v-0.3l-1.9,2.8c-0.8,1.1-1.3,2.1-1.5,2.9C100.1,83.8,100.3,84.9,100.1,86.3z"/>
			</g>
		</g>
	</g>
	<g transform="matrix( 1, 0, 0, 1, 0,0) ">
		<g>
			<g id="Symbol_261_0_Layer95_0_FILL">
				<path class="st1" d="M119.5,89l-4.9,1l-5.1,1.6c-4.1,1-7.2,0.3-9.4-2c1.1,3.5,3.9,4.7,8.4,3.7c2.5-0.5,6-1.6,10.6-3.2
					C119.4,90,119.5,89.6,119.5,89z"/>
			</g>
		</g>
	</g>
	<g transform="matrix( 1, 0, 0, 1, 0,0) ">
		<g>
			<g id="Symbol_261_0_Layer94_0_FILL">
				<path class="st1" d="M115.2,26.4l-2.8-0.4l-13-0.6l-4.8,0.1c-1.8,0.1-3.4,0.5-4.6,1.1l-3,1.9c-1.3,0.9-2.4,1.6-3.2,2l-7.3,4.2
					c-2.9,1.7-5.6,2.8-8,3.5l-2.8,1c-0.9,0.4-1.7,1-2.3,1.8l0.3,0.9l2.2,0c0.8,0.1,1.4,0.4,1.9,0.9l0.6-0.3l12.4-7.8
					c4.9-3.1,9.1-5.3,12.7-6.5c2.3-0.8,6.2-1.1,11.6-1c4.7,0.1,8.7,0.5,12,1C116.9,27.4,116.2,26.7,115.2,26.4z"/>
			</g>
		</g>
	</g>
	<g transform="matrix( 1, 0, 0, 1, 0,0) ">
		<g>
			<g id="Symbol_261_0_Layer93_0_FILL">
				<path class="st2" d="M107.9,44.6l1.1-0.3c-0.6,0-1.3,0.1-1.8,0.4l-1.6,0.8l0.3,2.1c0.1,0.8,0.4,1.3,0.8,1.7
					c2,0.9,3.9,0.4,5.5-1.7c0.7-0.8,0.9-1.5,0.7-2.1c-0.2-0.7-0.9-1.1-2.1-1.2c1.6,0.4,2.3,1.1,2,2.1c-0.2,0.8-1,1.6-2.3,2.2
					c-1.3,0.6-2.4,0.8-3.3,0.4c-1.1-0.4-1.5-1.5-1.3-3.3C106,45.4,106.7,45.1,107.9,44.6z"/>
			</g>
		</g>
	</g>
	<g transform="matrix( 1, 0, 0, 1, 0,0) ">
		<g>
			<g id="Symbol_261_0_Layer92_0_FILL">
				<path class="st2" d="M109.4,70.2v-0.3c-2.1-0.2-3.6,0.6-4.5,2.5c-0.7,2.4-1.5,4-2.2,4.9h0.3v0.3l0.2,0.3h0.3v0.2
					c0.2-0.7,0.8-1.4,1.7-2.2c-0.3-1.8,0-3.2,1-4.1c0.6-0.5,1.7-1.1,3.5-1.7H109.4z"/>
			</g>
		</g>
	</g>
	<g transform="matrix( 1, 0, 0, 1, 0,0) ">
		<g>
			<g id="Symbol_261_0_Layer91_0_FILL">
				<path class="st2" d="M99.5,87.8l-1,0.2l-0.1,0.2L99.5,87.8z"/>
			</g>
		</g>
	</g>
	<g transform="matrix( 1, 0, 0, 1, 0,0) ">
		<g>
			<g id="Symbol_261_0_Layer90_0_FILL">
				<path class="st2" d="M98.5,87.9l-10.2-0.8l5.8,0.9c1.9,0.2,3.4,0.2,4.4,0L98.5,87.9z"/>
			</g>
		</g>
	</g>
	<g transform="matrix( 1, 0, 0, 1, 0,0) ">
		<g>
			<g id="Symbol_261_0_Layer89_0_FILL">
				<path class="st3" d="M98.6,100.3c-0.4-1.4-1.5-1.9-3.2-1.7c-1.7,0.3-2.4,1.1-2.3,2.5l0.1,0.6c0.9,0.6,1.9,0.7,3.1,0.5
					C97.4,102,98.2,101.3,98.6,100.3z"/>
			</g>
		</g>
	</g>
	<g transform="matrix( 1, 0, 0, 1, 0,0) ">
		<g>
			<g id="Symbol_261_0_Layer88_0_FILL">
				<path class="st1" d="M87.7,78.9l6-5.9l0.1-2.7l-0.5-0.6c-0.4-0.1-0.9-0.3-1.3-0.7l-4.8,4.2c-2.2,1.6-4.1,2.6-5.8,2.9
					c-0.9,0.2-2.3,0.2-4.3,0l-5.4-0.6l-7-0.6c-2.2-0.1-4.4,0.3-6.5,1.1c-5.7,2-12.8,5-21.3,9.1l-5.6,2.3c-1.9,0.9-3.3,1.9-4.1,3.1
					c-1.1,1.6-3.9,4.1-8.3,7.5c-4,3.1-7.4,5.4-10.1,7l-0.5,4.8v0.3L8,110.4l4.7-2.3c2-1,3.6-2,4.8-3.2c4.9-4.6,11.1-9,18.9-13.2
					c6.5-3.6,13.4-6.8,20.8-9.6c2.5-0.9,5.3-1.4,8.6-1.4c3,0,5.7,0.3,8,1c0.9,0.3,2,0.8,3.3,1.5l2.9,0.3l-0.3-0.6l0.8,0.5
					C82.5,83.2,85,81.7,87.7,78.9 M85.7,77c2.7-1.7,5.1-4,7.1-6.8c-0.3,1-1.1,2.1-2.4,3.3l-3.6,3c-1.3,1.1-3,2.1-5,2.8
					c-2.1,0.8-4.2,1.1-6.1,1.1l-5.7-1.7c-2.4-0.6-4.4-0.8-6.1-0.5c-0.6,0.1-1.6,0.4-3,1l-3.5,1.4l-5,1.6l-4.6,1.3
					c1-0.5,2.3-1,3.9-1.4l4.3-1.2l4.1-1.6c1.6-0.7,2.9-1.1,3.8-1.3l5.9,0.5c2.1,0.5,4,1.2,5.8,1.9C79.3,80,82.6,78.9,85.7,77
					 M16.3,99.9c0-0.1,0.2-0.2,0.4-0.2l0.6,0v0.3h0.3c0,0.2-0.2,0.3-0.6,0.3L16.3,99.9z"/>
			</g>
		</g>
	</g>
	<g transform="matrix( 1, 0, 0, 1, 0,0) ">
		<g>
			<g id="Symbol_261_0_Layer87_0_FILL">
				<path class="st1" d="M85.1,18.3l4.8-0.5c1.8-0.3,3.2-0.8,4.3-1.7l-0.6-0.3l-0.7-0.1c-3.1-1.1-7.2-0.4-12.3,2
					c-5.8,3.2-10.2,5.4-13.1,6.5c-1.8,0.7-3.1,1.4-3.8,2c-1.1,0.9-1.4,2.1-1.1,3.4l-0.2,0.6l5.9-1.5l5.5-2.1c1.2-0.5,3-2,5.4-4.5
					C81.1,20,83.1,18.7,85.1,18.3z"/>
			</g>
		</g>
	</g>
	<g transform="matrix( 1, 0, 0, 1, 0,0) ">
		<g>
			<g id="Symbol_261_0_Layer86_0_FILL">
				<path class="st1" d="M91.5,57.3l-0.2,0.4c0,0.4,0,0.7,0.1,0.8c0.1,0.2,0.3,0.3,0.7,0.2l-1.7,1.3c-1,0.7-1.6,1.2-1.6,1.5
					C86,65,81.6,67,75.6,67.3l-15.1,0.5c-0.8-0.2-1.8-0.2-2.8,0c-0.5,0.1-1.4,0.4-2.7,0.8c-11.5,7.2-22.7,12.9-33.6,17
					c-2.2,0.6-3.7,1.2-4.6,1.7c-1.3,0.8-2.6,2.2-4,4.2l-3.4,4.7l-0.7,6.9c1.8-0.9,4.4-3.2,7.9-6.8c3.4-3.5,6.2-5.8,8.3-6.8l15.4-7
					l8.4-4.3c3.4-1.8,6.1-3,8.3-3.8c2.8-0.9,6-1.2,9.6-0.8l8.8,1.1c3.3,0.3,6.3-0.4,9-1.9l7.3-4.4c0.9-1.6,1.4-3.6,1.4-5.8
					C93,60.7,92.5,58.8,91.5,57.3z"/>
			</g>
		</g>
	</g>
	<g transform="matrix( 1, 0, 0, 1, 0,0) ">
		<g>
			<g id="Symbol_261_0_Layer85_0_FILL">
				<path class="st2" d="M86.6,49.5l-0.4-0.1l0.1-0.4l-1.4-0.5l-1.7-0.2c-0.8-1.4-1.6-2.3-2.4-2.6c-1.3-0.5-2.7-0.4-4.4,0.3
					c-1.8,0.8-2.9,1.2-3.3,1.1c-0.6-0.1-1.3-0.6-2-1.5c-0.6-0.8-1.4-1.1-2.3-0.9l-0.1,0.1l-0.1-0.1l-0.2,0.3l-0.1,0.4
					c1.1-0.2,2,0.1,2.8,0.9c0.9,0.9,1.6,1.4,2.2,1.5c-0.2,0.1-0.4,0.4-0.8,0.9c1.4-1.6,3.2-2.5,5.5-2.7c2.5-0.2,4.1,0.7,4.9,2.7
					c1.2,0,2.2,0.3,3.1,0.9l1.9,2c0.1,0.9,0.6,1.9,1.5,3c0.9,1.2,1.5,2.3,1.6,3.3c0.1,0.3-0.3,0.9-1.3,1.8c-0.9,0.9-1.2,1.4-1,1.7
					c0-0.3,0.5-0.8,1.6-1.5l1.7-1.3c-0.4,0.1-0.6,0-0.7-0.2c-0.1-0.1-0.1-0.4-0.1-0.8l0.2-0.4l0.1-0.3c-0.1-0.6-0.6-1.5-1.4-2.5
					c-0.7-0.9-1.2-1.8-1.3-2.6L86.6,49.5z"/>
			</g>
		</g>
	</g>
	<g transform="matrix( 1, 0, 0, 1, 0,0) ">
		<g>
			<g id="Symbol_261_0_Layer84_0_FILL">
				<path class="st2" d="M91.6,41.6c-0.6-0.3-1.1-0.2-1.7,0.3l0.9,0c0.4,0,0.5,0.1,0.5,0.3c0.1,0.5-0.1,0.7-0.7,0.7l-1,0
					c0.3,0.4,0.7,0.5,1.3,0.3C91.5,42.8,91.7,42.3,91.6,41.6z"/>
			</g>
		</g>
	</g>
	<g transform="matrix( 1, 0, 0, 1, 0,0) ">
		<g>
			<g id="Symbol_261_0_Layer83_0_FILL">
				<path class="st2" d="M92.8,70.2c-2,2.8-4.4,5.1-7.1,6.8c-3.1,1.9-6.4,3-9.9,3.3c1.9,0.1,3.9-0.3,6.1-1.1c2-0.7,3.7-1.7,5-2.8
					l3.6-3C91.7,72.3,92.5,71.2,92.8,70.2z"/>
			</g>
		</g>
	</g>
	<g transform="matrix( 1, 0, 0, 1, 0,0) ">
		<g>
			<g id="Symbol_261_0_Layer82_0_FILL">
				<path class="st2" d="M83.9,86.7l4.4,0.5c-2.6-0.6-4.8-1.3-6.5-2.1L83.9,86.7z"/>
			</g>
		</g>
	</g>
	<g transform="matrix( 1, 0, 0, 1, 0,0) ">
		<g>
			<g id="Symbol_261_0_Layer81_0_FILL">
				<path class="st2" d="M80.4,83.6l-0.4,0.1l1.9,1.4L80.4,83.6z"/>
			</g>
		</g>
	</g>
	<g transform="matrix( 1, 0, 0, 1, 0,0) ">
		<g>
			<g id="Symbol_261_0_Layer80_0_FILL">
				<path class="st2" d="M80.4,83.6l-0.8-0.5l0.3,0.6L80.4,83.6z"/>
			</g>
		</g>
	</g>
	<g transform="matrix( 1, 0, 0, 1, 0,0) ">
		<g>
			<g id="Symbol_261_0_Layer79_0_FILL">
				<path class="st2" d="M68.7,96.2c1.5,0.3,2.6,0.8,3.3,1.3c1,0.7,1.4,1.8,1.2,3.3c-0.1,1-0.8,2-2,3c-1.3,1.1-2.1,2-2.3,2.5
					l3.3-3.1c1.2-1.3,1.6-2.7,1.3-4.2c-0.2-1-0.8-1.8-1.8-2.2L68.7,96.2z"/>
			</g>
		</g>
	</g>
	<g transform="matrix( 1, 0, 0, 1, 0,0) ">
		<g>
			<g id="Symbol_261_0_Layer78_0_FILL">
				<path class="st2" d="M72.2,49.3c-0.9-0.4-1.8-0.5-2.8-0.5c-1.1,0.1-1.9,0.5-2.3,1.2c0.7-0.5,1.5-0.8,2.3-0.8
					c0.9-0.1,1.8,0.1,2.5,0.6L72.2,49.3L72.2,49.3z"/>
			</g>
		</g>
	</g>
	<g transform="matrix( 1, 0, 0, 1, 0,0) ">
		<g>
			<g id="Symbol_261_0_Layer77_0_FILL">
				<path class="st2" d="M57.5,80.5l3.5-1.4c1.4-0.6,2.4-0.9,3-1c1.6-0.2,3.7,0,6.1,0.5l5.7,1.7C74,79.5,72,78.8,70,78.3L64,77.9
					c-0.9,0.2-2.2,0.6-3.8,1.3l-4.1,1.6l-4.3,1.2c-1.6,0.4-2.9,0.9-3.9,1.4l4.6-1.3L57.5,80.5z"/>
			</g>
		</g>
	</g>
	<g transform="matrix( 1, 0, 0, 1, 0,0) ">
		<g>
			<g id="Symbol_261_0_Layer76_0_FILL">
				<path class="st2" d="M64.5,95.1c-0.8-0.4-1.5-0.9-2-1.7l-1.4-1.9c-2.8-0.4-3.9-1.9-3.3-4.6c0.5-2.3,1.5-3.9,3.1-4.9
					c-2.1,1.1-3.2,2.8-3.4,5.3c-0.3,2.5,1,4,3.7,4.4c0.2,1.6,1.5,2.8,3.7,3.5L64.5,95.1z"/>
			</g>
		</g>
	</g>
	<g transform="matrix( 1, 0, 0, 1, 0,0) ">
		<g>
			<g id="Symbol_261_0_Layer75_0_FILL">
				<path class="st1" d="M64.2,54.6l-0.6-0.3c-1.1,2.2-3,3.9-5.5,5.1c-2.6,1.2-5,1.5-7.3,0.8l0-0.1c-0.5,0-1-0.2-1.7-0.6l-1.6-0.8
					c-0.4,0.2-0.7,0.6-0.7,1.2l0.2,1.5l0.7,0.5c2.9,1.6,6.9,1.6,12.1,0.1C65,60.3,66.5,57.9,64.2,54.6z"/>
			</g>
		</g>
	</g>
	<g transform="matrix( 1, 0, 0, 1, 0,0) ">
		<g>
			<g id="Symbol_261_0_Layer74_0_FILL">
				<path class="st1" d="M54.4,95.6l-0.2-0.2L54,95.5c-0.5,0.6-0.6,1.5-0.5,2.7c0.2,1.3,0.1,2.3-0.1,2.8c1.5,0.7,2.1,2,2,3.9
					c-0.1,2.5,0,4.1,0.2,4.6c0.4,1.2,0.1,2.8-1,4.8c-1.1,2-1.4,3.5-0.9,4.7c-0.6,0.9-1.8,1.7-3.5,2.4c-1.9,0.8-3.2,1.5-3.8,2.3
					c-1.1,1.1-2.9,1.7-5.4,1.6l-6.2-0.3c-0.3-0.6-1.1-1.1-2.5-1.6c-1.4-0.5-2.2-1-2.5-1.6v1.4c0,0.6,0.1,1,0.3,1.2l-0.4,0.1l0.4,0.2
					l0.1,0.4c0.2,0.6,0.6,1.4,1.3,2.4h-0.3c6.7,1.7,11.3,2.2,13.7,1.4c5-1.6,9-4.3,11.9-8.1c3.2-4.3,4.3-9,3.1-14.2
					c-0.2-1.1-1.3-2.8-3.3-5.2C55.1,99.5,54.3,97.5,54.4,95.6z"/>
			</g>
		</g>
	</g>
	<g transform="matrix( 1, 0, 0, 1, 0,0) ">
		<g>
			<g id="Symbol_261_0_Layer73_0_FILL">
				<path class="st5" d="M49.6,55.5l0.6,2.3l0.5,2.3l0,0.1c2.2,0.7,4.6,0.5,7.3-0.8c2.6-1.2,4.4-2.9,5.5-5.1c-2-1.1-4.3-1.5-7.1-1.2
					C53.8,53.4,51.5,54.2,49.6,55.5z"/>
			</g>
		</g>
	</g>
	<g transform="matrix( 1, 0, 0, 1, 0,0) ">
		<g>
			<g id="Symbol_261_0_Layer72_0_FILL">
				<path class="st5" d="M53.6,98.1c-0.2-1.2,0-2.1,0.5-2.7l0.2-0.1c0.1-1.4-0.4-2.5-1.4-3.4c-0.8-0.8-1.8-1.1-3-1.1
					c-1.6,0.1-2.9,1-3.9,2.8c-0.6,1-1.3,2.5-2.2,4.5c-1.4,0-2.6,0.3-3.6,0.8c-1.3,0.6-2.2,1.5-2.5,2.7c-1.7-0.1-3.2,0.5-4.4,1.9
					c-1.2,1.4-1.5,2.9-1,4.5c-1.4,1.3-2.3,3.2-2.5,5.6c-0.1,1.6,0.1,3.6,0.5,6l-0.7,2.1h0.2c0.3,0.6,1.1,1.1,2.5,1.6
					c1.4,0.5,2.2,1,2.5,1.6l6.2,0.3c2.5,0.1,4.3-0.5,5.4-1.6c0.6-0.7,1.9-1.5,3.8-2.3c1.8-0.8,2.9-1.6,3.5-2.4
					c-0.5-1.1-0.2-2.7,0.9-4.7c1.1-2,1.4-3.6,1-4.8c-0.2-0.5-0.3-2.1-0.2-4.6c0.1-1.9-0.6-3.3-2-3.9C53.7,100.4,53.7,99.5,53.6,98.1
					z"/>
			</g>
		</g>
	</g>
	<g transform="matrix( 1, 0, 0, 1, 0,0) ">
		<g>
			<g id="Symbol_261_0_Layer71_0_FILL">
				<path class="st2" d="M49.4,86c-0.5,0.9-1,2.1-1.4,3.6c-0.6,0.3-2,0.5-4.1,0.7c-1.9,0.1-3.1,0.4-3.8,0.9c0.7-0.3,2.2-0.5,4.3-0.8
					c2-0.2,3.3-0.5,4.1-0.9c-0.1-0.6,0.1-1.3,0.5-2.1L49.4,86z"/>
			</g>
		</g>
	</g>
	<g transform="matrix( 1, 0, 0, 1, 0,0) ">
		<g>
			<g id="Symbol_261_0_Layer70_0_FILL">
				<path class="st2" d="M42.4,142.2v-0.3c-1.3-0.6-2.8-0.9-4.5-0.9c-1.8,0-3.3,0.3-4.5,0.9l-2.1-1.1l-2.7-0.1
					c-0.5-2.3-1.9-3.9-4.2-4.9c-2.4-1.1-4.8-1.1-7.3-0.1l-1.8-2.5c-0.8-0.8-1.8-1.3-3.1-1.3c-0.9-2.4-2.4-3.6-4.5-3.6
					c-0.4-1.7-0.8-3-1.3-3.9c-0.7-1.2-1.6-2-2.8-2.3c0.2-1.1,1.1-2.9,2.8-5.4c1.3-2.1,1.9-4.2,1.8-6.3L8,110.4l0.1-0.3v-0.3
					l-0.2-0.9l-0.3-0.9H7.4c0.4,2.4,0,4.9-1.3,7.7c-1.9,3.9-2.9,6.2-3.1,6.9L2,122.8c-0.4,0.2-0.5,0.3-0.4,0.4
					c0.2-0.1,0.6-0.3,1.1-0.4l1-0.5l1.9,2.4c0.8,1.2,1.3,2.4,1.3,3.6c1,0.1,1.9,0.7,2.8,1.8l2.4,2.5l3,1.5c1,0.6,1.6,1.4,1.8,2.3
					c2.4-0.9,4.7-0.9,7,0.1c2.3,1,3.7,2.5,4,4.7l3.1,0.4c1.2,0.2,1.7,0.7,1.5,1.5c0.9-0.9,2.5-1.2,5-1.1l5.1,0.1H42.4z"/>
			</g>
		</g>
	</g>
	<g transform="matrix( 1, 0, 0, 1, 0,0) ">
		<g>
			<g id="Symbol_261_0_Layer69_0_FILL">
				<path class="st2" d="M24.4,99.9c0.7-0.4,1.9-0.6,3.6-0.6l4.8,0.2c3.8,0,5.7-1.2,5.5-3.7c0-0.5-0.2-0.9-0.6-1.3l-1-1.3
					c0.8-0.9,1-1.3,0.8-1.3c-0.3,0.1-0.6,0.6-1,1.5l1.1,1.2c0.4,0.4,0.6,0.9,0.6,1.4c0.1,2.3-1.8,3.4-5.8,3.3
					C27.7,99.2,25,99.4,24.4,99.9z"/>
			</g>
		</g>
	</g>
	<g transform="matrix( 1, 0, 0, 1, 0,0) ">
		<g>
			<g id="Symbol_261_0_Layer68_0_FILL">
				<path class="st2" d="M30.3,125.1l-0.5-0.6l0.4-0.1c-0.2-0.2-0.3-0.6-0.3-1.2v-1.4h-0.2v-0.3c-0.6,0.8-0.8,1.7-0.4,2.8l0.9,2.9
					l0.6,0.3c0.2,0.2,0.4,0.2,0.6,0.2v-0.3h0.3C30.9,126.5,30.5,125.7,30.3,125.1z"/>
			</g>
		</g>
	</g>
	<g transform="matrix( 1, 0, 0, 1, 0,0) ">
		<g>
			<g id="Symbol_261_0_Layer67_0_FILL">
				<path class="st2" d="M30.2,124.7l-0.4-0.2l0.5,0.6L30.2,124.7z"/>
			</g>
		</g>
	</g>
	<g transform="matrix( 1, 0, 0, 1, 0,0) ">
		<g>
			<g id="Symbol_261_0_Layer66_0_FILL">
				<path class="st3" d="M26.3,110.3l-0.7-0.4c-0.6-0.2-1.1-0.1-1.7,0.3c-0.6,0.4-0.8,0.9-0.6,1.4l2,0C26,111.4,26.3,111,26.3,110.3
					z"/>
			</g>
		</g>
	</g>
	<g transform="matrix( 1, 0, 0, 1, 0,0) ">
		<g>
			<g id="Symbol_261_0_Layer65_0_FILL">
				<path class="st2" d="M17.2,99.9v-0.3l-0.6,0c-0.2,0-0.3,0.1-0.4,0.2l0.6,0.3c0.3,0.1,0.5,0,0.6-0.3H17.2z"/>
			</g>
		</g>
	</g>
	<g transform="matrix( 1, 0, 0, 1, 0,0) ">
		<g>
			<path id="Symbol_261_0_Layer64_0_1_STROKES" class="st6" d="M23.3,111.6c-0.2-0.5,0-1,0.6-1.4c0.6-0.4,1.1-0.5,1.7-0.3l0.7,0.4
				c0,0.7-0.3,1.1-1,1.3L23.3,111.6z"/>
		</g>
	</g>
	<g transform="matrix( 1, 0, 0, 1, 0,0) ">
		<g>
			<path id="Symbol_261_0_Layer63_0_1_STROKES" class="st6" d="M98.6,100.3c-0.4,1-1.1,1.7-2.3,1.9c-1.1,0.2-2.2,0.1-3.1-0.5
				l-0.1-0.6c-0.1-1.4,0.6-2.2,2.3-2.5C97.1,98.4,98.1,98.9,98.6,100.3z"/>
		</g>
	</g>
	<g transform="matrix( 1, 0, 0, 1, 0,0) ">
		<g>
			<path id="Symbol_261_0_Layer62_0_1_STROKES" class="st7" d="M29.8,124.5l0.5,0.6c0.5,0.4,1.5,0.6,3,0.7c1.3,0.1,2.2,0.5,2.5,1.3
				c0.7-0.2,2.4-0.2,5-0.1l5.9-0.4c1.9-0.5,4-1.6,6.2-3.4c2.3-1.9,3.3-3.4,3.2-4.6l-0.1-2.2c0.1-1,0.6-1.8,1.4-2.5"/>
		</g>
	</g>
	<g transform="matrix( 1, 0, 0, 1, 0,0) ">
		<g>
			<path id="Symbol_261_0_Layer61_0_1_STROKES" class="st8" d="M54.2,95.4l0.2,0.2c-0.1,1.9,0.7,3.9,2.5,5.9c2,2.4,3.1,4.1,3.3,5.2
				c1.1,5.1,0.1,9.8-3.1,14.2c-2.9,3.8-6.9,6.5-11.9,8.1c-2.4,0.8-7,0.3-13.7-1.4"/>
		</g>
	</g>
	<g transform="matrix( 1, 0, 0, 1, 0,0) ">
		<g>
			<path id="Symbol_261_0_Layer60_0_1_STROKES" class="st9" d="M54,95.5c-0.5,0.6-0.6,1.5-0.5,2.7c0.2,1.3,0.1,2.3-0.1,2.8
				c1.5,0.7,2.1,2,2,3.9c-0.1,2.5,0,4.1,0.2,4.6c0.4,1.2,0.1,2.8-1,4.8c-1.1,2-1.4,3.5-0.9,4.7c-0.6,0.9-1.8,1.7-3.5,2.4
				c-1.9,0.8-3.2,1.5-3.8,2.3c-1.1,1.1-2.9,1.7-5.4,1.6l-6.2-0.3c-0.3-0.6-1.1-1.1-2.5-1.6c-1.4-0.5-2.2-1-2.5-1.6"/>
		</g>
	</g>
	<g transform="matrix( 1, 0, 0, 1, 0,0) ">
		<g>
			<path id="Symbol_261_0_Layer59_0_1_STROKES" class="st8" d="M30.4,119.7l-0.7,2.1"/>
		</g>
	</g>
	<g transform="matrix( 1, 0, 0, 1, 0,0) ">
		<g>
			<path id="Symbol_261_0_Layer58_0_1_STROKES" class="st9" d="M30.4,119.7l-1.1-0.6c-0.7,0-1.7,0.5-3.1,1.8l-4,3.3
				c-3.6,2.5-6.5,2-8.8-1.5c3-1.7,5.1-3.2,6.4-4.4c2.4-2.3,1.6-3.9-2.6-4.8l-1.8-0.8l-3.3-0.4c-1.4-0.3-2.1-0.9-2-1.8"/>
		</g>
	</g>
	<g transform="matrix( 1, 0, 0, 1, 0,0) ">
		<g>
			<path id="Symbol_261_0_Layer57_0_1_STROKES" class="st10" d="M30.4,119.7c-0.5-2.5-0.6-4.5-0.5-6c0.2-2.4,1-4.3,2.5-5.6
				c-0.6-1.7-0.3-3.2,1-4.5c1.2-1.4,2.7-2,4.4-1.9c0.3-1.2,1.2-2.1,2.5-2.7c1-0.5,2.2-0.7,3.6-0.8c0.9-2,1.6-3.5,2.2-4.5
				c1-1.8,2.3-2.7,3.9-2.8c1.1,0,2.1,0.3,3,1.1c1,0.9,1.4,2,1.4,3.4"/>
		</g>
	</g>
	<g transform="matrix( 1, 0, 0, 1, 0,0) ">
		<g>
			<path id="Symbol_261_0_Layer56_0_1_STROKES" class="st9" d="M8.1,109.7l1.4-13.4l3.4-4.7c1.4-2,2.7-3.4,4-4.2
				c0.9-0.5,2.4-1.1,4.6-1.7c10.9-4.2,22.1-9.8,33.6-17c1.3-0.5,2.2-0.8,2.7-0.8c1-0.2,1.9-0.2,2.8,0l15.1-0.5
				c6-0.4,10.4-2.3,13.3-5.9"/>
		</g>
	</g>
	<g transform="matrix( 1, 0, 0, 1, 0,0) ">
		<g>
			<path id="Symbol_261_0_Layer55_0_1_STROKES" class="st7" d="M131.6,60.2c-0.2-0.3-0.1-0.6,0.3-0.9c0.4-0.3,0.8-0.4,1.1-0.3
				c0.4,0.3,0.5,0.7,0.4,1c-0.2,0.2-0.5,0.4-0.9,0.4L131.6,60.2z"/>
		</g>
	</g>
	<g transform="matrix( 1, 0, 0, 1, 0,0) ">
		<g>
			<path id="Symbol_261_0_Layer54_0_1_STROKES" class="st8" d="M99.5,83.1c0.2-0.8,0.7-1.8,1.5-2.9l1.9-2.8"/>
		</g>
	</g>
	<g transform="matrix( 1, 0, 0, 1, 0,0) ">
		<g>
			<path id="Symbol_261_0_Layer53_0_1_STROKES" class="st9" d="M100,89.6c-0.2-0.5-0.1-1.6,0.1-3.3c0.2-1.4,0-2.5-0.6-3.2"/>
		</g>
	</g>
	<g transform="matrix( 1, 0, 0, 1, 0,0) ">
		<g>
			<path id="Symbol_261_0_Layer52_0_1_STROKES" class="st7" d="M119,90.1c-4.6,1.6-8.1,2.7-10.6,3.2c-4.5,1-7.3-0.2-8.4-3.7"/>
		</g>
	</g>
	<g transform="matrix( 1, 0, 0, 1, 0,0) ">
		<g>
			<path id="Symbol_261_0_Layer51_0_1_STROKES" class="st8" d="M119,90.2c-1.2,1.7-3.5,2.9-6.8,3.6l-8.3,1c-1.9,0.3-3.2-0.1-3.9-1
				c-0.4-0.5-0.8-1.8-1.4-3.9l-0.1-1.8l0.1-0.2c0.1-1.7,0.4-3.3,1-4.8"/>
		</g>
	</g>
	<g transform="matrix( 1, 0, 0, 1, 0,0) ">
		<g>
			<path id="Symbol_261_0_Layer50_0_1_STROKES" class="st9" d="M119.5,89l-4.9,1l-5.1,1.6c-4.1,1-7.2,0.3-9.4-2"/>
		</g>
	</g>
	<g transform="matrix( 1, 0, 0, 1, 0,0) ">
		<g>
			<path id="Symbol_261_0_Layer49_0_1_STROKES" class="st10" d="M119.5,89c0.1,0.6-0.1,0.9-0.4,1.1"/>
		</g>
	</g>
	<g transform="matrix( 1, 0, 0, 1, 0,0) ">
		<g>
			<path id="Symbol_261_0_Layer48_0_1_STROKES" class="st9" d="M120.8,84.2c-2.4,1.6-4.2,2.6-5.6,3.1c-2.4,0.8-4.7,0.4-6.9-1.2
				c-2.2,1.5-4.2,1.3-5.9-0.7c-1.8-2-1.3-3.7,1.3-5.2l-0.3-1.2c-0.2-0.5-0.3-0.9-0.1-1.3"/>
		</g>
	</g>
	<g transform="matrix( 1, 0, 0, 1, 0,0) ">
		<g>
			<path id="Symbol_261_0_Layer47_0_1_STROKES" class="st11" d="M120.8,84.2l-0.3,2.5c-0.1,1-0.5,1.7-1,2.3"/>
		</g>
	</g>
	<g transform="matrix( 1, 0, 0, 1, 0,0) ">
		<g>
			<path id="Symbol_261_0_Layer46_0_1_STROKES" class="st11" d="M109.7,69.7l3.8,0.1c0.9-3.7,2.7-5,5.6-4c1.1,0.4,2,1.2,2.8,2.3
				c0.7,1.2,1,2.5,0.8,3.8v0.9l0.4,1.3c0.3,1,0.2,2.7-0.4,5c-0.5,2.1-1.1,3.8-1.8,5.1"/>
		</g>
	</g>
	<g transform="matrix( 1, 0, 0, 1, 0,0) ">
		<g>
			<path id="Symbol_261_0_Layer45_0_1_STROKES" class="st8" d="M109.7,69.7l-0.3,0.5"/>
		</g>
	</g>
	<g transform="matrix( 1, 0, 0, 1, 0,0) ">
		<g>
			<path id="Symbol_261_0_Layer44_0_1_STROKES" class="st9" d="M92.2,55.9l9.6-0.5c3.8-0.3,6.8,0.3,9,1.8l0.3,0.4v1.1
				c-0.8,1.3-2.4,2.5-4.8,3.6c-2.6,1.2-4.2,2.2-4.9,3.2c0.3,1.7,1.4,2.8,3.4,3.3l4.9,0.9"/>
		</g>
	</g>
	<g transform="matrix( 1, 0, 0, 1, 0,0) ">
		<g>
			<path id="Symbol_261_0_Layer43_0_1_STROKES" class="st9" d="M50.8,60.1c2.2,0.7,4.6,0.5,7.3-0.8c2.6-1.2,4.4-2.9,5.5-5.1"/>
		</g>
	</g>
	<g transform="matrix( 1, 0, 0, 1, 0,0) ">
		<g>
			<path id="Symbol_261_0_Layer42_0_1_STROKES" class="st10" d="M49.6,55.5c1.9-1.3,4.2-2.1,6.9-2.4c2.8-0.3,5.1,0.1,7.1,1.2"/>
		</g>
	</g>
	<g transform="matrix( 1, 0, 0, 1, 0,0) ">
		<g>
			<path id="Symbol_261_0_Layer41_0_1_STROKES" class="st9" d="M49.6,55.5l0.6,2.3l0.5,2.3"/>
		</g>
	</g>
	<g transform="matrix( 1, 0, 0, 1, 0,0) ">
		<g>
			<path id="Symbol_261_0_Layer40_0_1_STROKES" class="st7" d="M47.4,58.6c-0.4,0.2-0.7,0.6-0.7,1.2l0.2,1.5l0.7,0.5
				c2.9,1.6,6.9,1.6,12.1,0.1c5.3-1.6,6.8-4.1,4.5-7.4l-0.6-0.3"/>
		</g>
	</g>
	<g transform="matrix( 1, 0, 0, 1, 0,0) ">
		<g>
			<path id="Symbol_261_0_Layer39_0_1_STROKES" class="st9" d="M47.4,58.6l1.6,0.8c0.6,0.4,1.2,0.6,1.7,0.6"/>
		</g>
	</g>
	<g transform="matrix( 1, 0, 0, 1, 0,0) ">
		<g>
			<path id="Symbol_261_0_Layer38_0_1_STROKES" class="st12" d="M47.4,58.6c0.5-0.2,0.9-0.7,1.1-1.5c0.3-0.8,0.6-1.4,1-1.6"/>
		</g>
	</g>
	<g transform="matrix( 1, 0, 0, 1, 0,0) ">
		<g>
			<path id="Symbol_261_0_Layer37_0_1_STROKES" class="st8" d="M125.6,5c-2.4,1.5-3.9,3.5-4.4,5.9c0.8,1.8,1.2,3.2,1.2,4.1
				c2.7,1.3,5.4,1.9,8,1.8c2.9-0.1,5.4-1.1,7.6-2.9c0.2-1.1,0.3-3.4,0.3-6.9c-0.5-0.9-1.4-1.8-2.6-2.7l-3-2.2
				C129.4,3.1,127,4.1,125.6,5z"/>
		</g>
	</g>
	<g transform="matrix( 1, 0, 0, 1, 0,0) ">
		<g>
			<path id="Symbol_261_0_Layer36_0_1_STROKES" class="st9" d="M8.1,109.7v0.3"/>
		</g>
	</g>
	<g transform="matrix( 1, 0, 0, 1, 0,0) ">
		<g>
			<path id="Symbol_261_0_Layer35_0_1_STROKES" class="st9" d="M86.2,49.4l0.3-0.2l7.8-0.7c3.1-0.2,5.3,0.5,6.4,2.3
				c-0.4,0.4-0.6,0.8-0.4,1.2l11.8,0.3c4.8,0.5,8,2.2,9.4,5c0.3,0.7,0.3,1.5-0.2,2.5c-0.5,1.1-1.2,1.9-2.3,2.4l-0.2,0.7
				c2.2,1.5,6.1,2.2,11.5,2.1c5.4-0.1,9.2,0.5,11.4,2c0.3,0.5,0.3,1.1,0.1,1.8l-0.3,1.8c1.4,1.2,2.2,2.5,2.4,3.8"/>
		</g>
	</g>
	<g transform="matrix( 1, 0, 0, 1, 0,0) ">
		<g>
			<path id="Symbol_261_0_Layer34_0_1_STROKES" class="st13" d="M166.1,64.1l-2.6,0.1c-1,0.2-1.7,0.6-2.1,1.3l-5.9-0.5
				c-2.5-0.4-4.3,0.2-5.4,1.6c-1.6,0-2.9,0.6-4,1.8c-0.3,0.6-0.4,1.4-0.1,2.4l0.6,2.4l-0.9,0.6"/>
		</g>
	</g>
	<g transform="matrix( 1, 0, 0, 1, 0,0) ">
		<g>
			<path id="Symbol_261_0_Layer33_0_1_STROKES" class="st12" d="M138.3,35.9l0.7,0.4l-0.3,3l-0.6,0.3"/>
		</g>
	</g>
	<g transform="matrix( 1, 0, 0, 1, 0,0) ">
		<g>
			<path id="Symbol_261_0_Layer32_0_1_STROKES" class="st9" d="M137.7,39.3l0.5-1.6c0.2-0.6,0.2-1.2,0-1.7"/>
		</g>
	</g>
	<g transform="matrix( 1, 0, 0, 1, 0,0) ">
		<g>
			<path id="Symbol_261_0_Layer31_0_1_STROKES" class="st11" d="M137.7,39.3l0.5,0.3"/>
		</g>
	</g>
	<g transform="matrix( 1, 0, 0, 1, 0,0) ">
		<g>
			<path id="Symbol_261_0_Layer30_0_1_STROKES" class="st9" d="M123.4,19.2l-6.9-1.8c-2.7-0.6-5.1-0.8-7.1-0.6l-0.9,0.7
				c-0.4,0.3-0.6,0.6-0.6,0.9c1.6,0.8,4,1.6,7.2,2.2l7.6,1.7c0.9,1.2,3,3.3,6.3,6.5c3.8,3.5,6.6,5.8,8.5,6.9l0.7,0.3l0.8,0.3
				c-0.7-1-3.3-3.9-7.7-8.6L123.4,19.2z"/>
		</g>
	</g>
	<g transform="matrix( 1, 0, 0, 1, 0,0) ">
		<g>
			<path id="Symbol_261_0_Layer29_0_1_STROKES" class="st12" d="M155.9,49.1l-0.4-0.3l-2.3-6.2c-0.7-1.7-2.1-2.8-4.4-3.3l-5,0.4
				l-5.3,0.8c-0.2-0.1-0.3-0.4-0.3-0.8"/>
		</g>
	</g>
	<g transform="matrix( 1, 0, 0, 1, 0,0) ">
		<g>
			<path id="Symbol_261_0_Layer28_0_1_STROKES" class="st12" d="M155.9,49.1c2.1,0.4,4.1,1.8,5.8,4.3l4.4,6
				c-0.1,0.5-0.1,1.3,0.1,2.4c0.2,1,0.2,1.8,0,2.4"/>
		</g>
	</g>
	<g transform="matrix( 1, 0, 0, 1, 0,0) ">
		<g>
			<path id="Symbol_261_0_Layer27_0_1_STROKES" class="st7" d="M131.7,38l1.2-2l2.3-0.2l2.3-0.1l0.6,0.1"/>
		</g>
	</g>
	<g transform="matrix( 1, 0, 0, 1, 0,0) ">
		<g>
			<path id="Symbol_261_0_Layer26_0_1_STROKES" class="st7" d="M131.7,38l2.9,1.2l3,0.1"/>
		</g>
	</g>
	<g transform="matrix( 1, 0, 0, 1, 0,0) ">
		<g>
			<path id="Symbol_261_0_Layer25_0_1_STROKES" class="st7" d="M94.1,16.1h7.7l7.6,0.8"/>
		</g>
	</g>
	<g transform="matrix( 1, 0, 0, 1, 0,0) ">
		<g>
			<path id="Symbol_261_0_Layer24_0_1_STROKES" class="st9" d="M127.7,44.9c-1.2,0.5-2.1,1-2.6,1.5c-0.8,0.6-1.3,1.3-1.6,2.2
				c-1,3,0.5,5.2,4.4,6.6c3.8,1.4,6.8,1.1,9-1.1l6.8,0.5c2.6,0.7,4,2.2,4.1,4.4c-2.5,1.3-3.9,2.4-4.1,3.4c-0.2,1.1,1.1,1.9,3.9,2.4"
				/>
		</g>
	</g>
	<g transform="matrix( 1, 0, 0, 1, 0,0) ">
		<g>
			<path id="Symbol_261_0_Layer23_0_1_STROKES" class="st10" d="M127.7,44.9c0.5,0,0.9,0.2,1.4,0.6c2,0.9,4.8,1.3,8.4,1.2l8.4,0.7
				l8,2.9c1.1-0.4,1.7-0.8,2-1.1"/>
		</g>
	</g>
	<g transform="matrix( 1, 0, 0, 1, 0,0) ">
		<g>
			<path id="Symbol_261_0_Layer22_0_1_STROKES" class="st12" d="M96.1,21.2l0.2,0.6l0.3,0.5l11.2,0.9c4.9,0.2,8.5,0.8,11,1.8
				c1.5,0.6,2.9,1.7,4,3.4l3.8,6.3c1.8,2.6,3.5,3.8,5.1,3.5"/>
		</g>
	</g>
	<g transform="matrix( 1, 0, 0, 1, 0,0) ">
		<g>
			<path id="Symbol_261_0_Layer21_0_1_STROKES" class="st9" d="M96.1,21.2l-1.1,1c-0.4,0.4-0.9,0.7-1.3,0.7l-0.1,0.3
				c9.5,0.4,17.1,1.1,22.9,2.3c1.5,0.3,2.6,0.7,3.3,1.1c0.7,0.5,1.5,1.4,2.4,2.6l3.8,6.3c1.7,2.5,3.6,3.8,5.5,4.1"/>
		</g>
	</g>
	<g transform="matrix( 1, 0, 0, 1, 0,0) ">
		<g>
			<path id="Symbol_261_0_Layer20_0_1_STROKES" class="st7" d="M62.2,30.2l5.9-1.5l5.5-2.1c1.2-0.5,3-2,5.4-4.5
				c2.1-2.2,4.2-3.5,6.1-3.9l4.8-0.5c1.8-0.3,3.2-0.8,4.3-1.7"/>
		</g>
	</g>
	<g transform="matrix( 1, 0, 0, 1, 0,0) ">
		<g>
			<path id="Symbol_261_0_Layer19_0_1_STROKES" class="st9" d="M62.2,30.2l0.2-0.6c-0.3-1.4,0-2.5,1.1-3.4c0.7-0.6,2-1.2,3.8-2
				c2.9-1.1,7.3-3.3,13.1-6.5c5.1-2.4,9.3-3,12.3-2l0.7,0.1l0.6,0.3"/>
		</g>
	</g>
	<g transform="matrix( 1, 0, 0, 1, 0,0) ">
		<g>
			<path id="Symbol_261_0_Layer18_0_1_STROKES" class="st8" d="M120.7,33.8c1.6,1.3,3.1,3,4.3,5.2l2.8,5.9"/>
		</g>
	</g>
	<g transform="matrix( 1, 0, 0, 1, 0,0) ">
		<g>
			<path id="Symbol_261_0_Layer17_0_1_STROKES" class="st9" d="M120.7,33.8c-2.3-0.9-4.1-0.9-5.5,0.1c-1.2,0.9-2,2.6-2.6,5.1
				c-2.9,0.9-6.1,0.9-9.7,0l-0.5-0.5c-0.1-0.3-0.1-0.6,0-1l0.1-1l-0.7-0.8l-6.2,0.3c-0.6,0.2-2.7,1-6.2,2.5c-5,2.1-8.8,1.9-11.4-0.7
				"/>
		</g>
	</g>
	<g transform="matrix( 1, 0, 0, 1, 0,0) ">
		<g>
			<path id="Symbol_261_0_Layer16_0_1_STROKES" class="st8" d="M67.8,42.9l0.5,1l0.4,1"/>
		</g>
	</g>
	<g transform="matrix( 1, 0, 0, 1, 0,0) ">
		<g>
			<path id="Symbol_261_0_Layer15_0_1_STROKES" class="st6" d="M62.1,36.6c2.2-0.9,7-3.7,14.4-8.4c5.9-3.6,10.9-5.9,15.2-6.7
				l0.3-0.5l0.3-1.6l0.5-0.4l1.3-0.3l1.3,0.1l0.2,0.3l0.5,1l0.2,1.1"/>
		</g>
	</g>
	<g transform="matrix( 1, 0, 0, 1, 0,0) ">
		<g>
			<path id="Symbol_261_0_Layer14_0_1_STROKES" class="st9" d="M62.1,36.6c-0.3-1.9-0.2-4,0.1-6.4"/>
		</g>
	</g>
	<g transform="matrix( 1, 0, 0, 1, 0,0) ">
		<g>
			<path id="Symbol_261_0_Layer13_0_1_STROKES" class="st6" d="M117.1,28.4l3.6,5.4"/>
		</g>
	</g>
	<g transform="matrix( 1, 0, 0, 1, 0,0) ">
		<g>
			<path id="Symbol_261_0_Layer12_0_1_STROKES" class="st8" d="M117.1,28.4c-3.3-0.6-7.3-1-12-1c-5.4-0.1-9.3,0.2-11.6,1
				c-3.6,1.2-7.8,3.3-12.7,6.5l-12.4,7.8l-0.6,0.3"/>
		</g>
	</g>
	<g transform="matrix( 1, 0, 0, 1, 0,0) ">
		<g>
			<path id="Symbol_261_0_Layer11_0_1_STROKES" class="st13" d="M63.4,41l0.3,0.9l2.2,0c0.8,0.1,1.4,0.4,1.9,0.9"/>
		</g>
	</g>
	<g transform="matrix( 1, 0, 0, 1, 0,0) ">
		<g>
			<path id="Symbol_261_0_Layer10_0_1_STROKES" class="st10" d="M63.4,41l-1.5-1.3c0.2-1.4,0.3-2.4,0.2-3.1"/>
		</g>
	</g>
	<g transform="matrix( 1, 0, 0, 1, 0,0) ">
		<g>
			<path id="Symbol_261_0_Layer9_0_1_STROKES" class="st9" d="M63.4,41c0.7-0.8,1.4-1.4,2.3-1.8l2.8-1c2.4-0.7,5.1-1.8,8-3.5
				l7.3-4.2c0.8-0.4,1.9-1.1,3.2-2l3-1.9c1.2-0.6,2.7-1,4.6-1.1l4.8-0.1l13,0.6l2.8,0.4c1,0.3,1.7,1,1.9,2"/>
		</g>
	</g>
	<g transform="matrix( 1, 0, 0, 1, 0,0) ">
		<g>
			<path id="Symbol_261_0_Layer8_0_1_STROKES" class="st9" d="M75.9,118.3l-1.3-1.4c-0.4-0.6-0.5-1.3-0.3-1.8l0.5-0.5l3.2-1.3
				c1.2-0.5,2.1-1.3,2.5-2.2l-0.1-0.8c-0.2-0.7-1.1-1.3-2.6-2c-1.4-0.6-2.1-1.4-2.1-2.3c0.8-1.6,2.8-2.8,6-3.7
				c3.3-0.8,5.3-2,6.2-3.6c0.4-3.1-1.6-4.9-5.8-5.4c-5.2-0.1-8.8-0.4-10.6-1.1c-2.5-1-4.1-2.3-4.6-4.1c-0.6-2,0.3-3.9,2.8-5.8"/>
		</g>
	</g>
	<g transform="matrix( 1, 0, 0, 1, 0,0) ">
		<g>
			<path id="Symbol_261_0_Layer7_0_1_STROKES" class="st8" d="M75.9,118.3c1.8-1.8,4.3-2.6,7.4-2.4l7.9,1.1c0.7-1.4,1.8-2.5,3.6-3.2
				c1.5-0.6,3.2-0.8,4.8-0.7l0.9,0.6l0.9,0.6l3.4,0.3c1.3,0.1,2.1-0.4,2.4-1.6l1.4-1.4l1.5-1.3l4.8-0.8c1.8,0,3.3,0.5,4.3,1.7h0.4
				c1.3-1.4,3.3-1.4,5.8,0c1-1,2.4-1.4,4.2-1.3l4.5,0.3c0.5-1.6,1.5-2.9,3-4c1-0.8,2.5-1.7,4.4-2.5c0.1-1,0.7-2,1.9-2.8
				c1.5-1,2.3-1.8,2.6-2.3"/>
		</g>
	</g>
	<g transform="matrix( 1, 0, 0, 1, 0,0) ">
		<g>
			<path id="Symbol_261_0_Layer6_0_1_STROKES" class="st14" d="M42.4,142.2c0.4-0.1,1.1-0.6,2.2-1.6c1.7-1,3.8-1.3,6.2-0.7
				c3.1,0.8,5.4,1.1,6.8,1c1.1-1.6,2.8-2.9,5.1-4.1c2.8-1.2,4.8-2.1,6.1-2.8c0.7-2.8,2.3-5.4,4.8-8c-0.5-1.3-0.5-2.6,0.1-4.1
				c0.4-1.2,1.2-2.4,2.3-3.6"/>
		</g>
	</g>
	<g transform="matrix( 1, 0, 0, 1, 0,0) ">
		<g>
			<path id="Symbol_261_0_Layer5_0_1_STROKES" class="st9" d="M91.7,68.6L84.4,73c-2.7,1.5-5.7,2.2-9,1.9l-8.8-1.1
				c-3.6-0.3-6.8-0.1-9.6,0.8c-2.2,0.7-5,2-8.3,3.8l-8.4,4.3l-15.4,7c-2.1,1-4.9,3.2-8.3,6.8c-3.5,3.6-6.1,5.9-7.9,6.8l-1.3,0.6"/>
		</g>
	</g>
	<g transform="matrix( 1, 0, 0, 1, 0,0) ">
		<g>
			<path id="Symbol_261_0_Layer4_0_1_STROKES" class="st13" d="M91.7,68.6c0.9-1.6,1.4-3.6,1.4-5.8c0-2.2-0.6-4.1-1.6-5.5"/>
		</g>
	</g>
	<g transform="matrix( 1, 0, 0, 1, 0,0) ">
		<g>
			<path id="Symbol_261_0_Layer3_0_1_STROKES" class="st15" d="M92,69.1l-0.3-0.5"/>
		</g>
	</g>
	<g transform="matrix( 1, 0, 0, 1, 0,0) ">
		<g>
			<path id="Symbol_261_0_Layer2_0_1_STROKES" class="st9" d="M92,69.1l-4.8,4.2c-2.2,1.6-4.1,2.6-5.8,2.9c-0.9,0.2-2.3,0.2-4.3,0
				l-5.4-0.6l-7-0.6c-2.2-0.1-4.4,0.3-6.5,1.1c-5.7,2-12.8,5-21.3,9.1l-5.6,2.3c-1.9,0.9-3.3,1.9-4.1,3.1c-1.1,1.6-3.9,4.1-8.3,7.5
				c-4,3.1-7.4,5.4-10.1,7L8,105.3"/>
		</g>
	</g>
	<g transform="matrix( 1, 0, 0, 1, 0,0) ">
		<g>
			<path id="Symbol_261_0_Layer1_0_1_STROKES" class="st8" d="M8,110.4l4.7-2.3c2-1,3.6-2,4.8-3.2c4.9-4.6,11.1-9,18.9-13.2
				c6.5-3.6,13.4-6.8,20.8-9.6c2.5-0.9,5.3-1.4,8.6-1.4c3,0,5.7,0.3,8,1c0.9,0.3,2,0.8,3.3,1.5l2.9,0.3l0.4-0.1
				c2.2-0.4,4.6-1.9,7.3-4.7l6-5.9l0.1-2.7l-0.5-0.6c-0.4-0.1-0.9-0.3-1.3-0.7"/>
		</g>
	</g>
	<g transform="matrix( 1, 0, 0, 1, 0,0) ">
		<g>
			<path id="Symbol_261_0_Layer0_0_1_STROKES" class="st9" d="M47.1,83.7c-2.8,1-6,2.3-9.3,4l-8.9,4.7c-2.1,1.2-3.9,2.7-5.3,4.5
				c-1.4,2-3.4,3.8-5.9,5.4c-1.9,1.3-4.4,2.5-7.4,3.7l-0.9,0.2l-0.9,0.2l-0.1,0.1c-0.3,0.2-0.6,0.6-0.9,1.3"/>
		</g>
	</g>
</g>
<g transform="matrix( 1, 0, 0, 1, 136.8,52.4) " class="st16">
	<g transform="matrix( 1, 0, 0, 1, 0,0) ">
		<g>
			<g id="Symbol_263_0_Layer0_0_FILL">
				<path class="st17" d="M28.5,12.6c0.8-4.1-0.1-7.1-2.5-9c-2.1-1.6-5-2.2-8.8-1.8c-3.5,0.3-6.7,1.3-9.7,2.9
					c-3.1,1.7-4.9,3.5-5.3,5.5c-1.1,4.9-1.1,8.9,0,12c1.3,3.6,3.7,3.5,7.3-0.4c0-0.5-0.1-1.2-0.3-1.9c-0.2-0.7-0.4-1.3-0.4-1.8
					c2.2-1.5,5.3-2.7,9.3-3.6L28.5,12.6z"/>
			</g>
		</g>
	</g>
</g>
<g transform="matrix( 1, 0, 0, 1, 2.1,64.9) " class="st16">
	<g transform="matrix( 1, 0, 0, 1, 0,0) ">
		<g>
			<g id="Symbol_265_0_Layer0_0_FILL">
				<path class="st17" d="M123.4,46.7l7.8-0.4c3-2.4,6.5-5.9,10.4-10.8c5.1-6.3,8.3-10.1,9.6-11.5c-0.7-0.3-2.6-1.5-5.8-3.7
					c-2.6-1.8-4.9-2.9-6.9-3.3c-1.8,0.5-4.9,2.5-9.3,6c-3.6,2.8-7.4,4.1-11.3,4c-0.5-1.8-0.6-3.5-0.3-5.1c0.4-1.9,0.5-3.5,0.3-4.5
					c-0.5-2.9-2.2-4.5-5-4.9c-2.8-0.4-4.8,0.6-6,2.9c-0.9,1.8-1.9,4.4-3,7.8l-2.6,7.5c-2.3,5.3-5.9,8.2-10.7,8.6
					c-3.1-2.1-6.6-3.3-10.3-3.6c-3.6-0.3-7,0.3-10.2,1.7c-3.3,1.4-5.9,3.5-7.8,6.2c-2.1,2.9-3.1,6.1-3.2,9.7
					c-1.7,0.3-3.1,0.1-4.2-0.5c-0.8-0.4-1.6-1.1-2.4-2.2c0.2,2.3-0.6,3.1-2.5,2.5c-1.6-0.5-2.9-1.5-3.9-2.9
					c-0.5,0.4-1.4,0.7-2.7,0.8c-1.4,0-2.3-0.2-2.7-0.8c1.3-4.5,2.4-7.7,3.2-9.5c1.4-3.3,3.1-5.8,5.2-7.4c0.7-0.2,1.2-0.1,1.7,0.3
					c0.6,0.4,1,0.7,1.3,0.7c0.6-0.6,3.6-2.3,8.8-5.2c3.7-2,5.8-4.5,6.5-7.4c4.4,0.2,7.8-0.7,10.2-2.7c2.4-2,3.3-4.8,2.8-8.3
					c-0.3-2.4-1.9-3.9-4.6-4.6c-3.6-0.5-6.3-1.1-8.1-1.7L65,2.9c-1.1-0.7-2.1-1.1-3-1.1c-3.4,0-7.7,1.2-12.8,3.7
					c-1.5,0.7-5.5,2.9-12.1,6.7l-13.5,7.8c-4.9,2.8-9,5-12.5,6.5c-1.6,1.5-2.9,4.1-3.9,7.7c-0.6,2.1-1.3,5.4-2,10
					c-0.2,1.1-0.9,3.3-2.2,6.6c-1.1,2.8-1.6,4.8-1.5,6c0.1,3.2,1.8,6.2,5.3,9l4.5,3.3c1.8,1.3,3.1,2.4,3.9,3.4
					c3-1.1,5.8-0.6,8.4,1.6l3.2,2.8c1.2,1.1,2.4,1.8,3.4,2.2l12.4-2.2c4.6-0.9,8.8-0.8,12.6,0.2c1.2-1.5,3-2.8,5.3-4.1
					c0.9-0.5,3-1.5,6.3-2.9c0.3-1.5,0.9-3,2-4.5l2.7-3.8c-0.7-4.4,1-7.3,5.1-8.9c3.6-1.4,7.7-1.3,12.3,0.3c1.3-2.3,3.4-3.5,6.3-3.5
					c1.3,0,4.2,0.4,8.7,1.3c2.5-3.5,6.6-5,12.3-4.7L123.4,46.7z"/>
			</g>
		</g>
	</g>
</g>
<g transform="matrix( 1, 0, 0, 1, 59.95,23.6) " class="st16">
	<g transform="matrix( 1, 0, 0, 1, 0,0) ">
		<g>
			<g id="Symbol_267_0_Layer0_0_FILL">
				<path class="st17" d="M12.8,25.5l-2,0.7C12,26.1,12.6,25.9,12.8,25.5 M10.8,26.2H9.7c-1.8,0-2.7,0.4-2.5,1.2L10.8,26.2
					 M44.8,33.8c1.9-1.1,3.2-2.9,3.8-5.4c0.5-2.3,0.4-4.6-0.4-7c-0.8-2.4-2.1-4.2-3.8-5.2c-2-1.2-4.2-1.2-6.6-0.1
					c-1.6-1.6-3-2.8-4.3-3.8c-2.2-1.8-4.4-3-6.4-3.5c-2.6-0.7-4.8-1.5-6.4-2.3l-4.8-3C13.6,1.9,11.3,1.4,9,2C7,2.6,5.3,3.9,3.9,6
					c-1.4,2-2.1,4.2-2.3,6.7c-0.2,2.6,0.4,4.9,1.6,6.8c1.5-0.2,2.9,0,4.4,0.6c0.1,1.2,0.8,2.3,2.2,3c1.8,1.1,2.8,1.8,3.1,2.3
					l-0.1,0.1l4.2-1.1c3.5-0.4,6.6,0.6,9.5,3c2.3,2,3.9,5.6,5,10.8c1.4,7,2.3,10.8,2.6,11.5C42.8,48.7,46.4,43.4,44.8,33.8z"/>
			</g>
		</g>
	</g>
</g>
</svg>
