<svg xmlns="http://www.w3.org/2000/svg" viewBox="0 0 46.34 94.15"><defs><style>.cls-1{fill:#281b19;}.cls-2{fill:#010100;}.cls-3{fill:#4f332e;}.cls-4{fill:#7c7466;}.cls-5{fill:#141210;}.cls-6{fill:#181714;}.cls-7{fill:#d6957c;}.cls-8{fill:#e2c392;}.cls-9{fill:#d7b98b;}.cls-10{fill:#060403;}.cls-11{fill:#452e24;}.cls-12{fill:#6a4a3d;}.cls-13{fill:#020201;}.cls-14{fill:#ac7661;}</style></defs><title>Ativo 1tochas</title><g id="Camada_2" data-name="Camada 2"><g id="Camada_1-2" data-name="Camada 1"><path d="M37.54,42c-1.9-1.6-1.8-1.5-5.1-.1-7.2,3-14.5,5.4-21.9.8a6.6,6.6,0,0,0-1.4-.1,1,1,0,0,0-.5,1.7c4,5.1,4.4,10.8,3.2,16.9A35.8,35.8,0,0,1,11,64.76a64.56,64.56,0,0,1,.36,8.79,4.15,4.15,0,0,1,.1.6c.2,2.1.5,4.4.8,6.6.4,3.6,1.2,7.3,3.3,10.3,2.8,4.1,7.6,4.1,10.6.2a12.4,12.4,0,0,0,2.4-5.8c.9-4.1.9-8.2,1.2-12.3A150.36,150.36,0,0,1,31.94,53a15.24,15.24,0,0,1,4-8c.4-.7.9-1.4,1.3-2.1A.56.56,0,0,0,37.54,42Z"/><path class="cls-1" d="M9.74,43.15c-.1.4-.4.9-.5,1.4a16.91,16.91,0,0,1-3-4.8,3.54,3.54,0,0,0,.1-.6,4.17,4.17,0,0,1,.8-.6C9.34,39.35,10.44,40.55,9.74,43.15Z"/><path class="cls-1" d="M6,39.75a2.84,2.84,0,0,1-.9-1.4c.1-.1.3-.1.3-.3.8.1,1,.5.7,1.2C6.24,39.45,6.24,39.55,6,39.75Z"/><path class="cls-1" d="M4.74,38.25v-1.4c1.1-.2,1.1.5.9,1.2-.1.1-.3.1-.3.3A1.49,1.49,0,0,0,4.74,38.25Z"/><path class="cls-2" d="M39.54,6.65a12.76,12.76,0,0,1-1.3-4.8A17.43,17.43,0,0,0,33.87.25,22.61,22.61,0,0,0,31.56,0a5.26,5.26,0,0,1-3.12,1.34c-.5.1-.7.4-1,.5a5.86,5.86,0,0,0-1.3,1.9c0,1.8-.5,3.7,0,5.5a2.2,2.2,0,0,0,1.6,1.5c2.3-.5,2-3.3,3.9-4.5.6,1.4.2,2.5,0,3.8a59.35,59.35,0,0,0-1.4,8.6c-.2,3.5-1.2,4.9-4.6,5.6a22.2,22.2,0,0,1-6.3.2c-2.9-.3-4.3-1.7-4.4-4.8-.1-4.5-.1-9-.5-13.5a1.15,1.15,0,0,1,0-.6,5.63,5.63,0,0,0,3,1.2c1.1,0,2.1.1,2.6-1.2.4-1.6-.6-2.7-1.5-3.8-.24-.28-.45-.56-.66-.85a17.77,17.77,0,0,0-8-.74,27.89,27.89,0,0,1-3,5.49c-1.6,2.5-3.2,5.1-4.8,7.7A15.63,15.63,0,0,0,0,22.65a32.18,32.18,0,0,0,4.6,14.2l.9,1.2a3.75,3.75,0,0,0,.7,1.2c.1-.1.4-.3.5-.4a1.65,1.65,0,0,0,.8-1.3,10.28,10.28,0,0,0,.1-1.8c.8-1.6,1.8-.4,2.7-.1,10.8,3.2,21.2,3.4,30.5-4.6-.7,4.4-.7,4.4,1,5.9,2.2-2.6,4.1-5.3,4.4-9a27.36,27.36,0,0,0-3.9-16.5C41.44,9.85,40.34,8.35,39.54,6.65Z"/><path class="cls-3" d="M6.14,36.05c0-1.1-.4-2.4-.1-3.4a1.06,1.06,0,0,1,1.4,0A32.82,32.82,0,0,0,31,35.15a15.65,15.65,0,0,0,9.6-6.6c.3-.4.5-1.1,1.5-1.3a13.49,13.49,0,0,1,0,6c-.2,1.1-1.2,2.4-.3,3.7a14.14,14.14,0,0,1-4.1,5c-1.3-.9-2.1.3-3.1.8a34.6,34.6,0,0,1-15.8,4c-3.7,0-6.9-.9-9.4-3.8-.9-1.4-1.9-2.9-2.8-4.3,0-.4-.2-.8-.2-1.3A2.23,2.23,0,0,0,6.14,36.05Z"/><path class="cls-3" d="M37.24,42.85a.68.68,0,0,1,.5-.7C37.94,42.55,37.64,42.75,37.24,42.85Z"/><path class="cls-4" d="M18.54,69.55c1.1-2,3.1-2.9,4.9-4.1-.7-1.4-2-.8-2.9-1.3-.6-.4-.9-.8-.7-1.4a1,1,0,0,1,1.1-1c2-.1,3.9-.1,6-.2,1.1,0,1.3.8,1.3,1.6-.2,2.1-.4,4.2-.5,6.3-.2,3.5-.2,7-.4,10.6-.3,4.1-1,7.9-4.6,10.5-1.8.9-2.7.4-2.4-1.6a7.25,7.25,0,0,0-.4-4.2,5.43,5.43,0,0,1-.1,5.1c-2-.6-2.9-2.3-3.6-4a33.21,33.21,0,0,1-1.6-16.8c.1-.8.1-2.1,1.1-2.3,1.3-.2,1.7,1.1,2,2a3.55,3.55,0,0,1,.2,1c.9,1.4-1,2.8.1,4.1,0,0-.9,1.7.3.4.8-.4,1.5.1,2.3.1C17,73.25,17,73.25,18.54,69.55Z"/><path class="cls-5" d="M18.54,69.55c.2,1-.8,2-.2,3.1,1.7.8,3.8-.4,5.4.8-1.3,2.3-3.5.4-5.2,1-1.2,1.3-.2,2.4.2,3.5.3.7.6,1.4-.4,1.7-.8.3-1.3-.5-1.3-1.2a20.48,20.48,0,0,1,.6-8.9Z"/><path class="cls-6" d="M19.54,89.75c.3-2.5-1.3-5-.5-7.7a7.43,7.43,0,0,1,1.6,6.7c-.4,1.7.3,2.1,1.9,1.9C20.54,91.75,20.54,91.75,19.54,89.75Z"/><path class="cls-7" d="M13.54,2.65c1.2.9,2,2.3,3.5,2.7,2.4.9,3.9,2.4,3.5,5.2-.1,1.4.5,2.7.5,4.1s.6,1.9,2,1.5c2.8-1.1,2.5-4.6,4.7-6.2.4-1.3.9-2.7,1.3-4a5.34,5.34,0,0,1,1.8-2.6c.7-.4,1.5-.9,2.2-.5,1,.4.7,1.4.6,2.1-.4,2.4-.7,4.9-1.2,7.3a28.09,28.09,0,0,0-.8,7.6,3.76,3.76,0,0,1-1.7,3.6c-3.6,2.6-11.4,3-15.2.9-1.3-.8-1.2-1.9-1.2-3.1-.2-5.5-.2-11.1-.9-16.6C12.64,4,11.74,3.05,13.54,2.65Z"/><path class="cls-8" d="M42,14.05c1.7,4.4,1.4,8.5-1.5,12.3-.4.4-.7.9-1.1,1.3-7.2,7.7-21.4,8.9-29.7,2.7a13.85,13.85,0,0,1-5.9-12.3c1.3-.3,1.1.8,1.3,1.2,2.3,5.4,6.6,8.1,12.3,8.6a27.85,27.85,0,0,0,13.4-2.1,18,18,0,0,0,9.4-8.6C40.64,16.05,40.74,14.75,42,14.05Z"/><path class="cls-9" d="M8.24,18.05c-2.7-1.3-2.5-3.6-2.3-5.6s.6-4,2.4-5.3a1.82,1.82,0,0,1,2-.2c.7.4.5,1.3.2,1.8A31.73,31.73,0,0,0,8.24,18.05Z"/><path class="cls-10" d="M19.34,5.15c1.6,2.3,1.8,5.1,2.6,7.8.3,1,.2,2.1.9,2.9.4,0,.7.3,1,.7,0,.3,0,.6-.3.7a4.06,4.06,0,0,1-1.9.8c-1.5.3-2.4-.1-2.4-1.9S19,12.65,19,11a6.06,6.06,0,0,0-2.4-5.4C17.84,5.35,18.74,5.85,19.34,5.15Z"/><path class="cls-11" d="M23.84,17.15v-.8c-.3-.1-.3-.3-.2-.4s.1-.1.3-.1c1.5-1.2,2-2.7,2.4-4.6.3-.9.1-1.8.6-2.7a9.08,9.08,0,0,1,.7,1.4C27.34,12.75,26.74,15.65,23.84,17.15Z"/><path class="cls-12" d="M13.54,2.65c-.8.4-.4,1.4-.6,2.1a14.17,14.17,0,0,1-.8-1.8c-.2-.4-.2-1,.4-1S13.24,2.25,13.54,2.65Z"/><path class="cls-1" d="M6.14,36.05a2.2,2.2,0,0,1,.6,1.5A1.83,1.83,0,0,1,6.14,36.05Z"/><path class="cls-13" d="M18.54,74.45c1.5-1.3,3.4-.5,5.2-1,.6.4,1.1.8,1,1.7-.3.7-1,.5-1.5.6A9.47,9.47,0,0,1,18.54,74.45Z"/><path class="cls-14" d="M23.94,15.85c-.1.1-.1.3-.1.6a1.35,1.35,0,0,1-.9-.5c.1-.3.3-.6.4-.9A2.41,2.41,0,0,1,23.94,15.85Z"/></g></g></svg>