<?xml version="1.0" encoding="utf-8"?>
<!-- Generator: Adobe Illustrator 24.0.1, SVG Export Plug-In . SVG Version: 6.00 Build 0)  -->
<svg version="1.1" id="Camada_1" xmlns="http://www.w3.org/2000/svg" xmlns:xlink="http://www.w3.org/1999/xlink" x="0px" y="0px"
	 viewBox="0 0 75 13" style="enable-background:new 0 0 75 13;" xml:space="preserve">
<style type="text/css">
	.st0{fill:none;stroke:#000000;}
</style>
<g transform="matrix( 1, 0, 0, 1, 0,0) ">
	<g>
		<path id="Layer0_0_1_STROKES" class="st0" d="M66.4,6.9c0-1.2-0.4-2.3-1.3-3.1S63.2,2.4,62,2.4H13c-1.2,0-2.3,0.4-3.1,1.3
			C9,4.6,8.6,5.6,8.6,6.9v0.1c0,1.2,0.4,2.3,1.3,3.2c0.9,0.9,1.9,1.3,3.1,1.3h49c1.2,0,2.3-0.4,3.2-1.3C66,9.2,66.4,8.2,66.4,6.9
			L66.4,6.9z"/>
	</g>
</g>
</svg>
