<?xml version="1.0" encoding="UTF-8" standalone="no"?>
<svg xmlns:xlink="http://www.w3.org/1999/xlink" height="14.0px" width="14.0px" xmlns="http://www.w3.org/2000/svg">
  <g transform="matrix(1.0, 0.0, 0.0, 1.0, 7.0, 6.95)">
    <path d="M4.7 -0.05 Q4.65 -1.9 3.35 -3.25 2.0 -4.6 0.15 -4.6 L-0.1 -4.6 Q-1.95 -4.6 -3.3 -3.25 -4.65 -1.9 -4.65 -0.05 L-4.65 0.2 Q-4.65 2.05 -3.3 3.4 -1.95 4.7 -0.1 4.75 L0.15 4.75 Q2.0 4.7 3.35 3.4 4.65 2.05 4.7 0.2 L4.7 -0.05 M4.6 -4.55 Q6.45 -2.7 6.5 -0.1 L6.5 0.25 Q6.45 2.8 4.6 4.65 2.75 6.5 0.2 6.55 L-0.15 6.55 Q-2.75 6.5 -4.6 4.65 -6.45 2.8 -6.5 0.25 L-6.5 -0.1 Q-6.45 -2.7 -4.6 -4.55 -2.75 -6.4 -0.15 -6.45 L0.2 -6.45 Q2.75 -6.4 4.6 -4.55 M-5.15 -2.55 L-5.1 -2.25 -4.65 -2.2 -3.3 -3.65 -1.95 -4.95 Q-1.4 -5.15 -1.4 -5.2 L-1.8 -5.55 Q-2.85 -5.55 -4.0 -4.4 -5.15 -3.35 -5.15 -2.55 M1.4 4.95 L0.8 5.0 Q-0.7 4.8 -1.3 5.45 L1.2 5.6 Q2.55 5.2 3.75 4.45 5.1 3.55 4.6 2.4 3.6 4.2 1.4 4.95" fill="#949899" fill-rule="evenodd" stroke="none"/>
    <path d="M-5.15 -2.55 Q-5.15 -3.35 -4.0 -4.4 -2.85 -5.55 -1.8 -5.55 L-1.4 -5.2 Q-1.4 -5.15 -1.95 -4.95 L-3.3 -3.65 -4.65 -2.2 -5.1 -2.25 -5.15 -2.55" fill="#babcbc" fill-rule="evenodd" stroke="none"/>
    <path d="M4.7 -0.05 L4.7 0.2 Q4.65 2.05 3.35 3.4 2.0 4.7 0.15 4.75 L-0.1 4.75 Q-1.95 4.7 -3.3 3.4 -4.65 2.05 -4.65 0.2 L-4.65 -0.05 Q-4.65 -1.9 -3.3 -3.25 -1.95 -4.6 -0.1 -4.6 L0.15 -4.6 Q2.0 -4.6 3.35 -3.25 4.65 -1.9 4.7 -0.05 M3.3 2.3 Q3.9 1.35 3.9 0.2 L3.9 0.0 Q3.9 -1.6 2.8 -2.7 1.65 -3.8 0.1 -3.8 L-0.05 -3.8 -0.05 -3.9 Q-0.05 -5.2 -2.1 -3.75 -4.2 -2.25 -4.2 -1.25 -4.2 -0.9 -3.8 -0.8 L-3.9 0.0 -3.9 0.2 Q-3.9 1.7 -2.75 2.9 -1.65 3.95 -0.1 4.0 L0.1 4.0 0.55 4.0 -0.15 4.45 1.15 4.35 3.35 3.05 Q4.6 2.1 4.2 1.05 L3.3 2.3" fill="#b1b4b4" fill-rule="evenodd" stroke="none"/>
    <path d="M-3.8 -0.8 Q-4.2 -0.9 -4.2 -1.25 -4.2 -2.25 -2.1 -3.75 -0.05 -5.2 -0.05 -3.9 L-0.05 -3.8 Q-0.3 -3.4 -2.25 -2.25 L-2.75 -1.35 Q-3.05 -0.75 -3.5 -0.75 L-3.8 -0.8" fill="#ffffff" fill-rule="evenodd" stroke="none"/>
    <path d="M-0.05 -3.8 L0.1 -3.8 Q1.65 -3.8 2.8 -2.7 3.9 -1.6 3.9 0.0 L3.9 0.2 Q3.9 1.35 3.3 2.3 L2.5 3.0 1.55 3.5 0.55 4.0 0.1 4.0 -0.1 4.0 Q-1.65 3.95 -2.75 2.9 -3.9 1.7 -3.9 0.2 L-3.9 0.0 -3.8 -0.8 -3.5 -0.75 Q-3.05 -0.75 -2.75 -1.35 L-2.25 -2.25 Q-0.3 -3.4 -0.05 -3.8 M-2.15 2.65 L-0.15 0.2 -2.15 2.65 M2.9 0.05 L0.0 0.05 0.0 -3.2 0.0 0.05 2.9 0.05 M-0.15 0.2 L0.0 0.05 -0.15 0.2" fill="#f0eced" fill-rule="evenodd" stroke="none"/>
    <path d="M3.3 2.3 L4.2 1.05 Q4.6 2.1 3.35 3.05 L1.15 4.35 -0.15 4.45 0.55 4.0 1.55 3.5 2.5 3.0 3.3 2.3" fill="#e9e2e4" fill-rule="evenodd" stroke="none"/>
    <path d="M1.4 4.95 Q3.6 4.2 4.6 2.4 5.1 3.55 3.75 4.45 2.55 5.2 1.2 5.6 L-1.3 5.45 Q-0.7 4.8 0.8 5.0 L1.4 4.95" fill="#828686" fill-rule="evenodd" stroke="none"/>
    <path d="M4.6 -4.55 Q6.45 -2.7 6.5 -0.1 L6.5 0.25 Q6.45 2.8 4.6 4.65 2.75 6.5 0.2 6.55 L-0.15 6.55 Q-2.75 6.5 -4.6 4.65 -6.45 2.8 -6.5 0.25 L-6.5 -0.1 Q-6.45 -2.7 -4.6 -4.55 -2.75 -6.4 -0.15 -6.45 L0.2 -6.45 Q2.75 -6.4 4.6 -4.55" fill="none" stroke="#000000" stroke-linecap="butt" stroke-linejoin="miter-clip" stroke-miterlimit="4.0" stroke-width="1.0"/>
    <path d="M0.0 -3.2 L0.0 0.05 2.9 0.05" fill="none" stroke="#737373" stroke-linecap="butt" stroke-linejoin="miter-clip" stroke-miterlimit="4.0" stroke-width="0.30000000000000004"/>
    <path d="M-0.15 0.2 L-2.15 2.65" fill="none" stroke="#725327" stroke-linecap="butt" stroke-linejoin="miter-clip" stroke-miterlimit="4.0" stroke-width="0.30000000000000004"/>
    <path d="M0.0 0.05 L-0.15 0.2" fill="none" stroke="#000000" stroke-linecap="butt" stroke-linejoin="miter-clip" stroke-miterlimit="4.0" stroke-width="0.05"/>
  </g>
</svg>
