<svg xmlns="http://www.w3.org/2000/svg" viewBox="0 0 150 66.43"><defs><style>.cls-1{fill:#686565;}.cls-1,.cls-10,.cls-11,.cls-12,.cls-13,.cls-14,.cls-15,.cls-2,.cls-3,.cls-4,.cls-5,.cls-6,.cls-7,.cls-8,.cls-9{fill-rule:evenodd;}.cls-2{fill:#96281c;}.cls-3{fill:#120b0a;}.cls-4{fill:#a33428;}.cls-5{fill:#53251f;}.cls-6{fill:#5c251f;}.cls-7{fill:#6f2b23;}.cls-8{fill:#76271f;}.cls-10{fill:#3c3b3b;}.cls-11{fill:#4b241f;}.cls-12{fill:#862e25;}.cls-13{fill:#462420;}.cls-14{fill:#271817;}.cls-15{fill:#cf502e;}</style></defs><title>Ativo 1pl</title><g id="Camada_2" data-name="Camada 2"><g id="Camada_1-2" data-name="Camada 1"><g id="sprite3"><g id="shape3"><path class="cls-1" d="M105.3,5.13A136.35,136.35,0,0,0,83.67.51L85,.56l1-.27A101.09,101.09,0,0,1,105.91,5c-.38-.06-.58,0-.61.17"/><path class="cls-2" d="M27.76,11.51l-4.59-.22A9.42,9.42,0,0,1,19.73,9a.48.48,0,0,1,0-.35l.13-.26,5.39-.14q3,.84,2.47,3.3"/><path class="cls-2" d="M130.49,9a6.84,6.84,0,0,1-3.35,2.51l-4.68.22C122,10,122.9,8.9,125.2,8.35a6.32,6.32,0,0,1,5.29.61"/><path class="cls-3" d="M35.83,8.52A50.08,50.08,0,0,0,29,12.57a27.6,27.6,0,0,0-5.47,4.84,3,3,0,0,0-1.67.4l-2.25-.18-2.21-.22,2.25,0,2.21-.26,1.1-.88,1.23-1.23a81.82,81.82,0,0,1,6.76-4.67,41,41,0,0,1,4.23-2.2l4-2c.53.18.23.56-.88,1.15L35.83,8.52"/><path class="cls-4" d="M35.17,10.19c-.2.53-1.17,1.37-2.91,2.51q-3,2-3.44,3.21a1,1,0,0,0-.71.36.89.89,0,0,1-.75.3l-1,1.19-1,1.15h-1.9c-.79,0-1.22-.22-1.28-.66l.71-.18.79,0,5.43-4.1A47.36,47.36,0,0,1,35,10.24l.22-.05"/><path class="cls-4" d="M127.76,18.25c-.18.67-.93,1-2.25.92l-3.27-.09a12.63,12.63,0,0,0-3.4-5.67,8.77,8.77,0,0,0-2.34-1.54,5.51,5.51,0,0,1-1.89-1.46c-.12-.14-.09-.23.09-.26l.35.09A65.21,65.21,0,0,1,126,18l1.72.22"/><path class="cls-3" d="M144.22,21a2.78,2.78,0,0,1,1.1.4l1.06,1.49,2.25,2.29A5.36,5.36,0,0,1,150,28.37a64.64,64.64,0,0,0-10.81,2.15l.22-.44A20,20,0,0,1,144,28.76l4.94-1c-.15-.35-.65-.56-1.5-.61v-.22l-3.57-5.06a7.55,7.55,0,0,1-2.87-1,10.35,10.35,0,0,0-3.31-1.15c.06-.17-.08-.25-.4-.22s-.47,0-.44-.22c-.15-.76.28-1.11,1.28-1.05,0-.18-.1-.25-.4-.22h-.66v-.22a4.52,4.52,0,0,1,3.09.92l2.65,1.85,1.41.44"/><path class="cls-4" d="M143.64,24a22.77,22.77,0,0,0-2.6.66l-2.91.39a.82.82,0,0,0,.22-.74c0-.36-.18-.53-.44-.53a4,4,0,0,1,1.94-.62,3.72,3.72,0,0,0,1.9-.66l-2.47-.22a5.49,5.49,0,0,1-2.83,0c.12-.2.41-.32.88-.35l1-.26a.92.92,0,0,0-.84-1.19l-1.72-.31a2.83,2.83,0,0,1,1.9-.4A10.35,10.35,0,0,1,141,20.89a7.55,7.55,0,0,0,2.87,1l3.57,5.06a4.11,4.11,0,0,1-2.07-1.28L143.64,24"/><path class="cls-2" d="M37.11,32.28c-.23.33-.45.44-.66.36a1.72,1.72,0,0,0-.22-1.1h-.75c-.29,0-.4.14-.31.44a1.92,1.92,0,0,0-1.81-1.28,1.7,1.7,0,0,1-1.58-1.45,3.12,3.12,0,0,1,1.94.53l1.89,1.14a31.62,31.62,0,0,0-5-3.92,8.18,8.18,0,0,1-3.71-5.14l-.53.13-.53.09A1.53,1.53,0,0,0,26,23.22a6.1,6.1,0,0,0-3-2L26,21h3.22a15.29,15.29,0,0,0,1.9,4A19,19,0,0,0,37,30.92a73,73,0,0,0,7.5,4.22l-.22.62c-.11,0-.19-.12-.22-.35l-.17-.49-.58.53-.92-.09a1.79,1.79,0,0,1-.18-1.27q-.48.13-.66,1a20.4,20.4,0,0,0-4.24-1.89c.53-.32.6-.67.22-1-.09-.21-.22-.18-.4.08"/><path class="cls-5" d="M53.18,32l.57.3.71.14c.32.26.35.38.09.35l-.93-.13a8.9,8.9,0,0,0,4.54,3.6,22.9,22.9,0,0,0,6.27,1.46l2.34.31,2.29.3.36.09-.13.13-6.14-.13-5.74-.48-2.25-.4L53,37a63.76,63.76,0,0,1-12.27-5.28L34.6,27.93q-3.66-2.43-3-5.85a2.12,2.12,0,0,1,2.21.66l1.36,1.84a21,21,0,0,0,7.73,5.06A64.21,64.21,0,0,0,53,32.42l.22-.44"/><path class="cls-6" d="M128.29,18.51l-.31.4,4.5,0,4-.26a14,14,0,0,0-5.07-.8l-5.12-.48A26.5,26.5,0,0,0,119,11.25q-2.68-1.66-8.87-4.62c0-.09.15-.15.35-.18l.31-.22a65.27,65.27,0,0,1,17.17,11l4.54.31,4.55.31V18h.66c.3,0,.43,0,.4.22-1-.06-1.43.29-1.28,1.05,0,.21.12.28.44.22s.46.05.4.22a2.83,2.83,0,0,0-1.9.4l1.72.31a.92.92,0,0,1,.84,1.19l-1,.26c-.47,0-.76.15-.88.35H123.08l-3,.22-.57,1.37L118.84,25a33.46,33.46,0,0,1-9.53,6.74L113.59,29l4-2.9a4.84,4.84,0,0,0,1.2-2.29q.3-1.54-1.2-1.71c-.56-.09-1.11.23-1.67,1l-1.28,1.76a21.76,21.76,0,0,1-5.3,3.79,27.92,27.92,0,0,1-7.19,2.77L99,32l-2.21,0,6.58-2.69a41.77,41.77,0,0,0,6.13-3.21l.93-1,1-1.1a2.2,2.2,0,0,1,.84-.31l.88-.35A5.54,5.54,0,0,0,115.89,18c0-.36,0-.46.17-.31l.44.31q.09-2.43-2.64-4.14L108,11.07a59.82,59.82,0,0,0-9.49-3.6A50.37,50.37,0,0,0,87.07,5.79q-11.91-.57-23.92,0a57.53,57.53,0,0,0-29.26,9.73l-.31,1a3.3,3.3,0,0,0-.08,1.28c0,.17.19.1.39-.22l.44-.8.05,1.54a1.14,1.14,0,0,0,1,1,.78.78,0,0,1-.44.62l-.62.44,1,1.58a4.57,4.57,0,0,0,1.32,1.37l1,.35.93.31L39.41,25l.84,1.06a22.07,22.07,0,0,0,3.18,1.45A72.11,72.11,0,0,0,53.18,32l-.22.44A64.21,64.21,0,0,1,42.9,29.64a21,21,0,0,1-7.73-5.06l-1.36-1.84a2.12,2.12,0,0,0-2.21-.66q-.66,3.42,3,5.85l6.09,3.83A33.61,33.61,0,0,1,31.16,25a15.29,15.29,0,0,1-1.9-4H26l-3,.22-5.51.08a14.56,14.56,0,0,0-5.26.58,1.45,1.45,0,0,1,.22-1.37l.84-.75H11.65c-.26-.47-.72-.51-1.37-.13s-1.16.49-1.36.31l2.2-1.32c1-.53,1.68-.37,2,.48l.36-.31c-.06-.2,0-.3.08-.3a10.29,10.29,0,0,0,4.06.57l4.59-.13-.53-.4c-.06-.12.12-.2.53-.26.06.44.49.66,1.28.66h1.9l1-1.15,1-1.19a.89.89,0,0,0,.75-.3,1,1,0,0,1,.71-.36q.39-1.19,3.44-3.21c1.74-1.14,2.71-2,2.91-2.51v-.08q8.09-4.93,23.3-7.48a246.44,246.44,0,0,1,33.06,0q15.27,2.55,23.34,7.52h-.17c-.18,0-.21.12-.09.26a5.51,5.51,0,0,0,1.89,1.46,8.77,8.77,0,0,1,2.34,1.54,12.63,12.63,0,0,1,3.4,5.67l3.27.09c1.32.06,2.07-.25,2.25-.92.35,0,.53.11.53.26"/><path class="cls-5" d="M109.31,31.76A63.76,63.76,0,0,1,97,37l-4.45.88-6.89.57a33.37,33.37,0,0,1-7.1-.18q13.41.18,17.78-5.5l-.84-.09q-.44.09,0-.3A1.61,1.61,0,0,0,96.82,32L99,32l3.09-.66a27.92,27.92,0,0,0,7.19-2.77,21.76,21.76,0,0,0,5.3-3.79L115.89,23c.56-.73,1.11-1.05,1.67-1q1.5.17,1.2,1.71a4.84,4.84,0,0,1-1.2,2.29l-4,2.9-4.28,2.78"/><path class="cls-2" d="M116.15,30.83a1.08,1.08,0,0,0-1.1,1.15c-.15-.41-.49-.55-1-.4s-.69.47-.48,1.06a.58.58,0,0,1-.58-.27.9.9,0,0,0-.48-.39l-.22.7c-.06.26.09.38.44.35l-2.07,1a5.93,5.93,0,0,0-2,1.1l-.39-.48-.27-.57c-.15,0-.22.23-.22.61s-.06.64-.18.66l-.88.14c-.17,0-.31-.22-.4-.58-.35,0-.5.31-.44.84l-.39-.62a78.3,78.3,0,0,0,7.54-4.22,19.21,19.21,0,0,0,5.78-5.9l.71-1.18.57-1.37,3-.22a9.36,9.36,0,0,1-3.75,4.84l-4.94,3.61a4.72,4.72,0,0,0,1.72-.75,7.22,7.22,0,0,1,2.12-.92,1.77,1.77,0,0,0-.45,1.49l-1.63.31"/><path class="cls-7" d="M13.59,25l5-1,4.72-.26v.61a10.22,10.22,0,0,1,2.61,1.81,6.21,6.21,0,0,0,2.91,1.58,12.35,12.35,0,0,0-.88,2.11,7.07,7.07,0,0,0-.18,2.78A20.6,20.6,0,0,0,25,29.78a5.79,5.79,0,0,1-1.94-3.7l-4.63,1c-2.21.41-3.69,1-4.46,1.72,0-.12-.1-.15-.22-.09l-.4.09.22-1.67V25"/><path class="cls-8" d="M44.48,35.14A73,73,0,0,1,37,30.92,19,19,0,0,1,31.16,25a33.61,33.61,0,0,0,9.53,6.74A63.76,63.76,0,0,0,53,37l-2.83-.53L47.26,36A1.8,1.8,0,0,0,46,35.36l-1.5-.22"/><path class="cls-8" d="M113.06,30.92a78.3,78.3,0,0,1-7.54,4.22l-1.5.22a1.8,1.8,0,0,0-1.28.62,12.92,12.92,0,0,0-2.87.53L97,37a63.76,63.76,0,0,0,12.27-5.28A33.46,33.46,0,0,0,118.84,25a19.21,19.21,0,0,1-5.78,5.9"/><path class="cls-7" d="M122.24,32.64a6.59,6.59,0,0,0-.13-2.56l-.71-1.89a7.94,7.94,0,0,1,2.17-1.63,4,4,0,0,0,1.85-2c.91.21,1.41-.07,1.5-.83.38.11.68.55.88,1.32s.47,1.26.8,1.41c.2-.12.23-.34.08-.66a1.63,1.63,0,0,1-.08-1,.88.88,0,0,1,.7-.22h1c0-.17-.22-.25-.57-.22h-.88v-.52l-.22-.31a.76.76,0,0,1,.44-.44,22.45,22.45,0,0,1,4.28,1.14,13.84,13.84,0,0,0,4.59.79l-.4.27c-.26,0-.41,0-.44.13V29l-.66-.22c-.21-.18-.34-.18-.4,0a27,27,0,0,0-4.28-1.23l-4.63-.88a13.24,13.24,0,0,1-2.3,3.08l-2.56,2.86"/><path class="cls-9" d="M72.68,64.5l-1.5-.8-1.28,0-.57-.13-.49-.31a.21.21,0,0,1,.31-.13l.36.13c.32-.23-.11-.51-1.28-.84l.61.44a27.58,27.58,0,0,1-5-2.64l-4.9-3.3h.4a10.44,10.44,0,0,0-3.62-2.77l-4-2.51a10.74,10.74,0,0,1,3.62-3.34,19,19,0,0,0,4-3,19.57,19.57,0,0,1-7.24-.93L46,42.1,35.75,38.27a37.89,37.89,0,0,1-8.83-5l-2-2.15a6.59,6.59,0,0,0-2.21-1.85l-.83-1.5-1,.05L19.9,28l.93.05c.53-.18.8-.06.8.35a9.53,9.53,0,0,0-3.93.83L14,30.7l.27-.35a14.76,14.76,0,0,1-5.83-.93A28.07,28.07,0,0,0,1.28,28c-.41-.47,0-.75,1.28-.83a31.77,31.77,0,0,1,6,1.36l5.47.31c.77-.74,2.25-1.31,4.46-1.72l4.63-1A5.79,5.79,0,0,0,25,29.78a20.6,20.6,0,0,1,2.74,2.86.63.63,0,0,0,.4.66l.66.35a15.45,15.45,0,0,0,3.62,2.11q6.62,4,18.62,7a.44.44,0,0,0,.44.39l.84.05.44-.22L57.9,44c2.15.33,3.55-.1,4.19-1.27.06-.15-.09-.24-.44-.27s-.26-.08,0-.17c-.06-.33.1-.47.49-.44l1,0,.22.62a38.43,38.43,0,0,1-9.75,7.83.89.89,0,0,0-.18,1.41,1.45,1.45,0,0,0,1.64.48A104.14,104.14,0,0,0,74,63l-.61.75-.67.71"/><path class="cls-9" d="M144,28.76a20,20,0,0,0-4.59,1.32,2.66,2.66,0,0,1-2.08.49L136,30.7l-2.78-1.1-3-1c0-.09.25-.16.67-.22-.18-.32-.68-.46-1.51-.4.48.3.53.41.18.35l-1.23.05c-.09-.3,0-.44.3-.44l.75,0a.86.86,0,0,0-1.32.09l-.79,1.19a7.22,7.22,0,0,0-2.21,1.85l-2,2.15a39.36,39.36,0,0,1-8.69,5q-3.67,1.59-10.15,3.83l-6.09,2.2a20.22,20.22,0,0,1-7.46,1l.22.35.18.31c0-.24.45-.39,1.28-.44l1.89.22-1.89.22,1.14,1,1.42.84c-.06.23-.18.29-.36.17s-.41-.23-.53-.17a18.58,18.58,0,0,1,4.28,3.61,14.17,14.17,0,0,1-4.1,2.77q-3,1.5-3.75,3.12A23.68,23.68,0,0,0,85,60.14l-5.16,3.08c.32.18.84,0,1.54-.48s1.18-.69,1.41-.58A30.63,30.63,0,0,1,78.6,64.5c0-.3.19-.5.57-.62s.65-.26.71-.44a8.48,8.48,0,0,0-2.65,1.19L74.8,66l-.48-.48-.58-.35.44-.4.62-.26h.84a.44.44,0,0,0,.44-.4c.18,0,.25-.1.22-.4l0-.66Q81,60.85,86.81,57.5l10-6.07a3.06,3.06,0,0,0-1.19-1.76l-2-1a31,31,0,0,1-4-3.16c-1.88-1.68-2.87-2.86-3-3.57h.4a2.23,2.23,0,0,1,1.1,1,3.05,3.05,0,0,0,1,1.1L94,43.59l4.32-.39.67-.31.35-.57a44.17,44.17,0,0,0,9.84-2.6,68.93,68.93,0,0,0,8.38-4,15.45,15.45,0,0,0,3.62-2.11l.66-.35a.63.63,0,0,0,.4-.66l2.56-2.86a13.24,13.24,0,0,0,2.3-3.08l4.63.88A27,27,0,0,1,136,28.81q1.81.71,5.43-.35a26,26,0,0,1,6-1.32c.85.05,1.35.26,1.5.61l-4.94,1"/><path class="cls-1" d="M97.48,49.58a3.45,3.45,0,0,1,1.24,3.08,37,37,0,0,0-8.12,4.58l-.13.08a88.06,88.06,0,0,1-7.64,4.84c-.23-.11-.7.08-1.41.58s-1.22.66-1.54.48L85,60.14a23.68,23.68,0,0,1,5.43-2.82q.8-1.62,3.75-3.12a14.17,14.17,0,0,0,4.1-2.77A18.58,18.58,0,0,0,94,47.82c.12-.06.3,0,.53.17s.3.06.36-.17l2.55,1.76"/><path class="cls-10" d="M117.7,37.12q-2.88,1.5-13.9,5.86l-4.29,1.85a14.7,14.7,0,0,1-5.25.88l-1.89-.22c-.83,0-1.25.2-1.28.44l-.18-.31-.22-.35a20.22,20.22,0,0,0,7.46-1l6.09-2.2q6.48-2.25,10.15-3.83a39.36,39.36,0,0,0,8.69-5l2-2.15a7.22,7.22,0,0,1,2.21-1.85l.79-1.19a.86.86,0,0,1,1.32-.09l-.75,0c-.29,0-.39.14-.3.44q-3.31,5-10.68,8.75"/><path class="cls-7" d="M117.39,35.76a3.25,3.25,0,0,0,.44-2.07,5.28,5.28,0,0,0-.44-2.15A5.28,5.28,0,0,0,120.12,29c.59.29.77,1.17.53,2.64s-.06,2,.53,2a15.45,15.45,0,0,1-3.62,2.11h-.17"/><path class="cls-11" d="M28.82,33.65h.84a6.46,6.46,0,0,1,0-4.62L31,30.48l1.68,1.06a4.24,4.24,0,0,0-.44,2.11,4.27,4.27,0,0,0,.44,2.11h-.22a15.45,15.45,0,0,1-3.62-2.11"/><path class="cls-2" d="M50.53,37.74c-.15.29-.32.35-.53.18a1.62,1.62,0,0,1-1.06-1.5.94.94,0,0,0-.88.18,1,1,0,0,1-.8.22V36l2.87.53L53,37l2.2.48,2.25.4,4.86.92,6,.31,1.59-.09q1,0,1.14.75v.4a125.87,125.87,0,0,1-19.68-3q-.44-.09-.75.48"/><path class="cls-12" d="M110.15,36.33A25.08,25.08,0,0,0,105.91,39a1.93,1.93,0,0,1-1.06,1.46l-.53-.09L104,40l-.8.7-.88.57a1.56,1.56,0,0,0-1.46-.48l-1.72.48,0,.66c0,.29,0,.43.22.4l-.35.57-.67.31c0-.12-.14-.19-.35-.22h-.53V39.81L96,40.16l-1.5.27a3.25,3.25,0,0,1,3.84-.84L99.74,39a1.47,1.47,0,0,1,1.54,0,13.84,13.84,0,0,1,1.72-.88l1.85-.39a7.45,7.45,0,0,1,4.06-2.12c2.12-.52,3.46-1.1,4-1.71a1.09,1.09,0,0,0,.4,1.19,1.12,1.12,0,0,1,.44,1.14q0-1.71-3.62.13"/><path class="cls-11" d="M78.6,38.31a1.71,1.71,0,0,0-2.17-.61L74,38.53A16,16,0,0,0,68,37a34.18,34.18,0,0,1-6.36-1.19A2.62,2.62,0,0,0,62.8,37l1.63.75a22.9,22.9,0,0,1-6.27-1.46,8.9,8.9,0,0,1-4.54-3.6l.93.13c.26,0,.23-.09-.09-.35A120.57,120.57,0,0,0,75,34.09a120.26,120.26,0,0,0,20.52-1.67q-.44.39,0,.3l.84.09Q92,38.5,78.6,38.31"/><path class="cls-13" d="M43.29,38.36a31.44,31.44,0,0,0,7.37,2.29l0,.88c0,.35,0,.54.22.57l.22.66q-12-3-18.62-7h1.23a15.92,15.92,0,0,1-.17-3.56l1.14.57,1.19.48,0,1.72A5.14,5.14,0,0,0,36,36.42c.21.06.28-.09.22-.44s.05-.45.22-.4c1,.33,3.31,1.25,6.84,2.78"/><path class="cls-6" d="M36.45,35.58a.54.54,0,0,1,.31-.74.61.61,0,0,0,.31-.75,37.26,37.26,0,0,1,6.8,2.77,22.54,22.54,0,0,0,6.79,2.29l.22,1.36,0,1.59c-.18,0-.25-.22-.22-.57l0-.88a31.44,31.44,0,0,1-7.37-2.29c-3.53-1.53-5.81-2.45-6.84-2.78"/><path class="cls-13" d="M117.56,35.76a68.93,68.93,0,0,1-8.38,4,44.17,44.17,0,0,1-9.84,2.6c-.18,0-.25-.11-.22-.4l0-.66,1.72-.48a1.56,1.56,0,0,1,1.46.48l.88-.57.8-.7.3.35.53.09A1.93,1.93,0,0,0,105.91,39a11.7,11.7,0,0,0,4-1.1,32.9,32.9,0,0,1,3.62-1.45l-.09.44a.78.78,0,0,0-.13.4q2-2.55,3.17-1.5h1.06"/><path class="cls-4" d="M117.39,31.54a5.28,5.28,0,0,1,.44,2.15,3.25,3.25,0,0,1-.44,2.07h-.89l.18-1.85a2.55,2.55,0,0,0-.18-1.71,2.27,2.27,0,0,1-1.5.44c-.35,0-.69.28-1,.83l.22,1.5c0,.64-.12,1.05-.44,1.23a1.12,1.12,0,0,0-.44-1.14,1.09,1.09,0,0,1-.4-1.19c-.56.61-1.9,1.19-4,1.71a7.45,7.45,0,0,0-4.06,2.12l-1.85.39a13.84,13.84,0,0,0-1.72.88,1.47,1.47,0,0,0-1.54,0l-1.42.62a3.25,3.25,0,0,0-3.84.84l.14,1a.83.83,0,0,1-.14.88H93.42V40.65l-3.17.66-3.18.61h-.4c.09.71,1.08,1.89,3,3.57a31,31,0,0,0,4,3.16l1.63,1.24a3,3,0,0,1,1.32,1.54,5.12,5.12,0,0,1-1.67-.8l-1.51-.92-8.73,3.34a44.16,44.16,0,0,0-8,4.05,5.32,5.32,0,0,1-.18,2.16,7.12,7.12,0,0,0-.44,1.89V64.1a.44.44,0,0,1-.44.4H74.8c-.47-.24-.73-.88-.79-1.94l-.27-2.46a5.52,5.52,0,0,0-.35-1.68,4.2,4.2,0,0,1-.31-1.71l-1.32-.35-1.42-.31a1,1,0,0,1,0-.49l.18-.35A68.41,68.41,0,0,0,64,52.48q-4.73-1.75-5.87-2.95a24.68,24.68,0,0,1,3.17-3.47,21.77,21.77,0,0,0,3.18-3.52c0-.21-.2-.28-.53-.22l-.53.22-.22-.62-1.37-.22-1.41-.22-3.57-.83c-.18.05-.25.29-.22.7v1a1.66,1.66,0,0,0-1.06-.22V40.65a1.85,1.85,0,0,0-1.33-.44,2.33,2.33,0,0,1-1.41-.4,2.56,2.56,0,0,0-.22,1.67,3.22,3.22,0,0,1-.22,1.72l-.84-.05a.44.44,0,0,1-.44-.39l-.22-.66,0-1.59-.22-1.36a22.54,22.54,0,0,1-6.79-2.29,37.26,37.26,0,0,0-6.8-2.77.61.61,0,0,1-.31.75.54.54,0,0,0-.31.74c-.17,0-.25.08-.22.4s0,.5-.22.44A5.14,5.14,0,0,1,35.79,35l0-1.72-1.19-.48L33.5,32.2a15.92,15.92,0,0,0,.17,3.56h-1a4.27,4.27,0,0,1-.44-2.11,4.24,4.24,0,0,1,.44-2.11L31,30.48,29.66,29a6.46,6.46,0,0,0,0,4.62h-.84l-.66-.35a.63.63,0,0,1-.4-.66,7.07,7.07,0,0,1,.18-2.78,12.35,12.35,0,0,1,.88-2.11,6.21,6.21,0,0,1-2.91-1.58,10.22,10.22,0,0,0-2.61-1.81v-.61a.6.6,0,0,0,.66-.44l-.3-.4-.36-.44-5.12.71a13.53,13.53,0,0,0-4.41,1.4c-.18-.26-.6-.41-1.28-.44L11,24.36a1.91,1.91,0,0,0,1.15.58l1.41.26v1.94l-.22,1.67-.44.22V25.64a11.85,11.85,0,0,0-3.09-.88L6.58,24A9.58,9.58,0,0,0,4,26.26a1.87,1.87,0,0,0-.66.39,1,1,0,0,1-.8.27L4.5,24.19a15.86,15.86,0,0,1,2.08-2.55c.2.2.92,0,2.16-.62a21.94,21.94,0,0,1,2.91-1.28h1.72l-.84.75a1.45,1.45,0,0,0-.22,1.37,14.56,14.56,0,0,1,5.26-.58l5.51-.08a6.1,6.1,0,0,1,3,2,1.53,1.53,0,0,1-.18-1.14l.53-.09.53-.13A8.18,8.18,0,0,0,30.63,27a31.62,31.62,0,0,1,5,3.92l-1.89-1.14a3.12,3.12,0,0,0-1.94-.53,1.7,1.7,0,0,0,1.58,1.45A1.92,1.92,0,0,1,35.17,32c-.09-.3,0-.44.31-.44h.75a1.72,1.72,0,0,1,.22,1.1c.21.08.43,0,.66-.36s.31-.29.4-.08c.38.38.31.73-.22,1a20.4,20.4,0,0,1,4.24,1.89q.18-.91.66-1a1.79,1.79,0,0,0,.18,1.27l.92.09.58-.53.17.49c0,.23.11.35.22.35l.22-.62,1.5.22a1.8,1.8,0,0,1,1.28.62v.84a1,1,0,0,0,.8-.22.94.94,0,0,1,.88-.18A1.62,1.62,0,0,0,50,37.92c.21.17.38.11.53-.18s.46-.54.75-.48a125.87,125.87,0,0,0,19.68,3V41.7q-2.91-.91-4.37.49l-2.38,3.3L62.62,47a3.13,3.13,0,0,0-1,1.5l-.66.09-.4.08Q68.18,52,74.36,55.21A35,35,0,0,0,82,52.13a43.48,43.48,0,0,1,7.46-3.26c0-.26-.07-.36-.31-.3l-.75-.09-3.71-5c-1.7-2.05-3.65-2.57-5.82-1.54v-1.1A1.15,1.15,0,0,1,79,40l10.32-.88,9.36-1.85c.56.06.84.33.84.83l1-.57a1.18,1.18,0,0,0,.49-1.1l.84.13a1.24,1.24,0,0,0,.66.27l.18-.31V36a1.8,1.8,0,0,1,1.28-.62l1.5-.22.39.62c-.06-.53.09-.81.44-.84.09.36.23.55.4.58l.88-.14q.18,0,.18-.66c0-.38.07-.58.22-.61l.27.57.39.48a5.93,5.93,0,0,1,2-1.1l2.07-1c-.35,0-.5-.09-.44-.35l.22-.7a.9.9,0,0,1,.48.39.58.58,0,0,0,.58.27c-.21-.59,0-.94.48-1.06s.87,0,1,.4a1.08,1.08,0,0,1,1.1-1.15l1.63-.31a1.77,1.77,0,0,1,.45-1.49,7.22,7.22,0,0,0-2.12.92,4.72,4.72,0,0,1-1.72.75l4.94-3.61a9.36,9.36,0,0,0,3.75-4.84h12.49l-3.93.31-4.72-.09c.09.24.37.38.84.44H129v.18a.76.76,0,0,0-.44.44l.22.31v.52h.88c.35,0,.54.05.57.22h-1a.88.88,0,0,0-.7.22,1.63,1.63,0,0,0,.08,1c.15.32.12.54-.08.66-.33-.15-.59-.62-.8-1.41s-.5-1.21-.88-1.32c-.09.76-.59,1-1.5.83a4,4,0,0,1-1.85,2,7.94,7.94,0,0,0-2.17,1.63l.71,1.89a6.59,6.59,0,0,1,.13,2.56.63.63,0,0,1-.4.66l-.66.35c-.59,0-.76-.66-.53-2,.24-1.47.06-2.35-.53-2.64a5.28,5.28,0,0,1-2.73,2.51"/><path class="cls-14" d="M46,42.1l6.09,2.24a19.57,19.57,0,0,0,7.24.93,19,19,0,0,1-4,3,10.74,10.74,0,0,0-3.62,3.34l4,2.51a10.44,10.44,0,0,1,3.62,2.77h-.4l-3.57-2.33a17.94,17.94,0,0,0-4.06-1.89,4.55,4.55,0,0,1,2.52-4l3.84-2.68-2.74-.14-2.78-.3q-12.45-4.66-16.55-6.6-8.78-4.23-13.33-9.42l-.09-.13.31.13c.27.26.22.16-.13-.31l-.7-.79c0-.41-.27-.53-.8-.35L19.9,28l.93-.17,1-.05.83,1.5a6.59,6.59,0,0,1,2.21,1.85l2,2.15a37.89,37.89,0,0,0,8.83,5L46,42.1"/><path class="cls-7" d="M52.34,43.2a3.22,3.22,0,0,0,.22-1.72,2.56,2.56,0,0,1,.22-1.67,2.33,2.33,0,0,0,1.41.4,1.85,1.85,0,0,1,1.33.44V42l.48.17-.48,0V42L53,41c-.18.12-.25.4-.22.84l0,1.1-.44.22m4.24-.88v-1c0-.41,0-.65.22-.7l3.57.83-.84.13-.84.09a2.43,2.43,0,0,0,1.2.49l1.36.35A9.68,9.68,0,0,1,57,42.45l-.39-.13"/><path class="cls-13" d="M52.74,41.88c0-.44,0-.72.22-.84l4,1.41a9.68,9.68,0,0,0,4.28.09l-1.36-.35a2.43,2.43,0,0,1-1.2-.49l.84-.09.84-.13,1.41.22,1.37.22-1,0c-.39,0-.55.11-.49.44-.26.09-.26.14,0,.17s.5.12.44.27c-.64,1.17-2,1.6-4.19,1.27L52.78,43l0-1.1"/><path class="cls-7" d="M87.07,41.92l3.18-.61,3.17-.66v1.67h1.06a.83.83,0,0,0,.14-.88l-.14-1,1.5-.27,1.46-.35V43H98c.21,0,.32.1.35.22L94,43.59,89.19,44a3.05,3.05,0,0,1-1-1.1,2.23,2.23,0,0,0-1.1-1"/><path class="cls-2" d="M78.82,41.92v.4l2,0,2.47,0a7,7,0,0,0,2.26,3.52,7.69,7.69,0,0,1,2.2,3,67.8,67.8,0,0,1-8.29,2.73,13.54,13.54,0,0,0-2.26,1l-2,.71a4.35,4.35,0,0,1-2.08-.66,13.75,13.75,0,0,0-2.33-1.06l-1.24-.09-1.1-.08a24.59,24.59,0,0,1-3-1.46,7.76,7.76,0,0,0-3.09-1.1,7.75,7.75,0,0,1,2.21-3,7.1,7.1,0,0,0,2.21-3.52H69l2,.22v3l-3.79.44a2,2,0,0,0,1,1.27l1.59.84,2.51,2.33a4.29,4.29,0,0,0,2.56,1.45.86.86,0,0,0,.75-.31l.71-.74c1.17-.74,3.44-2,6.79-3.79,0-.5-.39-.76-1-.79s-1-.26-1.1-.7l-1.42.22-1.14.44a52.89,52.89,0,0,0,.22-7q9.44.18,14-1.23L97,37l2.83-.53a12.92,12.92,0,0,1,2.87-.53v.53l-.18.31a1.24,1.24,0,0,1-.66-.27l-.84-.13a1.18,1.18,0,0,1-.49,1.1l-1,.57c0-.5-.28-.77-.84-.83l-9.36,1.85L79,40a1.15,1.15,0,0,0-.22.83v1.1"/><path class="cls-7" d="M71.4,60.05l-2.11-2.11a31.8,31.8,0,0,0-7-3.83l-7.41-3.34,1.41-.84a3.08,3.08,0,0,1,1.81-.4q1.14,1.2,5.87,2.95a68.41,68.41,0,0,1,6.62,2.73l-.18.35a1,1,0,0,0,0,.49l1.42.31,1.32.35a4.2,4.2,0,0,0,.31,1.71,5.52,5.52,0,0,1,.35,1.68l-2.34-.05"/><path class="cls-13" d="M74,63A104.14,104.14,0,0,1,55.08,52.26a1.45,1.45,0,0,1-1.64-.48.89.89,0,0,1,.18-1.41l-.09.53-.13.53a2,2,0,0,0,1.46-.66l7.41,3.34a31.8,31.8,0,0,1,7,3.83l2.11,2.11,2.34.05L74,62.56c.06,1.06.32,1.7.79,1.94l-.62.26-.44.4.58.35.48.48,2.43-1.36a8.48,8.48,0,0,1,2.65-1.19c-.06.18-.3.32-.71.44s-.57.32-.57.62a11,11,0,0,0-1.77,1l-1.81,1L69.9,63.66l1.28,0,1.5.8.67-.71L74,63"/><path class="cls-6" d="M76.08,61.15a7.12,7.12,0,0,1,.44-1.89,5.32,5.32,0,0,0,.18-2.16,44.16,44.16,0,0,1,8-4.05l8.73-3.34-7.59,3.52a41,41,0,0,0-7,4.09,3,3,0,0,1-1.06,2.2l-1.68,1.63"/><path class="cls-9" d="M126,18a65.21,65.21,0,0,0-11-7.79q-8.08-5-23.52-7.61L75,1.52,58.47,2.63Q43,5.23,35,10.24a47.36,47.36,0,0,0-5.78,3.69L23.74,18l-.79,0-.71.18c-.41.06-.59.14-.53.26l.53.4L17.65,19a10.29,10.29,0,0,1-4.06-.57l4.15-.53,4.11-.13a3,3,0,0,1,1.67-.4A27.6,27.6,0,0,1,29,12.57a50.08,50.08,0,0,1,6.84-4.05l2.48-1.14c1.11-.59,1.41-1,.88-1.15l.93-.3,1-.14.13.14L55.61,2.36A61.63,61.63,0,0,1,72.46.51l5.21.05L83.45.51,80.1.29,76.7.07c3,0,6.1,0,9.31.22L85,.56,83.67.51A136.35,136.35,0,0,1,105.3,5.13l1.5.4,1.45.48q-.3-.57.75-.3l1.81.52-.31.22c-.2,0-.32.09-.35.18q6.18,3,8.87,4.62a26.5,26.5,0,0,1,7.24,6.16l5.12.48a14,14,0,0,1,5.07.8l-4,.26-4.5,0,.31-.4c0-.15-.18-.23-.53-.26L126,18"/><path class="cls-2" d="M91.53,2.63a246.44,246.44,0,0,0-33.06,0L75,1.52,91.53,2.63"/><path class="cls-1" d="M72.46.51A61.63,61.63,0,0,0,55.61,2.36L41.26,5.93l-.13-.14A132.37,132.37,0,0,1,57.41,1.44,86.21,86.21,0,0,1,76.7.07l3.4.22,3.35.22L77.67.56,72.46.51"/><path class="cls-2" d="M2.56,13.8a14.39,14.39,0,0,1,3.71-3.21,9.73,9.73,0,0,1,5.82-1.41,19,19,0,0,1,5,1.19c2,.73,3,1.39,3,2,.09,1.09-.85,1.63-2.82,1.63l-5-.35-5.51.13-4.24,0"/><path class="cls-10" d="M17.74,17.94l-4.15.53c-.11,0-.14.1-.08.3l-.36.31c-.35-.85-1-1-2-.48l-2.2,1.32q-6.31,3-8.48,8c.06.24.16.28.31.13L1.28,28a28.07,28.07,0,0,1,7.15,1.45,15.34,15.34,0,0,0,5.83,1L14,30.7c-1.41.23-3.59-.07-6.53-.92A27.07,27.07,0,0,0,0,28.37a4.21,4.21,0,0,1,1.28-2.95l2.34-2.33.57-.88.49-.79a2.89,2.89,0,0,1,1.1-.49L7,20.58a11.72,11.72,0,0,0,1.81-1.32,6.59,6.59,0,0,1,2-1.23L14,17.72l3.4-.31,2.21.22,2.25.18-4.11.13"/><path class="cls-3" d="M10.28,19.61c.65-.38,1.11-.34,1.37.13A21.94,21.94,0,0,0,8.74,21c-1.24.62-2,.82-2.16.62A15.86,15.86,0,0,0,4.5,24.19L2.56,26.92v.22c-1.26.08-1.69.36-1.28.83l-.53.13C.6,28.25.5,28.21.44,28q2.16-5.05,8.48-8c.2.18.66.07,1.36-.31"/><path class="cls-15" d="M136.45,22.25a5.49,5.49,0,0,0,2.83,0l2.47.22a3.72,3.72,0,0,1-1.9.66,4,4,0,0,0-1.94.62c.26,0,.41.17.44.53a.82.82,0,0,1-.22.74h-.22a13.84,13.84,0,0,1-4.59-.79A22.45,22.45,0,0,0,129,23.09v-.18h-1.28c-.47-.06-.75-.2-.84-.44l4.72.09,3.93-.31h.88"/><path class="cls-15" d="M13.59,25.2l-1.41-.26A1.91,1.91,0,0,1,11,24.36l1.46-.22c.68,0,1.1.18,1.28.44a13.53,13.53,0,0,1,4.41-1.4l5.12-.71.36.44.3.4a.6.6,0,0,1-.66.44L18.58,24l-5,1v.18"/><path class="cls-12" d="M4,26.26A9.58,9.58,0,0,1,6.58,24l3.26.79a11.85,11.85,0,0,1,3.09.88V29c0-.38-.35-.63-1-.75L10,28,7.11,27A10.35,10.35,0,0,0,4,26.26"/><path class="cls-13" d="M14,28.81,8.52,28.5a31.77,31.77,0,0,0-6-1.36v-.22a1,1,0,0,0,.8-.27A1.87,1.87,0,0,1,4,26.26a10.35,10.35,0,0,1,3.09.7L10,28l2,.31c.62.12.94.37,1,.75l.44-.22.4-.09c.12-.06.19,0,.22.09"/><path class="cls-6" d="M147.44,27.14a26,26,0,0,0-6,1.32,12.52,12.52,0,0,1-4.46.61l.09,0V25.42c0-.09.18-.13.44-.13l.4-.27h.22l2.91-.39a22.77,22.77,0,0,1,2.6-.66l1.73,1.67a4.11,4.11,0,0,0,2.07,1.28v.22M136,28.81c.06-.18.19-.18.4,0l.39.22-.79-.22"/><path class="cls-7" d="M113.77,36.2c.32-.18.47-.59.44-1.23l-.22-1.5c.32-.55.66-.83,1-.83a2.27,2.27,0,0,0,1.5-.44,2.55,2.55,0,0,1,.18,1.71l-.18,1.85q-1.14-1-3.17,1.5a.78.78,0,0,1,.13-.4l.09-.44a32.9,32.9,0,0,0-3.62,1.45,11.7,11.7,0,0,1-4,1.1,25.08,25.08,0,0,1,4.24-2.64q3.57-1.84,3.62-.13"/><path class="cls-6" d="M92.59,37.92q-4.55,1.41-14,1.23a52.89,52.89,0,0,1-.22,7l1.14-.44,1.42-.22c.08.44.45.67,1.1.7s1,.29,1,.79c-3.35,1.79-5.62,3.05-6.79,3.79l-.71.74a.86.86,0,0,1-.75.31,4.29,4.29,0,0,1-2.56-1.45L69.73,48l-1.59-.84a2,2,0,0,1-1-1.27L71,45.49V39.81q-.18-.75-1.14-.75l-1.59.09-6-.31-4.86-.92,5.74.48,6.14.13.13-.13-.36-.09L66.77,38l-2.34-.31L62.8,37a2.62,2.62,0,0,1-1.15-1.19A34.18,34.18,0,0,0,68,37,16,16,0,0,1,74,38.53l2.47-.83a1.71,1.71,0,0,1,2.17.61,33.37,33.37,0,0,0,7.1.18l6.89-.57"/><path class="cls-15" d="M64.43,42.54a21.77,21.77,0,0,1-3.18,3.52,24.68,24.68,0,0,0-3.17,3.47,3.08,3.08,0,0,0-1.81.4l-1.41.84a2,2,0,0,1-1.46.66l.13-.53.09-.53a38.43,38.43,0,0,0,9.75-7.83l.53-.22c.33-.06.5,0,.53.22"/><path class="cls-7" d="M96.82,51.43l-10,6.07Q81,60.85,76.26,63l0,.66c0,.3,0,.43-.22.4V61.15l1.68-1.63a3,3,0,0,0,1.06-2.2,41,41,0,0,1,7-4.09l7.59-3.52,1.51.92a5.12,5.12,0,0,0,1.67.8,3,3,0,0,0-1.32-1.54l-1.63-1.24,2,1a3.06,3.06,0,0,1,1.19,1.76"/><path class="cls-13" d="M113.86,13.89q2.73,1.71,2.64,4.14l-.44-.31c-.14-.15-.2,0-.17.31a5.54,5.54,0,0,1-2.74,5.28l-.88.35a2.2,2.2,0,0,0-.84.31l-1,1.1-.93,1a41.77,41.77,0,0,1-6.13,3.21L96.82,32a1.61,1.61,0,0,1-1.28.44A120.26,120.26,0,0,1,75,34.09a120.57,120.57,0,0,1-20.56-1.67l-.71-.14-.57-.3a72.11,72.11,0,0,1-9.75-4.45,22.07,22.07,0,0,1-3.18-1.45L39.41,25,38.57,24l-.93-.31-1-.35a4.57,4.57,0,0,1-1.32-1.37l-1-1.58.62-.44a.78.78,0,0,0,.44-.62,1.14,1.14,0,0,1-1-1l-.05-1.54-.44.8c-.2.32-.34.39-.39.22a3.3,3.3,0,0,1,.08-1.28l.31-1A57.53,57.53,0,0,1,63.15,5.79q12-.57,23.92,0A50.37,50.37,0,0,1,98.54,7.47a59.82,59.82,0,0,1,9.49,3.6l5.83,2.82"/><path class="cls-15" d="M78.82,41.92c2.17-1,4.12-.51,5.82,1.54l3.71,5,.75.09c.24-.06.34,0,.31.3A43.48,43.48,0,0,0,82,52.13a35,35,0,0,1-7.59,3.08Q68.18,52,60.59,48.65l.4-.08.66-.09a3.13,3.13,0,0,1,1-1.5l1.59-1.49,2.38-3.3Q68,40.78,71,41.7v.84l-2-.22H66.73a7.1,7.1,0,0,1-2.21,3.52,7.75,7.75,0,0,0-2.21,3A7.76,7.76,0,0,1,65.4,50a24.59,24.59,0,0,0,3,1.46l1.1.08,1.24.09a13.75,13.75,0,0,1,2.33,1.06,4.35,4.35,0,0,0,2.08.66l2-.71a13.54,13.54,0,0,1,2.26-1,67.8,67.8,0,0,0,8.29-2.73,7.69,7.69,0,0,0-2.2-3,7,7,0,0,1-2.26-3.52l-2.47,0-2,0v-.4"/><path class="cls-2" d="M143.51,14l-5.38-.18-4.86.44c-2.08,0-3.14-.47-3.17-1.49,0-.85,1.39-1.71,4.28-2.56s5.12-1,6.71-.61A11.3,11.3,0,0,1,147.66,14l-4.15,0"/><path class="cls-2" d="M12.93,41.48A18.08,18.08,0,0,1,7,40.87q-3.49-1-4.24-2.95a3.39,3.39,0,0,1,2.43-1.1l3.09-.18a27.85,27.85,0,0,0,6.13-1.94l3-1.49a4.8,4.8,0,0,1,2.69-.57,2.34,2.34,0,0,1,1.33.74,1.76,1.76,0,0,1,.62,1.15q0,.57-1.68,2L18,38.31l-2.87,1.41a4.34,4.34,0,0,0-2.21,1.76"/><path class="cls-2" d="M147.44,37.92a2.46,2.46,0,0,1-1.68,2.15l-3.4,1-2.42.75-2.65-.09a4.34,4.34,0,0,0-2.21-1.76l-2.87-1.41-2.33-1.76c-1.12-.94-1.7-1.55-1.73-1.85a1.63,1.63,0,0,1,1-1.67l2.38-.22,4.59,1.85a24.19,24.19,0,0,0,5.61,1.94l3.09.22a4.52,4.52,0,0,1,2.6.88"/><path class="cls-2" d="M27.36,37.48q-.84,1.89-4.32,4.18-4,2.6-5.25.26a4.64,4.64,0,0,1,1.72-2l2.56-1.63a20.89,20.89,0,0,1,2.6-1.41,2.29,2.29,0,0,1,2.69.58"/><path class="cls-2" d="M132.39,41.92q-1.19,2.51-5,.09a12.73,12.73,0,0,1-4.5-4.31q1.5-1.59,5,.48a16.89,16.89,0,0,1,4.54,3.74"/></g></g></g></g></svg>