<?xml version="1.0" encoding="utf-8"?>
<!-- Generator: Adobe Illustrator 24.0.1, SVG Export Plug-In . SVG Version: 6.00 Build 0)  -->
<svg version="1.1" id="Camada_1" xmlns="http://www.w3.org/2000/svg" xmlns:xlink="http://www.w3.org/1999/xlink" x="0px" y="0px"
	 viewBox="0 0 75 13" style="enable-background:new 0 0 75 13;" xml:space="preserve">
<style type="text/css">
	.st0{fill:url(#SVGID_1_);}
</style>
<g transform="matrix( 1, 0, 0, 1, 0,0) ">
	<g>
		<g id="Layer3_0_FILL">
			
				<linearGradient id="SVGID_1_" gradientUnits="userSpaceOnUse" x1="66.6256" y1="7.1087" x2="8.7756" y2="7.1087" gradientTransform="matrix(1 0 0 -1 0 14)">
				<stop  offset="0" style="stop-color:#C1F998"/>
				<stop  offset="1" style="stop-color:#72FF01"/>
			</linearGradient>
			<path class="st0" d="M65.3,3.7c-0.9-0.9-1.9-1.3-3.2-1.3h-49c-1.2,0-2.3,0.4-3.1,1.3C9.2,4.6,8.8,5.6,8.8,6.9v0.1
				c0,1.2,0.4,2.3,1.3,3.1c0.9,0.9,1.9,1.3,3.1,1.3h49c1.2,0,2.3-0.4,3.2-1.3s1.3-1.9,1.3-3.1V6.9C66.6,5.6,66.2,4.6,65.3,3.7z"/>
		</g>
	</g>
</g>
</svg>
