<?xml version="1.0" encoding="utf-8"?>
<!-- Generator: Adobe Illustrator 24.0.1, SVG Export Plug-In . SVG Version: 6.00 Build 0)  -->
<svg version="1.1" id="Camada_1" xmlns="http://www.w3.org/2000/svg" xmlns:xlink="http://www.w3.org/1999/xlink" x="0px" y="0px"
	 viewBox="0 0 75 13" style="enable-background:new 0 0 75 13;" xml:space="preserve">
<style type="text/css">
	.st0{filter:url(#Adobe_OpacityMaskFilter);}
	.st1{fill:#FFFFFF;}
	.st2{mask:url(#Mask_Mask_1_2_);}
	.st3{fill:#333333;}
	.st4{fill:none;stroke:#000000;stroke-linecap:round;stroke-linejoin:round;}
</style>
<defs>
	<filter id="Adobe_OpacityMaskFilter" filterUnits="userSpaceOnUse" x="6.8" y="0.2" width="62.1" height="12.9">
		<feColorMatrix  type="matrix" values="1 0 0 0 0  0 1 0 0 0  0 0 1 0 0  0 0 0 1 0"/>
	</filter>
</defs>
<mask maskUnits="userSpaceOnUse" x="6.8" y="0.2" width="62.1" height="12.9" id="Mask_Mask_1_2_">
	<g transform="matrix( 1, 0, 0, 1, 0,0) " class="st0">
		<g>
			<g id="Mask_2_MASK_0_FILL_2_">
				<path class="st1" d="M65.3,3.7c-0.9-0.9-1.9-1.3-3.2-1.3h-49c-1.2,0-2.3,0.4-3.1,1.3C9.2,4.6,8.8,5.6,8.8,6.9v0.1
					c0,1.2,0.4,2.3,1.3,3.2c0.9,0.9,1.9,1.3,3.1,1.3h49c1.2,0,2.3-0.4,3.2-1.3s1.3-1.9,1.3-3.2V6.9C66.6,5.6,66.2,4.6,65.3,3.7z"/>
			</g>
		</g>
	</g>
</mask>
<g class="st2">
	<g transform="matrix( 1, 0, 0, 1, 0,0) ">
		<g>
			<g id="Layer2_0_FILL">
				<path class="st3" d="M68.4,0.7H7.3c1.6,4,1.6,7.9,0,11.8h61.1V0.7z"/>
			</g>
		</g>
		<g>
			<path id="Layer2_0_1_STROKES" class="st4" d="M7.3,0.7h61.1v11.8H7.3C8.9,8.6,8.9,4.6,7.3,0.7z"/>
		</g>
	</g>
</g>
</svg>
