<?xml version="1.0" encoding="utf-8"?>
<!-- Generator: Adobe Illustrator 24.0.1, SVG Export Plug-In . SVG Version: 6.00 Build 0)  -->
<svg version="1.1" id="Camada_1" xmlns="http://www.w3.org/2000/svg" xmlns:xlink="http://www.w3.org/1999/xlink" x="0px" y="0px"
	 viewBox="0 0 171.918 147.33" style="enable-background:new 0 0 171.918 147.33;" xml:space="preserve">
<style type="text/css">
	.st0{fill-rule:evenodd;clip-rule:evenodd;fill:#CCDDEB;}
	.st1{fill-rule:evenodd;clip-rule:evenodd;fill:#BCB9C6;}
	.st2{fill-rule:evenodd;clip-rule:evenodd;fill:#84A8C2;}
	.st3{fill-rule:evenodd;clip-rule:evenodd;fill:#CCDDE5;}
	.st4{fill-rule:evenodd;clip-rule:evenodd;fill:#CDE1E8;}
	.st5{fill-rule:evenodd;clip-rule:evenodd;fill:#D3CFE2;}
	.st6{fill:none;stroke:#84A8C2;stroke-width:0.35;stroke-linecap:round;}
	.st7{fill:none;stroke:#84A8C2;stroke-width:0.3;stroke-linecap:round;}
	.st8{fill:none;stroke:#84A8C2;stroke-width:0.45;stroke-linecap:round;}
	.st9{fill:none;stroke:#84A8C2;stroke-width:0.25;stroke-linecap:round;}
	.st10{fill:none;stroke:#84A8C2;stroke-width:0.5;stroke-linecap:round;}
	.st11{fill:none;stroke:#84A8C2;stroke-width:0.55;stroke-linecap:round;}
	.st12{fill:none;stroke:#84A8C2;stroke-width:0.4;stroke-linecap:round;}
	.st13{fill:none;stroke:#84A8C2;stroke-width:0.6;stroke-linecap:round;}
	.st14{fill:none;stroke:#84A8C2;stroke-width:0.65;stroke-linecap:round;}
	.st15{fill:none;stroke:#84A8C2;stroke-width:0.7;stroke-linecap:round;}
	.st16{opacity:0.11;fill-rule:evenodd;clip-rule:evenodd;fill:#28112C;}
</style>
<g transform="matrix(1.0, 0.0, 0.0, 1.0, 0.0, -0.05)">
	<g transform="matrix(1.0, 0.0, 0.0, 1.0, 0.0, 0.05)">
		<g id="shape0" transform="matrix(1.0, 0.0, 0.0, 1.0, 0.0, -0.05)">
			<path class="st0" d="M164.795,65.172c-0.967,0.167-1.667,0.6-2.1,1.3l-5.95-0.55c-2.467-0.367-4.25,0.167-5.35,1.6
				c-1.6,0-2.933,0.583-4,1.75c-0.333,0.633-0.383,1.45-0.15,2.45l0.55,2.4l-0.85,0.55l-0.1-0.4c-0.367,0-0.683,0.133-0.95,0.4
				l-0.75,0.6l-0.1,0.1c-0.133-1.367-0.917-2.65-2.35-3.85l0.3-1.75c0.2-0.733,0.15-1.333-0.15-1.8
				c-2.167-1.5-5.967-2.183-11.4-2.05c-5.433,0.167-9.267-0.517-11.5-2.05l0.2-0.7c1.033-0.467,1.783-1.25,2.25-2.35
				c0.433-1,0.483-1.85,0.15-2.55c-1.4-2.867-4.517-4.55-9.35-5.05l-11.75-0.25c-0.2-0.367-0.083-0.767,0.35-1.2
				c-1.1-1.733-3.217-2.483-6.35-2.25l-7.75,0.7l-0.25,0.2l0.1-0.35l-1.4-0.55l-1.7-0.2c-0.767-1.4-1.567-2.283-2.4-2.65
				c-1.267-0.467-2.717-0.35-4.35,0.35c-1.833,0.8-2.95,1.167-3.35,1.1c-0.6-0.067-1.283-0.567-2.05-1.5
				c-0.633-0.767-1.383-1.067-2.25-0.9l-0.1,0.15l-0.4-1.05l-0.5-0.95l0.6-0.25l12.4-7.8c4.9-3.1,9.133-5.25,12.7-6.45
				c2.3-0.767,6.15-1.1,11.55-1c4.667,0.1,8.667,0.45,12,1.05l3.6,5.4c1.633,1.3,3.05,3.017,4.25,5.15l2.8,5.9
				c0.467,0,0.95,0.183,1.45,0.55c1.967,0.867,4.75,1.267,8.35,1.2l8.35,0.7l8,2.9c1.067-0.433,1.733-0.8,2-1.1
				c2.133,0.367,4.067,1.783,5.8,4.25l4.4,5.95c-0.133,0.5-0.1,1.283,0.1,2.35c0.2,1.033,0.183,1.833-0.05,2.4L164.795,65.172
				 M92.195,44.072c0.567-0.3,0.783-0.783,0.65-1.45c-0.567-0.267-1.133-0.183-1.7,0.25l0.9-0.05c0.367-0.033,0.55,0.05,0.55,0.25
				c0.133,0.5-0.1,0.733-0.7,0.7l-0.95,0.05C91.211,44.222,91.628,44.305,92.195,44.072 M110.145,45.272
				c-0.633-0.033-1.25,0.1-1.85,0.4l-1.55,0.8l0.25,2.15c0.133,0.767,0.383,1.317,0.75,1.65c2.033,0.933,3.867,0.383,5.5-1.65
				c0.667-0.8,0.9-1.517,0.7-2.15c-0.2-0.733-0.917-1.133-2.15-1.2c1.6,0.433,2.267,1.133,2,2.1c-0.233,0.833-0.983,1.567-2.25,2.2
				c-1.3,0.633-2.4,0.767-3.3,0.4c-1.1-0.433-1.517-1.533-1.25-3.3c0.2-0.267,0.9-0.617,2.1-1.05L110.145,45.272 M134.195,60.072
				c-0.3-0.133-0.667-0.033-1.1,0.3c-0.4,0.3-0.5,0.583-0.3,0.85l0.9,0.25c0.367-0.033,0.65-0.167,0.85-0.4
				C134.711,60.738,134.595,60.405,134.195,60.072"/>
			<path class="st1" d="M126.145,39.972c-1.2-2.133-2.617-3.85-4.25-5.15l-3.6-5.4c-0.2-1.033-0.817-1.7-1.85-2l-2.8-0.35
				l-12.95-0.6l-4.8,0.1c-1.833,0.133-3.35,0.5-4.55,1.1l-3.05,1.85c-1.333,0.933-2.4,1.6-3.2,2l-7.35,4.15
				c-2.933,1.667-5.6,2.833-8,3.5l-2.75,1c-0.9,0.433-1.683,1.05-2.35,1.85l-1.5-1.35c0.2-1.367,0.267-2.4,0.2-3.1
				c2.2-0.933,7-3.717,14.4-8.35c5.867-3.633,10.917-5.867,15.15-6.7l0.25-0.45l0.35-1.65l0.5-0.45l1.25-0.3l1.25,0.1l0.2,0.25
				l0.45,1.05l0.2,1.1l0.2,0.55l0.3,0.5l11.2,0.95c4.867,0.167,8.55,0.75,11.05,1.75c1.533,0.567,2.867,1.7,4,3.4l3.75,6.25
				c1.833,2.6,3.533,3.75,5.1,3.45l2.9,1.15l3.05,0.1l0.45,0.35c0,0.4,0.083,0.667,0.25,0.8l5.35-0.75l5-0.4
				c2.3,0.5,3.783,1.617,4.45,3.35l2.3,6.15l0.4,0.35c-0.267,0.3-0.933,0.667-2,1.1l-8-2.9l-8.35-0.7
				c-3.6,0.067-6.383-0.333-8.35-1.2c-0.5-0.367-0.983-0.55-1.45-0.55L126.145,39.972"/>
			<path class="st2" d="M144.945,76.922l-0.85,0.05l-0.85-0.05c-1.367,0.367-2.083,1.567-2.15,3.6l-1.75,1.9
				c-0.5,0.667-0.633,1.483-0.4,2.45c0.1,0.4,0.583,0.967,1.45,1.7c0.8,0.7,1.183,1.333,1.15,1.9c1.933,0.567,3.433,1.2,4.5,1.9
				c1.367,0.9,2.267,2.1,2.7,3.6l2.55-2c1-0.833,1.683-1.683,2.05-2.55c-0.267-0.9-1.183-1.733-2.75-2.5
				c-1.567-0.8-2.5-1.65-2.8-2.55c-3-0.367-5.233-1.333-6.7-2.9c-0.033-0.267,0.017-0.383,0.15-0.35l0.1,0.35
				c1.733,1.533,4.05,2.417,6.95,2.65c0.1,1.067,0.983,1.983,2.65,2.75c1.667,0.733,2.533,1.667,2.6,2.8l0.65-0.35l0.8-0.15
				c-2.5,1.967-4.15,3.4-4.95,4.3c-1.567,1.867-2.467,4.033-2.7,6.5l-0.15-0.35l-0.35,0.1c-0.267-0.433-1.9-1.95-4.9-4.55
				c-2.133-1.9-3.1-3.7-2.9-5.4l0.6-0.1l-0.55-0.15c0.1-0.633,0.367-1.317,0.8-2.05l-1.3-2.1c-0.3-0.733-0.433-1.633-0.4-2.7
				l0.85-0.95c0.333-0.367,0.7-0.6,1.1-0.7c-0.367-1.433,0.033-2.617,1.2-3.55c0.7-0.567,1.9-1.15,3.6-1.75v-0.45l0.1,0.1l0.1-0.1
				l0.75-0.6c0.267-0.267,0.583-0.4,0.95-0.4l0.1,0.4l0.15,0.35c-0.5-0.1-0.9,0.117-1.2,0.65L144.945,76.922 M139.645,89.672
				c0.067,2.067,1.1,3.867,3.1,5.4c2.467,1.867,3.917,3.267,4.35,4.2c-0.067-0.567-0.017-1.167,0.15-1.8l0.3-1.6
				c-0.6-0.867-1.633-1.733-3.1-2.6c0.7,0,1.35,0.3,1.95,0.9c0.733,0.733,1.283,1.15,1.65,1.25c-0.033-1.367-1.183-2.583-3.45-3.65
				c-2.467-1.2-3.883-2.383-4.25-3.55c-0.267,1.167,0.083,2.233,1.05,3.2l2.8,2.05c-0.933-0.233-1.8-0.75-2.6-1.55L139.645,89.672
				 M145.395,90.322c-2.233-0.933-3.75-1.633-4.55-2.1c0.433,1.2,1.667,2.3,3.7,3.3c2.167,1.033,3.5,2.017,4,2.95
				C148.345,92.772,147.295,91.388,145.395,90.322"/>
			<path class="st3" d="M96.595,99.622c-1.667,0.3-2.433,1.133-2.3,2.5l0.15,0.55c0.9,0.567,1.917,0.733,3.05,0.5
				c1.167-0.233,1.933-0.867,2.3-1.9C99.361,99.905,98.295,99.355,96.595,99.622 M89.545,88.172l5.75,0.95c1.933,0.2,3.4,0.2,4.4,0
				l0.05,1.8c0.6,2.167,1.083,3.483,1.45,3.95c0.7,0.9,1.983,1.217,3.85,0.95l8.3-1c3.333-0.667,5.617-1.867,6.85-3.6l0.05-0.1
				c0.367-0.167,0.517-0.533,0.45-1.1l4.85,0.2c0.933-0.267,1.95-0.9,3.05-1.9l2.65-2.2l0.25-0.05c0.667-0.2,1.517-0.2,2.55,0
				l2.95,0.7c0.1,0.5,0.35,1.083,0.75,1.75c0.433,0.733,0.867,1.15,1.3,1.25c-0.2,1.7,0.767,3.5,2.9,5.4c3,2.6,4.633,4.117,4.9,4.55
				l0.35-0.1c-0.267,0.467-1.133,1.217-2.6,2.25c-1.2,0.867-1.833,1.817-1.9,2.85c-1.933,0.8-3.417,1.617-4.45,2.45
				c-1.5,1.133-2.5,2.483-3,4.05l-4.5-0.25c-1.8-0.133-3.2,0.283-4.2,1.25c-2.5-1.367-4.417-1.367-5.75,0h-0.35
				c-1.033-1.167-2.467-1.733-4.3-1.7l-4.75,0.8l-1.5,1.25l-1.4,1.4c-0.333,1.2-1.133,1.733-2.4,1.6l-3.4-0.25l-0.9-0.6l-0.9-0.6
				c-1.7-0.2-3.317,0.017-4.85,0.65c-1.7,0.7-2.883,1.767-3.55,3.2l-7.9-1.15c-3.133-0.133-5.617,0.683-7.45,2.45
				c-1.067,1.167-1.817,2.35-2.25,3.55c-0.533,1.467-0.55,2.833-0.05,4.1c-2.533,2.6-4.15,5.283-4.85,8.05
				c-1.267,0.667-3.3,1.6-6.1,2.8c-2.333,1.167-4.033,2.533-5.1,4.1c-1.367,0.167-3.617-0.15-6.75-0.95
				c-2.4-0.6-4.467-0.383-6.2,0.65c-1.1,0.967-1.833,1.5-2.2,1.6v-0.25c-1.3-0.567-2.783-0.867-4.45-0.9
				c-1.833-0.033-3.317,0.267-4.45,0.9l-2.1-1.15l-2.7-0.05c-0.467-2.267-1.85-3.917-4.15-4.95c-2.367-1.067-4.817-1.1-7.35-0.1
				l-1.75-2.55c-0.8-0.833-1.817-1.25-3.05-1.25c-0.9-2.367-2.417-3.567-4.55-3.6c-0.367-1.7-0.8-3-1.3-3.9
				c-0.667-1.2-1.6-1.983-2.8-2.35c0.233-1.1,1.15-2.9,2.75-5.4c1.3-2.1,1.9-4.217,1.8-6.35l-0.35,0.1l4.7-2.25
				c2-0.967,3.6-2.017,4.8-3.15c4.867-4.567,11.15-8.967,18.85-13.2c6.467-3.567,13.4-6.75,20.8-9.55c2.467-0.933,5.333-1.4,8.6-1.4
				c3.033-0.033,5.683,0.317,7.95,1.05c0.9,0.3,2.017,0.783,3.35,1.45l2.9,0.35l1.9,1.4l2.1,1.65L89.545,88.172 M130.745,99.972
				l-1.4-0.85c-0.2,0.067,0.117,0.433,0.95,1.1c-0.167,0.4-0.583,0.617-1.25,0.65c-0.633,0.067-1.1-0.067-1.4-0.4
				c0.767-0.567,0.95-0.867,0.55-0.9c-0.367,0-0.633,0.367-0.8,1.1c0.567,0.4,1.217,0.533,1.95,0.4
				C130.078,100.938,130.545,100.572,130.745,99.972 M29.295,100.372l4.75,0.2c3.833,0.033,5.667-1.2,5.5-3.7
				c-0.033-0.467-0.233-0.917-0.6-1.35l-1.05-1.3c0.8-0.9,1.05-1.317,0.75-1.25c-0.267,0.1-0.6,0.6-1,1.5l1.1,1.2
				c0.367,0.4,0.567,0.867,0.6,1.4c0.067,2.333-1.85,3.433-5.75,3.3c-4.667-0.2-7.317-0.017-7.95,0.55
				C26.345,100.522,27.561,100.338,29.295,100.372 M62.095,83.072c-2.067,1.1-3.217,2.85-3.45,5.25
				c-0.267,2.533,0.967,4.017,3.7,4.45c0.233,1.633,1.45,2.8,3.65,3.5l-0.25-0.15c-0.833-0.367-1.5-0.917-2-1.65l-1.4-1.95
				c-2.767-0.4-3.883-1.917-3.35-4.55C59.495,85.672,60.528,84.038,62.095,83.072 M50.595,87.022c-0.5,0.867-0.983,2.067-1.45,3.6
				c-0.633,0.3-2,0.533-4.1,0.7c-1.867,0.133-3.133,0.45-3.8,0.95c0.733-0.3,2.167-0.55,4.3-0.75c1.967-0.2,3.333-0.5,4.1-0.9
				c-0.067-0.567,0.1-1.267,0.5-2.1L50.595,87.022 M45.045,99.222c-1.433,0.033-2.65,0.283-3.65,0.75c-1.333,0.6-2.167,1.5-2.5,2.7
				c-1.733-0.1-3.2,0.533-4.4,1.9c-1.2,1.367-1.517,2.883-0.95,4.55c-1.433,1.3-2.25,3.15-2.45,5.55
				c-0.1,1.567,0.083,3.583,0.55,6.05l-0.7,2.05v-0.25c-0.633,0.767-0.767,1.7-0.4,2.8l0.85,2.95l0.55,0.3
				c0.2,0.167,0.417,0.233,0.65,0.2v-0.25c6.7,1.733,11.267,2.2,13.7,1.4c5-1.567,8.967-4.267,11.9-8.1
				c3.233-4.3,4.283-9.017,3.15-14.15c-0.233-1.067-1.333-2.783-3.3-5.15c-1.733-2.067-2.55-4.05-2.45-5.95l-0.2-0.2
				c0.067-1.4-0.383-2.533-1.35-3.4c-0.833-0.767-1.817-1.133-2.95-1.1c-1.567,0.067-2.867,1-3.9,2.8
				C46.628,95.705,45.911,97.222,45.045,99.222 M73.145,98.422c0.967,0.733,1.367,1.817,1.2,3.25c-0.1,1-0.767,2.017-2,3.05
				c-1.333,1.133-2.1,1.95-2.3,2.45l3.25-3.05c1.167-1.267,1.6-2.65,1.3-4.15c-0.2-1.033-0.8-1.767-1.8-2.2l-3.3-0.7
				C71.228,97.438,72.445,97.888,73.145,98.422 M24.545,112.572l1.95,0.05c0.733-0.233,1.083-0.683,1.05-1.35l-0.7-0.45
				c-0.567-0.167-1.133-0.05-1.7,0.35C24.545,111.572,24.345,112.038,24.545,112.572"/>
			<path class="st1" d="M139.645,89.672l1.95,2.25c0.8,0.8,1.667,1.317,2.6,1.55l-2.8-2.05c-0.967-0.967-1.317-2.033-1.05-3.2
				c0.367,1.167,1.783,2.35,4.25,3.55c2.267,1.067,3.417,2.283,3.45,3.65c-0.367-0.1-0.917-0.517-1.65-1.25
				c-0.6-0.6-1.25-0.9-1.95-0.9c1.467,0.867,2.5,1.733,3.1,2.6l-0.3,1.6c-0.167,0.633-0.217,1.233-0.15,1.8
				c-0.433-0.933-1.883-2.333-4.35-4.2C140.745,93.538,139.711,91.738,139.645,89.672"/>
			<path class="st4" d="M101.795,51.772c-0.433,0.433-0.55,0.833-0.35,1.2l11.75,0.25c4.833,0.5,7.95,2.183,9.35,5.05
				c0.333,0.7,0.283,1.55-0.15,2.55c-0.467,1.1-1.217,1.883-2.25,2.35l-0.2,0.7c2.233,1.533,6.067,2.217,11.5,2.05
				c5.433-0.133,9.233,0.55,11.4,2.05c0.3,0.467,0.35,1.067,0.15,1.8l-0.3,1.75c1.433,1.2,2.217,2.483,2.35,3.85l-0.1-0.1v0.45
				c-1.7,0.6-2.9,1.183-3.6,1.75c-1.167,0.933-1.567,2.117-1.2,3.55c-0.4,0.1-0.767,0.333-1.1,0.7l-0.85,0.95
				c-0.033,1.067,0.1,1.967,0.4,2.7l1.3,2.1c-0.433,0.733-0.7,1.417-0.8,2.05c-0.4-0.2-0.8-0.667-1.2-1.4l-0.9-1.6
				c-2.233-1.233-4.15-1.367-5.75-0.4c-0.633,0.233-1.55,0.867-2.75,1.9c-1.267,1.133-2.25,1.867-2.95,2.2l-0.8,0.15l-2.3-0.15
				l-1.75-0.25c0.533-0.5,0.867-1.25,1-2.25l0.3-2.5c0.667-1.3,1.267-3,1.8-5.1c0.6-2.367,0.733-4.05,0.4-5.05l-0.4-1.25v-0.9
				c0.233-1.333-0.017-2.6-0.75-3.8c-0.7-1.1-1.617-1.85-2.75-2.25c-2.867-1.067-4.733,0.25-5.6,3.95l-3.8-0.1l-0.3,0.45v-0.25
				c-2.133-0.233-3.65,0.617-4.55,2.55c-0.733,2.4-1.45,4.033-2.15,4.9h0.25l-1.9,2.8c-0.8,1.1-1.3,2.067-1.5,2.9
				c-0.567,1.533-0.9,3.15-1,4.85l-10.2-0.75c-2.633-0.567-4.8-1.267-6.5-2.1l-1.45-1.5c2.167-0.367,4.617-1.917,7.35-4.65l6-5.9
				l0.05-2.7l-0.5-0.55c-0.433-0.1-0.867-0.333-1.3-0.7l-0.3-0.45c0.933-1.633,1.4-3.55,1.4-5.75c-0.033-2.233-0.55-4.083-1.55-5.55
				l0.1-0.35c-0.133-0.633-0.6-1.45-1.4-2.45c-0.733-0.9-1.15-1.767-1.25-2.6l-2.4-2.4l-0.35-0.1l0.25-0.2l7.75-0.7
				C98.578,49.288,100.695,50.038,101.795,51.772"/>
			<path class="st1" d="M140.195,37.272l-0.7-0.4h-0.2l-0.6-0.15c-1.867-1.067-4.7-3.35-8.5-6.85c-3.367-3.167-5.483-5.333-6.35-6.5
				l-7.6-1.7c-3.167-0.633-5.567-1.367-7.2-2.2c0.067-0.333,0.283-0.633,0.65-0.9l0.9-0.7c2.033-0.2,4.4,0,7.1,0.6l6.9,1.75
				l7.9,8.45C136.895,33.372,139.461,36.238,140.195,37.272"/>
			<path class="st5" d="M139.545,7.922c0,3.533-0.1,5.833-0.3,6.9c-2.2,1.8-4.733,2.767-7.6,2.9c-2.667,0.133-5.35-0.45-8.05-1.75
				c0.033-0.933-0.367-2.3-1.2-4.1c0.5-2.433,1.967-4.4,4.4-5.9c1.4-0.867,3.8-1.85,7.2-2.95l3,2.2
				C138.195,6.155,139.045,7.055,139.545,7.922"/>
			<path class="st1" d="M139.345,37.022c0.167,0.467,0.167,1.017,0,1.65l-0.45,1.6l-3.05-0.1l-2.9-1.15l1.15-2l2.35-0.2l2.25-0.1
				L139.345,37.022"/>
			<path class="st2" d="M139.645,89.672l-0.6,0.1l0.05-0.25L139.645,89.672"/>
			<path class="st2" d="M137.895,88.122c0.4,0.733,0.8,1.2,1.2,1.4l-0.05,0.25c-0.433-0.1-0.867-0.517-1.3-1.25
				c-0.4-0.667-0.65-1.25-0.75-1.75l-2.95-0.7c-1.033-0.2-1.883-0.2-2.55,0l-0.25,0.05c1.6-0.967,3.517-0.833,5.75,0.4
				L137.895,88.122"/>
			<path class="st1" d="M138.695,36.722l-2.25,0.1l-2.35,0.2l-1.15,2c-1.567,0.3-3.267-0.85-5.1-3.45l-3.75-6.25
				c-1.133-1.7-2.467-2.833-4-3.4c-2.5-1-6.183-1.583-11.05-1.75l-11.2-0.95l-0.3-0.5l-0.2-0.55l-0.2-1.1l-0.45-1.05l-0.2-0.25
				l-1.25-0.1l-1.25,0.3l-0.5,0.45l-0.35,1.65l-0.25,0.45c-4.233,0.833-9.283,3.067-15.15,6.7c-7.4,4.633-12.2,7.417-14.4,8.35
				c-0.267-1.9-0.233-4.017,0.1-6.35l5.9-1.5l5.45-2.05c1.233-0.5,3.033-2,5.4-4.5c2.133-2.233,4.167-3.533,6.1-3.9l4.75-0.45
				c1.8-0.267,3.217-0.833,4.25-1.7h7.7l7.6,0.75l-0.9,0.7c-0.367,0.267-0.583,0.567-0.65,0.9c1.633,0.833,4.033,1.567,7.2,2.2
				l7.6,1.7c0.867,1.167,2.983,3.333,6.35,6.5C133.995,33.372,136.828,35.655,138.695,36.722"/>
			<path class="st2" d="M130.295,100.222c-0.833-0.667-1.15-1.033-0.95-1.1l1.4,0.85c-0.2,0.6-0.667,0.967-1.4,1.1
				c-0.733,0.133-1.383,0-1.95-0.4c0.167-0.733,0.433-1.1,0.8-1.1c0.4,0.033,0.217,0.333-0.55,0.9c0.3,0.333,0.767,0.467,1.4,0.4
				C129.711,100.838,130.128,100.622,130.295,100.222"/>
			<path class="st2" d="M131.245,86.122l-2.65,2.2c-1.1,1-2.117,1.633-3.05,1.9c0.7-0.333,1.683-1.067,2.95-2.2
				C129.695,86.988,130.611,86.355,131.245,86.122"/>
			<path class="st2" d="M122.445,90.222l2.3,0.15l0.8-0.15l-4.85-0.2v-0.05L122.445,90.222"/>
			<path class="st5" d="M107.295,72.822c0.567-0.5,1.75-1.05,3.55-1.65h-0.25l0.3-0.45l3.8,0.1c0.867-3.7,2.733-5.017,5.6-3.95
				c1.133,0.4,2.05,1.15,2.75,2.25c0.733,1.2,0.983,2.467,0.75,3.8v0.9l0.4,1.25c0.333,1,0.2,2.683-0.4,5.05
				c-0.533,2.1-1.133,3.8-1.8,5.1c-2.367,1.567-4.233,2.6-5.6,3.1c-2.433,0.833-4.733,0.45-6.9-1.15
				c-2.167,1.533-4.15,1.317-5.95-0.65c-1.8-1.967-1.35-3.7,1.35-5.2l-0.25-1.2c-0.233-0.533-0.25-0.95-0.05-1.25v0.2
				c0.233-0.667,0.8-1.383,1.7-2.15C105.961,75.088,106.295,73.722,107.295,72.822"/>
			<path class="st1" d="M101.345,87.272c0.2-1.433,0-2.5-0.6-3.2c0.2-0.833,0.7-1.8,1.5-2.9l1.9-2.8v0.25l0.2,0.25h0.25
				c-0.2,0.3-0.183,0.717,0.05,1.25l0.25,1.2c-2.7,1.5-3.15,3.233-1.35,5.2c1.8,1.967,3.783,2.183,5.95,0.65
				c2.167,1.6,4.467,1.983,6.9,1.15c1.367-0.5,3.233-1.533,5.6-3.1l-0.3,2.5c-0.133,1-0.467,1.75-1,2.25v0.05l-4.9,1l-5.1,1.55
				c-4.067,1-7.217,0.35-9.45-1.95C101.078,90.088,101.111,88.972,101.345,87.272"/>
			<path class="st1" d="M120.695,90.022c0.067,0.567-0.083,0.933-0.45,1.1c-4.567,1.6-8.1,2.667-10.6,3.2
				c-4.5,1.033-7.3-0.2-8.4-3.7c2.233,2.3,5.383,2.95,9.45,1.95l5.1-1.55L120.695,90.022"/>
			<path class="st1" d="M116.445,27.422c1.033,0.3,1.65,0.967,1.85,2c-3.333-0.6-7.333-0.95-12-1.05c-5.4-0.1-9.25,0.233-11.55,1
				c-3.567,1.2-7.8,3.35-12.7,6.45l-12.4,7.8l-0.6,0.25c-0.467-0.5-1.1-0.8-1.9-0.9l-2.2-0.05l-0.3-0.9
				c0.667-0.8,1.45-1.417,2.35-1.85l2.75-1c2.4-0.667,5.067-1.833,8-3.5l7.35-4.15c0.8-0.4,1.867-1.067,3.2-2l3.05-1.85
				c1.2-0.6,2.717-0.967,4.55-1.1l4.8-0.1l12.95,0.6L116.445,27.422"/>
			<path class="st2" d="M109.095,45.622c-1.2,0.433-1.9,0.783-2.1,1.05c-0.267,1.767,0.15,2.867,1.25,3.3c0.9,0.367,2,0.233,3.3-0.4
				c1.267-0.633,2.017-1.367,2.25-2.2c0.267-0.967-0.4-1.667-2-2.1c1.233,0.067,1.95,0.467,2.15,1.2c0.2,0.633-0.033,1.35-0.7,2.15
				c-1.633,2.033-3.467,2.583-5.5,1.65c-0.367-0.333-0.617-0.883-0.75-1.65l-0.25-2.15l1.55-0.8c0.6-0.3,1.217-0.433,1.85-0.4
				L109.095,45.622"/>
			<path class="st2" d="M110.595,71.172h0.25c-1.8,0.6-2.983,1.15-3.55,1.65c-1,0.9-1.333,2.267-1,4.1
				c-0.9,0.767-1.467,1.483-1.7,2.15v-0.2h-0.25l-0.2-0.25v-0.25h-0.25c0.7-0.867,1.417-2.5,2.15-4.9
				c0.9-1.933,2.417-2.783,4.55-2.55V71.172"/>
			<path class="st2" d="M100.745,88.772l-1.05,0.35l0.05-0.2L100.745,88.772"/>
			<path class="st2" d="M99.745,88.922l-0.05,0.2c-1,0.2-2.467,0.2-4.4,0l-5.75-0.95L99.745,88.922"/>
			<path class="st3" d="M99.795,101.272c-0.367,1.033-1.133,1.667-2.3,1.9c-1.133,0.233-2.15,0.067-3.05-0.5l-0.15-0.55
				c-0.133-1.367,0.633-2.2,2.3-2.5C98.295,99.355,99.361,99.905,99.795,101.272"/>
			<path class="st1" d="M88.945,79.922c-2.733,2.733-5.183,4.283-7.35,4.65l-0.75-0.5l0.3,0.6l-2.9-0.35
				c-1.333-0.667-2.45-1.15-3.35-1.45c-2.267-0.733-4.917-1.083-7.95-1.05c-3.267,0-6.133,0.467-8.6,1.4
				c-7.4,2.8-14.333,5.983-20.8,9.55c-7.7,4.233-13.983,8.633-18.85,13.2c-1.2,1.133-2.8,2.183-4.8,3.15l-4.7,2.25l0.15-0.35v-0.3
				l0.45-4.75c2.733-1.567,6.117-3.9,10.15-7c4.4-3.4,7.15-5.9,8.25-7.5c0.833-1.2,2.217-2.233,4.15-3.1l5.6-2.25
				c8.5-4.067,15.617-7.1,21.35-9.1c2.133-0.767,4.317-1.117,6.55-1.05l6.95,0.6l5.45,0.65c2,0.2,3.45,0.2,4.35,0
				c1.633-0.333,3.55-1.317,5.75-2.95l4.85-4.2c0.433,0.367,0.867,0.6,1.3,0.7l0.5,0.55l-0.05,2.7L88.945,79.922 M86.945,77.972
				c-3.067,1.933-6.383,3.033-9.95,3.3c1.9,0.067,3.917-0.283,6.05-1.05c2-0.733,3.667-1.667,5-2.8l3.6-2.95
				c1.3-1.2,2.1-2.3,2.4-3.3C92.045,73.972,89.678,76.238,86.945,77.972 M17.845,100.722c-0.2,0-0.317,0.067-0.35,0.2l0.65,0.25
				c0.333,0.067,0.517-0.017,0.55-0.25h-0.25v-0.25L17.845,100.722 M62.245,80.072c1.367-0.567,2.367-0.9,3-1
				c1.633-0.2,3.65-0.017,6.05,0.55l5.7,1.65c-1.8-0.8-3.733-1.45-5.8-1.95l-5.95-0.45c-0.933,0.167-2.217,0.583-3.85,1.25
				l-4.05,1.6l-4.25,1.2c-1.633,0.433-2.95,0.917-3.95,1.45l4.65-1.35l4.95-1.55L62.245,80.072"/>
			<path class="st1" d="M86.295,19.272c-1.933,0.367-3.967,1.667-6.1,3.9c-2.367,2.5-4.167,4-5.4,4.5l-5.45,2.05l-5.9,1.5l0.2-0.55
				c-0.333-1.367,0.033-2.517,1.1-3.45c0.7-0.567,1.967-1.217,3.8-1.95c2.9-1.133,7.267-3.317,13.1-6.55
				c5.133-2.367,9.25-3.017,12.35-1.95l0.7,0.05l0.6,0.3c-1.033,0.867-2.45,1.433-4.25,1.7L86.295,19.272"/>
			<path class="st1" d="M92.745,58.322c1,1.467,1.517,3.317,1.55,5.55c0,2.2-0.467,4.117-1.4,5.75l-7.3,4.4
				c-2.733,1.533-5.733,2.167-9,1.9l-8.8-1.1c-3.6-0.333-6.783-0.05-9.55,0.85c-2.2,0.733-4.983,1.983-8.35,3.75l-8.35,4.3
				l-15.35,6.95c-2.133,0.967-4.9,3.217-8.3,6.75c-3.467,3.633-6.1,5.9-7.9,6.8l0.7-6.95l3.45-4.7c1.367-2.033,2.7-3.433,4-4.2
				c0.867-0.5,2.383-1.05,4.55-1.65c10.867-4.167,22.067-9.85,33.6-17.05c1.267-0.467,2.15-0.75,2.65-0.85
				c1-0.233,1.917-0.233,2.75,0l15.15-0.5c5.967-0.367,10.383-2.333,13.25-5.9c0-0.333,0.517-0.833,1.55-1.5l1.7-1.25
				c-0.367,0.1-0.6,0.033-0.7-0.2c-0.067-0.133-0.083-0.4-0.05-0.8L92.745,58.322"/>
			<path class="st2" d="M87.795,50.522l2.4,2.4c0.1,0.833,0.517,1.7,1.25,2.6c0.8,1,1.267,1.817,1.4,2.45l-0.1,0.35l-0.15,0.35
				c-0.033,0.4-0.017,0.667,0.05,0.8c0.1,0.233,0.333,0.3,0.7,0.2l-1.7,1.25c-1.033,0.667-1.55,1.167-1.55,1.5
				c-0.233-0.233,0.1-0.783,1-1.65c0.933-0.933,1.35-1.55,1.25-1.85c-0.133-1-0.667-2.083-1.6-3.25c-0.933-1.133-1.433-2.133-1.5-3
				l-1.95-1.95c-0.867-0.633-1.9-0.933-3.1-0.9c-0.8-2-2.433-2.9-4.9-2.7c-2.267,0.2-4.083,1.083-5.45,2.65
				c0.3-0.533,0.55-0.833,0.75-0.9c-0.567-0.1-1.3-0.6-2.2-1.5c-0.8-0.8-1.75-1.1-2.85-0.9l0.1-0.4l0.15-0.35l0.15,0.15l0.1-0.15
				c0.867-0.167,1.617,0.133,2.25,0.9c0.767,0.933,1.45,1.433,2.05,1.5c0.4,0.067,1.517-0.3,3.35-1.1
				c1.633-0.7,3.083-0.817,4.35-0.35c0.833,0.367,1.633,1.25,2.4,2.65l1.7,0.2l1.4,0.55l-0.1,0.35L87.795,50.522"/>
			<path class="st2" d="M92.845,42.622c0.133,0.667-0.083,1.15-0.65,1.45c-0.567,0.233-0.983,0.15-1.25-0.25l0.95-0.05
				c0.6,0.033,0.833-0.2,0.7-0.7c0-0.2-0.183-0.283-0.55-0.25l-0.9,0.05C91.711,42.438,92.278,42.355,92.845,42.622"/>
			<path class="st2" d="M94.045,71.172c-0.3,1-1.1,2.1-2.4,3.3l-3.6,2.95c-1.333,1.133-3,2.067-5,2.8
				c-2.133,0.767-4.15,1.117-6.05,1.05c3.567-0.267,6.883-1.367,9.95-3.3C89.678,76.238,92.045,73.972,94.045,71.172"/>
			<path class="st2" d="M85.145,87.722l-2.1-1.65c1.7,0.833,3.867,1.533,6.5,2.1L85.145,87.722"/>
			<path class="st2" d="M81.595,84.572l1.45,1.5l-1.9-1.4L81.595,84.572"/>
			<path class="st2" d="M81.595,84.572l-0.45,0.1l-0.3-0.6L81.595,84.572"/>
			<path class="st2" d="M74.595,99.972c0.3,1.5-0.133,2.883-1.3,4.15l-3.25,3.05c0.2-0.5,0.967-1.317,2.3-2.45
				c1.233-1.033,1.9-2.05,2-3.05c0.167-1.433-0.233-2.517-1.2-3.25c-0.7-0.533-1.917-0.983-3.65-1.35l3.3,0.7
				C73.795,98.205,74.395,98.938,74.595,99.972"/>
			<path class="st2" d="M73.395,50.272l0.1-0.05l-0.35,0.55c-0.7-0.467-1.517-0.667-2.45-0.6c-0.867,0.067-1.65,0.35-2.35,0.85
				c0.367-0.667,1.117-1.067,2.25-1.2C71.595,49.722,72.528,49.872,73.395,50.272"/>
			<path class="st2" d="M58.745,81.472l-4.95,1.55l-4.65,1.35c1-0.533,2.317-1.017,3.95-1.45l4.25-1.2l4.05-1.6
				c1.633-0.667,2.917-1.083,3.85-1.25l5.95,0.45c2.067,0.5,4,1.15,5.8,1.95l-5.7-1.65c-2.4-0.567-4.417-0.75-6.05-0.55
				c-0.633,0.1-1.633,0.433-3,1L58.745,81.472"/>
			<path class="st2" d="M65.745,96.122l0.25,0.15c-2.2-0.7-3.417-1.867-3.65-3.5c-2.733-0.433-3.967-1.917-3.7-4.45
				c0.233-2.4,1.383-4.15,3.45-5.25c-1.567,0.967-2.6,2.6-3.1,4.9c-0.533,2.633,0.583,4.15,3.35,4.55l1.4,1.95
				C64.245,95.205,64.911,95.755,65.745,96.122"/>
			<path class="st1" d="M65.395,55.572c2.3,3.267,0.8,5.717-4.5,7.35c-5.133,1.533-9.15,1.5-12.05-0.1l-0.7-0.5l-0.15-1.5
				c0-0.567,0.217-0.967,0.65-1.2l1.65,0.75c0.633,0.367,1.183,0.567,1.65,0.6l0.05,0.15c2.233,0.7,4.65,0.45,7.25-0.75
				c2.567-1.2,4.417-2.9,5.55-5.1L65.395,55.572"/>
			<path class="st1" d="M55.595,96.572c-0.1,1.9,0.717,3.883,2.45,5.95c1.967,2.367,3.067,4.083,3.3,5.15
				c1.133,5.133,0.083,9.85-3.15,14.15c-2.933,3.833-6.9,6.533-11.9,8.1c-2.433,0.8-7,0.333-13.7-1.4h0.25
				c-0.667-1-1.1-1.817-1.3-2.45l-0.15-0.4l-0.35-0.15l0.35-0.1c-0.167-0.233-0.25-0.633-0.25-1.2v-1.45
				c0.267,0.567,1.083,1.083,2.45,1.55c1.367,0.467,2.2,1,2.5,1.6l6.15,0.3c2.467,0.067,4.267-0.467,5.4-1.6
				c0.633-0.733,1.9-1.483,3.8-2.25c1.767-0.767,2.95-1.583,3.55-2.45c-0.467-1.133-0.167-2.683,0.9-4.65c1.067-2,1.4-3.6,1-4.8
				c-0.233-0.533-0.3-2.067-0.2-4.6c0.1-1.933-0.583-3.25-2.05-3.95c0.267-0.533,0.317-1.467,0.15-2.8
				c-0.167-1.167-0.017-2.05,0.45-2.65l0.15-0.1L55.595,96.572"/>
			<path class="st5" d="M50.795,56.472c1.933-1.333,4.233-2.133,6.9-2.4c2.767-0.267,5.133,0.133,7.1,1.2
				c-1.133,2.2-2.983,3.9-5.55,5.1c-2.6,1.2-5.017,1.45-7.25,0.75l-0.05-0.15l-0.55-2.25L50.795,56.472"/>
			<path class="st5" d="M54.795,99.122c0.167,1.333,0.117,2.267-0.15,2.8c1.467,0.7,2.15,2.017,2.05,3.95
				c-0.1,2.533-0.033,4.067,0.2,4.6c0.4,1.2,0.067,2.8-1,4.8c-1.067,1.967-1.367,3.517-0.9,4.65c-0.6,0.867-1.783,1.683-3.55,2.45
				c-1.9,0.767-3.167,1.517-3.8,2.25c-1.133,1.133-2.933,1.667-5.4,1.6l-6.15-0.3c-0.3-0.6-1.133-1.133-2.5-1.6
				c-1.367-0.467-2.183-0.983-2.45-1.55h-0.2l0.7-2.05c-0.467-2.467-0.65-4.483-0.55-6.05c0.2-2.4,1.017-4.25,2.45-5.55
				c-0.567-1.667-0.25-3.183,0.95-4.55c1.2-1.367,2.667-2,4.4-1.9c0.333-1.2,1.167-2.1,2.5-2.7c1-0.467,2.217-0.717,3.65-0.75
				c0.867-2,1.583-3.517,2.15-4.55c1.033-1.8,2.333-2.733,3.9-2.8c1.133-0.033,2.117,0.333,2.95,1.1c0.967,0.867,1.417,2,1.35,3.4
				l-0.15,0.1C54.778,97.072,54.628,97.955,54.795,99.122"/>
			<path class="st2" d="M50.595,87.022l-0.45,1.5c-0.4,0.833-0.567,1.533-0.5,2.1c-0.767,0.4-2.133,0.7-4.1,0.9
				c-2.133,0.2-3.567,0.45-4.3,0.75c0.667-0.5,1.933-0.817,3.8-0.95c2.1-0.167,3.467-0.4,4.1-0.7
				C49.611,89.088,50.095,87.888,50.595,87.022"/>
			<path class="st2" d="M43.645,143.172h0.25l-5.05-0.15c-2.5-0.133-4.183,0.233-5.05,1.1c0.2-0.733-0.283-1.217-1.45-1.45
				l-3.1-0.45c-0.367-2.167-1.717-3.733-4.05-4.7c-2.3-0.967-4.633-1-7-0.1c-0.267-0.967-0.883-1.75-1.85-2.35l-2.95-1.5l-2.4-2.5
				c-0.933-1.1-1.883-1.7-2.85-1.8c-0.033-1.167-0.467-2.367-1.3-3.6l-1.85-2.4l-1.05,0.5c-0.5,0.167-0.867,0.317-1.1,0.45
				c-0.2-0.1-0.083-0.25,0.35-0.45l1.1-0.3c0.167-0.733,1.183-3.05,3.05-6.95c1.267-2.7,1.7-5.25,1.3-7.65h0.2l0.25,0.9l0.25,0.95
				v0.3l-0.15,0.35l0.35-0.1c0.1,2.133-0.5,4.25-1.8,6.35c-1.6,2.5-2.517,4.3-2.75,5.4c1.2,0.367,2.133,1.15,2.8,2.35
				c0.5,0.9,0.933,2.2,1.3,3.9c2.133,0.033,3.65,1.233,4.55,3.6c1.233,0,2.25,0.417,3.05,1.25l1.75,2.55
				c2.533-1,4.983-0.967,7.35,0.1c2.3,1.033,3.683,2.683,4.15,4.95l2.7,0.05l2.1,1.15c1.133-0.633,2.617-0.933,4.45-0.9
				c1.667,0.033,3.15,0.333,4.45,0.9V143.172"/>
			<path class="st2" d="M25.645,100.922c0.633-0.567,3.283-0.75,7.95-0.55c3.9,0.133,5.817-0.967,5.75-3.3
				c-0.033-0.533-0.233-1-0.6-1.4l-1.1-1.2c0.4-0.9,0.733-1.4,1-1.5c0.3-0.067,0.05,0.35-0.75,1.25l1.05,1.3
				c0.367,0.433,0.567,0.883,0.6,1.35c0.167,2.5-1.667,3.733-5.5,3.7l-4.75-0.2C27.561,100.338,26.345,100.522,25.645,100.922"/>
			<path class="st2" d="M31.545,126.072c0.2,0.633,0.633,1.45,1.3,2.45h-0.25v0.25c-0.233,0.033-0.45-0.033-0.65-0.2l-0.55-0.3
				l-0.85-2.95c-0.367-1.1-0.233-2.033,0.4-2.8v0.25h0.2v1.45c0,0.567,0.083,0.967,0.25,1.2l-0.35,0.1L31.545,126.072"/>
			<path class="st2" d="M31.395,125.672l0.15,0.4l-0.5-0.55L31.395,125.672"/>
			<path class="st3" d="M27.545,111.272c0.033,0.667-0.317,1.117-1.05,1.35l-1.95-0.05c-0.2-0.533,0-1,0.6-1.4
				c0.567-0.4,1.133-0.517,1.7-0.35L27.545,111.272"/>
			<path class="st2" d="M18.445,100.922h0.25c-0.033,0.233-0.217,0.317-0.55,0.25l-0.65-0.25c0.033-0.133,0.15-0.2,0.35-0.2
				l0.6-0.05V100.922"/>
			<path class="st6" d="M24.545,112.572c-0.2-0.533,0-1,0.6-1.4c0.567-0.4,1.133-0.517,1.7-0.35l0.7,0.45
				c0.033,0.667-0.317,1.117-1.05,1.35L24.545,112.572z"/>
			<path class="st6" d="M99.795,101.272c-0.367,1.033-1.133,1.667-2.3,1.9c-1.133,0.233-2.15,0.067-3.05-0.5l-0.15-0.55
				c-0.133-1.367,0.633-2.2,2.3-2.5C98.295,99.355,99.361,99.905,99.795,101.272z"/>
			<path class="st7" d="M31.045,125.522l0.5,0.55c0.467,0.4,1.467,0.633,3,0.7c1.3,0.067,2.15,0.517,2.55,1.35
				c0.7-0.167,2.367-0.2,5-0.1l5.9-0.4c1.933-0.5,3.983-1.65,6.15-3.45c2.267-1.867,3.333-3.383,3.2-4.55l-0.1-2.2
				c0.1-0.967,0.567-1.783,1.4-2.45"/>
			<path class="st8" d="M55.395,96.372l0.2,0.2c-0.1,1.9,0.717,3.883,2.45,5.95c1.967,2.367,3.067,4.083,3.3,5.15
				c1.133,5.133,0.083,9.85-3.15,14.15c-2.933,3.833-6.9,6.533-11.9,8.1c-2.433,0.8-7,0.333-13.7-1.4"/>
			<path class="st9" d="M55.245,96.472c-0.467,0.6-0.617,1.483-0.45,2.65c0.167,1.333,0.117,2.267-0.15,2.8
				c1.467,0.7,2.15,2.017,2.05,3.95c-0.1,2.533-0.033,4.067,0.2,4.6c0.4,1.2,0.067,2.8-1,4.8c-1.067,1.967-1.367,3.517-0.9,4.65
				c-0.6,0.867-1.783,1.683-3.55,2.45c-1.9,0.767-3.167,1.517-3.8,2.25c-1.133,1.133-2.933,1.667-5.4,1.6l-6.15-0.3
				c-0.3-0.6-1.133-1.133-2.5-1.6c-1.367-0.467-2.183-0.983-2.45-1.55"/>
			<path class="st8" d="M31.645,120.722l-0.7,2.05"/>
			<path class="st9" d="M31.645,120.722l-1.15-0.65c-0.667-0.033-1.717,0.55-3.15,1.75l-3.95,3.25c-3.6,2.533-6.55,2.033-8.85-1.5
				c3-1.733,5.15-3.2,6.45-4.4c2.433-2.267,1.567-3.85-2.6-4.75l-1.8-0.85l-3.25-0.4c-1.4-0.3-2.067-0.9-2-1.8"/>
			<path class="st10" d="M31.645,120.722c-0.467-2.467-0.65-4.483-0.55-6.05c0.2-2.4,1.017-4.25,2.45-5.55
				c-0.567-1.667-0.25-3.183,0.95-4.55c1.2-1.367,2.667-2,4.4-1.9c0.333-1.2,1.167-2.1,2.5-2.7c1-0.467,2.217-0.717,3.65-0.75
				c0.867-2,1.583-3.517,2.15-4.55c1.033-1.8,2.333-2.733,3.9-2.8c1.133-0.033,2.117,0.333,2.95,1.1c0.967,0.867,1.417,2,1.35,3.4"
				/>
			<path class="st9" d="M9.345,110.722l1.35-13.45l3.45-4.7c1.367-2.033,2.7-3.433,4-4.2c0.867-0.5,2.383-1.05,4.55-1.65
				c10.867-4.167,22.067-9.85,33.6-17.05c1.267-0.467,2.15-0.75,2.65-0.85c1-0.233,1.917-0.233,2.75,0l15.15-0.5
				c5.967-0.367,10.383-2.333,13.25-5.9"/>
			<path class="st7" d="M132.795,61.222c-0.2-0.267-0.1-0.55,0.3-0.85c0.433-0.333,0.8-0.433,1.1-0.3c0.4,0.333,0.517,0.667,0.35,1
				c-0.2,0.233-0.483,0.367-0.85,0.4L132.795,61.222z"/>
			<path class="st8" d="M100.745,84.072c0.2-0.833,0.7-1.8,1.5-2.9l1.9-2.8"/>
			<path class="st9" d="M101.245,90.622c-0.167-0.533-0.133-1.65,0.1-3.35c0.2-1.433,0-2.5-0.6-3.2"/>
			<path class="st7" d="M120.245,91.122c-4.567,1.6-8.1,2.667-10.6,3.2c-4.5,1.033-7.3-0.2-8.4-3.7"/>
			<path class="st8" d="M120.195,91.222c-1.233,1.733-3.517,2.933-6.85,3.6l-8.3,1c-1.867,0.267-3.15-0.05-3.85-0.95
				c-0.367-0.467-0.85-1.783-1.45-3.95l-0.05-1.8l0.05-0.2c0.1-1.7,0.433-3.317,1-4.85"/>
			<path class="st9" d="M120.695,90.022l-4.9,1l-5.1,1.55c-4.067,1-7.217,0.35-9.45-1.95"/>
			<path class="st10" d="M120.695,90.022c0.067,0.567-0.083,0.933-0.45,1.1"/>
			<path class="st9" d="M121.995,85.222c-2.367,1.567-4.233,2.6-5.6,3.1c-2.433,0.833-4.733,0.45-6.9-1.15
				c-2.167,1.533-4.15,1.317-5.95-0.65c-1.8-1.967-1.35-3.7,1.35-5.2l-0.25-1.2c-0.233-0.533-0.25-0.95-0.05-1.25"/>
			<path class="st11" d="M121.995,85.222l-0.3,2.5c-0.133,1-0.467,1.75-1,2.25"/>
			<path class="st11" d="M110.895,70.722l3.8,0.1c0.867-3.7,2.733-5.017,5.6-3.95c1.133,0.4,2.05,1.15,2.75,2.25
				c0.733,1.2,0.983,2.467,0.75,3.8v0.9l0.4,1.25c0.333,1,0.2,2.683-0.4,5.05c-0.533,2.1-1.133,3.8-1.8,5.1"/>
			<path class="st8" d="M110.895,70.722l-0.3,0.45"/>
			<path class="st9" d="M93.445,56.872l9.6-0.5c3.833-0.3,6.85,0.3,9.05,1.8l0.25,0.45v1.05c-0.8,1.3-2.417,2.5-4.85,3.6
				c-2.567,1.167-4.2,2.233-4.9,3.2c0.3,1.733,1.433,2.833,3.4,3.3l4.9,0.95"/>
			<path class="st9" d="M51.995,61.122c2.233,0.7,4.65,0.45,7.25-0.75c2.567-1.2,4.417-2.9,5.55-5.1"/>
			<path class="st10" d="M50.795,56.472c1.933-1.333,4.233-2.133,6.9-2.4c2.767-0.267,5.133,0.133,7.1,1.2"/>
			<path class="st9" d="M50.795,56.472l0.6,2.25l0.55,2.25"/>
			<path class="st7" d="M48.645,59.622c-0.433,0.233-0.65,0.633-0.65,1.2l0.15,1.5l0.7,0.5c2.9,1.6,6.917,1.633,12.05,0.1
				c5.3-1.633,6.8-4.083,4.5-7.35l-0.6-0.3"/>
			<path class="st9" d="M48.645,59.622l1.65,0.75c0.633,0.367,1.183,0.567,1.65,0.6"/>
			<path class="st12" d="M48.645,59.622c0.5-0.233,0.883-0.75,1.15-1.55c0.267-0.833,0.6-1.367,1-1.6"/>
			<path class="st8" d="M126.795,5.972c-2.433,1.5-3.9,3.467-4.4,5.9c0.833,1.8,1.233,3.167,1.2,4.1c2.7,1.3,5.383,1.883,8.05,1.75
				c2.867-0.133,5.4-1.1,7.6-2.9c0.2-1.067,0.3-3.367,0.3-6.9c-0.5-0.867-1.35-1.767-2.55-2.7l-3-2.2
				C130.595,4.122,128.195,5.105,126.795,5.972z"/>
			<path class="st9" d="M9.345,110.722v0.3"/>
			<path class="st9" d="M87.445,50.422l0.25-0.2l7.75-0.7c3.133-0.233,5.25,0.517,6.35,2.25c-0.433,0.433-0.55,0.833-0.35,1.2
				l11.75,0.25c4.833,0.5,7.95,2.183,9.35,5.05c0.333,0.7,0.283,1.55-0.15,2.55c-0.467,1.1-1.217,1.883-2.25,2.35l-0.2,0.7
				c2.233,1.533,6.067,2.217,11.5,2.05c5.433-0.133,9.233,0.55,11.4,2.05c0.3,0.467,0.35,1.067,0.15,1.8l-0.3,1.75
				c1.433,1.2,2.217,2.483,2.35,3.85"/>
			<path class="st13" d="M167.345,65.072l-2.55,0.1c-0.967,0.167-1.667,0.6-2.1,1.3l-5.95-0.55c-2.467-0.367-4.25,0.167-5.35,1.6
				c-1.6,0-2.933,0.583-4,1.75c-0.333,0.633-0.383,1.45-0.15,2.45l0.55,2.4l-0.85,0.55"/>
			<path class="st12" d="M139.495,36.872l0.7,0.4l-0.25,3l-0.6,0.35"/>
			<path class="st9" d="M138.895,40.272l0.45-1.6c0.167-0.633,0.167-1.183,0-1.65"/>
			<path class="st11" d="M138.895,40.272l0.45,0.35"/>
			<path class="st9" d="M124.595,20.222l-6.9-1.75c-2.7-0.6-5.067-0.8-7.1-0.6l-0.9,0.7c-0.367,0.267-0.583,0.567-0.65,0.9
				c1.633,0.833,4.033,1.567,7.2,2.2l7.6,1.7c0.867,1.167,2.983,3.333,6.35,6.5c3.8,3.5,6.633,5.783,8.5,6.85l0.65,0.3l0.85,0.25
				c-0.733-1.033-3.3-3.9-7.7-8.6L124.595,20.222z"/>
			<path class="st12" d="M157.095,50.122l-0.4-0.35l-2.3-6.15c-0.667-1.733-2.15-2.85-4.45-3.35l-5,0.4l-5.35,0.75
				c-0.167-0.133-0.25-0.4-0.25-0.8"/>
			<path class="st12" d="M157.095,50.122c2.133,0.367,4.067,1.783,5.8,4.25l4.4,5.95c-0.133,0.5-0.1,1.283,0.1,2.35
				c0.2,1.033,0.183,1.833-0.05,2.4"/>
			<path class="st7" d="M132.945,39.022l1.15-2l2.35-0.2l2.25-0.1l0.6,0.15"/>
			<path class="st7" d="M132.945,39.022l2.9,1.15l3.05,0.1"/>
			<path class="st7" d="M95.295,17.122h7.7l7.6,0.75"/>
			<path class="st9" d="M128.945,45.872c-1.2,0.533-2.083,1.017-2.65,1.45c-0.8,0.6-1.333,1.333-1.6,2.2
				c-0.967,2.967,0.5,5.167,4.4,6.6c3.833,1.433,6.85,1.067,9.05-1.1l6.8,0.5c2.633,0.7,4,2.167,4.1,4.4
				c-2.533,1.267-3.883,2.417-4.05,3.45c-0.167,1.133,1.133,1.933,3.9,2.4"/>
			<path class="st10" d="M128.945,45.872c0.467,0,0.95,0.183,1.45,0.55c1.967,0.867,4.75,1.267,8.35,1.2l8.35,0.7l8,2.9
				c1.067-0.433,1.733-0.8,2-1.1"/>
			<path class="st12" d="M97.345,22.172l0.2,0.55l0.3,0.5l11.2,0.95c4.867,0.167,8.55,0.75,11.05,1.75c1.533,0.567,2.867,1.7,4,3.4
				l3.75,6.25c1.833,2.6,3.533,3.75,5.1,3.45"/>
			<path class="st9" d="M97.345,22.172l-1.1,0.95c-0.433,0.433-0.867,0.667-1.3,0.7l-0.1,0.3c9.5,0.367,17.133,1.117,22.9,2.25
				c1.5,0.3,2.617,0.683,3.35,1.15c0.733,0.5,1.533,1.383,2.4,2.65l3.85,6.25c1.733,2.467,3.55,3.85,5.45,4.15"/>
			<path class="st7" d="M63.445,31.222l5.9-1.5l5.45-2.05c1.233-0.5,3.033-2,5.4-4.5c2.133-2.233,4.167-3.533,6.1-3.9l4.75-0.45
				c1.8-0.267,3.217-0.833,4.25-1.7"/>
			<path class="st9" d="M63.445,31.222l0.2-0.55c-0.333-1.367,0.033-2.517,1.1-3.45c0.7-0.567,1.967-1.217,3.8-1.95
				c2.9-1.133,7.267-3.317,13.1-6.55c5.133-2.367,9.25-3.017,12.35-1.95l0.7,0.05l0.6,0.3"/>
			<path class="st8" d="M121.895,34.822c1.633,1.3,3.05,3.017,4.25,5.15l2.8,5.9"/>
			<path class="st9" d="M121.895,34.822c-2.3-0.933-4.117-0.9-5.45,0.1c-1.167,0.867-2.05,2.567-2.65,5.1c-2.867,0.9-6.1,0.9-9.7,0
				l-0.5-0.45c-0.1-0.267-0.1-0.617,0-1.05l0.1-1l-0.7-0.75l-6.15,0.3c-0.633,0.2-2.683,1.033-6.15,2.5
				c-5.033,2.1-8.833,1.867-11.4-0.7"/>
			<path class="st8" d="M69.045,43.872l0.5,0.95l0.4,1.05"/>
			<path class="st6" d="M63.345,37.572c2.2-0.933,7-3.717,14.4-8.35c5.867-3.633,10.917-5.867,15.15-6.7l0.25-0.45l0.35-1.65
				l0.5-0.45l1.25-0.3l1.25,0.1l0.2,0.25l0.45,1.05l0.2,1.1"/>
			<path class="st9" d="M63.345,37.572c-0.267-1.9-0.233-4.017,0.1-6.35"/>
			<path class="st6" d="M118.295,29.422l3.6,5.4"/>
			<path class="st8" d="M118.295,29.422c-3.333-0.6-7.333-0.95-12-1.05c-5.4-0.1-9.25,0.233-11.55,1c-3.567,1.2-7.8,3.35-12.7,6.45
				l-12.4,7.8l-0.6,0.25"/>
			<path class="st13" d="M64.645,42.022l0.3,0.9l2.2,0.05c0.8,0.1,1.433,0.4,1.9,0.9"/>
			<path class="st10" d="M64.645,42.022l-1.5-1.35c0.2-1.367,0.267-2.4,0.2-3.1"/>
			<path class="st9" d="M64.645,42.022c0.667-0.8,1.45-1.417,2.35-1.85l2.75-1c2.4-0.667,5.067-1.833,8-3.5l7.35-4.15
				c0.8-0.4,1.867-1.067,3.2-2l3.05-1.85c1.2-0.6,2.717-0.967,4.55-1.1l4.8-0.1l12.95,0.6l2.8,0.35c1.033,0.3,1.65,0.967,1.85,2"/>
			<path class="st9" d="M77.145,119.272l-1.35-1.4c-0.4-0.633-0.5-1.25-0.3-1.85l0.5-0.5l3.15-1.35c1.233-0.533,2.067-1.25,2.5-2.15
				l-0.05-0.8c-0.233-0.667-1.1-1.35-2.6-2.05c-1.367-0.633-2.05-1.4-2.05-2.3c0.767-1.633,2.75-2.85,5.95-3.65
				c3.267-0.767,5.317-1.983,6.15-3.65c0.367-3.067-1.567-4.85-5.8-5.35c-5.233-0.067-8.767-0.45-10.6-1.15
				c-2.533-0.967-4.067-2.317-4.6-4.05c-0.6-1.967,0.35-3.883,2.85-5.75"/>
			<path class="st8" d="M77.145,119.272c1.833-1.767,4.317-2.583,7.45-2.45l7.9,1.15c0.667-1.433,1.85-2.5,3.55-3.2
				c1.533-0.633,3.15-0.85,4.85-0.65l0.9,0.6l0.9,0.6l3.4,0.25c1.267,0.133,2.067-0.4,2.4-1.6l1.4-1.4l1.5-1.25l4.75-0.8
				c1.833-0.033,3.267,0.533,4.3,1.7h0.35c1.333-1.367,3.25-1.367,5.75,0c1-0.967,2.4-1.383,4.2-1.25l4.5,0.25
				c0.5-1.567,1.5-2.917,3-4.05c1.033-0.833,2.517-1.65,4.45-2.45c0.067-1.033,0.7-1.983,1.9-2.85c1.467-1.033,2.333-1.783,2.6-2.25
				"/>
			<path class="st14" d="M43.645,143.172c0.367-0.1,1.1-0.633,2.2-1.6c1.733-1.033,3.8-1.25,6.2-0.65
				c3.133,0.8,5.383,1.117,6.75,0.95c1.067-1.567,2.767-2.933,5.1-4.1c2.8-1.2,4.833-2.133,6.1-2.8c0.7-2.767,2.317-5.45,4.85-8.05
				c-0.5-1.267-0.483-2.633,0.05-4.1c0.433-1.2,1.183-2.383,2.25-3.55"/>
			<path class="st9" d="M92.895,69.622l-7.3,4.4c-2.733,1.533-5.733,2.167-9,1.9l-8.8-1.1c-3.6-0.333-6.783-0.05-9.55,0.85
				c-2.2,0.733-4.983,1.983-8.35,3.75l-8.35,4.3l-15.35,6.95c-2.133,0.967-4.9,3.217-8.3,6.75c-3.467,3.633-6.1,5.9-7.9,6.8
				l-1.25,0.55"/>
			<path class="st13" d="M92.895,69.622c0.933-1.633,1.4-3.55,1.4-5.75c-0.033-2.233-0.55-4.083-1.55-5.55"/>
			<path class="st15" d="M93.195,70.072l-0.3-0.45"/>
			<path class="st9" d="M93.195,70.072l-4.85,4.2c-2.2,1.633-4.117,2.617-5.75,2.95c-0.9,0.2-2.35,0.2-4.35,0l-5.45-0.65l-6.95-0.6
				c-2.233-0.067-4.417,0.283-6.55,1.05c-5.733,2-12.85,5.033-21.35,9.1l-5.6,2.25c-1.933,0.867-3.317,1.9-4.15,3.1
				c-1.1,1.6-3.85,4.1-8.25,7.5c-4.033,3.1-7.417,5.433-10.15,7l-0.6,0.35"/>
			<path class="st8" d="M9.195,111.372l4.7-2.25c2-0.967,3.6-2.017,4.8-3.15c4.867-4.567,11.15-8.967,18.85-13.2
				c6.467-3.567,13.4-6.75,20.8-9.55c2.467-0.933,5.333-1.4,8.6-1.4c3.033-0.033,5.683,0.317,7.95,1.05
				c0.9,0.3,2.017,0.783,3.35,1.45l2.9,0.35l0.45-0.1c2.167-0.367,4.617-1.917,7.35-4.65l6-5.9l0.05-2.7l-0.5-0.55
				c-0.433-0.1-0.867-0.333-1.3-0.7"/>
			<path class="st9" d="M48.345,84.722c-2.833,1-5.95,2.333-9.35,4l-8.85,4.7c-2.133,1.2-3.9,2.717-5.3,4.55
				c-1.433,2-3.4,3.783-5.9,5.35c-1.933,1.267-4.4,2.5-7.4,3.7l-0.9,0.15l-0.95,0.2l-0.05,0.05c-0.267,0.167-0.583,0.6-0.95,1.3"/>
		</g>
		<g transform="matrix(1.0, 0.0, 0.0, 1.0, 0.0, 0.05)">
			<g id="shape0_1_" transform="matrix(1.0, 0.0, 0.0, 1.0, 0.0, -0.05)">
				<path class="st0" d="M164.795,65.172c-0.967,0.167-1.667,0.6-2.1,1.3l-5.95-0.55c-2.467-0.367-4.25,0.167-5.35,1.6
					c-1.6,0-2.933,0.583-4,1.75c-0.333,0.633-0.383,1.45-0.15,2.45l0.55,2.4l-0.85,0.55l-0.1-0.4c-0.367,0-0.683,0.133-0.95,0.4
					l-0.75,0.6l-0.1,0.1c-0.133-1.367-0.917-2.65-2.35-3.85l0.3-1.75c0.2-0.733,0.15-1.333-0.15-1.8
					c-2.167-1.5-5.967-2.183-11.4-2.05c-5.433,0.167-9.267-0.517-11.5-2.05l0.2-0.7c1.033-0.467,1.783-1.25,2.25-2.35
					c0.433-1,0.483-1.85,0.15-2.55c-1.4-2.867-4.517-4.55-9.35-5.05l-11.75-0.25c-0.2-0.367-0.083-0.767,0.35-1.2
					c-1.1-1.733-3.217-2.483-6.35-2.25l-7.75,0.7l-0.25,0.2l0.1-0.35l-1.4-0.55l-1.7-0.2c-0.767-1.4-1.567-2.283-2.4-2.65
					c-1.267-0.467-2.717-0.35-4.35,0.35c-1.833,0.8-2.95,1.167-3.35,1.1c-0.6-0.067-1.283-0.567-2.05-1.5
					c-0.633-0.767-1.383-1.067-2.25-0.9l-0.1,0.15l-0.4-1.05l-0.5-0.95l0.6-0.25l12.4-7.8c4.9-3.1,9.133-5.25,12.7-6.45
					c2.3-0.767,6.15-1.1,11.55-1c4.667,0.1,8.667,0.45,12,1.05l3.6,5.4c1.633,1.3,3.05,3.017,4.25,5.15l2.8,5.9
					c0.467,0,0.95,0.183,1.45,0.55c1.967,0.867,4.75,1.267,8.35,1.2l8.35,0.7l8,2.9c1.067-0.433,1.733-0.8,2-1.1
					c2.133,0.367,4.067,1.783,5.8,4.25l4.4,5.95c-0.133,0.5-0.1,1.283,0.1,2.35c0.2,1.033,0.183,1.833-0.05,2.4L164.795,65.172
					 M92.195,44.072c0.567-0.3,0.783-0.783,0.65-1.45c-0.567-0.267-1.133-0.183-1.7,0.25l0.9-0.05c0.367-0.033,0.55,0.05,0.55,0.25
					c0.133,0.5-0.1,0.733-0.7,0.7l-0.95,0.05C91.211,44.222,91.628,44.305,92.195,44.072 M110.145,45.272
					c-0.633-0.033-1.25,0.1-1.85,0.4l-1.55,0.8l0.25,2.15c0.133,0.767,0.383,1.317,0.75,1.65c2.033,0.933,3.867,0.383,5.5-1.65
					c0.667-0.8,0.9-1.517,0.7-2.15c-0.2-0.733-0.917-1.133-2.15-1.2c1.6,0.433,2.267,1.133,2,2.1c-0.233,0.833-0.983,1.567-2.25,2.2
					c-1.3,0.633-2.4,0.767-3.3,0.4c-1.1-0.433-1.517-1.533-1.25-3.3c0.2-0.267,0.9-0.617,2.1-1.05L110.145,45.272 M134.195,60.072
					c-0.3-0.133-0.667-0.033-1.1,0.3c-0.4,0.3-0.5,0.583-0.3,0.85l0.9,0.25c0.367-0.033,0.65-0.167,0.85-0.4
					C134.711,60.738,134.595,60.405,134.195,60.072"/>
				<path class="st1" d="M126.145,39.972c-1.2-2.133-2.617-3.85-4.25-5.15l-3.6-5.4c-0.2-1.033-0.817-1.7-1.85-2l-2.8-0.35
					l-12.95-0.6l-4.8,0.1c-1.833,0.133-3.35,0.5-4.55,1.1l-3.05,1.85c-1.333,0.933-2.4,1.6-3.2,2l-7.35,4.15
					c-2.933,1.667-5.6,2.833-8,3.5l-2.75,1c-0.9,0.433-1.683,1.05-2.35,1.85l-1.5-1.35c0.2-1.367,0.267-2.4,0.2-3.1
					c2.2-0.933,7-3.717,14.4-8.35c5.867-3.633,10.917-5.867,15.15-6.7l0.25-0.45l0.35-1.65l0.5-0.45l1.25-0.3l1.25,0.1l0.2,0.25
					l0.45,1.05l0.2,1.1l0.2,0.55l0.3,0.5l11.2,0.95c4.867,0.167,8.55,0.75,11.05,1.75c1.533,0.567,2.867,1.7,4,3.4l3.75,6.25
					c1.833,2.6,3.533,3.75,5.1,3.45l2.9,1.15l3.05,0.1l0.45,0.35c0,0.4,0.083,0.667,0.25,0.8l5.35-0.75l5-0.4
					c2.3,0.5,3.783,1.617,4.45,3.35l2.3,6.15l0.4,0.35c-0.267,0.3-0.933,0.667-2,1.1l-8-2.9l-8.35-0.7
					c-3.6,0.067-6.383-0.333-8.35-1.2c-0.5-0.367-0.983-0.55-1.45-0.55L126.145,39.972"/>
				<path class="st2" d="M144.945,76.922l-0.85,0.05l-0.85-0.05c-1.367,0.367-2.083,1.567-2.15,3.6l-1.75,1.9
					c-0.5,0.667-0.633,1.483-0.4,2.45c0.1,0.4,0.583,0.967,1.45,1.7c0.8,0.7,1.183,1.333,1.15,1.9c1.933,0.567,3.433,1.2,4.5,1.9
					c1.367,0.9,2.267,2.1,2.7,3.6l2.55-2c1-0.833,1.683-1.683,2.05-2.55c-0.267-0.9-1.183-1.733-2.75-2.5
					c-1.567-0.8-2.5-1.65-2.8-2.55c-3-0.367-5.233-1.333-6.7-2.9c-0.033-0.267,0.017-0.383,0.15-0.35l0.1,0.35
					c1.733,1.533,4.05,2.417,6.95,2.65c0.1,1.067,0.983,1.983,2.65,2.75c1.667,0.733,2.533,1.667,2.6,2.8l0.65-0.35l0.8-0.15
					c-2.5,1.967-4.15,3.4-4.95,4.3c-1.567,1.867-2.467,4.033-2.7,6.5l-0.15-0.35l-0.35,0.1c-0.267-0.433-1.9-1.95-4.9-4.55
					c-2.133-1.9-3.1-3.7-2.9-5.4l0.6-0.1l-0.55-0.15c0.1-0.633,0.367-1.317,0.8-2.05l-1.3-2.1c-0.3-0.733-0.433-1.633-0.4-2.7
					l0.85-0.95c0.333-0.367,0.7-0.6,1.1-0.7c-0.367-1.433,0.033-2.617,1.2-3.55c0.7-0.567,1.9-1.15,3.6-1.75v-0.45l0.1,0.1l0.1-0.1
					l0.75-0.6c0.267-0.267,0.583-0.4,0.95-0.4l0.1,0.4l0.15,0.35c-0.5-0.1-0.9,0.117-1.2,0.65L144.945,76.922 M139.645,89.672
					c0.067,2.067,1.1,3.867,3.1,5.4c2.467,1.867,3.917,3.267,4.35,4.2c-0.067-0.567-0.017-1.167,0.15-1.8l0.3-1.6
					c-0.6-0.867-1.633-1.733-3.1-2.6c0.7,0,1.35,0.3,1.95,0.9c0.733,0.733,1.283,1.15,1.65,1.25c-0.033-1.367-1.183-2.583-3.45-3.65
					c-2.467-1.2-3.883-2.383-4.25-3.55c-0.267,1.167,0.083,2.233,1.05,3.2l2.8,2.05c-0.933-0.233-1.8-0.75-2.6-1.55L139.645,89.672
					 M145.395,90.322c-2.233-0.933-3.75-1.633-4.55-2.1c0.433,1.2,1.667,2.3,3.7,3.3c2.167,1.033,3.5,2.017,4,2.95
					C148.345,92.772,147.295,91.388,145.395,90.322"/>
				<path class="st3" d="M96.595,99.622c-1.667,0.3-2.433,1.133-2.3,2.5l0.15,0.55c0.9,0.567,1.917,0.733,3.05,0.5
					c1.167-0.233,1.933-0.867,2.3-1.9C99.361,99.905,98.295,99.355,96.595,99.622 M89.545,88.172l5.75,0.95c1.933,0.2,3.4,0.2,4.4,0
					l0.05,1.8c0.6,2.167,1.083,3.483,1.45,3.95c0.7,0.9,1.983,1.217,3.85,0.95l8.3-1c3.333-0.667,5.617-1.867,6.85-3.6l0.05-0.1
					c0.367-0.167,0.517-0.533,0.45-1.1l4.85,0.2c0.933-0.267,1.95-0.9,3.05-1.9l2.65-2.2l0.25-0.05c0.667-0.2,1.517-0.2,2.55,0
					l2.95,0.7c0.1,0.5,0.35,1.083,0.75,1.75c0.433,0.733,0.867,1.15,1.3,1.25c-0.2,1.7,0.767,3.5,2.9,5.4
					c3,2.6,4.633,4.117,4.9,4.55l0.35-0.1c-0.267,0.467-1.133,1.217-2.6,2.25c-1.2,0.867-1.833,1.817-1.9,2.85
					c-1.933,0.8-3.417,1.617-4.45,2.45c-1.5,1.133-2.5,2.483-3,4.05l-4.5-0.25c-1.8-0.133-3.2,0.283-4.2,1.25
					c-2.5-1.367-4.417-1.367-5.75,0h-0.35c-1.033-1.167-2.467-1.733-4.3-1.7l-4.75,0.8l-1.5,1.25l-1.4,1.4
					c-0.333,1.2-1.133,1.733-2.4,1.6l-3.4-0.25l-0.9-0.6l-0.9-0.6c-1.7-0.2-3.317,0.017-4.85,0.65c-1.7,0.7-2.883,1.767-3.55,3.2
					l-7.9-1.15c-3.133-0.133-5.617,0.683-7.45,2.45c-1.067,1.167-1.817,2.35-2.25,3.55c-0.533,1.467-0.55,2.833-0.05,4.1
					c-2.533,2.6-4.15,5.283-4.85,8.05c-1.267,0.667-3.3,1.6-6.1,2.8c-2.333,1.167-4.033,2.533-5.1,4.1
					c-1.367,0.167-3.617-0.15-6.75-0.95c-2.4-0.6-4.467-0.383-6.2,0.65c-1.1,0.967-1.833,1.5-2.2,1.6v-0.25
					c-1.3-0.567-2.783-0.867-4.45-0.9c-1.833-0.033-3.317,0.267-4.45,0.9l-2.1-1.15l-2.7-0.05c-0.467-2.267-1.85-3.917-4.15-4.95
					c-2.367-1.067-4.817-1.1-7.35-0.1l-1.75-2.55c-0.8-0.833-1.817-1.25-3.05-1.25c-0.9-2.367-2.417-3.567-4.55-3.6
					c-0.367-1.7-0.8-3-1.3-3.9c-0.667-1.2-1.6-1.983-2.8-2.35c0.233-1.1,1.15-2.9,2.75-5.4c1.3-2.1,1.9-4.217,1.8-6.35l-0.35,0.1
					l4.7-2.25c2-0.967,3.6-2.017,4.8-3.15c4.867-4.567,11.15-8.967,18.85-13.2c6.467-3.567,13.4-6.75,20.8-9.55
					c2.467-0.933,5.333-1.4,8.6-1.4c3.033-0.033,5.683,0.317,7.95,1.05c0.9,0.3,2.017,0.783,3.35,1.45l2.9,0.35l1.9,1.4l2.1,1.65
					L89.545,88.172 M130.745,99.972l-1.4-0.85c-0.2,0.067,0.117,0.433,0.95,1.1c-0.167,0.4-0.583,0.617-1.25,0.65
					c-0.633,0.067-1.1-0.067-1.4-0.4c0.767-0.567,0.95-0.867,0.55-0.9c-0.367,0-0.633,0.367-0.8,1.1c0.567,0.4,1.217,0.533,1.95,0.4
					C130.078,100.938,130.545,100.572,130.745,99.972 M29.295,100.372l4.75,0.2c3.833,0.033,5.667-1.2,5.5-3.7
					c-0.033-0.467-0.233-0.917-0.6-1.35l-1.05-1.3c0.8-0.9,1.05-1.317,0.75-1.25c-0.267,0.1-0.6,0.6-1,1.5l1.1,1.2
					c0.367,0.4,0.567,0.867,0.6,1.4c0.067,2.333-1.85,3.433-5.75,3.3c-4.667-0.2-7.317-0.017-7.95,0.55
					C26.345,100.522,27.561,100.338,29.295,100.372 M62.095,83.072c-2.067,1.1-3.217,2.85-3.45,5.25
					c-0.267,2.533,0.967,4.017,3.7,4.45c0.233,1.633,1.45,2.8,3.65,3.5l-0.25-0.15c-0.833-0.367-1.5-0.917-2-1.65l-1.4-1.95
					c-2.767-0.4-3.883-1.917-3.35-4.55C59.495,85.672,60.528,84.038,62.095,83.072 M50.595,87.022c-0.5,0.867-0.983,2.067-1.45,3.6
					c-0.633,0.3-2,0.533-4.1,0.7c-1.867,0.133-3.133,0.45-3.8,0.95c0.733-0.3,2.167-0.55,4.3-0.75c1.967-0.2,3.333-0.5,4.1-0.9
					c-0.067-0.567,0.1-1.267,0.5-2.1L50.595,87.022 M45.045,99.222c-1.433,0.033-2.65,0.283-3.65,0.75c-1.333,0.6-2.167,1.5-2.5,2.7
					c-1.733-0.1-3.2,0.533-4.4,1.9c-1.2,1.367-1.517,2.883-0.95,4.55c-1.433,1.3-2.25,3.15-2.45,5.55
					c-0.1,1.567,0.083,3.583,0.55,6.05l-0.7,2.05v-0.25c-0.633,0.767-0.767,1.7-0.4,2.8l0.85,2.95l0.55,0.3
					c0.2,0.167,0.417,0.233,0.65,0.2v-0.25c6.7,1.733,11.267,2.2,13.7,1.4c5-1.567,8.967-4.267,11.9-8.1
					c3.233-4.3,4.283-9.017,3.15-14.15c-0.233-1.067-1.333-2.783-3.3-5.15c-1.733-2.067-2.55-4.05-2.45-5.95l-0.2-0.2
					c0.067-1.4-0.383-2.533-1.35-3.4c-0.833-0.767-1.817-1.133-2.95-1.1c-1.567,0.067-2.867,1-3.9,2.8
					C46.628,95.705,45.911,97.222,45.045,99.222 M73.145,98.422c0.967,0.733,1.367,1.817,1.2,3.25c-0.1,1-0.767,2.017-2,3.05
					c-1.333,1.133-2.1,1.95-2.3,2.45l3.25-3.05c1.167-1.267,1.6-2.65,1.3-4.15c-0.2-1.033-0.8-1.767-1.8-2.2l-3.3-0.7
					C71.228,97.438,72.445,97.888,73.145,98.422 M24.545,112.572l1.95,0.05c0.733-0.233,1.083-0.683,1.05-1.35l-0.7-0.45
					c-0.567-0.167-1.133-0.05-1.7,0.35C24.545,111.572,24.345,112.038,24.545,112.572"/>
				<path class="st1" d="M139.645,89.672l1.95,2.25c0.8,0.8,1.667,1.317,2.6,1.55l-2.8-2.05c-0.967-0.967-1.317-2.033-1.05-3.2
					c0.367,1.167,1.783,2.35,4.25,3.55c2.267,1.067,3.417,2.283,3.45,3.65c-0.367-0.1-0.917-0.517-1.65-1.25
					c-0.6-0.6-1.25-0.9-1.95-0.9c1.467,0.867,2.5,1.733,3.1,2.6l-0.3,1.6c-0.167,0.633-0.217,1.233-0.15,1.8
					c-0.433-0.933-1.883-2.333-4.35-4.2C140.745,93.538,139.711,91.738,139.645,89.672"/>
				<path class="st4" d="M101.795,51.772c-0.433,0.433-0.55,0.833-0.35,1.2l11.75,0.25c4.833,0.5,7.95,2.183,9.35,5.05
					c0.333,0.7,0.283,1.55-0.15,2.55c-0.467,1.1-1.217,1.883-2.25,2.35l-0.2,0.7c2.233,1.533,6.067,2.217,11.5,2.05
					c5.433-0.133,9.233,0.55,11.4,2.05c0.3,0.467,0.35,1.067,0.15,1.8l-0.3,1.75c1.433,1.2,2.217,2.483,2.35,3.85l-0.1-0.1v0.45
					c-1.7,0.6-2.9,1.183-3.6,1.75c-1.167,0.933-1.567,2.117-1.2,3.55c-0.4,0.1-0.767,0.333-1.1,0.7l-0.85,0.95
					c-0.033,1.067,0.1,1.967,0.4,2.7l1.3,2.1c-0.433,0.733-0.7,1.417-0.8,2.05c-0.4-0.2-0.8-0.667-1.2-1.4l-0.9-1.6
					c-2.233-1.233-4.15-1.367-5.75-0.4c-0.633,0.233-1.55,0.867-2.75,1.9c-1.267,1.133-2.25,1.867-2.95,2.2l-0.8,0.15l-2.3-0.15
					l-1.75-0.25c0.533-0.5,0.867-1.25,1-2.25l0.3-2.5c0.667-1.3,1.267-3,1.8-5.1c0.6-2.367,0.733-4.05,0.4-5.05l-0.4-1.25v-0.9
					c0.233-1.333-0.017-2.6-0.75-3.8c-0.7-1.1-1.617-1.85-2.75-2.25c-2.867-1.067-4.733,0.25-5.6,3.95l-3.8-0.1l-0.3,0.45v-0.25
					c-2.133-0.233-3.65,0.617-4.55,2.55c-0.733,2.4-1.45,4.033-2.15,4.9h0.25l-1.9,2.8c-0.8,1.1-1.3,2.067-1.5,2.9
					c-0.567,1.533-0.9,3.15-1,4.85l-10.2-0.75c-2.633-0.567-4.8-1.267-6.5-2.1l-1.45-1.5c2.167-0.367,4.617-1.917,7.35-4.65l6-5.9
					l0.05-2.7l-0.5-0.55c-0.433-0.1-0.867-0.333-1.3-0.7l-0.3-0.45c0.933-1.633,1.4-3.55,1.4-5.75
					c-0.033-2.233-0.55-4.083-1.55-5.55l0.1-0.35c-0.133-0.633-0.6-1.45-1.4-2.45c-0.733-0.9-1.15-1.767-1.25-2.6l-2.4-2.4
					l-0.35-0.1l0.25-0.2l7.75-0.7C98.578,49.288,100.695,50.038,101.795,51.772"/>
				<path class="st1" d="M140.195,37.272l-0.7-0.4h-0.2l-0.6-0.15c-1.867-1.067-4.7-3.35-8.5-6.85
					c-3.367-3.167-5.483-5.333-6.35-6.5l-7.6-1.7c-3.167-0.633-5.567-1.367-7.2-2.2c0.067-0.333,0.283-0.633,0.65-0.9l0.9-0.7
					c2.033-0.2,4.4,0,7.1,0.6l6.9,1.75l7.9,8.45C136.895,33.372,139.461,36.238,140.195,37.272"/>
				<path class="st5" d="M139.545,7.922c0,3.533-0.1,5.833-0.3,6.9c-2.2,1.8-4.733,2.767-7.6,2.9c-2.667,0.133-5.35-0.45-8.05-1.75
					c0.033-0.933-0.367-2.3-1.2-4.1c0.5-2.433,1.967-4.4,4.4-5.9c1.4-0.867,3.8-1.85,7.2-2.95l3,2.2
					C138.195,6.155,139.045,7.055,139.545,7.922"/>
				<path class="st1" d="M139.345,37.022c0.167,0.467,0.167,1.017,0,1.65l-0.45,1.6l-3.05-0.1l-2.9-1.15l1.15-2l2.35-0.2l2.25-0.1
					L139.345,37.022"/>
				<path class="st2" d="M139.645,89.672l-0.6,0.1l0.05-0.25L139.645,89.672"/>
				<path class="st2" d="M137.895,88.122c0.4,0.733,0.8,1.2,1.2,1.4l-0.05,0.25c-0.433-0.1-0.867-0.517-1.3-1.25
					c-0.4-0.667-0.65-1.25-0.75-1.75l-2.95-0.7c-1.033-0.2-1.883-0.2-2.55,0l-0.25,0.05c1.6-0.967,3.517-0.833,5.75,0.4
					L137.895,88.122"/>
				<path class="st1" d="M138.695,36.722l-2.25,0.1l-2.35,0.2l-1.15,2c-1.567,0.3-3.267-0.85-5.1-3.45l-3.75-6.25
					c-1.133-1.7-2.467-2.833-4-3.4c-2.5-1-6.183-1.583-11.05-1.75l-11.2-0.95l-0.3-0.5l-0.2-0.55l-0.2-1.1l-0.45-1.05l-0.2-0.25
					l-1.25-0.1l-1.25,0.3l-0.5,0.45l-0.35,1.65l-0.25,0.45c-4.233,0.833-9.283,3.067-15.15,6.7c-7.4,4.633-12.2,7.417-14.4,8.35
					c-0.267-1.9-0.233-4.017,0.1-6.35l5.9-1.5l5.45-2.05c1.233-0.5,3.033-2,5.4-4.5c2.133-2.233,4.167-3.533,6.1-3.9l4.75-0.45
					c1.8-0.267,3.217-0.833,4.25-1.7h7.7l7.6,0.75l-0.9,0.7c-0.367,0.267-0.583,0.567-0.65,0.9c1.633,0.833,4.033,1.567,7.2,2.2
					l7.6,1.7c0.867,1.167,2.983,3.333,6.35,6.5C133.995,33.372,136.828,35.655,138.695,36.722"/>
				<path class="st2" d="M130.295,100.222c-0.833-0.667-1.15-1.033-0.95-1.1l1.4,0.85c-0.2,0.6-0.667,0.967-1.4,1.1
					c-0.733,0.133-1.383,0-1.95-0.4c0.167-0.733,0.433-1.1,0.8-1.1c0.4,0.033,0.217,0.333-0.55,0.9c0.3,0.333,0.767,0.467,1.4,0.4
					C129.711,100.838,130.128,100.622,130.295,100.222"/>
				<path class="st2" d="M131.245,86.122l-2.65,2.2c-1.1,1-2.117,1.633-3.05,1.9c0.7-0.333,1.683-1.067,2.95-2.2
					C129.695,86.988,130.611,86.355,131.245,86.122"/>
				<path class="st2" d="M122.445,90.222l2.3,0.15l0.8-0.15l-4.85-0.2v-0.05L122.445,90.222"/>
				<path class="st5" d="M107.295,72.822c0.567-0.5,1.75-1.05,3.55-1.65h-0.25l0.3-0.45l3.8,0.1c0.867-3.7,2.733-5.017,5.6-3.95
					c1.133,0.4,2.05,1.15,2.75,2.25c0.733,1.2,0.983,2.467,0.75,3.8v0.9l0.4,1.25c0.333,1,0.2,2.683-0.4,5.05
					c-0.533,2.1-1.133,3.8-1.8,5.1c-2.367,1.567-4.233,2.6-5.6,3.1c-2.433,0.833-4.733,0.45-6.9-1.15
					c-2.167,1.533-4.15,1.317-5.95-0.65c-1.8-1.967-1.35-3.7,1.35-5.2l-0.25-1.2c-0.233-0.533-0.25-0.95-0.05-1.25v0.2
					c0.233-0.667,0.8-1.383,1.7-2.15C105.961,75.088,106.295,73.722,107.295,72.822"/>
				<path class="st1" d="M101.345,87.272c0.2-1.433,0-2.5-0.6-3.2c0.2-0.833,0.7-1.8,1.5-2.9l1.9-2.8v0.25l0.2,0.25h0.25
					c-0.2,0.3-0.183,0.717,0.05,1.25l0.25,1.2c-2.7,1.5-3.15,3.233-1.35,5.2c1.8,1.967,3.783,2.183,5.95,0.65
					c2.167,1.6,4.467,1.983,6.9,1.15c1.367-0.5,3.233-1.533,5.6-3.1l-0.3,2.5c-0.133,1-0.467,1.75-1,2.25v0.05l-4.9,1l-5.1,1.55
					c-4.067,1-7.217,0.35-9.45-1.95C101.078,90.088,101.111,88.972,101.345,87.272"/>
				<path class="st1" d="M120.695,90.022c0.067,0.567-0.083,0.933-0.45,1.1c-4.567,1.6-8.1,2.667-10.6,3.2
					c-4.5,1.033-7.3-0.2-8.4-3.7c2.233,2.3,5.383,2.95,9.45,1.95l5.1-1.55L120.695,90.022"/>
				<path class="st1" d="M116.445,27.422c1.033,0.3,1.65,0.967,1.85,2c-3.333-0.6-7.333-0.95-12-1.05c-5.4-0.1-9.25,0.233-11.55,1
					c-3.567,1.2-7.8,3.35-12.7,6.45l-12.4,7.8l-0.6,0.25c-0.467-0.5-1.1-0.8-1.9-0.9l-2.2-0.05l-0.3-0.9
					c0.667-0.8,1.45-1.417,2.35-1.85l2.75-1c2.4-0.667,5.067-1.833,8-3.5l7.35-4.15c0.8-0.4,1.867-1.067,3.2-2l3.05-1.85
					c1.2-0.6,2.717-0.967,4.55-1.1l4.8-0.1l12.95,0.6L116.445,27.422"/>
				<path class="st2" d="M109.095,45.622c-1.2,0.433-1.9,0.783-2.1,1.05c-0.267,1.767,0.15,2.867,1.25,3.3
					c0.9,0.367,2,0.233,3.3-0.4c1.267-0.633,2.017-1.367,2.25-2.2c0.267-0.967-0.4-1.667-2-2.1c1.233,0.067,1.95,0.467,2.15,1.2
					c0.2,0.633-0.033,1.35-0.7,2.15c-1.633,2.033-3.467,2.583-5.5,1.65c-0.367-0.333-0.617-0.883-0.75-1.65l-0.25-2.15l1.55-0.8
					c0.6-0.3,1.217-0.433,1.85-0.4L109.095,45.622"/>
				<path class="st2" d="M110.595,71.172h0.25c-1.8,0.6-2.983,1.15-3.55,1.65c-1,0.9-1.333,2.267-1,4.1
					c-0.9,0.767-1.467,1.483-1.7,2.15v-0.2h-0.25l-0.2-0.25v-0.25h-0.25c0.7-0.867,1.417-2.5,2.15-4.9
					c0.9-1.933,2.417-2.783,4.55-2.55V71.172"/>
				<path class="st2" d="M100.745,88.772l-1.05,0.35l0.05-0.2L100.745,88.772"/>
				<path class="st2" d="M99.745,88.922l-0.05,0.2c-1,0.2-2.467,0.2-4.4,0l-5.75-0.95L99.745,88.922"/>
				<path class="st3" d="M99.795,101.272c-0.367,1.033-1.133,1.667-2.3,1.9c-1.133,0.233-2.15,0.067-3.05-0.5l-0.15-0.55
					c-0.133-1.367,0.633-2.2,2.3-2.5C98.295,99.355,99.361,99.905,99.795,101.272"/>
				<path class="st1" d="M88.945,79.922c-2.733,2.733-5.183,4.283-7.35,4.65l-0.75-0.5l0.3,0.6l-2.9-0.35
					c-1.333-0.667-2.45-1.15-3.35-1.45c-2.267-0.733-4.917-1.083-7.95-1.05c-3.267,0-6.133,0.467-8.6,1.4
					c-7.4,2.8-14.333,5.983-20.8,9.55c-7.7,4.233-13.983,8.633-18.85,13.2c-1.2,1.133-2.8,2.183-4.8,3.15l-4.7,2.25l0.15-0.35v-0.3
					l0.45-4.75c2.733-1.567,6.117-3.9,10.15-7c4.4-3.4,7.15-5.9,8.25-7.5c0.833-1.2,2.217-2.233,4.15-3.1l5.6-2.25
					c8.5-4.067,15.617-7.1,21.35-9.1c2.133-0.767,4.317-1.117,6.55-1.05l6.95,0.6l5.45,0.65c2,0.2,3.45,0.2,4.35,0
					c1.633-0.333,3.55-1.317,5.75-2.95l4.85-4.2c0.433,0.367,0.867,0.6,1.3,0.7l0.5,0.55l-0.05,2.7L88.945,79.922 M86.945,77.972
					c-3.067,1.933-6.383,3.033-9.95,3.3c1.9,0.067,3.917-0.283,6.05-1.05c2-0.733,3.667-1.667,5-2.8l3.6-2.95
					c1.3-1.2,2.1-2.3,2.4-3.3C92.045,73.972,89.678,76.238,86.945,77.972 M17.845,100.722c-0.2,0-0.317,0.067-0.35,0.2l0.65,0.25
					c0.333,0.067,0.517-0.017,0.55-0.25h-0.25v-0.25L17.845,100.722 M62.245,80.072c1.367-0.567,2.367-0.9,3-1
					c1.633-0.2,3.65-0.017,6.05,0.55l5.7,1.65c-1.8-0.8-3.733-1.45-5.8-1.95l-5.95-0.45c-0.933,0.167-2.217,0.583-3.85,1.25
					l-4.05,1.6l-4.25,1.2c-1.633,0.433-2.95,0.917-3.95,1.45l4.65-1.35l4.95-1.55L62.245,80.072"/>
				<path class="st1" d="M86.295,19.272c-1.933,0.367-3.967,1.667-6.1,3.9c-2.367,2.5-4.167,4-5.4,4.5l-5.45,2.05l-5.9,1.5l0.2-0.55
					c-0.333-1.367,0.033-2.517,1.1-3.45c0.7-0.567,1.967-1.217,3.8-1.95c2.9-1.133,7.267-3.317,13.1-6.55
					c5.133-2.367,9.25-3.017,12.35-1.95l0.7,0.05l0.6,0.3c-1.033,0.867-2.45,1.433-4.25,1.7L86.295,19.272"/>
				<path class="st1" d="M92.745,58.322c1,1.467,1.517,3.317,1.55,5.55c0,2.2-0.467,4.117-1.4,5.75l-7.3,4.4
					c-2.733,1.533-5.733,2.167-9,1.9l-8.8-1.1c-3.6-0.333-6.783-0.05-9.55,0.85c-2.2,0.733-4.983,1.983-8.35,3.75l-8.35,4.3
					l-15.35,6.95c-2.133,0.967-4.9,3.217-8.3,6.75c-3.467,3.633-6.1,5.9-7.9,6.8l0.7-6.95l3.45-4.7c1.367-2.033,2.7-3.433,4-4.2
					c0.867-0.5,2.383-1.05,4.55-1.65c10.867-4.167,22.067-9.85,33.6-17.05c1.267-0.467,2.15-0.75,2.65-0.85
					c1-0.233,1.917-0.233,2.75,0l15.15-0.5c5.967-0.367,10.383-2.333,13.25-5.9c0-0.333,0.517-0.833,1.55-1.5l1.7-1.25
					c-0.367,0.1-0.6,0.033-0.7-0.2c-0.067-0.133-0.083-0.4-0.05-0.8L92.745,58.322"/>
				<path class="st2" d="M87.795,50.522l2.4,2.4c0.1,0.833,0.517,1.7,1.25,2.6c0.8,1,1.267,1.817,1.4,2.45l-0.1,0.35l-0.15,0.35
					c-0.033,0.4-0.017,0.667,0.05,0.8c0.1,0.233,0.333,0.3,0.7,0.2l-1.7,1.25c-1.033,0.667-1.55,1.167-1.55,1.5
					c-0.233-0.233,0.1-0.783,1-1.65c0.933-0.933,1.35-1.55,1.25-1.85c-0.133-1-0.667-2.083-1.6-3.25c-0.933-1.133-1.433-2.133-1.5-3
					l-1.95-1.95c-0.867-0.633-1.9-0.933-3.1-0.9c-0.8-2-2.433-2.9-4.9-2.7c-2.267,0.2-4.083,1.083-5.45,2.65
					c0.3-0.533,0.55-0.833,0.75-0.9c-0.567-0.1-1.3-0.6-2.2-1.5c-0.8-0.8-1.75-1.1-2.85-0.9l0.1-0.4l0.15-0.35l0.15,0.15l0.1-0.15
					c0.867-0.167,1.617,0.133,2.25,0.9c0.767,0.933,1.45,1.433,2.05,1.5c0.4,0.067,1.517-0.3,3.35-1.1
					c1.633-0.7,3.083-0.817,4.35-0.35c0.833,0.367,1.633,1.25,2.4,2.65l1.7,0.2l1.4,0.55l-0.1,0.35L87.795,50.522"/>
				<path class="st2" d="M92.845,42.622c0.133,0.667-0.083,1.15-0.65,1.45c-0.567,0.233-0.983,0.15-1.25-0.25l0.95-0.05
					c0.6,0.033,0.833-0.2,0.7-0.7c0-0.2-0.183-0.283-0.55-0.25l-0.9,0.05C91.711,42.438,92.278,42.355,92.845,42.622"/>
				<path class="st2" d="M94.045,71.172c-0.3,1-1.1,2.1-2.4,3.3l-3.6,2.95c-1.333,1.133-3,2.067-5,2.8
					c-2.133,0.767-4.15,1.117-6.05,1.05c3.567-0.267,6.883-1.367,9.95-3.3C89.678,76.238,92.045,73.972,94.045,71.172"/>
				<path class="st2" d="M85.145,87.722l-2.1-1.65c1.7,0.833,3.867,1.533,6.5,2.1L85.145,87.722"/>
				<path class="st2" d="M81.595,84.572l1.45,1.5l-1.9-1.4L81.595,84.572"/>
				<path class="st2" d="M81.595,84.572l-0.45,0.1l-0.3-0.6L81.595,84.572"/>
				<path class="st2" d="M74.595,99.972c0.3,1.5-0.133,2.883-1.3,4.15l-3.25,3.05c0.2-0.5,0.967-1.317,2.3-2.45
					c1.233-1.033,1.9-2.05,2-3.05c0.167-1.433-0.233-2.517-1.2-3.25c-0.7-0.533-1.917-0.983-3.65-1.35l3.3,0.7
					C73.795,98.205,74.395,98.938,74.595,99.972"/>
				<path class="st2" d="M73.395,50.272l0.1-0.05l-0.35,0.55c-0.7-0.467-1.517-0.667-2.45-0.6c-0.867,0.067-1.65,0.35-2.35,0.85
					c0.367-0.667,1.117-1.067,2.25-1.2C71.595,49.722,72.528,49.872,73.395,50.272"/>
				<path class="st2" d="M58.745,81.472l-4.95,1.55l-4.65,1.35c1-0.533,2.317-1.017,3.95-1.45l4.25-1.2l4.05-1.6
					c1.633-0.667,2.917-1.083,3.85-1.25l5.95,0.45c2.067,0.5,4,1.15,5.8,1.95l-5.7-1.65c-2.4-0.567-4.417-0.75-6.05-0.55
					c-0.633,0.1-1.633,0.433-3,1L58.745,81.472"/>
				<path class="st2" d="M65.745,96.122l0.25,0.15c-2.2-0.7-3.417-1.867-3.65-3.5c-2.733-0.433-3.967-1.917-3.7-4.45
					c0.233-2.4,1.383-4.15,3.45-5.25c-1.567,0.967-2.6,2.6-3.1,4.9c-0.533,2.633,0.583,4.15,3.35,4.55l1.4,1.95
					C64.245,95.205,64.911,95.755,65.745,96.122"/>
				<path class="st1" d="M65.395,55.572c2.3,3.267,0.8,5.717-4.5,7.35c-5.133,1.533-9.15,1.5-12.05-0.1l-0.7-0.5l-0.15-1.5
					c0-0.567,0.217-0.967,0.65-1.2l1.65,0.75c0.633,0.367,1.183,0.567,1.65,0.6l0.05,0.15c2.233,0.7,4.65,0.45,7.25-0.75
					c2.567-1.2,4.417-2.9,5.55-5.1L65.395,55.572"/>
				<path class="st1" d="M55.595,96.572c-0.1,1.9,0.717,3.883,2.45,5.95c1.967,2.367,3.067,4.083,3.3,5.15
					c1.133,5.133,0.083,9.85-3.15,14.15c-2.933,3.833-6.9,6.533-11.9,8.1c-2.433,0.8-7,0.333-13.7-1.4h0.25
					c-0.667-1-1.1-1.817-1.3-2.45l-0.15-0.4l-0.35-0.15l0.35-0.1c-0.167-0.233-0.25-0.633-0.25-1.2v-1.45
					c0.267,0.567,1.083,1.083,2.45,1.55c1.367,0.467,2.2,1,2.5,1.6l6.15,0.3c2.467,0.067,4.267-0.467,5.4-1.6
					c0.633-0.733,1.9-1.483,3.8-2.25c1.767-0.767,2.95-1.583,3.55-2.45c-0.467-1.133-0.167-2.683,0.9-4.65c1.067-2,1.4-3.6,1-4.8
					c-0.233-0.533-0.3-2.067-0.2-4.6c0.1-1.933-0.583-3.25-2.05-3.95c0.267-0.533,0.317-1.467,0.15-2.8
					c-0.167-1.167-0.017-2.05,0.45-2.65l0.15-0.1L55.595,96.572"/>
				<path class="st5" d="M50.795,56.472c1.933-1.333,4.233-2.133,6.9-2.4c2.767-0.267,5.133,0.133,7.1,1.2
					c-1.133,2.2-2.983,3.9-5.55,5.1c-2.6,1.2-5.017,1.45-7.25,0.75l-0.05-0.15l-0.55-2.25L50.795,56.472"/>
				<path class="st5" d="M54.795,99.122c0.167,1.333,0.117,2.267-0.15,2.8c1.467,0.7,2.15,2.017,2.05,3.95
					c-0.1,2.533-0.033,4.067,0.2,4.6c0.4,1.2,0.067,2.8-1,4.8c-1.067,1.967-1.367,3.517-0.9,4.65c-0.6,0.867-1.783,1.683-3.55,2.45
					c-1.9,0.767-3.167,1.517-3.8,2.25c-1.133,1.133-2.933,1.667-5.4,1.6l-6.15-0.3c-0.3-0.6-1.133-1.133-2.5-1.6
					c-1.367-0.467-2.183-0.983-2.45-1.55h-0.2l0.7-2.05c-0.467-2.467-0.65-4.483-0.55-6.05c0.2-2.4,1.017-4.25,2.45-5.55
					c-0.567-1.667-0.25-3.183,0.95-4.55c1.2-1.367,2.667-2,4.4-1.9c0.333-1.2,1.167-2.1,2.5-2.7c1-0.467,2.217-0.717,3.65-0.75
					c0.867-2,1.583-3.517,2.15-4.55c1.033-1.8,2.333-2.733,3.9-2.8c1.133-0.033,2.117,0.333,2.95,1.1c0.967,0.867,1.417,2,1.35,3.4
					l-0.15,0.1C54.778,97.072,54.628,97.955,54.795,99.122"/>
				<path class="st2" d="M50.595,87.022l-0.45,1.5c-0.4,0.833-0.567,1.533-0.5,2.1c-0.767,0.4-2.133,0.7-4.1,0.9
					c-2.133,0.2-3.567,0.45-4.3,0.75c0.667-0.5,1.933-0.817,3.8-0.95c2.1-0.167,3.467-0.4,4.1-0.7
					C49.611,89.088,50.095,87.888,50.595,87.022"/>
				<path class="st2" d="M43.645,143.172h0.25l-5.05-0.15c-2.5-0.133-4.183,0.233-5.05,1.1c0.2-0.733-0.283-1.217-1.45-1.45
					l-3.1-0.45c-0.367-2.167-1.717-3.733-4.05-4.7c-2.3-0.967-4.633-1-7-0.1c-0.267-0.967-0.883-1.75-1.85-2.35l-2.95-1.5l-2.4-2.5
					c-0.933-1.1-1.883-1.7-2.85-1.8c-0.033-1.167-0.467-2.367-1.3-3.6l-1.85-2.4l-1.05,0.5c-0.5,0.167-0.867,0.317-1.1,0.45
					c-0.2-0.1-0.083-0.25,0.35-0.45l1.1-0.3c0.167-0.733,1.183-3.05,3.05-6.95c1.267-2.7,1.7-5.25,1.3-7.65h0.2l0.25,0.9l0.25,0.95
					v0.3l-0.15,0.35l0.35-0.1c0.1,2.133-0.5,4.25-1.8,6.35c-1.6,2.5-2.517,4.3-2.75,5.4c1.2,0.367,2.133,1.15,2.8,2.35
					c0.5,0.9,0.933,2.2,1.3,3.9c2.133,0.033,3.65,1.233,4.55,3.6c1.233,0,2.25,0.417,3.05,1.25l1.75,2.55
					c2.533-1,4.983-0.967,7.35,0.1c2.3,1.033,3.683,2.683,4.15,4.95l2.7,0.05l2.1,1.15c1.133-0.633,2.617-0.933,4.45-0.9
					c1.667,0.033,3.15,0.333,4.45,0.9V143.172"/>
				<path class="st2" d="M25.645,100.922c0.633-0.567,3.283-0.75,7.95-0.55c3.9,0.133,5.817-0.967,5.75-3.3
					c-0.033-0.533-0.233-1-0.6-1.4l-1.1-1.2c0.4-0.9,0.733-1.4,1-1.5c0.3-0.067,0.05,0.35-0.75,1.25l1.05,1.3
					c0.367,0.433,0.567,0.883,0.6,1.35c0.167,2.5-1.667,3.733-5.5,3.7l-4.75-0.2C27.561,100.338,26.345,100.522,25.645,100.922"/>
				<path class="st2" d="M31.545,126.072c0.2,0.633,0.633,1.45,1.3,2.45h-0.25v0.25c-0.233,0.033-0.45-0.033-0.65-0.2l-0.55-0.3
					l-0.85-2.95c-0.367-1.1-0.233-2.033,0.4-2.8v0.25h0.2v1.45c0,0.567,0.083,0.967,0.25,1.2l-0.35,0.1L31.545,126.072"/>
				<path class="st2" d="M31.395,125.672l0.15,0.4l-0.5-0.55L31.395,125.672"/>
				<path class="st3" d="M27.545,111.272c0.033,0.667-0.317,1.117-1.05,1.35l-1.95-0.05c-0.2-0.533,0-1,0.6-1.4
					c0.567-0.4,1.133-0.517,1.7-0.35L27.545,111.272"/>
				<path class="st2" d="M18.445,100.922h0.25c-0.033,0.233-0.217,0.317-0.55,0.25l-0.65-0.25c0.033-0.133,0.15-0.2,0.35-0.2
					l0.6-0.05V100.922"/>
				<path class="st6" d="M24.545,112.572c-0.2-0.533,0-1,0.6-1.4c0.567-0.4,1.133-0.517,1.7-0.35l0.7,0.45
					c0.033,0.667-0.317,1.117-1.05,1.35L24.545,112.572z"/>
				<path class="st6" d="M99.795,101.272c-0.367,1.033-1.133,1.667-2.3,1.9c-1.133,0.233-2.15,0.067-3.05-0.5l-0.15-0.55
					c-0.133-1.367,0.633-2.2,2.3-2.5C98.295,99.355,99.361,99.905,99.795,101.272z"/>
				<path class="st7" d="M31.045,125.522l0.5,0.55c0.467,0.4,1.467,0.633,3,0.7c1.3,0.067,2.15,0.517,2.55,1.35
					c0.7-0.167,2.367-0.2,5-0.1l5.9-0.4c1.933-0.5,3.983-1.65,6.15-3.45c2.267-1.867,3.333-3.383,3.2-4.55l-0.1-2.2
					c0.1-0.967,0.567-1.783,1.4-2.45"/>
				<path class="st8" d="M55.395,96.372l0.2,0.2c-0.1,1.9,0.717,3.883,2.45,5.95c1.967,2.367,3.067,4.083,3.3,5.15
					c1.133,5.133,0.083,9.85-3.15,14.15c-2.933,3.833-6.9,6.533-11.9,8.1c-2.433,0.8-7,0.333-13.7-1.4"/>
				<path class="st9" d="M55.245,96.472c-0.467,0.6-0.617,1.483-0.45,2.65c0.167,1.333,0.117,2.267-0.15,2.8
					c1.467,0.7,2.15,2.017,2.05,3.95c-0.1,2.533-0.033,4.067,0.2,4.6c0.4,1.2,0.067,2.8-1,4.8c-1.067,1.967-1.367,3.517-0.9,4.65
					c-0.6,0.867-1.783,1.683-3.55,2.45c-1.9,0.767-3.167,1.517-3.8,2.25c-1.133,1.133-2.933,1.667-5.4,1.6l-6.15-0.3
					c-0.3-0.6-1.133-1.133-2.5-1.6c-1.367-0.467-2.183-0.983-2.45-1.55"/>
				<path class="st8" d="M31.645,120.722l-0.7,2.05"/>
				<path class="st9" d="M31.645,120.722l-1.15-0.65c-0.667-0.033-1.717,0.55-3.15,1.75l-3.95,3.25c-3.6,2.533-6.55,2.033-8.85-1.5
					c3-1.733,5.15-3.2,6.45-4.4c2.433-2.267,1.567-3.85-2.6-4.75l-1.8-0.85l-3.25-0.4c-1.4-0.3-2.067-0.9-2-1.8"/>
				<path class="st10" d="M31.645,120.722c-0.467-2.467-0.65-4.483-0.55-6.05c0.2-2.4,1.017-4.25,2.45-5.55
					c-0.567-1.667-0.25-3.183,0.95-4.55c1.2-1.367,2.667-2,4.4-1.9c0.333-1.2,1.167-2.1,2.5-2.7c1-0.467,2.217-0.717,3.65-0.75
					c0.867-2,1.583-3.517,2.15-4.55c1.033-1.8,2.333-2.733,3.9-2.8c1.133-0.033,2.117,0.333,2.95,1.1c0.967,0.867,1.417,2,1.35,3.4"
					/>
				<path class="st9" d="M9.345,110.722l1.35-13.45l3.45-4.7c1.367-2.033,2.7-3.433,4-4.2c0.867-0.5,2.383-1.05,4.55-1.65
					c10.867-4.167,22.067-9.85,33.6-17.05c1.267-0.467,2.15-0.75,2.65-0.85c1-0.233,1.917-0.233,2.75,0l15.15-0.5
					c5.967-0.367,10.383-2.333,13.25-5.9"/>
				<path class="st7" d="M132.795,61.222c-0.2-0.267-0.1-0.55,0.3-0.85c0.433-0.333,0.8-0.433,1.1-0.3c0.4,0.333,0.517,0.667,0.35,1
					c-0.2,0.233-0.483,0.367-0.85,0.4L132.795,61.222z"/>
				<path class="st8" d="M100.745,84.072c0.2-0.833,0.7-1.8,1.5-2.9l1.9-2.8"/>
				<path class="st9" d="M101.245,90.622c-0.167-0.533-0.133-1.65,0.1-3.35c0.2-1.433,0-2.5-0.6-3.2"/>
				<path class="st7" d="M120.245,91.122c-4.567,1.6-8.1,2.667-10.6,3.2c-4.5,1.033-7.3-0.2-8.4-3.7"/>
				<path class="st8" d="M120.195,91.222c-1.233,1.733-3.517,2.933-6.85,3.6l-8.3,1c-1.867,0.267-3.15-0.05-3.85-0.95
					c-0.367-0.467-0.85-1.783-1.45-3.95l-0.05-1.8l0.05-0.2c0.1-1.7,0.433-3.317,1-4.85"/>
				<path class="st9" d="M120.695,90.022l-4.9,1l-5.1,1.55c-4.067,1-7.217,0.35-9.45-1.95"/>
				<path class="st10" d="M120.695,90.022c0.067,0.567-0.083,0.933-0.45,1.1"/>
				<path class="st9" d="M121.995,85.222c-2.367,1.567-4.233,2.6-5.6,3.1c-2.433,0.833-4.733,0.45-6.9-1.15
					c-2.167,1.533-4.15,1.317-5.95-0.65c-1.8-1.967-1.35-3.7,1.35-5.2l-0.25-1.2c-0.233-0.533-0.25-0.95-0.05-1.25"/>
				<path class="st11" d="M121.995,85.222l-0.3,2.5c-0.133,1-0.467,1.75-1,2.25"/>
				<path class="st11" d="M110.895,70.722l3.8,0.1c0.867-3.7,2.733-5.017,5.6-3.95c1.133,0.4,2.05,1.15,2.75,2.25
					c0.733,1.2,0.983,2.467,0.75,3.8v0.9l0.4,1.25c0.333,1,0.2,2.683-0.4,5.05c-0.533,2.1-1.133,3.8-1.8,5.1"/>
				<path class="st8" d="M110.895,70.722l-0.3,0.45"/>
				<path class="st9" d="M93.445,56.872l9.6-0.5c3.833-0.3,6.85,0.3,9.05,1.8l0.25,0.45v1.05c-0.8,1.3-2.417,2.5-4.85,3.6
					c-2.567,1.167-4.2,2.233-4.9,3.2c0.3,1.733,1.433,2.833,3.4,3.3l4.9,0.95"/>
				<path class="st9" d="M51.995,61.122c2.233,0.7,4.65,0.45,7.25-0.75c2.567-1.2,4.417-2.9,5.55-5.1"/>
				<path class="st10" d="M50.795,56.472c1.933-1.333,4.233-2.133,6.9-2.4c2.767-0.267,5.133,0.133,7.1,1.2"/>
				<path class="st9" d="M50.795,56.472l0.6,2.25l0.55,2.25"/>
				<path class="st7" d="M48.645,59.622c-0.433,0.233-0.65,0.633-0.65,1.2l0.15,1.5l0.7,0.5c2.9,1.6,6.917,1.633,12.05,0.1
					c5.3-1.633,6.8-4.083,4.5-7.35l-0.6-0.3"/>
				<path class="st9" d="M48.645,59.622l1.65,0.75c0.633,0.367,1.183,0.567,1.65,0.6"/>
				<path class="st12" d="M48.645,59.622c0.5-0.233,0.883-0.75,1.15-1.55c0.267-0.833,0.6-1.367,1-1.6"/>
				<path class="st8" d="M126.795,5.972c-2.433,1.5-3.9,3.467-4.4,5.9c0.833,1.8,1.233,3.167,1.2,4.1c2.7,1.3,5.383,1.883,8.05,1.75
					c2.867-0.133,5.4-1.1,7.6-2.9c0.2-1.067,0.3-3.367,0.3-6.9c-0.5-0.867-1.35-1.767-2.55-2.7l-3-2.2
					C130.595,4.122,128.195,5.105,126.795,5.972z"/>
				<path class="st9" d="M9.345,110.722v0.3"/>
				<path class="st9" d="M87.445,50.422l0.25-0.2l7.75-0.7c3.133-0.233,5.25,0.517,6.35,2.25c-0.433,0.433-0.55,0.833-0.35,1.2
					l11.75,0.25c4.833,0.5,7.95,2.183,9.35,5.05c0.333,0.7,0.283,1.55-0.15,2.55c-0.467,1.1-1.217,1.883-2.25,2.35l-0.2,0.7
					c2.233,1.533,6.067,2.217,11.5,2.05c5.433-0.133,9.233,0.55,11.4,2.05c0.3,0.467,0.35,1.067,0.15,1.8l-0.3,1.75
					c1.433,1.2,2.217,2.483,2.35,3.85"/>
				<path class="st13" d="M167.345,65.072l-2.55,0.1c-0.967,0.167-1.667,0.6-2.1,1.3l-5.95-0.55c-2.467-0.367-4.25,0.167-5.35,1.6
					c-1.6,0-2.933,0.583-4,1.75c-0.333,0.633-0.383,1.45-0.15,2.45l0.55,2.4l-0.85,0.55"/>
				<path class="st12" d="M139.495,36.872l0.7,0.4l-0.25,3l-0.6,0.35"/>
				<path class="st9" d="M138.895,40.272l0.45-1.6c0.167-0.633,0.167-1.183,0-1.65"/>
				<path class="st11" d="M138.895,40.272l0.45,0.35"/>
				<path class="st9" d="M124.595,20.222l-6.9-1.75c-2.7-0.6-5.067-0.8-7.1-0.6l-0.9,0.7c-0.367,0.267-0.583,0.567-0.65,0.9
					c1.633,0.833,4.033,1.567,7.2,2.2l7.6,1.7c0.867,1.167,2.983,3.333,6.35,6.5c3.8,3.5,6.633,5.783,8.5,6.85l0.65,0.3l0.85,0.25
					c-0.733-1.033-3.3-3.9-7.7-8.6L124.595,20.222z"/>
				<path class="st12" d="M157.095,50.122l-0.4-0.35l-2.3-6.15c-0.667-1.733-2.15-2.85-4.45-3.35l-5,0.4l-5.35,0.75
					c-0.167-0.133-0.25-0.4-0.25-0.8"/>
				<path class="st12" d="M157.095,50.122c2.133,0.367,4.067,1.783,5.8,4.25l4.4,5.95c-0.133,0.5-0.1,1.283,0.1,2.35
					c0.2,1.033,0.183,1.833-0.05,2.4"/>
				<path class="st7" d="M132.945,39.022l1.15-2l2.35-0.2l2.25-0.1l0.6,0.15"/>
				<path class="st7" d="M132.945,39.022l2.9,1.15l3.05,0.1"/>
				<path class="st7" d="M95.295,17.122h7.7l7.6,0.75"/>
				<path class="st9" d="M128.945,45.872c-1.2,0.533-2.083,1.017-2.65,1.45c-0.8,0.6-1.333,1.333-1.6,2.2
					c-0.967,2.967,0.5,5.167,4.4,6.6c3.833,1.433,6.85,1.067,9.05-1.1l6.8,0.5c2.633,0.7,4,2.167,4.1,4.4
					c-2.533,1.267-3.883,2.417-4.05,3.45c-0.167,1.133,1.133,1.933,3.9,2.4"/>
				<path class="st10" d="M128.945,45.872c0.467,0,0.95,0.183,1.45,0.55c1.967,0.867,4.75,1.267,8.35,1.2l8.35,0.7l8,2.9
					c1.067-0.433,1.733-0.8,2-1.1"/>
				<path class="st12" d="M97.345,22.172l0.2,0.55l0.3,0.5l11.2,0.95c4.867,0.167,8.55,0.75,11.05,1.75c1.533,0.567,2.867,1.7,4,3.4
					l3.75,6.25c1.833,2.6,3.533,3.75,5.1,3.45"/>
				<path class="st9" d="M97.345,22.172l-1.1,0.95c-0.433,0.433-0.867,0.667-1.3,0.7l-0.1,0.3c9.5,0.367,17.133,1.117,22.9,2.25
					c1.5,0.3,2.617,0.683,3.35,1.15c0.733,0.5,1.533,1.383,2.4,2.65l3.85,6.25c1.733,2.467,3.55,3.85,5.45,4.15"/>
				<path class="st7" d="M63.445,31.222l5.9-1.5l5.45-2.05c1.233-0.5,3.033-2,5.4-4.5c2.133-2.233,4.167-3.533,6.1-3.9l4.75-0.45
					c1.8-0.267,3.217-0.833,4.25-1.7"/>
				<path class="st9" d="M63.445,31.222l0.2-0.55c-0.333-1.367,0.033-2.517,1.1-3.45c0.7-0.567,1.967-1.217,3.8-1.95
					c2.9-1.133,7.267-3.317,13.1-6.55c5.133-2.367,9.25-3.017,12.35-1.95l0.7,0.05l0.6,0.3"/>
				<path class="st8" d="M121.895,34.822c1.633,1.3,3.05,3.017,4.25,5.15l2.8,5.9"/>
				<path class="st9" d="M121.895,34.822c-2.3-0.933-4.117-0.9-5.45,0.1c-1.167,0.867-2.05,2.567-2.65,5.1c-2.867,0.9-6.1,0.9-9.7,0
					l-0.5-0.45c-0.1-0.267-0.1-0.617,0-1.05l0.1-1l-0.7-0.75l-6.15,0.3c-0.633,0.2-2.683,1.033-6.15,2.5
					c-5.033,2.1-8.833,1.867-11.4-0.7"/>
				<path class="st8" d="M69.045,43.872l0.5,0.95l0.4,1.05"/>
				<path class="st6" d="M63.345,37.572c2.2-0.933,7-3.717,14.4-8.35c5.867-3.633,10.917-5.867,15.15-6.7l0.25-0.45l0.35-1.65
					l0.5-0.45l1.25-0.3l1.25,0.1l0.2,0.25l0.45,1.05l0.2,1.1"/>
				<path class="st9" d="M63.345,37.572c-0.267-1.9-0.233-4.017,0.1-6.35"/>
				<path class="st6" d="M118.295,29.422l3.6,5.4"/>
				<path class="st8" d="M118.295,29.422c-3.333-0.6-7.333-0.95-12-1.05c-5.4-0.1-9.25,0.233-11.55,1c-3.567,1.2-7.8,3.35-12.7,6.45
					l-12.4,7.8l-0.6,0.25"/>
				<path class="st13" d="M64.645,42.022l0.3,0.9l2.2,0.05c0.8,0.1,1.433,0.4,1.9,0.9"/>
				<path class="st10" d="M64.645,42.022l-1.5-1.35c0.2-1.367,0.267-2.4,0.2-3.1"/>
				<path class="st9" d="M64.645,42.022c0.667-0.8,1.45-1.417,2.35-1.85l2.75-1c2.4-0.667,5.067-1.833,8-3.5l7.35-4.15
					c0.8-0.4,1.867-1.067,3.2-2l3.05-1.85c1.2-0.6,2.717-0.967,4.55-1.1l4.8-0.1l12.95,0.6l2.8,0.35c1.033,0.3,1.65,0.967,1.85,2"/>
				<path class="st9" d="M77.145,119.272l-1.35-1.4c-0.4-0.633-0.5-1.25-0.3-1.85l0.5-0.5l3.15-1.35
					c1.233-0.533,2.067-1.25,2.5-2.15l-0.05-0.8c-0.233-0.667-1.1-1.35-2.6-2.05c-1.367-0.633-2.05-1.4-2.05-2.3
					c0.767-1.633,2.75-2.85,5.95-3.65c3.267-0.767,5.317-1.983,6.15-3.65c0.367-3.067-1.567-4.85-5.8-5.35
					c-5.233-0.067-8.767-0.45-10.6-1.15c-2.533-0.967-4.067-2.317-4.6-4.05c-0.6-1.967,0.35-3.883,2.85-5.75"/>
				<path class="st8" d="M77.145,119.272c1.833-1.767,4.317-2.583,7.45-2.45l7.9,1.15c0.667-1.433,1.85-2.5,3.55-3.2
					c1.533-0.633,3.15-0.85,4.85-0.65l0.9,0.6l0.9,0.6l3.4,0.25c1.267,0.133,2.067-0.4,2.4-1.6l1.4-1.4l1.5-1.25l4.75-0.8
					c1.833-0.033,3.267,0.533,4.3,1.7h0.35c1.333-1.367,3.25-1.367,5.75,0c1-0.967,2.4-1.383,4.2-1.25l4.5,0.25
					c0.5-1.567,1.5-2.917,3-4.05c1.033-0.833,2.517-1.65,4.45-2.45c0.067-1.033,0.7-1.983,1.9-2.85
					c1.467-1.033,2.333-1.783,2.6-2.25"/>
				<path class="st14" d="M43.645,143.172c0.367-0.1,1.1-0.633,2.2-1.6c1.733-1.033,3.8-1.25,6.2-0.65
					c3.133,0.8,5.383,1.117,6.75,0.95c1.067-1.567,2.767-2.933,5.1-4.1c2.8-1.2,4.833-2.133,6.1-2.8c0.7-2.767,2.317-5.45,4.85-8.05
					c-0.5-1.267-0.483-2.633,0.05-4.1c0.433-1.2,1.183-2.383,2.25-3.55"/>
				<path class="st9" d="M92.895,69.622l-7.3,4.4c-2.733,1.533-5.733,2.167-9,1.9l-8.8-1.1c-3.6-0.333-6.783-0.05-9.55,0.85
					c-2.2,0.733-4.983,1.983-8.35,3.75l-8.35,4.3l-15.35,6.95c-2.133,0.967-4.9,3.217-8.3,6.75c-3.467,3.633-6.1,5.9-7.9,6.8
					l-1.25,0.55"/>
				<path class="st13" d="M92.895,69.622c0.933-1.633,1.4-3.55,1.4-5.75c-0.033-2.233-0.55-4.083-1.55-5.55"/>
				<path class="st15" d="M93.195,70.072l-0.3-0.45"/>
				<path class="st9" d="M93.195,70.072l-4.85,4.2c-2.2,1.633-4.117,2.617-5.75,2.95c-0.9,0.2-2.35,0.2-4.35,0l-5.45-0.65l-6.95-0.6
					c-2.233-0.067-4.417,0.283-6.55,1.05c-5.733,2-12.85,5.033-21.35,9.1l-5.6,2.25c-1.933,0.867-3.317,1.9-4.15,3.1
					c-1.1,1.6-3.85,4.1-8.25,7.5c-4.033,3.1-7.417,5.433-10.15,7l-0.6,0.35"/>
				<path class="st8" d="M9.195,111.372l4.7-2.25c2-0.967,3.6-2.017,4.8-3.15c4.867-4.567,11.15-8.967,18.85-13.2
					c6.467-3.567,13.4-6.75,20.8-9.55c2.467-0.933,5.333-1.4,8.6-1.4c3.033-0.033,5.683,0.317,7.95,1.05
					c0.9,0.3,2.017,0.783,3.35,1.45l2.9,0.35l0.45-0.1c2.167-0.367,4.617-1.917,7.35-4.65l6-5.9l0.05-2.7l-0.5-0.55
					c-0.433-0.1-0.867-0.333-1.3-0.7"/>
				<path class="st9" d="M48.345,84.722c-2.833,1-5.95,2.333-9.35,4l-8.85,4.7c-2.133,1.2-3.9,2.717-5.3,4.55
					c-1.433,2-3.4,3.783-5.9,5.35c-1.933,1.267-4.4,2.5-7.4,3.7l-0.9,0.15l-0.95,0.2l-0.05,0.05c-0.267,0.167-0.583,0.6-0.95,1.3"/>
			</g>
		</g>
	</g>
	<path class="st16" d="M166.495,65.972l-10.3,2c-4.033,0.933-7.133,2.15-9.3,3.65c0,0.433,0.117,1.017,0.35,1.75
		c0.233,0.733,0.333,1.367,0.3,1.9c-3.567,3.833-5.983,3.95-7.25,0.35c-1.133-3.1-1.15-7.1-0.05-12c0.433-1.933,2.2-3.75,5.3-5.45
		c3-1.667,6.233-2.65,9.7-2.95c3.767-0.367,6.683,0.233,8.75,1.8C166.428,58.855,167.261,61.838,166.495,65.972"/>
	<path class="st16" d="M126.745,112.572l-7.5-0.7c-5.667-0.367-9.75,1.183-12.25,4.65c-4.5-0.867-7.383-1.283-8.65-1.25
		c-2.967,0.067-5.083,1.25-6.35,3.55c-4.533-1.567-8.617-1.65-12.25-0.25c-4.067,1.567-5.75,4.533-5.05,8.9l-2.7,3.8
		c-1.033,1.533-1.683,3.033-1.95,4.5c-3.3,1.467-5.417,2.45-6.35,2.95c-2.3,1.233-4.067,2.583-5.3,4.05
		c-3.833-1.033-8.033-1.1-12.6-0.2l-12.35,2.2c-1.033-0.367-2.167-1.1-3.4-2.2l-3.15-2.85c-2.6-2.167-5.4-2.7-8.4-1.6
		c-0.867-0.967-2.183-2.1-3.95-3.4l-4.45-3.3c-3.433-2.767-5.183-5.75-5.25-8.95c-0.033-1.167,0.483-3.167,1.55-6
		c1.233-3.3,1.95-5.5,2.15-6.6c0.8-4.567,1.483-7.883,2.05-9.95c1.033-3.633,2.333-6.2,3.9-7.7c3.467-1.533,7.633-3.7,12.5-6.5
		l13.45-7.8c6.567-3.7,10.6-5.917,12.1-6.65c5.2-2.467,9.483-3.683,12.85-3.65c0.833,0,1.817,0.367,2.95,1.1l2.7,1.55
		c1.8,0.633,4.483,1.2,8.05,1.7c2.733,0.7,4.267,2.233,4.6,4.6c0.5,3.533-0.433,6.3-2.8,8.3c-2.367,2-5.75,2.9-10.15,2.7
		c-0.667,2.967-2.833,5.45-6.5,7.45c-5.233,2.867-8.167,4.6-8.8,5.2c-0.3-0.033-0.733-0.267-1.3-0.7c-0.467-0.4-1.033-0.5-1.7-0.3
		c-2.067,1.667-3.8,4.15-5.2,7.45c-0.8,1.833-1.85,5-3.15,9.5c0.4,0.533,1.283,0.783,2.65,0.75c1.3-0.067,2.2-0.317,2.7-0.75
		c1,1.4,2.283,2.367,3.85,2.9c1.833,0.6,2.65-0.25,2.45-2.55c0.867,1.067,1.683,1.8,2.45,2.2c1.133,0.567,2.533,0.717,4.2,0.45
		c0.067-3.6,1.133-6.833,3.2-9.7c1.967-2.7,4.583-4.767,7.85-6.2c3.233-1.4,6.633-1.967,10.2-1.7c3.767,0.267,7.217,1.467,10.35,3.6
		c4.833-0.467,8.4-3.35,10.7-8.65l2.6-7.5c1.1-3.367,2.1-5.95,3-7.75c1.2-2.333,3.2-3.317,6-2.95c2.833,0.367,4.5,2,5,4.9
		c0.167,1.1,0.067,2.617-0.3,4.55c-0.3,1.633-0.2,3.333,0.3,5.1c3.933,0.1,7.7-1.233,11.3-4c4.4-3.433,7.5-5.417,9.3-5.95
		c2.033,0.433,4.333,1.533,6.9,3.3c3.1,2.167,5.017,3.4,5.75,3.7c-1.333,1.4-4.533,5.233-9.6,11.5
		c-3.867,4.8-7.317,8.383-10.35,10.75L126.745,112.572"/>
	<path class="st16" d="M105.995,58.322c1.567,9.633-1.983,14.95-10.65,15.95c-0.3-0.7-1.167-4.533-2.6-11.5
		c-1.1-5.233-2.783-8.833-5.05-10.8c-2.867-2.433-6.033-3.433-9.5-3l-4.2,1.1c-0.167,0.367-0.833,0.6-2,0.7l-3.6,1.2
		c-0.2-0.8,0.617-1.2,2.45-1.2h1.15l2-0.7l0.05-0.1c-0.3-0.433-1.333-1.183-3.1-2.25c-1.367-0.8-2.1-1.817-2.2-3.05
		c-1.433-0.6-2.883-0.817-4.35-0.65c-1.3-1.867-1.85-4.117-1.65-6.75c0.167-2.467,0.933-4.7,2.3-6.7c1.433-2.133,3.15-3.467,5.15-4
		c2.267-0.633,4.55-0.15,6.85,1.45l4.85,3.05c1.667,0.833,3.817,1.6,6.45,2.3c2.033,0.533,4.167,1.7,6.4,3.5
		c1.2,0.967,2.617,2.233,4.25,3.8c2.433-1.133,4.633-1.1,6.6,0.1c1.733,1.033,3,2.767,3.8,5.2c0.8,2.367,0.933,4.7,0.4,7
		C109.195,55.438,107.928,57.222,105.995,58.322"/>
</g>
</svg>
