<?xml version="1.0" encoding="utf-8"?>
<!-- Generator: Adobe Illustrator 24.0.1, SVG Export Plug-In . SVG Version: 6.00 Build 0)  -->
<svg version="1.1" id="Camada_1" xmlns="http://www.w3.org/2000/svg" xmlns:xlink="http://www.w3.org/1999/xlink" x="0px" y="0px"
	 viewBox="0 0 130.692 151.815" style="enable-background:new 0 0 130.692 151.815;" xml:space="preserve">
<style type="text/css">
	.st0{fill-rule:evenodd;clip-rule:evenodd;fill:#D9D5E6;}
	.st1{fill:none;stroke:#D9D5E6;stroke-width:0.4;stroke-linecap:round;}
	.st2{fill:none;stroke:#D9D5E6;stroke-width:0.35;stroke-linecap:round;}
	.st3{fill:none;stroke:#D9D5E6;stroke-width:0.3;stroke-linecap:round;}
</style>
<g transform="matrix(1.0, 0.0, 0.0, 1.0, 0.0, 0.0)">
	<g transform="matrix(1.0, 0.0, 0.0, 1.0, 0.0, 0.0)">
		<g id="shape0" transform="matrix(1.0, 0.0, 0.0, 1.0, 0.0, 0.0)">
			<path class="st0" d="M120.311,51.261c-0.233,1.3-0.7,2.75-1.4,4.35c-0.933,1.967-1.917,3.317-2.95,4.05l-0.15-0.3
				c0.933-0.733,1.833-2.117,2.7-4.15L120.311,51.261"/>
			<path class="st0" d="M118.611,42.111c0.967,1.5,0.25,0.867-2.15-1.9c-0.433,1.2-1.15,2.333-2.15,3.4l-2.9,2.6l2.75-2.85
				c1.2-1.367,1.883-2.733,2.05-4.1l1.2,1.65L118.611,42.111"/>
			<path class="st0" d="M115.811,59.361l-0.05,0.05l-0.25-0.6L115.811,59.361"/>
			<path class="st0" d="M116.461,54.611l-0.95,0.75c-0.533,0.167-0.85,0.4-0.95,0.7c-0.233-0.3-0.067-0.583,0.5-0.85L116.461,54.611
				"/>
			<path class="st0" d="M94.161,31.111c3.167-1.967,7.367-2.433,12.6-1.4c5.667,1.133,8.183,3.817,7.55,8.05
				c0-3.967-2.5-6.5-7.5-7.6C102.378,29.195,98.161,29.511,94.161,31.111"/>
			<path class="st0" d="M112.611,40.911c0-0.267,0.05-0.383,0.15-0.35l0.1,0.35c-2.133,3.033-6,4.967-11.6,5.8
				c-5.7,0.8-10.167-0.067-13.4-2.6l7.55,2c3.033,0.533,5.65,0.483,7.85-0.15c0.433-0.133,1.017-0.45,1.75-0.95
				s1.267-0.817,1.6-0.95l3.45-1.2C111.161,42.361,112.011,41.711,112.611,40.911"/>
			<path class="st0" d="M111.911,40.211l0.4-0.2l0.55-0.05c-0.567,0.4-1.25,0.567-2.05,0.5
				C109.645,40.395,110.011,40.311,111.911,40.211"/>
			<path class="st0" d="M102.761,50.311l7.2,3.45c2.9,1.367,4.75,3.05,5.55,5.05c-0.967-1.567-3-3.067-6.1-4.5
				C105.978,52.711,103.761,51.378,102.761,50.311"/>
			<path class="st0" d="M103.961,35.911c-0.267-0.167-0.067-0.367,0.6-0.6c0.6-0.167,0.883,0.033,0.85,0.6l-0.8-0.15
				C104.378,35.661,104.161,35.711,103.961,35.911"/>
			<path class="st0" d="M106.361,48.361c-0.267,0.267-0.817,0.55-1.65,0.85c-0.833,0.267-1.4,0.55-1.7,0.85
				c-0.033-0.367,0.367-0.7,1.2-1L106.361,48.361"/>
			<path class="st0" d="M97.511,43.811l-0.7,0.05c-0.267-0.3-0.35-0.633-0.25-1c0.267,0,0.4,0.133,0.4,0.4
				C96.994,43.561,97.178,43.745,97.511,43.811"/>
			<path class="st0" d="M93.661,21.611l-7.9-0.35h1.9l6.9-0.1c2.767,0.067,4.783,0.583,6.05,1.55
				C99.378,22.078,97.061,21.711,93.661,21.611"/>
			<path class="st0" d="M98.961,23.411c-6.033,1.5-10.35,2.967-12.95,4.4c-4.1,2.267-6.667,5.433-7.7,9.5
				c-0.733,0.467-1.367,1.283-1.9,2.45l-1.25,3.1c-0.267-1.1,0.067-2.3,1-3.6l2.15-3.15l0.2-1.05c0.033-0.467,0.117-0.833,0.25-1.1
				c1.1-2.2,4.067-4.683,8.9-7.45c1.367-0.767,3.033-1.433,5-2C94.795,23.911,96.895,23.545,98.961,23.411"/>
			<path class="st0" d="M93.161,31.311c-3.067,1.8-5.383,3.4-6.95,4.8l-0.45,0.45c-0.233,0.167-0.167,0.017,0.2-0.45
				c0.7-0.833,1.65-1.633,2.85-2.4c0.833-0.533,2.133-1.25,3.9-2.15C92.711,31.495,92.861,31.411,93.161,31.311"/>
			<path class="st0" d="M89.561,9.711c0-0.333,0.4-0.4,1.2-0.2c-1-0.567-2.483-0.817-4.45-0.75l-4.9,0.5
				c1.433-0.567,3.267-0.817,5.5-0.75c2.133,0.067,3.9,0.4,5.3,1c-0.5,0.367-1.3,0.517-2.4,0.45v-0.25H89.561"/>
			<path class="st0" d="M87.611,43.911c-0.733-0.6-1.283-1.2-1.65-1.8C86.361,41.911,86.911,42.511,87.611,43.911"/>
			<path class="st0" d="M85.511,37.811l0.1,1.9c-0.033,0.9,0.083,1.55,0.35,1.95C85.194,41.228,85.044,39.945,85.511,37.811"/>
			<path class="st0" d="M83.561,70.211l1.5,4.5c0.533,1.867,0.683,3.65,0.45,5.35c-0.1,0.667-0.167,0.75-0.2,0.25l-0.05-1.45
				L83.561,70.211"/>
			<path class="st0" d="M85.261,84.861c0.2,0.567,0.3,1.45,0.3,2.65l-0.3,2.6c-0.1-0.333-0.117-1.117-0.05-2.35L85.261,84.861"/>
			<path class="st0" d="M83.561,21.511c1.733-0.167,2.067-0.1,1,0.2l-3.35,0.55l-3.65,0.65c-0.3-0.167-0.083-0.3,0.65-0.4l2-0.3
				L83.561,21.511"/>
			<path class="st0" d="M84.061,94.461c0.233,0.4,0.183,0.9-0.15,1.5l-1.05,1.15c-0.1-0.2,0.067-0.583,0.5-1.15
				C83.861,95.361,84.094,94.861,84.061,94.461"/>
			<path class="st0" d="M81.661,65.661c0.367,0,0.767,0.517,1.2,1.55c0.433,1.033,0.6,1.8,0.5,2.3l-0.75-2.05
				C82.344,66.595,82.028,65.995,81.661,65.661"/>
			<path class="st0" d="M82.611,95.661c-0.067,0.567-0.2,0.6-0.4,0.1l-0.3-1.05l-3.15-7c0.633,0.533,1.317,1.717,2.05,3.55
				L82.611,95.661"/>
			<path class="st0" d="M82.861,27.711l-0.6,0.4c-0.367,0.067-0.567,0.183-0.6,0.35c-1.167,0-1.433-0.083-0.8-0.25L82.861,27.711"/>
			<path class="st0" d="M80.961,63.011c-1.867-2.367-3-4.683-3.4-6.95l1.8,3.4L80.961,63.011"/>
			<path class="st0" d="M78.761,63.011c-0.2,1.367-1.633,2.733-4.3,4.1c0.467-0.533,1.433-1.183,2.9-1.95
				c0.1-0.333,0.317-0.7,0.65-1.1L78.761,63.011"/>
			<path class="st0" d="M76.361,25.811l0.35,1.1l-0.5-0.5c-0.967-1-1.783-1.433-2.45-1.3l1.25,0.1L76.361,25.811"/>
			<path class="st0" d="M73.961,73.811c0.4-0.233,0.933,0.033,1.6,0.8c0.7,0.733,0.333,0.633-1.1-0.3l-0.15-0.3
				C74.211,73.845,74.094,73.778,73.961,73.811"/>
			<path class="st0" d="M74.461,96.111c0.167,0.933,0.167,1.833,0,2.7c-0.167,0.9-0.25,0.567-0.25-1v-1.7l0.1-0.15L74.461,96.111"/>
			<path class="st0" d="M69.911,71.661c0.933,1.133,2.283,3.367,4.05,6.7l4.35,8.65c-1.333-2-2.833-4.567-4.5-7.7L69.911,71.661"/>
			<path class="st0" d="M73.261,113.161c0.167,0.533-0.033,1.2-0.6,2c-0.7,0.9-1.067,1.6-1.1,2.1c-0.2-0.567-0.017-1.25,0.55-2.05
				L73.261,113.161"/>
			<path class="st0" d="M74.461,10.911l-1,0.7l-1.15,0.5C73.111,11.445,73.828,11.045,74.461,10.911"/>
			<path class="st0" d="M72.061,88.211c0.167,0.567,0.067,0.483-0.3-0.25l-0.65-1.65l-0.25-0.25
				C71.228,85.795,71.628,86.511,72.061,88.211"/>
			<path class="st0" d="M71.811,24.361l0.15-0.05c-0.733,0.467-1.333,0.733-1.8,0.8c-1.033,0.567-0.983,0.483,0.15-0.25
				C70.944,24.428,71.444,24.261,71.811,24.361"/>
			<path class="st0" d="M70.611,90.611c0.067,0.2-0.183,0.567-0.75,1.1c-0.6,0.6-0.9,1.117-0.9,1.55
				C68.628,92.628,69.178,91.745,70.611,90.611"/>
			<path class="st0" d="M69.411,116.061c0.167,0.233,0,0.533-0.5,0.9c-0.467,0.333-0.933,0.517-1.4,0.55
				C68.444,116.945,69.078,116.461,69.411,116.061"/>
			<path class="st0" d="M67.511,48.861c-0.767,0.5-1.883,0.65-3.35,0.45c-0.8-0.067-0.683-0.117,0.35-0.15L67.511,48.861"/>
			<path class="st0" d="M65.361,30.111c0.3-0.167,0.383,0.317,0.25,1.45C65.511,32.695,65.428,32.211,65.361,30.111"/>
			<path class="st0" d="M56.211,67.311c1.7,2.3,3.9,4.867,6.6,7.7l7.1,7.2l-7.3-6.7C59.744,72.645,57.611,69.911,56.211,67.311"/>
			<path class="st0" d="M63.161,49.561c-0.567,0-1.083-0.183-1.55-0.55l-1.3-0.9c0.333-0.1,0.833,0.033,1.5,0.4L63.161,49.561"/>
			<path class="st0" d="M61.961,102.611c-0.233,0.2-0.567,0.117-1-0.25l-1.15-0.7c0.267-0.2,0.633-0.133,1.1,0.2L61.961,102.611"/>
			<path class="st0" d="M61.011,108.111c0.167-0.033,0.183,0.183,0.05,0.65c-0.167,0.467-0.1,0.733,0.2,0.8
				c-0.767,1-1.883,1.65-3.35,1.95l2.1-1.15C60.711,109.795,61.044,109.045,61.011,108.111"/>
			<path class="st0" d="M58.611,23.161c1.767-2.667,3.367-4.667,4.8-6c-0.833,0.9-1.833,2.233-3,4l-2.75,3.95
				C56.661,26.345,56.978,25.695,58.611,23.161"/>
			<path class="st0" d="M58.861,85.561l0.85,0.1l0.85,0.15c-0.1,0.2-0.467,0.283-1.1,0.25s-1,0.05-1.1,0.25
				c-0.233-0.067-0.217-0.167,0.05-0.3L58.861,85.561"/>
			<path class="st0" d="M58.861,47.661l0.95-0.25c0.067,0.267-0.067,0.433-0.4,0.5c-0.367,0.067-0.467,0.3-0.3,0.7l-0.4-0.35
				l-0.35-0.35L58.861,47.661"/>
			<path class="st0" d="M59.111,96.361c0.267,2.1-0.033,4-0.9,5.7l-2.45,4.15l-0.5,0.25l1.1-1.85c0.333-0.833,0.6-1.183,0.8-1.05
				l-0.2-0.45c0.8-0.333,1.35-1.3,1.65-2.9c0.233-1.433,0.233-2.95,0-4.55l0.25,0.35C58.894,96.245,58.978,96.361,59.111,96.361"/>
			<path class="st0" d="M54.561,83.161c0.633,0.4,1.2,1.05,1.7,1.95c0.633,1.1,0.933,2.217,0.9,3.35l-1.2-2.8
				C55.494,84.528,55.028,83.695,54.561,83.161"/>
			<path class="st0" d="M53.511,138.661c-1.067,0.933-3.117,2.2-6.15,3.8c-2.433,1.267-4.683,2.067-6.75,2.4
				c-4.833,0.667-8.433,0.667-10.8,0c6.367,0.267,11.833-0.45,16.4-2.15c5.3-2,8.7-5.167,10.2-9.5
				C56.244,135.311,55.278,137.128,53.511,138.661"/>
			<path class="st0" d="M53.811,64.211c-0.567-0.167-0.95-0.633-1.15-1.4C52.494,62.011,52.878,62.478,53.811,64.211"/>
			<path class="st0" d="M52.161,117.261c0.033,0.333,0.183,0.667,0.45,1l0.65,0.8c-1.2-0.667-1.817-1.267-1.85-1.8
				c-0.233-0.167-0.233-0.233,0-0.2L52.161,117.261"/>
			<path class="st0" d="M51.011,74.961c0.3,0.833,0.35,1.25,0.15,1.25c-0.433-0.833-0.75-1.867-0.95-3.1L51.011,74.961"/>
			<path class="st0" d="M49.511,116.761l1.65-1.9c0.067,0.233-0.067,0.6-0.4,1.1C50.361,116.495,49.944,116.761,49.511,116.761"/>
			<path class="st0" d="M48.761,54.361c0.7,0.5,1.283,1.467,1.75,2.9l1.15,3.35c-0.467-0.633-0.933-1.6-1.4-2.9l-1.25-3.1
				c-0.4,0.167-0.683,0.583-0.85,1.25l-0.35,1.85c-0.233-0.467-0.233-1.083,0-1.85C48.044,55.128,48.361,54.628,48.761,54.361"/>
			<path class="st0" d="M47.111,58.911l1.45,5.55C47.528,62.628,47.044,60.778,47.111,58.911"/>
			<path class="st0" d="M45.661,107.161l-2.35,2.3l-2.2,2.25c-4.567,2-9.067,2.3-13.5,0.9c-4.9-1.533-6.967-4.7-6.2-9.5
				c0,3.5,1.367,6.167,4.1,8c2.567,1.7,5.767,2.3,9.6,1.8c2.6-0.333,4.933-1.267,7-2.8c1.767-1.3,3.117-2.833,4.05-4.6
				c0.267-0.067,0.283,0.15,0.05,0.65L45.661,107.161"/>
			<path class="st0" d="M45.911,97.311c-0.333,0.1-0.817-0.117-1.45-0.65c-0.767-0.6-1.333-0.933-1.7-1
				c0.4-0.133,0.933,0.05,1.6,0.55L45.911,97.311"/>
			<path class="st0" d="M40.161,132.611c0.533-0.333,1.4-0.5,2.6-0.5c-0.067,0.367-0.417,0.55-1.05,0.55L40.161,132.611"/>
			<path class="st0" d="M42.311,121.811c-0.4,0.133-1.05,0-1.95-0.4c-0.967-0.467-1.767-0.65-2.4-0.55l-0.45-1.1l-0.5-1.05l1.2,1.9
				c0.767-0.033,1.517,0.1,2.25,0.4L42.311,121.811"/>
			<path class="st0" d="M41.561,101.161l-1.3-0.15c-0.7-0.367-1.3-0.467-1.8-0.3c0.067-0.333,0.517-0.383,1.35-0.15L41.561,101.161"
				/>
			<path class="st0" d="M37.261,132.861c-0.033-0.3,0.467-0.533,1.5-0.7c1.2-0.233,1.333-0.167,0.4,0.2
				C38.461,132.461,37.828,132.628,37.261,132.861"/>
			<path class="st0" d="M36.561,136.911c0.133-0.133,0.45,0.067,0.95,0.6s0.65,0.9,0.45,1.1
				C37.194,137.911,36.728,137.345,36.561,136.911"/>
			<path class="st0" d="M36.561,132.611c-1.267,3.9-5.2,7.267-11.8,10.1l6.75-4.2C34.011,136.745,35.694,134.778,36.561,132.611"/>
			<path class="st0" d="M26.461,90.361c0.367,0.2,0.433,0.383,0.2,0.55l-0.9,0.4c-2.9,0.9-4.833,1.7-5.8,2.4
				c-1.4,1.033-2.467,2.717-3.2,5.05c-0.433,1.367-0.967,3.45-1.6,6.25c-1.9-0.733-3.217-2.3-3.95-4.7
				c-0.733-2.233-0.85-4.833-0.35-7.8c-0.267,2.667-0.067,5.067,0.6,7.2c0.7,2.3,1.867,3.9,3.5,4.8c0.633-3.1,1.117-5.15,1.45-6.15
				c0.667-2,1.617-3.55,2.85-4.65c0.633-0.533,1.833-1.117,3.6-1.75c1.7-0.567,2.9-1.25,3.6-2.05V90.361"/>
			<path class="st0" d="M25.961,120.111h0.15c-1.9,0.233-2.817,0.083-2.75-0.45C24.661,119.595,25.528,119.745,25.961,120.111"/>
			<path class="st0" d="M24.761,87.011l0.4,1.15c0.133,0.867,0.4,1.283,0.8,1.25c-0.4,0.3-0.733,0.133-1-0.5
				C24.728,88.311,24.661,87.678,24.761,87.011"/>
			<path class="st0" d="M22.611,81.711c0.367,0.1,0.233,0.183-0.4,0.25l-1.75,0.25l-2.1,1.1c-0.8,0.467-1.3,0.667-1.5,0.6
				c1.067-0.7,1.883-1.217,2.45-1.55C20.311,81.795,21.411,81.578,22.611,81.711"/>
			<path class="st0" d="M21.911,116.511c0.467,0.3,0.267,0.317-0.6,0.05l-1.55-0.75l0.95,0.2L21.911,116.511"/>
			<path class="st0" d="M20.711,91.311c-0.167,0.267-0.45,0.333-0.85,0.2l-1.1-0.2c0.133-0.233,0.45-0.317,0.95-0.25L20.711,91.311"
				/>
			<path class="st1" d="M19.161,116.161c1.933,4.4,5.65,7.783,11.15,10.15c5.5,2.4,11.267,3.083,17.3,2.05
				c2.867-0.5,6.4-1.633,10.6-3.4l10.85-5.2"/>
			<path class="st2" d="M68.961,70.911l-8.95-9.1c-3.5-3.7-5.55-7.233-6.15-10.6c-1.367-8.033,0.983-14.867,7.05-20.5"/>
			<path class="st3" d="M89.811,9.711c-3.467,0.767-6.2,1.683-8.2,2.75c-2.9,1.567-4.8,3.617-5.7,6.15
				c-6.8,1.233-12.283,3.35-16.45,6.35"/>
		</g>
	</g>
	<g transform="matrix(1.0, 0.0, 0.0, 1.0, 0.0, 0.0)">
		<g transform="matrix(1.0, 0.0, 0.0, 1.0, 0.0, 0.0)">
			<g id="shape0_1_" transform="matrix(1.0, 0.0, 0.0, 1.0, 0.0, 0.0)">
				<path class="st0" d="M120.311,51.261c-0.233,1.3-0.7,2.75-1.4,4.35c-0.933,1.967-1.917,3.317-2.95,4.05l-0.15-0.3
					c0.933-0.733,1.833-2.117,2.7-4.15L120.311,51.261"/>
				<path class="st0" d="M118.611,42.111c0.967,1.5,0.25,0.867-2.15-1.9c-0.433,1.2-1.15,2.333-2.15,3.4l-2.9,2.6l2.75-2.85
					c1.2-1.367,1.883-2.733,2.05-4.1l1.2,1.65L118.611,42.111"/>
				<path class="st0" d="M115.811,59.361l-0.05,0.05l-0.25-0.6L115.811,59.361"/>
				<path class="st0" d="M116.461,54.611l-0.95,0.75c-0.533,0.167-0.85,0.4-0.95,0.7c-0.233-0.3-0.067-0.583,0.5-0.85
					L116.461,54.611"/>
				<path class="st0" d="M94.161,31.111c3.167-1.967,7.367-2.433,12.6-1.4c5.667,1.133,8.183,3.817,7.55,8.05
					c0-3.967-2.5-6.5-7.5-7.6C102.378,29.195,98.161,29.511,94.161,31.111"/>
				<path class="st0" d="M112.611,40.911c0-0.267,0.05-0.383,0.15-0.35l0.1,0.35c-2.133,3.033-6,4.967-11.6,5.8
					c-5.7,0.8-10.167-0.067-13.4-2.6l7.55,2c3.033,0.533,5.65,0.483,7.85-0.15c0.433-0.133,1.017-0.45,1.75-0.95
					s1.267-0.817,1.6-0.95l3.45-1.2C111.161,42.361,112.011,41.711,112.611,40.911"/>
				<path class="st0" d="M111.911,40.211l0.4-0.2l0.55-0.05c-0.567,0.4-1.25,0.567-2.05,0.5
					C109.645,40.395,110.011,40.311,111.911,40.211"/>
				<path class="st0" d="M102.761,50.311l7.2,3.45c2.9,1.367,4.75,3.05,5.55,5.05c-0.967-1.567-3-3.067-6.1-4.5
					C105.978,52.711,103.761,51.378,102.761,50.311"/>
				<path class="st0" d="M103.961,35.911c-0.267-0.167-0.067-0.367,0.6-0.6c0.6-0.167,0.883,0.033,0.85,0.6l-0.8-0.15
					C104.378,35.661,104.161,35.711,103.961,35.911"/>
				<path class="st0" d="M106.361,48.361c-0.267,0.267-0.817,0.55-1.65,0.85c-0.833,0.267-1.4,0.55-1.7,0.85
					c-0.033-0.367,0.367-0.7,1.2-1L106.361,48.361"/>
				<path class="st0" d="M97.511,43.811l-0.7,0.05c-0.267-0.3-0.35-0.633-0.25-1c0.267,0,0.4,0.133,0.4,0.4
					C96.995,43.561,97.178,43.745,97.511,43.811"/>
				<path class="st0" d="M93.661,21.611l-7.9-0.35h1.9l6.9-0.1c2.767,0.067,4.783,0.583,6.05,1.55
					C99.378,22.078,97.061,21.711,93.661,21.611"/>
				<path class="st0" d="M98.961,23.411c-6.033,1.5-10.35,2.967-12.95,4.4c-4.1,2.267-6.667,5.433-7.7,9.5
					c-0.733,0.467-1.367,1.283-1.9,2.45l-1.25,3.1c-0.267-1.1,0.067-2.3,1-3.6l2.15-3.15l0.2-1.05c0.033-0.467,0.117-0.833,0.25-1.1
					c1.1-2.2,4.067-4.683,8.9-7.45c1.367-0.767,3.033-1.433,5-2C94.795,23.911,96.895,23.545,98.961,23.411"/>
				<path class="st0" d="M93.161,31.311c-3.067,1.8-5.383,3.4-6.95,4.8l-0.45,0.45c-0.233,0.167-0.167,0.017,0.2-0.45
					c0.7-0.833,1.65-1.633,2.85-2.4c0.833-0.533,2.133-1.25,3.9-2.15C92.711,31.495,92.861,31.411,93.161,31.311"/>
				<path class="st0" d="M89.561,9.711c0-0.333,0.4-0.4,1.2-0.2c-1-0.567-2.483-0.817-4.45-0.75l-4.9,0.5
					c1.433-0.567,3.267-0.817,5.5-0.75c2.133,0.067,3.9,0.4,5.3,1c-0.5,0.367-1.3,0.517-2.4,0.45v-0.25H89.561"/>
				<path class="st0" d="M87.611,43.911c-0.733-0.6-1.283-1.2-1.65-1.8C86.361,41.911,86.911,42.511,87.611,43.911"/>
				<path class="st0" d="M85.511,37.811l0.1,1.9c-0.033,0.9,0.083,1.55,0.35,1.95C85.195,41.228,85.045,39.945,85.511,37.811"/>
				<path class="st0" d="M83.561,70.211l1.5,4.5c0.533,1.867,0.683,3.65,0.45,5.35c-0.1,0.667-0.167,0.75-0.2,0.25l-0.05-1.45
					L83.561,70.211"/>
				<path class="st0" d="M85.261,84.861c0.2,0.567,0.3,1.45,0.3,2.65l-0.3,2.6c-0.1-0.333-0.117-1.117-0.05-2.35L85.261,84.861"/>
				<path class="st0" d="M83.561,21.511c1.733-0.167,2.067-0.1,1,0.2l-3.35,0.55l-3.65,0.65c-0.3-0.167-0.083-0.3,0.65-0.4l2-0.3
					L83.561,21.511"/>
				<path class="st0" d="M84.061,94.461c0.233,0.4,0.183,0.9-0.15,1.5l-1.05,1.15c-0.1-0.2,0.067-0.583,0.5-1.15
					C83.861,95.361,84.095,94.861,84.061,94.461"/>
				<path class="st0" d="M81.661,65.661c0.367,0,0.767,0.517,1.2,1.55c0.433,1.033,0.6,1.8,0.5,2.3l-0.75-2.05
					C82.345,66.595,82.028,65.995,81.661,65.661"/>
				<path class="st0" d="M82.611,95.661c-0.067,0.567-0.2,0.6-0.4,0.1l-0.3-1.05l-3.15-7c0.633,0.533,1.317,1.717,2.05,3.55
					L82.611,95.661"/>
				<path class="st0" d="M82.861,27.711l-0.6,0.4c-0.367,0.067-0.567,0.183-0.6,0.35c-1.167,0-1.433-0.083-0.8-0.25L82.861,27.711"
					/>
				<path class="st0" d="M80.961,63.011c-1.867-2.367-3-4.683-3.4-6.95l1.8,3.4L80.961,63.011"/>
				<path class="st0" d="M78.761,63.011c-0.2,1.367-1.633,2.733-4.3,4.1c0.467-0.533,1.433-1.183,2.9-1.95
					c0.1-0.333,0.317-0.7,0.65-1.1L78.761,63.011"/>
				<path class="st0" d="M76.361,25.811l0.35,1.1l-0.5-0.5c-0.967-1-1.783-1.433-2.45-1.3l1.25,0.1L76.361,25.811"/>
				<path class="st0" d="M73.961,73.811c0.4-0.233,0.933,0.033,1.6,0.8c0.7,0.733,0.333,0.633-1.1-0.3l-0.15-0.3
					C74.211,73.845,74.095,73.778,73.961,73.811"/>
				<path class="st0" d="M74.461,96.111c0.167,0.933,0.167,1.833,0,2.7c-0.167,0.9-0.25,0.567-0.25-1v-1.7l0.1-0.15L74.461,96.111"
					/>
				<path class="st0" d="M69.911,71.661c0.933,1.133,2.283,3.367,4.05,6.7l4.35,8.65c-1.333-2-2.833-4.567-4.5-7.7L69.911,71.661"/>
				<path class="st0" d="M73.261,113.161c0.167,0.533-0.033,1.2-0.6,2c-0.7,0.9-1.067,1.6-1.1,2.1c-0.2-0.567-0.017-1.25,0.55-2.05
					L73.261,113.161"/>
				<path class="st0" d="M74.461,10.911l-1,0.7l-1.15,0.5C73.111,11.445,73.828,11.045,74.461,10.911"/>
				<path class="st0" d="M72.061,88.211c0.167,0.567,0.067,0.483-0.3-0.25l-0.65-1.65l-0.25-0.25
					C71.228,85.795,71.628,86.511,72.061,88.211"/>
				<path class="st0" d="M71.811,24.361l0.15-0.05c-0.733,0.467-1.333,0.733-1.8,0.8c-1.033,0.567-0.983,0.483,0.15-0.25
					C70.945,24.428,71.445,24.261,71.811,24.361"/>
				<path class="st0" d="M70.611,90.611c0.067,0.2-0.183,0.567-0.75,1.1c-0.6,0.6-0.9,1.117-0.9,1.55
					C68.628,92.628,69.178,91.745,70.611,90.611"/>
				<path class="st0" d="M69.411,116.061c0.167,0.233,0,0.533-0.5,0.9c-0.467,0.333-0.933,0.517-1.4,0.55
					C68.445,116.945,69.078,116.461,69.411,116.061"/>
				<path class="st0" d="M67.511,48.861c-0.767,0.5-1.883,0.65-3.35,0.45c-0.8-0.067-0.683-0.117,0.35-0.15L67.511,48.861"/>
				<path class="st0" d="M65.361,30.111c0.3-0.167,0.383,0.317,0.25,1.45C65.511,32.695,65.428,32.211,65.361,30.111"/>
				<path class="st0" d="M56.211,67.311c1.7,2.3,3.9,4.867,6.6,7.7l7.1,7.2l-7.3-6.7C59.745,72.645,57.611,69.911,56.211,67.311"/>
				<path class="st0" d="M63.161,49.561c-0.567,0-1.083-0.183-1.55-0.55l-1.3-0.9c0.333-0.1,0.833,0.033,1.5,0.4L63.161,49.561"/>
				<path class="st0" d="M61.961,102.611c-0.233,0.2-0.567,0.117-1-0.25l-1.15-0.7c0.267-0.2,0.633-0.133,1.1,0.2L61.961,102.611"/>
				<path class="st0" d="M61.011,108.111c0.167-0.033,0.183,0.183,0.05,0.65c-0.167,0.467-0.1,0.733,0.2,0.8
					c-0.767,1-1.883,1.65-3.35,1.95l2.1-1.15C60.711,109.795,61.045,109.045,61.011,108.111"/>
				<path class="st0" d="M58.611,23.161c1.767-2.667,3.367-4.667,4.8-6c-0.833,0.9-1.833,2.233-3,4l-2.75,3.95
					C56.661,26.345,56.978,25.695,58.611,23.161"/>
				<path class="st0" d="M58.861,85.561l0.85,0.1l0.85,0.15c-0.1,0.2-0.467,0.283-1.1,0.25s-1,0.05-1.1,0.25
					c-0.233-0.067-0.217-0.167,0.05-0.3L58.861,85.561"/>
				<path class="st0" d="M58.861,47.661l0.95-0.25c0.067,0.267-0.067,0.433-0.4,0.5c-0.367,0.067-0.467,0.3-0.3,0.7l-0.4-0.35
					l-0.35-0.35L58.861,47.661"/>
				<path class="st0" d="M59.111,96.361c0.267,2.1-0.033,4-0.9,5.7l-2.45,4.15l-0.5,0.25l1.1-1.85c0.333-0.833,0.6-1.183,0.8-1.05
					l-0.2-0.45c0.8-0.333,1.35-1.3,1.65-2.9c0.233-1.433,0.233-2.95,0-4.55l0.25,0.35C58.895,96.245,58.978,96.361,59.111,96.361"/>
				<path class="st0" d="M54.561,83.161c0.633,0.4,1.2,1.05,1.7,1.95c0.633,1.1,0.933,2.217,0.9,3.35l-1.2-2.8
					C55.495,84.528,55.028,83.695,54.561,83.161"/>
				<path class="st0" d="M53.511,138.661c-1.067,0.933-3.117,2.2-6.15,3.8c-2.433,1.267-4.683,2.067-6.75,2.4
					c-4.833,0.667-8.433,0.667-10.8,0c6.367,0.267,11.833-0.45,16.4-2.15c5.3-2,8.7-5.167,10.2-9.5
					C56.245,135.311,55.278,137.128,53.511,138.661"/>
				<path class="st0" d="M53.811,64.211c-0.567-0.167-0.95-0.633-1.15-1.4C52.495,62.011,52.878,62.478,53.811,64.211"/>
				<path class="st0" d="M52.161,117.261c0.033,0.333,0.183,0.667,0.45,1l0.65,0.8c-1.2-0.667-1.817-1.267-1.85-1.8
					c-0.233-0.167-0.233-0.233,0-0.2L52.161,117.261"/>
				<path class="st0" d="M51.011,74.961c0.3,0.833,0.35,1.25,0.15,1.25c-0.433-0.833-0.75-1.867-0.95-3.1L51.011,74.961"/>
				<path class="st0" d="M49.511,116.761l1.65-1.9c0.067,0.233-0.067,0.6-0.4,1.1C50.361,116.495,49.945,116.761,49.511,116.761"/>
				<path class="st0" d="M48.761,54.361c0.7,0.5,1.283,1.467,1.75,2.9l1.15,3.35c-0.467-0.633-0.933-1.6-1.4-2.9l-1.25-3.1
					c-0.4,0.167-0.683,0.583-0.85,1.25l-0.35,1.85c-0.233-0.467-0.233-1.083,0-1.85C48.045,55.128,48.361,54.628,48.761,54.361"/>
				<path class="st0" d="M47.111,58.911l1.45,5.55C47.528,62.628,47.045,60.778,47.111,58.911"/>
				<path class="st0" d="M45.661,107.161l-2.35,2.3l-2.2,2.25c-4.567,2-9.067,2.3-13.5,0.9c-4.9-1.533-6.967-4.7-6.2-9.5
					c0,3.5,1.367,6.167,4.1,8c2.567,1.7,5.767,2.3,9.6,1.8c2.6-0.333,4.933-1.267,7-2.8c1.767-1.3,3.117-2.833,4.05-4.6
					c0.267-0.067,0.283,0.15,0.05,0.65L45.661,107.161"/>
				<path class="st0" d="M45.911,97.311c-0.333,0.1-0.817-0.117-1.45-0.65c-0.767-0.6-1.333-0.933-1.7-1
					c0.4-0.133,0.933,0.05,1.6,0.55L45.911,97.311"/>
				<path class="st0" d="M40.161,132.611c0.533-0.333,1.4-0.5,2.6-0.5c-0.067,0.367-0.417,0.55-1.05,0.55L40.161,132.611"/>
				<path class="st0" d="M42.311,121.811c-0.4,0.133-1.05,0-1.95-0.4c-0.967-0.467-1.767-0.65-2.4-0.55l-0.45-1.1l-0.5-1.05l1.2,1.9
					c0.767-0.033,1.517,0.1,2.25,0.4L42.311,121.811"/>
				<path class="st0" d="M41.561,101.161l-1.3-0.15c-0.7-0.367-1.3-0.467-1.8-0.3c0.067-0.333,0.517-0.383,1.35-0.15L41.561,101.161
					"/>
				<path class="st0" d="M37.261,132.861c-0.033-0.3,0.467-0.533,1.5-0.7c1.2-0.233,1.333-0.167,0.4,0.2
					C38.461,132.461,37.828,132.628,37.261,132.861"/>
				<path class="st0" d="M36.561,136.911c0.133-0.133,0.45,0.067,0.95,0.6s0.65,0.9,0.45,1.1
					C37.195,137.911,36.728,137.345,36.561,136.911"/>
				<path class="st0" d="M36.561,132.611c-1.267,3.9-5.2,7.267-11.8,10.1l6.75-4.2C34.011,136.745,35.695,134.778,36.561,132.611"/>
				<path class="st0" d="M26.461,90.361c0.367,0.2,0.433,0.383,0.2,0.55l-0.9,0.4c-2.9,0.9-4.833,1.7-5.8,2.4
					c-1.4,1.033-2.467,2.717-3.2,5.05c-0.433,1.367-0.967,3.45-1.6,6.25c-1.9-0.733-3.217-2.3-3.95-4.7
					c-0.733-2.233-0.85-4.833-0.35-7.8c-0.267,2.667-0.067,5.067,0.6,7.2c0.7,2.3,1.867,3.9,3.5,4.8c0.633-3.1,1.117-5.15,1.45-6.15
					c0.667-2,1.617-3.55,2.85-4.65c0.633-0.533,1.833-1.117,3.6-1.75c1.7-0.567,2.9-1.25,3.6-2.05V90.361"/>
				<path class="st0" d="M25.961,120.111h0.15c-1.9,0.233-2.817,0.083-2.75-0.45C24.661,119.595,25.528,119.745,25.961,120.111"/>
				<path class="st0" d="M24.761,87.011l0.4,1.15c0.133,0.867,0.4,1.283,0.8,1.25c-0.4,0.3-0.733,0.133-1-0.5
					C24.728,88.311,24.661,87.678,24.761,87.011"/>
				<path class="st0" d="M22.611,81.711c0.367,0.1,0.233,0.183-0.4,0.25l-1.75,0.25l-2.1,1.1c-0.8,0.467-1.3,0.667-1.5,0.6
					c1.067-0.7,1.883-1.217,2.45-1.55C20.311,81.795,21.411,81.578,22.611,81.711"/>
				<path class="st0" d="M21.911,116.511c0.467,0.3,0.267,0.317-0.6,0.05l-1.55-0.75l0.95,0.2L21.911,116.511"/>
				<path class="st0" d="M20.711,91.311c-0.167,0.267-0.45,0.333-0.85,0.2l-1.1-0.2c0.133-0.233,0.45-0.317,0.95-0.25L20.711,91.311
					"/>
				<path class="st1" d="M19.161,116.161c1.933,4.4,5.65,7.783,11.15,10.15c5.5,2.4,11.267,3.083,17.3,2.05
					c2.867-0.5,6.4-1.633,10.6-3.4l10.85-5.2"/>
				<path class="st2" d="M68.961,70.911l-8.95-9.1c-3.5-3.7-5.55-7.233-6.15-10.6c-1.367-8.033,0.983-14.867,7.05-20.5"/>
				<path class="st3" d="M89.811,9.711c-3.467,0.767-6.2,1.683-8.2,2.75c-2.9,1.567-4.8,3.617-5.7,6.15
					c-6.8,1.233-12.283,3.35-16.45,6.35"/>
			</g>
		</g>
	</g>
</g>
</svg>
