<?xml version="1.0" encoding="utf-8"?>
<!-- Generator: Adobe Illustrator 24.0.1, SVG Export Plug-In . SVG Version: 6.00 Build 0)  -->
<svg version="1.1" id="Camada_1" xmlns="http://www.w3.org/2000/svg" xmlns:xlink="http://www.w3.org/1999/xlink" x="0px" y="0px"
	 viewBox="0 0 261.391 231.123" style="enable-background:new 0 0 261.391 231.123;" xml:space="preserve">
<style type="text/css">
	.st0{fill-rule:evenodd;clip-rule:evenodd;fill:#35201F;}
	.st1{fill-rule:evenodd;clip-rule:evenodd;fill:#72594C;}
	.st2{fill-rule:evenodd;clip-rule:evenodd;}
	.st3{fill-rule:evenodd;clip-rule:evenodd;fill:#62433B;}
	.st4{fill-rule:evenodd;clip-rule:evenodd;fill:#3C5E66;}
	.st5{fill-rule:evenodd;clip-rule:evenodd;fill:#486B67;}
	.st6{fill-rule:evenodd;clip-rule:evenodd;fill:#C6C6DB;}
	.st7{fill-rule:evenodd;clip-rule:evenodd;fill:#1C1C1C;}
	.st8{fill-rule:evenodd;clip-rule:evenodd;fill:#594343;}
	.st9{fill-rule:evenodd;clip-rule:evenodd;fill:#898299;}
	.st10{fill-rule:evenodd;clip-rule:evenodd;fill:#5D3D34;}
	.st11{fill-rule:evenodd;clip-rule:evenodd;fill:#CCCCDD;}
	.st12{fill-rule:evenodd;clip-rule:evenodd;fill:#686663;}
	.st13{fill-rule:evenodd;clip-rule:evenodd;fill:#998F79;}
	.st14{fill-rule:evenodd;clip-rule:evenodd;fill:#868686;}
	.st15{fill:none;stroke:#838383;stroke-width:0.55;stroke-linecap:round;}
	.st16{fill:none;stroke:#000000;stroke-width:0.75;stroke-linecap:round;}
	.st17{fill:none;stroke:#000000;stroke-width:1.15;stroke-linecap:round;}
	.st18{fill:none;stroke:#000000;stroke-width:1.05;stroke-linecap:round;}
	.st19{fill:none;stroke:#000000;stroke-width:0.7;stroke-linecap:round;}
	.st20{fill:none;stroke:#000000;stroke-width:0.55;stroke-linecap:round;}
	.st21{fill:none;stroke:#000000;stroke-width:0.95;stroke-linecap:round;}
	.st22{fill:none;stroke:#000000;stroke-linecap:round;}
	.st23{fill:none;stroke:#000000;stroke-width:1.25;stroke-linecap:round;}
	.st24{fill:none;stroke:#000000;stroke-width:1.1;stroke-linecap:round;}
	.st25{fill:none;stroke:#000000;stroke-width:0.85;stroke-linecap:round;}
	.st26{fill:none;stroke:#000000;stroke-width:1.35;stroke-linecap:round;}
	.st27{fill:none;stroke:#000000;stroke-width:0.9;stroke-linecap:round;}
	.st28{fill:none;stroke:#000000;stroke-width:0.65;stroke-linecap:round;}
	.st29{fill:none;stroke:#000000;stroke-width:1.2;stroke-linecap:round;}
	.st30{fill:none;stroke:#000000;stroke-width:0.6;stroke-linecap:round;}
	.st31{fill:none;stroke:#000000;stroke-width:0.8;stroke-linecap:round;}
	.st32{fill:none;stroke:#000000;stroke-width:1.45;stroke-linecap:round;}
	.st33{opacity:0.5;fill-rule:evenodd;clip-rule:evenodd;fill:#301E41;}
</style>
<g transform="matrix(1.0, 0.0, 0.0, 1.0, 0.0, 0.05)">
	<g transform="matrix(1.0, 0.0, 0.0, 1.0, 0.0, -0.05)">
		<g id="shape0" transform="matrix(1.0, 0.0, 0.0, 1.0, 0.0, 0.05)">
			<path class="st0" d="M192.63,32.231l2.4-0.3l-0.4,0.8c6.233,7.8,10.4,12.717,12.5,14.75c5.267,4.967,11.1,8.217,17.5,9.75
				c0.1,2.233,0.683,6.05,1.75,11.45c0.433,4.633-0.65,7.817-3.25,9.55c-0.167,0.8-0.433,4.2-0.8,10.2
				c-0.233,4.167-0.967,7.1-2.2,8.8c-1.1-0.033-1.85-0.767-2.25-2.2c-0.533-1.9-0.95-3-1.25-3.3l-2,9.95
				c-0.733,3.933-1.233,7.45-1.5,10.55l-0.55,0.75l0.55,0.75c-0.333,0.467-1.233,0.983-2.7,1.55c-1.3,0.467-2.067,1.117-2.3,1.95
				c6.067,0.767,10.667,2.25,13.8,4.45c3.867,2.733,5.933,6.75,6.2,12.05c0.267,4.567,0.083,8.917-0.55,13.05
				c-0.767,4.767-2.083,8.75-3.95,11.95c0.733,0.833,2,2.733,3.8,5.7c1.533,2.433,2.933,4.2,4.2,5.3c-0.2-1.9-1.183-4.383-2.95-7.45
				c-1.667-2.9-2.517-5.083-2.55-6.55l2.8,6.2c1.167,2.233,2.4,4,3.7,5.3c1.567-1.2,3.967-2.65,7.2-4.35
				c3.533-1.833,5.967-3.217,7.3-4.15l0.75,0.25l0.75-0.25c-0.133,1.667-0.65,3.1-1.55,4.3c-0.1-0.3,0.05-1.017,0.45-2.15
				c0.267-0.733-0.033-1.117-0.9-1.15c-0.567,0.667-1.8,1.45-3.7,2.35c-2.367,1-4.117,1.783-5.25,2.35
				c-4.367,2.133-6.05,4.4-5.05,6.8c1.733-1.167,4.067-2.517,7-4.05l7.2-3.8c-1.2,1.533-3.6,3.067-7.2,4.6
				c-3.767,1.6-6.267,3.017-7.5,4.25c-1.6-1.333-3.233-3.283-4.9-5.85l-4.1-6.65c-0.167,3.367-1.617,6.1-4.35,8.2
				c-2.5,1.933-5.55,3.017-9.15,3.25c-3.6,0.233-6.817-0.383-9.65-1.85c-3.1-1.633-5.05-4-5.85-7.1c-2.067,0.5-3.483,1.65-4.25,3.45
				c-0.733,1.733-0.817,3.917-0.25,6.55l-3.2-0.3l-3.3-0.2l-0.25,0.45l-0.25,0.55h-0.5v0.5c-0.667-1.867-1.833-3.2-3.5-4
				c-1.867,1.633-4.1,2.333-6.7,2.1c-2.367-0.233-4.45-1.1-6.25-2.6c-1.833-1.533-2.717-3.15-2.65-4.85
				c0.1-1.933,1.467-3.483,4.1-4.65l0.75,0.25l0.25-0.75c0.3,0.267,0.55,0.367,0.75,0.3l0.75-0.3c-0.3-3.833,0.85-6.9,3.45-9.2
				c2.167-1.933,4.85-3.033,8.05-3.3c0.533,0.533,0.7,1.7,0.5,3.5c-0.2,1.8-0.2,2.8,0,3c0.5-1,1.733-1.95,3.7-2.85
				c1.833-0.867,2.933-1.917,3.3-3.15c0.533-1.767,0.283-4.2-0.75-7.3l-2.25-7.2l-1.75,1.2c1.967-1.667,3.05-3.567,3.25-5.7
				c-1.933,1.833-4.6,3.917-8,6.25l-8.5,5.75l-0.25-0.75l-0.75,0.25c-1.4-1.1-2.567-1.767-3.5-2l-0.5-1.5l14.55-13l14.45-13v-6.05
				c-0.033-2.467,0.133-4.283,0.5-5.45l-0.25-0.75l0.25-0.75c3.633-1.067,6.433-3.55,8.4-7.45c2.067-4.1,1.767-7.45-0.9-10.05
				c1.467,0.4,2.367,1.65,2.7,3.75l0.3,5.25c1.967-1.667,5.033-3.767,9.2-6.3l9.3-6.2c0.667-1.533,0.767-3.633,0.3-6.3
				c-0.6-3.067-0.867-4.8-0.8-5.2l0.55-0.9l-1.05-0.1v-4.5c-6.5-1.933-12.367-5.4-17.6-10.4c-3.767-3.6-7.9-8.8-12.4-15.6
				L192.63,32.231 M195.63,98.231l-0.3,11.9c-0.167,4.567,0.1,8.267,0.8,11.1c0.3-0.433,0.817-0.767,1.55-1l1.95-0.5
				c0.067-9.767,0.733-17.6,2-23.5l-0.95,11.25c-0.467,4.567-0.65,8.483-0.55,11.75l3.1-0.65l3.4-0.35
				c-0.267-1.7,0.283-2.917,1.65-3.65l3.35-1.85c0.067-2.5,0.467-5.85,1.2-10.05c0.767-4.333,1.2-7.65,1.3-9.95l-2-0.25
				c-0.633-0.367-1.133-0.617-1.5-0.75l-0.95,9.75c-0.5,3.7-1.35,6.45-2.55,8.25c-1.233-0.967-1.967-3.233-2.2-6.8
				c-0.267-4.067-0.7-6.633-1.3-7.7l-1.8,0.05c-0.667-0.033-0.9-0.383-0.7-1.05c-1.533,0.733-2.567,1.267-3.1,1.6
				C196.93,96.531,196.13,97.331,195.63,98.231 M205.93,102.681c0.2,2.3,0.6,4.15,1.2,5.55c0.7-1.633,1.25-4.767,1.65-9.4
				c0.367-4.4,0.983-7.433,1.85-9.1c0.4,0.1,0.85,0.483,1.35,1.15c0.467,0.6,1.017,0.883,1.65,0.85l0.6-3.65
				c0.2-1.533,1-2.15,2.4-1.85l1.2,5.05c0.533,1.933,1.3,3.25,2.3,3.95l1.15-8.55c0.4-3.5,0.517-6.15,0.35-7.95
				c-1.367,1.2-4.85,3.617-10.45,7.25c-4.433,2.9-7.617,5.65-9.55,8.25l2.45,0.1l1.55,1.9
				C205.697,99.297,205.797,101.447,205.93,102.681 M209.88,122.781c-3.333-0.3-6.517-0.067-9.55,0.7
				c-3.233,0.833-5.5,2.067-6.8,3.7c-1.467,1.9-1.433,4.083,0.1,6.55c0.9-1.867,2.067-3.217,3.5-4.05
				c1.7-0.967,3.867-1.283,6.5-0.95l2.2,2c0.867,0.9,1.8,1.4,2.8,1.5c1.467-2.233,3.567-3.417,6.3-3.55
				c2.867-0.133,4.933,1.05,6.2,3.55c1.333-1.533,1.35-3.1,0.05-4.7c-1.233-1.5-2.583-2.1-4.05-1.8l0.65-0.15l0.35-0.35
				C216.097,123.897,213.347,123.081,209.88,122.781 M219.63,124.731c0.067-0.367,0.317-0.7,0.75-1c0.467-0.333,0.717-0.667,0.75-1
				c-3.067-1.3-5.35-2.133-6.85-2.5c-3-0.767-5.717-0.767-8.15,0c1.3,1,3.433,1.867,6.4,2.6
				C216.43,123.764,218.797,124.397,219.63,124.731 M223.13,129.731l-0.75,1.7c-0.4,0.7-0.65,1.3-0.75,1.8
				c0.467-0.033,0.917,0.083,1.35,0.35l1.15,0.65c1.267-1.967,1.567-4.083,0.9-6.35c-0.667-2.4-2.133-3.783-4.4-4.15
				c-0.967,0.9-0.917,1.9,0.15,3C222.247,128.297,223.03,129.297,223.13,129.731 M226.13,138.231l0.05-3.8
				c0.067-1.6-0.117-2.667-0.55-3.2c-1.667,2.967-2.167,7.633-1.5,14l1.2-3.65c0.4-1.467,0.333-2.75-0.2-3.85l0.55,0.2
				L226.13,138.231 M209.63,140.731v14c10.333-1,15-7,14-18c-0.767,0.1-2.8,0.85-6.1,2.25
				C214.53,140.214,211.897,140.797,209.63,140.731 M224.63,149.731c1.433-1.833,2.1-4.5,2-8c-1.133,4.233-3.917,7.75-8.35,10.55
				c-4.6,2.9-9.483,4.05-14.65,3.45c-2.9-0.367-5.65-1.35-8.25-2.95c-2.633-1.633-4.383-3.483-5.25-5.55
				c0.067,3.133,1.883,5.7,5.45,7.7c3.133,1.8,7.15,2.9,12.05,3.3l-4.15-0.05l-3.85-0.45c-1.467-0.4-3.233-1.517-5.3-3.35
				c-1.767-1.567-3-2.283-3.7-2.15c0.533,3.967,2.75,6.917,6.65,8.85c3.5,1.733,7.6,2.367,12.3,1.9
				c4.633-0.467,8.45-1.833,11.45-4.1c3.267-2.5,4.633-5.55,4.1-9.15l-0.2,0.3C224.764,150.064,224.664,149.964,224.63,149.731
				 M220.13,132.231c-1.767-2-4.267-2.833-7.5-2.5l-5.25,6.25l6.6-1.6C217.547,133.481,219.597,132.764,220.13,132.231
				 M216.23,135.781c-3.333,1.667-5.867,1.817-7.6,0.45h-1.5c-0.133,0.733,0.3,1.3,1.3,1.7c0.933,0.333,1.167,1.1,0.7,2.3
				c6.833-0.7,11.5-2.533,14-5.5C221.897,133.797,219.597,134.147,216.23,135.781 M193.13,113.231c-2.8,3.133-6.633,6.467-11.5,10
				c1.767,3.267,3.75,4.333,5.95,3.2l6.55-4.7c-0.067-0.367-0.017-1.983,0.15-4.85C194.38,114.814,193.997,113.597,193.13,113.231
				 M191.13,125.481c-1.1,0.833-1.883,2.117-2.35,3.85c-0.467,1.733-0.45,3.333,0.05,4.8c0.567,1.633,1.667,2.667,3.3,3.1
				c0-0.767,0.333-1.267,1-1.5c-1.3-1.9-1.783-3.867-1.45-5.9c0.367-2.1,1.517-3.633,3.45-4.6
				C193.697,124.464,192.364,124.547,191.13,125.481 M205.68,120.731l-0.05-1c-5.3,0.967-9.3,2.467-12,4.5
				c1.633,0.4,3.683,0.05,6.15-1.05c2.9-1.233,5.017-1.883,6.35-1.95C205.897,121.197,205.747,121.031,205.68,120.731
				 M182.58,126.281c-0.733-1.067-1.383-1.75-1.95-2.05l-7.15,6.05c-3.033,2.467-5.317,4.617-6.85,6.45
				c0.8-0.067,1.583,0.15,2.35,0.65c0.867,0.533,1.583,0.817,2.15,0.85c0.8-0.633,3.117-2.25,6.95-4.85
				c2.833-1.933,5.017-3.65,6.55-5.15C183.964,127.964,183.28,127.314,182.58,126.281 M182.18,153.531
				c-2.2,1.967-3.717,4.033-4.55,6.2c2.667,0.1,4.933,0.833,6.8,2.2c1.467,1.033,2.867,2.633,4.2,4.8c0.833-2.467,2.5-4.133,5-5
				c-0.333-1.3-1.35-3.367-3.05-6.2c-1.433-2.433-2.25-4.7-2.45-6.8C185.43,150.797,183.447,152.397,182.18,153.531 M172.58,152.131
				c-1.067,1.733-2.217,4.933-3.45,9.6c1,1.333,2.167,2.5,3.5,3.5c2.267-0.167,4.683,0.767,7.25,2.8c2.433,1.9,5.017,2.633,7.75,2.2
				c0.033-3.733-1.833-6.333-5.6-7.8c-3.367-1.367-6.667-1.433-9.9-0.2c5.7-2.9,8.533-7.9,8.5-15
				C177.097,147.531,174.414,149.164,172.58,152.131 M207.38,135.981l-0.3,0.15c-2.267-2.633-4.533-4.367-6.8-5.2
				c-3.067-1.133-4.95,0.133-5.65,3.8c1.367,0.9,3.283,1.517,5.75,1.85l6.75-0.35L207.38,135.981 M206.63,137.731
				c-5.533,0.2-9.867-0.467-13-2c-0.033,0.333-0.283,0.667-0.75,1c-0.433,0.3-0.683,0.633-0.75,1c3.767,2.2,8.6,3.2,14.5,3V137.731
				 M195.13,152.231c3.033,1.233,4.9,1.95,5.6,2.15c2.233,0.667,4.533,0.95,6.9,0.85l-0.05-7.2l-0.45-6.8
				c-9.1,0.333-15.267-1.667-18.5-6c0.6,2.133,1.2,5.233,1.8,9.3c0.7,3.3,1.933,5.533,3.7,6.7c-0.533-1.833-0.967-3.85-1.3-6.05
				c-0.367-2.567-0.433-4.55-0.2-5.95l0.9,6.9C193.864,148.864,194.397,150.897,195.13,152.231 M207.83,146.381
				c0.067,4.267,0.5,7.217,1.3,8.85l0.1-9.6c-0.033-3.733-0.567-6.033-1.6-6.9L207.83,146.381 M195.13,161.731
				c2.233,3.3,3.933,5.4,5.1,6.3c2.567,2.033,5.7,2.6,9.4,1.7v-5.5c-2.567,0.367-5.383,0.133-8.45-0.7L195.13,161.731
				 M169.93,167.081c-3.1-0.8-4.2-2.417-3.3-4.85c-0.333,2.2,0.817,3.717,3.45,4.55c2.633,0.867,4.483,0.517,5.55-1.05
				c-4.833,0.333-7.167-1.5-7-5.5c-0.667,0.2-1.217,0.533-1.65,1l-0.35-1c-1.9,1.433-2.717,2.983-2.45,4.65
				c0.233,1.5,1.2,2.8,2.9,3.9c1.667,1.067,3.433,1.6,5.3,1.6c2.067,0,3.65-0.717,4.75-2.15L169.93,167.081 M221.13,159.731
				c-2.3,2.033-5.967,3.533-11,4.5v5.5c2.833,0.633,5.367-0.35,7.6-2.95C219.53,164.681,220.664,162.331,221.13,159.731"/>
			<path class="st1" d="M234.18,134.381l13.7,24.6l-0.75-0.25c-1.333,0.933-3.767,2.317-7.3,4.15c-3.233,1.7-5.633,3.15-7.2,4.35
				c-1.3-1.3-2.533-3.067-3.7-5.3l-2.8-6.2c0.033,1.467,0.883,3.65,2.55,6.55c1.767,3.067,2.75,5.55,2.95,7.45
				c-1.267-1.1-2.667-2.867-4.2-5.3c-1.8-2.967-3.067-4.867-3.8-5.7c1.867-3.2,3.183-7.183,3.95-11.95
				c0.633-4.133,0.817-8.483,0.55-13.05c-0.267-5.3-2.333-9.317-6.2-12.05c-3.133-2.2-7.733-3.683-13.8-4.45
				c0.233-0.833,1-1.483,2.3-1.95c1.467-0.567,2.367-1.083,2.7-1.55l-0.55-0.75c3.133-0.733,5.783-1.867,7.95-3.4l1.2,0.05
				C225.064,116.931,229.214,125.181,234.18,134.381"/>
			<path class="st2" d="M247.13,163.231l-0.3,0.15l0.25-0.35L247.13,163.231"/>
			<path class="st0" d="M247.08,163.031l-0.25,0.35l-7.2,3.8c-2.933,1.533-5.267,2.883-7,4.05c-1-2.4,0.683-4.667,5.05-6.8
				c1.133-0.567,2.883-1.35,5.25-2.35c1.9-0.9,3.133-1.683,3.7-2.35c0.867,0.033,1.167,0.417,0.9,1.15
				C247.13,162.014,246.98,162.731,247.08,163.031"/>
			<path class="st0" d="M226.63,141.731c0.1,3.5-0.567,6.167-2,8c0.033,0.233,0.133,0.333,0.3,0.3l0.2-0.3
				c0.533,3.6-0.833,6.65-4.1,9.15c-3,2.267-6.817,3.633-11.45,4.1c-4.7,0.467-8.8-0.167-12.3-1.9c-3.9-1.933-6.117-4.883-6.65-8.85
				c0.7-0.133,1.933,0.583,3.7,2.15c2.067,1.833,3.833,2.95,5.3,3.35l3.85,0.45l4.15,0.05c-4.9-0.4-8.917-1.5-12.05-3.3
				c-3.567-2-5.383-4.567-5.45-7.7c0.867,2.067,2.617,3.917,5.25,5.55c2.6,1.6,5.35,2.583,8.25,2.95
				c5.167,0.6,10.05-0.55,14.65-3.45C222.714,149.481,225.497,145.964,226.63,141.731"/>
			<path class="st3" d="M225.63,131.231c0.433,0.533,0.617,1.6,0.55,3.2l-0.05,3.8l-0.45-0.3l-0.55-0.2
				c0.533,1.1,0.6,2.383,0.2,3.85l-1.2,3.65C223.464,138.864,223.964,134.197,225.63,131.231"/>
			<path class="st1" d="M220.63,123.731c2.267,0.367,3.733,1.75,4.4,4.15c0.667,2.267,0.367,4.383-0.9,6.35l-1.15-0.65
				c-0.433-0.267-0.883-0.383-1.35-0.35c0.1-0.5,0.35-1.1,0.75-1.8l0.75-1.7c-0.1-0.433-0.883-1.433-2.35-3
				C219.714,125.631,219.664,124.631,220.63,123.731"/>
			<path class="st4" d="M183.38,84.281c1.7-0.933,4.317-2.317,7.85-4.15c5.167,0.867,10.967-0.933,17.4-5.4l7.9-6
				c3.167-2.5,5.717-4.3,7.65-5.4l-0.55,0.9c-0.067,0.4,0.2,2.133,0.8,5.2c0.467,2.667,0.367,4.767-0.3,6.3l-9.3,6.2
				c-4.167,2.533-7.233,4.633-9.2,6.3l-0.3-5.25c-0.333-2.1-1.233-3.35-2.7-3.75c2.667,2.6,2.967,5.95,0.9,10.05
				c-1.967,3.9-4.767,6.383-8.4,7.45l-0.25,0.75l-9.9,5.55c-3.767,2.167-6.967,4.233-9.6,6.2l-1.5,0.3l-1.5,0.2
				c0.1-4.467-1.233-8.883-4-13.25v-0.8c0.7-0.7,1.767-1.233,3.2-1.6c0.3-0.267,0.867-0.567,1.7-0.9c0.8-0.3,1.367-0.617,1.7-0.95
				l1.65-0.6c0.833-0.433,1.383-0.7,1.65-0.8C178.614,88.164,180.314,85.981,183.38,84.281"/>
			<path class="st5" d="M181.03,30.481c0.467,0,0.8-0.133,1-0.4l1.1-0.25c0.767,2.433,1.567,4.1,2.4,5l0.95,0.55
				c1.133,0.233,2.3,0,3.5-0.7l2.9-2.2l0.25,0.25c4.5,6.8,8.633,12,12.4,15.6c5.233,5,11.1,8.467,17.6,10.4v4.5l1.05,0.1
				c-1.933,1.1-4.483,2.9-7.65,5.4l-7.9,6c-6.433,4.467-12.233,6.267-17.4,5.4l-6.35-12.4c-2.567-4.933-5.017-8.933-7.35-12
				c3.333-0.867,5.433-2.25,6.3-4.15c0.733-1.5,0.717-3.567-0.05-6.2l-2.6-7.3c-1.033-3-1.467-5.45-1.3-7.35L181.03,30.481"/>
			<path class="st3" d="M223.63,136.731c1,11-3.667,17-14,18v-14c2.267,0.067,4.9-0.517,7.9-1.75
				C220.83,137.581,222.864,136.831,223.63,136.731"/>
			<path class="st6" d="M201.63,94.231c1.933-2.6,5.117-5.35,9.55-8.25c5.6-3.633,9.083-6.05,10.45-7.25
				c0.167,1.8,0.05,4.45-0.35,7.95l-1.15,8.55c-1-0.7-1.767-2.017-2.3-3.95l-1.2-5.05c-1.4-0.3-2.2,0.317-2.4,1.85l-0.6,3.65
				c-0.633,0.033-1.183-0.25-1.65-0.85c-0.5-0.667-0.95-1.05-1.35-1.15c-0.867,1.667-1.483,4.7-1.85,9.1
				c-0.4,4.633-0.95,7.767-1.65,9.4c-0.6-1.4-1-3.25-1.2-5.55c-0.133-1.233-0.233-3.383-0.3-6.45l-1.55-1.9L201.63,94.231"/>
			<path class="st1" d="M223.13,134.731c-2.5,2.967-7.167,4.8-14,5.5c0.467-1.2,0.233-1.967-0.7-2.3c-1-0.4-1.433-0.967-1.3-1.7h1.5
				c1.733,1.367,4.267,1.217,7.6-0.45C219.597,134.147,221.897,133.797,223.13,134.731"/>
			<path class="st7" d="M217.13,125.731c1.467-0.3,2.817,0.3,4.05,1.8c1.3,1.6,1.283,3.167-0.05,4.7
				c-1.267-2.5-3.333-3.683-6.2-3.55c-2.733,0.133-4.833,1.317-6.3,3.55c-1-0.1-1.933-0.6-2.8-1.5l-2.2-2
				c-2.633-0.333-4.8-0.017-6.5,0.95c-1.433,0.833-2.6,2.183-3.5,4.05c-1.533-2.467-1.567-4.65-0.1-6.55
				c1.3-1.633,3.567-2.867,6.8-3.7c3.033-0.767,6.217-1,9.55-0.7c3.467,0.3,6.217,1.117,8.25,2.45l-0.35,0.35L217.13,125.731"/>
			<path class="st1" d="M221.13,122.731c-0.033,0.333-0.283,0.667-0.75,1c-0.433,0.3-0.683,0.633-0.75,1
				c-0.833-0.333-3.2-0.967-7.1-1.9c-2.967-0.733-5.1-1.6-6.4-2.6c2.433-0.767,5.15-0.767,8.15,0
				C215.78,120.597,218.064,121.431,221.13,122.731"/>
			<path class="st3" d="M210.13,164.231c5.033-0.967,8.7-2.467,11-4.5c-0.467,2.6-1.6,4.95-3.4,7.05
				c-2.233,2.6-4.767,3.583-7.6,2.95V164.231"/>
			<path class="st8" d="M213.98,134.381l-6.6,1.6l5.25-6.25c3.233-0.333,5.733,0.5,7.5,2.5
				C219.597,132.764,217.547,133.481,213.98,134.381"/>
			<path class="st3" d="M204.93,102.931c0.233,3.567,0.967,5.833,2.2,6.8c1.2-1.8,2.05-4.55,2.55-8.25l0.95-9.75
				c0.367,0.133,0.867,0.383,1.5,0.75l2,0.25c-0.1,2.3-0.533,5.617-1.3,9.95c-0.733,4.2-1.133,7.55-1.2,10.05l-3.35,1.85
				c-1.367,0.733-1.917,1.95-1.65,3.65l-3.4,0.35l-3.1,0.65c-0.1-3.267,0.083-7.183,0.55-11.75l0.95-11.25
				c-1.267,5.9-1.933,13.733-2,23.5l-1.95,0.5c-0.733,0.233-1.25,0.567-1.55,1c-0.7-2.833-0.967-6.533-0.8-11.1l0.3-11.9
				c0.5-0.9,1.3-1.7,2.4-2.4c0.533-0.333,1.567-0.867,3.1-1.6c-0.2,0.667,0.033,1.017,0.7,1.05l1.8-0.05
				C204.23,96.297,204.664,98.864,204.93,102.931"/>
			<path class="st3" d="M201.18,163.531c3.067,0.833,5.883,1.067,8.45,0.7v5.5c-3.7,0.9-6.833,0.333-9.4-1.7
				c-1.167-0.9-2.867-3-5.1-6.3L201.18,163.531"/>
			<path class="st0" d="M207.63,138.731c1.033,0.867,1.567,3.167,1.6,6.9l-0.1,9.6c-0.8-1.633-1.233-4.583-1.3-8.85L207.63,138.731"
				/>
			<path class="st3" d="M193.53,146.131l-0.9-6.9c-0.233,1.4-0.167,3.383,0.2,5.95c0.333,2.2,0.767,4.217,1.3,6.05
				c-1.767-1.167-3-3.4-3.7-6.7c-0.6-4.067-1.2-7.167-1.8-9.3c3.233,4.333,9.4,6.333,18.5,6l0.45,6.8l0.05,7.2
				c-2.367,0.1-4.667-0.183-6.9-0.85c-0.7-0.2-2.567-0.917-5.6-2.15C194.397,150.897,193.864,148.864,193.53,146.131"/>
			<path class="st8" d="M207.08,136.131l0.05,0.1l-6.75,0.35c-2.467-0.333-4.383-0.95-5.75-1.85c0.7-3.667,2.583-4.933,5.65-3.8
				C202.547,131.764,204.814,133.497,207.08,136.131"/>
			<path class="st1" d="M206.63,137.731v3c-5.9,0.2-10.733-0.8-14.5-3c0.067-0.367,0.317-0.7,0.75-1c0.467-0.333,0.717-0.667,0.75-1
				C196.764,137.264,201.097,137.931,206.63,137.731"/>
			<path class="st1" d="M205.63,119.731l0.05,1c0.067,0.3,0.217,0.467,0.45,0.5c-1.333,0.067-3.45,0.717-6.35,1.95
				c-2.467,1.1-4.517,1.45-6.15,1.05C196.33,122.197,200.33,120.697,205.63,119.731"/>
			<path class="st9" d="M194.68,23.231c0-3.1-1.183-5.1-3.55-6l-5,0.5c-0.633-0.433-1.483-1.35-2.55-2.75l-2.7-3.3
				c-2.367-2.367-4.783-2.517-7.25-0.45c-1.433-2.5-4.017-3.6-7.75-3.3c-3.7,0.333-6.117,1.767-7.25,4.3
				c-0.1,0.633-0.017,1.3,0.25,2c0.3,0.733,0.383,1.4,0.25,2l-5.5,0.45c-1.633,0.267-2.967-0.05-4-0.95
				c-3.133,0.4-5.383,1.917-6.75,4.55c-1.3,2.6-1.55,5.75-0.75,9.45c-1.533,0.5-3.117,1.233-4.75,2.2l-4.25,2.8
				c-4.533-0.133-7.5-0.1-8.9,0.1c-3.167,0.467-5.533,1.767-7.1,3.9c-0.333,0.467-0.7,1.5-1.1,3.1c-0.333,1.3-0.967,2.267-1.9,2.9
				c-3.333-1.133-6.35-1.233-9.05-0.3c-2.667,0.933-4.483,2.7-5.45,5.3c-1.5-1.233-3.583-1.683-6.25-1.35
				c-2.467,0.3-4.383,1.083-5.75,2.35c-0.3,0.5-0.567,1.4-0.8,2.7l-0.7,2.8c-6.8-2.033-10.65-3.117-11.55-3.25
				c-4.667-0.7-7.683,0.45-9.05,3.45c0.733-2.133,1.833-3.617,3.3-4.45c1.567-0.9,3.667-1.15,6.3-0.75
				c0.467,0.067,1.05,0.383,1.75,0.95c0.767,0.6,1.35,0.95,1.75,1.05l4.05,0.15c1.467,0,2.45,0.45,2.95,1.35
				c-0.767-3,0.483-5.3,3.75-6.9c3.2-1.533,6.283-1.567,9.25-0.1c1.367-2.367,3.2-4.2,5.5-5.5l5.2,0.05l4.3,0.45
				c1.033-2.767,2.167-4.9,3.4-6.4c1.667-2,3.7-3.2,6.1-3.6l5.05,0.15l4.95,0.35c0.833-0.5,1.9-1.45,3.2-2.85
				c1.267-1.133,2.7-1.683,4.3-1.65c-1.133-3.033-0.967-6.083,0.5-9.15c1.5-3.1,3.667-4.883,6.5-5.35
				c0.867-0.167,2.35,0.033,4.45,0.6l4.55-0.1c0.3-3.9,2.55-6.567,6.75-8c4.167-1.467,7.583-0.8,10.25,2c3.067-1,5.733-0.633,8,1.1
				c1.433,1.133,2.933,3.1,4.5,5.9c4.9-1.2,8.15,0.183,9.75,4.15c1.433,3.533,1.183,7.483-0.75,11.85l-0.4-0.5
				c-0.2-0.233-0.233-0.4-0.1-0.5L194.68,23.231"/>
			<path class="st10" d="M194.88,97.481l0.25,0.75c-0.367,1.167-0.533,2.983-0.5,5.45v6.05l-14.45,13l-14.55,13l0.25,0.75l-9.9,9.1
				c-3.933,3.633-7.033,6.817-9.3,9.55l-8.85,7c-3.267,2.733-5.917,5.35-7.95,7.85c-1.733,0.2-3.667,0.883-5.8,2.05l-5.45,3.2v-0.5
				c-1.033,0.067-1.7,0.4-2,1c-0.333-3.667-0.3-6.967,0.1-9.9c0.467-3.7,1.467-6.517,3-8.45l2.7-2.2l1.2-0.45
				c0.367,0.033,0.567,0.433,0.6,1.2c0,0.767,0.133,1.2,0.4,1.3c0.9-0.967,2.1-3.517,3.6-7.65c1.233-3.333,3.033-5.45,5.4-6.35
				l-0.25-0.75l6.95-5.85c2.867-2.633,5.217-4.517,7.05-5.65c0.367,0.267,0.617,0.767,0.75,1.5c0.167,0.8,0.383,1.333,0.65,1.6
				c1.233,0.167,2.033-0.467,2.4-1.9c0.233-1.8,0.517-3,0.85-3.6c1.167,0.533,1.933,2.183,2.3,4.95c0.467,3.267,1.033,5.367,1.7,6.3
				l0.6,0.3l1.15-0.3c0.533-1.667,0.8-4.45,0.8-8.35c0.033-3.633,0.4-6.35,1.1-8.15l0.65-0.1c0.833,0.667,1.483,0.85,1.95,0.55
				c0.5-0.733,0.617-1.833,0.35-3.3c3.567-2.4,7.817-6.15,12.75-11.25c2.633-1.967,5.833-4.033,9.6-6.2L194.88,97.481"/>
			<path class="st11" d="M194.63,30.731c-0.133,0.1-0.1,0.267,0.1,0.5l0.4,0.5l-0.1,0.2l-2.4,0.3l0.25,0.25l-2.9,2.2
				c-1.2,0.7-2.367,0.933-3.5,0.7l-0.95-0.55c-0.833-0.9-1.633-2.567-2.4-5l-1.1,0.25c-0.2,0.267-0.533,0.4-1,0.4l-1.15,0.25
				c-1.767,0.7-3.5,0.567-5.2-0.4c-1.567-0.9-2.75-2.25-3.55-4.05c-0.467-0.067-0.783,0.017-0.95,0.25c0.833,3.2-0.367,5.9-3.6,8.1
				c-3.033,2.067-6.067,2.7-9.1,1.9c-0.567,1.233-1.567,2.283-3,3.15l-3.95,1.9c-0.567,0.567-0.9,1.467-1,2.7l-0.4,2.95
				c-1.5,3.667-4.267,6.033-8.3,7.1c-4.367,1.167-7.55-0.25-9.55-4.25l-0.65-0.25l-3.65,2.4c-1.467,0.7-2.867,0.9-4.2,0.6
				c0.3,3.567-0.95,6.667-3.75,9.3c-2.867,2.733-6.033,3.567-9.5,2.5c-0.2,0.567-0.2,1.467,0,2.7c2.233-0.267,4.283,0.267,6.15,1.6
				c1.7,1.233,2.9,2.867,3.6,4.9c0.733,2.1,0.75,4.083,0.05,5.95c-0.767,2.067-2.283,3.583-4.55,4.55l-0.7,0.3
				c0.133,0.6,0.617,1.4,1.45,2.4c0.9,1.033,1.433,1.867,1.6,2.5c0.367,1.1,0.25,2.1-0.35,3l-2.25,2.05
				c1.233,3.8,0.033,6.867-3.6,9.2c-4.833,2.2-8.183,3.933-10.05,5.2l-6.3,2.55c-2.4,0.867-4.583,1.4-6.55,1.6l-0.15,0.7
				c-14.7-35.567-22.45-53.433-23.25-53.6c0.2-1.467,0.5-2.733,0.9-3.8c1.367-3,4.383-4.15,9.05-3.45
				c0.9,0.133,4.75,1.217,11.55,3.25l0.7-2.8c0.233-1.3,0.5-2.2,0.8-2.7c1.367-1.267,3.283-2.05,5.75-2.35
				c2.667-0.333,4.75,0.117,6.25,1.35c0.967-2.6,2.783-4.367,5.45-5.3c2.7-0.933,5.717-0.833,9.05,0.3
				c0.933-0.633,1.567-1.6,1.9-2.9c0.4-1.6,0.767-2.633,1.1-3.1c1.567-2.133,3.933-3.433,7.1-3.9c1.4-0.2,4.367-0.233,8.9-0.1
				l4.25-2.8c1.633-0.967,3.217-1.7,4.75-2.2c-0.8-3.7-0.55-6.85,0.75-9.45c1.367-2.633,3.617-4.15,6.75-4.55
				c1.033,0.9,2.367,1.217,4,0.95l5.5-0.45c0.133-0.6,0.05-1.267-0.25-2c-0.267-0.7-0.35-1.367-0.25-2
				c1.133-2.533,3.55-3.967,7.25-4.3c3.733-0.3,6.317,0.8,7.75,3.3c2.467-2.067,4.883-1.917,7.25,0.45l2.7,3.3
				c1.067,1.4,1.917,2.317,2.55,2.75l5-0.5c2.367,0.9,3.55,2.9,3.55,6L194.63,30.731"/>
			<path class="st0" d="M193.13,113.231c0.867,0.367,1.25,1.583,1.15,3.65c-0.167,2.867-0.217,4.483-0.15,4.85l-6.55,4.7
				c-2.2,1.133-4.183,0.067-5.95-3.2C186.497,119.697,190.33,116.364,193.13,113.231"/>
			<path class="st1" d="M192.13,137.231c-1.633-0.433-2.733-1.467-3.3-3.1c-0.5-1.467-0.517-3.067-0.05-4.8
				c0.467-1.733,1.25-3.017,2.35-3.85c1.233-0.933,2.567-1.017,4-0.25c-1.933,0.967-3.083,2.5-3.45,4.6
				c-0.333,2.033,0.15,4,1.45,5.9C192.464,135.964,192.13,136.464,192.13,137.231"/>
			<path class="st3" d="M188.13,148.731c0.2,2.1,1.017,4.367,2.45,6.8c1.7,2.833,2.717,4.9,3.05,6.2c-2.5,0.867-4.167,2.533-5,5
				c-1.333-2.167-2.733-3.767-4.2-4.8c-1.867-1.367-4.133-2.1-6.8-2.2c0.833-2.167,2.35-4.233,4.55-6.2
				C183.447,152.397,185.43,150.797,188.13,148.731"/>
			<path class="st3" d="M185.63,132.231l2.25,7.2c1.033,3.1,1.283,5.533,0.75,7.3c-0.367,1.233-1.467,2.283-3.3,3.15
				c-1.967,0.9-3.2,1.85-3.7,2.85c-0.2-0.2-0.2-1.2,0-3c0.2-1.8,0.033-2.967-0.5-3.5c-3.2,0.267-5.883,1.367-8.05,3.3
				c-2.6,2.3-3.75,5.367-3.45,9.2l-0.75,0.3c-0.2,0.067-0.45-0.033-0.75-0.3l-0.25,0.75l-0.7-1.15c-8.7-0.1-15.683,1.917-20.95,6.05
				c-2,1.533-3.6,4.067-4.8,7.6c-1.333,3.9-2.683,6.567-4.05,8l-3.25-5.45c-1.267-2.2-2.683-3.717-4.25-4.55
				c5.367-2.8,13.633-8.117,24.8-15.95l26.25-18.65l2.85-1.95h0.1L185.63,132.231"/>
			<path class="st12" d="M180.63,147.231c0.033,7.1-2.8,12.1-8.5,15c3.233-1.233,6.533-1.167,9.9,0.2
				c3.767,1.467,5.633,4.067,5.6,7.8c-2.733,0.433-5.317-0.3-7.75-2.2c-2.567-2.033-4.983-2.967-7.25-2.8
				c-1.333-1-2.5-2.167-3.5-3.5c1.233-4.667,2.383-7.867,3.45-9.6C174.414,149.164,177.097,147.531,180.63,147.231"/>
			<path class="st4" d="M171.58,94.081c-1.433,0.367-2.5,0.9-3.2,1.6v0.8c2.767,4.367,4.1,8.783,4,13.25
				c-0.967,1.167-2.567,2.35-4.8,3.55c-2.6,1.367-4.333,2.433-5.2,3.2c-1.733,0.9-4.483,2.567-8.25,5
				c-3.467,2.267-6.25,3.883-8.35,4.85l-0.25,0.9c-0.633,0.033-1.55,0.417-2.75,1.15c-1.133,0.7-2.05,1.017-2.75,0.95
				c-0.7-4.267-2.167-8.3-4.4-12.1l6.4-3.55c2.7-1.5,4.617-2.783,5.75-3.85c3.167-3,4.1-6.683,2.8-11.05
				c-0.867-2.967-3.183-7.1-6.95-12.4l0.6-1c1.567-0.8,4.133-2.017,7.7-3.65c3.1-1.533,5.417-2.967,6.95-4.3
				c4.333-3.8,4.4-8.517,0.2-14.15l9.2-4c3.6-1.533,6.683-2.717,9.25-3.55c2.333,3.067,4.783,7.067,7.35,12l6.35,12.4
				c-3.533,1.833-6.15,3.217-7.85,4.15c-3.067,1.7-4.767,3.883-5.1,6.55c-0.267,0.1-0.817,0.367-1.65,0.8l-1.65,0.6
				c-0.333,0.333-0.9,0.65-1.7,0.95C172.447,93.514,171.88,93.814,171.58,94.081"/>
			<path class="st0" d="M187.13,127.731c-0.2,2.133-1.283,4.033-3.25,5.7h-0.1l-2.85,1.95l-3.15,1.85l-3.15,2l-22.25,15.8
				c-10.433,7.3-17.933,12.283-22.5,14.95c2.033-2.5,4.683-5.117,7.95-7.85l8.85-7c7.8-3.767,15.7-9.15,23.7-16.15l0.25,0.75
				l8.5-5.75C182.53,131.647,185.197,129.564,187.13,127.731"/>
			<path class="st0" d="M180.63,124.231c0.567,0.3,1.217,0.983,1.95,2.05c0.7,1.033,1.383,1.683,2.05,1.95
				c-1.533,1.5-3.717,3.217-6.55,5.15c-3.833,2.6-6.15,4.217-6.95,4.85c-0.567-0.033-1.283-0.317-2.15-0.85
				c-0.767-0.5-1.55-0.717-2.35-0.65c1.533-1.833,3.817-3.983,6.85-6.45L180.63,124.231"/>
			<path class="st12" d="M182.13,172.731c1.367,5.3,1.967,9.65,1.8,13.05c-0.267,5.033-2.117,8.667-5.55,10.9
				c-3.967-3.567-8.967-5.183-15-4.85c-5.967,0.3-10.833,2.383-14.6,6.25c-1.967-2.367-4-5.317-6.1-8.85l-5.3-9.25
				c1.367-1.433,2.717-4.1,4.05-8c1.2-3.533,2.8-6.067,4.8-7.6c5.267-4.133,12.25-6.15,20.95-6.05l0.7,1.15l-0.75-0.25
				c-2.633,1.167-4,2.717-4.1,4.65c-0.067,1.7,0.817,3.317,2.65,4.85c1.8,1.5,3.883,2.367,6.25,2.6c2.6,0.233,4.833-0.467,6.7-2.1
				c1.667,0.8,2.833,2.133,3.5,4V172.731"/>
			<path class="st5" d="M179.88,30.731c-0.167,1.9,0.267,4.35,1.3,7.35l2.6,7.3c0.767,2.633,0.783,4.7,0.05,6.2
				c-0.867,1.9-2.967,3.283-6.3,4.15c-2.567,0.833-5.65,2.017-9.25,3.55l-9.2,4c-2.367-2.967-4.217-5.5-5.55-7.6
				c-1.967-3-3.433-5.817-4.4-8.45l0.4-2.95c0.1-1.233,0.433-2.133,1-2.7l3.95-1.9c1.433-0.867,2.433-1.917,3-3.15
				c3.033,0.8,6.067,0.167,9.1-1.9c3.233-2.2,4.433-4.9,3.6-8.1c0.167-0.233,0.483-0.317,0.95-0.25c0.8,1.8,1.983,3.15,3.55,4.05
				C176.38,31.297,178.114,31.431,179.88,30.731"/>
			<path class="st2" d="M180.93,135.381l-26.25,18.65c-11.167,7.833-19.433,13.15-24.8,15.95c4.567-2.667,12.067-7.65,22.5-14.95
				l22.25-15.8l3.15-2L180.93,135.381"/>
			<path class="st13" d="M172.38,170.381c-1.867,0-3.633-0.533-5.3-1.6c-1.7-1.1-2.667-2.4-2.9-3.9
				c-0.267-1.667,0.55-3.217,2.45-4.65l0.35,1c0.433-0.467,0.983-0.8,1.65-1c-0.167,4,2.167,5.833,7,5.5
				c-1.067,1.567-2.917,1.917-5.55,1.05c-2.633-0.833-3.783-2.35-3.45-4.55c-0.9,2.433,0.2,4.05,3.3,4.85l7.2,1.15
				C176.03,169.664,174.447,170.381,172.38,170.381"/>
			<path class="st0" d="M175.38,109.231c-4.933,5.1-9.183,8.85-12.75,11.25l0.25-2.05c0.067-0.833-0.1-1.483-0.5-1.95
				c0.867-0.767,2.6-1.833,5.2-3.2c2.233-1.2,3.833-2.383,4.8-3.55l1.5-0.2L175.38,109.231"/>
			<path class="st0" d="M170.38,138.981c-8,7-15.9,12.383-23.7,16.15c2.267-2.733,5.367-5.917,9.3-9.55l9.9-9.1l0.25,0.75
				c0.933,0.233,2.1,0.9,3.5,2L170.38,138.981"/>
			<path class="st6" d="M162.63,120.481c0.267,1.467,0.15,2.567-0.35,3.3c-0.467,0.3-1.117,0.117-1.95-0.55l-0.65,0.1
				c-0.7,1.8-1.067,4.517-1.1,8.15c0,3.9-0.267,6.683-0.8,8.35l-1.15,0.3l-0.6-0.3c-0.667-0.933-1.233-3.033-1.7-6.3
				c-0.367-2.767-1.133-4.417-2.3-4.95c-0.333,0.6-0.617,1.8-0.85,3.6c-0.367,1.433-1.167,2.067-2.4,1.9
				c-0.267-0.267-0.483-0.8-0.65-1.6c-0.133-0.733-0.383-1.233-0.75-1.5l-1.1-1.8c-0.4-0.7-0.65-1.35-0.75-1.95l0.25-0.9
				c2.1-0.967,4.883-2.583,8.35-4.85c3.767-2.433,6.517-4.1,8.25-5c0.4,0.467,0.567,1.117,0.5,1.95L162.63,120.481"/>
			<path class="st5" d="M149.13,47.231c0.967,2.633,2.433,5.45,4.4,8.45c1.333,2.1,3.183,4.633,5.55,7.6
				c4.2,5.633,4.133,10.35-0.2,14.15c-1.533,1.333-3.85,2.767-6.95,4.3c-3.567,1.633-6.133,2.85-7.7,3.65l-0.6,1
				c3.767,5.3,6.083,9.433,6.95,12.4c1.3,4.367,0.367,8.05-2.8,11.05c-1.133,1.067-3.05,2.35-5.75,3.85l-6.4,3.55
				c-1.567,1.367-3.15,2.233-4.75,2.6c-1.9,0.433-3.65,0.1-5.25-1c-0.933,0.167-1.533,0.75-1.8,1.75l-0.3,2.7
				c-4.3,2.067-6.833,3.183-7.6,3.35c-1.967,0.367-3.933-0.417-5.9-2.35c-1.567-1.567-3.267-3.967-5.1-7.2
				c-1-1.833-2.35-4.533-4.05-8.1c1.867-1.267,5.217-3,10.05-5.2c3.633-2.333,4.833-5.4,3.6-9.2l2.25-2.05c0.6-0.9,0.717-1.9,0.35-3
				c-0.167-0.633-0.7-1.467-1.6-2.5c-0.833-1-1.317-1.8-1.45-2.4l0.7-0.3c2.267-0.967,3.783-2.483,4.55-4.55
				c0.7-1.867,0.683-3.85-0.05-5.95c-0.7-2.033-1.9-3.667-3.6-4.9c-1.867-1.333-3.917-1.867-6.15-1.6c-0.2-1.233-0.2-2.133,0-2.7
				c3.467,1.067,6.633,0.233,9.5-2.5c2.8-2.633,4.05-5.733,3.75-9.3c1.333,0.3,2.733,0.1,4.2-0.6l3.65-2.4l0.65,0.25
				c2,4,5.183,5.417,9.55,4.25C144.864,53.264,147.63,50.897,149.13,47.231"/>
			<path class="st0" d="M156.88,210.481c0.333,0.9,0.383,1.933,0.15,3.1l-0.45,0.4l-0.35,0.85c-1.533,0.6-3.35,1.667-5.45,3.2
				l-5.15,3.65l-0.5-0.05l-0.6-0.85l-0.45-1l6.4-4.65L156.88,210.481"/>
			<path class="st10" d="M124.08,172.031c2.133-1.167,4.067-1.85,5.8-2.05c1.567,0.833,2.983,2.35,4.25,4.55l3.25,5.45l5.3,9.25
				c2.1,3.533,4.133,6.483,6.1,8.85c0.667,1.533,2.017,3.6,4.05,6.2c2.033,2.667,3.383,4.733,4.05,6.2l-6.4,4.65l-6.4,4.65l-5.75-2
				c-2.233-0.7-4.2-1.067-5.9-1.1c-1.533-1.433-3.1-3.6-4.7-6.5c-2.1-3.767-3.467-6.083-4.1-6.95h0.5c-0.633-1.7-1.6-3.567-2.9-5.6
				l-3.35-5.15c-2.6-4.267-3.85-8.683-3.75-13.25c0.433-0.6,1.267-1.267,2.5-2l2.5-2h-0.5L124.08,172.031"/>
			<path class="st0" d="M145.53,127.231c0.1,0.6,0.35,1.25,0.75,1.95l1.1,1.8c-1.833,1.133-4.183,3.017-7.05,5.65l-6.95,5.85
				l-0.25-0.75l0.65-3.35l0.35-3.65l-0.85,0.1l3.5-2.55l3.25-2.95c0.7,0.067,1.617-0.25,2.75-0.95
				C143.98,127.647,144.897,127.264,145.53,127.231"/>
			<path class="st4" d="M88.03,113.131c1.967-0.2,4.15-0.733,6.55-1.6l6.3-2.55c1.7,3.567,3.05,6.267,4.05,8.1
				c1.833,3.233,3.533,5.633,5.1,7.2c1.967,1.933,3.933,2.717,5.9,2.35c0.767-0.167,3.3-1.283,7.6-3.35l0.3-2.7
				c0.267-1,0.867-1.583,1.8-1.75c1.6,1.1,3.35,1.433,5.25,1c1.6-0.367,3.183-1.233,4.75-2.6c2.233,3.8,3.7,7.833,4.4,12.1
				l-3.25,2.95l-3.5,2.55l-0.65-0.6l-25,15l0.1,0.55c-3.867-2.533-7.267-6.967-10.2-13.3c-2.933-7.467-5.267-12.9-7-16.3l-0.05-0.1
				l-2.6-6.25L88.03,113.131"/>
			<path class="st2" d="M133.28,134.831l0.85-0.1l-0.35,3.65l-0.65,3.35l0.5,1.5c-2.367,0.9-4.167,3.017-5.4,6.35
				c-1.5,4.133-2.7,6.683-3.6,7.65c-0.267-0.1-0.4-0.533-0.4-1.3c-0.033-0.767-0.233-1.167-0.6-1.2l-1.2,0.45
				c1.033-1.2,1.267-2.517,0.7-3.95c-0.233,0.467-1.533,1.483-3.9,3.05c-1.7,1.167-2.4,2.817-2.1,4.95l2.6-1.85
				c-1.533,1.933-2.533,4.75-3,8.45c-0.4,2.933-0.433,6.233-0.1,9.9c0.3-0.6,0.967-0.933,2-1v0.5h0.5l-2.5,2
				c-1.233,0.733-2.067,1.4-2.5,2c-0.1,4.567,1.15,8.983,3.75,13.25l3.35,5.15c1.3,2.033,2.267,3.9,2.9,5.6h-0.5v0.5
				c-0.6-0.4-1.267-1.233-2-2.5c-0.7-1.267-1.367-2.1-2-2.5c-1.333,1.033-3.533,2.4-6.6,4.1c-2.633,1.667-4.433,3.467-5.4,5.4
				l-6.15-6c-2.9-2.633-5.683-4.3-8.35-5c0.167-0.367,0.4-0.483,0.7-0.35l0.8,0.35l0.6-17c0.133-6.667,0.033-12.4-0.3-17.2
				c0.3-1.933,0.017-4.667-0.85-8.2l-0.05-0.05c-0.433-3.1-1.067-6.117-1.9-9.05h-0.05l-0.45-1.55c0.033-1.133-0.067-2.467-0.3-4
				c1.733,3.3,3.5,6.317,5.3,9.05c-0.133,0.4-0.083,0.833,0.15,1.3l1.35,2.2c2.133,0.267,3.967,0.1,5.5-0.5
				c1.267-0.5,2.433-1.333,3.5-2.5l0.6,0.05l-0.1-0.55l25-15L133.28,134.831 M129.13,141.731l-0.5,2.1c-0.167,0.967,0,1.6,0.5,1.9
				l1.9-1.6l1.6-1.9l-1.9-0.1L129.13,141.731 M132.63,141.231c-0.133-0.533,0-1.533,0.4-3c0.3-1.133,0.167-1.967-0.4-2.5
				c-2.8,1.967-6.4,4.2-10.8,6.7l-11.2,6.3l0.8,4.45c0.3,1.8,1.033,2.817,2.2,3.05l0.35-4.95c0.233-1.8,0.783-2.983,1.65-3.55
				c0.267,0.9,0.767,1.067,1.5,0.5c-0.033,1.267,0.05,2.183,0.25,2.75c0.3,0.8,0.883,1.217,1.75,1.25
				c0.567-0.467,0.933-1.95,1.1-4.45c0.133-2.2,0.767-3.383,1.9-3.55c1.3,1.133,2.05,2.783,2.25,4.95l0.25,6.55
				c1.267-0.933,2.083-3.483,2.45-7.65c0.3-4.067,1.15-6.517,2.55-7.35l1.4,0.35L132.63,141.231 M94.63,149.731
				c2.467,14.933,3.133,30.933,2,48c1.733,0.433,3.833,1.967,6.3,4.6c2.3,2.467,4.2,3.767,5.7,3.9c1.2-2.7,3.533-4.533,7-5.5
				c0.4-2.3,0.333-4.733-0.2-7.3l-1.7-6.25c-1.367-4.767-0.9-8.583,1.4-11.45c-0.033-1.833,0.1-6.6,0.4-14.3
				c0.233-5.6,0.1-9.833-0.4-12.7c-0.2,0.567-0.333,2.083-0.4,4.55c-0.033,2.033-0.4,3.35-1.1,3.95c-1.4-0.2-2.333-1.25-2.8-3.15
				c-0.367-2.333-0.767-3.95-1.2-4.85c-2.067,2.633-4.65,4.217-7.75,4.75C98.347,154.547,95.93,153.131,94.63,149.731
				 M121.63,145.231l-0.7,3.4c-0.233,1.533-0.167,2.567,0.2,3.1c0.067-0.433,0.333-0.75,0.8-0.95l1.2-0.55l-0.1-3.15
				C122.83,146.081,122.364,145.464,121.63,145.231 M117.13,197.031c0,1.067,0.333,1.633,1,1.7l0.2-0.8
				c0.167-0.233,0.433-0.3,0.8-0.2c-0.467-1.9-1.133-3.067-2-3.5V197.031"/>
			<path class="st6" d="M129.63,140.731c-1.4,0.833-2.25,3.283-2.55,7.35c-0.367,4.167-1.183,6.717-2.45,7.65l-0.25-6.55
				c-0.2-2.167-0.95-3.817-2.25-4.95c-1.133,0.167-1.767,1.35-1.9,3.55c-0.167,2.5-0.533,3.983-1.1,4.45
				c-0.867-0.033-1.45-0.45-1.75-1.25c-0.2-0.567-0.283-1.483-0.25-2.75c-0.733,0.567-1.233,0.4-1.5-0.5
				c-0.867,0.567-1.417,1.75-1.65,3.55l-0.35,4.95c-1.167-0.233-1.9-1.25-2.2-3.05l-0.8-4.45l11.2-6.3c4.4-2.5,8-4.733,10.8-6.7
				c0.567,0.533,0.7,1.367,0.4,2.5c-0.4,1.467-0.533,2.467-0.4,3l-1.6-0.15L129.63,140.731"/>
			<path class="st0" d="M123.13,151.231c0.567,1.433,0.333,2.75-0.7,3.95c-1.033,0.5-1.933,1.233-2.7,2.2l-2.6,1.85
				c-0.3-2.133,0.4-3.783,2.1-4.95C121.597,152.714,122.897,151.697,123.13,151.231"/>
			<path class="st0" d="M121.63,145.231c0.733,0.233,1.2,0.85,1.4,1.85l0.1,3.15l-1.2,0.55c-0.467,0.2-0.733,0.517-0.8,0.95
				c-0.367-0.533-0.433-1.567-0.2-3.1L121.63,145.231"/>
			<path class="st0" d="M119.13,197.731c-0.367-0.1-0.633-0.033-0.8,0.2l-0.2,0.8c-0.667-0.067-1-0.633-1-1.7v-2.8
				C117.997,194.664,118.664,195.831,119.13,197.731"/>
			<path class="st3" d="M115.13,148.731c0.5,2.867,0.633,7.1,0.4,12.7c-0.3,7.7-0.433,12.467-0.4,14.3
				c-2.3,2.867-2.767,6.683-1.4,11.45l1.7,6.25c0.533,2.567,0.6,5,0.2,7.3c-3.467,0.967-5.8,2.8-7,5.5c-1.5-0.133-3.4-1.433-5.7-3.9
				c-2.467-2.633-4.567-4.167-6.3-4.6c1.133-17.067,0.467-33.067-2-48c1.3,3.4,3.717,4.817,7.25,4.25
				c3.1-0.533,5.683-2.117,7.75-4.75c0.433,0.9,0.833,2.517,1.2,4.85c0.467,1.9,1.4,2.95,2.8,3.15c0.7-0.6,1.067-1.917,1.1-3.95
				C114.797,150.814,114.93,149.297,115.13,148.731 M106.23,157.181c0.267-2.3,0.233-2.95-0.1-1.95c-0.8,2.533-1.067,5.667-0.8,9.4
				l0.8,11.1c0.1,3.2,0.033,8.633-0.2,16.3c0.067,6.6,0.8,11.167,2.2,13.7c-0.9-4.567-1.5-9.5-1.8-14.8
				c-0.3-5.667-0.2-10.9,0.3-15.7c-0.867-3.7-1.2-7.867-1-12.5L106.23,157.181"/>
			<path class="st10" d="M76.13,90.781c8.733,19.967,13.533,29.767,14.4,29.4c1.733,3.4,4.067,8.833,7,16.3
				c2.933,6.333,6.333,10.767,10.2,13.3l-0.6-0.05c-1.067,1.167-2.233,2-3.5,2.5c-1.533,0.6-3.367,0.767-5.5,0.5l-1.35-2.2
				c-0.233-0.467-0.283-0.9-0.15-1.3c-1.8-2.733-3.567-5.75-5.3-9.05c-0.433-2.3-0.883-3.183-1.35-2.65
				c-4.033-8.1-8.367-18.967-13-32.6l-11.35-34.7l-0.45,0.7c-5.033,8.167-11.833,16.45-20.4,24.85c-7.567,7.4-15.867,14.3-24.9,20.7
				l0.25-0.75c-0.967-0.267-1.75-1.05-2.35-2.35l-1.65-3.15c10.733-7.633,19.367-14.767,25.9-21.4c8.467-8.567,15-17.767,19.6-27.6
				C62.564,60.964,67.397,70.814,76.13,90.781"/>
			<path class="st2" d="M106.13,155.231c0.333-1,0.367-0.35,0.1,1.95l-0.6,5.55c-0.2,4.633,0.133,8.8,1,12.5
				c-0.5,4.8-0.6,10.033-0.3,15.7c0.3,5.3,0.9,10.233,1.8,14.8c-1.4-2.533-2.133-7.1-2.2-13.7c0.233-7.667,0.3-13.1,0.2-16.3
				l-0.8-11.1C105.064,160.897,105.33,157.764,106.13,155.231"/>
			<path class="st2" d="M94.08,154.831c0.867,3.533,1.15,6.267,0.85,8.2L94.08,154.831"/>
			<path class="st13" d="M75.13,126.231c6.333,1.867,11.117,6.1,14.35,12.7l2.15,5.25l-0.2,1.65l0.65-0.1h0.05
				c0.067,1.067,0.317,2.5,0.75,4.3l1.15,4.75l0.05,0.05l0.85,8.2l-0.3,1.2c-3.767-0.633-8.983-2.467-15.65-5.5
				c-5.833-2.633-10.783-5.25-14.85-7.85c-0.7-4.267-0.733-9.217-0.1-14.85c-0.067-2.9,1.183-5.183,3.75-6.85
				c3.367-1.567,5.783-2.85,7.25-3.85L75.13,126.231 M91.43,145.831l-2.8,0.4C90.097,147.631,91.03,147.497,91.43,145.831"/>
			<path class="st13" d="M92.08,145.731l-0.65,0.1l0.2-1.65L92.08,145.731"/>
			<path class="st2" d="M91.33,140.181c0.233,1.533,0.333,2.867,0.3,4l-2.15-5.25l0.5-1.4L91.33,140.181"/>
			<path class="st0" d="M43.13,103.731c5.7,2.967,12.8,7.367,21.3,13.2l20.7,13.8c-0.3-1.533-1.033-3.467-2.2-5.8
				c-1.2-2.4-1.967-4.3-2.3-5.7l-30.5-23.5c-0.467,0.867-1.75,2.083-3.85,3.65C44.514,100.714,43.464,102.164,43.13,103.731
				 M62.38,60.481l2.25-0.25c0.8,0.167,8.55,18.033,23.25,53.6l0.1,2.05l2.5,4.2l0.05,0.1c-0.867,0.367-5.667-9.433-14.4-29.4
				s-13.567-29.817-14.5-29.55c-4.6,9.833-11.133,19.033-19.6,27.6c-6.533,6.633-15.167,13.767-25.9,21.4l1.65,3.15
				c0.6,1.3,1.383,2.083,2.35,2.35l-0.25,0.75l0.75-0.25c1.133,0.433,2.667,0.25,4.6-0.55c2.333-0.967,3.967-1.45,4.9-1.45l0.45-1.8
				l0.55-1.7c7.433-5.133,13.967-10.567,19.6-16.3c5.867-5.967,11-12.533,15.4-19.7c0.133-0.533,0-1.217-0.4-2.05
				c-0.4-0.867-0.583-1.45-0.55-1.75l0.45-0.7l11.35,34.7c4.633,13.633,8.967,24.5,13,32.6l-0.5,1.4
				c-3.233-6.6-8.017-10.833-14.35-12.7l-0.1-0.9l-0.9-0.1l-3.65-2.15l-3.35-2.35c-1.467,0.667-4.267,2.317-8.4,4.95
				c-3.467,2.2-6.167,3.55-8.1,4.05c1.633-0.767,4.1-2.317,7.4-4.65c3-2.133,5.533-3.583,7.6-4.35c0.133-0.7-0.133-1.183-0.8-1.45
				c-0.767-0.3-1.167-0.65-1.2-1.05h-1.5l0.05-1.05l-1.05,0.05c-1.433-1.4-3.267-2.883-5.5-4.45l-6-4.05l-0.25-0.75l-0.75-0.25
				c-0.667-0.033-2.2-0.917-4.6-2.65c-1.733-1.267-3.033-1.217-3.9,0.15h-0.5v0.5l-4.35,2.85c-2.067,1.467-3.283,2.85-3.65,4.15
				c-0.967,3.433-1.067,9.133-0.3,17.1c0.867,8.633,0.967,14.933,0.3,18.9l-0.75-0.25l-0.75,0.25c-2.133,1.333-4.017,2.367-5.65,3.1
				c-2.2,0.933-4.483,1.567-6.85,1.9c0.267,1.333,2.1,2.517,5.5,3.55l7.6,2.3l0.2,0.65c-1.933-0.067-5.067-1.017-9.4-2.85l-8.9-3.65
				c0.133,1.033-0.4,1.333-1.6,0.9l-3.9,0.1c0.133-0.567,0.617-0.917,1.45-1.05l2.05-0.45c-0.233-0.3-0.367-1.083-0.4-2.35
				c-0.033-1.167-0.233-1.883-0.6-2.15c1.833-1.9,5.317-4.933,10.45-9.1c4.567-3.7,7.917-6.833,10.05-9.4v-14.5
				c-3.8,2.033-7.2,2.55-10.2,1.55c-3.4-1.133-5-3.983-4.8-8.55c10.267-6.9,18.75-13.717,25.45-20.45
				c8.733-8.7,15.25-17.883,19.55-27.55L62.38,60.481 M51.63,95.231c0.067,1.333,1.85,3.2,5.35,5.6l8.15,5.4
				c2,1.5,4.7,3.65,8.1,6.45c2.733,2.167,4.867,3.517,6.4,4.05l-13.9-10.85C60.164,101.481,55.464,97.931,51.63,95.231
				c3.833,2,8.433,5.15,13.8,9.45c6.467,5.167,10.867,8.517,13.2,10.05c-0.8-3.2-2.017-7.233-3.65-12.1l-3.85-11.9l-7.15-1.05
				l-7.35-0.95c-0.333,0.7-1.35,1.75-3.05,3.15C52.214,93.014,51.564,94.131,51.63,95.231 M57.63,88.231c6.6,0.8,10.933,1.467,13,2
				c-1.1-1.1-3.217-1.883-6.35-2.35C61.114,87.381,58.897,87.497,57.63,88.231 M58.63,86.731l11,1.5l-1.4-6.85
				c-0.6-2.467-1.3-4.517-2.1-6.15c-0.467,1.933-1.6,3.967-3.4,6.1C60.497,83.997,59.13,85.797,58.63,86.731 M12.13,153.231
				c3.567-0.4,6.933-2.05,10.1-4.95l7.9-7.05l0.1-4.35c0.067-1.8-0.133-3.017-0.6-3.65l-8.8,7.95l-9.2,7.55
				c-0.1,0.733-0.05,1.533,0.15,2.4L12.13,153.231 M16.13,153.731c4.333-0.933,9-2.767,14-5.5v-5.5c-2,1.033-4.383,2.8-7.15,5.3
				L16.13,153.731"/>
			<path class="st10" d="M46.28,99.381c2.1-1.567,3.383-2.783,3.85-3.65l30.5,23.5c0.333,1.4,1.1,3.3,2.3,5.7
				c1.167,2.333,1.9,4.267,2.2,5.8l-20.7-13.8c-8.5-5.833-15.6-10.233-21.3-13.2C43.464,102.164,44.514,100.714,46.28,99.381"/>
			<path class="st10" d="M71.13,90.731l3.85,11.9c1.633,4.867,2.85,8.9,3.65,12.1c-2.333-1.533-6.733-4.883-13.2-10.05
				c-5.367-4.3-9.967-7.45-13.8-9.45c-0.067-1.1,0.583-2.217,1.95-3.35c1.7-1.4,2.717-2.45,3.05-3.15l7.35,0.95L71.13,90.731"/>
			<path class="st0" d="M74.13,125.231l0.9,0.1c-1.467,1-3.883,2.283-7.25,3.85c-2.567,1.667-3.817,3.95-3.75,6.85
				c-2.033,0.4-4.517,1.6-7.45,3.6c-3.767,2.567-6.2,4.1-7.3,4.6c-0.367-7.8-0.433-13.883-0.2-18.25l6.8-4.1
				c2.533-1.633,4.633-3.2,6.3-4.7l-0.05,1.05h1.5c0.033,0.4,0.433,0.75,1.2,1.05c0.667,0.267,0.933,0.75,0.8,1.45
				c-2.067,0.767-4.6,2.217-7.6,4.35c-3.3,2.333-5.767,3.883-7.4,4.65c1.933-0.5,4.633-1.85,8.1-4.05
				c4.133-2.633,6.933-4.283,8.4-4.95l3.35,2.35L74.13,125.231"/>
			<path class="st0" d="M51.63,95.231c3.833,2.7,8.533,6.25,14.1,10.65l13.9,10.85c-1.533-0.533-3.667-1.883-6.4-4.05
				c-3.4-2.8-6.1-4.95-8.1-6.45l-8.15-5.4C53.48,98.431,51.697,96.564,51.63,95.231"/>
			<path class="st10" d="M66.13,75.231c0.8,1.633,1.5,3.683,2.1,6.15l1.4,6.85l-11-1.5c0.5-0.933,1.867-2.733,4.1-5.4
				C64.53,79.197,65.664,77.164,66.13,75.231"/>
			<path class="st0" d="M50.73,94.431c-5.633,5.733-12.167,11.167-19.6,16.3l-0.55,1.7l-0.45,1.8c-0.933,0-2.567,0.483-4.9,1.45
				c-1.933,0.8-3.467,0.983-4.6,0.55l-0.75,0.25c9.033-6.4,17.333-13.3,24.9-20.7c8.567-8.4,15.367-16.683,20.4-24.85
				c-0.033,0.3,0.15,0.883,0.55,1.75c0.4,0.833,0.533,1.517,0.4,2.05C61.73,81.897,56.597,88.464,50.73,94.431"/>
			<path class="st14" d="M59.13,164.231c-0.567-0.4-0.717-0.65-0.45-0.75l1.55-0.15c2.033-0.167,3-0.867,2.9-2.1
				c-0.233-0.533-0.767-0.7-1.6-0.5l-1.9,0.5c-0.567-0.333-0.117-0.633,1.35-0.9c1.433-0.3,2.317-0.167,2.65,0.4
				c0.067,1.2-0.417,2.05-1.45,2.55L59.13,164.231"/>
			<path class="st0" d="M64.13,150.881c-2.033-0.267-4.517,0.533-7.45,2.4c-2.967,1.9-5.45,2.733-7.45,2.5
				c-0.167-1.5-0.217-3.4-0.15-5.7l0.2-5.85c1.1-0.5,3.533-2.033,7.3-4.6c2.933-2,5.417-3.2,7.45-3.6
				C63.397,141.664,63.43,146.614,64.13,150.881"/>
			<path class="st0" d="M61.13,117.231l1.05-0.05c-1.667,1.5-3.767,3.067-6.3,4.7l-6.8,4.1c-0.2-2.567-0.25-5.583-0.15-9.05
				l0.45-8.95l0.25,0.75l6,4.05C57.864,114.347,59.697,115.831,61.13,117.231"/>
			<path class="st0" d="M57.63,88.231c1.267-0.733,3.483-0.85,6.65-0.35c3.133,0.467,5.25,1.25,6.35,2.35
				C68.564,89.697,64.23,89.031,57.63,88.231"/>
			<path class="st10" d="M49.08,150.081c-0.067,2.3-0.017,4.2,0.15,5.7c-1.633,0.9-3.517,2.517-5.65,4.85
				c-2.433,2.667-4.167,4.367-5.2,5.1c0.4-7.067,0.65-17.067,0.75-30c0.067-14.067,0.233-24.067,0.5-30v-0.5h0.5
				c0.867-1.367,2.167-1.417,3.9-0.15c2.4,1.733,3.933,2.617,4.6,2.65l0.75,0.25l-0.45,8.95c-0.1,3.467-0.05,6.483,0.15,9.05
				c-0.233,4.367-0.167,10.45,0.2,18.25L49.08,150.081"/>
			<path class="st3" d="M39.63,105.731c-0.267,5.933-0.433,15.933-0.5,30c-0.1,12.933-0.35,22.933-0.75,30
				c-3.933-0.267-6.417-2.1-7.45-5.5h0.85c-0.233-0.233-0.583-0.45-1.05-0.65c-0.333-1.467-0.45-3.283-0.35-5.45l0.5-5.65l0.75,0.25
				c0.667-3.967,0.567-10.267-0.3-18.9c-0.767-7.967-0.667-13.667,0.3-17.1c0.367-1.3,1.583-2.683,3.65-4.15L39.63,105.731"/>
			<path class="st0" d="M30.13,142.731v5.5c-5,2.733-9.667,4.567-14,5.5l6.85-5.7C25.747,145.531,28.13,143.764,30.13,142.731"/>
			<path class="st3" d="M29.63,133.231c0.467,0.633,0.667,1.85,0.6,3.65l-0.1,4.35l-7.9,7.05c-3.167,2.9-6.533,4.55-10.1,4.95
				l-0.35-2.1c-0.2-0.867-0.25-1.667-0.15-2.4l9.2-7.55L29.63,133.231"/>
			<path class="st15" d="M68.88,174.981c0.567,1.4,1.433,2.517,2.6,3.35c1.833,0.267,3.667-0.067,5.5-1
				c1.867-0.967,3.167-2.267,3.9-3.9l-0.3-1.15l-0.35-1.15c-1.7-1.833-4.033-2.317-7-1.45
				C70.197,170.547,68.747,172.314,68.88,174.981z"/>
			<path class="st16" d="M94.03,154.781c-0.433-3.1-1.067-6.117-1.9-9.05"/>
			<path class="st17" d="M212.58,112.981c3.133-0.733,5.783-1.867,7.95-3.4l1.2,0.05c3.333,7.3,7.483,15.55,12.45,24.75l13.7,24.6"
				/>
			<path class="st18" d="M144.08,219.781l-5.75-2c-2.233-0.7-4.2-1.067-5.9-1.1c-1.533-1.433-3.1-3.6-4.7-6.5
				c-2.1-3.767-3.467-6.083-4.1-6.95"/>
			<path class="st19" d="M156.88,210.481c0.333,0.9,0.383,1.933,0.15,3.1l-0.45,0.4l-0.35,0.85c-1.533,0.6-3.35,1.667-5.45,3.2
				l-5.15,3.65l-0.5-0.05l-0.6-0.85l-0.45-1"/>
			<path class="st20" d="M156.88,210.481l-6.4,4.65l-6.4,4.65"/>
			<path class="st18" d="M148.78,198.081c3.767-3.867,8.633-5.95,14.6-6.25c6.033-0.333,11.033,1.283,15,4.85
				c3.433-2.233,5.283-5.867,5.55-10.9c0.167-3.4-0.433-7.75-1.8-13.05"/>
			<path class="st17" d="M148.78,198.081c0.667,1.533,2.017,3.6,4.05,6.2c2.033,2.667,3.383,4.733,4.05,6.2"/>
			<path class="st21" d="M146.68,155.131c2.267-2.733,5.367-5.917,9.3-9.55l9.9-9.1"/>
			<path class="st16" d="M146.68,155.131c7.8-3.767,15.7-9.15,23.7-16.15"/>
			<path class="st17" d="M137.38,179.981l5.3,9.25c2.1,3.533,4.133,6.483,6.1,8.85"/>
			<path class="st22" d="M137.38,179.981c1.367-1.433,2.717-4.1,4.05-8c1.2-3.533,2.8-6.067,4.8-7.6
				c5.267-4.133,12.25-6.15,20.95-6.05l0.7,1.15"/>
			<path class="st23" d="M129.88,169.981c2.033-2.5,4.683-5.117,7.95-7.85l8.85-7"/>
			<path class="st17" d="M129.88,169.981c1.567,0.833,2.983,2.35,4.25,4.55l3.25,5.45"/>
			<path class="st24" d="M118.63,175.231l5.45-3.2c2.133-1.167,4.067-1.85,5.8-2.05"/>
			<path class="st24" d="M175.38,109.231c2.633-1.967,5.833-4.033,9.6-6.2l9.9-5.55"/>
			<path class="st19" d="M162.63,120.481c3.567-2.4,7.817-6.15,12.75-11.25"/>
			<path class="st25" d="M172.38,109.731l1.5-0.2l1.5-0.3"/>
			<path class="st17" d="M162.38,116.481c0.867-0.767,2.6-1.833,5.2-3.2c2.233-1.2,3.833-2.383,4.8-3.55"/>
			<path class="st19" d="M162.38,116.481c0.4,0.467,0.567,1.117,0.5,1.95l-0.25,2.05"/>
			<path class="st26" d="M147.38,130.981c-1.833,1.133-4.183,3.017-7.05,5.65l-6.95,5.85"/>
			<path class="st27" d="M147.38,130.981c0.367,0.267,0.617,0.767,0.75,1.5c0.167,0.8,0.383,1.333,0.65,1.6
				c1.233,0.167,2.033-0.467,2.4-1.9c0.233-1.8,0.517-3,0.85-3.6c1.167,0.533,1.933,2.183,2.3,4.95c0.467,3.267,1.033,5.367,1.7,6.3
				l0.6,0.3l1.15-0.3c0.533-1.667,0.8-4.45,0.8-8.35c0.033-3.633,0.4-6.35,1.1-8.15l0.65-0.1c0.833,0.667,1.483,0.85,1.95,0.55
				c0.5-0.733,0.617-1.833,0.35-3.3"/>
			<path class="st21" d="M191.23,80.131c5.167,0.867,10.967-0.933,17.4-5.4l7.9-6c3.167-2.5,5.717-4.3,7.65-5.4"/>
			<path class="st25" d="M191.23,80.131c-3.533,1.833-6.15,3.217-7.85,4.15c-3.067,1.7-4.767,3.883-5.1,6.55
				c-0.267,0.1-0.817,0.367-1.65,0.8l-1.65,0.6c-0.333,0.333-0.9,0.65-1.7,0.95c-0.833,0.333-1.4,0.633-1.7,0.9
				c-1.433,0.367-2.5,0.9-3.2,1.6v0.8c2.767,4.367,4.1,8.783,4,13.25"/>
			<path class="st24" d="M145.53,127.231l0.25-0.9c2.1-0.967,4.883-2.583,8.35-4.85c3.767-2.433,6.517-4.1,8.25-5"/>
			<path class="st27" d="M145.53,127.231c0.1,0.6,0.35,1.25,0.75,1.95l1.1,1.8"/>
			<path class="st20" d="M177.53,55.731c2.333,3.067,4.783,7.067,7.35,12l6.35,12.4"/>
			<path class="st28" d="M179.88,30.731l1.15-0.25c0.467,0,0.8-0.133,1-0.4l1.1-0.25c0.767,2.433,1.567,4.1,2.4,5l0.95,0.55
				c1.133,0.233,2.3,0,3.5-0.7l2.9-2.2"/>
			<path class="st19" d="M179.88,30.731c-0.167,1.9,0.267,4.35,1.3,7.35l2.6,7.3c0.767,2.633,0.783,4.7,0.05,6.2
				c-0.867,1.9-2.967,3.283-6.3,4.15"/>
			<path class="st29" d="M140.03,129.331c0.7,0.067,1.617-0.25,2.75-0.95c1.2-0.733,2.117-1.117,2.75-1.15"/>
			<path class="st24" d="M140.03,129.331l-3.25,2.95l-3.5,2.55"/>
			<path class="st30" d="M159.08,63.281l9.2-4c3.6-1.533,6.683-2.717,9.25-3.55"/>
			<path class="st20" d="M149.13,47.231c0.967,2.633,2.433,5.45,4.4,8.45c1.333,2.1,3.183,4.633,5.55,7.6"/>
			<path class="st19" d="M149.13,47.231l0.4-2.95c0.1-1.233,0.433-2.133,1-2.7l3.95-1.9c1.433-0.867,2.433-1.917,3-3.15
				c3.033,0.8,6.067,0.167,9.1-1.9c3.233-2.2,4.433-4.9,3.6-8.1c0.167-0.233,0.483-0.317,0.95-0.25c0.8,1.8,1.983,3.15,3.55,4.05
				c1.7,0.967,3.433,1.1,5.2,0.4"/>
			<path class="st31" d="M135.63,117.231c2.233,3.8,3.7,7.833,4.4,12.1"/>
			<path class="st19" d="M135.63,117.231l6.4-3.55c2.7-1.5,4.617-2.783,5.75-3.85c3.167-3,4.1-6.683,2.8-11.05
				c-0.867-2.967-3.183-7.1-6.95-12.4l0.6-1c1.567-0.8,4.133-2.017,7.7-3.65c3.1-1.533,5.417-2.967,6.95-4.3
				c4.333-3.8,4.4-8.517,0.2-14.15"/>
			<path class="st19" d="M100.88,108.981c1.867-1.267,5.217-3,10.05-5.2c3.633-2.333,4.833-5.4,3.6-9.2l2.25-2.05
				c0.6-0.9,0.717-1.9,0.35-3c-0.167-0.633-0.7-1.467-1.6-2.5c-0.833-1-1.317-1.8-1.45-2.4l0.7-0.3
				c2.267-0.967,3.783-2.483,4.55-4.55c0.7-1.867,0.683-3.85-0.05-5.95c-0.7-2.033-1.9-3.667-3.6-4.9
				c-1.867-1.333-3.917-1.867-6.15-1.6c-0.2-1.233-0.2-2.133,0-2.7c3.467,1.067,6.633,0.233,9.5-2.5c2.8-2.633,4.05-5.733,3.75-9.3
				c1.333,0.3,2.733,0.1,4.2-0.6l3.65-2.4l0.65,0.25c2,4,5.183,5.417,9.55,4.25c4.033-1.067,6.8-3.433,8.3-7.1"/>
			<path class="st31" d="M100.88,108.981c1.7,3.567,3.05,6.267,4.05,8.1c1.833,3.233,3.533,5.633,5.1,7.2
				c1.967,1.933,3.933,2.717,5.9,2.35c0.767-0.167,3.3-1.283,7.6-3.35l0.3-2.7c0.267-1,0.867-1.583,1.8-1.75
				c1.6,1.1,3.35,1.433,5.25,1c1.6-0.367,3.183-1.233,4.75-2.6"/>
			<path class="st30" d="M90.48,120.081l-2.5-4.2l-0.1-2.05l0.15-0.7c1.967-0.2,4.15-0.733,6.55-1.6l6.3-2.55"/>
			<path class="st30" d="M107.73,149.781c-3.867-2.533-7.267-6.967-10.2-13.3c-2.933-7.467-5.267-12.9-7-16.3"/>
			<path class="st32" d="M49.08,125.981c-0.2-2.567-0.25-5.583-0.15-9.05l0.45-8.95"/>
			<path class="st24" d="M49.08,125.981l6.8-4.1c2.533-1.633,4.633-3.2,6.3-4.7"/>
			<path class="st23" d="M64.03,136.031c-0.067-2.9,1.183-5.183,3.75-6.85c3.367-1.567,5.783-2.85,7.25-3.85"/>
			<path class="st23" d="M64.13,150.881c-0.7-4.267-0.733-9.217-0.1-14.85"/>
			<path class="st16" d="M64.13,150.881c4.067,2.6,9.017,5.217,14.85,7.85c6.667,3.033,11.883,4.867,15.65,5.5l0.3-1.2
				c0.3-1.933,0.017-4.667-0.85-8.2l-0.05-0.05l-1.15-4.75c-0.433-1.8-0.683-3.233-0.75-4.3"/>
			<path class="st26" d="M49.28,144.231c-0.367-7.8-0.433-13.883-0.2-18.25"/>
			<path class="st28" d="M49.28,144.231c1.1-0.5,3.533-2.033,7.3-4.6c2.933-2,5.417-3.2,7.45-3.6"/>
			<path class="st17" d="M49.23,155.781c2,0.233,4.483-0.6,7.45-2.5c2.933-1.867,5.417-2.667,7.45-2.4"/>
			<path class="st21" d="M49.23,155.781c-0.167-1.5-0.217-3.4-0.15-5.7l0.2-5.85"/>
			<path class="st19" d="M38.38,165.731c0.4-7.067,0.65-17.067,0.75-30c0.067-14.067,0.233-24.067,0.5-30v-0.5"/>
			<path class="st31" d="M38.38,165.731c1.033-0.733,2.767-2.433,5.2-5.1c2.133-2.333,4.017-3.95,5.65-4.85"/>
			<path class="st24" d="M30.88,148.481l-0.5,5.65c-0.1,2.167,0.017,3.983,0.35,5.45l0.2,0.65c1.033,3.4,3.517,5.233,7.45,5.5"/>
			<path class="st30" d="M19.88,116.481c9.033-6.4,17.333-13.3,24.9-20.7c8.567-8.4,15.367-16.683,20.4-24.85l0.45-0.7"/>
		</g>
		<g transform="matrix(1.0, 0.0, 0.0, 1.0, 0.0, -0.05)">
			<g id="shape0_1_" transform="matrix(1.0, 0.0, 0.0, 1.0, 0.0, 0.05)">
				<path class="st0" d="M192.63,32.231l2.4-0.3l-0.4,0.8c6.233,7.8,10.4,12.717,12.5,14.75c5.267,4.967,11.1,8.217,17.5,9.75
					c0.1,2.233,0.683,6.05,1.75,11.45c0.433,4.633-0.65,7.817-3.25,9.55c-0.167,0.8-0.433,4.2-0.8,10.2
					c-0.233,4.167-0.967,7.1-2.2,8.8c-1.1-0.033-1.85-0.767-2.25-2.2c-0.533-1.9-0.95-3-1.25-3.3l-2,9.95
					c-0.733,3.933-1.233,7.45-1.5,10.55l-0.55,0.75l0.55,0.75c-0.333,0.467-1.233,0.983-2.7,1.55c-1.3,0.467-2.067,1.117-2.3,1.95
					c6.067,0.767,10.667,2.25,13.8,4.45c3.867,2.733,5.933,6.75,6.2,12.05c0.267,4.567,0.083,8.917-0.55,13.05
					c-0.767,4.767-2.083,8.75-3.95,11.95c0.733,0.833,2,2.733,3.8,5.7c1.533,2.433,2.933,4.2,4.2,5.3
					c-0.2-1.9-1.183-4.383-2.95-7.45c-1.667-2.9-2.517-5.083-2.55-6.55l2.8,6.2c1.167,2.233,2.4,4,3.7,5.3
					c1.567-1.2,3.967-2.65,7.2-4.35c3.533-1.833,5.967-3.217,7.3-4.15l0.75,0.25l0.75-0.25c-0.133,1.667-0.65,3.1-1.55,4.3
					c-0.1-0.3,0.05-1.017,0.45-2.15c0.267-0.733-0.033-1.117-0.9-1.15c-0.567,0.667-1.8,1.45-3.7,2.35
					c-2.367,1-4.117,1.783-5.25,2.35c-4.367,2.133-6.05,4.4-5.05,6.8c1.733-1.167,4.067-2.517,7-4.05l7.2-3.8
					c-1.2,1.533-3.6,3.067-7.2,4.6c-3.767,1.6-6.267,3.017-7.5,4.25c-1.6-1.333-3.233-3.283-4.9-5.85l-4.1-6.65
					c-0.167,3.367-1.617,6.1-4.35,8.2c-2.5,1.933-5.55,3.017-9.15,3.25c-3.6,0.233-6.817-0.383-9.65-1.85
					c-3.1-1.633-5.05-4-5.85-7.1c-2.067,0.5-3.483,1.65-4.25,3.45c-0.733,1.733-0.817,3.917-0.25,6.55l-3.2-0.3l-3.3-0.2l-0.25,0.45
					l-0.25,0.55h-0.5v0.5c-0.667-1.867-1.833-3.2-3.5-4c-1.867,1.633-4.1,2.333-6.7,2.1c-2.367-0.233-4.45-1.1-6.25-2.6
					c-1.833-1.533-2.717-3.15-2.65-4.85c0.1-1.933,1.467-3.483,4.1-4.65l0.75,0.25l0.25-0.75c0.3,0.267,0.55,0.367,0.75,0.3
					l0.75-0.3c-0.3-3.833,0.85-6.9,3.45-9.2c2.167-1.933,4.85-3.033,8.05-3.3c0.533,0.533,0.7,1.7,0.5,3.5c-0.2,1.8-0.2,2.8,0,3
					c0.5-1,1.733-1.95,3.7-2.85c1.833-0.867,2.933-1.917,3.3-3.15c0.533-1.767,0.283-4.2-0.75-7.3l-2.25-7.2l-1.75,1.2
					c1.967-1.667,3.05-3.567,3.25-5.7c-1.933,1.833-4.6,3.917-8,6.25l-8.5,5.75l-0.25-0.75l-0.75,0.25c-1.4-1.1-2.567-1.767-3.5-2
					l-0.5-1.5l14.55-13l14.45-13v-6.05c-0.033-2.467,0.133-4.283,0.5-5.45l-0.25-0.75l0.25-0.75c3.633-1.067,6.433-3.55,8.4-7.45
					c2.067-4.1,1.767-7.45-0.9-10.05c1.467,0.4,2.367,1.65,2.7,3.75l0.3,5.25c1.967-1.667,5.033-3.767,9.2-6.3l9.3-6.2
					c0.667-1.533,0.767-3.633,0.3-6.3c-0.6-3.067-0.867-4.8-0.8-5.2l0.55-0.9l-1.05-0.1v-4.5c-6.5-1.933-12.367-5.4-17.6-10.4
					c-3.767-3.6-7.9-8.8-12.4-15.6L192.63,32.231 M195.63,98.231l-0.3,11.9c-0.167,4.567,0.1,8.267,0.8,11.1
					c0.3-0.433,0.817-0.767,1.55-1l1.95-0.5c0.067-9.767,0.733-17.6,2-23.5l-0.95,11.25c-0.467,4.567-0.65,8.483-0.55,11.75
					l3.1-0.65l3.4-0.35c-0.267-1.7,0.283-2.917,1.65-3.65l3.35-1.85c0.067-2.5,0.467-5.85,1.2-10.05c0.767-4.333,1.2-7.65,1.3-9.95
					l-2-0.25c-0.633-0.367-1.133-0.617-1.5-0.75l-0.95,9.75c-0.5,3.7-1.35,6.45-2.55,8.25c-1.233-0.967-1.967-3.233-2.2-6.8
					c-0.267-4.067-0.7-6.633-1.3-7.7l-1.8,0.05c-0.667-0.033-0.9-0.383-0.7-1.05c-1.533,0.733-2.567,1.267-3.1,1.6
					C196.93,96.531,196.13,97.331,195.63,98.231 M205.93,102.681c0.2,2.3,0.6,4.15,1.2,5.55c0.7-1.633,1.25-4.767,1.65-9.4
					c0.367-4.4,0.983-7.433,1.85-9.1c0.4,0.1,0.85,0.483,1.35,1.15c0.467,0.6,1.017,0.883,1.65,0.85l0.6-3.65
					c0.2-1.533,1-2.15,2.4-1.85l1.2,5.05c0.533,1.933,1.3,3.25,2.3,3.95l1.15-8.55c0.4-3.5,0.517-6.15,0.35-7.95
					c-1.367,1.2-4.85,3.617-10.45,7.25c-4.433,2.9-7.617,5.65-9.55,8.25l2.45,0.1l1.55,1.9
					C205.697,99.298,205.797,101.448,205.93,102.681 M209.88,122.781c-3.333-0.3-6.517-0.067-9.55,0.7
					c-3.233,0.833-5.5,2.067-6.8,3.7c-1.467,1.9-1.433,4.083,0.1,6.55c0.9-1.867,2.067-3.217,3.5-4.05
					c1.7-0.967,3.867-1.283,6.5-0.95l2.2,2c0.867,0.9,1.8,1.4,2.8,1.5c1.467-2.233,3.567-3.417,6.3-3.55
					c2.867-0.133,4.933,1.05,6.2,3.55c1.333-1.533,1.35-3.1,0.05-4.7c-1.233-1.5-2.583-2.1-4.05-1.8l0.65-0.15l0.35-0.35
					C216.097,123.898,213.347,123.081,209.88,122.781 M219.63,124.731c0.067-0.367,0.317-0.7,0.75-1c0.467-0.333,0.717-0.667,0.75-1
					c-3.067-1.3-5.35-2.133-6.85-2.5c-3-0.767-5.717-0.767-8.15,0c1.3,1,3.433,1.867,6.4,2.6
					C216.43,123.764,218.797,124.398,219.63,124.731 M223.13,129.731l-0.75,1.7c-0.4,0.7-0.65,1.3-0.75,1.8
					c0.467-0.033,0.917,0.083,1.35,0.35l1.15,0.65c1.267-1.967,1.567-4.083,0.9-6.35c-0.667-2.4-2.133-3.783-4.4-4.15
					c-0.967,0.9-0.917,1.9,0.15,3C222.247,128.298,223.03,129.298,223.13,129.731 M226.13,138.231l0.05-3.8
					c0.067-1.6-0.117-2.667-0.55-3.2c-1.667,2.967-2.167,7.633-1.5,14l1.2-3.65c0.4-1.467,0.333-2.75-0.2-3.85l0.55,0.2
					L226.13,138.231 M209.63,140.731v14c10.333-1,15-7,14-18c-0.767,0.1-2.8,0.85-6.1,2.25
					C214.53,140.214,211.897,140.798,209.63,140.731 M224.63,149.731c1.433-1.833,2.1-4.5,2-8c-1.133,4.233-3.917,7.75-8.35,10.55
					c-4.6,2.9-9.483,4.05-14.65,3.45c-2.9-0.367-5.65-1.35-8.25-2.95c-2.633-1.633-4.383-3.483-5.25-5.55
					c0.067,3.133,1.883,5.7,5.45,7.7c3.133,1.8,7.15,2.9,12.05,3.3l-4.15-0.05l-3.85-0.45c-1.467-0.4-3.233-1.517-5.3-3.35
					c-1.767-1.567-3-2.283-3.7-2.15c0.533,3.967,2.75,6.917,6.65,8.85c3.5,1.733,7.6,2.367,12.3,1.9
					c4.633-0.467,8.45-1.833,11.45-4.1c3.267-2.5,4.633-5.55,4.1-9.15l-0.2,0.3C224.763,150.064,224.663,149.964,224.63,149.731
					 M220.13,132.231c-1.767-2-4.267-2.833-7.5-2.5l-5.25,6.25l6.6-1.6C217.547,133.481,219.597,132.764,220.13,132.231
					 M216.23,135.781c-3.333,1.667-5.867,1.817-7.6,0.45h-1.5c-0.133,0.733,0.3,1.3,1.3,1.7c0.933,0.333,1.167,1.1,0.7,2.3
					c6.833-0.7,11.5-2.533,14-5.5C221.897,133.798,219.597,134.148,216.23,135.781 M193.13,113.231c-2.8,3.133-6.633,6.467-11.5,10
					c1.767,3.267,3.75,4.333,5.95,3.2l6.55-4.7c-0.067-0.367-0.017-1.983,0.15-4.85C194.38,114.814,193.997,113.598,193.13,113.231
					 M191.13,125.481c-1.1,0.833-1.883,2.117-2.35,3.85c-0.467,1.733-0.45,3.333,0.05,4.8c0.567,1.633,1.667,2.667,3.3,3.1
					c0-0.767,0.333-1.267,1-1.5c-1.3-1.9-1.783-3.867-1.45-5.9c0.367-2.1,1.517-3.633,3.45-4.6
					C193.697,124.464,192.363,124.548,191.13,125.481 M205.68,120.731l-0.05-1c-5.3,0.967-9.3,2.467-12,4.5
					c1.633,0.4,3.683,0.05,6.15-1.05c2.9-1.233,5.017-1.883,6.35-1.95C205.897,121.198,205.747,121.031,205.68,120.731
					 M182.58,126.281c-0.733-1.067-1.383-1.75-1.95-2.05l-7.15,6.05c-3.033,2.467-5.317,4.617-6.85,6.45
					c0.8-0.067,1.583,0.15,2.35,0.65c0.867,0.533,1.583,0.817,2.15,0.85c0.8-0.633,3.117-2.25,6.95-4.85
					c2.833-1.933,5.017-3.65,6.55-5.15C183.963,127.964,183.28,127.314,182.58,126.281 M182.18,153.531
					c-2.2,1.967-3.717,4.033-4.55,6.2c2.667,0.1,4.933,0.833,6.8,2.2c1.467,1.033,2.867,2.633,4.2,4.8c0.833-2.467,2.5-4.133,5-5
					c-0.333-1.3-1.35-3.367-3.05-6.2c-1.433-2.433-2.25-4.7-2.45-6.8C185.43,150.798,183.447,152.398,182.18,153.531
					 M172.58,152.131c-1.067,1.733-2.217,4.933-3.45,9.6c1,1.333,2.167,2.5,3.5,3.5c2.267-0.167,4.683,0.767,7.25,2.8
					c2.433,1.9,5.017,2.633,7.75,2.2c0.033-3.733-1.833-6.333-5.6-7.8c-3.367-1.367-6.667-1.433-9.9-0.2c5.7-2.9,8.533-7.9,8.5-15
					C177.097,147.531,174.413,149.164,172.58,152.131 M207.38,135.981l-0.3,0.15c-2.267-2.633-4.533-4.367-6.8-5.2
					c-3.067-1.133-4.95,0.133-5.65,3.8c1.367,0.9,3.283,1.517,5.75,1.85l6.75-0.35L207.38,135.981 M206.63,137.731
					c-5.533,0.2-9.867-0.467-13-2c-0.033,0.333-0.283,0.667-0.75,1c-0.433,0.3-0.683,0.633-0.75,1c3.767,2.2,8.6,3.2,14.5,3V137.731
					 M195.13,152.231c3.033,1.233,4.9,1.95,5.6,2.15c2.233,0.667,4.533,0.95,6.9,0.85l-0.05-7.2l-0.45-6.8
					c-9.1,0.333-15.267-1.667-18.5-6c0.6,2.133,1.2,5.233,1.8,9.3c0.7,3.3,1.933,5.533,3.7,6.7c-0.533-1.833-0.967-3.85-1.3-6.05
					c-0.367-2.567-0.433-4.55-0.2-5.95l0.9,6.9C193.863,148.864,194.397,150.898,195.13,152.231 M207.83,146.381
					c0.067,4.267,0.5,7.217,1.3,8.85l0.1-9.6c-0.033-3.733-0.567-6.033-1.6-6.9L207.83,146.381 M195.13,161.731
					c2.233,3.3,3.933,5.4,5.1,6.3c2.567,2.033,5.7,2.6,9.4,1.7v-5.5c-2.567,0.367-5.383,0.133-8.45-0.7L195.13,161.731
					 M169.93,167.081c-3.1-0.8-4.2-2.417-3.3-4.85c-0.333,2.2,0.817,3.717,3.45,4.55c2.633,0.867,4.483,0.517,5.55-1.05
					c-4.833,0.333-7.167-1.5-7-5.5c-0.667,0.2-1.217,0.533-1.65,1l-0.35-1c-1.9,1.433-2.717,2.983-2.45,4.65
					c0.233,1.5,1.2,2.8,2.9,3.9c1.667,1.067,3.433,1.6,5.3,1.6c2.067,0,3.65-0.717,4.75-2.15L169.93,167.081 M221.13,159.731
					c-2.3,2.033-5.967,3.533-11,4.5v5.5c2.833,0.633,5.367-0.35,7.6-2.95C219.53,164.681,220.663,162.331,221.13,159.731"/>
				<path class="st1" d="M234.18,134.381l13.7,24.6l-0.75-0.25c-1.333,0.933-3.767,2.317-7.3,4.15c-3.233,1.7-5.633,3.15-7.2,4.35
					c-1.3-1.3-2.533-3.067-3.7-5.3l-2.8-6.2c0.033,1.467,0.883,3.65,2.55,6.55c1.767,3.067,2.75,5.55,2.95,7.45
					c-1.267-1.1-2.667-2.867-4.2-5.3c-1.8-2.967-3.067-4.867-3.8-5.7c1.867-3.2,3.183-7.183,3.95-11.95
					c0.633-4.133,0.817-8.483,0.55-13.05c-0.267-5.3-2.333-9.317-6.2-12.05c-3.133-2.2-7.733-3.683-13.8-4.45
					c0.233-0.833,1-1.483,2.3-1.95c1.467-0.567,2.367-1.083,2.7-1.55l-0.55-0.75c3.133-0.733,5.783-1.867,7.95-3.4l1.2,0.05
					C225.063,116.931,229.213,125.181,234.18,134.381"/>
				<path class="st2" d="M247.13,163.231l-0.3,0.15l0.25-0.35L247.13,163.231"/>
				<path class="st0" d="M247.08,163.031l-0.25,0.35l-7.2,3.8c-2.933,1.533-5.267,2.883-7,4.05c-1-2.4,0.683-4.667,5.05-6.8
					c1.133-0.567,2.883-1.35,5.25-2.35c1.9-0.9,3.133-1.683,3.7-2.35c0.867,0.033,1.167,0.417,0.9,1.15
					C247.13,162.014,246.98,162.731,247.08,163.031"/>
				<path class="st0" d="M226.63,141.731c0.1,3.5-0.567,6.167-2,8c0.033,0.233,0.133,0.333,0.3,0.3l0.2-0.3
					c0.533,3.6-0.833,6.65-4.1,9.15c-3,2.267-6.817,3.633-11.45,4.1c-4.7,0.467-8.8-0.167-12.3-1.9
					c-3.9-1.933-6.117-4.883-6.65-8.85c0.7-0.133,1.933,0.583,3.7,2.15c2.067,1.833,3.833,2.95,5.3,3.35l3.85,0.45l4.15,0.05
					c-4.9-0.4-8.917-1.5-12.05-3.3c-3.567-2-5.383-4.567-5.45-7.7c0.867,2.067,2.617,3.917,5.25,5.55c2.6,1.6,5.35,2.583,8.25,2.95
					c5.167,0.6,10.05-0.55,14.65-3.45C222.713,149.481,225.497,145.964,226.63,141.731"/>
				<path class="st3" d="M225.63,131.231c0.433,0.533,0.617,1.6,0.55,3.2l-0.05,3.8l-0.45-0.3l-0.55-0.2
					c0.533,1.1,0.6,2.383,0.2,3.85l-1.2,3.65C223.463,138.864,223.963,134.198,225.63,131.231"/>
				<path class="st1" d="M220.63,123.731c2.267,0.367,3.733,1.75,4.4,4.15c0.667,2.267,0.367,4.383-0.9,6.35l-1.15-0.65
					c-0.433-0.267-0.883-0.383-1.35-0.35c0.1-0.5,0.35-1.1,0.75-1.8l0.75-1.7c-0.1-0.433-0.883-1.433-2.35-3
					C219.713,125.631,219.663,124.631,220.63,123.731"/>
				<path class="st4" d="M183.38,84.281c1.7-0.933,4.317-2.317,7.85-4.15c5.167,0.867,10.967-0.933,17.4-5.4l7.9-6
					c3.167-2.5,5.717-4.3,7.65-5.4l-0.55,0.9c-0.067,0.4,0.2,2.133,0.8,5.2c0.467,2.667,0.367,4.767-0.3,6.3l-9.3,6.2
					c-4.167,2.533-7.233,4.633-9.2,6.3l-0.3-5.25c-0.333-2.1-1.233-3.35-2.7-3.75c2.667,2.6,2.967,5.95,0.9,10.05
					c-1.967,3.9-4.767,6.383-8.4,7.45l-0.25,0.75l-9.9,5.55c-3.767,2.167-6.967,4.233-9.6,6.2l-1.5,0.3l-1.5,0.2
					c0.1-4.467-1.233-8.883-4-13.25v-0.8c0.7-0.7,1.767-1.233,3.2-1.6c0.3-0.267,0.867-0.567,1.7-0.9c0.8-0.3,1.367-0.617,1.7-0.95
					l1.65-0.6c0.833-0.433,1.383-0.7,1.65-0.8C178.613,88.164,180.313,85.981,183.38,84.281"/>
				<path class="st5" d="M181.03,30.481c0.467,0,0.8-0.133,1-0.4l1.1-0.25c0.767,2.433,1.567,4.1,2.4,5l0.95,0.55
					c1.133,0.233,2.3,0,3.5-0.7l2.9-2.2l0.25,0.25c4.5,6.8,8.633,12,12.4,15.6c5.233,5,11.1,8.467,17.6,10.4v4.5l1.05,0.1
					c-1.933,1.1-4.483,2.9-7.65,5.4l-7.9,6c-6.433,4.467-12.233,6.267-17.4,5.4l-6.35-12.4c-2.567-4.933-5.017-8.933-7.35-12
					c3.333-0.867,5.433-2.25,6.3-4.15c0.733-1.5,0.717-3.567-0.05-6.2l-2.6-7.3c-1.033-3-1.467-5.45-1.3-7.35L181.03,30.481"/>
				<path class="st3" d="M223.63,136.731c1,11-3.667,17-14,18v-14c2.267,0.067,4.9-0.517,7.9-1.75
					C220.83,137.581,222.863,136.831,223.63,136.731"/>
				<path class="st6" d="M201.63,94.231c1.933-2.6,5.117-5.35,9.55-8.25c5.6-3.633,9.083-6.05,10.45-7.25
					c0.167,1.8,0.05,4.45-0.35,7.95l-1.15,8.55c-1-0.7-1.767-2.017-2.3-3.95l-1.2-5.05c-1.4-0.3-2.2,0.317-2.4,1.85l-0.6,3.65
					c-0.633,0.033-1.183-0.25-1.65-0.85c-0.5-0.667-0.95-1.05-1.35-1.15c-0.867,1.667-1.483,4.7-1.85,9.1
					c-0.4,4.633-0.95,7.767-1.65,9.4c-0.6-1.4-1-3.25-1.2-5.55c-0.133-1.233-0.233-3.383-0.3-6.45l-1.55-1.9L201.63,94.231"/>
				<path class="st1" d="M223.13,134.731c-2.5,2.967-7.167,4.8-14,5.5c0.467-1.2,0.233-1.967-0.7-2.3c-1-0.4-1.433-0.967-1.3-1.7
					h1.5c1.733,1.367,4.267,1.217,7.6-0.45C219.597,134.148,221.897,133.798,223.13,134.731"/>
				<path class="st7" d="M217.13,125.731c1.467-0.3,2.817,0.3,4.05,1.8c1.3,1.6,1.283,3.167-0.05,4.7
					c-1.267-2.5-3.333-3.683-6.2-3.55c-2.733,0.133-4.833,1.317-6.3,3.55c-1-0.1-1.933-0.6-2.8-1.5l-2.2-2
					c-2.633-0.333-4.8-0.017-6.5,0.95c-1.433,0.833-2.6,2.183-3.5,4.05c-1.533-2.467-1.567-4.65-0.1-6.55
					c1.3-1.633,3.567-2.867,6.8-3.7c3.033-0.767,6.217-1,9.55-0.7c3.467,0.3,6.217,1.117,8.25,2.45l-0.35,0.35L217.13,125.731"/>
				<path class="st1" d="M221.13,122.731c-0.033,0.333-0.283,0.667-0.75,1c-0.433,0.3-0.683,0.633-0.75,1
					c-0.833-0.333-3.2-0.967-7.1-1.9c-2.967-0.733-5.1-1.6-6.4-2.6c2.433-0.767,5.15-0.767,8.15,0
					C215.78,120.598,218.063,121.431,221.13,122.731"/>
				<path class="st3" d="M210.13,164.231c5.033-0.967,8.7-2.467,11-4.5c-0.467,2.6-1.6,4.95-3.4,7.05
					c-2.233,2.6-4.767,3.583-7.6,2.95V164.231"/>
				<path class="st8" d="M213.98,134.381l-6.6,1.6l5.25-6.25c3.233-0.333,5.733,0.5,7.5,2.5
					C219.597,132.764,217.547,133.481,213.98,134.381"/>
				<path class="st3" d="M204.93,102.931c0.233,3.567,0.967,5.833,2.2,6.8c1.2-1.8,2.05-4.55,2.55-8.25l0.95-9.75
					c0.367,0.133,0.867,0.383,1.5,0.75l2,0.25c-0.1,2.3-0.533,5.617-1.3,9.95c-0.733,4.2-1.133,7.55-1.2,10.05l-3.35,1.85
					c-1.367,0.733-1.917,1.95-1.65,3.65l-3.4,0.35l-3.1,0.65c-0.1-3.267,0.083-7.183,0.55-11.75l0.95-11.25
					c-1.267,5.9-1.933,13.733-2,23.5l-1.95,0.5c-0.733,0.233-1.25,0.567-1.55,1c-0.7-2.833-0.967-6.533-0.8-11.1l0.3-11.9
					c0.5-0.9,1.3-1.7,2.4-2.4c0.533-0.333,1.567-0.867,3.1-1.6c-0.2,0.667,0.033,1.017,0.7,1.05l1.8-0.05
					C204.23,96.298,204.663,98.864,204.93,102.931"/>
				<path class="st3" d="M201.18,163.531c3.067,0.833,5.883,1.067,8.45,0.7v5.5c-3.7,0.9-6.833,0.333-9.4-1.7
					c-1.167-0.9-2.867-3-5.1-6.3L201.18,163.531"/>
				<path class="st0" d="M207.63,138.731c1.033,0.867,1.567,3.167,1.6,6.9l-0.1,9.6c-0.8-1.633-1.233-4.583-1.3-8.85L207.63,138.731
					"/>
				<path class="st3" d="M193.53,146.131l-0.9-6.9c-0.233,1.4-0.167,3.383,0.2,5.95c0.333,2.2,0.767,4.217,1.3,6.05
					c-1.767-1.167-3-3.4-3.7-6.7c-0.6-4.067-1.2-7.167-1.8-9.3c3.233,4.333,9.4,6.333,18.5,6l0.45,6.8l0.05,7.2
					c-2.367,0.1-4.667-0.183-6.9-0.85c-0.7-0.2-2.567-0.917-5.6-2.15C194.397,150.898,193.863,148.864,193.53,146.131"/>
				<path class="st8" d="M207.08,136.131l0.05,0.1l-6.75,0.35c-2.467-0.333-4.383-0.95-5.75-1.85c0.7-3.667,2.583-4.933,5.65-3.8
					C202.547,131.764,204.813,133.498,207.08,136.131"/>
				<path class="st1" d="M206.63,137.731v3c-5.9,0.2-10.733-0.8-14.5-3c0.067-0.367,0.317-0.7,0.75-1
					c0.467-0.333,0.717-0.667,0.75-1C196.763,137.264,201.097,137.931,206.63,137.731"/>
				<path class="st1" d="M205.63,119.731l0.05,1c0.067,0.3,0.217,0.467,0.45,0.5c-1.333,0.067-3.45,0.717-6.35,1.95
					c-2.467,1.1-4.517,1.45-6.15,1.05C196.33,122.198,200.33,120.698,205.63,119.731"/>
				<path class="st9" d="M194.68,23.231c0-3.1-1.183-5.1-3.55-6l-5,0.5c-0.633-0.433-1.483-1.35-2.55-2.75l-2.7-3.3
					c-2.367-2.367-4.783-2.517-7.25-0.45c-1.433-2.5-4.017-3.6-7.75-3.3c-3.7,0.333-6.117,1.767-7.25,4.3
					c-0.1,0.633-0.017,1.3,0.25,2c0.3,0.733,0.383,1.4,0.25,2l-5.5,0.45c-1.633,0.267-2.967-0.05-4-0.95
					c-3.133,0.4-5.383,1.917-6.75,4.55c-1.3,2.6-1.55,5.75-0.75,9.45c-1.533,0.5-3.117,1.233-4.75,2.2l-4.25,2.8
					c-4.533-0.133-7.5-0.1-8.9,0.1c-3.167,0.467-5.533,1.767-7.1,3.9c-0.333,0.467-0.7,1.5-1.1,3.1c-0.333,1.3-0.967,2.267-1.9,2.9
					c-3.333-1.133-6.35-1.233-9.05-0.3c-2.667,0.933-4.483,2.7-5.45,5.3c-1.5-1.233-3.583-1.683-6.25-1.35
					c-2.467,0.3-4.383,1.083-5.75,2.35c-0.3,0.5-0.567,1.4-0.8,2.7l-0.7,2.8c-6.8-2.033-10.65-3.117-11.55-3.25
					c-4.667-0.7-7.683,0.45-9.05,3.45c0.733-2.133,1.833-3.617,3.3-4.45c1.567-0.9,3.667-1.15,6.3-0.75
					c0.467,0.067,1.05,0.383,1.75,0.95c0.767,0.6,1.35,0.95,1.75,1.05l4.05,0.15c1.467,0,2.45,0.45,2.95,1.35
					c-0.767-3,0.483-5.3,3.75-6.9c3.2-1.533,6.283-1.567,9.25-0.1c1.367-2.367,3.2-4.2,5.5-5.5l5.2,0.05l4.3,0.45
					c1.033-2.767,2.167-4.9,3.4-6.4c1.667-2,3.7-3.2,6.1-3.6l5.05,0.15l4.95,0.35c0.833-0.5,1.9-1.45,3.2-2.85
					c1.267-1.133,2.7-1.683,4.3-1.65c-1.133-3.033-0.967-6.083,0.5-9.15c1.5-3.1,3.667-4.883,6.5-5.35
					c0.867-0.167,2.35,0.033,4.45,0.6l4.55-0.1c0.3-3.9,2.55-6.567,6.75-8c4.167-1.467,7.583-0.8,10.25,2c3.067-1,5.733-0.633,8,1.1
					c1.433,1.133,2.933,3.1,4.5,5.9c4.9-1.2,8.15,0.183,9.75,4.15c1.433,3.533,1.183,7.483-0.75,11.85l-0.4-0.5
					c-0.2-0.233-0.233-0.4-0.1-0.5L194.68,23.231"/>
				<path class="st10" d="M194.88,97.481l0.25,0.75c-0.367,1.167-0.533,2.983-0.5,5.45v6.05l-14.45,13l-14.55,13l0.25,0.75l-9.9,9.1
					c-3.933,3.633-7.033,6.817-9.3,9.55l-8.85,7c-3.267,2.733-5.917,5.35-7.95,7.85c-1.733,0.2-3.667,0.883-5.8,2.05l-5.45,3.2v-0.5
					c-1.033,0.067-1.7,0.4-2,1c-0.333-3.667-0.3-6.967,0.1-9.9c0.467-3.7,1.467-6.517,3-8.45l2.7-2.2l1.2-0.45
					c0.367,0.033,0.567,0.433,0.6,1.2c0,0.767,0.133,1.2,0.4,1.3c0.9-0.967,2.1-3.517,3.6-7.65c1.233-3.333,3.033-5.45,5.4-6.35
					l-0.25-0.75l6.95-5.85c2.867-2.633,5.217-4.517,7.05-5.65c0.367,0.267,0.617,0.767,0.75,1.5c0.167,0.8,0.383,1.333,0.65,1.6
					c1.233,0.167,2.033-0.467,2.4-1.9c0.233-1.8,0.517-3,0.85-3.6c1.167,0.533,1.933,2.183,2.3,4.95
					c0.467,3.267,1.033,5.367,1.7,6.3l0.6,0.3l1.15-0.3c0.533-1.667,0.8-4.45,0.8-8.35c0.033-3.633,0.4-6.35,1.1-8.15l0.65-0.1
					c0.833,0.667,1.483,0.85,1.95,0.55c0.5-0.733,0.617-1.833,0.35-3.3c3.567-2.4,7.817-6.15,12.75-11.25
					c2.633-1.967,5.833-4.033,9.6-6.2L194.88,97.481"/>
				<path class="st11" d="M194.63,30.731c-0.133,0.1-0.1,0.267,0.1,0.5l0.4,0.5l-0.1,0.2l-2.4,0.3l0.25,0.25l-2.9,2.2
					c-1.2,0.7-2.367,0.933-3.5,0.7l-0.95-0.55c-0.833-0.9-1.633-2.567-2.4-5l-1.1,0.25c-0.2,0.267-0.533,0.4-1,0.4l-1.15,0.25
					c-1.767,0.7-3.5,0.567-5.2-0.4c-1.567-0.9-2.75-2.25-3.55-4.05c-0.467-0.067-0.783,0.017-0.95,0.25c0.833,3.2-0.367,5.9-3.6,8.1
					c-3.033,2.067-6.067,2.7-9.1,1.9c-0.567,1.233-1.567,2.283-3,3.15l-3.95,1.9c-0.567,0.567-0.9,1.467-1,2.7l-0.4,2.95
					c-1.5,3.667-4.267,6.033-8.3,7.1c-4.367,1.167-7.55-0.25-9.55-4.25l-0.65-0.25l-3.65,2.4c-1.467,0.7-2.867,0.9-4.2,0.6
					c0.3,3.567-0.95,6.667-3.75,9.3c-2.867,2.733-6.033,3.567-9.5,2.5c-0.2,0.567-0.2,1.467,0,2.7c2.233-0.267,4.283,0.267,6.15,1.6
					c1.7,1.233,2.9,2.867,3.6,4.9c0.733,2.1,0.75,4.083,0.05,5.95c-0.767,2.067-2.283,3.583-4.55,4.55l-0.7,0.3
					c0.133,0.6,0.617,1.4,1.45,2.4c0.9,1.033,1.433,1.867,1.6,2.5c0.367,1.1,0.25,2.1-0.35,3l-2.25,2.05
					c1.233,3.8,0.033,6.867-3.6,9.2c-4.833,2.2-8.183,3.933-10.05,5.2l-6.3,2.55c-2.4,0.867-4.583,1.4-6.55,1.6l-0.15,0.7
					c-14.7-35.567-22.45-53.433-23.25-53.6c0.2-1.467,0.5-2.733,0.9-3.8c1.367-3,4.383-4.15,9.05-3.45
					c0.9,0.133,4.75,1.217,11.55,3.25l0.7-2.8c0.233-1.3,0.5-2.2,0.8-2.7c1.367-1.267,3.283-2.05,5.75-2.35
					c2.667-0.333,4.75,0.117,6.25,1.35c0.967-2.6,2.783-4.367,5.45-5.3c2.7-0.933,5.717-0.833,9.05,0.3
					c0.933-0.633,1.567-1.6,1.9-2.9c0.4-1.6,0.767-2.633,1.1-3.1c1.567-2.133,3.933-3.433,7.1-3.9c1.4-0.2,4.367-0.233,8.9-0.1
					l4.25-2.8c1.633-0.967,3.217-1.7,4.75-2.2c-0.8-3.7-0.55-6.85,0.75-9.45c1.367-2.633,3.617-4.15,6.75-4.55
					c1.033,0.9,2.367,1.217,4,0.95l5.5-0.45c0.133-0.6,0.05-1.267-0.25-2c-0.267-0.7-0.35-1.367-0.25-2
					c1.133-2.533,3.55-3.967,7.25-4.3c3.733-0.3,6.317,0.8,7.75,3.3c2.467-2.067,4.883-1.917,7.25,0.45l2.7,3.3
					c1.067,1.4,1.917,2.317,2.55,2.75l5-0.5c2.367,0.9,3.55,2.9,3.55,6L194.63,30.731"/>
				<path class="st0" d="M193.13,113.231c0.867,0.367,1.25,1.583,1.15,3.65c-0.167,2.867-0.217,4.483-0.15,4.85l-6.55,4.7
					c-2.2,1.133-4.183,0.067-5.95-3.2C186.497,119.698,190.33,116.364,193.13,113.231"/>
				<path class="st1" d="M192.13,137.231c-1.633-0.433-2.733-1.467-3.3-3.1c-0.5-1.467-0.517-3.067-0.05-4.8
					c0.467-1.733,1.25-3.017,2.35-3.85c1.233-0.933,2.567-1.017,4-0.25c-1.933,0.967-3.083,2.5-3.45,4.6
					c-0.333,2.033,0.15,4,1.45,5.9C192.463,135.964,192.13,136.464,192.13,137.231"/>
				<path class="st3" d="M188.13,148.731c0.2,2.1,1.017,4.367,2.45,6.8c1.7,2.833,2.717,4.9,3.05,6.2c-2.5,0.867-4.167,2.533-5,5
					c-1.333-2.167-2.733-3.767-4.2-4.8c-1.867-1.367-4.133-2.1-6.8-2.2c0.833-2.167,2.35-4.233,4.55-6.2
					C183.447,152.398,185.43,150.798,188.13,148.731"/>
				<path class="st3" d="M185.63,132.231l2.25,7.2c1.033,3.1,1.283,5.533,0.75,7.3c-0.367,1.233-1.467,2.283-3.3,3.15
					c-1.967,0.9-3.2,1.85-3.7,2.85c-0.2-0.2-0.2-1.2,0-3c0.2-1.8,0.033-2.967-0.5-3.5c-3.2,0.267-5.883,1.367-8.05,3.3
					c-2.6,2.3-3.75,5.367-3.45,9.2l-0.75,0.3c-0.2,0.067-0.45-0.033-0.75-0.3l-0.25,0.75l-0.7-1.15
					c-8.7-0.1-15.683,1.917-20.95,6.05c-2,1.533-3.6,4.067-4.8,7.6c-1.333,3.9-2.683,6.567-4.05,8l-3.25-5.45
					c-1.267-2.2-2.683-3.717-4.25-4.55c5.367-2.8,13.633-8.117,24.8-15.95l26.25-18.65l2.85-1.95h0.1L185.63,132.231"/>
				<path class="st12" d="M180.63,147.231c0.033,7.1-2.8,12.1-8.5,15c3.233-1.233,6.533-1.167,9.9,0.2
					c3.767,1.467,5.633,4.067,5.6,7.8c-2.733,0.433-5.317-0.3-7.75-2.2c-2.567-2.033-4.983-2.967-7.25-2.8
					c-1.333-1-2.5-2.167-3.5-3.5c1.233-4.667,2.383-7.867,3.45-9.6C174.413,149.164,177.097,147.531,180.63,147.231"/>
				<path class="st4" d="M171.58,94.081c-1.433,0.367-2.5,0.9-3.2,1.6v0.8c2.767,4.367,4.1,8.783,4,13.25
					c-0.967,1.167-2.567,2.35-4.8,3.55c-2.6,1.367-4.333,2.433-5.2,3.2c-1.733,0.9-4.483,2.567-8.25,5
					c-3.467,2.267-6.25,3.883-8.35,4.85l-0.25,0.9c-0.633,0.033-1.55,0.417-2.75,1.15c-1.133,0.7-2.05,1.017-2.75,0.95
					c-0.7-4.267-2.167-8.3-4.4-12.1l6.4-3.55c2.7-1.5,4.617-2.783,5.75-3.85c3.167-3,4.1-6.683,2.8-11.05
					c-0.867-2.967-3.183-7.1-6.95-12.4l0.6-1c1.567-0.8,4.133-2.017,7.7-3.65c3.1-1.533,5.417-2.967,6.95-4.3
					c4.333-3.8,4.4-8.517,0.2-14.15l9.2-4c3.6-1.533,6.683-2.717,9.25-3.55c2.333,3.067,4.783,7.067,7.35,12l6.35,12.4
					c-3.533,1.833-6.15,3.217-7.85,4.15c-3.067,1.7-4.767,3.883-5.1,6.55c-0.267,0.1-0.817,0.367-1.65,0.8l-1.65,0.6
					c-0.333,0.333-0.9,0.65-1.7,0.95C172.447,93.514,171.88,93.814,171.58,94.081"/>
				<path class="st0" d="M187.13,127.731c-0.2,2.133-1.283,4.033-3.25,5.7h-0.1l-2.85,1.95l-3.15,1.85l-3.15,2l-22.25,15.8
					c-10.433,7.3-17.933,12.283-22.5,14.95c2.033-2.5,4.683-5.117,7.95-7.85l8.85-7c7.8-3.767,15.7-9.15,23.7-16.15l0.25,0.75
					l8.5-5.75C182.53,131.648,185.197,129.564,187.13,127.731"/>
				<path class="st0" d="M180.63,124.231c0.567,0.3,1.217,0.983,1.95,2.05c0.7,1.033,1.383,1.683,2.05,1.95
					c-1.533,1.5-3.717,3.217-6.55,5.15c-3.833,2.6-6.15,4.217-6.95,4.85c-0.567-0.033-1.283-0.317-2.15-0.85
					c-0.767-0.5-1.55-0.717-2.35-0.65c1.533-1.833,3.817-3.983,6.85-6.45L180.63,124.231"/>
				<path class="st12" d="M182.13,172.731c1.367,5.3,1.967,9.65,1.8,13.05c-0.267,5.033-2.117,8.667-5.55,10.9
					c-3.967-3.567-8.967-5.183-15-4.85c-5.967,0.3-10.833,2.383-14.6,6.25c-1.967-2.367-4-5.317-6.1-8.85l-5.3-9.25
					c1.367-1.433,2.717-4.1,4.05-8c1.2-3.533,2.8-6.067,4.8-7.6c5.267-4.133,12.25-6.15,20.95-6.05l0.7,1.15l-0.75-0.25
					c-2.633,1.167-4,2.717-4.1,4.65c-0.067,1.7,0.817,3.317,2.65,4.85c1.8,1.5,3.883,2.367,6.25,2.6c2.6,0.233,4.833-0.467,6.7-2.1
					c1.667,0.8,2.833,2.133,3.5,4V172.731"/>
				<path class="st5" d="M179.88,30.731c-0.167,1.9,0.267,4.35,1.3,7.35l2.6,7.3c0.767,2.633,0.783,4.7,0.05,6.2
					c-0.867,1.9-2.967,3.283-6.3,4.15c-2.567,0.833-5.65,2.017-9.25,3.55l-9.2,4c-2.367-2.967-4.217-5.5-5.55-7.6
					c-1.967-3-3.433-5.817-4.4-8.45l0.4-2.95c0.1-1.233,0.433-2.133,1-2.7l3.95-1.9c1.433-0.867,2.433-1.917,3-3.15
					c3.033,0.8,6.067,0.167,9.1-1.9c3.233-2.2,4.433-4.9,3.6-8.1c0.167-0.233,0.483-0.317,0.95-0.25c0.8,1.8,1.983,3.15,3.55,4.05
					C176.38,31.298,178.113,31.431,179.88,30.731"/>
				<path class="st2" d="M180.93,135.381l-26.25,18.65c-11.167,7.833-19.433,13.15-24.8,15.95c4.567-2.667,12.067-7.65,22.5-14.95
					l22.25-15.8l3.15-2L180.93,135.381"/>
				<path class="st13" d="M172.38,170.381c-1.867,0-3.633-0.533-5.3-1.6c-1.7-1.1-2.667-2.4-2.9-3.9
					c-0.267-1.667,0.55-3.217,2.45-4.65l0.35,1c0.433-0.467,0.983-0.8,1.65-1c-0.167,4,2.167,5.833,7,5.5
					c-1.067,1.567-2.917,1.917-5.55,1.05c-2.633-0.833-3.783-2.35-3.45-4.55c-0.9,2.433,0.2,4.05,3.3,4.85l7.2,1.15
					C176.03,169.664,174.447,170.381,172.38,170.381"/>
				<path class="st0" d="M175.38,109.231c-4.933,5.1-9.183,8.85-12.75,11.25l0.25-2.05c0.067-0.833-0.1-1.483-0.5-1.95
					c0.867-0.767,2.6-1.833,5.2-3.2c2.233-1.2,3.833-2.383,4.8-3.55l1.5-0.2L175.38,109.231"/>
				<path class="st0" d="M170.38,138.981c-8,7-15.9,12.383-23.7,16.15c2.267-2.733,5.367-5.917,9.3-9.55l9.9-9.1l0.25,0.75
					c0.933,0.233,2.1,0.9,3.5,2L170.38,138.981"/>
				<path class="st6" d="M162.63,120.481c0.267,1.467,0.15,2.567-0.35,3.3c-0.467,0.3-1.117,0.117-1.95-0.55l-0.65,0.1
					c-0.7,1.8-1.067,4.517-1.1,8.15c0,3.9-0.267,6.683-0.8,8.35l-1.15,0.3l-0.6-0.3c-0.667-0.933-1.233-3.033-1.7-6.3
					c-0.367-2.767-1.133-4.417-2.3-4.95c-0.333,0.6-0.617,1.8-0.85,3.6c-0.367,1.433-1.167,2.067-2.4,1.9
					c-0.267-0.267-0.483-0.8-0.65-1.6c-0.133-0.733-0.383-1.233-0.75-1.5l-1.1-1.8c-0.4-0.7-0.65-1.35-0.75-1.95l0.25-0.9
					c2.1-0.967,4.883-2.583,8.35-4.85c3.767-2.433,6.517-4.1,8.25-5c0.4,0.467,0.567,1.117,0.5,1.95L162.63,120.481"/>
				<path class="st5" d="M149.13,47.231c0.967,2.633,2.433,5.45,4.4,8.45c1.333,2.1,3.183,4.633,5.55,7.6
					c4.2,5.633,4.133,10.35-0.2,14.15c-1.533,1.333-3.85,2.767-6.95,4.3c-3.567,1.633-6.133,2.85-7.7,3.65l-0.6,1
					c3.767,5.3,6.083,9.433,6.95,12.4c1.3,4.367,0.367,8.05-2.8,11.05c-1.133,1.067-3.05,2.35-5.75,3.85l-6.4,3.55
					c-1.567,1.367-3.15,2.233-4.75,2.6c-1.9,0.433-3.65,0.1-5.25-1c-0.933,0.167-1.533,0.75-1.8,1.75l-0.3,2.7
					c-4.3,2.067-6.833,3.183-7.6,3.35c-1.967,0.367-3.933-0.417-5.9-2.35c-1.567-1.567-3.267-3.967-5.1-7.2
					c-1-1.833-2.35-4.533-4.05-8.1c1.867-1.267,5.217-3,10.05-5.2c3.633-2.333,4.833-5.4,3.6-9.2l2.25-2.05
					c0.6-0.9,0.717-1.9,0.35-3c-0.167-0.633-0.7-1.467-1.6-2.5c-0.833-1-1.317-1.8-1.45-2.4l0.7-0.3
					c2.267-0.967,3.783-2.483,4.55-4.55c0.7-1.867,0.683-3.85-0.05-5.95c-0.7-2.033-1.9-3.667-3.6-4.9
					c-1.867-1.333-3.917-1.867-6.15-1.6c-0.2-1.233-0.2-2.133,0-2.7c3.467,1.067,6.633,0.233,9.5-2.5c2.8-2.633,4.05-5.733,3.75-9.3
					c1.333,0.3,2.733,0.1,4.2-0.6l3.65-2.4l0.65,0.25c2,4,5.183,5.417,9.55,4.25C144.863,53.264,147.63,50.898,149.13,47.231"/>
				<path class="st0" d="M156.88,210.481c0.333,0.9,0.383,1.933,0.15,3.1l-0.45,0.4l-0.35,0.85c-1.533,0.6-3.35,1.667-5.45,3.2
					l-5.15,3.65l-0.5-0.05l-0.6-0.85l-0.45-1l6.4-4.65L156.88,210.481"/>
				<path class="st10" d="M124.08,172.031c2.133-1.167,4.067-1.85,5.8-2.05c1.567,0.833,2.983,2.35,4.25,4.55l3.25,5.45l5.3,9.25
					c2.1,3.533,4.133,6.483,6.1,8.85c0.667,1.533,2.017,3.6,4.05,6.2c2.033,2.667,3.383,4.733,4.05,6.2l-6.4,4.65l-6.4,4.65l-5.75-2
					c-2.233-0.7-4.2-1.067-5.9-1.1c-1.533-1.433-3.1-3.6-4.7-6.5c-2.1-3.767-3.467-6.083-4.1-6.95h0.5c-0.633-1.7-1.6-3.567-2.9-5.6
					l-3.35-5.15c-2.6-4.267-3.85-8.683-3.75-13.25c0.433-0.6,1.267-1.267,2.5-2l2.5-2h-0.5L124.08,172.031"/>
				<path class="st0" d="M145.53,127.231c0.1,0.6,0.35,1.25,0.75,1.95l1.1,1.8c-1.833,1.133-4.183,3.017-7.05,5.65l-6.95,5.85
					l-0.25-0.75l0.65-3.35l0.35-3.65l-0.85,0.1l3.5-2.55l3.25-2.95c0.7,0.067,1.617-0.25,2.75-0.95
					C143.98,127.648,144.897,127.264,145.53,127.231"/>
				<path class="st4" d="M88.03,113.131c1.967-0.2,4.15-0.733,6.55-1.6l6.3-2.55c1.7,3.567,3.05,6.267,4.05,8.1
					c1.833,3.233,3.533,5.633,5.1,7.2c1.967,1.933,3.933,2.717,5.9,2.35c0.767-0.167,3.3-1.283,7.6-3.35l0.3-2.7
					c0.267-1,0.867-1.583,1.8-1.75c1.6,1.1,3.35,1.433,5.25,1c1.6-0.367,3.183-1.233,4.75-2.6c2.233,3.8,3.7,7.833,4.4,12.1
					l-3.25,2.95l-3.5,2.55l-0.65-0.6l-25,15l0.1,0.55c-3.867-2.533-7.267-6.967-10.2-13.3c-2.933-7.467-5.267-12.9-7-16.3l-0.05-0.1
					l-2.6-6.25L88.03,113.131"/>
				<path class="st2" d="M133.28,134.831l0.85-0.1l-0.35,3.65l-0.65,3.35l0.5,1.5c-2.367,0.9-4.167,3.017-5.4,6.35
					c-1.5,4.133-2.7,6.683-3.6,7.65c-0.267-0.1-0.4-0.533-0.4-1.3c-0.033-0.767-0.233-1.167-0.6-1.2l-1.2,0.45
					c1.033-1.2,1.267-2.517,0.7-3.95c-0.233,0.467-1.533,1.483-3.9,3.05c-1.7,1.167-2.4,2.817-2.1,4.95l2.6-1.85
					c-1.533,1.933-2.533,4.75-3,8.45c-0.4,2.933-0.433,6.233-0.1,9.9c0.3-0.6,0.967-0.933,2-1v0.5h0.5l-2.5,2
					c-1.233,0.733-2.067,1.4-2.5,2c-0.1,4.567,1.15,8.983,3.75,13.25l3.35,5.15c1.3,2.033,2.267,3.9,2.9,5.6h-0.5v0.5
					c-0.6-0.4-1.267-1.233-2-2.5c-0.7-1.267-1.367-2.1-2-2.5c-1.333,1.033-3.533,2.4-6.6,4.1c-2.633,1.667-4.433,3.467-5.4,5.4
					l-6.15-6c-2.9-2.633-5.683-4.3-8.35-5c0.167-0.367,0.4-0.483,0.7-0.35l0.8,0.35l0.6-17c0.133-6.667,0.033-12.4-0.3-17.2
					c0.3-1.933,0.017-4.667-0.85-8.2l-0.05-0.05c-0.433-3.1-1.067-6.117-1.9-9.05h-0.05l-0.45-1.55c0.033-1.133-0.067-2.467-0.3-4
					c1.733,3.3,3.5,6.317,5.3,9.05c-0.133,0.4-0.083,0.833,0.15,1.3l1.35,2.2c2.133,0.267,3.967,0.1,5.5-0.5
					c1.267-0.5,2.433-1.333,3.5-2.5l0.6,0.05l-0.1-0.55l25-15L133.28,134.831 M129.13,141.731l-0.5,2.1c-0.167,0.967,0,1.6,0.5,1.9
					l1.9-1.6l1.6-1.9l-1.9-0.1L129.13,141.731 M132.63,141.231c-0.133-0.533,0-1.533,0.4-3c0.3-1.133,0.167-1.967-0.4-2.5
					c-2.8,1.967-6.4,4.2-10.8,6.7l-11.2,6.3l0.8,4.45c0.3,1.8,1.033,2.817,2.2,3.05l0.35-4.95c0.233-1.8,0.783-2.983,1.65-3.55
					c0.267,0.9,0.767,1.067,1.5,0.5c-0.033,1.267,0.05,2.183,0.25,2.75c0.3,0.8,0.883,1.217,1.75,1.25
					c0.567-0.467,0.933-1.95,1.1-4.45c0.133-2.2,0.767-3.383,1.9-3.55c1.3,1.133,2.05,2.783,2.25,4.95l0.25,6.55
					c1.267-0.933,2.083-3.483,2.45-7.65c0.3-4.067,1.15-6.517,2.55-7.35l1.4,0.35L132.63,141.231 M94.63,149.731
					c2.467,14.933,3.133,30.933,2,48c1.733,0.433,3.833,1.967,6.3,4.6c2.3,2.467,4.2,3.767,5.7,3.9c1.2-2.7,3.533-4.533,7-5.5
					c0.4-2.3,0.333-4.733-0.2-7.3l-1.7-6.25c-1.367-4.767-0.9-8.583,1.4-11.45c-0.033-1.833,0.1-6.6,0.4-14.3
					c0.233-5.6,0.1-9.833-0.4-12.7c-0.2,0.567-0.333,2.083-0.4,4.55c-0.033,2.033-0.4,3.35-1.1,3.95c-1.4-0.2-2.333-1.25-2.8-3.15
					c-0.367-2.333-0.767-3.95-1.2-4.85c-2.067,2.633-4.65,4.217-7.75,4.75C98.347,154.548,95.93,153.131,94.63,149.731
					 M121.63,145.231l-0.7,3.4c-0.233,1.533-0.167,2.567,0.2,3.1c0.067-0.433,0.333-0.75,0.8-0.95l1.2-0.55l-0.1-3.15
					C122.83,146.081,122.363,145.464,121.63,145.231 M117.13,197.031c0,1.067,0.333,1.633,1,1.7l0.2-0.8
					c0.167-0.233,0.433-0.3,0.8-0.2c-0.467-1.9-1.133-3.067-2-3.5V197.031"/>
				<path class="st6" d="M129.63,140.731c-1.4,0.833-2.25,3.283-2.55,7.35c-0.367,4.167-1.183,6.717-2.45,7.65l-0.25-6.55
					c-0.2-2.167-0.95-3.817-2.25-4.95c-1.133,0.167-1.767,1.35-1.9,3.55c-0.167,2.5-0.533,3.983-1.1,4.45
					c-0.867-0.033-1.45-0.45-1.75-1.25c-0.2-0.567-0.283-1.483-0.25-2.75c-0.733,0.567-1.233,0.4-1.5-0.5
					c-0.867,0.567-1.417,1.75-1.65,3.55l-0.35,4.95c-1.167-0.233-1.9-1.25-2.2-3.05l-0.8-4.45l11.2-6.3c4.4-2.5,8-4.733,10.8-6.7
					c0.567,0.533,0.7,1.367,0.4,2.5c-0.4,1.467-0.533,2.467-0.4,3l-1.6-0.15L129.63,140.731"/>
				<path class="st0" d="M123.13,151.231c0.567,1.433,0.333,2.75-0.7,3.95c-1.033,0.5-1.933,1.233-2.7,2.2l-2.6,1.85
					c-0.3-2.133,0.4-3.783,2.1-4.95C121.597,152.714,122.897,151.698,123.13,151.231"/>
				<path class="st0" d="M121.63,145.231c0.733,0.233,1.2,0.85,1.4,1.85l0.1,3.15l-1.2,0.55c-0.467,0.2-0.733,0.517-0.8,0.95
					c-0.367-0.533-0.433-1.567-0.2-3.1L121.63,145.231"/>
				<path class="st0" d="M119.13,197.731c-0.367-0.1-0.633-0.033-0.8,0.2l-0.2,0.8c-0.667-0.067-1-0.633-1-1.7v-2.8
					C117.997,194.664,118.663,195.831,119.13,197.731"/>
				<path class="st3" d="M115.13,148.731c0.5,2.867,0.633,7.1,0.4,12.7c-0.3,7.7-0.433,12.467-0.4,14.3
					c-2.3,2.867-2.767,6.683-1.4,11.45l1.7,6.25c0.533,2.567,0.6,5,0.2,7.3c-3.467,0.967-5.8,2.8-7,5.5
					c-1.5-0.133-3.4-1.433-5.7-3.9c-2.467-2.633-4.567-4.167-6.3-4.6c1.133-17.067,0.467-33.067-2-48c1.3,3.4,3.717,4.817,7.25,4.25
					c3.1-0.533,5.683-2.117,7.75-4.75c0.433,0.9,0.833,2.517,1.2,4.85c0.467,1.9,1.4,2.95,2.8,3.15c0.7-0.6,1.067-1.917,1.1-3.95
					C114.797,150.814,114.93,149.298,115.13,148.731 M106.23,157.181c0.267-2.3,0.233-2.95-0.1-1.95c-0.8,2.533-1.067,5.667-0.8,9.4
					l0.8,11.1c0.1,3.2,0.033,8.633-0.2,16.3c0.067,6.6,0.8,11.167,2.2,13.7c-0.9-4.567-1.5-9.5-1.8-14.8
					c-0.3-5.667-0.2-10.9,0.3-15.7c-0.867-3.7-1.2-7.867-1-12.5L106.23,157.181"/>
				<path class="st10" d="M76.13,90.781c8.733,19.967,13.533,29.767,14.4,29.4c1.733,3.4,4.067,8.833,7,16.3
					c2.933,6.333,6.333,10.767,10.2,13.3l-0.6-0.05c-1.067,1.167-2.233,2-3.5,2.5c-1.533,0.6-3.367,0.767-5.5,0.5l-1.35-2.2
					c-0.233-0.467-0.283-0.9-0.15-1.3c-1.8-2.733-3.567-5.75-5.3-9.05c-0.433-2.3-0.883-3.183-1.35-2.65
					c-4.033-8.1-8.367-18.967-13-32.6l-11.35-34.7l-0.45,0.7c-5.033,8.167-11.833,16.45-20.4,24.85
					c-7.567,7.4-15.867,14.3-24.9,20.7l0.25-0.75c-0.967-0.267-1.75-1.05-2.35-2.35l-1.65-3.15
					c10.733-7.633,19.367-14.767,25.9-21.4c8.467-8.567,15-17.767,19.6-27.6C62.563,60.964,67.397,70.814,76.13,90.781"/>
				<path class="st2" d="M106.13,155.231c0.333-1,0.367-0.35,0.1,1.95l-0.6,5.55c-0.2,4.633,0.133,8.8,1,12.5
					c-0.5,4.8-0.6,10.033-0.3,15.7c0.3,5.3,0.9,10.233,1.8,14.8c-1.4-2.533-2.133-7.1-2.2-13.7c0.233-7.667,0.3-13.1,0.2-16.3
					l-0.8-11.1C105.063,160.898,105.33,157.764,106.13,155.231"/>
				<path class="st2" d="M94.08,154.831c0.867,3.533,1.15,6.267,0.85,8.2L94.08,154.831"/>
				<path class="st13" d="M75.13,126.231c6.333,1.867,11.117,6.1,14.35,12.7l2.15,5.25l-0.2,1.65l0.65-0.1h0.05
					c0.067,1.067,0.317,2.5,0.75,4.3l1.15,4.75l0.05,0.05l0.85,8.2l-0.3,1.2c-3.767-0.633-8.983-2.467-15.65-5.5
					c-5.833-2.633-10.783-5.25-14.85-7.85c-0.7-4.267-0.733-9.217-0.1-14.85c-0.067-2.9,1.183-5.183,3.75-6.85
					c3.367-1.567,5.783-2.85,7.25-3.85L75.13,126.231 M91.43,145.831l-2.8,0.4C90.097,147.631,91.03,147.498,91.43,145.831"/>
				<path class="st13" d="M92.08,145.731l-0.65,0.1l0.2-1.65L92.08,145.731"/>
				<path class="st2" d="M91.33,140.181c0.233,1.533,0.333,2.867,0.3,4l-2.15-5.25l0.5-1.4L91.33,140.181"/>
				<path class="st0" d="M43.13,103.731c5.7,2.967,12.8,7.367,21.3,13.2l20.7,13.8c-0.3-1.533-1.033-3.467-2.2-5.8
					c-1.2-2.4-1.967-4.3-2.3-5.7l-30.5-23.5c-0.467,0.867-1.75,2.083-3.85,3.65C44.513,100.714,43.463,102.164,43.13,103.731
					 M62.38,60.481l2.25-0.25c0.8,0.167,8.55,18.033,23.25,53.6l0.1,2.05l2.5,4.2l0.05,0.1c-0.867,0.367-5.667-9.433-14.4-29.4
					s-13.567-29.817-14.5-29.55c-4.6,9.833-11.133,19.033-19.6,27.6c-6.533,6.633-15.167,13.767-25.9,21.4l1.65,3.15
					c0.6,1.3,1.383,2.083,2.35,2.35l-0.25,0.75l0.75-0.25c1.133,0.433,2.667,0.25,4.6-0.55c2.333-0.967,3.967-1.45,4.9-1.45
					l0.45-1.8l0.55-1.7c7.433-5.133,13.967-10.567,19.6-16.3c5.867-5.967,11-12.533,15.4-19.7c0.133-0.533,0-1.217-0.4-2.05
					c-0.4-0.867-0.583-1.45-0.55-1.75l0.45-0.7l11.35,34.7c4.633,13.633,8.967,24.5,13,32.6l-0.5,1.4
					c-3.233-6.6-8.017-10.833-14.35-12.7l-0.1-0.9l-0.9-0.1l-3.65-2.15l-3.35-2.35c-1.467,0.667-4.267,2.317-8.4,4.95
					c-3.467,2.2-6.167,3.55-8.1,4.05c1.633-0.767,4.1-2.317,7.4-4.65c3-2.133,5.533-3.583,7.6-4.35c0.133-0.7-0.133-1.183-0.8-1.45
					c-0.767-0.3-1.167-0.65-1.2-1.05h-1.5l0.05-1.05l-1.05,0.05c-1.433-1.4-3.267-2.883-5.5-4.45l-6-4.05l-0.25-0.75l-0.75-0.25
					c-0.667-0.033-2.2-0.917-4.6-2.65c-1.733-1.267-3.033-1.217-3.9,0.15h-0.5v0.5l-4.35,2.85c-2.067,1.467-3.283,2.85-3.65,4.15
					c-0.967,3.433-1.067,9.133-0.3,17.1c0.867,8.633,0.967,14.933,0.3,18.9l-0.75-0.25l-0.75,0.25
					c-2.133,1.333-4.017,2.367-5.65,3.1c-2.2,0.933-4.483,1.567-6.85,1.9c0.267,1.333,2.1,2.517,5.5,3.55l7.6,2.3l0.2,0.65
					c-1.933-0.067-5.067-1.017-9.4-2.85l-8.9-3.65c0.133,1.033-0.4,1.333-1.6,0.9l-3.9,0.1c0.133-0.567,0.617-0.917,1.45-1.05
					l2.05-0.45c-0.233-0.3-0.367-1.083-0.4-2.35c-0.033-1.167-0.233-1.883-0.6-2.15c1.833-1.9,5.317-4.933,10.45-9.1
					c4.567-3.7,7.917-6.833,10.05-9.4v-14.5c-3.8,2.033-7.2,2.55-10.2,1.55c-3.4-1.133-5-3.983-4.8-8.55
					c10.267-6.9,18.75-13.717,25.45-20.45c8.733-8.7,15.25-17.883,19.55-27.55L62.38,60.481 M51.63,95.231
					c0.067,1.333,1.85,3.2,5.35,5.6l8.15,5.4c2,1.5,4.7,3.65,8.1,6.45c2.733,2.167,4.867,3.517,6.4,4.05l-13.9-10.85
					C60.163,101.481,55.463,97.931,51.63,95.231c3.833,2,8.433,5.15,13.8,9.45c6.467,5.167,10.867,8.517,13.2,10.05
					c-0.8-3.2-2.017-7.233-3.65-12.1l-3.85-11.9l-7.15-1.05l-7.35-0.95c-0.333,0.7-1.35,1.75-3.05,3.15
					C52.213,93.014,51.563,94.131,51.63,95.231 M57.63,88.231c6.6,0.8,10.933,1.467,13,2c-1.1-1.1-3.217-1.883-6.35-2.35
					C61.113,87.381,58.897,87.498,57.63,88.231 M58.63,86.731l11,1.5l-1.4-6.85c-0.6-2.467-1.3-4.517-2.1-6.15
					c-0.467,1.933-1.6,3.967-3.4,6.1C60.497,83.998,59.13,85.798,58.63,86.731 M12.13,153.231c3.567-0.4,6.933-2.05,10.1-4.95
					l7.9-7.05l0.1-4.35c0.067-1.8-0.133-3.017-0.6-3.65l-8.8,7.95l-9.2,7.55c-0.1,0.733-0.05,1.533,0.15,2.4L12.13,153.231
					 M16.13,153.731c4.333-0.933,9-2.767,14-5.5v-5.5c-2,1.033-4.383,2.8-7.15,5.3L16.13,153.731"/>
				<path class="st10" d="M46.28,99.381c2.1-1.567,3.383-2.783,3.85-3.65l30.5,23.5c0.333,1.4,1.1,3.3,2.3,5.7
					c1.167,2.333,1.9,4.267,2.2,5.8l-20.7-13.8c-8.5-5.833-15.6-10.233-21.3-13.2C43.463,102.164,44.513,100.714,46.28,99.381"/>
				<path class="st10" d="M71.13,90.731l3.85,11.9c1.633,4.867,2.85,8.9,3.65,12.1c-2.333-1.533-6.733-4.883-13.2-10.05
					c-5.367-4.3-9.967-7.45-13.8-9.45c-0.067-1.1,0.583-2.217,1.95-3.35c1.7-1.4,2.717-2.45,3.05-3.15l7.35,0.95L71.13,90.731"/>
				<path class="st0" d="M74.13,125.231l0.9,0.1c-1.467,1-3.883,2.283-7.25,3.85c-2.567,1.667-3.817,3.95-3.75,6.85
					c-2.033,0.4-4.517,1.6-7.45,3.6c-3.767,2.567-6.2,4.1-7.3,4.6c-0.367-7.8-0.433-13.883-0.2-18.25l6.8-4.1
					c2.533-1.633,4.633-3.2,6.3-4.7l-0.05,1.05h1.5c0.033,0.4,0.433,0.75,1.2,1.05c0.667,0.267,0.933,0.75,0.8,1.45
					c-2.067,0.767-4.6,2.217-7.6,4.35c-3.3,2.333-5.767,3.883-7.4,4.65c1.933-0.5,4.633-1.85,8.1-4.05
					c4.133-2.633,6.933-4.283,8.4-4.95l3.35,2.35L74.13,125.231"/>
				<path class="st0" d="M51.63,95.231c3.833,2.7,8.533,6.25,14.1,10.65l13.9,10.85c-1.533-0.533-3.667-1.883-6.4-4.05
					c-3.4-2.8-6.1-4.95-8.1-6.45l-8.15-5.4C53.48,98.431,51.697,96.564,51.63,95.231"/>
				<path class="st10" d="M66.13,75.231c0.8,1.633,1.5,3.683,2.1,6.15l1.4,6.85l-11-1.5c0.5-0.933,1.867-2.733,4.1-5.4
					C64.53,79.198,65.663,77.164,66.13,75.231"/>
				<path class="st0" d="M50.73,94.431c-5.633,5.733-12.167,11.167-19.6,16.3l-0.55,1.7l-0.45,1.8c-0.933,0-2.567,0.483-4.9,1.45
					c-1.933,0.8-3.467,0.983-4.6,0.55l-0.75,0.25c9.033-6.4,17.333-13.3,24.9-20.7c8.567-8.4,15.367-16.683,20.4-24.85
					c-0.033,0.3,0.15,0.883,0.55,1.75c0.4,0.833,0.533,1.517,0.4,2.05C61.73,81.898,56.597,88.464,50.73,94.431"/>
				<path class="st14" d="M59.13,164.231c-0.567-0.4-0.717-0.65-0.45-0.75l1.55-0.15c2.033-0.167,3-0.867,2.9-2.1
					c-0.233-0.533-0.767-0.7-1.6-0.5l-1.9,0.5c-0.567-0.333-0.117-0.633,1.35-0.9c1.433-0.3,2.317-0.167,2.65,0.4
					c0.067,1.2-0.417,2.05-1.45,2.55L59.13,164.231"/>
				<path class="st0" d="M64.13,150.881c-2.033-0.267-4.517,0.533-7.45,2.4c-2.967,1.9-5.45,2.733-7.45,2.5
					c-0.167-1.5-0.217-3.4-0.15-5.7l0.2-5.85c1.1-0.5,3.533-2.033,7.3-4.6c2.933-2,5.417-3.2,7.45-3.6
					C63.397,141.664,63.43,146.614,64.13,150.881"/>
				<path class="st0" d="M61.13,117.231l1.05-0.05c-1.667,1.5-3.767,3.067-6.3,4.7l-6.8,4.1c-0.2-2.567-0.25-5.583-0.15-9.05
					l0.45-8.95l0.25,0.75l6,4.05C57.863,114.348,59.697,115.831,61.13,117.231"/>
				<path class="st0" d="M57.63,88.231c1.267-0.733,3.483-0.85,6.65-0.35c3.133,0.467,5.25,1.25,6.35,2.35
					C68.563,89.698,64.23,89.031,57.63,88.231"/>
				<path class="st10" d="M49.08,150.081c-0.067,2.3-0.017,4.2,0.15,5.7c-1.633,0.9-3.517,2.517-5.65,4.85
					c-2.433,2.667-4.167,4.367-5.2,5.1c0.4-7.067,0.65-17.067,0.75-30c0.067-14.067,0.233-24.067,0.5-30v-0.5h0.5
					c0.867-1.367,2.167-1.417,3.9-0.15c2.4,1.733,3.933,2.617,4.6,2.65l0.75,0.25l-0.45,8.95c-0.1,3.467-0.05,6.483,0.15,9.05
					c-0.233,4.367-0.167,10.45,0.2,18.25L49.08,150.081"/>
				<path class="st3" d="M39.63,105.731c-0.267,5.933-0.433,15.933-0.5,30c-0.1,12.933-0.35,22.933-0.75,30
					c-3.933-0.267-6.417-2.1-7.45-5.5h0.85c-0.233-0.233-0.583-0.45-1.05-0.65c-0.333-1.467-0.45-3.283-0.35-5.45l0.5-5.65
					l0.75,0.25c0.667-3.967,0.567-10.267-0.3-18.9c-0.767-7.967-0.667-13.667,0.3-17.1c0.367-1.3,1.583-2.683,3.65-4.15
					L39.63,105.731"/>
				<path class="st0" d="M30.13,142.731v5.5c-5,2.733-9.667,4.567-14,5.5l6.85-5.7C25.747,145.531,28.13,143.764,30.13,142.731"/>
				<path class="st3" d="M29.63,133.231c0.467,0.633,0.667,1.85,0.6,3.65l-0.1,4.35l-7.9,7.05c-3.167,2.9-6.533,4.55-10.1,4.95
					l-0.35-2.1c-0.2-0.867-0.25-1.667-0.15-2.4l9.2-7.55L29.63,133.231"/>
				<path class="st15" d="M68.88,174.981c0.567,1.4,1.433,2.517,2.6,3.35c1.833,0.267,3.667-0.067,5.5-1
					c1.867-0.967,3.167-2.267,3.9-3.9l-0.3-1.15l-0.35-1.15c-1.7-1.833-4.033-2.317-7-1.45
					C70.197,170.548,68.747,172.314,68.88,174.981z"/>
				<path class="st16" d="M94.03,154.781c-0.433-3.1-1.067-6.117-1.9-9.05"/>
				<path class="st17" d="M212.58,112.981c3.133-0.733,5.783-1.867,7.95-3.4l1.2,0.05c3.333,7.3,7.483,15.55,12.45,24.75l13.7,24.6"
					/>
				<path class="st18" d="M144.08,219.781l-5.75-2c-2.233-0.7-4.2-1.067-5.9-1.1c-1.533-1.433-3.1-3.6-4.7-6.5
					c-2.1-3.767-3.467-6.083-4.1-6.95"/>
				<path class="st19" d="M156.88,210.481c0.333,0.9,0.383,1.933,0.15,3.1l-0.45,0.4l-0.35,0.85c-1.533,0.6-3.35,1.667-5.45,3.2
					l-5.15,3.65l-0.5-0.05l-0.6-0.85l-0.45-1"/>
				<path class="st20" d="M156.88,210.481l-6.4,4.65l-6.4,4.65"/>
				<path class="st18" d="M148.78,198.081c3.767-3.867,8.633-5.95,14.6-6.25c6.033-0.333,11.033,1.283,15,4.85
					c3.433-2.233,5.283-5.867,5.55-10.9c0.167-3.4-0.433-7.75-1.8-13.05"/>
				<path class="st17" d="M148.78,198.081c0.667,1.533,2.017,3.6,4.05,6.2c2.033,2.667,3.383,4.733,4.05,6.2"/>
				<path class="st21" d="M146.68,155.131c2.267-2.733,5.367-5.917,9.3-9.55l9.9-9.1"/>
				<path class="st16" d="M146.68,155.131c7.8-3.767,15.7-9.15,23.7-16.15"/>
				<path class="st17" d="M137.38,179.981l5.3,9.25c2.1,3.533,4.133,6.483,6.1,8.85"/>
				<path class="st22" d="M137.38,179.981c1.367-1.433,2.717-4.1,4.05-8c1.2-3.533,2.8-6.067,4.8-7.6
					c5.267-4.133,12.25-6.15,20.95-6.05l0.7,1.15"/>
				<path class="st23" d="M129.88,169.981c2.033-2.5,4.683-5.117,7.95-7.85l8.85-7"/>
				<path class="st17" d="M129.88,169.981c1.567,0.833,2.983,2.35,4.25,4.55l3.25,5.45"/>
				<path class="st24" d="M118.63,175.231l5.45-3.2c2.133-1.167,4.067-1.85,5.8-2.05"/>
				<path class="st24" d="M175.38,109.231c2.633-1.967,5.833-4.033,9.6-6.2l9.9-5.55"/>
				<path class="st19" d="M162.63,120.481c3.567-2.4,7.817-6.15,12.75-11.25"/>
				<path class="st25" d="M172.38,109.731l1.5-0.2l1.5-0.3"/>
				<path class="st17" d="M162.38,116.481c0.867-0.767,2.6-1.833,5.2-3.2c2.233-1.2,3.833-2.383,4.8-3.55"/>
				<path class="st19" d="M162.38,116.481c0.4,0.467,0.567,1.117,0.5,1.95l-0.25,2.05"/>
				<path class="st26" d="M147.38,130.981c-1.833,1.133-4.183,3.017-7.05,5.65l-6.95,5.85"/>
				<path class="st27" d="M147.38,130.981c0.367,0.267,0.617,0.767,0.75,1.5c0.167,0.8,0.383,1.333,0.65,1.6
					c1.233,0.167,2.033-0.467,2.4-1.9c0.233-1.8,0.517-3,0.85-3.6c1.167,0.533,1.933,2.183,2.3,4.95
					c0.467,3.267,1.033,5.367,1.7,6.3l0.6,0.3l1.15-0.3c0.533-1.667,0.8-4.45,0.8-8.35c0.033-3.633,0.4-6.35,1.1-8.15l0.65-0.1
					c0.833,0.667,1.483,0.85,1.95,0.55c0.5-0.733,0.617-1.833,0.35-3.3"/>
				<path class="st21" d="M191.23,80.131c5.167,0.867,10.967-0.933,17.4-5.4l7.9-6c3.167-2.5,5.717-4.3,7.65-5.4"/>
				<path class="st25" d="M191.23,80.131c-3.533,1.833-6.15,3.217-7.85,4.15c-3.067,1.7-4.767,3.883-5.1,6.55
					c-0.267,0.1-0.817,0.367-1.65,0.8l-1.65,0.6c-0.333,0.333-0.9,0.65-1.7,0.95c-0.833,0.333-1.4,0.633-1.7,0.9
					c-1.433,0.367-2.5,0.9-3.2,1.6v0.8c2.767,4.367,4.1,8.783,4,13.25"/>
				<path class="st24" d="M145.53,127.231l0.25-0.9c2.1-0.967,4.883-2.583,8.35-4.85c3.767-2.433,6.517-4.1,8.25-5"/>
				<path class="st27" d="M145.53,127.231c0.1,0.6,0.35,1.25,0.75,1.95l1.1,1.8"/>
				<path class="st20" d="M177.53,55.731c2.333,3.067,4.783,7.067,7.35,12l6.35,12.4"/>
				<path class="st28" d="M179.88,30.731l1.15-0.25c0.467,0,0.8-0.133,1-0.4l1.1-0.25c0.767,2.433,1.567,4.1,2.4,5l0.95,0.55
					c1.133,0.233,2.3,0,3.5-0.7l2.9-2.2"/>
				<path class="st19" d="M179.88,30.731c-0.167,1.9,0.267,4.35,1.3,7.35l2.6,7.3c0.767,2.633,0.783,4.7,0.05,6.2
					c-0.867,1.9-2.967,3.283-6.3,4.15"/>
				<path class="st29" d="M140.03,129.331c0.7,0.067,1.617-0.25,2.75-0.95c1.2-0.733,2.117-1.117,2.75-1.15"/>
				<path class="st24" d="M140.03,129.331l-3.25,2.95l-3.5,2.55"/>
				<path class="st30" d="M159.08,63.281l9.2-4c3.6-1.533,6.683-2.717,9.25-3.55"/>
				<path class="st20" d="M149.13,47.231c0.967,2.633,2.433,5.45,4.4,8.45c1.333,2.1,3.183,4.633,5.55,7.6"/>
				<path class="st19" d="M149.13,47.231l0.4-2.95c0.1-1.233,0.433-2.133,1-2.7l3.95-1.9c1.433-0.867,2.433-1.917,3-3.15
					c3.033,0.8,6.067,0.167,9.1-1.9c3.233-2.2,4.433-4.9,3.6-8.1c0.167-0.233,0.483-0.317,0.95-0.25c0.8,1.8,1.983,3.15,3.55,4.05
					c1.7,0.967,3.433,1.1,5.2,0.4"/>
				<path class="st31" d="M135.63,117.231c2.233,3.8,3.7,7.833,4.4,12.1"/>
				<path class="st19" d="M135.63,117.231l6.4-3.55c2.7-1.5,4.617-2.783,5.75-3.85c3.167-3,4.1-6.683,2.8-11.05
					c-0.867-2.967-3.183-7.1-6.95-12.4l0.6-1c1.567-0.8,4.133-2.017,7.7-3.65c3.1-1.533,5.417-2.967,6.95-4.3
					c4.333-3.8,4.4-8.517,0.2-14.15"/>
				<path class="st19" d="M100.88,108.981c1.867-1.267,5.217-3,10.05-5.2c3.633-2.333,4.833-5.4,3.6-9.2l2.25-2.05
					c0.6-0.9,0.717-1.9,0.35-3c-0.167-0.633-0.7-1.467-1.6-2.5c-0.833-1-1.317-1.8-1.45-2.4l0.7-0.3
					c2.267-0.967,3.783-2.483,4.55-4.55c0.7-1.867,0.683-3.85-0.05-5.95c-0.7-2.033-1.9-3.667-3.6-4.9
					c-1.867-1.333-3.917-1.867-6.15-1.6c-0.2-1.233-0.2-2.133,0-2.7c3.467,1.067,6.633,0.233,9.5-2.5c2.8-2.633,4.05-5.733,3.75-9.3
					c1.333,0.3,2.733,0.1,4.2-0.6l3.65-2.4l0.65,0.25c2,4,5.183,5.417,9.55,4.25c4.033-1.067,6.8-3.433,8.3-7.1"/>
				<path class="st31" d="M100.88,108.981c1.7,3.567,3.05,6.267,4.05,8.1c1.833,3.233,3.533,5.633,5.1,7.2
					c1.967,1.933,3.933,2.717,5.9,2.35c0.767-0.167,3.3-1.283,7.6-3.35l0.3-2.7c0.267-1,0.867-1.583,1.8-1.75
					c1.6,1.1,3.35,1.433,5.25,1c1.6-0.367,3.183-1.233,4.75-2.6"/>
				<path class="st30" d="M90.48,120.081l-2.5-4.2l-0.1-2.05l0.15-0.7c1.967-0.2,4.15-0.733,6.55-1.6l6.3-2.55"/>
				<path class="st30" d="M107.73,149.781c-3.867-2.533-7.267-6.967-10.2-13.3c-2.933-7.467-5.267-12.9-7-16.3"/>
				<path class="st32" d="M49.08,125.981c-0.2-2.567-0.25-5.583-0.15-9.05l0.45-8.95"/>
				<path class="st24" d="M49.08,125.981l6.8-4.1c2.533-1.633,4.633-3.2,6.3-4.7"/>
				<path class="st23" d="M64.03,136.031c-0.067-2.9,1.183-5.183,3.75-6.85c3.367-1.567,5.783-2.85,7.25-3.85"/>
				<path class="st23" d="M64.13,150.881c-0.7-4.267-0.733-9.217-0.1-14.85"/>
				<path class="st16" d="M64.13,150.881c4.067,2.6,9.017,5.217,14.85,7.85c6.667,3.033,11.883,4.867,15.65,5.5l0.3-1.2
					c0.3-1.933,0.017-4.667-0.85-8.2l-0.05-0.05l-1.15-4.75c-0.433-1.8-0.683-3.233-0.75-4.3"/>
				<path class="st26" d="M49.28,144.231c-0.367-7.8-0.433-13.883-0.2-18.25"/>
				<path class="st28" d="M49.28,144.231c1.1-0.5,3.533-2.033,7.3-4.6c2.933-2,5.417-3.2,7.45-3.6"/>
				<path class="st17" d="M49.23,155.781c2,0.233,4.483-0.6,7.45-2.5c2.933-1.867,5.417-2.667,7.45-2.4"/>
				<path class="st21" d="M49.23,155.781c-0.167-1.5-0.217-3.4-0.15-5.7l0.2-5.85"/>
				<path class="st19" d="M38.38,165.731c0.4-7.067,0.65-17.067,0.75-30c0.067-14.067,0.233-24.067,0.5-30v-0.5"/>
				<path class="st31" d="M38.38,165.731c1.033-0.733,2.767-2.433,5.2-5.1c2.133-2.333,4.017-3.95,5.65-4.85"/>
				<path class="st24" d="M30.88,148.481l-0.5,5.65c-0.1,2.167,0.017,3.983,0.35,5.45l0.2,0.65c1.033,3.4,3.517,5.233,7.45,5.5"/>
				<path class="st30" d="M19.88,116.481c9.033-6.4,17.333-13.3,24.9-20.7c8.567-8.4,15.367-16.683,20.4-24.85l0.45-0.7"/>
			</g>
		</g>
	</g>
	<path class="st33" d="M29.48,141.831c1.2,1.233,1.7,3.867,1.5,7.9c-0.233,5.433-0.283,8.617-0.15,9.55l-11.15-1.6
		c-3.967-1-5.85-3.383-5.65-7.15c2.767-0.633,5.567-1.867,8.4-3.7L29.48,141.831"/>
	<path class="st33" d="M219.23,54.431c2.9,1.8,5.2,3.417,6.9,4.85c0.567,4.2,0.083,10.033-1.45,17.5l-4.6,18.75
		c-0.633,0.567-1.35,0.417-2.15-0.45c-0.933-1-2-1.3-3.2-0.9c-1.067,3.9-1.517,8.6-1.35,14.1c0.767,1.267,2.683,2.033,5.75,2.3
		c3.8,0.3,6.133,0.65,7,1.05c0.133,1.867,0.583,3.65,1.35,5.35c4.033,3.467,8.5,9.633,13.4,18.5c5.2,9.433,9.45,15.8,12.75,19.1
		c0.333,2.767-0.033,5.417-1.1,7.95l-2.9,6.15c-4.767,3.633-12.383,6.85-22.85,9.65c-11.1,3-18.7,5.817-22.8,8.45
		c-3.4,2.2-9.533,6.75-18.4,13.65c-7.4,5.733-13.567,9.917-18.5,12.55c-2.2,4.4-5.083,7.967-8.65,10.7
		c-3.967,3.067-8.25,4.633-12.85,4.7c-2.267,0.033-6.067-1-11.4-3.1c-4.633-1.867-8.433-2.383-11.4-1.55
		c-3.633-1.333-7.033-4.65-10.2-9.95c-3.667-6.167-6.533-10.017-8.6-11.55c-0.533-3.467-0.467-8.033,0.2-13.7
		c0.633-5.667,0.783-9.6,0.45-11.8c-0.333-2.167-1.717-4.917-4.15-8.25c-2.4-3.267-3.7-5.883-3.9-7.85c-1.1,4.433-1.433,11.1-1,20
		c0.4,7.967-0.15,13.817-1.65,17.55c-3.633-2.7-8.35-5.533-14.15-8.5l-15.1-7.55c-12.267-6.267-20.867-12.767-25.8-19.5
		c-0.5,0.367-0.55,1.517-0.15,3.45c0.433,2,0.267,3.317-0.5,3.95c-1.133-12.5-1.85-21.95-2.15-28.35
		c-0.5-11.333,0.65-19.783,3.45-25.35c0.067-1-0.4-1.983-1.4-2.95c-0.967-0.967-1.383-2-1.25-3.1c-0.933,2.1-3.817,3.367-8.65,3.8
		c-5.233,0.433-8.55,1.133-9.95,2.1c5.833-4.367,13.383-11.633,22.65-21.8c10.867-11.933,18.467-19.833,22.8-23.7
		c-0.267-1.433-0.167-2.667,0.3-3.7l1.7-2.35c3.967-0.767,7.133-1.083,9.5-0.95c3.3,0.167,5.717,1.167,7.25,3
		c-0.5-2.933-0.067-5.383,1.3-7.35c1.2-1.733,2.933-2.867,5.2-3.4c2.167-0.5,4.283-0.35,6.35,0.45c2.167,0.867,3.7,2.283,4.6,4.25
		c2.267-1,4.733-2.683,7.4-5.05l6.8-6.1c5.633-4.767,11.65-6.65,18.05-5.65c1.167-4.7,3.5-8.5,7-11.4
		c3.9-3.233,8.05-4.133,12.45-2.7c0.933-0.8,2.283-2.517,4.05-5.15c1.8-2,3.8-2.517,6-1.55l1.65-3.05c0.7-1.1,1.5-1.867,2.4-2.3
		l7.5-0.4l7.15-1.25c5.533-0.767,9.817,0.233,12.85,3l1,9c0.233,3.767-0.317,6.133-1.65,7.1c1.867,0.967,4.55,1.867,8.05,2.7
		c1.9,4.333,5.683,8.367,11.35,12.1C213.547,50.964,215.964,52.464,219.23,54.431 M52.28,107.581c5.533,4.3,9.45,7.167,11.75,8.6
		c4.833,3.067,9.2,4.9,13.1,5.5c-2.567-3-5.25-8.017-8.05-15.05c-3.133-7.833-5.6-13.1-7.4-15.8c-0.6,2.733-2.017,5.683-4.25,8.85
		C54.564,103.714,52.847,106.347,52.28,107.581"/>
</g>
</svg>
