<?xml version="1.0" encoding="utf-8"?>
<!-- Generator: Adobe Illustrator 24.0.1, SVG Export Plug-In . SVG Version: 6.00 Build 0)  -->
<svg version="1.1" id="Camada_1" xmlns="http://www.w3.org/2000/svg" xmlns:xlink="http://www.w3.org/1999/xlink" x="0px" y="0px"
	 viewBox="0 0 60.85 118.55" style="enable-background:new 0 0 60.85 118.55;" xml:space="preserve">
<style type="text/css">
	.st0{fill-rule:evenodd;clip-rule:evenodd;fill:#8E8672;}
	.st1{fill-rule:evenodd;clip-rule:evenodd;}
	.st2{fill-rule:evenodd;clip-rule:evenodd;fill:#C1BCAE;}
	.st3{fill-rule:evenodd;clip-rule:evenodd;fill:#66352A;}
	.st4{fill-rule:evenodd;clip-rule:evenodd;fill:#2A3A68;}
	.st5{fill-rule:evenodd;clip-rule:evenodd;fill:#CCC7BC;}
	.st6{fill-rule:evenodd;clip-rule:evenodd;fill:#8C8981;}
	.st7{fill-rule:evenodd;clip-rule:evenodd;fill:#1E2842;}
	.st8{fill-rule:evenodd;clip-rule:evenodd;fill:#6B6558;}
	.st9{fill:none;stroke:#000000;stroke-width:0.6;stroke-linecap:round;}
	.st10{fill:none;stroke:#000000;stroke-width:0.35;stroke-linecap:round;}
	.st11{fill:none;stroke:#000000;stroke-width:0.55;stroke-linecap:round;}
</style>
<g transform="matrix(1.0, 0.0, 0.0, 1.0, 0.0, -0.05)">
	<g transform="matrix(1.0, 0.0, 0.0, 1.0, 0.0, 0.05)">
		<g id="shape0" transform="matrix(1.0, 0.0, 0.0, 1.0, 0.0, -0.05)">
			<path class="st0" d="M48.3,71.2c-0.367,0.433-0.633,0.583-0.8,0.45c-0.333-1.4-0.283-2.967,0.15-4.7l1.3-4.2
				c0.267,0.033,0.533,0.25,0.8,0.65c0.233,0.4,0.517,0.583,0.85,0.55c0.367-1.233,0.7-2.117,1-2.65c0.4,0.633,0.867,1.683,1.4,3.15
				c0.4-0.133,0.717-0.467,0.95-1l0.5-1.4c1.633,1.233,2.75,1.233,3.35,0l1.05,2.7c0.333,1.067,0.467,2.167,0.4,3.3l-0.85-0.3
				l-0.8,0.05c-0.167,0.667,0.2,1.867,1.1,3.6c0.9,1.7,1.25,2.983,1.05,3.85c-0.167,0.667-0.683,1.233-1.55,1.7
				c-0.7,0.367-1.467,0.6-2.3,0.7l-0.4,1.15l-0.55,1c-0.567-1.5-2.817-1.9-6.75-1.2c-0.233-1.233,0.033-2.617,0.8-4.15
				c0.7-1.5,0.917-2.75,0.65-3.75C49.15,70.533,48.7,70.7,48.3,71.2"/>
			<path class="st1" d="M47,15.7l-2.35-0.65l-2.9-0.7c0,0.567,0.083,1.017,0.25,1.35c0.467,1.133,1.55,2.2,3.25,3.2
				c1.933,1.133,3.167,2.067,3.7,2.8c-0.033-0.3,0.083-0.483,0.35-0.55L50.15,21c-0.133-0.633-0.833-1.517-2.1-2.65
				C47.017,17.417,46.667,16.533,47,15.7 M49.2,15.5c-0.067,0.267-0.383,0.467-0.95,0.6c-0.533,0.133-0.783,0.4-0.75,0.8l1.95,1.8
				c0.767,0.7,1.233,1.467,1.4,2.3c0,0.3-0.233,0.467-0.7,0.5l-0.95,0.2c0.033,1.033,0.617,1.7,1.75,2L54,23.9
				c-0.5,1.067-0.583,2.017-0.25,2.85l1.2,2.65c-0.667,0.6-0.767,1.467-0.3,2.6c0.667,1.667,1,2.717,1,3.15
				c-1.767,1.2-2,4.483-0.7,9.85c0.833,0.167,1.467-0.033,1.9-0.6l1.2-1.3c0.1,0.767,0.033,1.483-0.2,2.15L57.1,46.9
				c0.7,0.2,1.283,0.767,1.75,1.7c0.4,0.867,0.533,1.667,0.4,2.4c-0.467,0.133-1-0.117-1.6-0.75c-0.5-0.533-0.85-0.6-1.05-0.2
				l-0.1,2.65l-0.1,2.6c0.467,0.333,1.033,0.45,1.7,0.35l1.15-0.35c-0.033,1.067-0.517,2.033-1.45,2.9c0.7,0.733,1.1,1.45,1.2,2.15
				l-0.5,0.45c-0.233,0.133-0.3,0.383-0.2,0.75c0.9,1.267,1.467,3.583,1.7,6.95l-1,0.15l-0.95-0.35c1.667,2.567,2.6,5.95,2.8,10.15
				c0.2,4.667-0.817,7.833-3.05,9.5l-0.5-0.25l-0.45-0.45c0.067,0.733-0.083,1.217-0.45,1.45c-2.467,0.3-4.683-0.983-6.65-3.85
				c-1.9-2.767-2.65-5.567-2.25-8.4c0.1-0.6,0.45-1.467,1.05-2.6c0.533-0.967,0.75-1.783,0.65-2.45c-0.3-0.2-0.667,0.083-1.1,0.85
				c-0.4,0.8-0.767,1.083-1.1,0.85c-0.633-1.767-0.633-3.933,0-6.5c0.833-3.133,1.233-5.05,1.2-5.75l-0.65-0.1
				c-0.433,0.033-0.683-0.1-0.75-0.4c0-0.5,0.167-1,0.5-1.5L48,57.5l-0.9-0.2c-0.3-0.2-0.567-0.3-0.8-0.3l-0.1,1.9
				c-0.067,0.7-0.267,1.183-0.6,1.45c-0.3-0.233-0.533-0.833-0.7-1.8c-0.167-0.933-0.417-1.533-0.75-1.8
				c0.167,3.433-0.883,5.35-3.15,5.75c-0.233-0.133-0.283-0.383-0.15-0.75c0.167-0.367,0.15-0.583-0.05-0.65
				c-0.133,0.933-1.017,1.8-2.65,2.6c-1.7,0.833-2.667,1.633-2.9,2.4c-0.3,0.967-0.25,2.333,0.15,4.1l0.8,4.3
				c0.833,0.167,1.483-0.033,1.95-0.6c0.633-0.8,1.033-1.233,1.2-1.3c0.1,0.8,0.033,1.533-0.2,2.2l-0.75,1.65
				c0.733,0.2,1.317,0.75,1.75,1.65c0.4,0.867,0.533,1.667,0.4,2.4c-0.467,0.133-1-0.117-1.6-0.75c-0.533-0.5-0.883-0.567-1.05-0.2
				l-0.1,2.7c0.067,1.067,0.017,1.933-0.15,2.6c0.667,0.467,1.633,0.467,2.9,0c-0.067,1.067-0.55,2.017-1.45,2.85
				c0.633,0.7,1.033,1.433,1.2,2.2l-0.5,0.4c-0.233,0.167-0.3,0.433-0.2,0.8c0.933,1.333,1.483,3.65,1.65,6.95L40.3,98.2l-0.95-0.4
				c1.633,2.533,2.567,5.883,2.8,10.05c0.2,4.567-0.733,7.783-2.8,9.65c-0.3,0.033-0.55-0.05-0.75-0.25l-0.45-0.5
				c0.033,1.4-0.533,2.017-1.7,1.85c-0.9-0.133-1.85-0.583-2.85-1.35c-1.3-1-2.467-2.617-3.5-4.85
				c-1.133-2.433-1.567-4.583-1.3-6.45c0.067-0.567,0.4-1.433,1-2.6c0.533-0.967,0.75-1.783,0.65-2.45
				c-0.267-0.2-0.617,0.083-1.05,0.85c-0.433,0.8-0.8,1.083-1.1,0.85c-0.667-1.767-0.667-3.917,0-6.45
				c0.833-3.167,1.233-5.1,1.2-5.8l-0.65-0.05c-0.467,0.033-0.733-0.1-0.8-0.4c0.033-0.5,0.217-1.017,0.55-1.55L29.25,87
				c-0.733,0-1.217-0.233-1.45-0.7c1.6-0.433,2.567-1.083,2.9-1.95c-0.4-0.7-0.617-1.5-0.65-2.4c-0.067-1.033,0.15-1.833,0.65-2.4
				h-2.1c-0.667-0.133-1.083-0.533-1.25-1.2c2.3-0.167,3.817-1.55,4.55-4.15c0.567-2,0.65-4.617,0.25-7.85
				c-0.367,0.333-0.917,0.55-1.65,0.65l-1.95-0.15l0.1,0.95l-0.6,0.5l-2.4,0.25c-0.967,0-1.683-0.167-2.15-0.5
				c-0.167,0.233-0.083,0.4,0.25,0.5c0.233,0.067,0.233,0.133,0,0.2c-1.1-0.067-2.05-0.6-2.85-1.6l-1.95-2.45v0.6l-0.25,0.35
				c-2.6-0.567-4.367-1.617-5.3-3.15c0.233,1.467-0.083,2.433-0.95,2.9c0.733,0.2,1.317,0.767,1.75,1.7
				c0.4,0.833,0.533,1.633,0.4,2.4c-0.433,0.133-0.967-0.133-1.6-0.8c-0.467-0.5-0.8-0.567-1-0.2l-0.1,2.6
				c0.067,0.967,0.017,1.867-0.15,2.7c0.7,0.5,1.65,0.5,2.85,0c-0.033,1.033-0.5,2-1.4,2.9c0.633,0.7,1.033,1.417,1.2,2.15
				l-0.55,0.4c-0.233,0.167-0.3,0.433-0.2,0.8c0.967,1.333,1.533,3.65,1.7,6.95c-0.233,0.233-0.55,0.283-0.95,0.15l-1-0.4
				c1.667,2.467,2.6,5.767,2.8,9.9c0.233,4.433-0.617,7.7-2.55,9.8c-0.6-0.033-1.367,0.183-2.3,0.65c-0.833,0.4-1.583,0.5-2.25,0.3
				c-1.467-0.433-2.933-2.017-4.4-4.75c-1.533-2.867-2.15-5.45-1.85-7.75c0.1-0.567,0.45-1.417,1.05-2.55
				c0.533-0.967,0.75-1.783,0.65-2.45c-0.267-0.2-0.617,0.083-1.05,0.85s-0.8,1.033-1.1,0.8c-0.667-1.767-0.667-3.917,0-6.45
				c0.833-3.167,1.233-5.1,1.2-5.8l-0.7-0.05c-0.433,0.033-0.683-0.1-0.75-0.4c0-0.5,0.167-1.017,0.5-1.55l0.7-1.35
				c-0.767,0-1.25-0.233-1.45-0.7c1.533-0.333,2.5-0.983,2.9-1.95c-0.367-0.7-0.6-1.433-0.7-2.2c-0.1-0.933,0.05-1.717,0.45-2.35
				c-1.933,0.367-2.983-0.117-3.15-1.45c2.333-0.467,3.833-1.8,4.5-4c0.5-1.5,0.683-4.167,0.55-8c-1.033-0.767-1.667-1.717-1.9-2.85
				c-0.033-0.1,0.1-0.483,0.4-1.15c0.167-0.467,0.033-0.733-0.4-0.8c-0.2-0.4-0.367-0.417-0.5-0.05C3.85,50.983,3.533,51.167,3.1,51
				l-0.75-1.9c-0.267-0.767-0.333-1.567-0.2-2.4c-0.5,0.067-0.933-0.033-1.3-0.3L0,45.7v-0.45c1.733-0.2,2.533-1.117,2.4-2.75
				c-0.5-2-0.75-3.4-0.75-4.2c0-0.233-0.133-0.217-0.4,0.05L0.7,38.3c-0.133-1.5,0.583-2.883,2.15-4.15c1.6-1.267,2.4-2.367,2.4-3.3
				c-0.733,0.3-1.683,0.933-2.85,1.9c-0.533-1.4-0.383-2.7,0.45-3.9C3.55,27.883,4.6,27.1,6,26.5l-1.1-0.2
				c-0.533-0.033-0.817-0.2-0.85-0.5l1.3-0.25L6.7,25.3l0.95-2.4l-0.8,0.25c-0.333,0.1-0.55,0.017-0.65-0.25
				c0.033-1.2,0.55-2.117,1.55-2.75c0.3-0.2,1.317-0.633,3.05-1.3L9.35,18.2c-0.567-0.3-0.733-0.65-0.5-1.05l2.7,0.2
				c0.967-0.167,1.583-0.55,1.85-1.15c-0.067-0.267-0.467-0.417-1.2-0.45c-0.733-0.033-1.133-0.2-1.2-0.5
				c0.633-0.867,1.733-1.4,3.3-1.6s2.8,0.083,3.7,0.85c0.333-0.067,0.25-0.367-0.25-0.9c-0.6-0.633-0.683-1.133-0.25-1.5
				c0.433,0.433,1.2,0.683,2.3,0.75l2.75-0.25v0.25h0.25c-0.867,1.5-0.467,3.417,1.2,5.75c0.7,0.133,1.7,0.55,3,1.25
				c1.233,0.667,2.233,1.05,3,1.15c1.7,0.233,3.5-0.2,5.4-1.3l4.4-2.8c0.133-0.267-0.033-0.517-0.5-0.75
				c-0.367-0.167-0.433-0.317-0.2-0.45l1.35,1.3c-0.367,0.367-1.5,1-3.4,1.9c-1.5,0.733-2.417,1.6-2.75,2.6
				c0.1-0.667-0.283-0.833-1.15-0.5c-1.2,0.467-2.017,0.633-2.45,0.5c0.167,0.933,1.217,1.45,3.15,1.55l4.05,0.1l-1.5-1.1
				c-0.667-0.433-0.967-0.783-0.9-1.05c0.767,0.867,2.267,1.933,4.5,3.2c2.167,1.2,3.633,2.3,4.4,3.3
				c0.567-2.233,0.433-4.25-0.4-6.05c-0.467-1.033-1.45-2.367-2.95-4l2.5,2.1c0.8,0.867,1.317,1.833,1.55,2.9
				c0.1,0.5,0.017,1.733-0.25,3.7c-0.233,1.567-0.067,2.733,0.5,3.5l5.25,1.65c1.733-2.533,0.983-5.383-2.25-8.55l-4.2-3.7
				c-1.6-1.433-2.65-2.617-3.15-3.55l0.25-1.25l0.5,0.1v-0.3l4,0.95L49.2,15.5 M52.25,24.7l-1.15-0.1
				c0.767,1.7,1.183,3.217,1.25,4.55c0.1,1.867-0.55,2.917-1.95,3.15c-0.4,0.033-0.917-0.133-1.55-0.5
				c-0.633-0.367-1.25-0.533-1.85-0.5c0.1,1.033-0.05,1.917-0.45,2.65c0.667,0.033,0.983,0.367,0.95,1
				c-0.033,0.867,0.05,1.417,0.25,1.65c0.2,0.267,0.433,0.233,0.7-0.1c0.3-0.333,0.55-0.383,0.75-0.15
				c-0.1,0.167-0.05,0.45,0.15,0.85c0.167,0.3,0.117,0.5-0.15,0.6l-0.45-0.65L48.2,37.1l-0.5,1.85L47,40.7c0.5,0.9,0.533,2,0.1,3.3
				c-0.4,1.167-0.983,2.067-1.75,2.7c0.567-0.1,0.8,0.217,0.7,0.95l-2,3c-0.833,1.167-1.683,2-2.55,2.5l0.25,0.75
				c-0.5,0.033-0.967,0.167-1.4,0.4l0.35-0.5L40.3,54c0.867-1.433,1.017-3.583,0.45-6.45c-0.5-2.7-1.283-4.517-2.35-5.45
				c0.033,0.6-0.15,1.067-0.55,1.4l-1.15,0.8c1.267,1.3,1.85,3.467,1.75,6.5c-0.133,3-0.85,5.1-2.15,6.3h-0.05l-0.2-0.2l-0.8,0.8
				c0.1,0.633,0.533,1.617,1.3,2.95c0.667,1.133,0.95,2.083,0.85,2.85c0.767-0.3,1.517-0.917,2.25-1.85l1.85-2.25l0.25,0.85v1.05
				c0.833-0.133,1.35-0.967,1.55-2.5c0.233-1.7,0.6-2.7,1.1-3c0.3,0.133,0.533,0.517,0.7,1.15l0.5,1.25c-0.033-1.167,0.3-2.1,1-2.8
				c0.4-0.4,1.183-0.9,2.35-1.5c-0.267-0.6-0.333-1.3-0.2-2.1c0.1-0.767,0.317-1.35,0.65-1.75h-2.05c-0.7-0.167-1.133-0.567-1.3-1.2
				c4.5-0.367,6.017-5.417,4.55-15.15l1.3-1.35c0.533-0.433,1.15-0.7,1.85-0.8l-0.1-1.35l-0.15-1.3l0.45-0.1
				c0.133,0.1,0.217,0.067,0.25-0.1c-0.8-1.1-1.35-1.983-1.65-2.65c0.467-0.467,0.7-0.95,0.7-1.45L52.25,24.7 M54.6,34.95
				c0.2-1.133-0.083-2.1-0.85-2.9c-1.567-0.1-2.45,0.617-2.65,2.15c-0.167,1.533,0.4,2.333,1.7,2.4
				C53.8,36.633,54.4,36.083,54.6,34.95 M41.75,26.75c-1,0.4-2.05,1.117-3.15,2.15c0.4,1.333,0.067,3.083-1,5.25
				c-0.967,2.033-1.1,3.817-0.4,5.35c0.6-0.067,1,0.183,1.2,0.75l0.45,1.65c2.033,0.167,3.75-0.583,5.15-2.25
				c0.833-1,1.767-2.733,2.8-5.2c-0.3-0.033-0.6,0.15-0.9,0.55c-0.267,0.333-0.533,0.383-0.8,0.15l0.95-1.9
				c0.367-0.767,0.533-1.567,0.5-2.4C45.717,30.683,44.9,30,44.1,28.8C43.333,27.6,42.55,26.917,41.75,26.75 M46.55,36.35
				c-2.133,4.1-4.533,6.267-7.2,6.5c0.433,0.1,0.783,0.383,1.05,0.85L41,45c3.367-0.833,5.533-3.467,6.5-7.9
				c-0.2,0.033-0.35-0.117-0.45-0.45C46.983,36.383,46.817,36.283,46.55,36.35 M41.55,49.15L41,52.45c1-0.3,1.883-0.983,2.65-2.05
				l1.7-3l-0.65-0.05c-0.467,0.167-0.733,0.1-0.8-0.2l2.15-2.5c0.733-1.233,0.9-2.233,0.5-3c-1.5,2.2-3.35,3.55-5.55,4.05
				C41.667,46.4,41.85,47.55,41.55,49.15 M53.25,37.55c0,0.2-0.183,0.3-0.55,0.3l-0.9-0.05c0,3.233-0.25,5.7-0.75,7.4
				c-0.7,2.267-1.967,3.717-3.8,4.35l1.8-0.05l1.35,0.05c-0.433,0.367-0.75,1-0.95,1.9c-0.233,1.033-0.083,1.767,0.45,2.2
				c0.133-0.967,0.7-1.683,1.7-2.15l0.35,1.15l0.6,1c0.3-1.767,0.933-2.817,1.9-3.15l0.5,1.1l0.45,1.1
				c0.2-0.233,0.35-0.933,0.45-2.1c0.067-0.967,0.4-1.467,1-1.5c0.3,0.033,0.583,0.183,0.85,0.45c0.3,0.3,0.583,0.467,0.85,0.5
				c-0.2-1.233-1-2.283-2.4-3.15l0.95-1.65l-1.1,0.2c-0.533,0.033-0.883,0.117-1.05,0.25c-0.633-0.533-1.033-1.683-1.2-3.45
				L53.25,37.55 M21.8,13.3l-1.95,0.25H18.2c0.6,0.2,0.85,0.683,0.75,1.45l-3.85-0.85c-1.567-0.167-2.683,0.2-3.35,1.1l1.15,0.2
				c0.533,0.1,0.867,0.35,1,0.75l-0.35,0.5l-0.35,0.45c0.2,0.133,0.417,0.05,0.65-0.25c0.133-0.233,0.233-0.233,0.3,0
				c-0.267,0.433-0.8,0.75-1.6,0.95l-2,0.5c0.3-0.067,0.55,0.033,0.75,0.3L12,19.1l1-0.35l0.9,0.1l-1.25,1.2
				c-0.467,0.567-0.533,1.117-0.2,1.65c0.767-0.767,1.483-1.167,2.15-1.2c0.233,0.567,0.317,1.367,0.25,2.4
				c1.267,0.633,2.067,1.433,2.4,2.4c0.267-1.5,1.15-2.717,2.65-3.65c0.9-0.533,2.333-1.233,4.3-2.1c-1-0.467-1.733-1.267-2.2-2.4
				C21.5,15.95,21.433,14.667,21.8,13.3 M26.6,22.7c-0.7,2.033-1.017,4.267-0.95,6.7c0.067,2.833,0.717,4.75,1.95,5.75L28.5,35
				c0.3-0.2,0.55-0.3,0.75-0.3c-0.633-1.8-1-3.65-1.1-5.55c-0.133-2.233,0.15-4.067,0.85-5.5l-1.1-0.55L26.6,22.7 M21.35,21.25
				c-2.1,1.2-3.217,2.95-3.35,5.25l-0.75,0.25c-0.567-0.433-0.883-1.15-0.95-2.15c-1.067,0.4-1.5,1.467-1.3,3.2l0.35,4
				c-0.333,0.133-0.65,0.033-0.95-0.3c-0.233-0.3-0.4-0.367-0.5-0.2c0.1,0.833-0.1,1.85-0.6,3.05c-0.4,0.867-0.283,1.7,0.35,2.5
				c1.033-1.367,2.817-2.333,5.35-2.9l6.9-0.25c-0.967-1.733-1.233-4.017-0.8-6.85c0.4-2.533,1.15-4.567,2.25-6.1
				C25.383,19.883,23.383,20.05,21.35,21.25 M32,23.55l-2-0.4c-0.867,1.3-1.3,3.017-1.3,5.15c0.033,1.9,0.383,3.7,1.05,5.4
				c2.3-0.067,3.9-1.267,4.8-3.6c0.833-2.233,0.667-4.3-0.5-6.2L32,23.55 M36.05,24.7c-0.6,0.167-0.95,0.3-1.05,0.4
				c0.267,0.1,0.417,0.483,0.45,1.15c0.033,0.7,0.133,1.117,0.3,1.25c0.2-0.567,0.633-1.133,1.3-1.7l1.55-1.45l-1.9-0.45
				C36.733,24.3,36.517,24.567,36.05,24.7 M7.65,22.4l0.75,0.05c0.067,0.367-0.1,0.833-0.5,1.4c-0.3,0.5-0.383,0.833-0.25,1l0.7-0.8
				c0.233-0.433,0.4-0.567,0.5-0.4c-0.267,0.933-1.433,2.15-3.5,3.65c-1.767,1.233-2.517,2.65-2.25,4.25
				c0.567-0.833,1.45-1.233,2.65-1.2c0.1-0.6,0.333-1.083,0.7-1.45c0.167,1.767-0.617,3.4-2.35,4.9c-1.8,1.567-2.7,2.9-2.7,4
				l0.5-0.65l0.5-0.05c-0.267,0.5-0.35,1.15-0.25,1.95c0.1,0.8,0.333,1.35,0.7,1.65l0.25-0.85c0.067-0.4,0.233-0.6,0.5-0.6
				c0,3.5-0.8,5.733-2.4,6.7c0.733,0.267,1.2,0.183,1.4-0.25l0.2,2.5c0.133,0.833,0.4,1.45,0.8,1.85c-0.1-0.5,0.133-0.9,0.7-1.2
				l0.4,0.8c0.2,0.267,0.467,0.4,0.8,0.4c1.2-0.967,2.45-1.067,3.75-0.3c1.333,0.833,1.767,2.133,1.3,3.9
				c-0.833,1.5-1.183,3.4-1.05,5.7c0.133,2.667,1.117,3.883,2.95,3.65l0.25-1.05c0.133-0.4,0.367-0.617,0.7-0.65l1.7,2.05
				c0.767,0.7,1.483,0.983,2.15,0.85c-0.233-0.1-0.383-0.317-0.45-0.65c-0.033-0.333,0.117-0.517,0.45-0.55
				c0.8,0.533,1.75,0.9,2.85,1.1c1.3,0.267,2.35,0.133,3.15-0.4l-1.3-0.9c-0.533-0.4-0.817-0.9-0.85-1.5
				c0.867-0.467,1.5-1.017,1.9-1.65c0.167,0.633,0.033,1.083-0.4,1.35c-0.6,0.4-0.933,0.667-1,0.8c1.233,0.633,1.95,1.433,2.15,2.4
				c-0.2,0.367-0.75,0.583-1.65,0.65l-1.95,0.3c0.567,1.1,1.65,1.883,3.25,2.35l4.2-0.2c-0.267-0.133-0.433-0.45-0.5-0.95l2.3-0.2
				c1.133,0.033,1.8-0.133,2-0.5c-0.267-0.733-0.35-1.617-0.25-2.65c0.067-1.133,0.317-1.85,0.75-2.15c-0.4,0-0.633-0.2-0.7-0.6
				c-0.033-0.4,0.117-0.683,0.45-0.85l0.1,0.55c-0.1,0.267-0.05,0.483,0.15,0.65c0.7-0.4,1.217-0.65,1.55-0.75l1.8-0.2
				c0.133-1.067-0.317-1.75-1.35-2.05c-0.933-0.233-1.833-0.117-2.7,0.35l0.15,0.8L31.2,59.4l-1.65,0.2
				c-0.533,0.033-0.95-0.117-1.25-0.45c-0.467,0.667-1.25,1.033-2.35,1.1c-1.033,0.1-1.933-0.1-2.7-0.6l-3.4-1.5l-3.3-1.65
				c-0.067-0.3-0.033-0.533,0.1-0.7L17,55.3c-1.933,0-3.133-0.633-3.6-1.9l0.6-0.5c0.333-0.133,0.467-0.367,0.4-0.7
				c-0.2-0.7-0.617-1.483-1.25-2.35l-1.4-2.2c0.167-0.2,0.617-0.4,1.35-0.6c0.633-0.167,0.983-0.45,1.05-0.85H12.2
				c0,0.6-0.067,0.917-0.2,0.95l-0.4-1.1l-0.6-0.8c0.7,0.067,1.033-0.183,1-0.75l-1.5-1.9c-0.667-0.967-0.967-1.85-0.9-2.65
				c0.1-1.433,0.483-2,1.15-1.7c1.533,0.7,2.5,1.033,2.9,1c-1.433-2-1.35-5.05,0.25-9.15l0.4,0.55l0.55,0.45l-0.35-4.05
				c-0.033-1.4,0.333-2.45,1.1-3.15c-0.633,0-1-0.4-1.1-1.2l-0.35-1.95L12,22.45c-0.533-0.467-0.567-1.1-0.1-1.9l0.8-1.45
				c-2.2,0.5-3.467,0.833-3.8,1c-1.267,0.533-2,1.4-2.2,2.6L7.65,22.4 M14.4,39.7L12,39.65c-0.9-0.433-1.383-0.567-1.45-0.4
				c-0.467,1-0.417,1.933,0.15,2.8c0.3,0.533,0.883,1.117,1.75,1.75c1.367-2.333,3.083-4.117,5.15-5.35
				c2.433-1.433,5.2-1.967,8.3-1.6c-0.033-0.3,0.05-0.617,0.25-0.95l0.25-1c-2.467-0.6-4.933-0.633-7.4-0.1
				c-2.567,0.533-4.35,1.533-5.35,3C14.117,38.533,14.367,39.167,14.4,39.7 M14.85,46.2c-0.033,0.4-0.25,0.733-0.65,1l-1,0.7
				c1,0.9,2.367,1.367,4.1,1.4l5-0.45c0.267-1.067,1.05-2.233,2.35-3.5c1.367-1.3,2.183-2.45,2.45-3.45
				c0.1-1.1,0.033-1.983-0.2-2.65l-1-1.95c-3.333-0.2-6.2,0.483-8.6,2.05c-2.267,1.5-3.883,3.617-4.85,6.35h1.5
				C14.517,45.7,14.817,45.867,14.85,46.2 M39.35,25.1c-2.767,1.6-4.45,3.917-5.05,6.95c0.667,0.433,1.3,0.517,1.9,0.25
				c0.267-1.333,0.95-2.55,2.05-3.65l3-2.6l-0.85-0.6C40.1,25.183,39.75,25.067,39.35,25.1 M38.15,29.15L37.2,31
				c-0.267,0.667-0.117,1.25,0.45,1.75l0.5-1.85C38.317,30.1,38.317,29.517,38.15,29.15 M33.05,33.4
				c-1.267,0.6-2.283,0.95-3.05,1.05c0.4,0,0.633,0.283,0.7,0.85v1.55l1.7-0.7l1.9-0.5C34.367,33.95,33.95,33.2,33.05,33.4
				 M34.4,33.4c0.433,0.8,0.633,1.55,0.6,2.25l1.05-0.4l0.9-0.55c0.033-0.833-0.05-1.567-0.25-2.2c-1.267,0.4-2.3,0.25-3.1-0.45
				L34.4,33.4 M34.15,37.05c0.033,0.6,0.25,1.567,0.65,2.9c1.033,0.1,1.667-0.133,1.9-0.7c-0.3-0.233-0.467-0.717-0.5-1.45v-1.9
				C34.833,35.6,34.15,35.983,34.15,37.05 M28.4,35.55l-1.55-0.15c-0.4,1.233-0.333,2.083,0.2,2.55l1.8,0.1
				c0.8-0.267,1.3-0.717,1.5-1.35c0.267-0.7-0.017-1.367-0.85-2L28.4,35.55 M29.85,40.5c-0.1-0.9-0.3-1.483-0.6-1.75
				c-0.167,0.167-0.717,0.333-1.65,0.5c0.2,0.767,0.267,1.967,0.2,3.6l1.25,0.05l1.15-0.55L29.85,40.5 M30.2,41.4
				c0.533,0.267,1.133,0.267,1.8,0c0.933-0.333,1.533-0.5,1.8-0.5l0.1-2.55c0.067-0.9-0.117-1.567-0.55-2
				c-1.767,0.733-2.817,1.217-3.15,1.45V41.4 M27.35,42.6c-0.533,1.067-0.533,1.933,0,2.6c0.467,0.567,1.133,0.85,2,0.85
				c0.9,0,1.567-0.317,2-0.95c0.467-0.7,0.417-1.617-0.15-2.75l-2,0.85C28.4,43.433,27.783,43.233,27.35,42.6 M23,48.6l2.35-1.45
				c0.8-0.667,1.15-1.383,1.05-2.15c-0.6-0.067-1.267,0.433-2,1.5L23,48.6 M26.85,45.95c-1.267,2.2-3.5,3.567-6.7,4.1l0.25,2.4
				c2.1-0.1,3.967-0.717,5.6-1.85c1.067-0.733,2.317-1.967,3.75-3.7l-1.55-0.35L26.85,45.95 M37.15,40.1l-2.85,0.1l1,1.15
				c0.467,0.633,0.617,1.367,0.45,2.2L37,43.4l0.9-0.55C38.1,41.183,37.85,40.267,37.15,40.1 M34.3,40.9
				c-0.1,0.4-0.517,0.683-1.25,0.85c-0.767,0.167-1.233,0.367-1.4,0.6c0.233,0.1,0.383,0.45,0.45,1.05
				c0.033,0.6,0.133,0.967,0.3,1.1c0.667-0.733,1.617-1.2,2.85-1.4C35.35,42,35.033,41.267,34.3,40.9 M30.85,46.4l-2.35,2.9
				c-0.933,1.1-1.8,1.833-2.6,2.2c-0.167,1.367-0.017,2.717,0.45,4.05c0.433,1.333,1.083,2.383,1.95,3.15l0.3-0.7
				c0.133-0.233,0.35-0.333,0.65-0.3v0.85c0,0.333,0.167,0.45,0.5,0.35c0.467-0.9,1.383-1.517,2.75-1.85l3.5-0.3l0.05,0.15
				c0.967-1.333,1.533-3.217,1.7-5.65c0.167-2.4-0.1-4.567-0.8-6.5C34.817,43.65,32.783,44.2,30.85,46.4 M32.6,60.9
				c-0.833,0.733-1.15,1.833-0.95,3.3c0.333,0.667,1,1.05,2,1.15s1.7-0.2,2.1-0.9c0.2,0.867,0.483,0.483,0.85-1.15
				c0.3-1.367,0.017-2.35-0.85-2.95C34.483,60.05,33.433,60.233,32.6,60.9 M22.3,53.4c0.367,2.567,1.083,4.567,2.15,6h1.8
				c0.733,0,1.183-0.167,1.35-0.5c-0.867-0.433-1.5-1.35-1.9-2.75l-0.75-3.95C23.783,52.833,22.9,53.233,22.3,53.4 M23.25,59.65
				c0-0.4-0.333-1.417-1-3.05c-0.633-1.467-0.783-2.7-0.45-3.7c-1.133,0-2.083,0.383-2.85,1.15c-0.433,0.433-1,1.183-1.7,2.25
				c0.667,0.1,1.767,0.567,3.3,1.4C22.15,58.533,23.05,59.183,23.25,59.65 M33.95,66.6h-1.1c0.333,2.967,0.2,5.533-0.4,7.7
				c-0.733,2.533-2.033,4.133-3.9,4.8L30.3,79l1.35,0.1c-0.433,0.367-0.733,1-0.9,1.9c-0.233,1.033-0.083,1.75,0.45,2.15
				c0.067-0.9,0.617-1.617,1.65-2.15l0.4,1.15l0.55,1c0.3-1.7,0.95-2.733,1.95-3.1l0.45,1.1l0.5,1.05l0.4-2.1
				c0.1-0.967,0.45-1.467,1.05-1.5c0.267,0.033,0.55,0.183,0.85,0.45l0.8,0.5c-0.2-1.2-1-2.233-2.4-3.1l1-1.7l-1.15,0.2l-1.05,0.3
				c-0.633-0.667-1.05-1.817-1.25-3.45c-0.1-0.9-0.15-2.55-0.15-4.95L33.95,66.6 M15.5,49.8l-1.6-0.5l0.6,1.45l0.6,1.45l1,0.05
				l0.9,0.2V50.3C16.767,50.067,16.267,49.9,15.5,49.8 M17.4,51.65c0.033,0.9-0.1,1.483-0.4,1.75l1.95,0.25
				c0.7-0.6,0.917-1.467,0.65-2.6c-0.3-1.167-1-1.667-2.1-1.5C17.367,49.883,17.333,50.583,17.4,51.65 M15.6,52.9
				c-0.233-0.033-0.467,0.067-0.7,0.3c-0.2,0.233-0.45,0.3-0.75,0.2c0.233,0.6,0.8,1.017,1.7,1.25c0.933,0.233,1.65,0.133,2.15-0.3
				c-0.5,0-0.95-0.2-1.35-0.6L15.6,52.9 M8.25,50.05c-0.733-0.3-1.4-0.3-2,0c-0.667,0.333-1,0.967-1,1.9c0,0.9,0.433,1.633,1.3,2.2
				l2.8-0.05C10.583,52.167,10.217,50.817,8.25,50.05 M8.25,55.95L7.2,56.3c0.1,3.267-0.167,5.75-0.8,7.45
				c-0.767,2.067-2.183,3.5-4.25,4.3L3.95,68l1.8,0.05c-0.433,0.367-0.75,1-0.95,1.9c-0.233,1.033-0.083,1.75,0.45,2.15L6.1,71
				c0.3-0.467,0.667-0.733,1.1-0.8c0.067,0.867,0.3,1.583,0.7,2.15c0.133-1.567,0.7-2.45,1.7-2.65c0.333,0.067,0.6,0.367,0.8,0.9
				l0.6,1.05l0.25-2.45c-0.033-1.1,0.283-1.65,0.95-1.65c0.3,0.033,0.6,0.183,0.9,0.45c0.3,0.3,0.567,0.467,0.8,0.5
				c-0.2-1.2-1-2.233-2.4-3.1l0.6-0.85c0.267-0.3,0.383-0.65,0.35-1.05l-1.25,0.35c-0.433,0.067-0.817-0.05-1.15-0.35
				c-0.067,0.167,0.033,0.417,0.3,0.75c0.167,0.233,0.15,0.383-0.05,0.45c-1.3-1.967-1.7-4.85-1.2-8.65L8.25,55.95 M9.8,69.95
				c-0.6,0.1-1,0.617-1.2,1.55l-0.7,2.05L6.45,70.9c-0.833,0.9-1.083,1.717-0.75,2.45c0.3,0.667,0.917,1.117,1.85,1.35
				c0.967,0.233,1.833,0.133,2.6-0.3c0.867-0.467,1.317-1.233,1.35-2.3l-0.4,0.05c-0.267,0.267-0.533,0.333-0.8,0.2
				c-0.133-0.167-0.217-0.567-0.25-1.2L9.8,69.95 M11.25,74.3c-0.8,0.867-1.983,1.25-3.55,1.15c-1.633-0.133-2.6-0.767-2.9-1.9
				c0.033,0.533-0.133,0.967-0.5,1.3L3.35,75.7c0.5,0.267,0.567,0.717,0.2,1.35c-0.467,0.867-0.7,1.383-0.7,1.55l0.65-0.1l0.55-0.15
				l0.65,2.4c0.333,0.8,0.833,1.283,1.5,1.45l1.1-0.7c0.367-0.467,0.733-0.717,1.1-0.75l0.3,0.65c0.133,0.267,0.35,0.367,0.65,0.3
				c1.033-0.567,1.75-1.117,2.15-1.65l-0.3,0.9c-0.167,0.367-0.233,0.7-0.2,1c0.6-0.233,1.117-0.767,1.55-1.6l1.1-2l-0.8-1
				L12.2,76.2c0.733-0.033,1.217-0.433,1.45-1.2l-1.35-0.2L11.25,74.3 M10.55,81.25C9.717,82.117,9,82.6,8.4,82.7
				c0.1-1.5-0.15-1.983-0.75-1.45L7.4,82.2l-0.45,0.7c-0.533-0.067-1.033-0.283-1.5-0.65l-1.15-1L3,85.4
				c-0.4,1.767-0.45,3.333-0.15,4.7c0.167,0.133,0.433-0.017,0.8-0.45c0.433-0.5,0.883-0.667,1.35-0.5
				c0.333,0.933,0.117,2.167-0.65,3.7C3.583,94.35,3.4,95.6,3.8,96.6c0.8-1,2.033-1.45,3.7-1.35c1.6,0.1,2.767,0.633,3.5,1.6
				l1.45-2.15c0.667-0.733,1.55-1.067,2.65-1c0.033-1.067-0.333-2.383-1.1-3.95c-0.767-1.5-1.117-2.65-1.05-3.45l0.8-0.05l0.85,0.25
				c0-2.7-0.55-4.617-1.65-5.75c-0.567,1.1-1.217,1.75-1.95,1.95c-0.133-0.067-0.2-0.317-0.2-0.75
				C10.833,81.517,10.75,81.283,10.55,81.25 M34.5,82.55l-0.7,2.05l-0.65-1.25c-0.333-0.5-0.517-0.967-0.55-1.4
				c-0.367,0.133-0.633,0.45-0.8,0.95l-0.4,1.45c0.567,1.5,1.85,1.967,3.85,1.4c2-0.6,2.65-1.783,1.95-3.55l-0.25,0.85L36.2,83.4
				l-0.25-1.65c-0.133-0.633-0.367-1.05-0.7-1.25C35.017,80.9,34.767,81.583,34.5,82.55 M30.7,84.6c0.067,0.533-0.1,0.967-0.5,1.3
				l-0.95,0.85c0.5,0.267,0.583,0.7,0.25,1.3c-0.5,0.867-0.733,1.4-0.7,1.6l0.8-0.15c0.2-0.1,0.4-0.05,0.6,0.15
				c-0.1,0.567-0.033,1.1,0.2,1.6l0.55,1.25l-0.75-0.2l-1.25,4.15c-0.433,1.767-0.483,3.333-0.15,4.7
				c0.167,0.133,0.433-0.017,0.8-0.45c0.4-0.5,0.85-0.667,1.35-0.5c0.3,0.933,0.167,1.983-0.4,3.15c-0.667,1.467-1.017,2.5-1.05,3.1
				c1.933-0.367,4.333-0.05,7.2,0.95c0.433-0.667,1.067-1.217,1.9-1.65c0.867-0.467,1.667-0.633,2.4-0.5c0.1-1.267-0.233-2.7-1-4.3
				c-0.8-1.667-1.183-2.883-1.15-3.65l0.85-0.05l0.85,0.3c0.2-1.1-0.117-2.6-0.95-4.5c-0.7-1.533-0.7-2.75,0-3.65l-0.8-1l-0.65-1.15
				c0.667-0.033,1.15-0.433,1.45-1.2l-1.35-0.2L37.2,85.3c-0.833,0.867-2.017,1.25-3.55,1.15C32.017,86.35,31.033,85.733,30.7,84.6
				 M54,51c-0.267,0.4-0.517,1.083-0.75,2.05l-0.7,2.05l-0.65-1.25c-0.333-0.5-0.517-0.967-0.55-1.4
				c-0.367,0.133-0.65,0.45-0.85,0.95l-0.35,1.45C50.717,56.35,52,56.8,54,56.2c1.967-0.6,2.6-1.767,1.9-3.5l-0.25,0.8l-0.7,0.4
				l-0.3-1.65C54.55,51.583,54.333,51.167,54,51 M55.9,55.8c-0.8,0.867-1.983,1.25-3.55,1.15c-1.633-0.1-2.617-0.717-2.95-1.85
				c0.067,0.5-0.083,0.933-0.45,1.3L48,57.25c0.5,0.267,0.567,0.7,0.2,1.3c-0.5,0.833-0.733,1.35-0.7,1.55l0.65-0.05l0.55-0.15
				l0.55,2.05c0.267,0.767,0.65,1.283,1.15,1.55c-0.067-1.133,0.4-2.017,1.4-2.65l0.6,1.2l0.6,1.2c0.367,0,0.667-0.233,0.9-0.7
				c0.267-0.467,0.533-0.717,0.8-0.75l0.75,0.6l1.15,0.1c0.1-0.467,0.35-0.933,0.75-1.4l0.95-1.2l-0.8-1l-0.65-1.2
				c0.667,0,1.15-0.4,1.45-1.2l-1.35-0.2L55.9,55.8 M47.6,55.45c-0.733,0.433-1,0.867-0.8,1.3c0.733-0.2,1.333-0.483,1.8-0.85
				c0.633-0.467,0.833-0.983,0.6-1.55C49.1,54.517,48.567,54.883,47.6,55.45 M49.75,63.4c-0.267-0.4-0.533-0.617-0.8-0.65l-1.3,4.2
				c-0.433,1.733-0.483,3.3-0.15,4.7c0.167,0.133,0.433-0.017,0.8-0.45c0.4-0.5,0.85-0.667,1.35-0.5c0.267,1,0.05,2.25-0.65,3.75
				c-0.767,1.533-1.033,2.917-0.8,4.15c3.933-0.7,6.183-0.3,6.75,1.2l0.55-1l0.4-1.15c0.833-0.1,1.6-0.333,2.3-0.7
				c0.867-0.467,1.383-1.033,1.55-1.7c0.2-0.867-0.15-2.15-1.05-3.85c-0.9-1.733-1.267-2.933-1.1-3.6l0.8-0.05l0.85,0.3
				c0.067-1.133-0.067-2.233-0.4-3.3l-1.05-2.7c-0.6,1.233-1.717,1.233-3.35,0l-0.5,1.4c-0.233,0.533-0.55,0.867-0.95,1
				c-0.533-1.467-1-2.517-1.4-3.15c-0.3,0.533-0.633,1.417-1,2.65C50.267,63.983,49.983,63.8,49.75,63.4"/>
			<path class="st2" d="M55.9,55.8l1.05,0.5l1.35,0.2c-0.3,0.8-0.783,1.2-1.45,1.2l0.65,1.2l0.8,1l-0.95,1.2
				c-0.4,0.467-0.65,0.933-0.75,1.4l-1.15-0.1l-0.75-0.6c-0.267,0.033-0.533,0.283-0.8,0.75c-0.233,0.467-0.533,0.7-0.9,0.7
				l-0.6-1.2l-0.6-1.2c-1,0.633-1.467,1.517-1.4,2.65c-0.5-0.267-0.883-0.783-1.15-1.55L48.7,59.9l-0.55,0.15L47.5,60.1
				c-0.033-0.2,0.2-0.717,0.7-1.55c0.367-0.6,0.3-1.033-0.2-1.3l0.95-0.85c0.367-0.367,0.517-0.8,0.45-1.3
				c0.333,1.133,1.317,1.75,2.95,1.85C53.917,57.05,55.1,56.667,55.9,55.8"/>
			<path class="st2" d="M56.15,46.9c1.4,0.867,2.2,1.917,2.4,3.15c-0.267-0.033-0.55-0.2-0.85-0.5
				c-0.267-0.267-0.55-0.417-0.85-0.45c-0.6,0.033-0.933,0.533-1,1.5c-0.1,1.167-0.25,1.867-0.45,2.1l-0.45-1.1l-0.5-1.1
				c-0.967,0.333-1.6,1.383-1.9,3.15l-0.6-1L51.6,51.5c-1,0.467-1.567,1.183-1.7,2.15c-0.533-0.433-0.683-1.167-0.45-2.2
				c0.2-0.9,0.517-1.533,0.95-1.9l-1.35-0.05l-1.8,0.05c1.833-0.633,3.1-2.083,3.8-4.35c0.5-1.7,0.75-4.167,0.75-7.4l0.9,0.05
				c0.367,0,0.55-0.1,0.55-0.3l0.5,4.7c0.167,1.767,0.567,2.917,1.2,3.45c0.167-0.133,0.517-0.217,1.05-0.25l1.1-0.2L56.15,46.9"/>
			<path class="st3" d="M53.25,53.05C53.483,52.083,53.733,51.4,54,51c0.333,0.167,0.55,0.583,0.65,1.25l0.3,1.65l0.7-0.4l0.25-0.8
				c0.7,1.733,0.067,2.9-1.9,3.5c-2,0.6-3.283,0.15-3.85-1.35l0.35-1.45c0.2-0.5,0.483-0.817,0.85-0.95
				c0.033,0.433,0.217,0.9,0.55,1.4l0.65,1.25L53.25,53.05"/>
			<path class="st2" d="M53.25,24.6c0,0.5-0.233,0.983-0.7,1.45c0.3,0.667,0.85,1.55,1.65,2.65c-0.033,0.167-0.117,0.2-0.25,0.1
				l-0.45,0.1l0.15,1.3l0.1,1.35c-0.7,0.1-1.317,0.367-1.85,0.8l-1.3,1.35c1.467,9.733-0.05,14.783-4.55,15.15
				c0.167,0.633,0.6,1.033,1.3,1.2h2.05c-0.333,0.4-0.55,0.983-0.65,1.75c-0.133,0.8-0.067,1.5,0.2,2.1C47.783,54.5,47,55,46.6,55.4
				c-0.7,0.7-1.033,1.633-1,2.8l-0.5-1.25c-0.167-0.633-0.4-1.017-0.7-1.15c-0.5,0.3-0.867,1.3-1.1,3
				c-0.2,1.533-0.717,2.367-1.55,2.5v-1.05L41.5,59.4l-1.85,2.25c-0.733,0.933-1.483,1.55-2.25,1.85
				c0.1-0.767-0.183-1.717-0.85-2.85c-0.767-1.333-1.2-2.317-1.3-2.95c0.967,0.233,1.817-0.067,2.55-0.9l2.1-2.25
				c0.1,0.167,0.25,0.083,0.45-0.25c0.433-0.233,0.9-0.367,1.4-0.4l-0.25-0.75c0.867-0.5,1.717-1.333,2.55-2.5l2-3
				c0.1-0.733-0.133-1.05-0.7-0.95c0.767-0.633,1.35-1.533,1.75-2.7c0.433-1.3,0.4-2.4-0.1-3.3l0.7-1.75l0.5-1.85l0.55,0.05
				l0.45,0.65c0.267-0.1,0.317-0.3,0.15-0.6c-0.2-0.4-0.25-0.683-0.15-0.85c-0.2-0.233-0.45-0.183-0.75,0.15
				c-0.267,0.333-0.5,0.367-0.7,0.1c-0.2-0.233-0.283-0.783-0.25-1.65c0.033-0.633-0.283-0.967-0.95-1
				c0.4-0.733,0.55-1.617,0.45-2.65c0.6-0.033,1.217,0.133,1.85,0.5c0.633,0.367,1.15,0.533,1.55,0.5
				c1.4-0.233,2.05-1.283,1.95-3.15c-0.067-1.333-0.483-2.85-1.25-4.55l1.15,0.1L53.25,24.6"/>
			<path class="st4" d="M53.75,32.05c0.767,0.8,1.05,1.767,0.85,2.9c-0.2,1.133-0.8,1.683-1.8,1.65c-1.3-0.067-1.867-0.867-1.7-2.4
				C51.3,32.667,52.183,31.95,53.75,32.05"/>
			<path class="st5" d="M40.55,16.9l-0.1,0.1l-1.35-1.3c-0.233,0.133-0.167,0.283,0.2,0.45c0.467,0.233,0.633,0.483,0.5,0.75
				l-4.4,2.8c-1.9,1.1-3.7,1.533-5.4,1.3c-0.767-0.1-1.767-0.483-3-1.15c-1.3-0.7-2.3-1.117-3-1.25
				c-1.667-2.333-2.067-4.25-1.2-5.75h-0.25c0.4-1,1.083-1.783,2.05-2.35c0.9-0.5,1.9-0.733,3-0.7C27.233,9.167,26.367,9,25,9.3
				l-4.05,1.05c-3.5,0.767-5.183-0.633-5.05-4.2l1.3-1.2l1.45-1.05C18.983,3.5,19.1,2.967,19,2.3l-0.25-1.65l4.4,0.15l4.05,1.85
				l-0.35,0.1l4.55,4.1l-3.6-3.6c1.467-0.033,2.883,0.6,4.25,1.9l3.2,3.6c0.333,0.033,0.517-0.283,0.55-0.95
				c0.033-0.633-0.067-1.033-0.3-1.2c1.633-0.033,3.05,0.717,4.25,2.25c1.167,1.533,1.683,3.233,1.55,5.1l-1-0.15l0.95,0.45L41,15.5
				c0.5,0.933,1.55,2.117,3.15,3.55l4.2,3.7c3.233,3.167,3.983,6.017,2.25,8.55l-5.25-1.65c-0.567-0.767-0.733-1.933-0.5-3.5
				c0.267-1.967,0.35-3.2,0.25-3.7c-0.233-1.067-0.75-2.033-1.55-2.9l-2.5-2.1L40.55,16.9 M48.95,26.3l1,0.55l0.9,0.65
				c-0.033-1.1-0.467-2-1.3-2.7c-0.767-0.667-1.617-0.967-2.55-0.9c-0.267,0.4-0.317,1.133-0.15,2.2c0.167,1,0.383,1.467,0.65,1.4
				c-0.133-0.133-0.233-0.467-0.3-1c-0.033-0.533,0.067-0.85,0.3-0.95c0.533,0.1,0.833,0.483,0.9,1.15
				c0.133,0.867,0.317,1.45,0.55,1.75L48.2,28.3l-0.45-0.35c0.033,0.333,0.233,0.583,0.6,0.75c0.367,0.167,0.65,0.167,0.85,0
				c0.1-0.4-0.033-0.9-0.4-1.5C48.533,26.767,48.583,26.467,48.95,26.3 M37.05,9.6c1.6,1.367,2.683,2.767,3.25,4.2
				c0.1-0.633-0.283-1.45-1.15-2.45C38.383,10.483,37.683,9.9,37.05,9.6 M24.95,4.9c0.6,1.4,0.833,1.733,0.7,1
				c-1.333-2.3-2.85-3.183-4.55-2.65C22.467,3.15,23.75,3.7,24.95,4.9 M26.6,18.05c1.867,0.967,3.817,1.167,5.85,0.6l0.45-0.5
				l0.2-0.85c0.5-1.433,0.2-2.8-0.9-4.1c-1.133-1.333-2.467-1.767-4-1.3c-1.5-0.033-2.85,0.417-4.05,1.35
				C23.683,15.383,24.5,16.983,26.6,18.05"/>
			<path class="st1" d="M48.8,27.2c0.367,0.6,0.5,1.1,0.4,1.5c-0.2,0.167-0.483,0.167-0.85,0c-0.367-0.167-0.567-0.417-0.6-0.75
				l0.45,0.35l0.75,0.15c-0.233-0.3-0.417-0.883-0.55-1.75c-0.067-0.667-0.367-1.05-0.9-1.15c-0.233,0.1-0.333,0.417-0.3,0.95
				c0.067,0.533,0.167,0.867,0.3,1c-0.267,0.067-0.483-0.4-0.65-1.4c-0.167-1.067-0.117-1.8,0.15-2.2
				c0.933-0.067,1.783,0.233,2.55,0.9c0.833,0.7,1.267,1.6,1.3,2.7l-0.9-0.65l-1-0.55C48.583,26.467,48.533,26.767,48.8,27.2"/>
			<path class="st2" d="M48.05,18.35c1.267,1.133,1.967,2.017,2.1,2.65l-0.85,0.15c-0.267,0.067-0.383,0.25-0.35,0.55
				c-0.533-0.733-1.767-1.667-3.7-2.8c-1.7-1-2.783-2.067-3.25-3.2c-0.167-0.333-0.25-0.783-0.25-1.35l2.9,0.7L47,15.7
				C46.667,16.533,47.017,17.417,48.05,18.35"/>
			<path class="st6" d="M41,45l-0.6-1.3c-0.267-0.467-0.617-0.75-1.05-0.85c2.667-0.233,5.067-2.4,7.2-6.5
				c0.267-0.067,0.433,0.033,0.5,0.3c0.1,0.333,0.25,0.483,0.45,0.45C46.533,41.533,44.367,44.167,41,45"/>
			<path class="st5" d="M44.4,27.5c-0.767-1-2.233-2.1-4.4-3.3c-2.233-1.267-3.733-2.333-4.5-3.2c-0.067,0.267,0.233,0.617,0.9,1.05
				l1.5,1.1l-4.05-0.1c-1.933-0.1-2.983-0.617-3.15-1.55c0.433,0.133,1.25-0.033,2.45-0.5c0.867-0.333,1.25-0.167,1.15,0.5
				c0.333-1,1.25-1.867,2.75-2.6c1.9-0.9,3.033-1.533,3.4-1.9l0.6,0.45c1.5,1.633,2.483,2.967,2.95,4
				C44.833,23.25,44.967,25.267,44.4,27.5"/>
			<path class="st1" d="M41.3,13.95c0.133-1.867-0.383-3.567-1.55-5.1c-1.2-1.533-2.617-2.283-4.25-2.25
				c0.233,0.167,0.333,0.567,0.3,1.2c-0.033,0.667-0.217,0.983-0.55,0.95l-3.2-3.6c-1.367-1.3-2.783-1.933-4.25-1.9l3.6,3.6
				l-4.55-4.1l0.35-0.1L27.1,2.3C28.9,2.433,30.483,3,31.85,4c0.967,0.7,2.017,1.8,3.15,3.3c-0.133-0.467-0.133-0.817,0-1.05
				l0.75-0.6c1.667,0.6,2.95,1.283,3.85,2.05c1.1,0.9,1.817,2.05,2.15,3.45v2.9L41.3,13.95"/>
			<path class="st1" d="M41.75,14.05v0.3l-0.5-0.1l0.05-0.3L41.75,14.05"/>
			<path class="st0" d="M39.6,86.05c-0.3,0.767-0.783,1.167-1.45,1.2l0.65,1.15l0.8,1c-0.7,0.9-0.7,2.117,0,3.65
				c0.833,1.9,1.15,3.4,0.95,4.5l-0.85-0.3l-0.85,0.05c-0.033,0.767,0.35,1.983,1.15,3.65c0.767,1.6,1.1,3.033,1,4.3
				c-0.733-0.133-1.533,0.033-2.4,0.5c-0.833,0.433-1.467,0.983-1.9,1.65c-2.867-1-5.267-1.317-7.2-0.95
				c0.033-0.6,0.383-1.633,1.05-3.1c0.567-1.167,0.7-2.217,0.4-3.15c-0.5-0.167-0.95,0-1.35,0.5c-0.367,0.433-0.633,0.583-0.8,0.45
				c-0.333-1.367-0.283-2.933,0.15-4.7l1.25-4.15l0.75,0.2l-0.55-1.25c-0.233-0.5-0.3-1.033-0.2-1.6c-0.2-0.2-0.4-0.25-0.6-0.15
				l-0.8,0.15c-0.033-0.2,0.2-0.733,0.7-1.6c0.333-0.6,0.25-1.033-0.25-1.3l0.95-0.85c0.4-0.333,0.567-0.767,0.5-1.3
				c0.333,1.133,1.317,1.75,2.95,1.85c1.533,0.1,2.717-0.283,3.55-1.15l1.05,0.55L39.6,86.05"/>
			<path class="st1" d="M41.05,17.45L40.45,17l0.1-0.1L41.05,17.45"/>
			<path class="st6" d="M38.4,42.1c1.067,0.933,1.85,2.75,2.35,5.45c0.567,2.867,0.417,5.017-0.45,6.45l-2.1,1.3
				c-0.667,0.533-0.85,1.017-0.55,1.45l-0.6,0.45l-0.75-0.1c1.3-1.2,2.017-3.3,2.15-6.3c0.1-3.033-0.483-5.2-1.75-6.5l1.15-0.8
				C38.25,43.167,38.433,42.7,38.4,42.1"/>
			<path class="st1" d="M37.05,9.6c0.633,0.3,1.333,0.883,2.1,1.75c0.867,1,1.25,1.817,1.15,2.45
				C39.733,12.367,38.65,10.967,37.05,9.6"/>
			<path class="st6" d="M39.35,25.1c0.4-0.033,0.75,0.083,1.05,0.35l0.85,0.6l-3,2.6c-1.1,1.1-1.783,2.317-2.05,3.65
				c-0.6,0.267-1.233,0.183-1.9-0.25C34.9,29.017,36.583,26.7,39.35,25.1"/>
			<path class="st2" d="M34.95,71.8c0.2,1.633,0.617,2.783,1.25,3.45l1.05-0.3l1.15-0.2l-1,1.7c1.4,0.867,2.2,1.9,2.4,3.1l-0.8-0.5
				c-0.3-0.267-0.583-0.417-0.85-0.45c-0.6,0.033-0.95,0.533-1.05,1.5l-0.4,2.1l-0.5-1.05l-0.45-1.1c-1,0.367-1.65,1.4-1.95,3.1
				l-0.55-1L32.85,81c-1.033,0.533-1.583,1.25-1.65,2.15c-0.533-0.4-0.683-1.117-0.45-2.15c0.167-0.9,0.467-1.533,0.9-1.9L30.3,79
				l-1.75,0.1c1.867-0.667,3.167-2.267,3.9-4.8c0.6-2.167,0.733-4.733,0.4-7.7h1.1l0.85,0.25C34.8,69.25,34.85,70.9,34.95,71.8"/>
			<path class="st6" d="M38.15,29.15c0.167,0.367,0.167,0.95,0,1.75l-0.5,1.85c-0.567-0.5-0.717-1.083-0.45-1.75L38.15,29.15"/>
			<path class="st7" d="M34.3,40.2l2.85-0.1c0.7,0.167,0.95,1.083,0.75,2.75L37,43.4l-1.25,0.15c0.167-0.833,0.017-1.567-0.45-2.2
				L34.3,40.2"/>
			<path class="st6" d="M38.6,24.35l-1.55,1.45c-0.667,0.567-1.1,1.133-1.3,1.7c-0.167-0.133-0.267-0.55-0.3-1.25
				c-0.033-0.667-0.183-1.05-0.45-1.15c0.1-0.1,0.45-0.233,1.05-0.4c0.467-0.133,0.683-0.4,0.65-0.8L38.6,24.35"/>
			<path class="st3" d="M31.4,84.35l0.4-1.45c0.167-0.5,0.433-0.817,0.8-0.95c0.033,0.433,0.217,0.9,0.55,1.4l0.65,1.25l0.7-2.05
				c0.267-0.967,0.517-1.65,0.75-2.05c0.333,0.2,0.567,0.617,0.7,1.25l0.25,1.65l0.75-0.35l0.25-0.85c0.7,1.767,0.05,2.95-1.95,3.55
				C33.25,86.317,31.967,85.85,31.4,84.35"/>
			<path class="st7" d="M36.7,32.5c0.2,0.633,0.283,1.367,0.25,2.2l-0.9,0.55L35,35.65c0.033-0.7-0.167-1.45-0.6-2.25l-0.8-1.35
				C34.4,32.75,35.433,32.9,36.7,32.5"/>
			<path class="st6" d="M36.2,35.9v1.9c0.033,0.733,0.2,1.217,0.5,1.45c-0.233,0.567-0.867,0.8-1.9,0.7
				c-0.4-1.333-0.617-2.3-0.65-2.9C34.15,35.983,34.833,35.6,36.2,35.9"/>
			<path class="st4" d="M35.75,60.35c0.867,0.6,1.15,1.583,0.85,2.95c-0.367,1.633-0.65,2.017-0.85,1.15c-0.4,0.7-1.1,1-2.1,0.9
				s-1.667-0.483-2-1.15c-0.2-1.467,0.117-2.567,0.95-3.3C33.433,60.233,34.483,60.05,35.75,60.35"/>
			<path class="st6" d="M34.3,40.9c0.733,0.367,1.05,1.1,0.95,2.2c-1.233,0.2-2.183,0.667-2.85,1.4c-0.167-0.133-0.267-0.5-0.3-1.1
				c-0.067-0.6-0.217-0.95-0.45-1.05c0.167-0.233,0.633-0.433,1.4-0.6C33.783,41.583,34.2,41.3,34.3,40.9"/>
			<path class="st2" d="M8.35,24.05l-0.7,0.8c-0.133-0.167-0.05-0.5,0.25-1c0.4-0.567,0.567-1.033,0.5-1.4L7.65,22.4L6.7,22.7
				c0.2-1.2,0.933-2.067,2.2-2.6c0.333-0.167,1.6-0.5,3.8-1l-0.8,1.45c-0.467,0.8-0.433,1.433,0.1,1.9l2.15-1.7l0.35,1.95
				c0.1,0.8,0.467,1.2,1.1,1.2c-0.767,0.7-1.133,1.75-1.1,3.15l0.35,4.05l-0.55-0.45l-0.4-0.55c-1.6,4.1-1.683,7.15-0.25,9.15
				c-0.4,0.033-1.367-0.3-2.9-1c-0.667-0.3-1.05,0.267-1.15,1.7c-0.067,0.8,0.233,1.683,0.9,2.65l1.5,1.9
				c0.033,0.567-0.3,0.817-1,0.75l0.6,0.8l0.4,1.1c0.133-0.033,0.2-0.35,0.2-0.95h1.95c-0.067,0.4-0.417,0.683-1.05,0.85
				c-0.733,0.2-1.183,0.4-1.35,0.6l1.4,2.2c0.633,0.867,1.05,1.65,1.25,2.35c0.067,0.333-0.067,0.567-0.4,0.7l-0.6,0.5
				c0.467,1.267,1.667,1.9,3.6,1.9l-0.35,0.5c-0.133,0.167-0.167,0.4-0.1,0.7l3.3,1.65l3.4,1.5c0.767,0.5,1.667,0.7,2.7,0.6
				c1.1-0.067,1.883-0.433,2.35-1.1c0.3,0.333,0.717,0.483,1.25,0.45l1.65-0.2l0.15-0.65l-0.15-0.8
				c0.867-0.467,1.767-0.583,2.7-0.35c1.033,0.3,1.483,0.983,1.35,2.05l-1.8,0.2c-0.333,0.1-0.85,0.35-1.55,0.75
				c-0.2-0.167-0.25-0.383-0.15-0.65l-0.1-0.55c-0.333,0.167-0.483,0.45-0.45,0.85c0.067,0.4,0.3,0.6,0.7,0.6
				c-0.433,0.3-0.683,1.017-0.75,2.15c-0.1,1.033-0.017,1.917,0.25,2.65c-0.2,0.367-0.867,0.533-2,0.5l-2.3,0.2
				c0.067,0.5,0.233,0.817,0.5,0.95l-4.2,0.2c-1.6-0.467-2.683-1.25-3.25-2.35l1.95-0.3c0.9-0.067,1.45-0.283,1.65-0.65
				c-0.2-0.967-0.917-1.767-2.15-2.4c0.067-0.133,0.4-0.4,1-0.8c0.433-0.267,0.567-0.717,0.4-1.35c-0.4,0.633-1.033,1.183-1.9,1.65
				c0.033,0.6,0.317,1.1,0.85,1.5l1.3,0.9c-0.8,0.533-1.85,0.667-3.15,0.4c-1.1-0.2-2.05-0.567-2.85-1.1
				c-0.333,0.033-0.483,0.217-0.45,0.55c0.067,0.333,0.217,0.55,0.45,0.65c-0.667,0.133-1.383-0.15-2.15-0.85l-1.7-2.05
				c-0.333,0.033-0.567,0.25-0.7,0.65L12.45,63c-1.833,0.233-2.817-0.983-2.95-3.65c-0.133-2.3,0.217-4.2,1.05-5.7
				c0.467-1.767,0.033-3.067-1.3-3.9c-1.3-0.767-2.55-0.667-3.75,0.3c-0.333,0-0.6-0.133-0.8-0.4l-0.4-0.8
				c-0.567,0.3-0.8,0.7-0.7,1.2c-0.4-0.4-0.667-1.017-0.8-1.85l-0.2-2.5c-0.2,0.433-0.667,0.517-1.4,0.25c1.6-0.967,2.4-3.2,2.4-6.7
				c-0.267,0-0.433,0.2-0.5,0.6L2.85,40.7c-0.367-0.3-0.6-0.85-0.7-1.65c-0.1-0.8-0.017-1.45,0.25-1.95l-0.5,0.05L1.4,37.8
				c0-1.1,0.9-2.433,2.7-4c1.733-1.5,2.517-3.133,2.35-4.9c-0.367,0.367-0.6,0.85-0.7,1.45c-1.2-0.033-2.083,0.367-2.65,1.2
				c-0.267-1.6,0.483-3.017,2.25-4.25c2.067-1.5,3.233-2.717,3.5-3.65C8.75,23.483,8.583,23.617,8.35,24.05"/>
			<path class="st6" d="M30,34.45c0.767-0.1,1.783-0.45,3.05-1.05c0.9-0.2,1.317,0.55,1.25,2.25l-1.9,0.5l-1.7,0.7V35.3
				C30.633,34.733,30.4,34.45,30,34.45"/>
			<path class="st8" d="M28.2,11.9c1.533-0.467,2.867-0.033,4,1.3c1.1,1.3,1.4,2.667,0.9,4.1l-4.4-0.25
				c-1.7-0.567-2.467-1.6-2.3-3.1c0.1-0.333,0.4-0.683,0.9-1.05L28.2,11.9"/>
			<path class="st5" d="M28.7,17.05l4.4,0.25l-0.2,0.85l-0.45,0.5c-2.033,0.567-3.983,0.367-5.85-0.6
				c-2.1-1.067-2.917-2.667-2.45-4.8c1.2-0.933,2.55-1.383,4.05-1.35l-0.9,1c-0.5,0.367-0.8,0.717-0.9,1.05
				C26.233,15.45,27,16.483,28.7,17.05"/>
			<path class="st7" d="M31.2,42.35c0.567,1.133,0.617,2.05,0.15,2.75c-0.433,0.633-1.1,0.95-2,0.95c-0.867,0-1.533-0.283-2-0.85
				c-0.533-0.667-0.533-1.533,0-2.6c0.433,0.633,1.05,0.833,1.85,0.6L31.2,42.35"/>
			<path class="st6" d="M29.25,38.75c0.3,0.267,0.5,0.85,0.6,1.75l0.35,1.85l-1.15,0.55l-1.25-0.05c0.067-1.633,0-2.833-0.2-3.6
				C28.533,39.083,29.083,38.917,29.25,38.75"/>
			<path class="st7" d="M29.5,34.7c0.833,0.633,1.117,1.3,0.85,2c-0.2,0.633-0.7,1.083-1.5,1.35l-1.8-0.1
				c-0.533-0.467-0.6-1.317-0.2-2.55l1.55,0.15L29.5,34.7"/>
			<path class="st6" d="M29.25,34.7c-0.2,0-0.45,0.1-0.75,0.3l-0.9,0.15c-1.233-1-1.883-2.917-1.95-5.75
				c-0.067-2.433,0.25-4.667,0.95-6.7l1.3,0.4l1.1,0.55c-0.7,1.433-0.983,3.267-0.85,5.5C28.25,31.05,28.617,32.9,29.25,34.7"/>
			<path class="st6" d="M29.75,46.9c-1.433,1.733-2.683,2.967-3.75,3.7c-1.633,1.133-3.5,1.75-5.6,1.85l-0.25-2.4
				c3.2-0.533,5.433-1.9,6.7-4.1l1.35,0.6L29.75,46.9"/>
			<path class="st6" d="M26.4,45c0.1,0.767-0.25,1.483-1.05,2.15L23,48.6l1.4-2.1C25.133,45.433,25.8,44.933,26.4,45"/>
			<path class="st6" d="M27.6,58.9c-0.167,0.333-0.617,0.5-1.35,0.5h-1.8c-1.067-1.433-1.783-3.433-2.15-6
				c0.6-0.167,1.483-0.567,2.65-1.2l0.75,3.95C26.1,57.55,26.733,58.467,27.6,58.9"/>
			<path class="st6" d="M19,34.8c2.467-0.533,4.933-0.5,7.4,0.1l-0.25,1c-0.2,0.333-0.283,0.65-0.25,0.95
				c-3.1-0.367-5.867,0.167-8.3,1.6c-2.067,1.233-3.783,3.017-5.15,5.35c-0.867-0.633-1.45-1.217-1.75-1.75
				c-0.567-0.867-0.617-1.8-0.15-2.8c0.067-0.167,0.55-0.033,1.45,0.4l2.4,0.05c-0.033-0.533-0.283-1.167-0.75-1.9
				C14.65,36.333,16.433,35.333,19,34.8"/>
			<path class="st1" d="M25.65,5.9c0.133,0.733-0.1,0.4-0.7-1c-1.2-1.2-2.483-1.75-3.85-1.65C22.8,2.717,24.317,3.6,25.65,5.9"/>
			<path class="st2" d="M22,17.15c0.467,1.133,1.2,1.933,2.2,2.4c-1.967,0.867-3.4,1.567-4.3,2.1c-1.5,0.933-2.383,2.15-2.65,3.65
				c-0.333-0.967-1.133-1.767-2.4-2.4c0.067-1.033-0.017-1.833-0.25-2.4c-0.667,0.033-1.383,0.433-2.15,1.2
				c-0.333-0.533-0.267-1.083,0.2-1.65l1.25-1.2l-0.9-0.1l-1,0.35l-0.7-0.45c-0.2-0.267-0.45-0.367-0.75-0.3l2-0.5
				c0.8-0.2,1.333-0.517,1.6-0.95c-0.067-0.233-0.167-0.233-0.3,0c-0.233,0.3-0.45,0.383-0.65,0.25l0.35-0.45l0.35-0.5
				c-0.133-0.4-0.467-0.65-1-0.75l-1.15-0.2c0.667-0.9,1.783-1.267,3.35-1.1L18.95,15c0.1-0.767-0.15-1.25-0.75-1.45h1.65l1.95-0.25
				C21.433,14.667,21.5,15.95,22,17.15"/>
			<path class="st7" d="M17.5,49.55c1.1-0.167,1.8,0.333,2.1,1.5c0.267,1.133,0.05,2-0.65,2.6L17,53.4
				c0.3-0.267,0.433-0.85,0.4-1.75C17.333,50.583,17.367,49.883,17.5,49.55"/>
			<path class="st6" d="M17,50.3v2.15l-0.9-0.2l-1-0.05l-0.6-1.45l-0.6-1.45l1.6,0.5C16.267,49.9,16.767,50.067,17,50.3"/>
			<path class="st0" d="M12.95,86.3c-0.067,0.8,0.283,1.95,1.05,3.45c0.767,1.567,1.133,2.883,1.1,3.95
				c-1.1-0.067-1.983,0.267-2.65,1L11,96.85c-0.733-0.967-1.9-1.5-3.5-1.6c-1.667-0.1-2.9,0.35-3.7,1.35
				c-0.4-1-0.217-2.25,0.55-3.75c0.767-1.533,0.983-2.767,0.65-3.7c-0.467-0.167-0.917,0-1.35,0.5
				c-0.367,0.433-0.633,0.583-0.8,0.45C2.55,88.733,2.6,87.167,3,85.4l1.3-4.15l1.15,1c0.467,0.367,0.967,0.583,1.5,0.65l0.45-0.7
				l0.25-0.95c0.6-0.533,0.85-0.05,0.75,1.45c0.6-0.1,1.317-0.583,2.15-1.45c0.2,0.033,0.283,0.267,0.25,0.7
				c0,0.433,0.067,0.683,0.2,0.75c0.733-0.2,1.383-0.85,1.95-1.95c1.1,1.133,1.65,3.05,1.65,5.75l-0.85-0.25L12.95,86.3"/>
			<path class="st2" d="M12.2,76.2l0.65,1.15l0.8,1l-1.1,2c-0.433,0.833-0.95,1.367-1.55,1.6c-0.033-0.3,0.033-0.633,0.2-1l0.3-0.9
				c-0.4,0.533-1.117,1.083-2.15,1.65c-0.3,0.067-0.517-0.033-0.65-0.3l-0.3-0.65c-0.367,0.033-0.733,0.283-1.1,0.75l-1.1,0.7
				c-0.667-0.167-1.167-0.65-1.5-1.45l-0.65-2.4L3.5,78.5l-0.65,0.1c0-0.167,0.233-0.683,0.7-1.55c0.367-0.633,0.3-1.083-0.2-1.35
				l0.95-0.85c0.367-0.333,0.533-0.767,0.5-1.3c0.3,1.133,1.267,1.767,2.9,1.9c1.567,0.1,2.75-0.283,3.55-1.15l1.05,0.5l1.35,0.2
				C13.417,75.767,12.933,76.167,12.2,76.2"/>
			<path class="st2" d="M9.1,56.05c-0.5,3.8-0.1,6.683,1.2,8.65c0.2-0.067,0.217-0.217,0.05-0.45c-0.267-0.333-0.367-0.583-0.3-0.75
				c0.333,0.3,0.717,0.417,1.15,0.35l1.25-0.35c0.033,0.4-0.083,0.75-0.35,1.05l-0.6,0.85c1.4,0.867,2.2,1.9,2.4,3.1
				c-0.233-0.033-0.5-0.2-0.8-0.5c-0.3-0.267-0.6-0.417-0.9-0.45c-0.667,0-0.983,0.55-0.95,1.65L11,71.65l-0.6-1.05
				c-0.2-0.533-0.467-0.833-0.8-0.9c-1,0.2-1.567,1.083-1.7,2.65c-0.4-0.567-0.633-1.283-0.7-2.15c-0.433,0.067-0.8,0.333-1.1,0.8
				l-0.85,1.1c-0.533-0.4-0.683-1.117-0.45-2.15c0.2-0.9,0.517-1.533,0.95-1.9L3.95,68l-1.8,0.05c2.067-0.8,3.483-2.233,4.25-4.3
				c0.633-1.7,0.9-4.183,0.8-7.45l1.05-0.35L9.1,56.05"/>
			<path class="st3" d="M10.3,72.35c0.267,0.133,0.533,0.067,0.8-0.2l0.4-0.05c-0.033,1.067-0.483,1.833-1.35,2.3
				c-0.767,0.433-1.633,0.533-2.6,0.3C6.617,74.467,6,74.017,5.7,73.35c-0.333-0.733-0.083-1.55,0.75-2.45l1.45,2.65l0.7-2.05
				c0.2-0.933,0.6-1.45,1.2-1.55l0.25,1.2C10.083,71.783,10.167,72.183,10.3,72.35"/>
			<path class="st4" d="M5.25,51.95c0-0.933,0.333-1.567,1-1.9c0.6-0.3,1.267-0.3,2,0c1.967,0.767,2.333,2.117,1.1,4.05l-2.8,0.05
				C5.683,53.583,5.25,52.85,5.25,51.95"/>
			<path class="st9" d="M33.1,17.3c0.5-1.433,0.2-2.8-0.9-4.1c-1.133-1.333-2.467-1.767-4-1.3"/>
			<path class="st10" d="M33.1,17.3l-0.2,0.85l-0.45,0.5c-2.033,0.567-3.983,0.367-5.85-0.6c-2.1-1.067-2.917-2.667-2.45-4.8
				c1.2-0.933,2.55-1.383,4.05-1.35"/>
			<path class="st11" d="M33.1,17.3l-4.4-0.25c-1.7-0.567-2.467-1.6-2.3-3.1c0.1-0.333,0.4-0.683,0.9-1.05l0.9-1"/>
			<path class="st11" d="M27.2,2.65L23.15,0.8l-4.4-0.15L19,2.3c0.1,0.667-0.017,1.2-0.35,1.6L17.2,4.95l-1.3,1.2
				c-0.133,3.567,1.55,4.967,5.05,4.2L25,9.3c1.367-0.3,2.233-0.133,2.6,0.5c-1.1-0.033-2.1,0.2-3,0.7
				c-0.967,0.567-1.65,1.35-2.05,2.35"/>
		</g>
	</g>
</g>
<g transform="matrix(1.0, 0.0, 0.0, 1.0, 0.0, -0.05)">
	<g transform="matrix(1.0, 0.0, 0.0, 1.0, 0.0, 0.05)">
		<g id="shape0_1_" transform="matrix(1.0, 0.0, 0.0, 1.0, 0.0, -0.05)">
			<path class="st0" d="M48.3,71.2c-0.367,0.433-0.633,0.583-0.8,0.45c-0.333-1.4-0.283-2.967,0.15-4.7l1.3-4.2
				c0.267,0.033,0.533,0.25,0.8,0.65c0.233,0.4,0.517,0.583,0.85,0.55c0.367-1.233,0.7-2.117,1-2.65c0.4,0.633,0.867,1.683,1.4,3.15
				c0.4-0.133,0.717-0.467,0.95-1l0.5-1.4c1.633,1.233,2.75,1.233,3.35,0l1.05,2.7c0.333,1.067,0.467,2.167,0.4,3.3l-0.85-0.3
				l-0.8,0.05c-0.167,0.667,0.2,1.867,1.1,3.6c0.9,1.7,1.25,2.983,1.05,3.85c-0.167,0.667-0.683,1.233-1.55,1.7
				c-0.7,0.367-1.467,0.6-2.3,0.7l-0.4,1.15l-0.55,1c-0.567-1.5-2.817-1.9-6.75-1.2c-0.233-1.233,0.033-2.617,0.8-4.15
				c0.7-1.5,0.917-2.75,0.65-3.75C49.15,70.533,48.7,70.7,48.3,71.2"/>
			<path class="st1" d="M47,15.7l-2.35-0.65l-2.9-0.7c0,0.567,0.083,1.017,0.25,1.35c0.467,1.133,1.55,2.2,3.25,3.2
				c1.933,1.133,3.167,2.067,3.7,2.8c-0.033-0.3,0.083-0.483,0.35-0.55L50.15,21c-0.133-0.633-0.833-1.517-2.1-2.65
				C47.016,17.416,46.666,16.533,47,15.7 M49.2,15.5c-0.067,0.267-0.383,0.467-0.95,0.6c-0.533,0.133-0.783,0.4-0.75,0.8l1.95,1.8
				c0.767,0.7,1.233,1.467,1.4,2.3c0,0.3-0.233,0.467-0.7,0.5l-0.95,0.2c0.033,1.033,0.617,1.7,1.75,2L54,23.9
				c-0.5,1.067-0.583,2.017-0.25,2.85l1.2,2.65c-0.667,0.6-0.767,1.467-0.3,2.6c0.667,1.667,1,2.717,1,3.15
				c-1.767,1.2-2,4.483-0.7,9.85c0.833,0.167,1.467-0.033,1.9-0.6l1.2-1.3c0.1,0.767,0.033,1.483-0.2,2.15L57.1,46.9
				c0.7,0.2,1.283,0.767,1.75,1.7c0.4,0.867,0.533,1.667,0.4,2.4c-0.467,0.133-1-0.117-1.6-0.75c-0.5-0.533-0.85-0.6-1.05-0.2
				l-0.1,2.65l-0.1,2.6c0.467,0.333,1.033,0.45,1.7,0.35l1.15-0.35c-0.033,1.067-0.517,2.033-1.45,2.9c0.7,0.733,1.1,1.45,1.2,2.15
				l-0.5,0.45c-0.233,0.133-0.3,0.383-0.2,0.75c0.9,1.267,1.467,3.583,1.7,6.95l-1,0.15l-0.95-0.35c1.667,2.567,2.6,5.95,2.8,10.15
				c0.2,4.667-0.817,7.833-3.05,9.5l-0.5-0.25l-0.45-0.45c0.067,0.733-0.083,1.217-0.45,1.45c-2.467,0.3-4.683-0.983-6.65-3.85
				c-1.9-2.767-2.65-5.567-2.25-8.4c0.1-0.6,0.45-1.467,1.05-2.6c0.533-0.967,0.75-1.783,0.65-2.45c-0.3-0.2-0.667,0.083-1.1,0.85
				c-0.4,0.8-0.767,1.083-1.1,0.85c-0.633-1.767-0.633-3.933,0-6.5c0.833-3.133,1.233-5.05,1.2-5.75l-0.65-0.1
				c-0.433,0.033-0.683-0.1-0.75-0.4c0-0.5,0.167-1,0.5-1.5L48,57.5l-0.9-0.2c-0.3-0.2-0.567-0.3-0.8-0.3l-0.1,1.9
				c-0.067,0.7-0.267,1.183-0.6,1.45c-0.3-0.233-0.533-0.833-0.7-1.8c-0.167-0.933-0.417-1.533-0.75-1.8
				c0.167,3.433-0.883,5.35-3.15,5.75c-0.233-0.133-0.283-0.383-0.15-0.75c0.167-0.367,0.15-0.583-0.05-0.65
				c-0.133,0.933-1.017,1.8-2.65,2.6c-1.7,0.833-2.667,1.633-2.9,2.4c-0.3,0.967-0.25,2.333,0.15,4.1l0.8,4.3
				c0.833,0.167,1.483-0.033,1.95-0.6c0.633-0.8,1.033-1.233,1.2-1.3c0.1,0.8,0.033,1.533-0.2,2.2l-0.75,1.65
				c0.733,0.2,1.317,0.75,1.75,1.65c0.4,0.867,0.533,1.667,0.4,2.4c-0.467,0.133-1-0.117-1.6-0.75c-0.533-0.5-0.883-0.567-1.05-0.2
				l-0.1,2.7c0.067,1.067,0.017,1.933-0.15,2.6c0.667,0.467,1.633,0.467,2.9,0c-0.067,1.067-0.55,2.017-1.45,2.85
				c0.633,0.7,1.033,1.433,1.2,2.2l-0.5,0.4c-0.233,0.167-0.3,0.433-0.2,0.8c0.933,1.333,1.483,3.65,1.65,6.95L40.3,98.2l-0.95-0.4
				c1.633,2.533,2.567,5.883,2.8,10.05c0.2,4.567-0.733,7.783-2.8,9.65c-0.3,0.033-0.55-0.05-0.75-0.25l-0.45-0.5
				c0.033,1.4-0.533,2.017-1.7,1.85c-0.9-0.133-1.85-0.583-2.85-1.35c-1.3-1-2.467-2.617-3.5-4.85
				c-1.133-2.433-1.567-4.583-1.3-6.45c0.067-0.567,0.4-1.433,1-2.6c0.533-0.967,0.75-1.783,0.65-2.45
				c-0.267-0.2-0.617,0.083-1.05,0.85c-0.433,0.8-0.8,1.083-1.1,0.85c-0.667-1.767-0.667-3.917,0-6.45
				c0.833-3.167,1.233-5.1,1.2-5.8l-0.65-0.05c-0.467,0.033-0.733-0.1-0.8-0.4c0.033-0.5,0.217-1.017,0.55-1.55L29.25,87
				c-0.733,0-1.217-0.233-1.45-0.7c1.6-0.433,2.567-1.083,2.9-1.95c-0.4-0.7-0.617-1.5-0.65-2.4c-0.067-1.033,0.15-1.833,0.65-2.4
				h-2.1c-0.667-0.133-1.083-0.533-1.25-1.2c2.3-0.167,3.817-1.55,4.55-4.15c0.567-2,0.65-4.617,0.25-7.85
				c-0.367,0.333-0.917,0.55-1.65,0.65l-1.95-0.15l0.1,0.95l-0.6,0.5l-2.4,0.25c-0.967,0-1.683-0.167-2.15-0.5
				c-0.167,0.233-0.083,0.4,0.25,0.5c0.233,0.067,0.233,0.133,0,0.2c-1.1-0.067-2.05-0.6-2.85-1.6l-1.95-2.45v0.6l-0.25,0.35
				c-2.6-0.567-4.367-1.617-5.3-3.15c0.233,1.467-0.083,2.433-0.95,2.9c0.733,0.2,1.317,0.767,1.75,1.7
				c0.4,0.833,0.533,1.633,0.4,2.4c-0.433,0.133-0.967-0.133-1.6-0.8c-0.467-0.5-0.8-0.567-1-0.2l-0.1,2.6
				c0.067,0.967,0.017,1.867-0.15,2.7c0.7,0.5,1.65,0.5,2.85,0c-0.033,1.033-0.5,2-1.4,2.9c0.633,0.7,1.033,1.417,1.2,2.15
				l-0.55,0.4c-0.233,0.167-0.3,0.433-0.2,0.8c0.967,1.333,1.533,3.65,1.7,6.95c-0.233,0.233-0.55,0.283-0.95,0.15l-1-0.4
				c1.667,2.467,2.6,5.767,2.8,9.9c0.233,4.433-0.617,7.7-2.55,9.8c-0.6-0.033-1.367,0.183-2.3,0.65c-0.833,0.4-1.583,0.5-2.25,0.3
				c-1.467-0.433-2.933-2.017-4.4-4.75c-1.533-2.867-2.15-5.45-1.85-7.75c0.1-0.567,0.45-1.417,1.05-2.55
				c0.533-0.967,0.75-1.783,0.65-2.45c-0.267-0.2-0.617,0.083-1.05,0.85s-0.8,1.033-1.1,0.8c-0.667-1.767-0.667-3.917,0-6.45
				c0.833-3.167,1.233-5.1,1.2-5.8l-0.7-0.05c-0.433,0.033-0.683-0.1-0.75-0.4c0-0.5,0.167-1.017,0.5-1.55l0.7-1.35
				c-0.767,0-1.25-0.233-1.45-0.7c1.533-0.333,2.5-0.983,2.9-1.95c-0.367-0.7-0.6-1.433-0.7-2.2c-0.1-0.933,0.05-1.717,0.45-2.35
				c-1.933,0.367-2.983-0.117-3.15-1.45c2.333-0.467,3.833-1.8,4.5-4c0.5-1.5,0.683-4.167,0.55-8c-1.033-0.767-1.667-1.717-1.9-2.85
				c-0.033-0.1,0.1-0.483,0.4-1.15c0.167-0.467,0.033-0.733-0.4-0.8c-0.2-0.4-0.367-0.417-0.5-0.05C3.85,50.983,3.533,51.166,3.1,51
				l-0.75-1.9c-0.267-0.767-0.333-1.567-0.2-2.4c-0.5,0.067-0.933-0.033-1.3-0.3L0,45.7v-0.45c1.733-0.2,2.533-1.117,2.4-2.75
				c-0.5-2-0.75-3.4-0.75-4.2c0-0.233-0.133-0.217-0.4,0.05L0.7,38.3c-0.133-1.5,0.583-2.883,2.15-4.15c1.6-1.267,2.4-2.367,2.4-3.3
				c-0.733,0.3-1.683,0.933-2.85,1.9c-0.533-1.4-0.383-2.7,0.45-3.9C3.55,27.883,4.6,27.1,6,26.5l-1.1-0.2
				c-0.533-0.033-0.817-0.2-0.85-0.5l1.3-0.25L6.7,25.3l0.95-2.4l-0.8,0.25c-0.333,0.1-0.55,0.017-0.65-0.25
				c0.033-1.2,0.55-2.117,1.55-2.75c0.3-0.2,1.317-0.633,3.05-1.3L9.35,18.2c-0.567-0.3-0.733-0.65-0.5-1.05l2.7,0.2
				c0.967-0.167,1.583-0.55,1.85-1.15c-0.067-0.267-0.467-0.417-1.2-0.45c-0.733-0.033-1.133-0.2-1.2-0.5
				c0.633-0.867,1.733-1.4,3.3-1.6s2.8,0.083,3.7,0.85c0.333-0.067,0.25-0.367-0.25-0.9c-0.6-0.633-0.683-1.133-0.25-1.5
				c0.433,0.433,1.2,0.683,2.3,0.75l2.75-0.25v0.25h0.25c-0.867,1.5-0.467,3.417,1.2,5.75c0.7,0.133,1.7,0.55,3,1.25
				c1.233,0.667,2.233,1.05,3,1.15c1.7,0.233,3.5-0.2,5.4-1.3l4.4-2.8c0.133-0.267-0.033-0.517-0.5-0.75
				c-0.367-0.167-0.433-0.317-0.2-0.45l1.35,1.3c-0.367,0.367-1.5,1-3.4,1.9c-1.5,0.733-2.417,1.6-2.75,2.6
				c0.1-0.667-0.283-0.833-1.15-0.5c-1.2,0.467-2.017,0.633-2.45,0.5c0.167,0.933,1.217,1.45,3.15,1.55l4.05,0.1l-1.5-1.1
				c-0.667-0.433-0.967-0.783-0.9-1.05c0.767,0.867,2.267,1.933,4.5,3.2c2.167,1.2,3.633,2.3,4.4,3.3
				c0.567-2.233,0.433-4.25-0.4-6.05c-0.467-1.033-1.45-2.367-2.95-4l2.5,2.1c0.8,0.867,1.317,1.833,1.55,2.9
				c0.1,0.5,0.017,1.733-0.25,3.7c-0.233,1.567-0.067,2.733,0.5,3.5l5.25,1.65c1.733-2.533,0.983-5.383-2.25-8.55l-4.2-3.7
				c-1.6-1.433-2.65-2.617-3.15-3.55l0.25-1.25l0.5,0.1v-0.3l4,0.95L49.2,15.5 M52.25,24.7l-1.15-0.1
				c0.767,1.7,1.183,3.217,1.25,4.55c0.1,1.867-0.55,2.917-1.95,3.15c-0.4,0.033-0.917-0.133-1.55-0.5S47.6,31.266,47,31.3
				c0.1,1.033-0.05,1.917-0.45,2.65c0.667,0.033,0.983,0.367,0.95,1c-0.033,0.867,0.05,1.417,0.25,1.65
				c0.2,0.267,0.433,0.233,0.7-0.1c0.3-0.333,0.55-0.383,0.75-0.15c-0.1,0.167-0.05,0.45,0.15,0.85c0.167,0.3,0.117,0.5-0.15,0.6
				l-0.45-0.65L48.2,37.1l-0.5,1.85L47,40.7c0.5,0.9,0.533,2,0.1,3.3c-0.4,1.167-0.983,2.067-1.75,2.7c0.567-0.1,0.8,0.217,0.7,0.95
				l-2,3c-0.833,1.167-1.683,2-2.55,2.5l0.25,0.75c-0.5,0.033-0.967,0.167-1.4,0.4l0.35-0.5L40.3,54
				c0.867-1.433,1.017-3.583,0.45-6.45c-0.5-2.7-1.283-4.517-2.35-5.45c0.033,0.6-0.15,1.067-0.55,1.4l-1.15,0.8
				c1.267,1.3,1.85,3.467,1.75,6.5c-0.133,3-0.85,5.1-2.15,6.3h-0.05l-0.2-0.2l-0.8,0.8c0.1,0.633,0.533,1.617,1.3,2.95
				c0.667,1.133,0.95,2.083,0.85,2.85c0.767-0.3,1.517-0.917,2.25-1.85l1.85-2.25l0.25,0.85v1.05c0.833-0.133,1.35-0.967,1.55-2.5
				c0.233-1.7,0.6-2.7,1.1-3c0.3,0.133,0.533,0.517,0.7,1.15l0.5,1.25c-0.033-1.167,0.3-2.1,1-2.8c0.4-0.4,1.183-0.9,2.35-1.5
				c-0.267-0.6-0.333-1.3-0.2-2.1c0.1-0.767,0.317-1.35,0.65-1.75h-2.05c-0.7-0.167-1.133-0.567-1.3-1.2
				c4.5-0.367,6.017-5.417,4.55-15.15l1.3-1.35c0.533-0.433,1.15-0.7,1.85-0.8l-0.1-1.35l-0.15-1.3l0.45-0.1
				c0.133,0.1,0.217,0.067,0.25-0.1c-0.8-1.1-1.35-1.983-1.65-2.65c0.467-0.467,0.7-0.95,0.7-1.45L52.25,24.7 M54.6,34.95
				c0.2-1.133-0.083-2.1-0.85-2.9c-1.567-0.1-2.45,0.617-2.65,2.15c-0.167,1.533,0.4,2.333,1.7,2.4
				C53.8,36.633,54.4,36.083,54.6,34.95 M41.75,26.75c-1,0.4-2.05,1.117-3.15,2.15c0.4,1.333,0.067,3.083-1,5.25
				c-0.967,2.033-1.1,3.817-0.4,5.35c0.6-0.067,1,0.183,1.2,0.75l0.45,1.65c2.033,0.167,3.75-0.583,5.15-2.25
				c0.833-1,1.767-2.733,2.8-5.2c-0.3-0.033-0.6,0.15-0.9,0.55c-0.267,0.333-0.533,0.383-0.8,0.15l0.95-1.9
				c0.367-0.767,0.533-1.567,0.5-2.4C45.716,30.683,44.9,30,44.1,28.8C43.333,27.6,42.55,26.916,41.75,26.75 M46.55,36.35
				c-2.133,4.1-4.533,6.267-7.2,6.5c0.433,0.1,0.783,0.383,1.05,0.85L41,45c3.367-0.833,5.533-3.467,6.5-7.9
				c-0.2,0.033-0.35-0.117-0.45-0.45C46.983,36.383,46.816,36.283,46.55,36.35 M41.55,49.15L41,52.45c1-0.3,1.883-0.983,2.65-2.05
				l1.7-3l-0.65-0.05c-0.467,0.167-0.733,0.1-0.8-0.2l2.15-2.5c0.733-1.233,0.9-2.233,0.5-3c-1.5,2.2-3.35,3.55-5.55,4.05
				C41.666,46.4,41.85,47.55,41.55,49.15 M53.25,37.55c0,0.2-0.183,0.3-0.55,0.3l-0.9-0.05c0,3.233-0.25,5.7-0.75,7.4
				c-0.7,2.267-1.967,3.717-3.8,4.35l1.8-0.05l1.35,0.05c-0.433,0.367-0.75,1-0.95,1.9c-0.233,1.033-0.083,1.767,0.45,2.2
				c0.133-0.967,0.7-1.683,1.7-2.15l0.35,1.15l0.6,1c0.3-1.767,0.933-2.817,1.9-3.15l0.5,1.1l0.45,1.1
				c0.2-0.233,0.35-0.933,0.45-2.1c0.067-0.967,0.4-1.467,1-1.5c0.3,0.033,0.583,0.183,0.85,0.45c0.3,0.3,0.583,0.467,0.85,0.5
				c-0.2-1.233-1-2.283-2.4-3.15l0.95-1.65l-1.1,0.2c-0.533,0.033-0.883,0.117-1.05,0.25c-0.633-0.533-1.033-1.683-1.2-3.45
				L53.25,37.55 M21.8,13.3l-1.95,0.25H18.2c0.6,0.2,0.85,0.683,0.75,1.45l-3.85-0.85c-1.567-0.167-2.683,0.2-3.35,1.1l1.15,0.2
				c0.533,0.1,0.867,0.35,1,0.75l-0.35,0.5l-0.35,0.45c0.2,0.133,0.417,0.05,0.65-0.25c0.133-0.233,0.233-0.233,0.3,0
				c-0.267,0.433-0.8,0.75-1.6,0.95l-2,0.5c0.3-0.067,0.55,0.033,0.75,0.3L12,19.1l1-0.35l0.9,0.1l-1.25,1.2
				c-0.467,0.567-0.533,1.117-0.2,1.65c0.767-0.767,1.483-1.167,2.15-1.2c0.233,0.567,0.317,1.367,0.25,2.4
				c1.267,0.633,2.067,1.433,2.4,2.4c0.267-1.5,1.15-2.717,2.65-3.65c0.9-0.533,2.333-1.233,4.3-2.1c-1-0.467-1.733-1.267-2.2-2.4
				C21.5,15.95,21.433,14.666,21.8,13.3 M26.6,22.7c-0.7,2.033-1.017,4.267-0.95,6.7c0.067,2.833,0.717,4.75,1.95,5.75L28.5,35
				c0.3-0.2,0.55-0.3,0.75-0.3c-0.633-1.8-1-3.65-1.1-5.55c-0.133-2.233,0.15-4.067,0.85-5.5l-1.1-0.55L26.6,22.7 M21.35,21.25
				c-2.1,1.2-3.217,2.95-3.35,5.25l-0.75,0.25c-0.567-0.433-0.883-1.15-0.95-2.15c-1.067,0.4-1.5,1.467-1.3,3.2l0.35,4
				c-0.333,0.133-0.65,0.033-0.95-0.3c-0.233-0.3-0.4-0.367-0.5-0.2c0.1,0.833-0.1,1.85-0.6,3.05c-0.4,0.867-0.283,1.7,0.35,2.5
				c1.033-1.367,2.817-2.333,5.35-2.9l6.9-0.25c-0.967-1.733-1.233-4.017-0.8-6.85c0.4-2.533,1.15-4.567,2.25-6.1
				C25.383,19.883,23.383,20.05,21.35,21.25 M32,23.55l-2-0.4c-0.867,1.3-1.3,3.017-1.3,5.15c0.033,1.9,0.383,3.7,1.05,5.4
				c2.3-0.067,3.9-1.267,4.8-3.6c0.833-2.233,0.667-4.3-0.5-6.2L32,23.55 M36.05,24.7c-0.6,0.167-0.95,0.3-1.05,0.4
				c0.267,0.1,0.417,0.483,0.45,1.15c0.033,0.7,0.133,1.117,0.3,1.25c0.2-0.567,0.633-1.133,1.3-1.7l1.55-1.45l-1.9-0.45
				C36.733,24.3,36.516,24.566,36.05,24.7 M7.65,22.4l0.75,0.05c0.067,0.367-0.1,0.833-0.5,1.4c-0.3,0.5-0.383,0.833-0.25,1l0.7-0.8
				c0.233-0.433,0.4-0.567,0.5-0.4c-0.267,0.933-1.433,2.15-3.5,3.65c-1.767,1.233-2.517,2.65-2.25,4.25
				c0.567-0.833,1.45-1.233,2.65-1.2c0.1-0.6,0.333-1.083,0.7-1.45c0.167,1.767-0.617,3.4-2.35,4.9c-1.8,1.567-2.7,2.9-2.7,4
				l0.5-0.65l0.5-0.05c-0.267,0.5-0.35,1.15-0.25,1.95c0.1,0.8,0.333,1.35,0.7,1.65l0.25-0.85c0.067-0.4,0.233-0.6,0.5-0.6
				c0,3.5-0.8,5.733-2.4,6.7c0.733,0.267,1.2,0.183,1.4-0.25l0.2,2.5c0.133,0.833,0.4,1.45,0.8,1.85c-0.1-0.5,0.133-0.9,0.7-1.2
				l0.4,0.8c0.2,0.267,0.467,0.4,0.8,0.4c1.2-0.967,2.45-1.067,3.75-0.3c1.333,0.833,1.767,2.133,1.3,3.9
				c-0.833,1.5-1.183,3.4-1.05,5.7c0.133,2.667,1.117,3.883,2.95,3.65l0.25-1.05c0.133-0.4,0.367-0.617,0.7-0.65l1.7,2.05
				c0.767,0.7,1.483,0.983,2.15,0.85c-0.233-0.1-0.383-0.317-0.45-0.65c-0.033-0.333,0.117-0.517,0.45-0.55
				c0.8,0.533,1.75,0.9,2.85,1.1c1.3,0.267,2.35,0.133,3.15-0.4l-1.3-0.9c-0.533-0.4-0.817-0.9-0.85-1.5
				c0.867-0.467,1.5-1.017,1.9-1.65c0.167,0.633,0.033,1.083-0.4,1.35c-0.6,0.4-0.933,0.667-1,0.8c1.233,0.633,1.95,1.433,2.15,2.4
				c-0.2,0.367-0.75,0.583-1.65,0.65l-1.95,0.3c0.567,1.1,1.65,1.883,3.25,2.35l4.2-0.2c-0.267-0.133-0.433-0.45-0.5-0.95l2.3-0.2
				c1.133,0.033,1.8-0.133,2-0.5c-0.267-0.733-0.35-1.617-0.25-2.65c0.067-1.133,0.317-1.85,0.75-2.15c-0.4,0-0.633-0.2-0.7-0.6
				c-0.033-0.4,0.117-0.683,0.45-0.85l0.1,0.55c-0.1,0.267-0.05,0.483,0.15,0.65c0.7-0.4,1.217-0.65,1.55-0.75l1.8-0.2
				c0.133-1.067-0.317-1.75-1.35-2.05c-0.933-0.233-1.833-0.117-2.7,0.35l0.15,0.8L31.2,59.4l-1.65,0.2
				c-0.533,0.033-0.95-0.117-1.25-0.45c-0.467,0.667-1.25,1.033-2.35,1.1c-1.033,0.1-1.933-0.1-2.7-0.6l-3.4-1.5l-3.3-1.65
				c-0.067-0.3-0.033-0.533,0.1-0.7L17,55.3c-1.933,0-3.133-0.633-3.6-1.9l0.6-0.5c0.333-0.133,0.467-0.367,0.4-0.7
				c-0.2-0.7-0.617-1.483-1.25-2.35l-1.4-2.2c0.167-0.2,0.617-0.4,1.35-0.6c0.633-0.167,0.983-0.45,1.05-0.85H12.2
				c0,0.6-0.067,0.917-0.2,0.95l-0.4-1.1l-0.6-0.8c0.7,0.067,1.033-0.183,1-0.75l-1.5-1.9c-0.667-0.967-0.967-1.85-0.9-2.65
				c0.1-1.433,0.483-2,1.15-1.7c1.533,0.7,2.5,1.033,2.9,1c-1.433-2-1.35-5.05,0.25-9.15l0.4,0.55l0.55,0.45l-0.35-4.05
				c-0.033-1.4,0.333-2.45,1.1-3.15c-0.633,0-1-0.4-1.1-1.2l-0.35-1.95L12,22.45c-0.533-0.467-0.567-1.1-0.1-1.9l0.8-1.45
				c-2.2,0.5-3.467,0.833-3.8,1c-1.267,0.533-2,1.4-2.2,2.6L7.65,22.4 M14.4,39.7L12,39.65c-0.9-0.433-1.383-0.567-1.45-0.4
				c-0.467,1-0.417,1.933,0.15,2.8c0.3,0.533,0.883,1.117,1.75,1.75c1.367-2.333,3.083-4.117,5.15-5.35
				c2.433-1.433,5.2-1.967,8.3-1.6c-0.033-0.3,0.05-0.617,0.25-0.95l0.25-1c-2.467-0.6-4.933-0.633-7.4-0.1
				c-2.567,0.533-4.35,1.533-5.35,3C14.116,38.533,14.366,39.166,14.4,39.7 M14.85,46.2c-0.033,0.4-0.25,0.733-0.65,1l-1,0.7
				c1,0.9,2.367,1.367,4.1,1.4l5-0.45c0.267-1.067,1.05-2.233,2.35-3.5c1.367-1.3,2.183-2.45,2.45-3.45
				c0.1-1.1,0.033-1.983-0.2-2.65l-1-1.95c-3.333-0.2-6.2,0.483-8.6,2.05c-2.267,1.5-3.883,3.617-4.85,6.35h1.5
				C14.516,45.7,14.816,45.866,14.85,46.2 M39.35,25.1c-2.767,1.6-4.45,3.917-5.05,6.95c0.667,0.433,1.3,0.517,1.9,0.25
				c0.267-1.333,0.95-2.55,2.05-3.65l3-2.6l-0.85-0.6C40.1,25.183,39.75,25.066,39.35,25.1 M38.15,29.15L37.2,31
				c-0.267,0.667-0.117,1.25,0.45,1.75l0.5-1.85C38.316,30.1,38.316,29.516,38.15,29.15 M33.05,33.4
				c-1.267,0.6-2.283,0.95-3.05,1.05c0.4,0,0.633,0.283,0.7,0.85v1.55l1.7-0.7l1.9-0.5C34.366,33.95,33.95,33.2,33.05,33.4
				 M34.4,33.4c0.433,0.8,0.633,1.55,0.6,2.25l1.05-0.4l0.9-0.55c0.033-0.833-0.05-1.567-0.25-2.2c-1.267,0.4-2.3,0.25-3.1-0.45
				L34.4,33.4 M34.15,37.05c0.033,0.6,0.25,1.567,0.65,2.9c1.033,0.1,1.667-0.133,1.9-0.7c-0.3-0.233-0.467-0.717-0.5-1.45v-1.9
				C34.833,35.6,34.15,35.983,34.15,37.05 M28.4,35.55l-1.55-0.15c-0.4,1.233-0.333,2.083,0.2,2.55l1.8,0.1
				c0.8-0.267,1.3-0.717,1.5-1.35c0.267-0.7-0.017-1.367-0.85-2L28.4,35.55 M29.85,40.5c-0.1-0.9-0.3-1.483-0.6-1.75
				c-0.167,0.167-0.717,0.333-1.65,0.5c0.2,0.767,0.267,1.967,0.2,3.6l1.25,0.05l1.15-0.55L29.85,40.5 M30.2,41.4
				c0.533,0.267,1.133,0.267,1.8,0c0.933-0.333,1.533-0.5,1.8-0.5l0.1-2.55c0.067-0.9-0.117-1.567-0.55-2
				c-1.767,0.733-2.817,1.217-3.15,1.45V41.4 M27.35,42.6c-0.533,1.067-0.533,1.933,0,2.6c0.467,0.567,1.133,0.85,2,0.85
				c0.9,0,1.567-0.317,2-0.95c0.467-0.7,0.417-1.617-0.15-2.75l-2,0.85C28.4,43.433,27.783,43.233,27.35,42.6 M23,48.6l2.35-1.45
				c0.8-0.667,1.15-1.383,1.05-2.15c-0.6-0.067-1.267,0.433-2,1.5L23,48.6 M26.85,45.95c-1.267,2.2-3.5,3.567-6.7,4.1l0.25,2.4
				c2.1-0.1,3.967-0.717,5.6-1.85c1.067-0.733,2.317-1.967,3.75-3.7l-1.55-0.35L26.85,45.95 M37.15,40.1l-2.85,0.1l1,1.15
				c0.467,0.633,0.617,1.367,0.45,2.2L37,43.4l0.9-0.55C38.1,41.183,37.85,40.266,37.15,40.1 M34.3,40.9
				c-0.1,0.4-0.517,0.683-1.25,0.85c-0.767,0.167-1.233,0.367-1.4,0.6c0.233,0.1,0.383,0.45,0.45,1.05
				c0.033,0.6,0.133,0.967,0.3,1.1c0.667-0.733,1.617-1.2,2.85-1.4C35.35,42,35.033,41.266,34.3,40.9 M30.85,46.4l-2.35,2.9
				c-0.933,1.1-1.8,1.833-2.6,2.2c-0.167,1.367-0.017,2.717,0.45,4.05c0.433,1.333,1.083,2.383,1.95,3.15l0.3-0.7
				c0.133-0.233,0.35-0.333,0.65-0.3v0.85c0,0.333,0.167,0.45,0.5,0.35c0.467-0.9,1.383-1.517,2.75-1.85l3.5-0.3l0.05,0.15
				c0.967-1.333,1.533-3.217,1.7-5.65c0.167-2.4-0.1-4.567-0.8-6.5C34.816,43.65,32.783,44.2,30.85,46.4 M32.6,60.9
				c-0.833,0.733-1.15,1.833-0.95,3.3c0.333,0.667,1,1.05,2,1.15s1.7-0.2,2.1-0.9c0.2,0.867,0.483,0.483,0.85-1.15
				c0.3-1.367,0.017-2.35-0.85-2.95C34.483,60.05,33.433,60.233,32.6,60.9 M22.3,53.4c0.367,2.567,1.083,4.567,2.15,6h1.8
				c0.733,0,1.183-0.167,1.35-0.5c-0.867-0.433-1.5-1.35-1.9-2.75l-0.75-3.95C23.783,52.833,22.9,53.233,22.3,53.4 M23.25,59.65
				c0-0.4-0.333-1.417-1-3.05c-0.633-1.467-0.783-2.7-0.45-3.7c-1.133,0-2.083,0.383-2.85,1.15c-0.433,0.433-1,1.183-1.7,2.25
				c0.667,0.1,1.767,0.567,3.3,1.4C22.15,58.533,23.05,59.183,23.25,59.65 M33.95,66.6h-1.1c0.333,2.967,0.2,5.533-0.4,7.7
				c-0.733,2.533-2.033,4.133-3.9,4.8L30.3,79l1.35,0.1c-0.433,0.367-0.733,1-0.9,1.9c-0.233,1.033-0.083,1.75,0.45,2.15
				c0.067-0.9,0.617-1.617,1.65-2.15l0.4,1.15l0.55,1c0.3-1.7,0.95-2.733,1.95-3.1l0.45,1.1l0.5,1.05l0.4-2.1
				c0.1-0.967,0.45-1.467,1.05-1.5c0.267,0.033,0.55,0.183,0.85,0.45l0.8,0.5c-0.2-1.2-1-2.233-2.4-3.1l1-1.7l-1.15,0.2l-1.05,0.3
				c-0.633-0.667-1.05-1.817-1.25-3.45c-0.1-0.9-0.15-2.55-0.15-4.95L33.95,66.6 M15.5,49.8l-1.6-0.5l0.6,1.45l0.6,1.45l1,0.05
				l0.9,0.2V50.3C16.766,50.066,16.266,49.9,15.5,49.8 M17.4,51.65c0.033,0.9-0.1,1.483-0.4,1.75l1.95,0.25
				c0.7-0.6,0.917-1.467,0.65-2.6c-0.3-1.167-1-1.667-2.1-1.5C17.366,49.883,17.333,50.583,17.4,51.65 M15.6,52.9
				c-0.233-0.033-0.467,0.067-0.7,0.3c-0.2,0.233-0.45,0.3-0.75,0.2c0.233,0.6,0.8,1.017,1.7,1.25c0.933,0.233,1.65,0.133,2.15-0.3
				c-0.5,0-0.95-0.2-1.35-0.6L15.6,52.9 M8.25,50.05c-0.733-0.3-1.4-0.3-2,0c-0.667,0.333-1,0.967-1,1.9c0,0.9,0.433,1.633,1.3,2.2
				l2.8-0.05C10.583,52.166,10.216,50.816,8.25,50.05 M8.25,55.95L7.2,56.3c0.1,3.267-0.167,5.75-0.8,7.45
				c-0.767,2.067-2.183,3.5-4.25,4.3L3.95,68l1.8,0.05c-0.433,0.367-0.75,1-0.95,1.9c-0.233,1.033-0.083,1.75,0.45,2.15L6.1,71
				c0.3-0.467,0.667-0.733,1.1-0.8c0.067,0.867,0.3,1.583,0.7,2.15c0.133-1.567,0.7-2.45,1.7-2.65c0.333,0.067,0.6,0.367,0.8,0.9
				l0.6,1.05l0.25-2.45c-0.033-1.1,0.283-1.65,0.95-1.65c0.3,0.033,0.6,0.183,0.9,0.45c0.3,0.3,0.567,0.467,0.8,0.5
				c-0.2-1.2-1-2.233-2.4-3.1l0.6-0.85c0.267-0.3,0.383-0.65,0.35-1.05l-1.25,0.35c-0.433,0.067-0.817-0.05-1.15-0.35
				c-0.067,0.167,0.033,0.417,0.3,0.75c0.167,0.233,0.15,0.383-0.05,0.45c-1.3-1.967-1.7-4.85-1.2-8.65L8.25,55.95 M9.8,69.95
				c-0.6,0.1-1,0.617-1.2,1.55l-0.7,2.05L6.45,70.9c-0.833,0.9-1.083,1.717-0.75,2.45c0.3,0.667,0.917,1.117,1.85,1.35
				c0.967,0.233,1.833,0.133,2.6-0.3c0.867-0.467,1.317-1.233,1.35-2.3l-0.4,0.05c-0.267,0.267-0.533,0.333-0.8,0.2
				c-0.133-0.167-0.217-0.567-0.25-1.2L9.8,69.95 M11.25,74.3c-0.8,0.867-1.983,1.25-3.55,1.15c-1.633-0.133-2.6-0.767-2.9-1.9
				c0.033,0.533-0.133,0.967-0.5,1.3L3.35,75.7c0.5,0.267,0.567,0.717,0.2,1.35c-0.467,0.867-0.7,1.383-0.7,1.55l0.65-0.1l0.55-0.15
				l0.65,2.4c0.333,0.8,0.833,1.283,1.5,1.45l1.1-0.7c0.367-0.467,0.733-0.717,1.1-0.75l0.3,0.65c0.133,0.267,0.35,0.367,0.65,0.3
				c1.033-0.567,1.75-1.117,2.15-1.65l-0.3,0.9c-0.167,0.367-0.233,0.7-0.2,1c0.6-0.233,1.117-0.767,1.55-1.6l1.1-2l-0.8-1
				L12.2,76.2c0.733-0.033,1.217-0.433,1.45-1.2l-1.35-0.2L11.25,74.3 M10.55,81.25C9.716,82.116,9,82.6,8.4,82.7
				c0.1-1.5-0.15-1.983-0.75-1.45L7.4,82.2l-0.45,0.7c-0.533-0.067-1.033-0.283-1.5-0.65l-1.15-1L3,85.4
				c-0.4,1.767-0.45,3.333-0.15,4.7c0.167,0.133,0.433-0.017,0.8-0.45c0.433-0.5,0.883-0.667,1.35-0.5
				c0.333,0.933,0.117,2.167-0.65,3.7C3.583,94.35,3.4,95.6,3.8,96.6c0.8-1,2.033-1.45,3.7-1.35c1.6,0.1,2.767,0.633,3.5,1.6
				l1.45-2.15c0.667-0.733,1.55-1.067,2.65-1c0.033-1.067-0.333-2.383-1.1-3.95c-0.767-1.5-1.117-2.65-1.05-3.45l0.8-0.05l0.85,0.25
				c0-2.7-0.55-4.617-1.65-5.75c-0.567,1.1-1.217,1.75-1.95,1.95c-0.133-0.067-0.2-0.317-0.2-0.75
				C10.833,81.516,10.75,81.283,10.55,81.25 M34.5,82.55l-0.7,2.05l-0.65-1.25c-0.333-0.5-0.517-0.967-0.55-1.4
				c-0.367,0.133-0.633,0.45-0.8,0.95l-0.4,1.45c0.567,1.5,1.85,1.967,3.85,1.4c2-0.6,2.65-1.783,1.95-3.55l-0.25,0.85L36.2,83.4
				l-0.25-1.65c-0.133-0.633-0.367-1.05-0.7-1.25C35.016,80.9,34.766,81.583,34.5,82.55 M30.7,84.6c0.067,0.533-0.1,0.967-0.5,1.3
				l-0.95,0.85c0.5,0.267,0.583,0.7,0.25,1.3c-0.5,0.867-0.733,1.4-0.7,1.6l0.8-0.15c0.2-0.1,0.4-0.05,0.6,0.15
				c-0.1,0.567-0.033,1.1,0.2,1.6l0.55,1.25l-0.75-0.2l-1.25,4.15c-0.433,1.767-0.483,3.333-0.15,4.7
				c0.167,0.133,0.433-0.017,0.8-0.45c0.4-0.5,0.85-0.667,1.35-0.5c0.3,0.933,0.167,1.983-0.4,3.15c-0.667,1.467-1.017,2.5-1.05,3.1
				c1.933-0.367,4.333-0.05,7.2,0.95c0.433-0.667,1.067-1.217,1.9-1.65c0.867-0.467,1.667-0.633,2.4-0.5c0.1-1.267-0.233-2.7-1-4.3
				c-0.8-1.667-1.183-2.883-1.15-3.65l0.85-0.05l0.85,0.3c0.2-1.1-0.117-2.6-0.95-4.5c-0.7-1.533-0.7-2.75,0-3.65l-0.8-1l-0.65-1.15
				c0.667-0.033,1.15-0.433,1.45-1.2l-1.35-0.2L37.2,85.3c-0.833,0.867-2.017,1.25-3.55,1.15C32.016,86.35,31.033,85.733,30.7,84.6
				 M54,51c-0.267,0.4-0.517,1.083-0.75,2.05l-0.7,2.05l-0.65-1.25c-0.333-0.5-0.517-0.967-0.55-1.4
				c-0.367,0.133-0.65,0.45-0.85,0.95l-0.35,1.45C50.716,56.35,52,56.8,54,56.2c1.967-0.6,2.6-1.767,1.9-3.5l-0.25,0.8l-0.7,0.4
				l-0.3-1.65C54.55,51.583,54.333,51.166,54,51 M55.9,55.8c-0.8,0.867-1.983,1.25-3.55,1.15c-1.633-0.1-2.617-0.717-2.95-1.85
				c0.067,0.5-0.083,0.933-0.45,1.3L48,57.25c0.5,0.267,0.567,0.7,0.2,1.3c-0.5,0.833-0.733,1.35-0.7,1.55l0.65-0.05l0.55-0.15
				l0.55,2.05c0.267,0.767,0.65,1.283,1.15,1.55c-0.067-1.133,0.4-2.017,1.4-2.65l0.6,1.2l0.6,1.2c0.367,0,0.667-0.233,0.9-0.7
				c0.267-0.467,0.533-0.717,0.8-0.75l0.75,0.6l1.15,0.1c0.1-0.467,0.35-0.933,0.75-1.4l0.95-1.2l-0.8-1l-0.65-1.2
				c0.667,0,1.15-0.4,1.45-1.2l-1.35-0.2L55.9,55.8 M47.6,55.45c-0.733,0.433-1,0.867-0.8,1.3c0.733-0.2,1.333-0.483,1.8-0.85
				c0.633-0.467,0.833-0.983,0.6-1.55C49.1,54.516,48.566,54.883,47.6,55.45 M49.75,63.4c-0.267-0.4-0.533-0.617-0.8-0.65l-1.3,4.2
				c-0.433,1.733-0.483,3.3-0.15,4.7c0.167,0.133,0.433-0.017,0.8-0.45c0.4-0.5,0.85-0.667,1.35-0.5c0.267,1,0.05,2.25-0.65,3.75
				c-0.767,1.533-1.033,2.917-0.8,4.15c3.933-0.7,6.183-0.3,6.75,1.2l0.55-1l0.4-1.15c0.833-0.1,1.6-0.333,2.3-0.7
				c0.867-0.467,1.383-1.033,1.55-1.7c0.2-0.867-0.15-2.15-1.05-3.85c-0.9-1.733-1.267-2.933-1.1-3.6l0.8-0.05l0.85,0.3
				c0.067-1.133-0.067-2.233-0.4-3.3l-1.05-2.7c-0.6,1.233-1.717,1.233-3.35,0l-0.5,1.4c-0.233,0.533-0.55,0.867-0.95,1
				c-0.533-1.467-1-2.517-1.4-3.15c-0.3,0.533-0.633,1.417-1,2.65C50.266,63.983,49.983,63.8,49.75,63.4"/>
			<path class="st2" d="M55.9,55.8l1.05,0.5l1.35,0.2c-0.3,0.8-0.783,1.2-1.45,1.2l0.65,1.2l0.8,1l-0.95,1.2
				c-0.4,0.467-0.65,0.933-0.75,1.4l-1.15-0.1l-0.75-0.6c-0.267,0.033-0.533,0.283-0.8,0.75c-0.233,0.467-0.533,0.7-0.9,0.7
				l-0.6-1.2l-0.6-1.2c-1,0.633-1.467,1.517-1.4,2.65c-0.5-0.267-0.883-0.783-1.15-1.55L48.7,59.9l-0.55,0.15L47.5,60.1
				c-0.033-0.2,0.2-0.717,0.7-1.55c0.367-0.6,0.3-1.033-0.2-1.3l0.95-0.85c0.367-0.367,0.517-0.8,0.45-1.3
				c0.333,1.133,1.317,1.75,2.95,1.85C53.916,57.05,55.1,56.666,55.9,55.8"/>
			<path class="st2" d="M56.15,46.9c1.4,0.867,2.2,1.917,2.4,3.15c-0.267-0.033-0.55-0.2-0.85-0.5
				c-0.267-0.267-0.55-0.417-0.85-0.45c-0.6,0.033-0.933,0.533-1,1.5c-0.1,1.167-0.25,1.867-0.45,2.1l-0.45-1.1l-0.5-1.1
				c-0.967,0.333-1.6,1.383-1.9,3.15l-0.6-1L51.6,51.5c-1,0.467-1.567,1.183-1.7,2.15c-0.533-0.433-0.683-1.167-0.45-2.2
				c0.2-0.9,0.517-1.533,0.95-1.9l-1.35-0.05l-1.8,0.05c1.833-0.633,3.1-2.083,3.8-4.35c0.5-1.7,0.75-4.167,0.75-7.4l0.9,0.05
				c0.367,0,0.55-0.1,0.55-0.3l0.5,4.7c0.167,1.767,0.567,2.917,1.2,3.45c0.167-0.133,0.517-0.217,1.05-0.25l1.1-0.2L56.15,46.9"/>
			<path class="st3" d="M53.25,53.05C53.483,52.083,53.733,51.4,54,51c0.333,0.167,0.55,0.583,0.65,1.25l0.3,1.65l0.7-0.4l0.25-0.8
				c0.7,1.733,0.067,2.9-1.9,3.5c-2,0.6-3.283,0.15-3.85-1.35l0.35-1.45c0.2-0.5,0.483-0.817,0.85-0.95
				c0.033,0.433,0.217,0.9,0.55,1.4l0.65,1.25L53.25,53.05"/>
			<path class="st2" d="M53.25,24.6c0,0.5-0.233,0.983-0.7,1.45c0.3,0.667,0.85,1.55,1.65,2.65c-0.033,0.167-0.117,0.2-0.25,0.1
				l-0.45,0.1l0.15,1.3l0.1,1.35c-0.7,0.1-1.317,0.367-1.85,0.8l-1.3,1.35c1.467,9.733-0.05,14.783-4.55,15.15
				c0.167,0.633,0.6,1.033,1.3,1.2h2.05c-0.333,0.4-0.55,0.983-0.65,1.75c-0.133,0.8-0.067,1.5,0.2,2.1C47.783,54.5,47,55,46.6,55.4
				c-0.7,0.7-1.033,1.633-1,2.8l-0.5-1.25c-0.167-0.633-0.4-1.017-0.7-1.15c-0.5,0.3-0.867,1.3-1.1,3
				c-0.2,1.533-0.717,2.367-1.55,2.5v-1.05L41.5,59.4l-1.85,2.25c-0.733,0.933-1.483,1.55-2.25,1.85
				c0.1-0.767-0.183-1.717-0.85-2.85c-0.767-1.333-1.2-2.317-1.3-2.95c0.967,0.233,1.817-0.067,2.55-0.9l2.1-2.25
				c0.1,0.167,0.25,0.083,0.45-0.25c0.433-0.233,0.9-0.367,1.4-0.4l-0.25-0.75c0.867-0.5,1.717-1.333,2.55-2.5l2-3
				c0.1-0.733-0.133-1.05-0.7-0.95c0.767-0.633,1.35-1.533,1.75-2.7c0.433-1.3,0.4-2.4-0.1-3.3l0.7-1.75l0.5-1.85l0.55,0.05
				l0.45,0.65c0.267-0.1,0.317-0.3,0.15-0.6c-0.2-0.4-0.25-0.683-0.15-0.85c-0.2-0.233-0.45-0.183-0.75,0.15
				c-0.267,0.333-0.5,0.367-0.7,0.1c-0.2-0.233-0.283-0.783-0.25-1.65c0.033-0.633-0.283-0.967-0.95-1
				c0.4-0.733,0.55-1.617,0.45-2.65c0.6-0.033,1.217,0.133,1.85,0.5s1.15,0.533,1.55,0.5c1.4-0.233,2.05-1.283,1.95-3.15
				c-0.067-1.333-0.483-2.85-1.25-4.55l1.15,0.1L53.25,24.6"/>
			<path class="st4" d="M53.75,32.05c0.767,0.8,1.05,1.767,0.85,2.9c-0.2,1.133-0.8,1.683-1.8,1.65c-1.3-0.067-1.867-0.867-1.7-2.4
				C51.3,32.666,52.183,31.95,53.75,32.05"/>
			<path class="st5" d="M40.55,16.9l-0.1,0.1l-1.35-1.3c-0.233,0.133-0.167,0.283,0.2,0.45c0.467,0.233,0.633,0.483,0.5,0.75
				l-4.4,2.8c-1.9,1.1-3.7,1.533-5.4,1.3c-0.767-0.1-1.767-0.483-3-1.15c-1.3-0.7-2.3-1.117-3-1.25
				c-1.667-2.333-2.067-4.25-1.2-5.75h-0.25c0.4-1,1.083-1.783,2.05-2.35c0.9-0.5,1.9-0.733,3-0.7C27.233,9.166,26.366,9,25,9.3
				l-4.05,1.05c-3.5,0.767-5.183-0.633-5.05-4.2l1.3-1.2l1.45-1.05C18.983,3.5,19.1,2.966,19,2.3l-0.25-1.65l4.4,0.15l4.05,1.85
				l-0.35,0.1l4.55,4.1l-3.6-3.6c1.467-0.033,2.883,0.6,4.25,1.9l3.2,3.6c0.333,0.033,0.517-0.283,0.55-0.95
				c0.033-0.633-0.067-1.033-0.3-1.2c1.633-0.033,3.05,0.717,4.25,2.25c1.167,1.533,1.683,3.233,1.55,5.1l-1-0.15l0.95,0.45L41,15.5
				c0.5,0.933,1.55,2.117,3.15,3.55l4.2,3.7c3.233,3.167,3.983,6.017,2.25,8.55l-5.25-1.65c-0.567-0.767-0.733-1.933-0.5-3.5
				c0.267-1.967,0.35-3.2,0.25-3.7c-0.233-1.067-0.75-2.033-1.55-2.9l-2.5-2.1L40.55,16.9 M48.95,26.3l1,0.55l0.9,0.65
				c-0.033-1.1-0.467-2-1.3-2.7c-0.767-0.667-1.617-0.967-2.55-0.9c-0.267,0.4-0.317,1.133-0.15,2.2c0.167,1,0.383,1.467,0.65,1.4
				c-0.133-0.133-0.233-0.467-0.3-1c-0.033-0.533,0.067-0.85,0.3-0.95c0.533,0.1,0.833,0.483,0.9,1.15
				c0.133,0.867,0.317,1.45,0.55,1.75L48.2,28.3l-0.45-0.35c0.033,0.333,0.233,0.583,0.6,0.75c0.367,0.167,0.65,0.167,0.85,0
				c0.1-0.4-0.033-0.9-0.4-1.5C48.533,26.766,48.583,26.466,48.95,26.3 M37.05,9.6c1.6,1.367,2.683,2.767,3.25,4.2
				c0.1-0.633-0.283-1.45-1.15-2.45C38.383,10.483,37.683,9.9,37.05,9.6 M24.95,4.9c0.6,1.4,0.833,1.733,0.7,1
				c-1.333-2.3-2.85-3.183-4.55-2.65C22.466,3.15,23.75,3.7,24.95,4.9 M26.6,18.05c1.867,0.967,3.817,1.167,5.85,0.6l0.45-0.5
				l0.2-0.85c0.5-1.433,0.2-2.8-0.9-4.1c-1.133-1.333-2.467-1.767-4-1.3c-1.5-0.033-2.85,0.417-4.05,1.35
				C23.683,15.383,24.5,16.983,26.6,18.05"/>
			<path class="st1" d="M48.8,27.2c0.367,0.6,0.5,1.1,0.4,1.5c-0.2,0.167-0.483,0.167-0.85,0c-0.367-0.167-0.567-0.417-0.6-0.75
				l0.45,0.35l0.75,0.15c-0.233-0.3-0.417-0.883-0.55-1.75c-0.067-0.667-0.367-1.05-0.9-1.15c-0.233,0.1-0.333,0.417-0.3,0.95
				c0.067,0.533,0.167,0.867,0.3,1c-0.267,0.067-0.483-0.4-0.65-1.4c-0.167-1.067-0.117-1.8,0.15-2.2
				c0.933-0.067,1.783,0.233,2.55,0.9c0.833,0.7,1.267,1.6,1.3,2.7l-0.9-0.65l-1-0.55C48.583,26.466,48.533,26.766,48.8,27.2"/>
			<path class="st2" d="M48.05,18.35c1.267,1.133,1.967,2.017,2.1,2.65l-0.85,0.15c-0.267,0.067-0.383,0.25-0.35,0.55
				c-0.533-0.733-1.767-1.667-3.7-2.8c-1.7-1-2.783-2.067-3.25-3.2c-0.167-0.333-0.25-0.783-0.25-1.35l2.9,0.7L47,15.7
				C46.666,16.533,47.016,17.416,48.05,18.35"/>
			<path class="st6" d="M41,45l-0.6-1.3c-0.267-0.467-0.617-0.75-1.05-0.85c2.667-0.233,5.067-2.4,7.2-6.5
				c0.267-0.067,0.433,0.033,0.5,0.3c0.1,0.333,0.25,0.483,0.45,0.45C46.533,41.533,44.366,44.166,41,45"/>
			<path class="st5" d="M44.4,27.5c-0.767-1-2.233-2.1-4.4-3.3c-2.233-1.267-3.733-2.333-4.5-3.2c-0.067,0.267,0.233,0.617,0.9,1.05
				l1.5,1.1l-4.05-0.1c-1.933-0.1-2.983-0.617-3.15-1.55c0.433,0.133,1.25-0.033,2.45-0.5c0.867-0.333,1.25-0.167,1.15,0.5
				c0.333-1,1.25-1.867,2.75-2.6c1.9-0.9,3.033-1.533,3.4-1.9l0.6,0.45c1.5,1.633,2.483,2.967,2.95,4
				C44.833,23.25,44.966,25.266,44.4,27.5"/>
			<path class="st1" d="M41.3,13.95c0.133-1.867-0.383-3.567-1.55-5.1c-1.2-1.533-2.617-2.283-4.25-2.25
				c0.233,0.167,0.333,0.567,0.3,1.2c-0.033,0.667-0.217,0.983-0.55,0.95l-3.2-3.6c-1.367-1.3-2.783-1.933-4.25-1.9l3.6,3.6
				l-4.55-4.1l0.35-0.1L27.1,2.3C28.9,2.433,30.483,3,31.85,4c0.967,0.7,2.017,1.8,3.15,3.3c-0.133-0.467-0.133-0.817,0-1.05
				l0.75-0.6c1.667,0.6,2.95,1.283,3.85,2.05c1.1,0.9,1.817,2.05,2.15,3.45v2.9L41.3,13.95"/>
			<path class="st1" d="M41.75,14.05v0.3l-0.5-0.1l0.05-0.3L41.75,14.05"/>
			<path class="st0" d="M39.6,86.05c-0.3,0.767-0.783,1.167-1.45,1.2l0.65,1.15l0.8,1c-0.7,0.9-0.7,2.117,0,3.65
				c0.833,1.9,1.15,3.4,0.95,4.5l-0.85-0.3l-0.85,0.05c-0.033,0.767,0.35,1.983,1.15,3.65c0.767,1.6,1.1,3.033,1,4.3
				c-0.733-0.133-1.533,0.033-2.4,0.5c-0.833,0.433-1.467,0.983-1.9,1.65c-2.867-1-5.267-1.317-7.2-0.95
				c0.033-0.6,0.383-1.633,1.05-3.1c0.567-1.167,0.7-2.217,0.4-3.15c-0.5-0.167-0.95,0-1.35,0.5c-0.367,0.433-0.633,0.583-0.8,0.45
				c-0.333-1.367-0.283-2.933,0.15-4.7l1.25-4.15l0.75,0.2l-0.55-1.25c-0.233-0.5-0.3-1.033-0.2-1.6c-0.2-0.2-0.4-0.25-0.6-0.15
				l-0.8,0.15c-0.033-0.2,0.2-0.733,0.7-1.6c0.333-0.6,0.25-1.033-0.25-1.3l0.95-0.85c0.4-0.333,0.567-0.767,0.5-1.3
				c0.333,1.133,1.317,1.75,2.95,1.85c1.533,0.1,2.717-0.283,3.55-1.15l1.05,0.55L39.6,86.05"/>
			<path class="st1" d="M41.05,17.45L40.45,17l0.1-0.1L41.05,17.45"/>
			<path class="st6" d="M38.4,42.1c1.067,0.933,1.85,2.75,2.35,5.45c0.567,2.867,0.417,5.017-0.45,6.45l-2.1,1.3
				c-0.667,0.533-0.85,1.017-0.55,1.45l-0.6,0.45l-0.75-0.1c1.3-1.2,2.017-3.3,2.15-6.3c0.1-3.033-0.483-5.2-1.75-6.5l1.15-0.8
				C38.25,43.166,38.433,42.7,38.4,42.1"/>
			<path class="st1" d="M37.05,9.6c0.633,0.3,1.333,0.883,2.1,1.75c0.867,1,1.25,1.817,1.15,2.45
				C39.733,12.366,38.65,10.966,37.05,9.6"/>
			<path class="st6" d="M39.35,25.1c0.4-0.033,0.75,0.083,1.05,0.35l0.85,0.6l-3,2.6c-1.1,1.1-1.783,2.317-2.05,3.65
				c-0.6,0.267-1.233,0.183-1.9-0.25C34.9,29.016,36.583,26.7,39.35,25.1"/>
			<path class="st2" d="M34.95,71.8c0.2,1.633,0.617,2.783,1.25,3.45l1.05-0.3l1.15-0.2l-1,1.7c1.4,0.867,2.2,1.9,2.4,3.1l-0.8-0.5
				c-0.3-0.267-0.583-0.417-0.85-0.45c-0.6,0.033-0.95,0.533-1.05,1.5l-0.4,2.1l-0.5-1.05l-0.45-1.1c-1,0.367-1.65,1.4-1.95,3.1
				l-0.55-1L32.85,81c-1.033,0.533-1.583,1.25-1.65,2.15c-0.533-0.4-0.683-1.117-0.45-2.15c0.167-0.9,0.467-1.533,0.9-1.9L30.3,79
				l-1.75,0.1c1.867-0.667,3.167-2.267,3.9-4.8c0.6-2.167,0.733-4.733,0.4-7.7h1.1l0.85,0.25C34.8,69.25,34.85,70.9,34.95,71.8"/>
			<path class="st6" d="M38.15,29.15c0.167,0.367,0.167,0.95,0,1.75l-0.5,1.85c-0.567-0.5-0.717-1.083-0.45-1.75L38.15,29.15"/>
			<path class="st7" d="M34.3,40.2l2.85-0.1c0.7,0.167,0.95,1.083,0.75,2.75L37,43.4l-1.25,0.15c0.167-0.833,0.017-1.567-0.45-2.2
				L34.3,40.2"/>
			<path class="st6" d="M38.6,24.35l-1.55,1.45c-0.667,0.567-1.1,1.133-1.3,1.7c-0.167-0.133-0.267-0.55-0.3-1.25
				c-0.033-0.667-0.183-1.05-0.45-1.15c0.1-0.1,0.45-0.233,1.05-0.4c0.467-0.133,0.683-0.4,0.65-0.8L38.6,24.35"/>
			<path class="st3" d="M31.4,84.35l0.4-1.45c0.167-0.5,0.433-0.817,0.8-0.95c0.033,0.433,0.217,0.9,0.55,1.4l0.65,1.25l0.7-2.05
				c0.267-0.967,0.517-1.65,0.75-2.05c0.333,0.2,0.567,0.617,0.7,1.25l0.25,1.65l0.75-0.35l0.25-0.85c0.7,1.767,0.05,2.95-1.95,3.55
				C33.25,86.316,31.966,85.85,31.4,84.35"/>
			<path class="st7" d="M36.7,32.5c0.2,0.633,0.283,1.367,0.25,2.2l-0.9,0.55L35,35.65c0.033-0.7-0.167-1.45-0.6-2.25l-0.8-1.35
				C34.4,32.75,35.433,32.9,36.7,32.5"/>
			<path class="st6" d="M36.2,35.9v1.9c0.033,0.733,0.2,1.217,0.5,1.45c-0.233,0.567-0.867,0.8-1.9,0.7
				c-0.4-1.333-0.617-2.3-0.65-2.9C34.15,35.983,34.833,35.6,36.2,35.9"/>
			<path class="st4" d="M35.75,60.35c0.867,0.6,1.15,1.583,0.85,2.95c-0.367,1.633-0.65,2.017-0.85,1.15c-0.4,0.7-1.1,1-2.1,0.9
				s-1.667-0.483-2-1.15c-0.2-1.467,0.117-2.567,0.95-3.3C33.433,60.233,34.483,60.05,35.75,60.35"/>
			<path class="st6" d="M34.3,40.9c0.733,0.367,1.05,1.1,0.95,2.2c-1.233,0.2-2.183,0.667-2.85,1.4c-0.167-0.133-0.267-0.5-0.3-1.1
				c-0.067-0.6-0.217-0.95-0.45-1.05c0.167-0.233,0.633-0.433,1.4-0.6C33.783,41.583,34.2,41.3,34.3,40.9"/>
			<path class="st2" d="M8.35,24.05l-0.7,0.8c-0.133-0.167-0.05-0.5,0.25-1c0.4-0.567,0.567-1.033,0.5-1.4L7.65,22.4L6.7,22.7
				c0.2-1.2,0.933-2.067,2.2-2.6c0.333-0.167,1.6-0.5,3.8-1l-0.8,1.45c-0.467,0.8-0.433,1.433,0.1,1.9l2.15-1.7l0.35,1.95
				c0.1,0.8,0.467,1.2,1.1,1.2c-0.767,0.7-1.133,1.75-1.1,3.15l0.35,4.05l-0.55-0.45l-0.4-0.55c-1.6,4.1-1.683,7.15-0.25,9.15
				c-0.4,0.033-1.367-0.3-2.9-1c-0.667-0.3-1.05,0.267-1.15,1.7c-0.067,0.8,0.233,1.683,0.9,2.65l1.5,1.9
				c0.033,0.567-0.3,0.817-1,0.75l0.6,0.8l0.4,1.1c0.133-0.033,0.2-0.35,0.2-0.95h1.95c-0.067,0.4-0.417,0.683-1.05,0.85
				c-0.733,0.2-1.183,0.4-1.35,0.6l1.4,2.2c0.633,0.867,1.05,1.65,1.25,2.35c0.067,0.333-0.067,0.567-0.4,0.7l-0.6,0.5
				c0.467,1.267,1.667,1.9,3.6,1.9l-0.35,0.5c-0.133,0.167-0.167,0.4-0.1,0.7l3.3,1.65l3.4,1.5c0.767,0.5,1.667,0.7,2.7,0.6
				c1.1-0.067,1.883-0.433,2.35-1.1c0.3,0.333,0.717,0.483,1.25,0.45l1.65-0.2l0.15-0.65l-0.15-0.8
				c0.867-0.467,1.767-0.583,2.7-0.35c1.033,0.3,1.483,0.983,1.35,2.05l-1.8,0.2c-0.333,0.1-0.85,0.35-1.55,0.75
				c-0.2-0.167-0.25-0.383-0.15-0.65l-0.1-0.55c-0.333,0.167-0.483,0.45-0.45,0.85c0.067,0.4,0.3,0.6,0.7,0.6
				c-0.433,0.3-0.683,1.017-0.75,2.15c-0.1,1.033-0.017,1.917,0.25,2.65c-0.2,0.367-0.867,0.533-2,0.5l-2.3,0.2
				c0.067,0.5,0.233,0.817,0.5,0.95l-4.2,0.2c-1.6-0.467-2.683-1.25-3.25-2.35l1.95-0.3c0.9-0.067,1.45-0.283,1.65-0.65
				c-0.2-0.967-0.917-1.767-2.15-2.4c0.067-0.133,0.4-0.4,1-0.8c0.433-0.267,0.567-0.717,0.4-1.35c-0.4,0.633-1.033,1.183-1.9,1.65
				c0.033,0.6,0.317,1.1,0.85,1.5l1.3,0.9c-0.8,0.533-1.85,0.667-3.15,0.4c-1.1-0.2-2.05-0.567-2.85-1.1
				c-0.333,0.033-0.483,0.217-0.45,0.55c0.067,0.333,0.217,0.55,0.45,0.65c-0.667,0.133-1.383-0.15-2.15-0.85l-1.7-2.05
				c-0.333,0.033-0.567,0.25-0.7,0.65L12.45,63c-1.833,0.233-2.817-0.983-2.95-3.65c-0.133-2.3,0.217-4.2,1.05-5.7
				c0.467-1.767,0.033-3.067-1.3-3.9c-1.3-0.767-2.55-0.667-3.75,0.3c-0.333,0-0.6-0.133-0.8-0.4l-0.4-0.8
				c-0.567,0.3-0.8,0.7-0.7,1.2c-0.4-0.4-0.667-1.017-0.8-1.85l-0.2-2.5c-0.2,0.433-0.667,0.517-1.4,0.25c1.6-0.967,2.4-3.2,2.4-6.7
				c-0.267,0-0.433,0.2-0.5,0.6L2.85,40.7c-0.367-0.3-0.6-0.85-0.7-1.65c-0.1-0.8-0.017-1.45,0.25-1.95l-0.5,0.05L1.4,37.8
				c0-1.1,0.9-2.433,2.7-4c1.733-1.5,2.517-3.133,2.35-4.9c-0.367,0.367-0.6,0.85-0.7,1.45c-1.2-0.033-2.083,0.367-2.65,1.2
				c-0.267-1.6,0.483-3.017,2.25-4.25c2.067-1.5,3.233-2.717,3.5-3.65C8.75,23.483,8.583,23.616,8.35,24.05"/>
			<path class="st6" d="M30,34.45c0.767-0.1,1.783-0.45,3.05-1.05c0.9-0.2,1.317,0.55,1.25,2.25l-1.9,0.5l-1.7,0.7V35.3
				C30.633,34.733,30.4,34.45,30,34.45"/>
			<path class="st8" d="M28.2,11.9c1.533-0.467,2.867-0.033,4,1.3c1.1,1.3,1.4,2.667,0.9,4.1l-4.4-0.25
				c-1.7-0.567-2.467-1.6-2.3-3.1c0.1-0.333,0.4-0.683,0.9-1.05L28.2,11.9"/>
			<path class="st5" d="M28.7,17.05l4.4,0.25l-0.2,0.85l-0.45,0.5c-2.033,0.567-3.983,0.367-5.85-0.6
				c-2.1-1.067-2.917-2.667-2.45-4.8c1.2-0.933,2.55-1.383,4.05-1.35l-0.9,1c-0.5,0.367-0.8,0.717-0.9,1.05
				C26.233,15.45,27,16.483,28.7,17.05"/>
			<path class="st7" d="M31.2,42.35c0.567,1.133,0.617,2.05,0.15,2.75c-0.433,0.633-1.1,0.95-2,0.95c-0.867,0-1.533-0.283-2-0.85
				c-0.533-0.667-0.533-1.533,0-2.6c0.433,0.633,1.05,0.833,1.85,0.6L31.2,42.35"/>
			<path class="st6" d="M29.25,38.75c0.3,0.267,0.5,0.85,0.6,1.75l0.35,1.85l-1.15,0.55l-1.25-0.05c0.067-1.633,0-2.833-0.2-3.6
				C28.533,39.083,29.083,38.916,29.25,38.75"/>
			<path class="st7" d="M29.5,34.7c0.833,0.633,1.117,1.3,0.85,2c-0.2,0.633-0.7,1.083-1.5,1.35l-1.8-0.1
				c-0.533-0.467-0.6-1.317-0.2-2.55l1.55,0.15L29.5,34.7"/>
			<path class="st6" d="M29.25,34.7c-0.2,0-0.45,0.1-0.75,0.3l-0.9,0.15c-1.233-1-1.883-2.917-1.95-5.75
				c-0.067-2.433,0.25-4.667,0.95-6.7l1.3,0.4l1.1,0.55c-0.7,1.433-0.983,3.267-0.85,5.5C28.25,31.05,28.616,32.9,29.25,34.7"/>
			<path class="st6" d="M29.75,46.9c-1.433,1.733-2.683,2.967-3.75,3.7c-1.633,1.133-3.5,1.75-5.6,1.85l-0.25-2.4
				c3.2-0.533,5.433-1.9,6.7-4.1l1.35,0.6L29.75,46.9"/>
			<path class="st6" d="M26.4,45c0.1,0.767-0.25,1.483-1.05,2.15L23,48.6l1.4-2.1C25.133,45.433,25.8,44.933,26.4,45"/>
			<path class="st6" d="M27.6,58.9c-0.167,0.333-0.617,0.5-1.35,0.5h-1.8c-1.067-1.433-1.783-3.433-2.15-6
				c0.6-0.167,1.483-0.567,2.65-1.2l0.75,3.95C26.1,57.55,26.733,58.466,27.6,58.9"/>
			<path class="st6" d="M19,34.8c2.467-0.533,4.933-0.5,7.4,0.1l-0.25,1c-0.2,0.333-0.283,0.65-0.25,0.95
				c-3.1-0.367-5.867,0.167-8.3,1.6c-2.067,1.233-3.783,3.017-5.15,5.35c-0.867-0.633-1.45-1.217-1.75-1.75
				c-0.567-0.867-0.617-1.8-0.15-2.8c0.067-0.167,0.55-0.033,1.45,0.4l2.4,0.05c-0.033-0.533-0.283-1.167-0.75-1.9
				C14.65,36.333,16.433,35.333,19,34.8"/>
			<path class="st1" d="M25.65,5.9c0.133,0.733-0.1,0.4-0.7-1c-1.2-1.2-2.483-1.75-3.85-1.65C22.8,2.716,24.316,3.6,25.65,5.9"/>
			<path class="st2" d="M22,17.15c0.467,1.133,1.2,1.933,2.2,2.4c-1.967,0.867-3.4,1.567-4.3,2.1c-1.5,0.933-2.383,2.15-2.65,3.65
				c-0.333-0.967-1.133-1.767-2.4-2.4c0.067-1.033-0.017-1.833-0.25-2.4c-0.667,0.033-1.383,0.433-2.15,1.2
				c-0.333-0.533-0.267-1.083,0.2-1.65l1.25-1.2l-0.9-0.1l-1,0.35l-0.7-0.45c-0.2-0.267-0.45-0.367-0.75-0.3l2-0.5
				c0.8-0.2,1.333-0.517,1.6-0.95c-0.067-0.233-0.167-0.233-0.3,0c-0.233,0.3-0.45,0.383-0.65,0.25l0.35-0.45l0.35-0.5
				c-0.133-0.4-0.467-0.65-1-0.75l-1.15-0.2c0.667-0.9,1.783-1.267,3.35-1.1L18.95,15c0.1-0.767-0.15-1.25-0.75-1.45h1.65l1.95-0.25
				C21.433,14.666,21.5,15.95,22,17.15"/>
			<path class="st7" d="M17.5,49.55c1.1-0.167,1.8,0.333,2.1,1.5c0.267,1.133,0.05,2-0.65,2.6L17,53.4
				c0.3-0.267,0.433-0.85,0.4-1.75C17.333,50.583,17.366,49.883,17.5,49.55"/>
			<path class="st6" d="M17,50.3v2.15l-0.9-0.2l-1-0.05l-0.6-1.45l-0.6-1.45l1.6,0.5C16.266,49.9,16.766,50.066,17,50.3"/>
			<path class="st0" d="M12.95,86.3c-0.067,0.8,0.283,1.95,1.05,3.45c0.767,1.567,1.133,2.883,1.1,3.95
				c-1.1-0.067-1.983,0.267-2.65,1L11,96.85c-0.733-0.967-1.9-1.5-3.5-1.6c-1.667-0.1-2.9,0.35-3.7,1.35
				c-0.4-1-0.217-2.25,0.55-3.75c0.767-1.533,0.983-2.767,0.65-3.7c-0.467-0.167-0.917,0-1.35,0.5
				c-0.367,0.433-0.633,0.583-0.8,0.45C2.55,88.733,2.6,87.166,3,85.4l1.3-4.15l1.15,1c0.467,0.367,0.967,0.583,1.5,0.65l0.45-0.7
				l0.25-0.95c0.6-0.533,0.85-0.05,0.75,1.45c0.6-0.1,1.317-0.583,2.15-1.45c0.2,0.033,0.283,0.267,0.25,0.7
				c0,0.433,0.067,0.683,0.2,0.75c0.733-0.2,1.383-0.85,1.95-1.95c1.1,1.133,1.65,3.05,1.65,5.75l-0.85-0.25L12.95,86.3"/>
			<path class="st2" d="M12.2,76.2l0.65,1.15l0.8,1l-1.1,2c-0.433,0.833-0.95,1.367-1.55,1.6c-0.033-0.3,0.033-0.633,0.2-1l0.3-0.9
				c-0.4,0.533-1.117,1.083-2.15,1.65c-0.3,0.067-0.517-0.033-0.65-0.3l-0.3-0.65c-0.367,0.033-0.733,0.283-1.1,0.75l-1.1,0.7
				c-0.667-0.167-1.167-0.65-1.5-1.45l-0.65-2.4L3.5,78.5l-0.65,0.1c0-0.167,0.233-0.683,0.7-1.55c0.367-0.633,0.3-1.083-0.2-1.35
				l0.95-0.85c0.367-0.333,0.533-0.767,0.5-1.3c0.3,1.133,1.267,1.767,2.9,1.9c1.567,0.1,2.75-0.283,3.55-1.15l1.05,0.5l1.35,0.2
				C13.416,75.766,12.933,76.166,12.2,76.2"/>
			<path class="st2" d="M9.1,56.05c-0.5,3.8-0.1,6.683,1.2,8.65c0.2-0.067,0.217-0.217,0.05-0.45c-0.267-0.333-0.367-0.583-0.3-0.75
				c0.333,0.3,0.717,0.417,1.15,0.35l1.25-0.35c0.033,0.4-0.083,0.75-0.35,1.05l-0.6,0.85c1.4,0.867,2.2,1.9,2.4,3.1
				c-0.233-0.033-0.5-0.2-0.8-0.5c-0.3-0.267-0.6-0.417-0.9-0.45c-0.667,0-0.983,0.55-0.95,1.65L11,71.65l-0.6-1.05
				c-0.2-0.533-0.467-0.833-0.8-0.9c-1,0.2-1.567,1.083-1.7,2.65c-0.4-0.567-0.633-1.283-0.7-2.15c-0.433,0.067-0.8,0.333-1.1,0.8
				l-0.85,1.1c-0.533-0.4-0.683-1.117-0.45-2.15c0.2-0.9,0.517-1.533,0.95-1.9L3.95,68l-1.8,0.05c2.067-0.8,3.483-2.233,4.25-4.3
				c0.633-1.7,0.9-4.183,0.8-7.45l1.05-0.35L9.1,56.05"/>
			<path class="st3" d="M10.3,72.35c0.267,0.133,0.533,0.067,0.8-0.2l0.4-0.05c-0.033,1.067-0.483,1.833-1.35,2.3
				c-0.767,0.433-1.633,0.533-2.6,0.3C6.616,74.466,6,74.016,5.7,73.35c-0.333-0.733-0.083-1.55,0.75-2.45l1.45,2.65l0.7-2.05
				c0.2-0.933,0.6-1.45,1.2-1.55l0.25,1.2C10.083,71.783,10.166,72.183,10.3,72.35"/>
			<path class="st4" d="M5.25,51.95c0-0.933,0.333-1.567,1-1.9c0.6-0.3,1.267-0.3,2,0c1.967,0.767,2.333,2.117,1.1,4.05l-2.8,0.05
				C5.683,53.583,5.25,52.85,5.25,51.95"/>
			<path class="st9" d="M33.1,17.3c0.5-1.433,0.2-2.8-0.9-4.1c-1.133-1.333-2.467-1.767-4-1.3"/>
			<path class="st10" d="M33.1,17.3l-0.2,0.85l-0.45,0.5c-2.033,0.567-3.983,0.367-5.85-0.6c-2.1-1.067-2.917-2.667-2.45-4.8
				c1.2-0.933,2.55-1.383,4.05-1.35"/>
			<path class="st11" d="M33.1,17.3l-4.4-0.25c-1.7-0.567-2.467-1.6-2.3-3.1c0.1-0.333,0.4-0.683,0.9-1.05l0.9-1"/>
			<path class="st11" d="M27.2,2.65L23.15,0.8l-4.4-0.15L19,2.3c0.1,0.667-0.017,1.2-0.35,1.6L17.2,4.95l-1.3,1.2
				c-0.133,3.567,1.55,4.967,5.05,4.2L25,9.3c1.367-0.3,2.233-0.133,2.6,0.5c-1.1-0.033-2.1,0.2-3,0.7
				c-0.967,0.567-1.65,1.35-2.05,2.35"/>
		</g>
	</g>
</g>
</svg>
