<?xml version="1.0" encoding="utf-8"?>
<!-- Generator: Adobe Illustrator 24.0.1, SVG Export Plug-In . SVG Version: 6.00 Build 0)  -->
<svg version="1.1" id="Camada_1" xmlns="http://www.w3.org/2000/svg" xmlns:xlink="http://www.w3.org/1999/xlink" x="0px" y="0px"
	 viewBox="0 0 126.783 95.87" style="enable-background:new 0 0 126.783 95.87;" xml:space="preserve">
<style type="text/css">
	.st0{fill-rule:evenodd;clip-rule:evenodd;}
	.st1{fill-rule:evenodd;clip-rule:evenodd;fill:#728287;}
	.st2{fill-rule:evenodd;clip-rule:evenodd;fill:#86969A;}
	.st3{fill-rule:evenodd;clip-rule:evenodd;fill:#7B725C;}
	.st4{fill-rule:evenodd;clip-rule:evenodd;fill:#AFA182;}
	.st5{fill:none;stroke:#000000;stroke-width:0.9;stroke-linecap:round;}
	.st6{fill:none;stroke:#000000;stroke-width:0.95;stroke-linecap:round;}
	.st7{fill:none;stroke:#000000;stroke-width:0.8;stroke-linecap:round;}
	.st8{fill:none;stroke:#000000;stroke-width:1.05;stroke-linecap:round;}
	.st9{fill:none;stroke:#000000;stroke-width:0.85;stroke-linecap:round;}
</style>
<g transform="matrix(1.0, 0.0, 0.0, 1.0, 0.0, -0.05)">
	<g transform="matrix(1.0, 0.0, 0.0, 1.0, 0.0, 0.05)">
		<g id="shape0" transform="matrix(1.0, 0.0, 0.0, 1.0, 0.0, -0.05)">
			<path class="st0" d="M105.133,39.439c-1.1,3.933-1.633,6.233-1.6,6.9c0.033,0.9,0.583,2.617,1.65,5.15
				c0.933,2.167,1.217,4.117,0.85,5.85c1.267,1.2,2.483,2.9,3.65,5.1l2.85,5.9v3c-2,2.767-4.833,4.933-8.5,6.5v-0.5h-0.5l-0.45-2.55
				l-0.55-2.45c-4.167,1.633-7.117,3.183-8.85,4.65c-2.733,2.233-4.283,5.183-4.65,8.85c-0.4-1.267-0.267-2.667,0.4-4.2
				c0.633-1.467,0.833-2.4,0.6-2.8c-0.433,0.533-1.217,0.867-2.35,1c-1.167,0.133-2.05-0.033-2.65-0.5l-1.15,6.1
				c-0.6,2.1-1.55,3.567-2.85,4.4c1.567-3.1,2.55-5.567,2.95-7.4c0.7-3.167,0.217-5.7-1.45-7.6l1.05-2.7
				c0.433-1.033,0.917-1.8,1.45-2.3c0,0.767-0.233,1.617-0.7,2.55c-0.5,0.967-0.767,1.783-0.8,2.45c1.267,3.367,3.25,4.7,5.95,4
				c2.4-0.633,4.5-2.433,6.3-5.4c1.867-3.033,2.383-5.633,1.55-7.8c-1-2.6-3.767-3.7-8.3-3.3c-0.533,2.633-1.467,4.633-2.8,6
				c-1.133,1.167-2.867,2.167-5.2,3c1.467,1.633,1.8,2.633,1,3c-0.4-1.9-2-3.567-4.8-5c-3.067-1.6-4.8-2.767-5.2-3.5
				c-0.433,0.9-1.1,1.567-2,2l-0.75-0.6l-0.75,0.6l-11,3.5l-4.5-1.5c-1.267-0.267-2.767-0.267-4.5,0c1.033-1.133,1.7-2.633,2-4.5
				c-0.267-0.233-1-0.417-2.2-0.55c-1.067-0.133-1.667-0.45-1.8-0.95c2.2-2.433,6.833-4.45,13.9-6.05
				c7.467-1.7,12.333-3.517,14.6-5.45c-2.933-3.567-7.85-7.217-14.75-10.95c-8.667-4.7-14.083-7.883-16.25-9.55l0.4-0.4l0.1-0.6
				l-0.35-1.3l1.35,1.8c0.633,0.733,1.683,1.45,3.15,2.15c1.533,0.7,2.983,1.15,4.35,1.35c0.067-0.4,0.4-0.733,1-1
				c0.167-1.3-0.25-2.55-1.25-3.75c-1-1.233-1.417-2.483-1.25-3.75c0.1-0.367,0.983-0.533,2.65-0.5
				c1.367,0.033,1.817-0.133,1.35-0.5l-4.25-0.5c-1.433-0.333-2.517-0.833-3.25-1.5c-0.4-2.167-2.1-3.617-5.1-4.35
				c-2.4-0.567-5.2-0.617-8.4-0.15l0.15,0.65l-0.65-1.15c0.967-0.8,2.467-0.933,4.5-0.4l4.5,0.4h0.5v-0.5
				c3.6,2.167,8.883,4.8,15.85,7.9c7.833,3.5,13.217,6.033,16.15,7.6l8.6-5.1c4-1.967,7.467-2.767,10.4-2.4
				c1.7,0.233,3.467,1.067,5.3,2.5l4.7,3.5C105.733,34.006,105.933,36.539,105.133,39.439 M101.183,37.739
				c-1.033,0.533-2.25,0.733-3.65,0.6c-0.033,1.1,0.25,1.5,0.85,1.2c0.7-0.367,1.083-0.433,1.15-0.2
				c-0.767,0.167-1.167,0.717-1.2,1.65c-0.033,1.067-0.133,1.683-0.3,1.85l-0.2-0.3c-0.167-0.067-0.267,0.033-0.3,0.3
				c0.333,0.433,0.9,0.883,1.7,1.35l1.8,1.15c-2.833-0.2-4.65,0.017-5.45,0.65c-1,0.767-1.35,2.55-1.05,5.35
				c0.8,0.167,1.717-0.3,2.75-1.4c0.867-0.933,1.617-1.133,2.25-0.6l2.2-2.85c0.933-1.133,0.867-1.85-0.2-2.15
				c0.867-0.6,1.583-1.75,2.15-3.45c0.533-1.7,0.65-3.05,0.35-4.05c0,0.167-0.067,0.267-0.2,0.3c-0.167,0.067-0.267-0.033-0.3-0.3
				l0.45-0.45c0-0.333-0.15-0.517-0.45-0.55L101.183,37.739 M103.533,32.339c-0.4-0.1-1.267-0.65-2.6-1.65
				c-1-0.733-2.133-1.017-3.4-0.85c0.6-1.633-0.583-2.6-3.55-2.9c-2.9-0.333-4.883,0.133-5.95,1.4l1.25,0.05
				c0.433,0,0.683,0.15,0.75,0.45c-3.367,0.267-6.05,0.833-8.05,1.7c-2.4,1.067-4.05,2.667-4.95,4.8
				c2.167,3.2,5.533,4.183,10.1,2.95c4.567-1.267,7.033-3.75,7.4-7.45c-0.233-0.633-0.8-1.15-1.7-1.55l-2.3-0.95
				c1.233-0.2,2.317,0.15,3.25,1.05l1.75,1.45c-1,1-1.5,2.5-1.5,4.5c0.9,2.333,2.983,3.05,6.25,2.15
				C103.549,36.622,104.633,34.906,103.533,32.339 M99.533,49.839v-0.5c-0.167,0-0.267,0.067-0.3,0.2
				C99.166,49.706,99.266,49.806,99.533,49.839 M100.033,55.889c-0.6,3.333-2.267,5.317-5,5.95c0.267,0.6,0.733,1.217,1.4,1.85
				l1.6,1.65c-0.233-1.5,0.2-3.083,1.3-4.75c1.033-1.633,1.433-2.883,1.2-3.75c0.467,0.7,1.183,1,2.15,0.9
				c0.967-0.1,1.583-0.567,1.85-1.4l-0.9-4.85c-0.4-1.833-1.1-3.05-2.1-3.65c-0.467,0.9-0.8,2.167-1,3.8L100.033,55.889
				 M109.033,65.839c-0.267,3.367-2.267,5.533-6,6.5c0.5,0.2,0.783,0.917,0.85,2.15c0.1,1.3,0.317,2.083,0.65,2.35
				c1.933-1.767,3.933-3.1,6-4v-4.25C110.466,66.956,109.966,66.039,109.033,65.839 M99.033,63.989c-0.267,2.733,0.067,5.017,1,6.85
				c2.567,1,4.65,0.817,6.25-0.55c1.4-1.167,2.15-2.867,2.25-5.1c0.133-2.2-0.4-4-1.6-5.4c-1.333-1.6-3.133-2.083-5.4-1.45
				C100.166,59.272,99.333,61.156,99.033,63.989 M99.333,70.539c-0.367-0.733-0.8-1.133-1.3-1.2c0.2,0.933-0.083,2.017-0.85,3.25
				c-0.7,1.133-0.917,1.883-0.65,2.25c0.267-0.533,0.917-1.05,1.95-1.55c1.067-0.533,1.75-1.017,2.05-1.45
				C100.133,71.739,99.733,71.306,99.333,70.539 M60.033,29.339c0.467,1.967,2.033,3.55,4.7,4.75c3.633,1.633,5.733,2.717,6.3,3.25
				c-3.633-1.4-6.283-2.567-7.95-3.5c-2.933-1.733-3.783-3.9-2.55-6.5l-4.25-0.85c-1.8-0.333-3.217-0.217-4.25,0.35
				c0.267,1.067,0.967,2.667,2.1,4.8c0.633,1.8,0.1,3.2-1.6,4.2c0.9,0.267,2.4,1.15,4.5,2.65c1.767,1.267,3.1,1.883,4,1.85
				c-1-0.433-1.5-1.433-1.5-3l0.75-0.45l0.75-0.55c1.933-0.1,3.267,0.233,4,1l-2.5-0.35l-2.5,0.35
				c0.067,1.233,0.583,2.217,1.55,2.95l2.95,1.55l-0.65,0.1c-0.233,0.067-0.35,0.2-0.35,0.4c0.933,0.267,2.6,1.15,5,2.65
				c2,1.267,3.5,1.883,4.5,1.85c-1.767-1.433-2.417-3.783-1.95-7.05c0.433-3.2,1.583-5.183,3.45-5.95
				c-0.933-0.167-3.383-1.3-7.35-3.4C64.249,28.906,61.866,28.539,60.033,29.339 M77.533,36.339c-0.5,0.067-0.8-0.217-0.9-0.85
				c-0.067-0.733-0.267-1.117-0.6-1.15l-2.05,2.05c-0.9,0.9-1.217,1.55-0.95,1.95c0.1-0.733,0.75-1.183,1.95-1.35
				C76.416,36.822,77.266,36.606,77.533,36.339 M76.533,52.339c1.533,0.633,3.7,1.133,6.5,1.5c2.133-1.433,3.267-3.333,3.4-5.7
				c0.133-2.167-0.533-4.25-2-6.25c-1.433-2.033-3.217-3.367-5.35-4c-2.333-0.733-4.517-0.417-6.55,0.95
				c-0.333,2.6,0.117,5.067,1.35,7.4C75.483,49.272,76.366,51.306,76.533,52.339 M93.083,36.889c0.667,0.067,0.983-0.117,0.95-0.55
				c-0.3,0-0.483-0.233-0.55-0.7c-0.067-0.5-0.217-0.767-0.45-0.8l-0.75,1c-0.433,0.333-0.683,0.667-0.75,1L93.083,36.889
				 M90.883,37.939c-2.167,0.7-3.583,1.85-4.25,3.45c-0.8,1.867-0.167,3.683,1.9,5.45l4.8-0.7c1.9-0.3,3.133-0.9,3.7-1.8
				c0.9-2.9,0.583-4.917-0.95-6.05C94.783,37.356,93.049,37.239,90.883,37.939 M84.733,39.289c-0.767-0.067-1.167,0.117-1.2,0.55
				c0.5,0.033,0.95,0.333,1.35,0.9c0.433,0.633,0.817,1,1.15,1.1c-0.133-0.967,0.033-1.8,0.5-2.5L84.733,39.289 M87.133,56.039
				c0.8,0.467,1.6,0.733,2.4,0.8c-1,0-1.283,0.65-0.85,1.95l1.35,3.05c3.267,0.5,5.883-0.333,7.85-2.5
				c2.033-2.2,2.583-5.033,1.65-8.5c-1.5,0.2-3.283,1.033-5.35,2.5c-2.167,1.533-3.55,2.367-4.15,2.5c1.267-0.9,2.267-2.2,3-3.9
				c0.8-1.867,0.967-3.567,0.5-5.1c-2.5-0.167-4.433,0.483-5.8,1.95c-0.967,0.967-1.867,2.65-2.7,5.05
				C85.533,54.739,86.233,55.472,87.133,56.039 M76.033,52.839l-3.15,6.15c-1.067,2.467-1.183,4.583-0.35,6.35
				c0.433,0.933,1.7,2,3.8,3.2c2.067,1.2,3.633,1.8,4.7,1.8c2.667,0.033,4.817-1.567,6.45-4.8c1.733-3.4,1.25-6.133-1.45-8.2
				c0.433-1.1-0.8-2-3.7-2.7C78.599,53.772,76.499,53.172,76.033,52.839 M50.533,22.839c-0.967-0.567-1.8-0.9-2.5-1
				c-0.033,1,0.6,1.733,1.9,2.2s2.333,0.4,3.1-0.2C52.333,23.772,51.499,23.439,50.533,22.839 M50.633,67.039
				c-0.333,0.7-0.2,1.133,0.4,1.3c0.2-0.667,0.7-1,1.5-1c-0.133,0.5-0.067,0.95,0.2,1.35c0.267,0.4,0.367,0.783,0.3,1.15
				c1-0.633,2.133-0.717,3.4-0.25c1.3,0.5,2.5,0.417,3.6-0.25c0.067-1.067,0.6-2.633,1.6-4.7c0.833-1.767,1.133-3.533,0.9-5.3
				c2.3-1.3,2.367-1.65,0.2-1.05c-2.233,0.567-3.633,1.25-4.2,2.05c-0.567,3.6-2.067,5.767-4.5,6.5l2.6-2.9
				c0.9-1.2,1.367-2.567,1.4-4.1c-2.533,0.567-4.383,1.05-5.55,1.45c-2.033,0.667-3.35,1.683-3.95,3.05c1.867-0.367,3.033,0.3,3.5,2
				C51.433,66.072,50.966,66.306,50.633,67.039 M71.383,61.189c0.267-1.833,0.317-3.617,0.15-5.35c-3.667,0.5-6.5,1.833-8.5,4
				c0.2,1.667-0.083,3.3-0.85,4.9c-1,2-1.55,3.367-1.65,4.1l5.15-1.35l4.85-1.65L71.383,61.189"/>
			<path class="st1" d="M109.033,65.839c0.933,0.2,1.433,1.117,1.5,2.75v4.25c-2.067,0.9-4.067,2.233-6,4
				c-0.333-0.267-0.55-1.05-0.65-2.35c-0.067-1.233-0.35-1.95-0.85-2.15C106.766,71.372,108.766,69.206,109.033,65.839"/>
			<path class="st1" d="M104.033,36.839c0.3,1,0.183,2.35-0.35,4.05c-0.567,1.7-1.283,2.85-2.15,3.45
				c1.067,0.3,1.133,1.017,0.2,2.15l-2.2,2.85c-0.633-0.533-1.383-0.333-2.25,0.6c-1.033,1.1-1.95,1.567-2.75,1.4
				c-0.3-2.8,0.05-4.583,1.05-5.35c0.8-0.633,2.617-0.85,5.45-0.65l-1.8-1.15c-0.8-0.467-1.367-0.917-1.7-1.35
				c0.033-0.267,0.133-0.367,0.3-0.3l0.2,0.3c0.167-0.167,0.267-0.783,0.3-1.85c0.033-0.933,0.433-1.483,1.2-1.65
				c-0.067-0.233-0.45-0.167-1.15,0.2c-0.6,0.3-0.883-0.1-0.85-1.2c1.4,0.133,2.617-0.067,3.65-0.6l2.35-1.9
				c0.3,0.033,0.45,0.217,0.45,0.55l-0.45,0.45c0.033,0.267,0.133,0.367,0.3,0.3C103.966,37.106,104.033,37.006,104.033,36.839"/>
			<path class="st1" d="M103.533,77.339h0.5c-4.167,6.367-9.883,10.4-17.15,12.1c-7.767,1.8-14-0.083-18.7-5.65
				c-2.033-2.433-2.633-5.483-1.8-9.15c0.267-1.2,1.233-3.667,2.9-7.4l0.75,0.6c0.9-0.433,1.567-1.1,2-2
				c0.4,0.733,2.133,1.9,5.2,3.5c2.8,1.433,4.4,3.1,4.8,5c0.8-0.367,0.467-1.367-1-3c2.333-0.833,4.067-1.833,5.2-3
				c1.333-1.367,2.267-3.367,2.8-6c4.533-0.4,7.3,0.7,8.3,3.3c0.833,2.167,0.317,4.767-1.55,7.8c-1.8,2.967-3.9,4.767-6.3,5.4
				c-2.7,0.7-4.683-0.633-5.95-4c0.033-0.667,0.3-1.483,0.8-2.45c0.467-0.933,0.7-1.783,0.7-2.55c-0.533,0.5-1.017,1.267-1.45,2.3
				l-1.05,2.7c1.667,1.9,2.15,4.433,1.45,7.6c-0.4,1.833-1.383,4.3-2.95,7.4c1.3-0.833,2.25-2.3,2.85-4.4l1.15-6.1
				c0.6,0.467,1.483,0.633,2.65,0.5c1.133-0.133,1.917-0.467,2.35-1c0.233,0.4,0.033,1.333-0.6,2.8c-0.667,1.533-0.8,2.933-0.4,4.2
				c0.367-3.667,1.917-6.617,4.65-8.85c1.733-1.467,4.683-3.017,8.85-4.65l0.55,2.45L103.533,77.339"/>
			<path class="st1" d="M101.533,58.339c2.267-0.633,4.067-0.15,5.4,1.45c1.2,1.4,1.733,3.2,1.6,5.4c-0.1,2.233-0.85,3.933-2.25,5.1
				c-1.6,1.367-3.683,1.55-6.25,0.55c-0.933-1.833-1.267-4.117-1-6.85C99.333,61.156,100.166,59.272,101.533,58.339"/>
			<path class="st1" d="M101.533,47.839c1,0.6,1.7,1.817,2.1,3.65l0.9,4.85c-0.267,0.833-0.883,1.3-1.85,1.4
				c-0.967,0.1-1.683-0.2-2.15-0.9c0.233,0.867-0.167,2.117-1.2,3.75c-1.1,1.667-1.533,3.25-1.3,4.75l-1.6-1.65
				c-0.667-0.633-1.133-1.25-1.4-1.85c2.733-0.633,4.4-2.617,5-5.95l0.5-4.25C100.733,50.006,101.066,48.739,101.533,47.839"/>
			<path class="st2" d="M103.533,32.339c1.1,2.567,0.017,4.283-3.25,5.15c-3.267,0.9-5.35,0.183-6.25-2.15c0-2,0.5-3.5,1.5-4.5
				l-1.75-1.45c-0.933-0.9-2.017-1.25-3.25-1.05l2.3,0.95c0.9,0.4,1.467,0.917,1.7,1.55c-0.367,3.7-2.833,6.183-7.4,7.45
				c-4.567,1.233-7.933,0.25-10.1-2.95c0.9-2.133,2.55-3.733,4.95-4.8c2-0.867,4.683-1.433,8.05-1.7
				c-0.067-0.3-0.317-0.45-0.75-0.45l-1.25-0.05c1.067-1.267,3.05-1.733,5.95-1.4c2.967,0.3,4.15,1.267,3.55,2.9
				c1.267-0.167,2.4,0.117,3.4,0.85C102.266,31.689,103.133,32.239,103.533,32.339"/>
			<path class="st1" d="M94.183,53.339c2.067-1.467,3.85-2.3,5.35-2.5c0.933,3.467,0.383,6.3-1.65,8.5
				c-1.967,2.167-4.583,3-7.85,2.5l-1.35-3.05c-0.433-1.3-0.15-1.95,0.85-1.95c-0.8-0.067-1.6-0.333-2.4-0.8
				c-0.9-0.567-1.6-1.3-2.1-2.2c0.833-2.4,1.733-4.083,2.7-5.05c1.367-1.467,3.3-2.117,5.8-1.95c0.467,1.533,0.3,3.233-0.5,5.1
				c-0.733,1.7-1.733,3-3,3.9C90.633,55.706,92.016,54.872,94.183,53.339"/>
			<path class="st1" d="M100.533,71.839c-0.3,0.433-0.983,0.917-2.05,1.45c-1.033,0.5-1.683,1.017-1.95,1.55
				c-0.267-0.367-0.05-1.117,0.65-2.25c0.767-1.233,1.05-2.317,0.85-3.25c0.5,0.067,0.933,0.467,1.3,1.2
				C99.733,71.306,100.133,71.739,100.533,71.839"/>
			<path class="st2" d="M88.533,46.839c-2.067-1.767-2.7-3.583-1.9-5.45c0.667-1.6,2.083-2.75,4.25-3.45
				c2.167-0.7,3.9-0.583,5.2,0.35c1.533,1.133,1.85,3.15,0.95,6.05c-0.567,0.9-1.8,1.5-3.7,1.8L88.533,46.839"/>
			<path class="st1" d="M94.033,36.339c0.033,0.433-0.283,0.617-0.95,0.55l-1.55-0.05c0.067-0.333,0.317-0.667,0.75-1l0.75-1
				c0.233,0.033,0.383,0.3,0.45,0.8C93.549,36.106,93.733,36.339,94.033,36.339"/>
			<path class="st2" d="M82.333,54.639c2.9,0.7,4.133,1.6,3.7,2.7c2.7,2.067,3.183,4.8,1.45,8.2c-1.633,3.233-3.783,4.833-6.45,4.8
				c-1.067,0-2.633-0.6-4.7-1.8c-2.1-1.2-3.367-2.267-3.8-3.2c-0.833-1.767-0.717-3.883,0.35-6.35l3.15-6.15
				C76.499,53.172,78.599,53.772,82.333,54.639"/>
			<path class="st1" d="M83.533,39.839c0.033-0.433,0.433-0.617,1.2-0.55l1.8,0.05c-0.467,0.7-0.633,1.533-0.5,2.5
				c-0.333-0.1-0.717-0.467-1.15-1.1C84.483,40.172,84.033,39.872,83.533,39.839"/>
			<path class="st2" d="M72.533,38.839c2.033-1.367,4.217-1.683,6.55-0.95c2.133,0.633,3.917,1.967,5.35,4
				c1.467,2,2.133,4.083,2,6.25c-0.133,2.367-1.267,4.267-3.4,5.7c-2.8-0.367-4.967-0.867-6.5-1.5c-0.167-1.033-1.05-3.067-2.65-6.1
				C72.649,43.906,72.199,41.439,72.533,38.839"/>
			<path class="st1" d="M76.033,34.339c0.333,0.033,0.533,0.417,0.6,1.15c0.1,0.633,0.4,0.917,0.9,0.85
				c-0.267,0.267-1.117,0.483-2.55,0.65c-1.2,0.167-1.85,0.617-1.95,1.35c-0.267-0.4,0.05-1.05,0.95-1.95L76.033,34.339"/>
			<path class="st3" d="M67.183,30.439c3.967,2.1,6.417,3.233,7.35,3.4c-1.867,0.767-3.017,2.75-3.45,5.95
				c-0.467,3.267,0.183,5.617,1.95,7.05c-1,0.033-2.5-0.583-4.5-1.85c-2.4-1.5-4.067-2.383-5-2.65c0-0.2,0.117-0.333,0.35-0.4
				l0.65-0.1l-2.95-1.55c-0.967-0.733-1.483-1.717-1.55-2.95l2.5-0.35l2.5,0.35c-0.733-0.767-2.067-1.1-4-1l-0.75,0.55l-0.75,0.45
				c0,1.567,0.5,2.567,1.5,3c-0.9,0.033-2.233-0.583-4-1.85c-2.1-1.5-3.6-2.383-4.5-2.65c1.7-1,2.233-2.4,1.6-4.2
				c-1.133-2.133-1.833-3.733-2.1-4.8c1.033-0.567,2.45-0.683,4.25-0.35l4.25,0.85c-1.233,2.6-0.383,4.767,2.55,6.5
				c1.667,0.933,4.317,2.1,7.95,3.5c-0.567-0.533-2.667-1.617-6.3-3.25c-2.667-1.2-4.233-2.783-4.7-4.75
				C61.866,28.539,64.249,28.906,67.183,30.439"/>
			<path class="st3" d="M63.033,59.839c2-2.167,4.833-3.5,8.5-4c0.167,1.733,0.117,3.517-0.15,5.35l-0.85,4.65l-4.85,1.65
				l-5.15,1.35c0.1-0.733,0.65-2.1,1.65-4.1C62.949,63.139,63.233,61.506,63.033,59.839"/>
			<path class="st3" d="M54.033,66.839c2.433-0.733,3.933-2.9,4.5-6.5c0.567-0.8,1.967-1.483,4.2-2.05c2.167-0.6,2.1-0.25-0.2,1.05
				c0.233,1.767-0.067,3.533-0.9,5.3c-1,2.067-1.533,3.633-1.6,4.7c-1.1,0.667-2.3,0.75-3.6,0.25c-1.267-0.467-2.4-0.383-3.4,0.25
				c0.067-0.367-0.033-0.75-0.3-1.15c-0.267-0.4-0.333-0.85-0.2-1.35c-0.8,0-1.3,0.333-1.5,1c-0.6-0.167-0.733-0.6-0.4-1.3
				c0.333-0.733,0.8-0.967,1.4-0.7c-0.467-1.7-1.633-2.367-3.5-2c0.6-1.367,1.917-2.383,3.95-3.05c1.167-0.4,3.017-0.883,5.55-1.45
				c-0.033,1.533-0.5,2.9-1.4,4.1L54.033,66.839"/>
			<path class="st3" d="M44.183,29.539c-0.367-1.2-1.033-2.317-2-3.35c-1.367-2.2-2.75-3.817-4.15-4.85
				c-0.3-0.2-0.733-0.367-1.3-0.5l-1.3-0.4l-0.75-0.95l-0.15-0.65c3.2-0.467,6-0.417,8.4,0.15c3,0.733,4.7,2.183,5.1,4.35
				c0.733,0.667,1.817,1.167,3.25,1.5l4.25,0.5c0.467,0.367,0.017,0.533-1.35,0.5c-1.667-0.033-2.55,0.133-2.65,0.5
				c-0.167,1.267,0.25,2.517,1.25,3.75c1,1.2,1.417,2.45,1.25,3.75c-0.6,0.267-0.933,0.6-1,1c-1.367-0.2-2.817-0.65-4.35-1.35
				c-1.467-0.7-2.517-1.417-3.15-2.15L44.183,29.539"/>
			<path class="st3" d="M53.033,23.839c-0.767,0.6-1.8,0.667-3.1,0.2s-1.933-1.2-1.9-2.2c0.7,0.1,1.533,0.433,2.5,1
				C51.499,23.439,52.333,23.772,53.033,23.839"/>
			<path class="st3" d="M44.533,30.839l-0.1,0.6c-1.433-1.3-4.133-2.783-8.1-4.45c-5.533-2.333-8.783-3.767-9.75-4.3
				c-7.167-3.733-8.383-8.217-3.65-13.45c0.2-0.5,0.667-0.867,1.4-1.1l1.7-0.8h2l7.7,5.55c3.233,2.4,5.833,4.217,7.8,5.45h-0.5
				l-4.5-0.4c-2.033-0.533-3.533-0.4-4.5,0.4l0.65,1.15c0.2,0.467,0.45,0.783,0.75,0.95c0.667,0.767,1.783,1.733,3.35,2.9l3.4,2.85
				l2,3.35L44.533,30.839"/>
			<path class="st0" d="M44.183,29.539l-2-3.35C43.149,27.222,43.816,28.339,44.183,29.539"/>
			<path class="st0" d="M35.633,43.739l0.4-0.4c2.467,3.1,4.2,5.95,5.2,8.55c1.5,3.867,1.267,6.85-0.7,8.95l-3.55-1.1
				c-1.333-0.2-2.65,0-3.95,0.6c0.067-0.267-0.233-0.633-0.9-1.1c-0.767-0.467-1.133-1.1-1.1-1.9c-0.567-0.067-1.067,0.183-1.5,0.75
				c-0.4,0.6-0.9,0.85-1.5,0.75c0.067-0.333,0.317-0.667,0.75-1c0.467-0.333,0.717-0.667,0.75-1c-2-2-4.167-5-6.5-9l0.5-1.5
				c2.133,0.533,3.733,2.167,4.8,4.9c1.167,3.033,2.4,4.9,3.7,5.6c-0.167-2.1,0.133-4.317,0.9-6.65l2.1-6.35L35.633,43.739
				 M24.033,46.839c1.167,2.367,2.667,4.367,4.5,6c-0.167-1.333-0.733-2.517-1.7-3.55L24.033,46.839 M34.033,54.839
				c0.467-0.767,1.267-1.3,2.4-1.6l3.6-0.4c-0.967-2.833-2.467-5.667-4.5-8.5c0.033,0.633-0.633,2.383-2,5.25
				C32.499,51.689,32.666,53.439,34.033,54.839 M37.533,59.339c1.467-0.267,2.517-0.717,3.15-1.35c0.833-0.8,1.117-2.017,0.85-3.65
				c-2.4-1.767-5.567-0.933-9.5,2.5c-0.033,0.467,0.1,0.917,0.4,1.35l0.6,1.15c1,0.267,1.733,0.083,2.2-0.55l1.3-1.45l0.5,1
				L37.533,59.339"/>
			<path class="st4" d="M32.033,56.839c3.933-3.433,7.1-4.267,9.5-2.5c0.267,1.633-0.017,2.85-0.85,3.65
				c-0.633,0.633-1.683,1.083-3.15,1.35l-0.5-1l-0.5-1l-1.3,1.45c-0.467,0.633-1.2,0.817-2.2,0.55l-0.6-1.15
				C32.133,57.756,31.999,57.306,32.033,56.839"/>
			<path class="st0" d="M42.183,26.189l-3.4-2.85c-1.567-1.167-2.683-2.133-3.35-2.9l1.3,0.4c0.567,0.133,1,0.3,1.3,0.5
				C39.433,22.372,40.816,23.989,42.183,26.189"/>
			<path class="st3" d="M40.033,52.839l-3.6,0.4c-1.133,0.3-1.933,0.833-2.4,1.6c-1.367-1.4-1.533-3.15-0.5-5.25
				c1.367-2.867,2.033-4.617,2-5.25C37.566,47.172,39.066,50.006,40.033,52.839"/>
			<path class="st3" d="M27.733,30.639c1.133,0.867,2.483,2.85,4.05,5.95l3.85,7.15l-0.6,0.1l-2.1,6.35
				c-0.767,2.333-1.067,4.55-0.9,6.65c-1.3-0.7-2.533-2.567-3.7-5.6c-1.067-2.733-2.667-4.367-4.8-4.9l-0.25,0.75
				c-2.167-1.133-3.65-2.983-4.45-5.55c-0.733-2.333-0.8-4.7-0.2-7.1c0.633-2.4,1.717-4.017,3.25-4.85
				C23.649,28.656,25.599,29.006,27.733,30.639"/>
			<path class="st3" d="M24.033,46.839l2.8,2.45c0.967,1.033,1.533,2.217,1.7,3.55C26.699,51.206,25.199,49.206,24.033,46.839"/>
			<path class="st5" d="M23.283,47.089c-2.167-1.133-3.65-2.983-4.45-5.55c-0.733-2.333-0.8-4.7-0.2-7.1
				c0.633-2.4,1.717-4.017,3.25-4.85c1.767-0.933,3.717-0.583,5.85,1.05c1.133,0.867,2.483,2.85,4.05,5.95l3.85,7.15"/>
			<path class="st6" d="M104.033,77.339c-4.167,6.367-9.883,10.4-17.15,12.1c-7.767,1.8-14-0.083-18.7-5.65
				c-2.033-2.433-2.633-5.483-1.8-9.15c0.267-1.2,1.233-3.667,2.9-7.4"/>
			<path class="st7" d="M28.033,7.339l7.7,5.55c3.233,2.4,5.833,4.217,7.8,5.45"/>
			<path class="st8" d="M26.033,7.339h2"/>
			<path class="st9" d="M44.433,31.439c-1.433-1.3-4.133-2.783-8.1-4.45c-5.533-2.333-8.783-3.767-9.75-4.3
				c-7.167-3.733-8.383-8.217-3.65-13.45c0.2-0.5,0.667-0.867,1.4-1.1l1.7-0.8"/>
		</g>
	</g>
	<g transform="matrix(1.0, 0.0, 0.0, 1.0, 0.0, -0.05)">
		<g transform="matrix(1.0, 0.0, 0.0, 1.0, 0.0, 0.05)">
			<g id="shape0_1_" transform="matrix(1.0, 0.0, 0.0, 1.0, 0.0, -0.05)">
				<path class="st0" d="M105.132,39.489c-1.1,3.933-1.633,6.233-1.6,6.9c0.033,0.9,0.583,2.617,1.65,5.15
					c0.933,2.167,1.217,4.117,0.85,5.85c1.267,1.2,2.483,2.9,3.65,5.1l2.85,5.9v3c-2,2.767-4.833,4.933-8.5,6.5v-0.5h-0.5
					l-0.45-2.55l-0.55-2.45c-4.167,1.633-7.117,3.183-8.85,4.65c-2.733,2.233-4.283,5.183-4.65,8.85c-0.4-1.267-0.267-2.667,0.4-4.2
					c0.633-1.467,0.833-2.4,0.6-2.8c-0.433,0.533-1.217,0.867-2.35,1c-1.167,0.133-2.05-0.033-2.65-0.5l-1.15,6.1
					c-0.6,2.1-1.55,3.567-2.85,4.4c1.567-3.1,2.55-5.567,2.95-7.4c0.7-3.167,0.217-5.7-1.45-7.6l1.05-2.7
					c0.433-1.033,0.917-1.8,1.45-2.3c0,0.767-0.233,1.617-0.7,2.55c-0.5,0.967-0.767,1.783-0.8,2.45c1.267,3.367,3.25,4.7,5.95,4
					c2.4-0.633,4.5-2.433,6.3-5.4c1.867-3.033,2.383-5.633,1.55-7.8c-1-2.6-3.767-3.7-8.3-3.3c-0.533,2.633-1.467,4.633-2.8,6
					c-1.133,1.167-2.867,2.167-5.2,3c1.467,1.633,1.8,2.633,1,3c-0.4-1.9-2-3.567-4.8-5c-3.067-1.6-4.8-2.767-5.2-3.5
					c-0.433,0.9-1.1,1.567-2,2l-0.75-0.6l-0.75,0.6l-11,3.5l-4.5-1.5c-1.267-0.267-2.767-0.267-4.5,0c1.033-1.133,1.7-2.633,2-4.5
					c-0.267-0.233-1-0.417-2.2-0.55c-1.067-0.133-1.667-0.45-1.8-0.95c2.2-2.433,6.833-4.45,13.9-6.05
					c7.467-1.7,12.333-3.517,14.6-5.45c-2.933-3.567-7.85-7.217-14.75-10.95c-8.667-4.7-14.083-7.883-16.25-9.55l0.4-0.4l0.1-0.6
					l-0.35-1.3l1.35,1.8c0.633,0.733,1.683,1.45,3.15,2.15c1.533,0.7,2.983,1.15,4.35,1.35c0.067-0.4,0.4-0.733,1-1
					c0.167-1.3-0.25-2.55-1.25-3.75c-1-1.233-1.417-2.483-1.25-3.75c0.1-0.367,0.983-0.533,2.65-0.5
					c1.367,0.033,1.817-0.133,1.35-0.5l-4.25-0.5c-1.433-0.333-2.517-0.833-3.25-1.5c-0.4-2.167-2.1-3.617-5.1-4.35
					c-2.4-0.567-5.2-0.617-8.4-0.15l0.15,0.65l-0.65-1.15c0.967-0.8,2.467-0.933,4.5-0.4l4.5,0.4h0.5v-0.5
					c3.6,2.167,8.883,4.8,15.85,7.9c7.833,3.5,13.217,6.033,16.15,7.6l8.6-5.1c4-1.967,7.467-2.767,10.4-2.4
					c1.7,0.233,3.467,1.067,5.3,2.5l4.7,3.5C105.732,34.056,105.932,36.589,105.132,39.489 M101.182,37.789
					c-1.033,0.533-2.25,0.733-3.65,0.6c-0.033,1.1,0.25,1.5,0.85,1.2c0.7-0.367,1.083-0.433,1.15-0.2
					c-0.767,0.167-1.167,0.717-1.2,1.65c-0.033,1.067-0.133,1.683-0.3,1.85l-0.2-0.3c-0.167-0.067-0.267,0.033-0.3,0.3
					c0.333,0.433,0.9,0.883,1.7,1.35l1.8,1.15c-2.833-0.2-4.65,0.017-5.45,0.65c-1,0.767-1.35,2.55-1.05,5.35
					c0.8,0.167,1.717-0.3,2.75-1.4c0.867-0.933,1.617-1.133,2.25-0.6l2.2-2.85c0.933-1.133,0.867-1.85-0.2-2.15
					c0.867-0.6,1.583-1.75,2.15-3.45c0.533-1.7,0.65-3.05,0.35-4.05c0,0.167-0.067,0.267-0.2,0.3c-0.167,0.067-0.267-0.033-0.3-0.3
					l0.45-0.45c0-0.333-0.15-0.517-0.45-0.55L101.182,37.789 M103.532,32.389c-0.4-0.1-1.267-0.65-2.6-1.65
					c-1-0.733-2.133-1.017-3.4-0.85c0.6-1.633-0.583-2.6-3.55-2.9c-2.9-0.333-4.883,0.133-5.95,1.4l1.25,0.05
					c0.433,0,0.683,0.15,0.75,0.45c-3.367,0.267-6.05,0.833-8.05,1.7c-2.4,1.067-4.05,2.667-4.95,4.8
					c2.167,3.2,5.533,4.183,10.1,2.95c4.567-1.267,7.033-3.75,7.4-7.45c-0.233-0.633-0.8-1.15-1.7-1.55l-2.3-0.95
					c1.233-0.2,2.317,0.15,3.25,1.05l1.75,1.45c-1,1-1.5,2.5-1.5,4.5c0.9,2.333,2.983,3.05,6.25,2.15
					C103.549,36.673,104.632,34.956,103.532,32.389 M99.532,49.889v-0.5c-0.167,0-0.267,0.067-0.3,0.2
					C99.165,49.756,99.265,49.856,99.532,49.889 M100.032,55.939c-0.6,3.333-2.267,5.317-5,5.95c0.267,0.6,0.733,1.217,1.4,1.85
					l1.6,1.65c-0.233-1.5,0.2-3.083,1.3-4.75c1.033-1.633,1.433-2.883,1.2-3.75c0.467,0.7,1.183,1,2.15,0.9
					c0.967-0.1,1.583-0.567,1.85-1.4l-0.9-4.85c-0.4-1.833-1.1-3.05-2.1-3.65c-0.467,0.9-0.8,2.167-1,3.8L100.032,55.939
					 M109.032,65.889c-0.267,3.367-2.267,5.533-6,6.5c0.5,0.2,0.783,0.917,0.85,2.15c0.1,1.3,0.317,2.083,0.65,2.35
					c1.933-1.767,3.933-3.1,6-4v-4.25C110.465,67.006,109.965,66.089,109.032,65.889 M99.032,64.039
					c-0.267,2.733,0.067,5.017,1,6.85c2.567,1,4.65,0.817,6.25-0.55c1.4-1.167,2.15-2.867,2.25-5.1c0.133-2.2-0.4-4-1.6-5.4
					c-1.333-1.6-3.133-2.083-5.4-1.45C100.165,59.323,99.332,61.206,99.032,64.039 M99.332,70.589c-0.367-0.733-0.8-1.133-1.3-1.2
					c0.2,0.933-0.083,2.017-0.85,3.25c-0.7,1.133-0.917,1.883-0.65,2.25c0.267-0.533,0.917-1.05,1.95-1.55
					c1.067-0.533,1.75-1.017,2.05-1.45C100.132,71.789,99.732,71.356,99.332,70.589 M60.032,29.389c0.467,1.967,2.033,3.55,4.7,4.75
					c3.633,1.633,5.733,2.717,6.3,3.25c-3.633-1.4-6.283-2.567-7.95-3.5c-2.933-1.733-3.783-3.9-2.55-6.5l-4.25-0.85
					c-1.8-0.333-3.217-0.217-4.25,0.35c0.267,1.067,0.967,2.667,2.1,4.8c0.633,1.8,0.1,3.2-1.6,4.2c0.9,0.267,2.4,1.15,4.5,2.65
					c1.767,1.267,3.1,1.883,4,1.85c-1-0.433-1.5-1.433-1.5-3l0.75-0.45l0.75-0.55c1.933-0.1,3.267,0.233,4,1l-2.5-0.35l-2.5,0.35
					c0.067,1.233,0.583,2.217,1.55,2.95l2.95,1.55l-0.65,0.1c-0.233,0.067-0.35,0.2-0.35,0.4c0.933,0.267,2.6,1.15,5,2.65
					c2,1.267,3.5,1.883,4.5,1.85c-1.767-1.433-2.417-3.783-1.95-7.05c0.433-3.2,1.583-5.183,3.45-5.95
					c-0.933-0.167-3.383-1.3-7.35-3.4C64.249,28.956,61.865,28.589,60.032,29.389 M77.532,36.389c-0.5,0.067-0.8-0.217-0.9-0.85
					c-0.067-0.733-0.267-1.117-0.6-1.15l-2.05,2.05c-0.9,0.9-1.217,1.55-0.95,1.95c0.1-0.733,0.75-1.183,1.95-1.35
					C76.415,36.873,77.265,36.656,77.532,36.389 M76.532,52.389c1.533,0.633,3.7,1.133,6.5,1.5c2.133-1.433,3.267-3.333,3.4-5.7
					c0.133-2.167-0.533-4.25-2-6.25c-1.433-2.033-3.217-3.367-5.35-4c-2.333-0.733-4.517-0.417-6.55,0.95
					c-0.333,2.6,0.117,5.067,1.35,7.4C75.482,49.323,76.365,51.356,76.532,52.389 M93.082,36.939c0.667,0.067,0.983-0.117,0.95-0.55
					c-0.3,0-0.483-0.233-0.55-0.7c-0.067-0.5-0.217-0.767-0.45-0.8l-0.75,1c-0.433,0.333-0.683,0.667-0.75,1L93.082,36.939
					 M90.882,37.989c-2.167,0.7-3.583,1.85-4.25,3.45c-0.8,1.867-0.167,3.683,1.9,5.45l4.8-0.7c1.9-0.3,3.133-0.9,3.7-1.8
					c0.9-2.9,0.583-4.917-0.95-6.05C94.782,37.406,93.049,37.289,90.882,37.989 M84.732,39.339c-0.767-0.067-1.167,0.117-1.2,0.55
					c0.5,0.033,0.95,0.333,1.35,0.9c0.433,0.633,0.817,1,1.15,1.1c-0.133-0.967,0.033-1.8,0.5-2.5L84.732,39.339 M87.132,56.089
					c0.8,0.467,1.6,0.733,2.4,0.8c-1,0-1.283,0.65-0.85,1.95l1.35,3.05c3.267,0.5,5.883-0.333,7.85-2.5
					c2.033-2.2,2.583-5.033,1.65-8.5c-1.5,0.2-3.283,1.033-5.35,2.5c-2.167,1.533-3.55,2.367-4.15,2.5c1.267-0.9,2.267-2.2,3-3.9
					c0.8-1.867,0.967-3.567,0.5-5.1c-2.5-0.167-4.433,0.483-5.8,1.95c-0.967,0.967-1.867,2.65-2.7,5.05
					C85.532,54.789,86.232,55.523,87.132,56.089 M76.032,52.889l-3.15,6.15c-1.067,2.467-1.183,4.583-0.35,6.35
					c0.433,0.933,1.7,2,3.8,3.2c2.067,1.2,3.633,1.8,4.7,1.8c2.667,0.033,4.817-1.567,6.45-4.8c1.733-3.4,1.25-6.133-1.45-8.2
					c0.433-1.1-0.8-2-3.7-2.7C78.599,53.823,76.499,53.223,76.032,52.889 M50.532,22.889c-0.967-0.567-1.8-0.9-2.5-1
					c-0.033,1,0.6,1.733,1.9,2.2s2.333,0.4,3.1-0.2C52.332,23.823,51.499,23.489,50.532,22.889 M50.632,67.089
					c-0.333,0.7-0.2,1.133,0.4,1.3c0.2-0.667,0.7-1,1.5-1c-0.133,0.5-0.067,0.95,0.2,1.35c0.267,0.4,0.367,0.783,0.3,1.15
					c1-0.633,2.133-0.717,3.4-0.25c1.3,0.5,2.5,0.417,3.6-0.25c0.067-1.067,0.6-2.633,1.6-4.7c0.833-1.767,1.133-3.533,0.9-5.3
					c2.3-1.3,2.367-1.65,0.2-1.05c-2.233,0.567-3.633,1.25-4.2,2.05c-0.567,3.6-2.067,5.767-4.5,6.5l2.6-2.9
					c0.9-1.2,1.367-2.567,1.4-4.1c-2.533,0.567-4.383,1.05-5.55,1.45c-2.033,0.667-3.35,1.683-3.95,3.05
					c1.867-0.367,3.033,0.3,3.5,2C51.432,66.123,50.965,66.356,50.632,67.089 M71.382,61.239c0.267-1.833,0.317-3.617,0.15-5.35
					c-3.667,0.5-6.5,1.833-8.5,4c0.2,1.667-0.083,3.3-0.85,4.9c-1,2-1.55,3.367-1.65,4.1l5.15-1.35l4.85-1.65L71.382,61.239"/>
				<path class="st1" d="M109.032,65.889c0.933,0.2,1.433,1.117,1.5,2.75v4.25c-2.067,0.9-4.067,2.233-6,4
					c-0.333-0.267-0.55-1.05-0.65-2.35c-0.067-1.233-0.35-1.95-0.85-2.15C106.765,71.423,108.765,69.256,109.032,65.889"/>
				<path class="st1" d="M104.032,36.889c0.3,1,0.183,2.35-0.35,4.05c-0.567,1.7-1.283,2.85-2.15,3.45
					c1.067,0.3,1.133,1.017,0.2,2.15l-2.2,2.85c-0.633-0.533-1.383-0.333-2.25,0.6c-1.033,1.1-1.95,1.567-2.75,1.4
					c-0.3-2.8,0.05-4.583,1.05-5.35c0.8-0.633,2.617-0.85,5.45-0.65l-1.8-1.15c-0.8-0.467-1.367-0.917-1.7-1.35
					c0.033-0.267,0.133-0.367,0.3-0.3l0.2,0.3c0.167-0.167,0.267-0.783,0.3-1.85c0.033-0.933,0.433-1.483,1.2-1.65
					c-0.067-0.233-0.45-0.167-1.15,0.2c-0.6,0.3-0.883-0.1-0.85-1.2c1.4,0.133,2.617-0.067,3.65-0.6l2.35-1.9
					c0.3,0.033,0.45,0.217,0.45,0.55l-0.45,0.45c0.033,0.267,0.133,0.367,0.3,0.3C103.965,37.156,104.032,37.056,104.032,36.889"/>
				<path class="st1" d="M103.532,77.389h0.5c-4.167,6.367-9.883,10.4-17.15,12.1c-7.767,1.8-14-0.083-18.7-5.65
					c-2.033-2.433-2.633-5.483-1.8-9.15c0.267-1.2,1.233-3.667,2.9-7.4l0.75,0.6c0.9-0.433,1.567-1.1,2-2
					c0.4,0.733,2.133,1.9,5.2,3.5c2.8,1.433,4.4,3.1,4.8,5c0.8-0.367,0.467-1.367-1-3c2.333-0.833,4.067-1.833,5.2-3
					c1.333-1.367,2.267-3.367,2.8-6c4.533-0.4,7.3,0.7,8.3,3.3c0.833,2.167,0.317,4.767-1.55,7.8c-1.8,2.967-3.9,4.767-6.3,5.4
					c-2.7,0.7-4.683-0.633-5.95-4c0.033-0.667,0.3-1.483,0.8-2.45c0.467-0.933,0.7-1.783,0.7-2.55c-0.533,0.5-1.017,1.267-1.45,2.3
					l-1.05,2.7c1.667,1.9,2.15,4.433,1.45,7.6c-0.4,1.833-1.383,4.3-2.95,7.4c1.3-0.833,2.25-2.3,2.85-4.4l1.15-6.1
					c0.6,0.467,1.483,0.633,2.65,0.5c1.133-0.133,1.917-0.467,2.35-1c0.233,0.4,0.033,1.333-0.6,2.8c-0.667,1.533-0.8,2.933-0.4,4.2
					c0.367-3.667,1.917-6.617,4.65-8.85c1.733-1.467,4.683-3.017,8.85-4.65l0.55,2.45L103.532,77.389"/>
				<path class="st1" d="M101.532,58.389c2.267-0.633,4.067-0.15,5.4,1.45c1.2,1.4,1.733,3.2,1.6,5.4
					c-0.1,2.233-0.85,3.933-2.25,5.1c-1.6,1.367-3.683,1.55-6.25,0.55c-0.933-1.833-1.267-4.117-1-6.85
					C99.332,61.206,100.165,59.323,101.532,58.389"/>
				<path class="st1" d="M101.532,47.889c1,0.6,1.7,1.817,2.1,3.65l0.9,4.85c-0.267,0.833-0.883,1.3-1.85,1.4
					c-0.967,0.1-1.683-0.2-2.15-0.9c0.233,0.867-0.167,2.117-1.2,3.75c-1.1,1.667-1.533,3.25-1.3,4.75l-1.6-1.65
					c-0.667-0.633-1.133-1.25-1.4-1.85c2.733-0.633,4.4-2.617,5-5.95l0.5-4.25C100.732,50.056,101.065,48.789,101.532,47.889"/>
				<path class="st2" d="M103.532,32.389c1.1,2.567,0.017,4.283-3.25,5.15c-3.267,0.9-5.35,0.183-6.25-2.15c0-2,0.5-3.5,1.5-4.5
					l-1.75-1.45c-0.933-0.9-2.017-1.25-3.25-1.05l2.3,0.95c0.9,0.4,1.467,0.917,1.7,1.55c-0.367,3.7-2.833,6.183-7.4,7.45
					c-4.567,1.233-7.933,0.25-10.1-2.95c0.9-2.133,2.55-3.733,4.95-4.8c2-0.867,4.683-1.433,8.05-1.7
					c-0.067-0.3-0.317-0.45-0.75-0.45l-1.25-0.05c1.067-1.267,3.05-1.733,5.95-1.4c2.967,0.3,4.15,1.267,3.55,2.9
					c1.267-0.167,2.4,0.117,3.4,0.85C102.265,31.739,103.132,32.289,103.532,32.389"/>
				<path class="st1" d="M94.182,53.389c2.067-1.467,3.85-2.3,5.35-2.5c0.933,3.467,0.383,6.3-1.65,8.5
					c-1.967,2.167-4.583,3-7.85,2.5l-1.35-3.05c-0.433-1.3-0.15-1.95,0.85-1.95c-0.8-0.067-1.6-0.333-2.4-0.8
					c-0.9-0.567-1.6-1.3-2.1-2.2c0.833-2.4,1.733-4.083,2.7-5.05c1.367-1.467,3.3-2.117,5.8-1.95c0.467,1.533,0.3,3.233-0.5,5.1
					c-0.733,1.7-1.733,3-3,3.9C90.632,55.756,92.015,54.923,94.182,53.389"/>
				<path class="st1" d="M100.532,71.889c-0.3,0.433-0.983,0.917-2.05,1.45c-1.033,0.5-1.683,1.017-1.95,1.55
					c-0.267-0.367-0.05-1.117,0.65-2.25c0.767-1.233,1.05-2.317,0.85-3.25c0.5,0.067,0.933,0.467,1.3,1.2
					C99.732,71.356,100.132,71.789,100.532,71.889"/>
				<path class="st2" d="M88.532,46.889c-2.067-1.767-2.7-3.583-1.9-5.45c0.667-1.6,2.083-2.75,4.25-3.45
					c2.167-0.7,3.9-0.583,5.2,0.35c1.533,1.133,1.85,3.15,0.95,6.05c-0.567,0.9-1.8,1.5-3.7,1.8L88.532,46.889"/>
				<path class="st1" d="M94.032,36.389c0.033,0.433-0.283,0.617-0.95,0.55l-1.55-0.05c0.067-0.333,0.317-0.667,0.75-1l0.75-1
					c0.233,0.033,0.383,0.3,0.45,0.8C93.549,36.156,93.732,36.389,94.032,36.389"/>
				<path class="st2" d="M82.332,54.689c2.9,0.7,4.133,1.6,3.7,2.7c2.7,2.067,3.183,4.8,1.45,8.2c-1.633,3.233-3.783,4.833-6.45,4.8
					c-1.067,0-2.633-0.6-4.7-1.8c-2.1-1.2-3.367-2.267-3.8-3.2c-0.833-1.767-0.717-3.883,0.35-6.35l3.15-6.15
					C76.499,53.223,78.599,53.823,82.332,54.689"/>
				<path class="st1" d="M83.532,39.889c0.033-0.433,0.433-0.617,1.2-0.55l1.8,0.05c-0.467,0.7-0.633,1.533-0.5,2.5
					c-0.333-0.1-0.717-0.467-1.15-1.1C84.482,40.223,84.032,39.923,83.532,39.889"/>
				<path class="st2" d="M72.532,38.889c2.033-1.367,4.217-1.683,6.55-0.95c2.133,0.633,3.917,1.967,5.35,4
					c1.467,2,2.133,4.083,2,6.25c-0.133,2.367-1.267,4.267-3.4,5.7c-2.8-0.367-4.967-0.867-6.5-1.5
					c-0.167-1.033-1.05-3.067-2.65-6.1C72.649,43.956,72.199,41.489,72.532,38.889"/>
				<path class="st1" d="M76.032,34.389c0.333,0.033,0.533,0.417,0.6,1.15c0.1,0.633,0.4,0.917,0.9,0.85
					c-0.267,0.267-1.117,0.483-2.55,0.65c-1.2,0.167-1.85,0.617-1.95,1.35c-0.267-0.4,0.05-1.05,0.95-1.95L76.032,34.389"/>
				<path class="st3" d="M67.182,30.489c3.967,2.1,6.417,3.233,7.35,3.4c-1.867,0.767-3.017,2.75-3.45,5.95
					c-0.467,3.267,0.183,5.617,1.95,7.05c-1,0.033-2.5-0.583-4.5-1.85c-2.4-1.5-4.067-2.383-5-2.65c0-0.2,0.117-0.333,0.35-0.4
					l0.65-0.1l-2.95-1.55c-0.967-0.733-1.483-1.717-1.55-2.95l2.5-0.35l2.5,0.35c-0.733-0.767-2.067-1.1-4-1l-0.75,0.55l-0.75,0.45
					c0,1.567,0.5,2.567,1.5,3c-0.9,0.033-2.233-0.583-4-1.85c-2.1-1.5-3.6-2.383-4.5-2.65c1.7-1,2.233-2.4,1.6-4.2
					c-1.133-2.133-1.833-3.733-2.1-4.8c1.033-0.567,2.45-0.683,4.25-0.35l4.25,0.85c-1.233,2.6-0.383,4.767,2.55,6.5
					c1.667,0.933,4.317,2.1,7.95,3.5c-0.567-0.533-2.667-1.617-6.3-3.25c-2.667-1.2-4.233-2.783-4.7-4.75
					C61.865,28.589,64.249,28.956,67.182,30.489"/>
				<path class="st3" d="M63.032,59.889c2-2.167,4.833-3.5,8.5-4c0.167,1.733,0.117,3.517-0.15,5.35l-0.85,4.65l-4.85,1.65
					l-5.15,1.35c0.1-0.733,0.65-2.1,1.65-4.1C62.949,63.189,63.232,61.556,63.032,59.889"/>
				<path class="st3" d="M54.032,66.889c2.433-0.733,3.933-2.9,4.5-6.5c0.567-0.8,1.967-1.483,4.2-2.05c2.167-0.6,2.1-0.25-0.2,1.05
					c0.233,1.767-0.067,3.533-0.9,5.3c-1,2.067-1.533,3.633-1.6,4.7c-1.1,0.667-2.3,0.75-3.6,0.25c-1.267-0.467-2.4-0.383-3.4,0.25
					c0.067-0.367-0.033-0.75-0.3-1.15c-0.267-0.4-0.333-0.85-0.2-1.35c-0.8,0-1.3,0.333-1.5,1c-0.6-0.167-0.733-0.6-0.4-1.3
					c0.333-0.733,0.8-0.967,1.4-0.7c-0.467-1.7-1.633-2.367-3.5-2c0.6-1.367,1.917-2.383,3.95-3.05c1.167-0.4,3.017-0.883,5.55-1.45
					c-0.033,1.533-0.5,2.9-1.4,4.1L54.032,66.889"/>
				<path class="st3" d="M44.182,29.589c-0.367-1.2-1.033-2.317-2-3.35c-1.367-2.2-2.75-3.817-4.15-4.85
					c-0.3-0.2-0.733-0.367-1.3-0.5l-1.3-0.4l-0.75-0.95l-0.15-0.65c3.2-0.467,6-0.417,8.4,0.15c3,0.733,4.7,2.183,5.1,4.35
					c0.733,0.667,1.817,1.167,3.25,1.5l4.25,0.5c0.467,0.367,0.017,0.533-1.35,0.5c-1.667-0.033-2.55,0.133-2.65,0.5
					c-0.167,1.267,0.25,2.517,1.25,3.75c1,1.2,1.417,2.45,1.25,3.75c-0.6,0.267-0.933,0.6-1,1c-1.367-0.2-2.817-0.65-4.35-1.35
					c-1.467-0.7-2.517-1.417-3.15-2.15L44.182,29.589"/>
				<path class="st3" d="M53.032,23.889c-0.767,0.6-1.8,0.667-3.1,0.2s-1.933-1.2-1.9-2.2c0.7,0.1,1.533,0.433,2.5,1
					C51.499,23.489,52.332,23.823,53.032,23.889"/>
				<path class="st3" d="M44.532,30.889l-0.1,0.6c-1.433-1.3-4.133-2.783-8.1-4.45c-5.533-2.333-8.783-3.767-9.75-4.3
					c-7.167-3.733-8.383-8.217-3.65-13.45c0.2-0.5,0.667-0.867,1.4-1.1l1.7-0.8h2l7.7,5.55c3.233,2.4,5.833,4.217,7.8,5.45h-0.5
					l-4.5-0.4c-2.033-0.533-3.533-0.4-4.5,0.4l0.65,1.15c0.2,0.467,0.45,0.783,0.75,0.95c0.667,0.767,1.783,1.733,3.35,2.9l3.4,2.85
					l2,3.35L44.532,30.889"/>
				<path class="st0" d="M44.182,29.589l-2-3.35C43.149,27.273,43.815,28.389,44.182,29.589"/>
				<path class="st0" d="M35.632,43.789l0.4-0.4c2.467,3.1,4.2,5.95,5.2,8.55c1.5,3.867,1.267,6.85-0.7,8.95l-3.55-1.1
					c-1.333-0.2-2.65,0-3.95,0.6c0.067-0.267-0.233-0.633-0.9-1.1c-0.767-0.467-1.133-1.1-1.1-1.9
					c-0.567-0.067-1.067,0.183-1.5,0.75c-0.4,0.6-0.9,0.85-1.5,0.75c0.067-0.333,0.317-0.667,0.75-1c0.467-0.333,0.717-0.667,0.75-1
					c-2-2-4.167-5-6.5-9l0.5-1.5c2.133,0.533,3.733,2.167,4.8,4.9c1.167,3.033,2.4,4.9,3.7,5.6c-0.167-2.1,0.133-4.317,0.9-6.65
					l2.1-6.35L35.632,43.789 M24.032,46.889c1.167,2.367,2.667,4.367,4.5,6c-0.167-1.333-0.733-2.517-1.7-3.55L24.032,46.889
					 M34.032,54.889c0.467-0.767,1.267-1.3,2.4-1.6l3.6-0.4c-0.967-2.833-2.467-5.667-4.5-8.5c0.033,0.633-0.633,2.383-2,5.25
					C32.499,51.739,32.665,53.489,34.032,54.889 M37.532,59.389c1.467-0.267,2.517-0.717,3.15-1.35c0.833-0.8,1.117-2.017,0.85-3.65
					c-2.4-1.767-5.567-0.933-9.5,2.5c-0.033,0.467,0.1,0.917,0.4,1.35l0.6,1.15c1,0.267,1.733,0.083,2.2-0.55l1.3-1.45l0.5,1
					L37.532,59.389"/>
				<path class="st4" d="M32.032,56.889c3.933-3.433,7.1-4.267,9.5-2.5c0.267,1.633-0.017,2.85-0.85,3.65
					c-0.633,0.633-1.683,1.083-3.15,1.35l-0.5-1l-0.5-1l-1.3,1.45c-0.467,0.633-1.2,0.817-2.2,0.55l-0.6-1.15
					C32.132,57.806,31.999,57.356,32.032,56.889"/>
				<path class="st0" d="M42.182,26.239l-3.4-2.85c-1.567-1.167-2.683-2.133-3.35-2.9l1.3,0.4c0.567,0.133,1,0.3,1.3,0.5
					C39.432,22.423,40.815,24.039,42.182,26.239"/>
				<path class="st3" d="M40.032,52.889l-3.6,0.4c-1.133,0.3-1.933,0.833-2.4,1.6c-1.367-1.4-1.533-3.15-0.5-5.25
					c1.367-2.867,2.033-4.617,2-5.25C37.565,47.223,39.065,50.056,40.032,52.889"/>
				<path class="st3" d="M27.732,30.689c1.133,0.867,2.483,2.85,4.05,5.95l3.85,7.15l-0.6,0.1l-2.1,6.35
					c-0.767,2.333-1.067,4.55-0.9,6.65c-1.3-0.7-2.533-2.567-3.7-5.6c-1.067-2.733-2.667-4.367-4.8-4.9l-0.25,0.75
					c-2.167-1.133-3.65-2.983-4.45-5.55c-0.733-2.333-0.8-4.7-0.2-7.1c0.633-2.4,1.717-4.017,3.25-4.85
					C23.649,28.706,25.599,29.056,27.732,30.689"/>
				<path class="st3" d="M24.032,46.889l2.8,2.45c0.967,1.033,1.533,2.217,1.7,3.55C26.699,51.256,25.199,49.256,24.032,46.889"/>
				<path class="st5" d="M23.282,47.139c-2.167-1.133-3.65-2.983-4.45-5.55c-0.733-2.333-0.8-4.7-0.2-7.1
					c0.633-2.4,1.717-4.017,3.25-4.85c1.767-0.933,3.717-0.583,5.85,1.05c1.133,0.867,2.483,2.85,4.05,5.95l3.85,7.15"/>
				<path class="st6" d="M104.032,77.389c-4.167,6.367-9.883,10.4-17.15,12.1c-7.767,1.8-14-0.083-18.7-5.65
					c-2.033-2.433-2.633-5.483-1.8-9.15c0.267-1.2,1.233-3.667,2.9-7.4"/>
				<path class="st7" d="M28.032,7.389l7.7,5.55c3.233,2.4,5.833,4.217,7.8,5.45"/>
				<path class="st8" d="M26.032,7.389h2"/>
				<path class="st9" d="M44.432,31.489c-1.433-1.3-4.133-2.783-8.1-4.45c-5.533-2.333-8.783-3.767-9.75-4.3
					c-7.167-3.733-8.383-8.217-3.65-13.45c0.2-0.5,0.667-0.867,1.4-1.1l1.7-0.8"/>
			</g>
		</g>
	</g>
</g>
</svg>
