<?xml version="1.0" encoding="utf-8"?>
<!-- Generator: Adobe Illustrator 24.0.1, SVG Export Plug-In . SVG Version: 6.00 Build 0)  -->
<svg version="1.1" id="Camada_1" xmlns="http://www.w3.org/2000/svg" xmlns:xlink="http://www.w3.org/1999/xlink" x="0px" y="0px"
	 viewBox="0 0 171 216" style="enable-background:new 0 0 171 216;" xml:space="preserve">
<style type="text/css">
	.st0{fill-rule:evenodd;clip-rule:evenodd;}
	.st1{fill-rule:evenodd;clip-rule:evenodd;fill:#8C7E82;}
	.st2{fill-rule:evenodd;clip-rule:evenodd;fill:#82787B;}
	.st3{fill-rule:evenodd;clip-rule:evenodd;fill:#817578;}
	.st4{fill-rule:evenodd;clip-rule:evenodd;fill:#64595D;}
	.st5{fill-rule:evenodd;clip-rule:evenodd;fill:#190706;}
	.st6{fill-rule:evenodd;clip-rule:evenodd;fill:#381210;}
	.st7{fill-rule:evenodd;clip-rule:evenodd;fill:#49361A;}
	.st8{fill-rule:evenodd;clip-rule:evenodd;fill:#471813;}
	.st9{fill-rule:evenodd;clip-rule:evenodd;fill:#705616;}
	.st10{fill-rule:evenodd;clip-rule:evenodd;fill:#897D80;}
	.st11{fill:none;stroke:#000000;stroke-width:0.35;stroke-linecap:round;}
	.st12{fill:none;stroke:#000000;stroke-width:0.6;stroke-linecap:round;}
	.st13{fill:none;stroke:#000000;stroke-width:0.65;stroke-linecap:round;}
	.st14{fill:none;stroke:#000000;stroke-width:0.4;stroke-linecap:round;}
	.st15{opacity:0.31;fill-rule:evenodd;clip-rule:evenodd;fill:#10003D;enable-background:new    ;}
</style>
<g transform="matrix(1.0, 0.0, 0.0, 1.0, 0.0, -0.05)">
	<g transform="matrix(1.0, 0.0, 0.0, 1.0, 0.0, 1.4)">
		<g id="shape0" transform="matrix(1.0, 0.0, 0.0, 1.0, 0.0, -1.4)">
			<path class="st0" d="M127.6,177.4c1.5-0.3,3.1-1.2,4.7-2.6c2-1.7,3.4-2.8,4.1-3.1c3.1-0.3,4.7-0.3,4.9,0.1l-4.7,0.2
				c-0.8,0.3-2,1.2-3.5,2.7c-1.4,1.3-2.7,2.1-3.9,2.4c1.9,0.5,4,0.3,6.1-0.7c3.1-1.2,4.9-1.9,5.4-2l0.7-1.2c0.2-0.6,0.4-1,0.7-1.2
				c-1.1-1-2.9-2.1-5.2-3.3c-2.2-1.1-4.3-1.9-6.3-2.5v-0.1c2.3,0.5,4.5,1.2,6.5,2c2.8,1.1,4.5,2.3,5.3,3.6l-0.3,1.3l-0.4,1.1
				l2.4-0.3l2.4-0.2c-1.8,0.2-4.9,1-9.3,2.4c-3.7,1.2-7,1.7-9.9,1.7l-0.4-0.1L127.6,177.4"/>
			<path class="st1" d="M30.6,173.6c-0.7-1.5-1.2-3-1.4-4.5l3.4-2.8c1.8-1.3,2.9-2.3,3.4-2.9l7-2c3-1,5.3-1.6,7.1-1.9v2.8l0.2,2
				c-1-0.1-1.9,0.4-2.8,1.6c-1.1,0.7-2.1,1.9-3,3.7l0.8,3.3c0,0.5,0,1,0.2,1.3c-0.5-0.2-0.7-0.2-0.6,0c0.1,0.2,0.4,0.4,0.8,0.8
				c1.7,1.1,4.3,1.4,7.9,1l0.8-1.6c0.3-0.7,0.7-1.1,1.1-1.1l0.6,0.3L58,175l0.2,0.6c0.1,0.9,1,1.5,2.5,1.9l0.8,0.4l1.2-0.1l0,0
				l5.1,0.1l-0.8,1.8c0.4,0.2,1,0.9,1.8,2.1c0.7,1.1,1.5,1.7,2.3,1.7c0.6,0,1.4-0.3,2.2-0.9l2.2-1.5l-2.2,1.2
				c-0.8,0.6-1.6,0.9-2.4,1c-0.6-0.3-1.1-1-1.8-2c-0.6-1.1-1.2-1.8-1.6-2.1c0.1-0.4,0.5-0.8,1.1-1.3l7.4-0.5
				c0.7,1.3,0.7,2.6-0.1,3.8c1-0.7,1.2-2,0.6-3.8c9.9-1.1,22.1-3.3,36.7-6.5h0.1l0.9-0.2l0.1,0.1l1.3-0.4c2,2.1,4.8,2.8,8.4,1.9
				c3.6-0.8,5.9-2.5,7-5.1l-0.4-0.9c2,0.6,4.1,1.4,6.3,2.5c2.3,1.1,4.1,2.2,5.2,3.3c-0.3,0.2-0.5,0.6-0.7,1.2l-0.7,1.2
				c-0.5,0.1-2.3,0.8-5.4,2c-2.2,0.9-4.2,1.1-6.1,0.7c1.3-0.3,2.6-1.1,3.9-2.4c1.5-1.5,2.7-2.4,3.5-2.7l4.7-0.2
				c-0.2-0.3-1.8-0.3-4.9-0.1c-0.7,0.4-2.1,1.4-4.1,3.1c-1.6,1.4-3.2,2.3-4.7,2.6h-0.5l-0.2,0.1c-1.9,0.6-7.6,3.6-17,8.9l-7.4,0.9
				l-5.9,1.2v-0.4l-0.4-0.4c-0.1,0.4,0,0.7,0.3,0.9c-0.4,0.3-1.1,0.5-2.2,0.7l-1.8,0.1c-0.6-0.5-1.5-1-2.8-1.4
				c-1.4-0.6-2.2-0.7-2.3-0.3c-0.4,0.3-1.8,0.6-4.2,0.8l-5.3,0.8c0.1-1.7,0.1-2.9-0.2-3.7c-0.6-0.5-1.6-0.8-3-0.8s-2.4,0.2-3,0.8
				l2.2-0.2l1.9,0.2c-0.2,0.3-0.1,0.7,0.3,1.2l1.1,1.7c0-0.4-0.1-1-0.4-1.7c-0.3-0.6-0.4-1-0.3-1.2l0.6,0.5l0.3,0.7l-0.1,2.6
				l-0.4,0.3l0.4-0.1l-0.4,2l-2.2,1.9l-1.8,1.9h-0.1c-1.1-0.4-1.7-1.3-1.9-2.6c-0.3-1.3,0-2.4,0.8-3.4c0.6-0.1,1.2-0.3,1.8-0.6
				l1.5-1l-1.8,0.7l-2,0.5c-0.2,0.3-0.4,0.9-0.6,1.7l-0.4,1.9l-0.8-0.6c-0.4-0.2-0.6-0.5-0.6-0.9l0.6-1.8c0.3-0.7,0.6-1.1,1-1.3
				c-0.2-0.1-0.1-0.5,0.4-1.1l0.3-0.6c-0.3,0.2-0.6,0.4-0.9,0.8l-0.8,0.9l-3.3-0.3c-1-0.3-1.5-1-1.3-2.2l-3.2,0.2l-4.7,0.4
				c1.5-1.8,2.4-3.1,2.8-3.9l-3.2-2.2c-1.3-1-2.5-1.3-3.8-0.9c0.9-0.1,1.8,0.1,2.6,0.4c0.8,0.4,1.3,0.8,1.3,1.3
				c-4.6-1.2-7.3-0.7-8,1.4l-3.8,0.3v-0.1h-1.7c-0.1-0.2-0.4-0.3-0.7-0.3l-0.8-0.3c-4.8-2-7.9-3.5-9.3-4.4L30.6,173.6 M82.3,179.8
				c-0.3,0.2-0.3,0.4-0.1,0.8c0.2,0.4,0.5,0.6,0.8,0.5l1.1-0.7c0.2-0.4,0.3-0.8,0.1-1.2c-0.3-0.2-0.6-0.3-1-0.3s-0.7,0.1-0.9,0.4
				V179.8"/>
			<path class="st2" d="M130.1,163.5l0.6,2.6l-0.9-0.1l0.9,0.3l0.4,0.9c-1.1,2.6-3.4,4.3-7,5.1c-3.7,0.8-6.5,0.2-8.4-1.9v-0.1
				l-0.3,0.1h-0.1l-0.9,0.2c-0.5-3.3,0.9-5.9,4.2-7.9c3.1-1.9,6.3-2.4,9.4-1.4l-0.1,0.3h1.2v-0.3
				C129.5,161.6,129.9,162.4,130.1,163.5"/>
			<path class="st0" d="M127.8,138.3c0,1.1,0.2,2.1,0.5,3c0.4,1.2,1.1,1.9,1.9,2.1c0.4,0.8,0.5,1.9,0.4,3.2l-0.4,3.3l0.2,2.1
				l0.1,1.8l-0.4,0.7l-0.5,0.8c-0.3,1.2-0.5,2.4-0.6,3.6c-0.2,1.5,0,2.3,0.4,2.4H129v0.3h-1.2l0.1-0.3l-0.1-0.3c0.6-1.7,1-4,1.3-6.9
				l0.6-7.9V144c-0.1-0.5-0.5-1-1.2-1.4c-0.9,1.2-2.1,2-3.6,2.4c0.3,0.7,0.7,1.2,1.2,1.4l1.7-0.2l1.7-0.3c-1,0.8-2.2,0.9-3.4,0.5
				c-0.9-0.3-1.5-0.8-1.8-1.4l-0.3-1.1l0.5,0.3c0.3-0.9,0.9-2.2,1.8-3.8l2-3.9l0.4,0.1l0.3-0.4l0.7-0.4l-0.8,1.8
				C128.5,138.4,128.1,138.6,127.8,138.3 M124.3,144.9l0.7-0.7l-0.4-0.1L124.3,144.9 M124.9,144.3c1,0.2,1.8-0.2,2.4-1.3
				c0.7-1.1,0.8-2.4,0.3-3.9c-0.6,0.3-1.2,1.1-1.6,2.3L124.9,144.3"/>
			<path class="st3" d="M117,24.1c0.9,4.9,1.9,8.1,3.2,9.7c0,1.3,0.5,1.8,1.4,1.6h0.2v0.3l-0.5,1.3c-0.2,1.7,0.4,5.2,1.8,10.7
				c1.3,4.9,1.5,8.6,0.8,11.2l-1.3,3.3c-0.5,1.3-0.8,2.6-1,3.8l-1.2,0.8c-0.5,0.3-0.8,0.6-1,0.9c0,1.4,0.7,2.7,2.2,3.8
				c1.9,1.5,3,2.5,3.3,3.1h-0.3v15.1h0.3l-0.5,0.4c-0.2,0.7-0.3,1.4-0.1,2.1c0.2,0.8,0.7,1.2,1.5,1.2c2.1,8.7,3.2,16.9,3.3,24.4
				c-0.4,0.2-0.6,0.5-0.5,0.9s0.3,0.7,0.6,0.9l-0.1,8.5c0,3.6-0.1,6.4-0.4,8.5l-0.4-0.1l-2,3.9c-0.9,1.7-1.5,2.9-1.8,3.8l-0.5-0.3
				c0,1.2,0.7,2.1,2.1,2.5c1.3,0.4,2.4,0.2,3.4-0.5l-1.7,0.3l-1.7,0.2c-0.5-0.2-0.9-0.7-1.2-1.4c1.5-0.4,2.7-1.2,3.6-2.4
				c0.7,0.5,1.1,0.9,1.2,1.4v2.2l-0.6,7.9c-0.3,2.9-0.8,5.2-1.3,6.9l0.1,0.3c-3.1-0.9-6.3-0.4-9.4,1.4c-3.3,2-4.7,4.6-4.2,7.9
				l-0.9,0.3h-0.1L76.1,176l-0.6-0.9c-2.9-0.6-5.1,0-6.8,1.8l-1.1,0.1c-1.2,0.5-2.8,0.8-4.8,0.8l0,0l-2-0.3L58,175
				c-0.4-0.6-1-1.1-1.8-1.6l-0.6-0.5c-0.1-0.2,0-0.4,0.1-0.7l0.1,0.1v-0.1c0.1-0.2,0-0.4-0.2-0.4l-0.1,0.1c-0.6-0.7-1.3-2.2-2.3-4.5
				c-0.9-2.2-1.7-3.6-2.4-4.3v-2.6c0-1,0.3-1.6,0.8-1.8l-0.5-0.1l-0.2-0.4c-0.1-0.8,0-2.1,0.2-3.7l0.5-4.2c0.1-2.2,0-4.8-0.3-7.8
				l-0.9-6.8l2.5-5.7c0.9-2.2,1.5-4.3,1.7-6c0.2,0.6,0.6,1.2,1.2,1.8l1.7,1.3v2.2l2.2,0.7c-1,1.6-2.4,3-4.1,4.1c-0.4-0.4-0.7-1-1-2
				l-0.9-2.1c-0.8,0.8-1.2,2.3-1.3,4.3c0,2.1,0.6,3.3,1.8,3.6l3-2.4c1.2-1.1,2.3-1.9,3.2-2.3l0.1,2.1l0.1,2.2l-4,3.8
				c-1.5,1.6-2.4,3.3-2.8,5.1l-1.2-2.4l0,0l1.1,2.9c0.5,1.2,0.9,2.2,1,2.9c0.3,0.1,0.5,0,0.6-0.3l0.4-0.5l0.7,0.6
				c-0.5-0.3-0.8-0.8-0.9-1.3c-0.2-0.9,0.2-2.1,1.1-3.6c0.8-1.3,1.7-2.3,2.8-3.1l4-2.8c2.1-1.3,3.6-1.9,4.3-1.8
				c1.1,0.1,2,0.9,2.7,2.3c0.9,1.7,1.6,2.8,2.2,3.3c0.8-1.6,0.4-3.6-1.2-5.9c-1.5-2.3-3.1-3.4-4.7-3.3c-0.4,0-0.9,0.3-1.4,0.9
				c-0.5,0.6-1.1,0.8-1.7,0.8l-0.6-2.2l-0.6-2.2c0.8-1,2.2-1.3,4-0.9c0.6,0.1,2.1,0.6,4.3,1.4c-0.5-0.5-1.4-0.9-2.8-1.2
				c-1.6-0.3-2.7-0.6-3.2-0.9l3.4-1.9c1.4-0.6,2.9-0.8,4.5-0.7c-1.5-1.6-3.4-1.9-5.6-0.8c-2.5,1.6-4.4,2.6-5.7,2.9
				c0-0.3,0.1-0.5,0.4-0.7c0.3-0.2,0.4-0.4,0.3-0.8c-0.4-0.2-0.8-0.6-1.3-1.4c-0.4-0.7-0.9-1.1-1.5-1.2c-0.5,0.1-0.8,0.4-1.2,0.9
				l-0.8,1.3c-1.4-0.8-2.3-1.8-2.7-2.9c0.5-0.4,0.8-1.1,0.9-2c0-1.1,0-2,0.1-2.6c0.1-0.8,0.7-2.1,1.7-3.9c0.9-1.6,1.4-3,1.4-4.1
				l0.4-0.5h0.1l1.3-0.6c0.5-0.3,0.8-0.7,0.8-1.2c-0.9-1-1.1-2.3-0.5-3.8l1.8-3.7c0.3,1.4,0.7,2.3,1.2,2.7c-0.7-1.2-1.1-2.3-1-3.5
				c0-1.4,0.7-2.2,1.9-2.5c0.1-2.8,1.1-6.3,3.1-10.3l4.5-0.2c2-0.9,3.3-1.4,3.7-1.5c0.1-0.4,0.1-1.1-0.1-2.2c-0.1-0.8,0-1.2,0.3-1.4
				c-1.9-0.3-3.3-0.7-4.3-1.3c-1.2-0.8-1.8-2.1-1.9-3.7c0.5-0.7,0.9-1.9,1.1-3.8l0.3-3.9l0.3,0.4c-0.3-0.2-0.5-1.2-0.7-2.9
				c-0.3-1.9-0.6-3.2-0.8-3.8c0.3-0.3,0.6-0.9,0.8-1.9c0.3-1,0.5-1.7,0.7-1.9l-0.3-1.5c-0.3-1.7-0.4-3.6-0.4-5.6
				c0-2.3,0.2-3.9,0.7-4.8c-0.5-0.4-0.7-1.3-0.7-2.7v-2.9c2-1.9,2.8-3.9,2.2-6c1.6-2.7,2.7-5.3,3.1-7.6c0.4-0.1,1.1-0.4,2.1-1
				c0.8-0.5,1.4-0.7,1.8-0.7c0.1,2.8,1.5,4.7,4.1,5.8c4.1-2.2,7.1-4.2,8.9-6.1c0.4,0.6,1.2,1.2,2.3,1.7c1.1,0.5,2.1,0.8,3.1,0.9
				c-1.4,2.8-2.5,5.1-3.1,7.1C94.5,39,94,41.9,94,45l2.3,2.6c1.1,1.1,2.2,1.5,3.1,1.3c0.8-0.2,2.5-0.2,5,0l4.6-0.3
				c0.5-0.2,1.1-0.8,1.7-1.6l1.5-1.8l1.9-1.5c0.8-0.6,1.4-1.3,1.7-1.9c0.5-1,0.8-2.3,0.8-4l0.3-4.2c-3.4-2.6-7.1-5.1-11.3-7.4
				c-0.5,0-0.7-0.1-0.7-0.2c0.9-0.9,1.8-2.5,2.8-4.6c-0.4-0.6-0.8-1.5-1.1-2.9l-0.8-3.1c-4.5-0.2-7.7,0.7-9.8,2.8
				c0-1.1,0.1-2.1,0.3-3c0.3-1.1,0.7-1.9,1.3-2.3l1.6-0.4l1.5-0.5l1-1.3l0.9-1.4c0.9-1,1.6-1.6,2.1-1.8l3.2-0.3
				c0.4,1.3,1.5,3.5,3.3,6.6c1.6,2.9,2.6,5.2,3,7c0,0.4,0.4,1.2,1.3,2.3C116.3,24.4,116.9,24.6,117,24.1 M115.9,55
				c-0.4,0.4-0.5,0.8-0.3,1.1c0.4-0.7,1-1.1,1.7-1.2c0.8,0.4,1,1.2,0.7,2.3c-0.4,1.1-1.1,1.5-2.1,1.3c-0.2-0.1-0.3-0.5-0.2-1.1v-0.9
				c-0.5,0.7-0.5,1.5,0,2.2c1.5,0.2,2.4-0.5,2.7-2c0.3-1.5-0.1-2.3-1.3-2.3C116.7,54.3,116.3,54.5,115.9,55 M118,76.7l1.4,0.8
				c0.7,0.3,1.2,0.3,1.7,0l-1.7-0.5L118,76.7 M104.2,55.5h-0.8c0.4,0.2,0.5,0.7,0.5,1.5l-1.2,0.3c-0.1-0.1,0-0.3,0.2-0.6
				c0.1-0.2,0.1-0.3-0.2-0.4l-0.3,0.8l-0.2,0.7c1.3,0.4,2.1,0,2.4-1.2L104.2,55.5 M107.7,63.7h-2.4l-2.2,0.3h2.5L107.7,63.7
				 M97.6,64.7l3.1-0.4c4.4-0.1,4.2-0.2-0.6-0.2C98,64,97.2,64.2,97.6,64.7 M91.1,70.9c0.5,0.2,0.7,0.6,0.7,1.4
				c0,0.7-0.2,1.2-0.7,1.3c-0.9-0.4-1.4-0.6-1.4-0.4l1.2,0.9c1.4-0.4,1.7-1.3,0.8-2.6c-0.3-0.5-0.6-0.8-0.9-0.8
				c-0.4,0-0.6,0.4-0.7,1.2l0.3-0.7C90.6,71,90.8,70.9,91.1,70.9 M109.8,99.1c1.3,0.6,2.2,1.1,2.9,1.6c-0.2,0.6-0.1,1,0.3,1.2
				l0.9,0.6l-1.2,2.3l-1.3,2.2l-6.7,1.5c0.3-2.3,0.3-4.2,0-5.8c-1.4-0.2-2.7,0.2-3.9,1.2c-0.2,2.2,0.3,3.8,1.5,4.8
				c-0.7,0.4-2.3,0.9-4.8,1.5c-2,0.5-3.3,1.3-4.1,2.3l-0.2,4.4c-0.1,1.6,0.3,2.7,1.1,3.2c0-2.5,0.8-4.5,2.6-6.1
				c1.8-1.6,3.8-1.8,5.8-0.4l0.2,2.5v2.5c-0.3,0.7-1.6,1.8-3.8,3.3c-1.9,1.3-3,2.6-3.2,3.8c-0.1,0.9,0.1,2.1,0.8,3.7
				c0.6,1.4,1.1,2.5,1.7,3.2c-0.3-3.7,1-6.6,3.8-8.7c2.5-1.8,5.8-2.7,9.8-2.7c0.3,1.3,0.4,2.8,0.3,4.6c1.1-0.9,1.9-2.2,2.3-4
				s0.2-3.5-0.6-4.9l-4.1,0.9c-1.7,0.3-2.9-0.1-3.7-1.1c-0.8-1.2-0.6-3.1,0.5-5.8l3.8-1l3.9-0.8l0.8-6.7c1.3,0.8,2.8,2.3,4.4,4.4
				c1.8,2.4,3.2,3.9,4,4.7c-0.6-2.5-1.2-4.2-1.7-5.1s-1.5-2.2-3-3.8c-1.5-1.7-2.6-2.7-3.3-3.2l-1.4-0.4l-1.5-0.3
				c-0.6-0.3-2.4-1.3-5.4-3.1c-2.3-1.3-4.2-2.2-5.8-2.4c0.3,0.9,1,1.7,2.1,2.4l2.9,1.7L109.8,99.1 M92.8,102.6
				c0.2-0.6,0-1.3-0.6-2.3c-0.5-0.8-0.5-1.5,0.1-2.1l-3-0.3l-3,0.3c-2.5,0.7-4.7,2.8-6.5,6.1c-1.8,3.4-2.3,6.5-1.4,9.3
				c0.2,0.7,0.5,1.3,1,1.8c0.7,0.6,1.4,0.8,2.3,0.6c-0.4-0.4-0.6-1.1-0.5-2.2c-0.9-0.3-1.7-0.7-2.2-1.3c-0.7-0.7-0.9-1.5-0.5-2.3
				c0.7,1.9,1.8,3.1,3.4,3.4h0.3l-0.6,0.5c-0.1,1.7,0.5,2.8,1.9,3.3c1.2-0.5,1.6-1.4,1.2-2.7c-0.4-1.2-1.1-1.7-2.1-1.3l0.6-0.6
				l0.7-0.4c0.3,0.9,0.9,1.6,1.8,2.1l2.8,0.1c0.5-2.2,1.9-4,4.1-5.6c0.1-2-0.2-3.8-0.8-5.5c-0.5,0.2-1,0.9-1.4,2.2
				c-0.4,1.2-0.9,1.8-1.7,1.9c-0.5-0.9-0.7-2-0.4-3.4c0.2-1.4,0.8-2.2,1.6-2.3l-0.3-0.3c-0.1-0.1,0-0.2,0.2-0.2
				c0.4,0.1,0.9,0.3,1.5,0.7C91.8,102.4,92.3,102.5,92.8,102.6 M80.9,36.8c-0.1-0.7-0.5-0.8-1.1-0.5c0.3,0.1,0.4,0.4,0.4,0.8
				l-0.4,0.7c-0.2,0.1-0.4,0-0.5-0.3s-0.2-0.3-0.5-0.3c0,0.7,0.5,1,1.5,1C80.8,38,81,37.5,80.9,36.8 M78.6,53.2
				c0.6-0.6,0.6-1.1,0-1.7l-1,0.2c-0.4,0.2-0.4,0.4-0.2,0.5c0.1-0.3,0.3-0.4,0.7-0.3c0.4,0.1,0.6,0.2,0.5,0.5
				c-0.1,0.5-0.3,0.8-0.8,0.8h-0.9C77.4,53.7,78,53.7,78.6,53.2 M86.9,115.4l-1.6-0.1c0,0.5-0.1,1.1-0.5,1.8c-0.3,0.5-0.3,1,0,1.4
				l1.8,0.1c0.5-0.2,1-0.4,1.3-0.8c-0.1-0.4,0-0.8,0.1-1.3l0.1-1.2L86.9,115.4 M86.4,122.3c-0.4,0.4-0.9,0.6-1.6,0.5
				c-0.3,1.8,0.5,2.8,2.4,3.1c0.8-0.5,1.3-1.3,1.7-2.4c-0.3-0.6-0.5-1.3-0.8-2.3l-0.4-2.7c-0.3,0.1-0.5,0.5-0.3,1.1l0.1,1.8
				C87.3,121.4,86.9,121.7,86.4,122.3 M87.3,119.4l-1.7-0.4c-0.8-0.1-1.2-0.5-1.4-1.1c0,1.1-0.4,2.1-1.2,3.1c-0.6,0-1.1-0.1-1.6-0.3
				l-1.3-0.8l1.3,3.6c0.6,1.3,1.4,2,2.6,2.2c0.9-0.9,0.8-2.3-0.3-4.1c0.6,0.9,1.3,1.1,2.3,0.5C86.7,121.4,87.2,120.6,87.3,119.4
				 M82.9,120.6l1-2.9l-2.7-0.9c-1-0.3-1.8-0.7-2.4-1.2c0.3,1.6,0.6,2.8,1.1,3.5C80.6,120,81.6,120.6,82.9,120.6 M82.4,126.1
				c0.3,1.8,1.1,3.2,2.4,4.1c0-0.4,0.1-0.5,0.3-0.3L86,130c0.8-0.8,1.2-2,1.2-3.6c-0.6,0.1-1.1-0.1-1.5-0.4l-0.9-1.1
				c-0.1,0.6-0.4,1-0.8,1.3L82.4,126.1 M88.8,128.4c0.7,0.5,1.4,0.7,2.2,0.6c0.8-0.1,1.5-0.6,1.9-1.4c-0.7-0.2-1.4-0.7-2.1-1.3
				l-1.6-1.8c-1,0.6-1.5,1.3-1.5,2.1C87.7,127.3,88.1,127.9,88.8,128.4 M60.5,151.4c-2-0.7-3.4-1.3-4.1-1.8c1,0.7,2.4,1.5,4.2,2.2
				l4.1,1.2C64.2,152.7,62.8,152.2,60.5,151.4 M88.4,131.9c1.1-0.4,1.7-1.1,1.8-2.2c-0.6,0-1.2-0.2-1.6-0.6l-1.1-1.1
				c-0.1,1-0.6,1.7-1.4,2.3c-0.9,0.5-1.7,0.4-2.4-0.4c0.1,1,0.1,2.3,0,4.1l1.7-0.6l1.3-0.9c0.1-0.3-0.1-0.6-0.5-0.9
				c-0.4-0.3-0.5-0.5-0.3-0.6C86.4,132.1,87.3,132.3,88.4,131.9 M82.7,132.6c-0.8,1.6-0.8,2.8,0.1,3.7s1.8,0.9,2.9,0.2
				c-0.6,0.6-0.8,1.4-0.7,2.1c0.1,0.8,0.6,1.3,1.3,1.4c0.8,0.1,2.2-0.8,4.1-2.7c1.7-1.7,2.7-3,3-3.8l-0.4,0.1l0.8-2.7
				c0.3-1.2,0.3-2.1,0.2-2.8c-0.4,0.1-0.9,0.4-1.5,1c-0.5,0.5-1.2,0.8-1.9,0.6c-0.5,1.6-1.8,2.6-3.8,2.9c-0.9,1.6-0.5,2.7,1.1,3.2
				c1.7,0.5,2.9,0.1,3.7-1.3c-0.3,1-1,1.6-2.1,1.9c-1.1,0.4-2.1,0.2-2.9-0.5l-0.4,0.2l0.4-0.4l-0.4-0.9c-0.2-0.4-0.2-0.8-0.1-1.2
				l-1.2,0.5l-1.5,0.2l-0.3-0.9C83.1,132.9,82.9,132.7,82.7,132.6 M81.9,136.6c-0.4-0.7-0.6-1.5-0.4-2.4c-0.2,0.4-0.9,0.9-2.2,1.8
				c-1,0.6-1.5,1.5-1.4,2.6c0.7,0.6,1.6,0.8,2.7,0.5l0.3-1.2c0.1-0.5,0.3-0.8,0.6-1c-0.7,1.2-0.7,2.2,0,3.1s1.7,1.4,3.1,1.4l0.3-0.6
				l0.4-0.6c-0.8,0-1-1-0.8-2.9C83.4,137.7,82.5,137.5,81.9,136.6 M74.9,140.3c-0.8,1-1.3,1.8-1.3,2.4c0,0.9,0.7,1.4,1.8,1.5
				c1.2,0.1,2.1-0.4,2.7-1.3c-0.1-0.6,0-1.2,0.2-1.8c0.2-0.7,0.5-0.9,0.8-0.8c-0.4,0.5-0.5,1.2-0.3,1.9l0.3,1.9l0.8,0.2
				c0.3,0.1,0.6,0.2,0.7,0.3l-1.4,0.1c-0.5-0.2-0.7-0.6-0.8-1.1c-1.1,0.2-1.8,0.8-2.2,1.9c-0.3,1.1-0.2,2.1,0.4,3.1L78,149l1.5-0.1
				l1.7-3.6c0.6-1.6,1.3-2.7,1.9-3.4c-1.4-0.6-2.3-1.4-2.6-2.6c-0.7,0.5-1.5,0.6-2.4,0.3s-1.3-0.9-1.3-1.8L74.9,140.3 M75.8,144.8
				c-1.5,0.1-2.4-0.6-2.7-1.9l-1,2.9c-0.5,1.2-0.7,2.3-0.7,3.3c0.4,1.1,1.1,1.6,2.2,1.4c0.9-0.2,1.7-0.7,2.4-1.7
				c-0.5-0.3-0.7-0.9-0.8-1.9C75.2,146,75.3,145.3,75.8,144.8 M72.9,151.6c-0.6,0-1.1-0.2-1.3-0.5c0.3,2,0.9,3.9,1.8,5.8
				c1.2,2.3,2.5,3.3,3.9,2.9c0.7-1.2,1-2.6,1-4.3c-1.1-0.2-2-0.7-2.7-1.6c-0.4-0.5-0.9-1.5-1.4-2.8C74,151.4,73.6,151.6,72.9,151.6
				 M75.8,152.6c0.9,1.3,2.1,2,3.6,2c0.2-0.1,0.3-0.4,0.2-0.8s-0.1-0.6,0.1-0.6c-0.1,0.3,0.1,0.5,0.3,0.8l0.6-0.1
				c-0.4-0.3-0.6-1-0.7-2.1l-0.3-2.4c-0.3,0.4-0.8,0.6-1.7,0.5l-1.8-0.5C75,150.2,74.8,151.3,75.8,152.6 M89.8,142.8l2.5-2.3
				c-0.1-0.2-0.3-0.3-0.7-0.2l-0.5-0.1l0.2-0.3l0.1-0.6c-2.6,0.3-4.6,2-6.3,5c-1.7,3.2-1.5,5.8,0.7,7.9l1.7-2.9l-0.1,0.8l-0.2,0.7
				l1.9,1.2c0.8,0.4,1.5,0.2,1.9-0.4c-0.1,0.6,0.1,1.1,0.5,1.3l1.2,0.6l1-1.6c0.3-0.7,0.4-1.3,0.2-1.8c-0.9,0.9-1.9,1.2-3.2,1
				c-1.3-0.3-2-1.1-2.2-2.4c-1.3,0.7-2,0.3-2.1-1.4c-0.1-1.8,0.3-2.6,1.2-2.4c-0.5,0.9-0.8,1.9-0.8,2.9l0.5,0.5
				c0.8,0.1,1.7-0.1,2.7-0.5c-0.1,0.3,0,0.6,0.1,1l0.2,0.9c1,0.3,1.6,0.3,1.9,0c-0.2-0.5-0.3-1-0.2-1.6c0.1-0.6,0.3-1,0.7-1.1
				c0.9,0.2,1.5,0.8,1.6,1.9l0.3,2.7l1-0.8c0.4-0.3,0.8-0.4,1.2-0.5c0.2-1.6-0.1-3.1-0.9-4.5l1.7-0.5l-2.8-0.1l-2.7,0.1
				c-0.3,0.1-0.9,0.6-1.7,1.6c-0.6,0.8-1.3,1.1-1.9,0.8c0.1-0.7,0.3-1.4,0.8-2.1l0.7-1.9l-2.2,0.7c-1,0.2-1.6,0-1.9-0.7
				C87.4,143.9,88.8,143.6,89.8,142.8 M85.8,153c0.9,0.7,1.9,1.2,2.9,1.5l3.6,0.1c-0.3-0.9-1.1-1.5-2.5-1.9c-1.5-0.4-2.4-1-2.8-1.7
				l-0.6,0.9C86,152.3,85.8,152.7,85.8,153 M86.4,157.8l-1.8-0.5c-0.1,0.3-0.1,0.5,0.1,0.6l0.4,0.3c-0.4-0.1-0.6,0-0.8,0.3l-0.4,0.5
				l0.3,0.8c0.2,0.3,0.3,0.6,0.2,0.8c2.2-0.1,3.6-1,4-2.6L86.4,157.8 M80.8,155.3l0.3,0.8l-0.7-0.7c-0.3-0.3-0.7-0.4-1.2-0.3
				c-0.2,0.2-0.3,0.7-0.3,1.3v1.6c1.2,0.8,2.4,1.1,3.8,0.9c0-0.3,0.2-0.6,0.8-0.8c0.5-0.2,0.7-0.6,0.7-1.2c-1.4-0.4-2.6-1.3-3.6-2.6
				C80.5,154.8,80.5,155,80.8,155.3 M82.9,163.6l3.8,0.5c1.7,0.1,2.9-0.1,3.7-0.5c-0.6-1.2-1.4-2-2.3-2.4s-2.2-0.4-3.8-0.1
				L82.9,163.6 M80.6,159.8c-0.9-0.2-1.6-0.6-2-1.1c0,0.6-0.2,1.1-0.7,1.3l-1.5,0.6c1.8,1.1,3.7,2,5.6,2.7c1-0.5,1.4-1.7,1.2-3.6
				L80.6,159.8 M87.8,160.4c1.3,0.9,2.5,0.9,3.7-0.1c1.1-0.9,1.6-2,1.6-3.3c-0.3,0.4-0.9,0.6-1.8,0.8l-2.3,0.3
				c0,0.5-0.1,0.9-0.4,1.3L87.8,160.4 M66.2,162.8c1.5,0.2,2.2-0.4,2.2-1.9c-0.2-0.2-0.5-0.4-1.1-0.4s-0.7,0.1-0.4,0.4l0.6-0.1
				c0.3,0.2,0.4,0.5,0.4,0.8c-0.2,0.7-0.7,1-1.4,0.9c-0.1-1.2-0.3-1.6-0.5-1.4C65.8,161.4,65.8,161.9,66.2,162.8 M62.3,167.6
				c-0.2,0-0.3-0.1-0.3-0.4s-0.2-0.4-0.5-0.3c0,0.4,0.2,0.9,0.5,1.4c0.6,0.1,0.9-0.2,1-1s-0.2-1.1-0.8-1.1l-0.2,0.3l-0.3,0.2
				c0.3-0.1,0.6,0,0.7,0.4C62.7,167.4,62.6,167.6,62.3,167.6 M123.5,117.3l0.2,1.3l0.1,1.5h-0.4c-0.2,0-0.3,0.1-0.3,0.2
				c0.7,0.5,1.1,0.1,1.3-1.1C124.4,118.1,124.1,117.4,123.5,117.3 M98.3,139.3c-1.2-0.6-3.2-0.8-6.3-0.5c1,1.9,3,2.7,6,2.2
				c0-0.2,0-0.5,0.1-0.8L98.3,139.3 M97.6,145.3c1-0.3,1.7-0.2,2.2,0.3l-1.1-1.8c-0.5-0.7-0.7-1.5-0.6-2.3c-1,0-1.9,0.3-2.8,0.7
				c-0.5,0.2-1.3,0.6-2.3,1.3c2.7-0.2,4.6,0.3,5.8,1.4L97.6,145.3 M91.5,141.8c-0.8,0.9-1.2,1.8-1.1,2.8c0.3-0.3,0.9-0.8,2-1.4
				c0.9-0.5,1.5-1.1,1.8-1.8C93.3,140.7,92.4,140.8,91.5,141.8 M96.4,150.8c-1.1,0.5-2.4,1.5-3.8,3.1l0.3,0.5c1-0.1,1.8-0.6,2.5-1.4
				C96.1,152.4,96.5,151.6,96.4,150.8 M105.6,143.9l-1.8-0.1c-0.1-0.6-0.3-1-0.7-1.2l-0.7,3.4c0.5,0.3,0.9,1.1,1.3,2.4
				c0.3,1.3,0.7,2.1,1.3,2.3c0.2-2.5-0.1-4.8-0.9-6.8c1.8-0.2,3.2,0.2,4.3,1.2l2.3,3.1c1.3,0.4,3.1,1.1,5.2,2.1l4.7,2
				c-2.6-1.6-5.8-3-9.4-4.1l-1.7-2.4c-0.7-0.9-1.4-1.5-2.1-2L105.6,143.9 M102.3,143.8l0.6-1.6l-1.8-1.6c-0.7-0.6-1.5-1-2.3-1
				c0,1,0.1,2.1,0.4,3.1l0.9,2.6h1l0.8,0.2C101.8,144.9,102,144.4,102.3,143.8 M102.7,151.2l0.9-0.4l-1-3.4
				c-0.6-1.1-1.5-1.7-2.8-1.6c0.3,2.7,1,4.7,2.2,6L102.7,151.2 M101.7,152.8l-0.3,1.9l-0.7,1.4h2.7l1-2.4c0.4-1.1,0.4-1.9,0.3-2.6
				C104,151.5,103,152.1,101.7,152.8 M109.3,149.8c0.3-0.2,0.4-0.5,0.3-0.8s-0.4-0.5-0.8-0.6c0.3,0.6,0.3,0.8,0,0.8l-0.6-0.1
				l0.4,0.4C108.9,149.8,109.1,149.9,109.3,149.8 M106,164.3c-3.9-0.1-6.7,0.5-8.4,1.7l2.2-0.7c1.4-0.4,2.5-0.7,3.3-0.8l1.6,0.1
				L106,164.3 M99.8,156.3c0.7-0.4,1.1-1.4,1.2-2.9c0.1-1.6-0.2-2.6-0.9-3.1l-1.8,3.2c-0.8,1.3-1.1,2.5-0.9,3.5
				C97.9,156.6,98.7,156.3,99.8,156.3 M96.8,154.9c-1,0.5-1.8,1.2-2.4,1.9c-0.8,0.9-1.2,1.8-1.2,2.6c0-0.2,0.2-0.3,0.6-0.3l0.8,0.1
				c0.1-0.4,0.6-1.1,1.3-2.3C96.6,156.1,96.9,155.4,96.8,154.9 M90.8,161.4l0.3,0.9l0.2,1.2c3-0.4,5.2-1.2,6.5-2.2
				c-1.1-0.9-2.3-1.3-3.7-1.4C92.7,159.9,91.6,160.4,90.8,161.4 M98.3,160.9c1.4-0.1,2.9-1.5,4.5-4.1l-4.7,0.4
				c-1.5,0.4-2.4,1.1-2.8,2.3l1.7,0.6l1.3,0.3C98.1,160.4,98.1,160.6,98.3,160.9"/>
			<path class="st4" d="M127.6,139.1c0.5,1.5,0.4,2.8-0.3,3.9c-0.6,1.1-1.4,1.5-2.4,1.3l1.1-2.9C126.4,140.2,127,139.4,127.6,139.1"
				/>
			<path class="st0" d="M127.6,177.4l-0.7,0.1l0.2-0.1H127.6"/>
			<path class="st0" d="M124.9,74.3c0.3,1.2,0.5,3.5,0.5,7.1v9.2l-0.5-0.8v-0.2h-0.3V74.5h0.3V74.3"/>
			<path class="st0" d="M124.5,144.1l0.4,0.1l-0.7,0.7L124.5,144.1"/>
			<path class="st0" d="M123.8,120.1l-0.1-1.5l-0.2-1.3c0.6,0.2,0.9,0.8,0.8,2c-0.2,1.2-0.6,1.6-1.3,1.1c0-0.1,0.1-0.2,0.3-0.2
				L123.8,120.1"/>
			<path class="st5" d="M106.7,97.6l-2.9-1.7c-1.1-0.7-1.8-1.5-2.1-2.4c1.6,0.3,3.6,1.1,5.8,2.4c3,1.8,4.8,2.8,5.4,3.1l1.5,0.3
				l1.4,0.4c0.7,0.4,1.8,1.5,3.3,3.2c1.4,1.6,2.4,2.9,3,3.8c0.5,0.9,1.1,2.6,1.7,5.1c-0.8-0.7-2.2-2.3-4-4.7
				c-1.6-2.1-3.1-3.6-4.4-4.4l-0.8,6.7l-3.9,0.8l-3.8,1c-1.1,2.6-1.3,4.5-0.5,5.8c0.7,1,1.9,1.4,3.7,1.1l4.1-0.9
				c0.8,1.4,1,3.1,0.6,4.9s-1.2,3.1-2.3,4c0.2-1.7,0.1-3.3-0.3-4.6c-4-0.1-7.3,0.8-9.8,2.7c-2.9,2-4.2,4.9-3.8,8.7
				c-0.5-0.7-1.1-1.8-1.7-3.2c-0.6-1.6-0.9-2.9-0.8-3.7c0.2-1.2,1.2-2.4,3.2-3.8c2.2-1.5,3.5-2.5,3.8-3.3v-2.5l-0.2-2.5
				c-2.1-1.4-4.1-1.2-5.8,0.4c-1.7,1.5-2.6,3.6-2.6,6.1c-0.8-0.5-1.2-1.6-1.1-3.2l0.2-4.4c0.7-1.1,2.1-1.9,4.1-2.3
				c2.5-0.6,4.2-1.1,4.8-1.5c-1.2-1-1.7-2.6-1.5-4.8c1.1-1,2.4-1.4,3.9-1.2c0.3,1.6,0.3,3.5,0,5.8l6.7-1.5l1.3-2.2l1.2-2.3l-0.9-0.6
				c-0.4-0.2-0.5-0.6-0.3-1.2c-0.7-0.5-1.6-1-2.9-1.6L106.7,97.6"/>
			<path class="st0" d="M122.1,34.7v0.6l-0.3,0.4v-0.1v-0.2h-0.2c-1,0.2-1.4-0.3-1.4-1.6l0.3,0.3l-0.2-0.8l0.2-0.8l0.6,1.5
				C121.2,34.6,121.6,34.8,122.1,34.7"/>
			<path class="st0" d="M121.1,77.4c-0.4,0.3-1,0.3-1.7,0l-1.4-0.8l1.4,0.2L121.1,77.4"/>
			<path class="st0" d="M120.4,34.1l-0.3-0.3v-0.5L120.4,34.1"/>
			<path class="st0" d="M120.2,33.3v0.5c-1.2-1.6-2.3-4.8-3.2-9.7C118.2,26.2,119.3,29.3,120.2,33.3"/>
			<path class="st0" d="M115.9,55c0.4-0.4,0.8-0.6,1.1-0.6c1.2,0.1,1.6,0.8,1.3,2.3c-0.3,1.5-1.2,2.1-2.7,2c-0.5-0.7-0.5-1.4,0-2.2
				v0.9c-0.1,0.6,0,1,0.2,1.1c1,0.2,1.7-0.2,2.1-1.3s0.1-1.9-0.7-2.3c-0.7,0.1-1.2,0.5-1.7,1.2C115.4,55.8,115.5,55.4,115.9,55"/>
			<path class="st0" d="M117,24.1c-0.1,0.5-0.7,0.3-1.6-0.9c-0.9-1.1-1.3-1.8-1.3-2.3L117,24.1"/>
			<path class="st1" d="M96.1,19.1c1-1.2,2.3-2,3.9-2.5s3.5-0.7,5.6-0.6l0.7,3l0.8,3l-2.4,3.4c-2.6,0.2-4.3,0.8-5.3,1.7
				c0.7,0,1.5-0.2,2.4-0.6c1-0.4,1.8-0.6,2.4-0.6l-0.2,0.6c-0.1,0.2-0.1,0.3,0.2,0.3c0-0.2,0.3-0.3,0.8-0.3c0.5,0.1,0.7,0,0.7-0.3
				c4.2,2.3,8,4.8,11.3,7.4l-0.3,4.2c-0.1,1.7-0.4,3-0.8,4c-0.3,0.6-0.8,1.3-1.7,1.9l-1.9,1.5l-1.5,1.8c-0.6,0.8-1.2,1.4-1.7,1.6
				l-4.6,0.3c-2.5-0.2-4.2-0.2-5,0l-2.8-2.2c-1.5-1-2.3-1.9-2.4-2.7c-0.1-0.7,0.1-1.7,0.5-2.9l1-3.1v0.1v-0.6c0-1.1,0.5-2.6,1.3-4.4
				L99,29h0.5L99,28.9l0.3-1.5l-0.6,1.3c-2.8-1.1-4.6-1.9-5.5-2.4l1.3-1.5c-0.2-2.1,0.2-3.9,1.3-5.4l0.3,0.1L96.1,19.1 M95.9,39.4
				c0.4,2.2,1,3.6,1.9,4.2l5-0.3c-1.6,0.4-3,0.2-4.3-0.6C97.2,42,96.3,40.9,95.9,39.4 M113.2,36.9c-0.1,0.2,0,0.4,0.1,0.6l0.2,0.6
				c-0.3,0.7-0.8,1.4-1.5,2.1l-1.8,1.8l2.5-2.1C113.5,38.8,113.7,37.8,113.2,36.9"/>
			<path class="st6" d="M109.3,146.1l1.7,2.4c3.6,1.1,6.8,2.4,9.4,4.1l-4.7-2c-2.1-1-3.9-1.6-5.2-2.1l-2.3-3.1
				c-1.1-1-2.5-1.4-4.3-1.2c0.8,2,1.2,4.2,0.9,6.8c-0.6-0.2-1.1-1-1.3-2.3c-0.3-1.4-0.7-2.2-1.3-2.4l0.7-3.4
				c0.4,0.2,0.6,0.6,0.7,1.2l1.8,0.1l1.6,0.1C107.9,144.6,108.6,145.2,109.3,146.1"/>
			<path class="st0" d="M114.3,170.5L114.3,170.5l-0.9,0.3L114.3,170.5"/>
			<path class="st0" d="M114.2,17.4c-0.3,0.2-0.3,0.9,0,1.9s0.3,1.6,0,1.7c-0.3-1.8-1.3-4.2-3-7c-1.8-3.2-2.9-5.4-3.3-6.6l-3.2,0.3
				c-0.5,0.3-1.2,0.9-2.1,1.8l-0.9,1.4l-1,1.3l-1.5,0.5l-1.6,0.4c-0.6,0.4-1,1.1-1.3,2.3c-0.2,0.9-0.3,1.9-0.3,3l-0.8,0.9
				c-1.3-0.8-1.8-1.9-1.5-3.2l0.4,0.6l0.5,0.4c0.2-0.9,0.9-2.3,1.9-4.3c1.6-0.1,3.1-0.9,4.6-2.5l3.6-4h0.4v0.8l1.2-0.2l1.2-0.1
				L111,12L114.2,17.4"/>
			<path class="st0" d="M113.4,38.1l-0.2-0.6c-0.1-0.2-0.1-0.4-0.1-0.6c0.5,0.9,0.3,1.9-0.6,2.9l-2.5,2.1l1.8-1.8
				C112.6,39.4,113.1,38.7,113.4,38.1"/>
			<path class="st0" d="M109.9,186.5c0.8-0.1,1.3-0.1,1.5,0l-2.1,0.3L109.9,186.5"/>
			<path class="st0" d="M109.9,186.5l-0.6,0.3l-12.8,1.9v-0.1l5.9-1.2L109.9,186.5"/>
			<path class="st0" d="M108.8,148.4c0.5,0,0.8,0.2,0.8,0.6c0.1,0.4,0,0.6-0.3,0.8c-0.3,0.1-0.5,0-0.7-0.3l-0.4-0.4l0.6,0.1
				C109.1,149.3,109.1,149,108.8,148.4"/>
			<path class="st0" d="M103.1,64l2.2-0.3h2.4l-2.1,0.3H103.1"/>
			<path class="st0" d="M96,18.3c2-2.1,5.3-3,9.8-2.8l0.8,3.1c0.3,1.4,0.7,2.3,1.1,2.9c-1,2.1-1.9,3.7-2.8,4.6
				c0,0.1,0.2,0.2,0.7,0.2c0,0.2-0.2,0.3-0.7,0.3c-0.5-0.1-0.7,0-0.8,0.3c-0.2-0.1-0.3-0.2-0.2-0.3l0.2-0.6c-0.6,0-1.4,0.2-2.4,0.6
				c-0.9,0.4-1.7,0.6-2.4,0.6c1-0.9,2.7-1.5,5.3-1.7l2.4-3.4l-0.8-3l-0.7-3c-2.1-0.1-3.9,0.1-5.6,0.6c-1.6,0.5-2.9,1.4-3.9,2.5V18.3
				"/>
			<path class="st0" d="M97.6,165.9c1.7-1.2,4.5-1.8,8.4-1.7l-1.3,0.3l-1.6-0.1c-0.8,0.1-1.9,0.3-3.3,0.8L97.6,165.9"/>
			<path class="st4" d="M30.6,174.8l1.7,3.1c3.7,2,7.1,3.4,10.4,4.4l0.6,0.2l1.7,0.1l2.6,2.8c-0.1,0.1-0.2,0.4-0.3,0.8v1.1
				c0.8,0.3,1.7,0.9,2.5,1.9c1,1.2,1.7,1.9,2.3,2.2l4.8-5.1l4.5-0.1l2.9-0.1v1.5c0.5,0.3,1.4,0.5,2.5,0.7l2.3,0.3l-0.8,1.6
				c-0.2,0.6-0.3,1.3-0.2,2c0.7,0.2,1.5,0.8,2.4,1.9c0.9,1,1.6,1.5,2.2,1.5h0.1l2.3-2.2c1.2-1.1,2-1.8,2.4-2.1l0.2-1.6l5.9-0.4
				c2.4-0.3,3.6-0.8,3.6-1.3l2.7,1.2c1.4,0.7,2.2,1,2.6,0.7l2.4-0.1c0.9-0.1,1.4-0.4,1.6-0.9l12.8-1.9l-8.6,4.6l-6.1,1.4l-6.1,1.7
				c-1,0.4-2.3,1.4-4,3.2c-1.5,1.5-2.9,2.5-4.3,2.8c-1.5-0.3-3.4-0.9-5.8-1.8l-5.8-2.2c-4.7-1.4-8.7-1.2-12,0.8l-6.4-0.2
				c-2.6,0.1-4.6-0.1-6-0.6c-2.8-1.1-5.7-3-8.7-5.9c-2.9-2.7-5.2-5.6-6.7-8.4h0.3c-0.8-1.7-0.7-5.3,0.2-11
				C29.5,172.4,29.9,173.6,30.6,174.8"/>
			<path class="st5" d="M104.6,151.1c0.2,0.7,0.1,1.5-0.3,2.6l-1,2.4h-2.7l0.7-1.4l0.3-1.9C103,152.1,104,151.5,104.6,151.1"/>
			<path class="st0" d="M103.3,55.6h0.8l0.4,1c-0.3,1.2-1.1,1.6-2.4,1.2l0.2-0.7l0.3-0.8c0.3,0.1,0.3,0.2,0.2,0.4
				c-0.2,0.3-0.3,0.5-0.2,0.6l1.2-0.3C103.9,56.2,103.7,55.7,103.3,55.6"/>
			<path class="st5" d="M95.4,159.4c0.4-1.1,1.3-1.9,2.8-2.3l4.7-0.4c-1.6,2.6-3.1,3.9-4.5,4.1c-0.2-0.3-0.2-0.5,0-0.6l-1.3-0.3
				L95.4,159.4"/>
			<path class="st0" d="M95.9,39.4c0.4,1.5,1.3,2.6,2.7,3.3c1.3,0.8,2.7,1,4.3,0.6l-5,0.3C96.9,43,96.3,41.6,95.9,39.4"/>
			<path class="st7" d="M103.6,150.8l-0.9,0.4l-0.8,0.6c-1.1-1.3-1.8-3.3-2.2-6c1.3,0,2.2,0.5,2.8,1.6L103.6,150.8"/>
			<path class="st5" d="M102.8,142.2l-0.6,1.6c-0.3,0.6-0.4,1.2-0.3,1.8l-0.8-0.2h-1l-0.9-2.6c-0.3-1.1-0.5-2.1-0.4-3.1
				c0.8,0.1,1.6,0.4,2.3,1L102.8,142.2"/>
			<path class="st0" d="M97.6,64.7c-0.4-0.4,0.4-0.7,2.5-0.7c4.8,0,5,0.1,0.6,0.2L97.6,64.7"/>
			<path class="st6" d="M98.3,153.6l1.8-3.2c0.8,0.5,1.1,1.5,0.9,3.1c-0.1,1.5-0.5,2.5-1.2,2.9c-1.1,0-1.9,0.2-2.4,0.7
				C97.2,156,97.5,154.9,98.3,153.6"/>
			<path class="st0" d="M99.4,29.1h-0.5l0.1-0.2L99.4,29.1"/>
			<path class="st0" d="M98.9,29.1L97,33.2c-0.9,1.8-1.3,3.3-1.3,4.4v0.6v-0.1l-1,3.1c-0.4,1.2-0.6,2.2-0.5,2.9
				c0.1,0.8,0.9,1.7,2.4,2.7l2.8,2.2c-0.9,0.2-1.9-0.3-3.1-1.3L94,45c0-3.1,0.5-6,1.3-8.8c0.6-2,1.7-4.3,3.1-7.1H98.9"/>
			<path class="st0" d="M99.3,27.5L99,28.9l-0.3-0.2L99.3,27.5"/>
			<path class="st0" d="M99,28.9l-0.1,0.2h-0.5l0.2-0.4L99,28.9"/>
			<path class="st5" d="M99.8,145.6c-0.4-0.5-1.2-0.6-2.2-0.3l1.2-0.5c-1.2-1.2-3.1-1.7-5.8-1.4c1-0.6,1.7-1,2.3-1.3
				c0.9-0.4,1.8-0.7,2.8-0.7c-0.1,0.8,0.1,1.6,0.6,2.3L99.8,145.6"/>
			<path class="st0" d="M98.7,28.7l-0.2,0.4c-1-0.1-2.1-0.4-3.1-0.9c-1.1-0.5-1.8-1.1-2.3-1.7l0.1-0.1C94,26.8,95.8,27.6,98.7,28.7"
				/>
			<path class="st6" d="M98.3,139.3l-0.1,0.9c-0.1,0.3-0.2,0.6-0.1,0.8c-3,0.5-5-0.2-6-2.2C95.1,138.5,97.1,138.7,98.3,139.3"/>
			<path class="st6" d="M89.2,145.6c-0.4,0.7-0.7,1.4-0.8,2.1c0.6,0.3,1.3,0.1,1.9-0.8c0.8-1,1.4-1.6,1.7-1.6l2.7-0.1l2.8,0.1
				l-1.7,0.5c0.8,1.5,1.1,3,0.9,4.5c-0.4,0-0.8,0.2-1.2,0.5l-1,0.8l-0.3-2.7c-0.2-1.1-0.7-1.7-1.6-1.9c-0.4,0.1-0.6,0.5-0.7,1.1
				c-0.1,0.5,0,1.1,0.2,1.6c-0.3,0.3-0.9,0.3-1.9,0l-0.2-0.9c-0.1-0.4-0.2-0.7-0.1-1c-1,0.4-1.9,0.6-2.7,0.5l-0.5-0.5
				c0-1,0.3-1.9,0.8-2.9c-0.9-0.2-1.3,0.6-1.2,2.4c0.1,1.7,0.8,2.2,2.1,1.4c0.1,1.3,0.8,2.1,2.2,2.4c1.2,0.3,2.3-0.1,3.2-1
				c0.2,0.5,0.1,1.1-0.2,1.8l-1,1.6l-1.2-0.6c-0.4-0.3-0.6-0.8-0.5-1.3c-0.4,0.7-1.1,0.8-1.9,0.4l-1.9-1.2l0.2-0.7l0.1-0.8l-1.7,2.9
				c-2.2-2.1-2.4-4.8-0.7-7.9c1.6-3,3.7-4.7,6.3-5l-0.1,0.6l-0.2,0.3l0.5,0.1c0.4-0.1,0.6-0.1,0.7,0.2l-2.5,2.3
				c-1.1,0.7-2.4,1-4,0.8c0.3,0.6,0.9,0.9,1.9,0.7l2.2-0.7L89.2,145.6"/>
			<path class="st5" d="M96.8,154.9c0,0.5-0.3,1.2-0.8,2.1c-0.7,1.1-1.2,1.9-1.3,2.3l-0.8-0.1c-0.4,0-0.6,0.1-0.6,0.3
				c0-0.8,0.3-1.7,1.2-2.6C95.1,156.1,95.9,155.4,96.8,154.9"/>
			<path class="st0" d="M96.6,188.3v0.4c-0.1,0-0.2,0-0.2,0.1c-0.2-0.2-0.3-0.6-0.3-0.9L96.6,188.3"/>
			<path class="st0" d="M96.6,188.6L96.6,188.6l-0.2,0.1C96.4,188.7,96.5,188.6,96.6,188.6"/>
			<path class="st0" d="M96.4,188.8l0.2-0.1c-0.1,0.6-0.7,0.9-1.6,0.9l-2.4,0.1l-0.2-0.2l1.8-0.1C95.3,189.3,96,189,96.4,188.8"/>
			<path class="st7" d="M95.3,153.1c-0.7,0.8-1.6,1.2-2.5,1.4l-0.3-0.5c1.4-1.6,2.7-2.6,3.8-3.1C96.5,151.6,96.1,152.4,95.3,153.1"
				/>
			<path class="st0" d="M96.1,19.1v0.5l-0.3-0.1L96.1,19.1"/>
			<path class="st0" d="M96,18.3l0.1,0.8l-0.3,0.4l-0.5-0.3L96,18.3"/>
			<path class="st0" d="M95.3,19.2l0.5,0.3c-1.1,1.5-1.5,3.3-1.3,5.4l-1.3,1.5l-0.3-0.3l0.7-0.5C93.6,22.9,94.2,20.8,95.3,19.2"/>
			<path class="st6" d="M90.8,161.4c0.7-1,1.8-1.5,3.3-1.4c1.3,0.1,2.6,0.5,3.7,1.4c-1.3,1-3.5,1.7-6.5,2.2l-0.2-1.2L90.8,161.4"/>
			<path class="st6" d="M86.8,132.6c2-0.3,3.3-1.3,3.8-2.9c0.7,0.1,1.4-0.1,1.9-0.6c0.6-0.6,1.1-0.9,1.5-1c0.2,0.7,0.1,1.6-0.2,2.8
				l-0.8,2.7l0.4-0.1c-0.3,0.9-1.3,2.1-3,3.8c-1.9,1.9-3.3,2.8-4.1,2.7c-0.7-0.1-1.2-0.6-1.3-1.4c-0.1-0.8,0.1-1.5,0.7-2.1h0.1
				l0.3-0.3l0.1-0.1l0.4-0.2c0.8,0.7,1.8,0.9,2.9,0.5c1.1-0.3,1.8-1,2.1-1.9c-0.8,1.4-2,1.9-3.7,1.3
				C86.3,135.3,85.9,134.2,86.8,132.6 M92.3,133.6c-0.6,0.4-1.1,0.3-1.6-0.3l-1-1.4c0.2,1.8,1.1,2.6,2.7,2.4l0.1-0.4L92.3,133.6"/>
			<path class="st1" d="M93.8,16c-0.3,1.3,0.2,2.3,1.5,3.1c-1.1,1.6-1.7,3.8-1.8,6.4L92.8,26l-4.2,3c-1.7,1.2-3.2,2.1-4.5,2.7
				L82.9,31l-1.2-0.9l-0.8-2.4c-0.3-1-0.3-1.7,0.1-2.2c-0.5-0.1-0.8-0.6-0.9-1.4l-0.3-2c1-2.6,3-4.3,6-5.3c0,1.5,0.3,2.4,0.8,2.6
				c0.2-0.2,0.2-0.4,0.1-0.5c-0.1-0.3-0.2-0.6-0.1-0.9c0.8,0.1,1.4-0.1,1.9-0.6l1.2-1.3l0.7-0.3l2,0.6C93.2,16.6,93.6,16.5,93.8,16"
				/>
			<path class="st6" d="M90.4,144.6c-0.1-1,0.3-1.9,1.1-2.8c0.9-1,1.8-1.1,2.7-0.3c-0.2,0.7-0.8,1.3-1.8,1.8
				C91.3,143.8,90.7,144.3,90.4,144.6"/>
			<path class="st0" d="M93.2,26.3l-0.1,0.1L92.8,26L93.2,26.3"/>
			<path class="st0" d="M93.8,16c-0.1,0.5-0.6,0.7-1.4,0.5l-2-0.6C91.2,15.7,92.4,15.7,93.8,16"/>
			<path class="st5" d="M88.9,158.1l2.3-0.3c0.9-0.1,1.5-0.4,1.8-0.8c0,1.3-0.5,2.3-1.6,3.3c-1.2,1-2.4,1.1-3.7,0.1l0.8-1.1
				C88.8,159,89,158.6,88.9,158.1"/>
			<path class="st0" d="M93.1,26.5c-1.8,1.8-4.8,3.9-8.9,6.1c-2.6-1-4-2.9-4.1-5.8c-0.4-0.1-1,0.2-1.8,0.7c-0.9,0.6-1.6,0.9-2.1,1
				c-0.4,2.4-1.5,4.9-3.1,7.6c0.6,2.1-0.1,4.1-2.2,6V45c0,1.3,0.2,2.2,0.7,2.7c-0.5,0.9-0.7,2.5-0.7,4.8c0,2,0.1,3.9,0.4,5.6
				L71.2,58v0.8C70.7,57.6,70.3,57,70,57l0.2-5.3c0-2.1,0.2-3.6,0.8-4.3c0.1-0.3,0-0.5-0.3-0.5s-0.5-0.1-0.5-0.3
				c-0.2-3.2,0.6-5.9,2.4-7.9c-0.1-1.8,0.3-3.7,1.3-5.7c1.1-2.3,1.7-4,1.8-5.1l1.9-1c0.8-0.5,1.5-0.8,2.1-0.9
				c-0.2-1.3-0.3-2.3-0.2-3.1c-0.1-0.2-0.3-0.2-0.5,0.2l-0.5,0.8c0.7-4,3.6-6.7,8.7-8.1c0.1,0.4,0,0.7-0.4,0.8
				c-0.4,0.1-0.6,0.4-0.5,0.6l1.8-0.3l1.5-0.7l-1.2,1.3c-0.5,0.5-1.1,0.7-1.9,0.6c-0.1,0.3,0,0.6,0.1,0.9c0.1,0.2,0.1,0.4-0.1,0.5
				c-0.5-0.2-0.8-1.1-0.8-2.6c-3,1-5,2.7-6,5.3l0.3,2c0.1,0.8,0.4,1.2,0.9,1.4c-0.4,0.5-0.4,1.2-0.1,2.2l0.8,2.4l1.2,0.9L84,32
				c1.3-0.6,2.8-1.5,4.5-2.7l4.2-3L93.1,26.5"/>
			<path class="st8" d="M91.2,102.1c-0.6-0.4-1.1-0.6-1.5-0.7c-0.2,0-0.2,0.1-0.2,0.2l0.3,0.3c-0.8,0.1-1.3,0.9-1.6,2.3
				c-0.2,1.4-0.1,2.5,0.4,3.4c0.8-0.1,1.3-0.7,1.7-1.9c0.4-1.3,0.9-2,1.4-2.2c0.6,1.7,0.8,3.5,0.8,5.5c-2.2,1.5-3.6,3.4-4.1,5.6
				l-2.8-0.1c-0.9-0.4-1.5-1.1-1.8-2.1l-0.7,0.4l-0.6,0.6l-0.3,0.2h-0.3c-1.6-0.3-2.7-1.5-3.4-3.4c-0.4,0.9-0.2,1.7,0.5,2.3
				c0.5,0.5,1.2,0.9,2.2,1.3c-0.1,1.1,0.1,1.8,0.5,2.2c-0.9,0.2-1.6,0-2.3-0.6c-0.5-0.5-0.8-1.1-1-1.8c-0.9-2.7-0.4-5.8,1.4-9.3
				c1.8-3.4,4-5.4,6.5-6.1l3-0.3l3,0.3c-0.6,0.6-0.6,1.3-0.1,2.1c0.6,0.9,0.8,1.7,0.6,2.3C92.3,102.5,91.8,102.4,91.2,102.1
				 M84.4,104.5c-0.8,0.3-1.5,0.8-2,1.6c-0.5,0.8-0.8,1.5-0.7,2.3c1.2,0.5,2,0.4,2.7-0.3V104.5"/>
			<path class="st5" d="M92.3,133.6l0.1,0.3l-0.1,0.4c-1.5,0.2-2.4-0.6-2.7-2.4l1,1.4C91.2,133.8,91.7,133.9,92.3,133.6"/>
			<path class="st0" d="M89.6,188.1c1.3,0.5,2.2,0.9,2.8,1.4c-0.3,0.1-0.2,0.1,0.2,0.2c-0.4,0.3-1.2,0-2.6-0.7l-2.7-1.2
				C87.4,187.4,88.2,187.5,89.6,188.1"/>
			<path class="st0" d="M90.8,74.1l-1.2-0.9c0-0.1,0.5,0.1,1.4,0.4c0.5-0.1,0.7-0.6,0.7-1.3c0-0.7-0.2-1.2-0.7-1.4
				c-0.3,0-0.5,0.1-0.7,0.3L90,71.9c0.1-0.7,0.3-1.1,0.7-1.2c0.3,0,0.6,0.3,0.9,0.8C92.5,72.8,92.3,73.7,90.8,74.1"/>
			<path class="st0" d="M89.8,152.8c1.4,0.4,2.2,1,2.5,1.9l-3.6-0.1c-1-0.3-2-0.8-2.9-1.5c0-0.3,0.2-0.7,0.6-1l0.6-0.9
				C87.4,151.8,88.3,152.4,89.8,152.8"/>
			<path class="st6" d="M89.2,124.5l1.6,1.8c0.6,0.6,1.3,1.1,2.1,1.3c-0.4,0.9-1,1.4-1.9,1.4c-0.8,0.1-1.5-0.1-2.2-0.6
				s-1-1.1-1.1-1.8C87.7,125.8,88.2,125.1,89.2,124.5"/>
			<path class="st6" d="M88.4,158.1c-0.5,1.6-1.8,2.5-4,2.6c0.1-0.3,0-0.6-0.2-0.8l-0.3-0.8l0.4-0.5c0.1-0.3,0.4-0.4,0.8-0.3
				l-0.4-0.3c-0.2-0.1-0.2-0.3-0.1-0.6l1.8,0.5L88.4,158.1"/>
			<path class="st7" d="M88.2,161.2c0.9,0.4,1.6,1.2,2.3,2.4c-0.7,0.5-1.9,0.6-3.7,0.5l-3.8-0.5l1.5-2.4
				C86,160.8,87.3,160.8,88.2,161.2"/>
			<path class="st7" d="M88.2,115.3l-0.1,1.2c-0.1,0.4-0.1,0.8-0.1,1.3c-0.4,0.4-0.8,0.7-1.3,0.8l-1.8-0.1c-0.4-0.4-0.4-0.9,0-1.4
				c0.4-0.7,0.6-1.3,0.5-1.8l1.6,0.1L88.2,115.3"/>
			<path class="st7" d="M87.8,118.5l0.4,2.7c0.2,1,0.5,1.8,0.8,2.3c-0.4,1.1-0.9,1.9-1.7,2.4c-1.9-0.3-2.7-1.3-2.4-3.1
				c0.6,0.1,1.2-0.1,1.6-0.5c0.5-0.6,0.9-0.9,1.1-1l-0.1-1.8C87.3,119,87.4,118.6,87.8,118.5"/>
			<path class="st7" d="M85.3,133.5l-1.7,0.6c0.1-1.8,0.1-3.1,0-4.1c0.7,0.8,1.5,0.9,2.4,0.4c0.8-0.5,1.3-1.3,1.4-2.3l1.1,1.1
				c0.4,0.3,1,0.5,1.6,0.6c-0.1,1.1-0.7,1.8-1.8,2.2c-1.1,0.4-2,0.2-2.6-0.8c-0.2,0.1-0.1,0.3,0.3,0.6s0.6,0.6,0.5,0.9L85.3,133.5"
				/>
			<path class="st6" d="M84.8,124.9l0.9,1.1c0.4,0.3,0.9,0.5,1.5,0.4c0,1.6-0.4,2.8-1.2,3.6l-0.9-0.1c-0.2-0.1-0.3,0-0.3,0.3
				c-1.3-0.9-2.1-2.3-2.4-4.1H84C84.5,125.9,84.8,125.5,84.8,124.9"/>
			<path class="st7" d="M83.2,133.3l0.3,0.9L85,134l1.2-0.5c-0.1,0.4,0,0.8,0.1,1.2l0.4,0.9l-0.5,0.5l-0.3,0.3h-0.1
				c-1.1,0.8-2.1,0.8-2.9-0.2c-0.9-0.9-0.9-2.2-0.1-3.7C82.9,132.7,83.1,132.9,83.2,133.3"/>
			<path class="st6" d="M87.3,119.4c-0.1,1.2-0.6,2-1.4,2.6c-0.9,0.6-1.7,0.4-2.3-0.5c1.1,1.8,1.2,3.2,0.3,4.1
				c-1.2-0.2-2-0.9-2.6-2.2l-1.3-3.6l1.3,0.8c0.5,0.3,1,0.4,1.6,0.3c0.8-1,1.2-2,1.2-3.1c0.2,0.6,0.6,0.9,1.4,1.1L87.3,119.4"/>
			<path class="st7" d="M85.3,140.3l-0.4,0.6l-0.3,0.6c-1.4-0.1-2.4-0.6-3.1-1.4s-0.7-1.9,0-3.1c-0.3,0.2-0.5,0.5-0.6,1l-0.3,1.2
				c-1,0.3-1.9,0.2-2.7-0.5c-0.1-1.1,0.4-2,1.4-2.6c1.3-0.8,2-1.4,2.2-1.8c-0.1,0.9,0,1.7,0.4,2.4c0.5,0.8,1.4,1.1,2.7,0.8
				C84.3,139.3,84.6,140.3,85.3,140.3"/>
			<path class="st3" d="M83.7,105.3l-1.7,2.6l0.9,0.3l1-0.3v-1.5C83.9,105.8,83.8,105.4,83.7,105.3 M84.4,104.5v3.6
				c-0.6,0.7-1.5,0.8-2.7,0.3c-0.1-0.7,0.1-1.5,0.7-2.3C82.9,105.3,83.6,104.8,84.4,104.5"/>
			<path class="st4" d="M84.3,179.2c0.2,0.4,0.1,0.8-0.1,1.2l-1.1,0.7c-0.3,0.1-0.6-0.1-0.8-0.5c-0.2-0.4-0.2-0.6,0.1-0.8l0.1-0.4
				c0.2-0.2,0.6-0.4,0.9-0.4C83.7,178.9,84,179,84.3,179.2"/>
			<path class="st5" d="M84.2,157.1c0,0.6-0.2,1-0.7,1.2s-0.8,0.4-0.8,0.8c-1.4,0.2-2.7-0.1-3.8-0.9v-1.6c0-0.6,0.1-1.1,0.3-1.3
				c0.5-0.1,0.9,0,1.2,0.3l0.7,0.7l-0.3-0.8c-0.2-0.3-0.3-0.6-0.2-0.9C81.6,155.8,82.8,156.6,84.2,157.1"/>
			<path class="st5" d="M82.7,113.5c1-0.3,1.7,0.1,2.1,1.3c0.4,1.3,0,2.2-1.2,2.7c-1.4-0.5-2-1.6-1.9-3.3l0.6-0.5L82.7,113.5"/>
			<path class="st9" d="M83.7,105.3c0.2,0.2,0.3,0.5,0.3,1.1v1.5l-1,0.3l-0.9-0.3L83.7,105.3"/>
			<path class="st0" d="M87.3,187.8c0,0.6-1.2,1.1-3.6,1.3l-5.9,0.4v-0.3l5.3-0.8C85.5,188.4,86.8,188.1,87.3,187.8"/>
			<path class="st6" d="M83.2,159.7c0.2,1.9-0.2,3.1-1.2,3.6c-1.9-0.6-3.7-1.5-5.6-2.7l1.5-0.6c0.5-0.3,0.7-0.7,0.7-1.3
				c0.4,0.5,1.1,0.9,2,1.1L83.2,159.7"/>
			<path class="st5" d="M83.9,117.7l-1,2.9c-1.3,0-2.3-0.6-3-1.6c-0.5-0.7-0.8-1.8-1.1-3.5c0.6,0.5,1.4,0.9,2.4,1.2L83.9,117.7"/>
			<path class="st6" d="M78.2,139.6c0.8,0.3,1.6,0.2,2.4-0.3c0.4,1.2,1.2,2.1,2.6,2.6c-0.7,0.7-1.3,1.8-1.9,3.4l-1.7,3.6l-1.5,0.1
				l-1.4-0.4c-0.6-1-0.8-2-0.4-3.1c0.3-1.1,1-1.7,2.2-1.9c0.1,0.5,0.3,0.8,0.8,1.1l1.4-0.1c-0.1-0.1-0.3-0.2-0.7-0.3l-0.8-0.2
				l-0.3-1.9c-0.1-0.7,0-1.4,0.3-1.9c-0.3-0.1-0.5,0.1-0.8,0.8c-0.2,0.6-0.3,1.2-0.2,1.8c-0.6,0.9-1.5,1.3-2.7,1.3
				c-1.2-0.1-1.8-0.6-1.8-1.5c0.1-0.6,0.5-1.4,1.3-2.4l2-2.4C76.9,138.8,77.3,139.4,78.2,139.6"/>
			<path class="st0" d="M79.8,36.4c0.6-0.4,1-0.3,1.1,0.5c0.1,0.7-0.1,1.2-0.6,1.5c-0.9,0.1-1.4-0.2-1.5-1c0.3-0.1,0.4,0,0.5,0.3
				s0.2,0.4,0.5,0.3l0.4-0.7C80.3,36.7,80.1,36.5,79.8,36.4"/>
			<path class="st6" d="M79.9,151.8c0.1,1.1,0.3,1.8,0.7,2.1L80,154c-0.3-0.2-0.4-0.5-0.3-0.8c-0.2,0.1-0.2,0.3-0.1,0.6
				s0.1,0.6-0.2,0.8c-1.5,0-2.7-0.7-3.6-2c-0.9-1.4-0.8-2.4,0.4-3.3l1.8,0.5c0.8,0.1,1.3-0.1,1.7-0.5L79.9,151.8"/>
			<path class="st0" d="M72.4,71c0.3,0.1,1.5,0.7,3.4,2c1.6,1,3.1,1.3,4.7,0.8c-1.5,0.6-3,0.5-4.6-0.4C74.3,72.2,73.2,71.4,72.4,71"
				/>
			<path class="st0" d="M78.6,51.5c0.6,0.6,0.6,1.1,0,1.7c-0.6,0.6-1.2,0.6-1.7,0h0.9c0.4,0,0.7-0.3,0.8-0.8
				c0.1-0.3-0.1-0.4-0.5-0.5s-0.6,0-0.7,0.3c-0.3-0.1-0.2-0.3,0.2-0.5L78.6,51.5"/>
			<path class="st7" d="M74.3,151.1c0.6,1.3,1,2.3,1.4,2.8c0.7,0.9,1.5,1.4,2.7,1.6c0,1.7-0.3,3.1-1,4.3c-1.4,0.4-2.7-0.6-3.9-2.9
				c-0.9-1.8-1.6-3.7-1.8-5.8c0.2,0.3,0.7,0.5,1.3,0.5C73.6,151.6,74,151.4,74.3,151.1"/>
			<path class="st0" d="M74.7,184.9c1.4,0,2.4,0.3,3,0.8c0.3,0.8,0.3,2,0.2,3.7l-0.5,0.1l0.1-2.6l-0.3-0.7l-0.6-0.5
				c-0.1,0.2,0,0.6,0.3,1.2c0.3,0.7,0.5,1.3,0.4,1.7l-1.1-1.7c-0.4-0.5-0.5-0.9-0.3-1.2l-1.9-0.2l-2.2,0.2
				C72.3,185.1,73.3,184.9,74.7,184.9"/>
			<path class="st0" d="M77.8,189.3v0.3l-0.5,0.1v-0.2L77.8,189.3"/>
			<path class="st0" d="M77.8,189.6l-0.2,1.6c-0.4,0.3-1.2,1-2.4,2.1l-2.3,2.2l1.8-1.9l2.2-1.9l0.4-2L77.8,189.6"/>
			<path class="st0" d="M77.3,189.4v0.2l-0.4,0.1L77.3,189.4"/>
			<path class="st0" d="M76.1,176l37.2-5.3c-14.6,3.2-26.8,5.4-36.7,6.5L76.1,176"/>
			<path class="st0" d="M76.6,177.3c0.6,1.8,0.4,3.1-0.6,3.8c0.8-1.2,0.8-2.4,0.1-3.8H76.6"/>
			<path class="st0" d="M76.6,177.3l-0.5,0.1l-0.8-1.2l0.8-0.1L76.6,177.3"/>
			<path class="st0" d="M70,77.4c0.1,1.6,0.8,2.9,1.9,3.7c0.9,0.6,2.3,1.1,4.3,1.3c-0.3,0.2-0.4,0.7-0.3,1.4c0.2,1,0.2,1.8,0.1,2.2
				c-0.4,0-1.6,0.5-3.7,1.5l-4.5,0.2c-2,4.1-3,7.5-3.1,10.3c-1.3,0.3-1.9,1.1-1.9,2.5c-0.1,1.2,0.3,2.3,1,3.5
				c-0.5-0.4-0.9-1.3-1.2-2.7l-1.8,3.7c-0.6,1.5-0.4,2.8,0.5,3.8c-0.1,0.5-0.3,0.9-0.8,1.2l-1.3,0.6l1.7-1.8
				c-1.1-1.3-1.1-3.1-0.1-5.4c1.3-2.8,1.9-4.5,1.8-5.2c0.1-0.3,0.3-0.4,0.6-0.4l0.8-0.1c1.3-8.1,3.9-13.2,7.9-15.3
				c-0.1-0.5-0.3-0.9-0.8-1.3l-1.3-0.9c-0.2-0.3-0.3-0.7-0.3-1.3L69,77.7c1-1.6,1.5-3.8,1.4-6.5l-0.6-7.5l0.3-0.2
				c0.3,0.6,0.6,1.9,0.8,3.8c0.2,1.7,0.4,2.7,0.7,2.9l-0.3-0.4L71,73.7C70.9,75.5,70.5,76.7,70,77.4 M75.3,82.7l-1.6-0.1l-1.3-0.1
				c-0.1,0.6,0.1,1.2,0.7,1.8l0.7,1.1c-0.9-0.3-1.6-1-2.2-2.2c-1.9,1.1-3.1,2.4-3.6,4.1c1.6-0.1,2.8,0,3.6,0.4
				c0.4-0.5,1-0.9,1.8-1.3l2.1-0.9l-0.1-1.4L75.3,82.7"/>
			<path class="st0" d="M76.1,176l-0.8,0.1c-0.6-0.6-1.4-0.9-2.3-1s-1.9,0.2-2.8,0.9c0.2,0.2,0.2,0.4-0.1,0.7l-1.4,0.1
				c1.7-1.9,3.9-2.5,6.8-1.8L76.1,176"/>
			<path class="st7" d="M73.1,142.9c0.3,1.4,1.2,2.1,2.7,1.9c-0.4,0.4-0.6,1.1-0.5,2.1c0,1,0.3,1.7,0.8,1.9
				c-0.7,0.9-1.5,1.5-2.4,1.7c-1.1,0.2-1.8-0.3-2.2-1.4c0-1.1,0.2-2.2,0.7-3.3L73.1,142.9"/>
			<path class="st4" d="M75.4,84.1l0.1,1.4l-2.1,0.9c-0.8,0.4-1.4,0.8-1.8,1.3c-0.8-0.4-2-0.5-3.6-0.4c0.5-1.7,1.7-3,3.6-4.1
				c0.5,1.1,1.2,1.8,2.2,2.2l-0.7-1.1c-0.6-0.6-0.8-1.2-0.7-1.8l1.3,0.1l1.6,0.1L75.4,84.1"/>
			<path class="st10" d="M75.3,176.1l0.8,1.2l-7.4,0.5l1.4-1.1L75.3,176.1"/>
			<path class="st0" d="M69.5,188.1l0.8-0.9c0.3-0.4,0.6-0.6,0.9-0.8l-0.3,0.6c-0.5,0.6-0.6,1-0.4,1.1c-0.4,0.2-0.7,0.7-1,1.3
				l-0.6,1.8c0,0.4,0.2,0.6,0.6,0.9l0.8,0.6l0.4-1.9c0.2-0.8,0.4-1.4,0.6-1.7l2-0.5l1.8-0.7l-1.5,1c-0.6,0.4-1.2,0.6-1.8,0.6
				c-0.8,1-1,2.2-0.8,3.4c0.2,1.3,0.9,2.1,1.9,2.6c-0.6,0-1.3-0.5-2.2-1.5c-0.9-1.1-1.7-1.7-2.4-1.9c-0.1-0.7,0-1.4,0.2-2l0.8-1.6
				l-2.3-0.3c-1.1-0.2-2-0.4-2.5-0.7V186l-2.9,0.1l-4.5,0.1l0.1-0.1l4.7-0.4l3.2-0.2c-0.2,1.2,0.3,1.9,1.3,2.2L69.5,188.1"/>
			<path class="st0" d="M68.7,177.8c-0.6,0.5-1,0.9-1.1,1.3c0.4,0.3,1,1,1.6,2.1c0.6,1,1.2,1.7,1.8,2c0.7-0.1,1.5-0.4,2.4-1l2.2-1.2
				l-2.2,1.5c-0.8,0.6-1.5,0.9-2.2,0.9c-0.8,0-1.6-0.6-2.3-1.7c-0.8-1.2-1.4-1.9-1.8-2.1l0.8-1.8H68.7"/>
			<path class="st10" d="M70.2,176.1c0.9-0.7,1.9-1,2.8-0.9s1.6,0.4,2.3,1l-5.2,0.6C70.4,176.5,70.4,176.3,70.2,176.1"/>
			<path class="st5" d="M57.3,115.3c-1,1.8-1.6,3.1-1.7,3.9c-0.1,0.6-0.1,1.5-0.1,2.6c-0.1,0.9-0.4,1.6-0.9,2
				c0.3,1.1,1.2,2.1,2.7,2.9l0.8-1.3c0.3-0.5,0.7-0.8,1.2-0.9c0.6,0.1,1.1,0.5,1.5,1.2c0.5,0.8,1,1.2,1.3,1.4c0.1,0.3,0,0.6-0.3,0.8
				s-0.4,0.4-0.4,0.7c1.3-0.3,3.2-1.3,5.7-2.9c2.2-1.1,4.1-0.9,5.6,0.8c-1.6-0.1-3.2,0.1-4.5,0.7l-3.4,1.9c0.5,0.3,1.5,0.7,3.2,0.9
				c1.4,0.3,2.4,0.7,2.8,1.2c-2.3-0.8-3.7-1.3-4.3-1.4c-1.9-0.4-3.2-0.1-4,0.9l0.6,2.2l0.6,2.2c0.6,0,1.1-0.2,1.7-0.8s1-0.9,1.4-0.9
				c1.6-0.1,3.2,1,4.7,3.3s1.9,4.3,1.2,5.9c-0.6-0.5-1.3-1.6-2.2-3.3c-0.7-1.4-1.6-2.1-2.7-2.3c-0.8-0.1-2.2,0.5-4.3,1.8l-4,2.8
				c-1,0.8-2,1.8-2.8,3.1c-0.9,1.5-1.3,2.7-1.1,3.6c0.1,0.5,0.4,1,0.9,1.3l-0.7-0.6l-0.4,0.5c-0.1,0.2-0.3,0.3-0.6,0.3
				c-0.1-0.8-0.5-1.8-1-2.9l-1.1-2.9l0,0l1.2,2.4c0.4-1.8,1.3-3.5,2.8-5.1l4-3.8l-0.1-2.2l-0.1-2.1c-0.9,0.4-2,1.2-3.2,2.3l-3,2.4
				c-1.2-0.3-1.7-1.6-1.8-3.6c0-2,0.4-3.4,1.3-4.3l0.9,2.1c0.3,1,0.7,1.6,1,2c1.7-1.1,3-2.5,4.1-4.1l-2.2-0.7v-2.2l-1.7-1.3
				c-0.6-0.5-1-1.1-1.2-1.8c-0.2,1.8-0.8,3.8-1.7,6l-2.5,5.7l0.9,6.8c0.3,3.1,0.4,5.7,0.3,7.8l-0.5,4.2c-0.2,1.6-0.3,2.9-0.2,3.7
				l0.2,0.4l0.5,0.1c-0.5,0.2-0.8,0.8-0.8,1.8v2.6c0.7,0.7,1.5,2.1,2.4,4.3c1,2.3,1.7,3.8,2.3,4.5l-0.2,0.2
				c-0.6-0.5-1.2-1.6-1.8-3.3L52,165c-0.1,0-0.2,0.1-0.2,0.3l0.2,0.4c-0.3,0.1-0.5-0.1-0.7-0.4c-0.2-0.3-0.4-0.4-0.8-0.3
				c-1.2,0-2.2,0.3-3,0.8c0.8-1.2,1.8-1.7,2.8-1.6l-0.2-2v-2.8c-1.8,0.3-4.1,1-7.1,1.9l-7,2l0.3-0.5c0.7-0.4,1.7-0.8,2.9-1.1
				l3.2-0.9l3.6-1.2l3.8-0.7c1.1-7.1,1.2-14.1,0.3-20.9c-0.3-1-0.5-1.7-0.5-2.1c0.1-1.3,0.6-2.8,1.7-4.6c1.2-2,1.9-3.4,2.1-4.1
				c-0.5-1.6,0-3.5,1.4-5.5c0.3-4.2,1.6-7.7,3.9-10.7C58.7,112.3,58.2,113.7,57.3,115.3"/>
			<path class="st0" d="M71.3,58.1l0.3,1.5l-0.5-0.9v-0.8L71.3,58.1"/>
			<path class="st0" d="M71.2,58.8l0.5,0.9c-0.2,0.2-0.4,0.9-0.7,1.9c-0.2,1-0.5,1.6-0.8,1.9L70,63.1l0.7-2L71.2,58.8"/>
			<path class="st0" d="M70.2,63.4l-0.3,0.2l0.2-0.6L70.2,63.4"/>
			<path class="st0" d="M70,63.1l-0.2,0.6l-0.1-0.9L70,63.1"/>
			<path class="st0" d="M68.7,176.9l1.4-0.1l-1.4,1.1l-0.8,0.1L68.7,176.9"/>
			<path class="st0" d="M68.3,160.9c0.1,1.5-0.6,2.1-2.2,1.9c-0.3-0.9-0.4-1.5-0.2-1.7c0.2-0.2,0.4,0.3,0.5,1.4
				c0.7,0,1.2-0.3,1.4-0.9c0.1-0.3-0.1-0.6-0.4-0.8l-0.6,0.1c-0.3-0.3-0.2-0.4,0.4-0.4C67.8,160.5,68.1,160.7,68.3,160.9"/>
			<path class="st0" d="M68.7,176.9l-0.8,1l-5.1-0.1c2,0,3.6-0.3,4.8-0.8L68.7,176.9"/>
			<path class="st4" d="M44.3,196.6c1.3,0.5,3.3,0.7,6,0.6l6.4,0.2c3.3-1.9,7.3-2.2,12-0.8l5.8,2.2c2.4,0.9,4.3,1.5,5.8,1.8
				c-4,1.4-8.6,2.1-13.8,2.2c-5.7,0.1-10-0.7-12.8-2.5l-8.8,0.3c-2.3-0.5-4.5-1.2-6.5-2.3c1.8,1.3,4,2.2,6.8,2.7
				c2.9,0.5,5.7,0.3,8.3-0.5l2.8,1.3c1.3,0.5,2.2,0.9,2.8,1.3c-1.6,0.1-3.4,0.6-5.4,1.4c-1.9,0.7-3.5,1.6-4.8,2.4l-5.4-4.6
				c-0.9-0.7-2.2-1.3-3.9-1.8l-6.5-7.9c-2.7-3.4-4-6.8-4.1-10.2v-0.3c1.5,2.9,3.8,5.7,6.7,8.4C38.7,193.6,41.5,195.5,44.3,196.6"/>
			<path class="st0" d="M44.8,200.6l8.8-0.3c2.8,1.8,7.1,2.6,12.8,2.5c4.9-0.1,9.3-0.7,13.1-1.9c-7.6,2.7-14,3.6-19.1,2.6
				c0.1,0.2,0.3,0.4,0.6,0.4c-1.3-0.4-3.3-0.2-6,0.7c-2.1,0.7-4.1,1.5-6.1,2.6l-0.1-0.1c1.3-0.9,2.9-1.7,4.8-2.4
				c2-0.8,3.8-1.3,5.4-1.4c-0.5-0.4-1.5-0.8-2.8-1.3l-2.8-1.3c-2.6,0.8-5.4,1-8.3,0.5c-2.8-0.4-5-1.3-6.8-2.7
				C40.3,199.4,42.5,200.1,44.8,200.6"/>
			<path class="st0" d="M62.5,167c-0.1-0.4-0.4-0.5-0.7-0.4l0.3-0.2l0.2-0.3c0.6,0,0.8,0.4,0.8,1.1c-0.1,0.8-0.4,1.1-1,1
				c-0.3-0.6-0.4-1.1-0.5-1.4c0.3-0.1,0.5,0,0.5,0.3s0.1,0.5,0.3,0.4C62.6,167.6,62.7,167.4,62.5,167"/>
			<path class="st0" d="M62.8,177.8l-1.2,0.1l-0.8-0.4L62.8,177.8"/>
			<path class="st0" d="M56.4,149.6c0.8,0.5,2.1,1.1,4.1,1.8c2.3,0.7,3.6,1.3,4.1,1.6l-4.1-1.2C58.8,151.1,57.4,150.4,56.4,149.6"/>
			<path class="st0" d="M58,175l2.8,2.4c-1.6-0.4-2.4-1-2.5-1.9L58,175"/>
			<path class="st0" d="M48.8,182.3c0.7-2.1,3.3-2.6,8-1.4c0-0.5-0.4-0.9-1.3-1.3c-0.8-0.4-1.7-0.5-2.6-0.4c1.3-0.3,2.5,0,3.8,0.9
				l3.2,2.2c-0.4,0.9-1.3,2.2-2.8,3.9h-0.4l2.7-3.4c-1-0.8-2.1-1.4-3.4-1.6l-5.3-0.4c-1.3,1.5-2.1,3.3-2.6,5.5l2,2.2
				c0.9,0.9,1.5,1.7,1.8,2.3l0.4-0.2l0.3-0.3l0.1,0.1l-0.3,0.4c-0.2,0.2-0.3,0.3-0.3,0.4c-0.5-0.3-1.3-1-2.3-2.2
				c-0.9-1-1.7-1.6-2.5-1.9V186c0-0.4,0.1-0.7,0.3-0.8l-2.6-2.8L48.8,182.3 M46.5,183.9c0.5,0.5,0.9,0.9,1.4,1
				c0-0.4,0.1-0.9,0.4-1.3l0.5-1.1h-1.9l-1.7,0.3L46.5,183.9"/>
			<path class="st4" d="M59.4,182.8l-2.7,3.4l-0.9,0.3l0.8-0.1l-3.8,4.3l-0.1-0.1l-0.3,0.3l-0.4,0.2c-0.3-0.7-1-1.4-1.8-2.3l-2-2.2
				c0.5-2.2,1.4-4,2.6-5.5l5.3,0.4C57.3,181.4,58.4,181.9,59.4,182.8 M50.3,188.3c1.3,1.3,2.2,1.8,2.7,1.7l-1.2-1l-1-1.1
				c0.1-1.4,0.6-2.6,1.4-3.8c0.7-1,1.6-1.7,2.7-2.2c-0.8,0.2-1.7,0.5-2.7,0.9c-0.1,0.5-0.5,1.4-1.1,2.6
				C50.6,186.4,50.3,187.4,50.3,188.3"/>
			<path class="st0" d="M56.6,186.3H57l-4.8,5.1l0.3-0.4l0.3-0.4L56.6,186.3"/>
			<path class="st0" d="M48.4,175.4l4.3-0.1c0.5-0.2,1-0.7,1.5-1.4l1.1-1.9l0.4,0.2c-0.1,0.3-0.2,0.5-0.1,0.7l0.6,0.5l-0.6-0.3
				c-0.4,0-0.8,0.4-1.1,1.1l-0.8,1.6c-3.6,0.5-6.2,0.1-7.9-1c-0.5-0.3-0.8-0.6-0.8-0.8c-0.1-0.2,0.1-0.2,0.6,0l0.1,0.3v-0.2
				L48.4,175.4"/>
			<path class="st0" d="M55.6,171.7c0.2,0.1,0.3,0.2,0.2,0.4l-0.3-0.3L55.6,171.7"/>
			<path class="st0" d="M55.5,171.8l0.3,0.3v0.1l-0.4-0.2L55.5,171.8"/>
			<path class="st2" d="M47.5,165.8c0.8-0.5,1.8-0.8,3-0.8c0.3,0,0.6,0.1,0.8,0.3c0.2,0.3,0.4,0.4,0.7,0.4l-0.2-0.4
				c0-0.1,0-0.2,0.2-0.3l1.5,3.8c0.7,1.7,1.3,2.8,1.8,3.3l-1.1,1.9c-0.5,0.7-1,1.2-1.5,1.4l-4.3,0.1l-2.8-1.3l-0.3-1.3
				c0-1.1,0.2-2.3,0.6-3.6C46.3,167.8,46.9,166.7,47.5,165.8"/>
			<path class="st0" d="M52.2,182.8c1-0.4,1.9-0.7,2.7-0.9c-1.1,0.5-2,1.2-2.7,2.2c-0.8,1.1-1.3,2.4-1.4,3.8l1,1.1l1.2,1
				c-0.5,0.1-1.4-0.4-2.7-1.7c0-0.9,0.3-1.9,0.8-2.9C51.7,184.1,52.1,183.3,52.2,182.8"/>
			<path class="st0" d="M49,207.1l1.6,1.4l-1.8-1.2L49,207.1"/>
			<path class="st0" d="M49,207.1l-0.3,0.2l-0.1-0.1l0.3-0.2L49,207.1"/>
			<path class="st0" d="M43.5,202.4l5.4,4.6l-0.3,0.2l-6.4-4.1c-2.6-1.6-4.9-2.9-7-3.8l4.2,1.3l0.3,0.4l-0.2-0.4
				C41.2,201.2,42.5,201.8,43.5,202.4"/>
			<path class="st4" d="M45.3,182.8l1.7-0.3h1.9l-0.5,1.1c-0.3,0.4-0.4,0.9-0.4,1.3c-0.5-0.1-0.9-0.5-1.4-1L45.3,182.8"/>
			<path class="st10" d="M44.5,169.5c0.9-1.8,1.9-3,3-3.7c-0.7,0.9-1.2,2-1.6,3.4c-0.4,1.3-0.6,2.5-0.6,3.6L44.5,169.5"/>
			<path class="st0" d="M44.5,169.5l-0.8,1.5C43.6,167.8,43.9,167.3,44.5,169.5"/>
			<path class="st0" d="M32.5,177.4c1.4,1,4.5,2.4,9.3,4.4l0.5,0.3l0.4,0.1c-3.3-1-6.7-2.4-10.4-4.4l-1.7-3.1
				c-0.7-1.2-1.1-2.4-1.2-3.6c-0.9,5.7-1,9.3-0.2,11H29v0.3c0.1,3.4,1.4,6.8,4.1,10.2l6.5,7.9l-0.1-0.1l-6.6-6.9
				c-2.4-2.9-3.9-5.9-4.4-9.2c-2.7-0.3-5,0.1-7.1,1.1c-1.6,0.8-3.2,2.2-4.7,4.1l-1.1,1.9c-0.4,0.7-0.8,1.2-1.3,1.5l-2.6,0.4
				c-1.2,0-2.1,0.3-2.7,0.8c0-0.5,0.7-0.9,2.1-1.1l3.2-0.6c4.2-7.1,8.9-9.9,13.9-8.4c-0.6-1.4-0.7-3.6-0.4-6.5l0.9-6.9
				c-0.2-0.9-0.3-1.5-0.3-1.7c0.3-1,1.4-2,3.3-3.1l4.1-2.5l0.2-0.1c-0.5,0.6-1.6,1.6-3.4,2.9l-3.4,2.8c0.2,1.5,0.7,3,1.4,4.5
				L32.5,177.4"/>
			<path class="st0" d="M36.3,162.9l-0.5,0.6l-0.4,0.1C35.8,163.2,36.1,163,36.3,162.9"/>
			<path class="st11" d="M109.3,186.8l-8.6,4.6l-6.1,1.4l-6.1,1.7c-1,0.4-2.3,1.4-4,3.2c-1.5,1.5-2.9,2.5-4.3,2.8
				c-1.5-0.3-3.4-0.9-5.8-1.8l-5.8-2.2c-4.7-1.4-8.7-1.2-12,0.8l-6.4-0.2c-2.6,0.1-4.6-0.1-6-0.6c-2.8-1.1-5.7-3-8.7-5.9
				c-2.9-2.7-5.2-5.6-6.7-8.4"/>
			<path class="st11" d="M109.9,186.5l-0.6,0.3"/>
			<path class="st11" d="M127.6,177.4l-0.7,0.1"/>
			<path class="st12" d="M128.8,136.6c0.3-2.1,0.4-4.9,0.4-8.5l0.1-8.5c-0.3-0.3-0.5-0.6-0.6-0.9c-0.1-0.4,0.1-0.7,0.5-0.9
				c-0.1-7.5-1.2-15.7-3.3-24.4c-0.8,0-1.3-0.3-1.5-1.2c-0.2-0.7-0.1-1.4,0.1-2.1l0.5-0.4"/>
			<path class="st13" d="M124.9,74.5c-0.3-0.6-1.4-1.6-3.3-3.1c-1.5-1.2-2.2-2.5-2.2-3.8c0.2-0.3,0.5-0.6,1-0.9l1.2-0.8
				c0.2-1.3,0.5-2.5,1-3.8l1.3-3.3c0.8-2.6,0.5-6.3-0.8-11.2c-1.4-5.4-2-9-1.8-10.7l0.5-1.3"/>
			<path class="st14" d="M115.3,170.3l-0.2,0.1l-0.7,0.3l-0.1-0.1v-0.1c-0.5-3.3,0.9-5.9,4.2-7.9c3.1-1.9,6.3-2.4,9.4-1.4"/>
			<path class="st14" d="M115.7,170.2l-0.3,0.1"/>
			<path class="st14" d="M129,161.1c0.5,0.5,0.9,1.3,1.1,2.4l0.6,2.6v0.1l0.4,0.9c-1.1,2.6-3.4,4.3-7,5.1c-3.7,0.8-6.5,0.2-8.4-1.9"
				/>
			<path class="st11" d="M99.4,49c0.8-0.2,2.5-0.2,5,0l4.6-0.3c0.5-0.2,1.1-0.8,1.7-1.6l1.5-1.8l1.9-1.5c0.8-0.6,1.4-1.3,1.7-1.9
				c0.5-1,0.8-2.3,0.8-4l0.3-4.2c-3.4-2.6-7.1-5.1-11.3-7.4"/>
			<path class="st14" d="M82.3,179.8c-0.3,0.2-0.3,0.4-0.1,0.8c0.2,0.4,0.5,0.6,0.8,0.5l1.1-0.7c0.2-0.4,0.3-0.8,0.1-1.2
				c-0.3-0.2-0.6-0.3-1-0.3s-0.7,0.1-0.9,0.4V179.8z"/>
		</g>
		<g transform="matrix(1.0, 0.0, 0.0, 1.0, 0.0, 1.4)">
			<g id="shape0_1_" transform="matrix(1.0, 0.0, 0.0, 1.0, 0.0, -1.4)">
				<path class="st0" d="M127.55,176.15c1.5-0.3,3.1-1.2,4.7-2.6c2-1.7,3.4-2.8,4.1-3.1c3.1-0.3,4.7-0.3,4.9,0.1l-4.7,0.2
					c-0.8,0.3-2,1.2-3.5,2.7c-1.4,1.3-2.7,2.1-3.9,2.4c1.9,0.5,4,0.3,6.1-0.7c3.1-1.2,4.9-1.9,5.4-2l0.7-1.2c0.2-0.6,0.4-1,0.7-1.2
					c-1.1-1-2.9-2.1-5.2-3.3c-2.2-1.1-4.3-1.9-6.3-2.5v-0.1c2.3,0.5,4.5,1.2,6.5,2c2.8,1.1,4.5,2.3,5.3,3.6l-0.3,1.3l-0.4,1.1
					l2.4-0.3l2.4-0.2c-1.8,0.2-4.9,1-9.3,2.4c-3.7,1.2-7,1.7-9.9,1.7l-0.4-0.1L127.55,176.15"/>
				<path class="st1" d="M30.55,172.35c-0.7-1.5-1.2-3-1.4-4.5l3.4-2.8c1.8-1.3,2.9-2.3,3.4-2.9l7-2c3-1,5.3-1.6,7.1-1.9v2.8l0.2,2
					c-1-0.1-1.9,0.4-2.8,1.6c-1.1,0.7-2.1,1.9-3,3.7l0.8,3.3c0,0.5,0,1,0.2,1.3c-0.5-0.2-0.7-0.2-0.6,0c0.1,0.2,0.4,0.4,0.8,0.8
					c1.7,1.1,4.3,1.4,7.9,1l0.8-1.6c0.3-0.7,0.7-1.1,1.1-1.1l0.6,0.3l1.9,1.4l0.2,0.6c0.1,0.9,1,1.5,2.5,1.9l0.8,0.4l1.2-0.1l0,0
					l5.1,0.1l-0.8,1.8c0.4,0.2,1,0.9,1.8,2.1c0.7,1.1,1.5,1.7,2.3,1.7c0.6,0,1.3-0.3,2.1-0.9l2.2-1.5l-2.2,1.2
					c-0.8,0.6-1.6,0.9-2.3,1c-0.6-0.3-1.2-1-1.8-2c-0.6-1.1-1.2-1.8-1.6-2.1c0.1-0.4,0.5-0.8,1.1-1.3l7.4-0.5
					c0.7,1.3,0.7,2.6-0.1,3.8c1-0.7,1.2-2,0.6-3.8c9.9-1.1,22.1-3.3,36.7-6.5h0.1l0.9-0.2l0.1,0.1l1.3-0.4c2,2.1,4.8,2.8,8.4,1.9
					c3.6-0.8,5.9-2.5,7.1-5.1l-0.4-0.9c2,0.6,4.1,1.4,6.3,2.5c2.3,1.1,4.1,2.2,5.2,3.3c-0.3,0.2-0.5,0.6-0.7,1.2l-0.7,1.2
					c-0.5,0.1-2.3,0.8-5.4,2c-2.2,0.9-4.2,1.1-6.1,0.7c1.3-0.3,2.6-1.1,3.9-2.4c1.5-1.5,2.7-2.4,3.5-2.7l4.7-0.2
					c-0.2-0.3-1.8-0.3-4.9-0.1c-0.7,0.4-2.1,1.4-4.1,3.1c-1.6,1.4-3.2,2.3-4.7,2.6h-0.5l-0.2,0.1c-1.9,0.6-7.6,3.6-17,8.9l-7.4,0.9
					l-5.9,1.2v-0.4l-0.4-0.4c-0.1,0.4,0,0.7,0.3,0.9c-0.4,0.3-1.1,0.5-2.2,0.7l-1.8,0.1c-0.6-0.5-1.5-1-2.8-1.4
					c-1.4-0.6-2.2-0.7-2.3-0.3c-0.4,0.3-1.8,0.6-4.2,0.8l-5.3,0.8c0.1-1.7,0.1-2.9-0.2-3.7c-0.6-0.5-1.6-0.8-3-0.8s-2.4,0.2-3,0.8
					l2.2-0.2l1.9,0.2c-0.2,0.3-0.1,0.7,0.3,1.2l1.1,1.7c0-0.4-0.1-1-0.4-1.7c-0.3-0.6-0.4-1-0.3-1.2l0.6,0.5l0.3,0.7l-0.1,2.6
					l-0.4,0.3l0.4-0.1l-0.4,2l-2.2,1.9l-1.8,1.9h-0.1c-1.1-0.4-1.7-1.3-1.9-2.6c-0.3-1.3,0-2.4,0.8-3.4c0.6-0.1,1.3-0.3,1.8-0.6
					l1.5-1l-1.8,0.7l-2,0.5c-0.2,0.3-0.4,0.9-0.6,1.7l-0.4,1.9l-0.8-0.6c-0.4-0.2-0.6-0.5-0.6-0.9l0.7-1.8c0.3-0.7,0.6-1.1,1-1.3
					c-0.2-0.1-0.1-0.5,0.4-1.1l0.4-0.6c-0.3,0.2-0.6,0.4-0.9,0.8l-0.8,0.9l-3.3-0.3c-1-0.3-1.5-1-1.3-2.2l-3.2,0.2l-4.7,0.4
					c1.5-1.8,2.4-3.1,2.8-3.9l-3.2-2.2c-1.3-1-2.5-1.3-3.8-0.9c0.9-0.1,1.8,0.1,2.6,0.4c0.8,0.4,1.3,0.8,1.3,1.3
					c-4.6-1.2-7.3-0.7-8,1.4l-3.8,0.3v-0.1h-1.7c-0.1-0.2-0.4-0.3-0.7-0.3l-0.8-0.3c-4.8-2-7.9-3.5-9.3-4.4L30.55,172.35
					 M82.25,178.55c-0.3,0.2-0.3,0.4-0.1,0.8c0.2,0.4,0.5,0.6,0.8,0.5l1.1-0.7c0.2-0.4,0.3-0.8,0.1-1.2c-0.3-0.2-0.6-0.3-1-0.3
					s-0.7,0.1-0.9,0.4V178.55"/>
				<path class="st2" d="M130.05,162.25l0.6,2.6l-0.9-0.1l0.9,0.3l0.4,0.9c-1.1,2.6-3.4,4.3-7.1,5.1s-6.5,0.2-8.4-1.9v-0.1l-0.3,0.1
					h-0.1l-0.9,0.2c-0.5-3.3,0.9-5.9,4.2-7.9c3.1-1.9,6.3-2.4,9.4-1.4l-0.1,0.3h1.2v-0.3C129.45,160.35,129.85,161.15,130.05,162.25
					"/>
				<path class="st0" d="M127.75,137.05c0,1.1,0.2,2.1,0.5,3c0.4,1.2,1.1,1.9,1.9,2.1c0.4,0.8,0.5,1.9,0.4,3.2l-0.4,3.3l0.2,2.1
					l0.1,1.8l-0.4,0.7l-0.5,0.8c-0.3,1.2-0.6,2.4-0.7,3.6c-0.2,1.5,0,2.3,0.4,2.4h-0.3v0.3h-1.2l0.1-0.3l-0.1-0.3
					c0.6-1.7,1-4,1.3-6.9l0.6-7.9v-2.2c-0.1-0.5-0.5-1-1.2-1.4c-0.9,1.2-2.1,2-3.6,2.4c0.3,0.7,0.7,1.2,1.2,1.4l1.7-0.2l1.7-0.3
					c-1,0.8-2.2,0.9-3.5,0.5c-0.9-0.3-1.5-0.8-1.8-1.4l-0.3-1.1l0.5,0.3c0.3-0.9,0.9-2.2,1.8-3.8l2-3.9l0.4,0.1l0.3-0.4l0.7-0.4
					l-0.8,1.8C128.45,137.15,128.05,137.35,127.75,137.05 M124.15,143.65l0.7-0.7l-0.4-0.1L124.15,143.65 M124.85,143.05
					c1,0.2,1.8-0.2,2.4-1.3c0.7-1.1,0.8-2.4,0.3-3.9c-0.6,0.3-1.2,1.1-1.6,2.3L124.85,143.05"/>
				<path class="st3" d="M116.95,22.85c0.9,4.9,1.9,8.1,3.2,9.7c0,1.3,0.5,1.8,1.4,1.6h0.2v0.3l-0.5,1.3c-0.2,1.7,0.4,5.2,1.8,10.7
					c1.3,4.9,1.5,8.6,0.8,11.2l-1.3,3.3c-0.5,1.3-0.8,2.6-1,3.8l-1.2,0.8c-0.5,0.3-0.8,0.6-1,0.9c0,1.4,0.7,2.7,2.2,3.8
					c1.9,1.5,3,2.5,3.3,3.1h-0.3v15.1h0.3l-0.5,0.4c-0.2,0.7-0.3,1.4-0.1,2.1c0.2,0.8,0.7,1.2,1.5,1.2c2.1,8.7,3.2,16.9,3.3,24.4
					c-0.4,0.2-0.6,0.5-0.5,0.9s0.3,0.7,0.6,0.9l-0.1,8.5c0,3.6-0.1,6.4-0.4,8.5l-0.4-0.1l-2,3.9c-0.9,1.7-1.5,2.9-1.8,3.8l-0.5-0.3
					c0,1.2,0.7,2.1,2.1,2.5c1.3,0.4,2.5,0.2,3.5-0.5l-1.7,0.3l-1.7,0.2c-0.5-0.2-0.9-0.7-1.2-1.4c1.5-0.4,2.7-1.2,3.6-2.4
					c0.7,0.5,1.1,0.9,1.2,1.4v2.2l-0.6,7.9c-0.3,2.9-0.8,5.2-1.3,6.9l0.1,0.3c-3.1-0.9-6.3-0.4-9.4,1.4c-3.3,2-4.7,4.6-4.2,7.9
					l-0.9,0.3h-0.1l-37.3,5.1l-0.6-0.9c-2.9-0.6-5.1,0-6.8,1.8l-1.1,0.1c-1.2,0.5-2.8,0.8-4.8,0.8l0,0l-2-0.3l-2.8-2.5
					c-0.4-0.6-1-1.1-1.8-1.6l-0.6-0.5c-0.1-0.2,0-0.4,0.1-0.7l0.1,0.1v-0.1c0.1-0.2,0-0.4-0.2-0.4l-0.1,0.1
					c-0.6-0.7-1.3-2.2-2.3-4.5c-0.9-2.2-1.7-3.6-2.4-4.3v-2.6c0-1,0.3-1.6,0.8-1.8l-0.5-0.1l-0.2-0.4c-0.1-0.8,0-2.1,0.2-3.7
					l0.5-4.2c0.1-2.2,0-4.8-0.3-7.8l-0.9-6.8l2.5-5.7c0.9-2.2,1.5-4.3,1.7-6.1c0.2,0.6,0.6,1.2,1.2,1.8l1.7,1.3v2.2l2.2,0.7
					c-1,1.6-2.4,3-4.1,4.1c-0.4-0.4-0.7-1-1-2l-0.9-2.1c-0.8,0.8-1.2,2.3-1.3,4.3c0,2.1,0.6,3.3,1.8,3.6l3-2.4
					c1.2-1.1,2.3-1.9,3.2-2.3l0.1,2.1l0.1,2.2l-4,3.8c-1.5,1.6-2.4,3.3-2.8,5.1l-1.2-2.4l0,0l1.1,2.9c0.5,1.2,0.9,2.2,1,2.9
					c0.3,0.1,0.5,0,0.6-0.3l0.4-0.5l0.7,0.6c-0.5-0.3-0.8-0.8-0.9-1.3c-0.2-0.9,0.2-2.1,1.1-3.6c0.8-1.3,1.7-2.3,2.8-3.1l4-2.8
					c2.1-1.3,3.6-1.9,4.3-1.8c1.1,0.1,2,0.9,2.7,2.3c0.9,1.7,1.6,2.8,2.2,3.3c0.8-1.6,0.4-3.6-1.2-5.9c-1.5-2.3-3-3.4-4.7-3.3
					c-0.4,0-0.9,0.3-1.4,0.9c-0.5,0.6-1.1,0.8-1.7,0.8l-0.6-2.2l-0.6-2.2c0.8-1,2.2-1.3,4-0.9c0.6,0.1,2.1,0.6,4.4,1.4
					c-0.5-0.5-1.4-0.9-2.9-1.2c-1.6-0.3-2.7-0.6-3.1-0.9l3.3-2c1.4-0.6,2.9-0.8,4.5-0.7c-1.5-1.6-3.4-1.9-5.6-0.8
					c-2.5,1.6-4.4,2.6-5.7,2.9c0-0.3,0.1-0.5,0.4-0.7c0.3-0.2,0.4-0.4,0.3-0.8c-0.4-0.2-0.8-0.6-1.3-1.4c-0.4-0.7-0.9-1.1-1.5-1.2
					c-0.5,0.1-0.8,0.4-1.2,0.9l-0.8,1.3c-1.4-0.8-2.3-1.8-2.7-2.9c0.5-0.4,0.8-1.1,0.9-2c0-1.1,0-2,0.1-2.6c0.1-0.8,0.7-2.1,1.7-3.9
					c0.9-1.6,1.4-3,1.4-4.1l0.4-0.5h0.1l1.3-0.6c0.5-0.3,0.8-0.7,0.8-1.2c-0.9-1-1.1-2.3-0.5-3.8l1.8-3.7c0.3,1.4,0.7,2.3,1.2,2.7
					c-0.7-1.2-1.1-2.3-1-3.5c0-1.4,0.7-2.2,2-2.5c0.1-2.8,1.1-6.3,3.1-10.3l4.5-0.2c2-0.9,3.3-1.4,3.7-1.5c0.1-0.4,0.1-1.1-0.1-2.2
					c-0.1-0.8,0-1.2,0.3-1.4c-1.9-0.3-3.3-0.7-4.2-1.3c-1.2-0.8-1.8-2.1-2-3.7c0.5-0.7,0.9-1.9,1.1-3.8l0.3-3.9l0.3,0.4
					c-0.3-0.2-0.5-1.2-0.7-2.9c-0.3-1.9-0.5-3.2-0.8-3.8c0.3-0.3,0.6-0.9,0.8-1.9c0.3-1,0.5-1.7,0.7-1.9l-0.3-1.5
					c-0.3-1.7-0.4-3.6-0.3-5.6c0-2.3,0.2-3.9,0.7-4.8c-0.5-0.4-0.7-1.3-0.7-2.7v-2.9c2-1.9,2.8-3.9,2.1-6c1.6-2.7,2.7-5.2,3.1-7.6
					c0.4-0.1,1.1-0.4,2.1-1c0.8-0.5,1.4-0.7,1.8-0.7c0.1,2.8,1.5,4.7,4.1,5.8c4.1-2.2,7.1-4.2,8.9-6c0.4,0.6,1.2,1.2,2.3,1.7
					c1.1,0.5,2.1,0.8,3.1,0.9c-1.4,2.8-2.5,5.1-3.1,7.1c-1.1,2.8-1.5,5.7-1.5,8.8l2.3,2.6c1.1,1.1,2.2,1.5,3.1,1.3
					c0.8-0.2,2.5-0.2,5,0l4.6-0.3c0.5-0.2,1.1-0.8,1.7-1.6l1.5-1.8l1.9-1.5c0.8-0.6,1.4-1.3,1.7-1.9c0.5-1,0.8-2.3,0.8-4l0.3-4.2
					c-3.4-2.6-7.1-5.1-11.3-7.4c-0.5,0-0.7-0.1-0.7-0.2c0.9-0.9,1.8-2.5,2.8-4.6c-0.4-0.6-0.8-1.5-1.1-2.9l-0.8-3.1
					c-4.5-0.2-7.7,0.7-9.8,2.8c0-1.1,0.1-2.1,0.3-2.9c0.3-1.1,0.7-1.9,1.3-2.3l1.6-0.4l1.5-0.5l1-1.3l0.9-1.4c0.9-1,1.6-1.6,2.1-1.8
					l3.2-0.3c0.4,1.3,1.5,3.5,3.3,6.7c1.6,2.9,2.6,5.2,3,7.1c0,0.4,0.4,1.2,1.3,2.3C116.25,23.15,116.85,23.35,116.95,22.85
					 M115.85,53.75c-0.4,0.4-0.5,0.8-0.3,1.1c0.4-0.7,1-1.1,1.7-1.2c0.8,0.4,1,1.2,0.7,2.3c-0.4,1.1-1.1,1.5-2.1,1.3
					c-0.2-0.1-0.3-0.5-0.2-1.1v-0.9c-0.5,0.7-0.5,1.5,0,2.2c1.5,0.2,2.4-0.5,2.7-2c0.3-1.5-0.1-2.3-1.3-2.3
					C116.65,53.05,116.25,53.25,115.85,53.75 M117.95,75.35l1.4,0.8c0.7,0.3,1.2,0.3,1.7,0l-1.7-0.5L117.95,75.35 M104.05,54.25
					h-0.8c0.4,0.2,0.5,0.7,0.5,1.5l-1.2,0.3c-0.1-0.1,0-0.3,0.2-0.6c0.1-0.2,0.1-0.3-0.2-0.4l-0.3,0.8l-0.2,0.7
					c1.3,0.4,2.1,0,2.4-1.2L104.05,54.25 M107.55,62.45h-2.4l-2.2,0.3h2.5L107.55,62.45 M97.55,63.45l3.1-0.5
					c4.4-0.1,4.2-0.2-0.6-0.2C97.95,62.75,97.15,62.95,97.55,63.45 M91.05,69.65c0.5,0.2,0.7,0.6,0.7,1.4c0,0.7-0.2,1.2-0.7,1.3
					c-0.9-0.4-1.4-0.6-1.4-0.4l1.2,0.9c1.4-0.4,1.7-1.3,0.8-2.6c-0.3-0.5-0.6-0.8-0.9-0.8c-0.4,0-0.6,0.4-0.7,1.2l0.3-0.7
					C90.55,69.75,90.75,69.65,91.05,69.65 M109.75,97.75c1.3,0.6,2.2,1.1,2.9,1.6c-0.2,0.6-0.1,1,0.3,1.2l0.9,0.6l-1.2,2.3l-1.3,2.2
					l-6.7,1.5c0.3-2.3,0.3-4.2,0-5.8c-1.4-0.2-2.7,0.2-3.9,1.2c-0.2,2.2,0.3,3.8,1.5,4.8c-0.7,0.4-2.3,0.9-4.8,1.5
					c-2,0.5-3.3,1.3-4.1,2.3l-0.2,4.4c-0.1,1.6,0.3,2.7,1.1,3.2c0-2.5,0.8-4.5,2.6-6.1c1.8-1.6,3.8-1.8,5.8-0.4l0.2,2.5v2.5
					c-0.3,0.7-1.6,1.8-3.8,3.3c-1.9,1.3-3,2.6-3.2,3.8c-0.1,0.9,0.1,2.1,0.8,3.8c0.6,1.4,1.1,2.5,1.7,3.2c-0.3-3.7,1-6.6,3.8-8.7
					c2.5-1.8,5.8-2.7,9.8-2.7c0.3,1.3,0.4,2.8,0.3,4.6c1.1-0.9,1.9-2.2,2.3-4s0.2-3.5-0.6-4.9l-4.1,0.9c-1.7,0.3-2.9-0.1-3.7-1.1
					c-0.8-1.2-0.6-3.1,0.5-5.8l3.8-1l3.9-0.8l0.8-6.7c1.3,0.8,2.8,2.3,4.4,4.4c1.8,2.4,3.2,3.9,4,4.7c-0.6-2.5-1.2-4.2-1.7-5.1
					s-1.5-2.2-3-3.8c-1.5-1.7-2.6-2.7-3.3-3.2l-1.4-0.4l-1.5-0.3c-0.6-0.3-2.4-1.3-5.4-3.1c-2.3-1.3-4.2-2.2-5.8-2.4
					c0.3,0.9,1,1.7,2.1,2.4l2.9,1.7L109.75,97.75 M92.75,101.35c0.2-0.6,0-1.3-0.6-2.3c-0.5-0.8-0.5-1.5,0.1-2.1l-3-0.3l-3,0.3
					c-2.5,0.7-4.7,2.8-6.5,6.1c-1.8,3.4-2.3,6.5-1.4,9.3c0.2,0.7,0.5,1.3,1,1.8c0.7,0.6,1.4,0.8,2.3,0.6c-0.4-0.4-0.6-1.1-0.5-2.2
					c-0.9-0.3-1.7-0.7-2.2-1.3c-0.7-0.7-0.9-1.5-0.5-2.3c0.7,1.9,1.8,3.1,3.4,3.4h0.3l-0.6,0.5c-0.1,1.7,0.5,2.8,1.9,3.3
					c1.2-0.5,1.6-1.4,1.2-2.7c-0.4-1.2-1.1-1.7-2.1-1.3l0.6-0.6l0.7-0.4c0.3,0.9,0.9,1.6,1.8,2.1l2.8,0.1c0.5-2.2,1.9-4,4.1-5.6
					c0.1-2-0.2-3.8-0.8-5.5c-0.5,0.2-1,0.9-1.4,2.2c-0.4,1.2-0.9,1.8-1.7,1.9c-0.5-0.9-0.7-2-0.4-3.4c0.2-1.4,0.8-2.2,1.6-2.3
					l-0.3-0.3c-0.1-0.1,0-0.2,0.2-0.2c0.4,0.1,0.9,0.3,1.5,0.7C91.65,101.05,92.25,101.25,92.75,101.35 M80.85,35.55
					c-0.1-0.7-0.5-0.8-1.1-0.5c0.3,0.1,0.4,0.4,0.4,0.8l-0.4,0.7c-0.2,0.1-0.4,0-0.5-0.3s-0.2-0.3-0.5-0.3c0,0.7,0.5,1,1.5,1
					C80.75,36.75,80.95,36.25,80.85,35.55 M78.55,51.95c0.6-0.6,0.6-1.1,0-1.7l-1,0.2c-0.4,0.2-0.4,0.4-0.2,0.5
					c0.1-0.3,0.3-0.4,0.7-0.3c0.4,0.1,0.6,0.2,0.5,0.5c-0.1,0.5-0.3,0.8-0.8,0.8h-0.9C77.35,52.45,77.95,52.45,78.55,51.95
					 M86.85,114.05l-1.6-0.1c0,0.5-0.1,1.1-0.5,1.8c-0.3,0.5-0.3,1,0,1.4l1.8,0.1c0.5-0.2,1-0.4,1.3-0.8c-0.1-0.4,0-0.8,0.1-1.3
					l0.1-1.2L86.85,114.05 M86.35,121.05c-0.4,0.4-0.9,0.6-1.6,0.5c-0.3,1.8,0.5,2.8,2.4,3.1c0.8-0.5,1.3-1.3,1.7-2.4
					c-0.3-0.6-0.5-1.3-0.8-2.3l-0.4-2.7c-0.3,0.1-0.5,0.5-0.3,1.1l0.1,1.8C87.25,120.15,86.85,120.45,86.35,121.05 M87.15,118.15
					l-1.7-0.4c-0.8-0.1-1.2-0.5-1.4-1.1c0,1.1-0.4,2.1-1.2,3.1c-0.6,0-1.1-0.1-1.6-0.3l-1.3-0.8l1.3,3.6c0.6,1.3,1.4,2,2.6,2.2
					c0.9-0.9,0.8-2.3-0.3-4.1c0.6,0.9,1.3,1.1,2.3,0.5C86.65,120.15,87.05,119.35,87.15,118.15 M82.85,119.35l1-2.9l-2.7-0.9
					c-1-0.3-1.8-0.7-2.4-1.2c0.3,1.6,0.6,2.8,1.1,3.5C80.55,118.75,81.55,119.35,82.85,119.35 M82.35,124.85
					c0.3,1.8,1.1,3.2,2.4,4.1c0-0.4,0.1-0.5,0.3-0.3l0.9,0.1c0.8-0.8,1.2-2,1.2-3.6c-0.6,0.1-1.1-0.1-1.5-0.4l-0.9-1.1
					c-0.1,0.6-0.4,1-0.8,1.3L82.35,124.85 M88.65,127.15c0.7,0.5,1.4,0.7,2.2,0.6c0.8-0.1,1.5-0.6,1.9-1.5c-0.7-0.2-1.4-0.7-2.1-1.3
					l-1.6-1.8c-1,0.6-1.5,1.3-1.5,2.1C87.65,125.95,88.05,126.65,88.65,127.15 M60.45,150.15c-2-0.7-3.4-1.3-4.1-1.8
					c1,0.7,2.4,1.5,4.2,2.2l4.1,1.2C64.15,151.45,62.75,150.95,60.45,150.15 M88.35,130.65c1.1-0.4,1.7-1.1,1.8-2.2
					c-0.6,0-1.2-0.2-1.6-0.6l-1.1-1.1c-0.1,1-0.6,1.7-1.4,2.3c-0.9,0.5-1.7,0.4-2.4-0.4c0.1,1,0.1,2.3,0,4.1l1.7-0.6l1.3-0.9
					c0.1-0.3-0.1-0.6-0.5-0.9c-0.4-0.3-0.5-0.5-0.3-0.6C86.35,130.85,87.25,131.05,88.35,130.65 M82.65,131.35
					c-0.8,1.6-0.8,2.8,0.1,3.7s1.8,0.9,2.9,0.2c-0.6,0.6-0.8,1.4-0.7,2.1c0.1,0.8,0.6,1.3,1.3,1.4c0.8,0.1,2.2-0.8,4.1-2.7
					c1.7-1.7,2.7-3,3-3.8l-0.4,0.1l0.8-2.7c0.3-1.2,0.3-2.1,0.2-2.8c-0.4,0.1-0.9,0.4-1.5,1c-0.5,0.5-1.2,0.8-1.9,0.6
					c-0.5,1.6-1.8,2.6-3.8,2.9c-0.9,1.6-0.5,2.7,1.1,3.2c1.7,0.5,2.9,0.1,3.7-1.3c-0.3,1-1,1.6-2.1,1.9c-1.1,0.4-2.1,0.2-2.9-0.5
					l-0.4,0.2l0.4-0.4l-0.4-0.9c-0.2-0.4-0.2-0.8-0.1-1.2l-1.2,0.5l-1.5,0.2l-0.3-0.9C83.05,131.65,82.85,131.45,82.65,131.35
					 M81.85,135.35c-0.4-0.7-0.6-1.5-0.4-2.4c-0.2,0.4-0.9,0.9-2.2,1.8c-1,0.6-1.5,1.5-1.4,2.6c0.7,0.6,1.6,0.8,2.7,0.5l0.3-1.2
					c0.1-0.5,0.3-0.8,0.6-1c-0.7,1.2-0.7,2.2,0,3.1s1.7,1.4,3.1,1.4l0.3-0.6l0.4-0.6c-0.8,0-1-1-0.8-2.9
					C83.35,136.45,82.45,136.25,81.85,135.35 M74.85,139.05c-0.8,1-1.3,1.8-1.3,2.4c0,0.9,0.7,1.4,1.8,1.5c1.2,0.1,2.1-0.4,2.7-1.3
					c-0.1-0.6,0-1.2,0.2-1.8c0.2-0.7,0.5-0.9,0.8-0.8c-0.4,0.5-0.5,1.2-0.3,1.9l0.3,1.9l0.8,0.2c0.3,0.1,0.6,0.2,0.7,0.3l-1.4,0.1
					c-0.5-0.2-0.7-0.6-0.8-1.1c-1.1,0.2-1.8,0.8-2.2,1.9c-0.3,1.1-0.2,2.1,0.4,3.1l1.4,0.4l1.5-0.1l1.7-3.6c0.6-1.6,1.3-2.7,1.9-3.4
					c-1.4-0.6-2.3-1.4-2.6-2.6c-0.7,0.5-1.5,0.6-2.4,0.3s-1.3-0.9-1.3-1.8L74.85,139.05 M75.65,143.55c-1.5,0.1-2.4-0.6-2.7-1.9
					l-1,2.9c-0.5,1.2-0.7,2.3-0.7,3.3c0.4,1.1,1.1,1.6,2.2,1.4c0.9-0.2,1.7-0.7,2.4-1.7c-0.5-0.3-0.7-0.9-0.8-1.9
					C75.15,144.75,75.25,144.05,75.65,143.55 M72.85,150.35c-0.6,0-1.1-0.2-1.3-0.5c0.3,2,0.9,3.9,1.8,5.8c1.2,2.3,2.5,3.3,3.9,2.9
					c0.7-1.2,1-2.6,1-4.3c-1.1-0.2-2-0.7-2.7-1.6c-0.4-0.5-0.9-1.5-1.4-2.8C73.95,150.15,73.55,150.35,72.85,150.35 M75.65,151.35
					c0.9,1.3,2.1,2,3.6,2c0.2-0.1,0.3-0.4,0.2-0.8s-0.1-0.6,0.1-0.6c-0.1,0.3,0.1,0.5,0.3,0.8l0.6-0.1c-0.4-0.3-0.6-1-0.7-2.1
					l-0.3-2.4c-0.3,0.4-0.8,0.6-1.7,0.5l-1.8-0.5C74.95,148.95,74.75,150.05,75.65,151.35 M89.75,141.55l2.5-2.3
					c-0.1-0.2-0.3-0.3-0.7-0.2l-0.5-0.1l0.2-0.3l0.1-0.6c-2.6,0.3-4.6,2-6.3,5c-1.7,3.2-1.5,5.8,0.7,7.9l1.7-2.9l-0.1,0.8l-0.2,0.7
					l1.9,1.2c0.8,0.4,1.5,0.2,1.9-0.4c-0.1,0.6,0.1,1.1,0.5,1.3l1.2,0.6l1-1.6c0.3-0.7,0.4-1.3,0.2-1.8c-0.9,0.9-1.9,1.2-3.2,1
					c-1.3-0.3-2-1.1-2.2-2.4c-1.3,0.7-2,0.3-2.1-1.4c-0.1-1.8,0.3-2.6,1.2-2.4c-0.5,0.9-0.8,1.9-0.8,2.9l0.5,0.5
					c0.8,0.1,1.7-0.1,2.7-0.5c-0.1,0.3,0,0.6,0.1,1l0.2,0.9c1,0.3,1.6,0.3,1.9,0c-0.2-0.5-0.3-1-0.2-1.6c0.1-0.6,0.3-1,0.7-1.1
					c0.9,0.2,1.5,0.8,1.6,1.9l0.3,2.7l1-0.8c0.4-0.3,0.8-0.4,1.2-0.5c0.2-1.6-0.1-3.1-0.9-4.5l1.7-0.5l-2.8-0.1l-2.7,0.1
					c-0.3,0.1-0.9,0.6-1.7,1.6c-0.6,0.8-1.3,1.1-1.9,0.8c0.1-0.7,0.3-1.4,0.8-2.1l0.7-1.9l-2.2,0.7c-1,0.2-1.6,0-1.9-0.7
					C87.35,142.65,88.65,142.35,89.75,141.55 M85.75,151.75c0.9,0.7,1.9,1.2,2.9,1.5l3.6,0.1c-0.3-0.9-1.1-1.5-2.5-1.9
					c-1.5-0.4-2.4-1-2.8-1.7l-0.6,0.9C85.95,151.05,85.75,151.45,85.75,151.75 M86.35,156.55l-1.8-0.5c-0.1,0.3-0.1,0.5,0.1,0.6
					l0.4,0.3c-0.4-0.1-0.6,0-0.8,0.3l-0.4,0.5l0.3,0.8c0.2,0.3,0.3,0.6,0.2,0.8c2.2-0.1,3.6-1,4-2.6L86.35,156.55 M80.65,154.05
					l0.3,0.8l-0.7-0.7c-0.3-0.3-0.7-0.4-1.2-0.3c-0.2,0.2-0.3,0.7-0.3,1.3v1.6c1.2,0.8,2.4,1.1,3.8,0.9c0-0.3,0.2-0.6,0.8-0.8
					c0.5-0.2,0.7-0.6,0.7-1.2c-1.4-0.4-2.6-1.3-3.6-2.6C80.45,153.55,80.45,153.75,80.65,154.05 M82.85,162.35l3.8,0.5
					c1.7,0.1,2.9-0.1,3.7-0.5c-0.6-1.2-1.4-2-2.3-2.4s-2.2-0.4-3.8-0.1L82.85,162.35 M80.55,158.55c-0.9-0.2-1.6-0.6-2-1.1
					c0,0.6-0.2,1.1-0.7,1.3l-1.5,0.6c1.8,1.1,3.7,2,5.6,2.7c1-0.5,1.4-1.7,1.2-3.6L80.55,158.55 M87.65,159.15
					c1.3,0.9,2.5,0.9,3.7-0.1c1.1-0.9,1.6-2,1.6-3.3c-0.3,0.4-0.9,0.6-1.8,0.8l-2.3,0.3c0,0.5-0.1,0.9-0.4,1.3L87.65,159.15
					 M66.05,161.55c1.5,0.2,2.2-0.4,2.2-1.9c-0.2-0.2-0.5-0.4-1.1-0.4s-0.7,0.1-0.4,0.4l0.6-0.1c0.3,0.2,0.4,0.5,0.3,0.8
					c-0.2,0.7-0.7,1-1.4,0.9c-0.1-1.2-0.3-1.6-0.4-1.4C65.65,160.15,65.75,160.65,66.05,161.55 M62.25,166.35
					c-0.2,0-0.3-0.1-0.3-0.4s-0.2-0.4-0.5-0.3c0,0.4,0.2,0.9,0.5,1.4c0.6,0.1,0.9-0.2,1-1s-0.2-1.1-0.8-1.1l-0.2,0.3l-0.3,0.2
					c0.3-0.1,0.6,0,0.7,0.4C62.65,166.15,62.55,166.35,62.25,166.35 M123.45,116.05l0.2,1.3l0.1,1.5h-0.4c-0.2,0-0.3,0.1-0.3,0.2
					c0.7,0.5,1.1,0.1,1.3-1.1C124.35,116.85,124.05,116.15,123.45,116.05 M98.25,138.05c-1.2-0.6-3.2-0.8-6.3-0.5c1,1.9,3,2.7,6,2.2
					c0-0.2,0-0.5,0.1-0.8L98.25,138.05 M97.55,144.05c1-0.3,1.7-0.2,2.2,0.3l-1.1-1.8c-0.5-0.7-0.7-1.5-0.6-2.3
					c-1,0-1.9,0.3-2.8,0.7c-0.5,0.2-1.3,0.6-2.3,1.3c2.7-0.2,4.6,0.3,5.8,1.4L97.55,144.05 M91.45,140.55c-0.8,0.9-1.2,1.8-1.1,2.8
					c0.3-0.3,0.9-0.8,2-1.4c0.9-0.5,1.5-1.1,1.8-1.8C93.25,139.45,92.35,139.55,91.45,140.55 M96.35,149.55
					c-1.1,0.5-2.4,1.5-3.8,3.1l0.3,0.5c1-0.1,1.8-0.6,2.5-1.4C96.05,151.15,96.45,150.35,96.35,149.55 M105.45,142.65l-1.8-0.1
					c-0.1-0.6-0.3-1-0.7-1.2l-0.7,3.4c0.5,0.3,0.9,1.1,1.3,2.4c0.3,1.3,0.7,2.1,1.3,2.3c0.2-2.5-0.1-4.8-0.9-6.8
					c1.8-0.2,3.2,0.2,4.3,1.2l2.3,3.1c1.3,0.4,3.1,1.1,5.2,2.1l4.7,2c-2.6-1.6-5.8-3-9.4-4.1l-1.7-2.4c-0.7-0.9-1.4-1.5-2.1-2
					L105.45,142.65 M102.15,142.55l0.6-1.6l-1.8-1.6c-0.7-0.6-1.5-1-2.3-1c0,1,0.1,2.1,0.4,3.1l0.9,2.6h1l0.8,0.2
					C101.75,143.65,101.85,143.15,102.15,142.55 M102.55,149.95l0.9-0.4l-1-3.4c-0.6-1.1-1.5-1.7-2.8-1.6c0.3,2.7,1,4.7,2.2,6
					L102.55,149.95 M101.55,151.55l-0.3,1.9l-0.7,1.4h2.7l1-2.4c0.4-1.1,0.4-1.9,0.3-2.6C103.95,150.25,102.95,150.85,101.55,151.55
					 M109.25,148.55c0.3-0.2,0.4-0.5,0.3-0.8s-0.4-0.5-0.8-0.6c0.3,0.6,0.3,0.8,0,0.8l-0.6-0.1l0.4,0.4
					C108.85,148.55,109.05,148.65,109.25,148.55 M105.95,163.05c-3.9-0.1-6.7,0.5-8.4,1.7l2.2-0.7c1.4-0.4,2.5-0.7,3.3-0.8l1.6,0.1
					L105.95,163.05 M99.65,155.05c0.7-0.4,1.1-1.4,1.2-2.9c0.1-1.6-0.2-2.6-0.9-3.1l-1.8,3.2c-0.8,1.3-1.1,2.5-0.9,3.5
					C97.85,155.35,98.65,155.05,99.65,155.05 M96.75,153.65c-1,0.5-1.8,1.2-2.4,1.9c-0.8,0.9-1.2,1.8-1.2,2.6c0-0.2,0.2-0.3,0.6-0.3
					l0.8,0.1c0.1-0.4,0.6-1.1,1.3-2.3C96.55,154.85,96.85,154.15,96.75,153.65 M90.75,160.15l0.3,0.9l0.2,1.2c3-0.4,5.2-1.2,6.5-2.2
					c-1.1-0.9-2.3-1.3-3.7-1.4C92.65,158.65,91.55,159.15,90.75,160.15 M98.25,159.65c1.4-0.1,2.9-1.5,4.5-4.1l-4.7,0.4
					c-1.5,0.4-2.4,1.1-2.8,2.3l1.7,0.5l1.3,0.3C98.05,159.15,98.05,159.35,98.25,159.65"/>
				<path class="st4" d="M127.55,137.85c0.5,1.5,0.4,2.8-0.3,3.9c-0.6,1.1-1.4,1.5-2.4,1.3l1.1-2.9
					C126.35,138.95,126.95,138.15,127.55,137.85"/>
				<path class="st0" d="M127.55,176.15l-0.7,0.1l0.2-0.1H127.55"/>
				<path class="st0" d="M124.85,73.05c0.3,1.2,0.5,3.5,0.5,7.1v9.2l-0.5-0.8v-0.2h-0.3v-15.1h0.3V73.05"/>
				<path class="st0" d="M124.45,142.85l0.4,0.1l-0.7,0.7L124.45,142.85"/>
				<path class="st0" d="M123.65,118.85l-0.1-1.5l-0.2-1.3c0.6,0.2,0.9,0.8,0.8,2c-0.2,1.2-0.6,1.6-1.3,1.1c0-0.1,0.1-0.2,0.3-0.2
					L123.65,118.85"/>
				<path class="st5" d="M106.65,96.25l-2.9-1.7c-1.1-0.7-1.8-1.5-2.1-2.4c1.6,0.3,3.6,1.1,5.8,2.4c3,1.8,4.8,2.8,5.4,3.1l1.5,0.3
					l1.4,0.4c0.7,0.4,1.8,1.5,3.3,3.2c1.4,1.6,2.4,2.9,3,3.8c0.5,0.9,1.1,2.6,1.7,5.1c-0.8-0.7-2.2-2.3-4-4.7
					c-1.6-2.1-3.1-3.6-4.4-4.4l-0.8,6.7l-3.9,0.8l-3.8,1c-1.1,2.6-1.3,4.5-0.5,5.8c0.7,1,1.9,1.4,3.7,1.1l4.1-0.9
					c0.8,1.4,1,3.1,0.6,4.9s-1.2,3.1-2.3,4c0.2-1.7,0.1-3.3-0.3-4.6c-4-0.1-7.3,0.8-9.8,2.7c-2.9,2-4.2,4.9-3.8,8.7
					c-0.5-0.7-1.1-1.8-1.7-3.2c-0.6-1.6-0.9-2.9-0.8-3.8c0.2-1.2,1.2-2.4,3.2-3.8c2.2-1.5,3.5-2.5,3.8-3.3v-2.5l-0.2-2.5
					c-2.1-1.4-4.1-1.2-5.8,0.4c-1.7,1.5-2.6,3.6-2.6,6.1c-0.8-0.5-1.2-1.6-1.1-3.2l0.2-4.4c0.7-1.1,2.1-1.9,4.1-2.3
					c2.5-0.6,4.2-1.1,4.8-1.5c-1.2-1-1.7-2.6-1.5-4.8c1.1-1,2.4-1.4,3.9-1.2c0.3,1.6,0.3,3.5,0,5.8l6.7-1.5l1.3-2.2l1.2-2.3
					l-0.9-0.6c-0.4-0.2-0.5-0.6-0.3-1.2c-0.7-0.5-1.6-1-2.9-1.6L106.65,96.25"/>
				<path class="st0" d="M121.95,33.45v0.6l-0.3,0.4v-0.1v-0.2h-0.2c-1,0.2-1.4-0.3-1.4-1.6l0.3,0.3l-0.2-0.8l0.2-0.8l0.6,1.5
					C121.15,33.35,121.55,33.55,121.95,33.45"/>
				<path class="st0" d="M121.05,76.15c-0.4,0.3-1,0.3-1.7,0l-1.4-0.8l1.4,0.2L121.05,76.15"/>
				<path class="st0" d="M120.35,32.75l-0.3-0.3v-0.5L120.35,32.75"/>
				<path class="st0" d="M120.15,32.05v0.5c-1.2-1.6-2.3-4.8-3.2-9.7C118.15,24.95,119.25,28.05,120.15,32.05"/>
				<path class="st0" d="M115.85,53.75c0.4-0.4,0.8-0.6,1.1-0.6c1.2,0.1,1.6,0.8,1.3,2.3c-0.3,1.5-1.2,2.1-2.7,2
					c-0.5-0.7-0.5-1.4,0-2.2v0.9c-0.1,0.6,0,1,0.2,1.1c1,0.2,1.7-0.2,2.1-1.3s0.1-1.9-0.7-2.3c-0.7,0.1-1.2,0.5-1.7,1.2
					C115.35,54.55,115.45,54.15,115.85,53.75"/>
				<path class="st0" d="M116.95,22.85c-0.1,0.5-0.7,0.3-1.6-0.9c-0.9-1.1-1.3-1.8-1.3-2.3L116.95,22.85"/>
				<path class="st1" d="M95.95,17.85c1-1.2,2.3-2,3.9-2.5s3.5-0.7,5.6-0.6l0.7,3l0.8,3l-2.4,3.4c-2.6,0.2-4.3,0.8-5.3,1.7
					c0.7,0,1.5-0.2,2.4-0.6c1-0.4,1.8-0.6,2.4-0.6l-0.2,0.6c-0.1,0.2-0.1,0.3,0.2,0.3c0-0.2,0.3-0.3,0.8-0.3c0.5,0.1,0.7,0,0.7-0.3
					c4.2,2.3,8,4.8,11.3,7.4l-0.3,4.2c-0.1,1.7-0.4,3-0.8,4c-0.3,0.6-0.8,1.3-1.7,1.9l-1.9,1.5l-1.5,1.8c-0.6,0.8-1.2,1.4-1.7,1.6
					l-4.6,0.3c-2.5-0.2-4.2-0.2-5,0l-2.8-2.2c-1.5-1-2.3-1.9-2.4-2.7c-0.1-0.7,0.1-1.7,0.5-2.9l1-3.1v0.1v-0.6
					c0-1.1,0.5-2.6,1.3-4.4l1.9-4.1h0.5l-0.4-0.1l0.3-1.5l-0.6,1.3c-2.8-1.1-4.6-1.9-5.5-2.4l1.3-1.5c-0.2-2.1,0.2-3.9,1.3-5.4
					l0.3,0.1L95.95,17.85 M95.85,38.15c0.4,2.2,1,3.6,1.9,4.2l5-0.3c-1.6,0.4-3,0.2-4.3-0.6C97.15,40.75,96.25,39.65,95.85,38.15
					 M113.15,35.65c-0.1,0.2,0,0.4,0.1,0.6l0.2,0.6c-0.3,0.7-0.8,1.4-1.5,2.1l-1.8,1.8l2.5-2.1
					C113.45,37.55,113.65,36.55,113.15,35.65"/>
				<path class="st6" d="M109.25,144.85l1.7,2.4c3.6,1.1,6.8,2.4,9.4,4.1l-4.7-2c-2.1-1-3.9-1.6-5.2-2.1l-2.3-3.1
					c-1.1-1-2.5-1.4-4.3-1.2c0.8,2,1.2,4.2,0.9,6.8c-0.6-0.2-1.1-1-1.3-2.3c-0.3-1.4-0.7-2.2-1.3-2.4l0.7-3.4
					c0.4,0.2,0.6,0.6,0.7,1.2l1.8,0.1l1.6,0.1C107.85,143.35,108.55,143.95,109.25,144.85"/>
				<path class="st0" d="M114.25,169.25L114.25,169.25l-0.9,0.3L114.25,169.25"/>
				<path class="st0" d="M114.05,16.15c-0.3,0.2-0.3,0.9,0,1.9s0.3,1.6,0,1.7c-0.3-1.8-1.3-4.2-3-7.1c-1.8-3.2-2.9-5.4-3.3-6.7
					l-3.2,0.3c-0.5,0.3-1.2,0.9-2.1,1.8l-0.9,1.4l-1,1.3l-1.5,0.5l-1.6,0.4c-0.6,0.4-1,1.1-1.3,2.3c-0.2,0.9-0.3,1.8-0.3,2.9
					l-0.8,0.9c-1.3-0.8-1.8-1.9-1.5-3.2l0.4,0.6l0.5,0.4c0.2-0.9,0.9-2.3,1.9-4.3c1.6-0.1,3.1-0.9,4.6-2.5l3.6-4h0.4v0.8l1.2-0.2
					l1.2-0.1l3.3,5.3L114.05,16.15"/>
				<path class="st0" d="M113.35,36.75l-0.2-0.6c-0.1-0.2-0.1-0.4-0.1-0.6c0.5,0.9,0.3,1.9-0.6,2.9l-2.5,2.1l1.8-1.8
					C112.55,38.15,113.05,37.45,113.35,36.75"/>
				<path class="st0" d="M109.85,185.25c0.8-0.1,1.3-0.1,1.5,0l-2.1,0.3L109.85,185.25"/>
				<path class="st0" d="M109.85,185.25l-0.6,0.3l-12.8,1.9v-0.1l5.9-1.2L109.85,185.25"/>
				<path class="st0" d="M108.75,147.15c0.5,0,0.8,0.2,0.8,0.6c0.1,0.4,0,0.6-0.3,0.8c-0.3,0.1-0.5,0-0.7-0.3l-0.4-0.4l0.6,0.1
					C109.05,148.05,109.05,147.75,108.75,147.15"/>
				<path class="st0" d="M103.05,62.75l2.2-0.3h2.4l-2.1,0.3H103.05"/>
				<path class="st0" d="M95.95,17.05c2-2.1,5.3-3,9.8-2.8l0.8,3.1c0.3,1.4,0.7,2.3,1.1,2.9c-1,2.1-1.9,3.7-2.8,4.6
					c0,0.1,0.2,0.2,0.7,0.2c0,0.2-0.2,0.3-0.7,0.3c-0.5-0.1-0.7,0-0.8,0.3c-0.2-0.1-0.3-0.2-0.2-0.3l0.2-0.6c-0.6,0-1.4,0.2-2.4,0.6
					c-0.9,0.4-1.7,0.6-2.4,0.6c1-0.9,2.7-1.5,5.3-1.7l2.4-3.4l-0.8-3l-0.7-3c-2.1-0.1-3.9,0.1-5.6,0.6c-1.6,0.5-2.9,1.4-3.9,2.5
					V17.05"/>
				<path class="st0" d="M97.55,164.65c1.7-1.2,4.5-1.8,8.4-1.7l-1.3,0.3l-1.6-0.1c-0.8,0.1-1.9,0.3-3.3,0.8L97.55,164.65"/>
				<path class="st4" d="M30.55,173.55l1.7,3.1c3.7,2,7.1,3.4,10.4,4.4l0.6,0.2l1.7,0.1l2.6,2.8c-0.1,0.1-0.2,0.4-0.3,0.8v1.1
					c0.8,0.3,1.7,0.9,2.5,1.9c1,1.2,1.7,1.9,2.3,2.2l4.8-5.1l4.5-0.1l2.9-0.1v1.5c0.5,0.3,1.4,0.5,2.5,0.7l2.3,0.3l-0.8,1.6
					c-0.2,0.6-0.3,1.3-0.2,2c0.7,0.2,1.5,0.8,2.4,1.9c0.9,1,1.6,1.5,2.1,1.5h0.1l2.3-2.2c1.2-1.1,2-1.8,2.4-2.1l0.2-1.6l5.9-0.4
					c2.4-0.3,3.6-0.8,3.6-1.3l2.7,1.2c1.4,0.7,2.2,1,2.6,0.7l2.4-0.1c0.9-0.1,1.4-0.4,1.6-0.9l12.8-1.9l-8.6,4.6l-6.1,1.4l-6.1,1.7
					c-1,0.4-2.3,1.4-4,3.2c-1.5,1.5-2.9,2.5-4.3,2.8c-1.5-0.3-3.4-0.9-5.8-1.8l-5.8-2.2c-4.7-1.4-8.7-1.2-12,0.8l-6.4-0.2
					c-2.6,0.1-4.6-0.1-6-0.6c-2.8-1.1-5.7-3-8.7-5.9c-2.9-2.7-5.2-5.6-6.7-8.4h0.3c-0.8-1.7-0.7-5.3,0.2-11
					C29.45,171.15,29.85,172.35,30.55,173.55"/>
				<path class="st5" d="M104.45,149.85c0.2,0.7,0.1,1.5-0.3,2.6l-1,2.4h-2.7l0.7-1.4l0.3-1.9
					C102.95,150.85,103.95,150.25,104.45,149.85"/>
				<path class="st0" d="M103.25,54.25h0.8l0.4,1c-0.3,1.2-1.1,1.6-2.4,1.2l0.2-0.7l0.3-0.8c0.3,0.1,0.3,0.2,0.2,0.4
					c-0.2,0.3-0.3,0.5-0.2,0.6l1.2-0.3C103.85,54.95,103.65,54.45,103.25,54.25"/>
				<path class="st5" d="M95.35,158.15c0.4-1.1,1.3-1.9,2.8-2.3l4.7-0.4c-1.6,2.6-3.1,3.9-4.5,4.1c-0.2-0.3-0.2-0.5,0-0.6l-1.4-0.2
					L95.35,158.15"/>
				<path class="st0" d="M95.85,38.15c0.4,1.5,1.3,2.6,2.7,3.3c1.3,0.8,2.7,1,4.3,0.6l-5,0.3C96.85,41.75,96.25,40.35,95.85,38.15"
					/>
				<path class="st7" d="M103.55,149.55l-0.9,0.4l-0.8,0.6c-1.1-1.3-1.8-3.3-2.2-6c1.3,0,2.2,0.5,2.8,1.6L103.55,149.55"/>
				<path class="st5" d="M102.75,140.95l-0.6,1.6c-0.3,0.6-0.4,1.2-0.3,1.8l-0.8-0.2h-1l-0.9-2.6c-0.3-1.1-0.5-2.1-0.4-3.1
					c0.8,0.1,1.6,0.4,2.3,1L102.75,140.95"/>
				<path class="st0" d="M97.55,63.45c-0.4-0.4,0.4-0.7,2.5-0.7c4.8,0,5,0.1,0.6,0.2L97.55,63.45"/>
				<path class="st6" d="M98.15,152.35l1.8-3.2c0.8,0.5,1.1,1.5,0.9,3.1c-0.1,1.5-0.5,2.5-1.2,2.9c-1.1,0-1.9,0.2-2.4,0.7
					C97.05,154.75,97.35,153.65,98.15,152.35"/>
				<path class="st0" d="M99.35,27.85h-0.5l0.1-0.2L99.35,27.85"/>
				<path class="st0" d="M98.85,27.85l-1.9,4.1c-0.9,1.8-1.3,3.3-1.3,4.4v0.6v-0.1l-1,3.1c-0.4,1.2-0.6,2.2-0.5,2.9
					c0.1,0.8,0.9,1.7,2.4,2.7l2.8,2.2c-0.9,0.2-1.9-0.3-3.1-1.3l-2.3-2.7c0-3.1,0.5-6,1.3-8.8c0.6-2,1.7-4.3,3.1-7.1H98.85"/>
				<path class="st0" d="M99.15,26.25l-0.2,1.4l-0.3-0.2L99.15,26.25"/>
				<path class="st0" d="M98.95,27.65l-0.1,0.2h-0.5l0.2-0.4L98.95,27.65"/>
				<path class="st5" d="M99.65,144.35c-0.4-0.5-1.2-0.6-2.2-0.3l1.2-0.5c-1.2-1.2-3.1-1.7-5.8-1.4c1-0.6,1.7-1,2.3-1.3
					c0.9-0.4,1.8-0.7,2.8-0.7c-0.1,0.8,0.1,1.6,0.6,2.3L99.65,144.35"/>
				<path class="st0" d="M98.55,27.45l-0.2,0.4c-1-0.1-2.1-0.4-3.1-0.9c-1.1-0.5-1.8-1.1-2.3-1.7l0.1-0.1
					C93.95,25.55,95.75,26.35,98.55,27.45"/>
				<path class="st6" d="M98.25,138.05l-0.1,0.9c-0.1,0.3-0.2,0.6-0.1,0.8c-3,0.5-5-0.2-6-2.2
					C94.95,137.25,97.05,137.45,98.25,138.05"/>
				<path class="st6" d="M89.15,144.35c-0.4,0.7-0.7,1.4-0.8,2.1c0.6,0.3,1.3,0.1,1.9-0.8c0.8-1,1.4-1.6,1.7-1.6l2.7-0.1l2.8,0.1
					l-1.7,0.5c0.8,1.5,1.1,3,0.9,4.5c-0.4,0-0.8,0.2-1.2,0.5l-1,0.8l-0.3-2.7c-0.2-1.1-0.7-1.7-1.6-1.9c-0.4,0.1-0.6,0.5-0.7,1.1
					c-0.1,0.5,0,1.1,0.2,1.6c-0.3,0.3-0.9,0.3-1.9,0l-0.2-0.9c-0.1-0.4-0.2-0.7-0.1-1c-1,0.4-1.9,0.6-2.7,0.5l-0.5-0.5
					c0-1,0.3-1.9,0.8-2.9c-0.9-0.2-1.3,0.6-1.2,2.4c0.1,1.7,0.8,2.2,2.1,1.4c0.1,1.3,0.8,2.1,2.2,2.4c1.2,0.3,2.3-0.1,3.2-1
					c0.2,0.5,0.1,1.1-0.2,1.8l-1,1.6l-1.2-0.6c-0.4-0.3-0.6-0.8-0.5-1.3c-0.4,0.7-1.1,0.8-1.9,0.4l-1.9-1.2l0.2-0.7l0.1-0.8
					l-1.7,2.9c-2.2-2.1-2.4-4.8-0.7-7.9c1.6-3,3.7-4.7,6.3-5l-0.1,0.6l-0.2,0.3l0.5,0.1c0.4-0.1,0.6-0.1,0.7,0.2l-2.5,2.3
					c-1.1,0.7-2.4,1-4,0.8c0.3,0.6,0.9,0.9,1.9,0.7l2.2-0.7L89.15,144.35"/>
				<path class="st5" d="M96.75,153.65c0,0.5-0.3,1.2-0.8,2.1c-0.7,1.1-1.2,1.9-1.3,2.3l-0.8-0.1c-0.4,0-0.6,0.1-0.6,0.3
					c0-0.8,0.3-1.7,1.2-2.6C95.05,154.85,95.85,154.15,96.75,153.65"/>
				<path class="st0" d="M96.55,187.05v0.4c-0.1,0-0.2,0-0.2,0.1c-0.2-0.2-0.3-0.6-0.3-0.9L96.55,187.05"/>
				<path class="st0" d="M96.45,187.35L96.45,187.35l-0.2,0.1C96.35,187.45,96.35,187.35,96.45,187.35"/>
				<path class="st0" d="M96.35,187.55l0.2-0.1c-0.1,0.6-0.7,0.9-1.6,0.9l-2.4,0.1l-0.2-0.2l1.8-0.1
					C95.25,188.05,95.95,187.75,96.35,187.55"/>
				<path class="st7" d="M95.25,151.85c-0.7,0.8-1.6,1.2-2.5,1.4l-0.3-0.5c1.4-1.6,2.7-2.6,3.8-3.1
					C96.45,150.35,96.05,151.15,95.25,151.85"/>
				<path class="st0" d="M95.95,17.85v0.5l-0.3-0.1L95.95,17.85"/>
				<path class="st0" d="M95.95,17.05l0.1,0.9l-0.3,0.4l-0.5-0.3L95.95,17.05"/>
				<path class="st0" d="M95.15,17.85l0.5,0.3c-1.1,1.5-1.5,3.3-1.3,5.4l-1.3,1.5l-0.3-0.3l0.7-0.5
					C93.55,21.65,94.05,19.55,95.15,17.85"/>
				<path class="st6" d="M90.75,160.15c0.7-1,1.8-1.5,3.3-1.4c1.3,0.1,2.6,0.5,3.7,1.4c-1.3,1-3.5,1.7-6.5,2.2l-0.2-1.2
					L90.75,160.15"/>
				<path class="st6" d="M86.75,131.35c2-0.3,3.3-1.3,3.8-2.9c0.7,0.1,1.4-0.1,1.9-0.6c0.6-0.6,1.1-0.9,1.5-1
					c0.2,0.7,0.1,1.6-0.2,2.8l-0.8,2.7l0.4-0.1c-0.3,0.9-1.3,2.1-3,3.8c-1.9,1.9-3.3,2.8-4.1,2.7c-0.7-0.1-1.2-0.6-1.3-1.4
					c-0.1-0.8,0.1-1.5,0.7-2.1h0.1l0.3-0.3l0.1-0.1l0.4-0.2c0.8,0.7,1.8,0.9,2.9,0.5c1.1-0.3,1.8-1,2.1-1.9c-0.8,1.4-2,1.9-3.7,1.3
					C86.25,134.05,85.85,132.95,86.75,131.35 M92.25,132.35c-0.6,0.4-1.1,0.3-1.6-0.3l-1-1.4c0.2,1.8,1.1,2.6,2.7,2.4l0.1-0.4
					L92.25,132.35"/>
				<path class="st1" d="M93.65,14.75c-0.3,1.3,0.2,2.3,1.5,3.1c-1.1,1.6-1.7,3.8-1.8,6.4l-0.7,0.5l-4.2,3c-1.7,1.2-3.2,2.1-4.5,2.7
					l-1.1-0.7l-1.2-0.9l-0.8-2.4c-0.3-1-0.3-1.7,0.1-2.2c-0.5-0.1-0.8-0.6-0.9-1.4l-0.3-2c1-2.6,3-4.3,6-5.3c0,1.5,0.3,2.4,0.8,2.7
					c0.2-0.2,0.2-0.4,0.1-0.6c-0.1-0.3-0.2-0.6-0.1-0.9c0.8,0.1,1.4-0.1,1.9-0.6l1.2-1.3l0.7-0.3l2,0.6
					C93.05,15.35,93.55,15.25,93.65,14.75"/>
				<path class="st6" d="M90.35,143.35c-0.1-1,0.3-1.9,1.1-2.8c0.9-1,1.8-1.1,2.7-0.3c-0.2,0.7-0.8,1.3-1.8,1.8
					C91.25,142.55,90.65,143.05,90.35,143.35"/>
				<path class="st0" d="M93.05,25.05l-0.1,0.2l-0.3-0.4L93.05,25.05"/>
				<path class="st0" d="M93.65,14.65c-0.1,0.5-0.6,0.7-1.4,0.5l-2-0.6C91.15,14.45,92.35,14.45,93.65,14.65"/>
				<path class="st5" d="M88.85,156.85l2.3-0.3c0.9-0.1,1.5-0.4,1.8-0.8c0,1.3-0.5,2.3-1.6,3.3c-1.2,1-2.4,1.1-3.7,0.1l0.8-1.1
					C88.75,157.75,88.95,157.35,88.85,156.85"/>
				<path class="st0" d="M92.95,25.25c-1.8,1.8-4.8,3.9-8.9,6c-2.6-1-4-2.9-4.1-5.8c-0.4-0.1-1,0.2-1.8,0.7c-0.9,0.6-1.6,0.9-2.1,1
					c-0.4,2.4-1.5,4.9-3.1,7.6c0.6,2.1-0.1,4.1-2.1,6v3c0,1.3,0.2,2.2,0.7,2.7c-0.5,0.9-0.7,2.5-0.7,4.8c0,2,0.1,3.9,0.3,5.6l0-0.1
					l-0.1,0.8c-0.5-1.2-0.8-1.8-1.1-1.8l0.2-5.3c0-2.1,0.2-3.6,0.8-4.3c0.1-0.3,0-0.5-0.3-0.5s-0.5-0.1-0.4-0.3
					c-0.2-3.2,0.6-5.9,2.4-7.9c-0.1-1.8,0.3-3.7,1.3-5.7c1.1-2.3,1.7-4,1.8-5.1l1.9-1c0.8-0.5,1.5-0.8,2.1-0.9
					c-0.2-1.3-0.3-2.3-0.2-3.1c-0.1-0.2-0.3-0.2-0.5,0.2l-0.5,0.8c0.7-4,3.6-6.7,8.7-8.2c0.1,0.4,0,0.7-0.4,0.8s-0.6,0.4-0.5,0.6
					l1.8-0.3l1.5-0.7l-1.2,1.3c-0.5,0.5-1.1,0.7-1.9,0.6c-0.1,0.3,0,0.6,0.1,0.9c0.1,0.2,0.1,0.4-0.1,0.6c-0.5-0.2-0.8-1.1-0.8-2.7
					c-3,1-5,2.7-6,5.3l0.3,2c0.1,0.8,0.4,1.2,0.9,1.4c-0.4,0.5-0.4,1.2-0.1,2.2l0.8,2.4l1.2,0.9l1.2,0.9c1.3-0.6,2.8-1.5,4.5-2.7
					l4.2-3L92.95,25.25"/>
				<path class="st8" d="M91.05,100.75c-0.6-0.4-1.1-0.6-1.5-0.7c-0.2,0-0.2,0.1-0.2,0.2l0.3,0.3c-0.8,0.1-1.3,0.9-1.6,2.3
					c-0.2,1.4-0.1,2.5,0.4,3.4c0.8-0.1,1.3-0.7,1.7-1.9c0.4-1.3,0.9-2,1.4-2.2c0.6,1.7,0.8,3.5,0.8,5.5c-2.2,1.5-3.6,3.4-4.1,5.6
					l-2.8-0.1c-0.9-0.4-1.5-1.1-1.8-2.1l-0.7,0.4l-0.6,0.6l-0.3,0.2h-0.3c-1.6-0.3-2.7-1.5-3.4-3.4c-0.4,0.9-0.2,1.7,0.5,2.3
					c0.5,0.5,1.2,0.9,2.2,1.3c-0.1,1.1,0.1,1.8,0.5,2.2c-0.9,0.2-1.6,0-2.3-0.6c-0.5-0.5-0.8-1.1-1-1.8c-0.9-2.7-0.4-5.8,1.4-9.3
					c1.8-3.4,4-5.4,6.5-6.1l3-0.3l3,0.3c-0.6,0.6-0.6,1.3-0.1,2.1c0.6,0.9,0.8,1.7,0.6,2.3C92.25,101.25,91.65,101.05,91.05,100.75
					 M84.35,103.25c-0.8,0.3-1.5,0.8-2,1.6c-0.5,0.8-0.8,1.5-0.7,2.3c1.2,0.5,2,0.4,2.7-0.3V103.25"/>
				<path class="st5" d="M92.25,132.35l0.1,0.3l-0.1,0.4c-1.5,0.2-2.4-0.6-2.7-2.4l1,1.4C91.15,132.55,91.65,132.65,92.25,132.35"/>
				<path class="st0" d="M89.45,186.85c1.3,0.5,2.2,0.9,2.8,1.4c-0.3,0.1-0.2,0.1,0.2,0.2c-0.4,0.3-1.2,0-2.6-0.7l-2.7-1.2
					C87.35,186.15,88.05,186.25,89.45,186.85"/>
				<path class="st0" d="M90.75,72.75l-1.2-0.9c0-0.1,0.5,0.1,1.4,0.4c0.5-0.1,0.7-0.6,0.7-1.3c0-0.7-0.2-1.2-0.7-1.4
					c-0.3,0-0.5,0.1-0.7,0.3l-0.3,0.7c0.1-0.7,0.3-1.1,0.7-1.2c0.3,0,0.6,0.3,0.9,0.8C92.45,71.55,92.15,72.45,90.75,72.75"/>
				<path class="st0" d="M89.75,151.55c1.4,0.4,2.2,1,2.5,1.9l-3.6-0.1c-1-0.3-2-0.8-2.9-1.5c0-0.3,0.2-0.7,0.6-1l0.6-0.9
					C87.35,150.55,88.25,151.15,89.75,151.55"/>
				<path class="st6" d="M89.15,123.15l1.6,1.8c0.6,0.6,1.3,1.1,2.1,1.3c-0.4,0.9-1,1.4-1.9,1.5c-0.8,0.1-1.5-0.1-2.2-0.6
					s-1-1.2-1.1-1.8C87.65,124.45,88.15,123.75,89.15,123.15"/>
				<path class="st6" d="M88.35,156.85c-0.5,1.6-1.8,2.5-4,2.6c0.1-0.3,0-0.6-0.2-0.8l-0.3-0.8l0.4-0.5c0.1-0.3,0.4-0.4,0.8-0.3
					l-0.4-0.3c-0.2-0.1-0.2-0.3-0.1-0.6l1.8,0.5L88.35,156.85"/>
				<path class="st7" d="M88.05,159.95c0.9,0.4,1.6,1.2,2.3,2.4c-0.7,0.5-1.9,0.6-3.7,0.5l-3.8-0.5l1.5-2.4
					C85.95,159.55,87.15,159.55,88.05,159.95"/>
				<path class="st7" d="M88.15,114.05l-0.1,1.2c-0.1,0.4-0.1,0.8-0.1,1.3c-0.4,0.4-0.8,0.7-1.3,0.8l-1.8-0.1
					c-0.4-0.4-0.4-0.9,0-1.4c0.4-0.7,0.6-1.3,0.5-1.8l1.6,0.1L88.15,114.05"/>
				<path class="st7" d="M87.65,117.15l0.4,2.7c0.2,1,0.5,1.8,0.8,2.3c-0.4,1.1-0.9,1.9-1.7,2.4c-1.9-0.3-2.7-1.3-2.4-3.1
					c0.6,0.1,1.2-0.1,1.6-0.5c0.5-0.6,0.9-0.9,1.1-1l-0.1-1.8C87.25,117.65,87.35,117.35,87.65,117.15"/>
				<path class="st7" d="M85.25,132.25l-1.7,0.6c0.1-1.8,0.1-3.1,0-4.1c0.7,0.8,1.5,0.9,2.4,0.4c0.8-0.5,1.3-1.3,1.4-2.3l1.1,1.1
					c0.4,0.3,1,0.5,1.6,0.6c-0.1,1.1-0.7,1.8-1.8,2.2c-1.1,0.4-2,0.2-2.6-0.8c-0.2,0.1-0.1,0.3,0.3,0.6s0.6,0.6,0.5,0.9
					L85.25,132.25"/>
				<path class="st6" d="M84.75,123.65l0.9,1.1c0.4,0.3,0.9,0.5,1.5,0.4c0,1.6-0.4,2.8-1.2,3.6l-0.9-0.1c-0.2-0.1-0.3,0-0.3,0.3
					c-1.3-0.9-2.1-2.3-2.4-4.1h1.6C84.45,124.65,84.65,124.25,84.75,123.65"/>
				<path class="st7" d="M83.05,132.05l0.3,0.9l1.5-0.2l1.2-0.5c-0.1,0.4,0,0.8,0.1,1.2l0.4,0.9l-0.5,0.5l-0.3,0.3h-0.1
					c-1.1,0.8-2.1,0.8-2.9-0.2c-0.9-0.9-0.9-2.2-0.1-3.7C82.85,131.45,83.05,131.65,83.05,132.05"/>
				<path class="st6" d="M87.15,118.15c-0.1,1.2-0.6,2-1.4,2.6c-0.9,0.6-1.7,0.4-2.3-0.5c1.1,1.8,1.2,3.2,0.3,4.1
					c-1.2-0.2-2-0.9-2.6-2.2l-1.3-3.6l1.3,0.8c0.5,0.3,1,0.4,1.6,0.3c0.8-1,1.2-2,1.2-3.1c0.2,0.6,0.6,0.9,1.4,1.1L87.15,118.15"/>
				<path class="st7" d="M85.25,139.05l-0.4,0.6l-0.3,0.6c-1.4-0.1-2.4-0.6-3.1-1.4s-0.7-1.9,0-3.1c-0.3,0.2-0.5,0.5-0.6,1l-0.3,1.2
					c-1,0.3-1.9,0.2-2.7-0.5c-0.1-1.1,0.4-2,1.4-2.6c1.3-0.8,2-1.4,2.2-1.8c-0.1,0.9,0,1.7,0.4,2.4c0.5,0.8,1.4,1.1,2.7,0.8
					C84.25,138.05,84.55,139.05,85.25,139.05"/>
				<path class="st3" d="M83.55,104.05l-1.7,2.6l0.9,0.3l1-0.3v-1.5C83.85,104.55,83.75,104.15,83.55,104.05 M84.35,103.25v3.6
					c-0.6,0.7-1.5,0.8-2.7,0.3c-0.1-0.7,0.1-1.5,0.7-2.3C82.85,104.05,83.55,103.55,84.35,103.25"/>
				<path class="st4" d="M84.25,177.95c0.2,0.4,0.1,0.8-0.1,1.2l-1.1,0.7c-0.3,0.1-0.6-0.1-0.8-0.5c-0.2-0.4-0.2-0.6,0.1-0.8
					l0.1-0.4c0.2-0.2,0.6-0.4,0.9-0.4C83.65,177.65,83.95,177.75,84.25,177.95"/>
				<path class="st5" d="M84.05,155.85c0,0.6-0.2,1-0.7,1.2s-0.8,0.4-0.8,0.8c-1.4,0.2-2.7-0.1-3.8-0.9v-1.6c0-0.6,0.1-1.1,0.3-1.3
					c0.5-0.1,0.9,0,1.2,0.3l0.7,0.7l-0.3-0.8c-0.2-0.3-0.3-0.6-0.2-0.9C81.45,154.55,82.65,155.35,84.05,155.85"/>
				<path class="st5" d="M82.65,112.15c1-0.3,1.7,0.1,2.1,1.3c0.4,1.3,0,2.2-1.2,2.7c-1.4-0.5-2-1.6-1.9-3.3l0.6-0.5L82.65,112.15"
					/>
				<path class="st9" d="M83.55,104.05c0.2,0.2,0.3,0.5,0.3,1.1v1.5l-1,0.3l-0.9-0.3L83.55,104.05"/>
				<path class="st0" d="M87.15,186.55c0,0.6-1.2,1.1-3.6,1.3l-5.9,0.4v-0.3l5.3-0.8C85.45,187.15,86.75,186.85,87.15,186.55"/>
				<path class="st6" d="M83.15,158.45c0.2,1.9-0.2,3.1-1.2,3.6c-1.9-0.6-3.7-1.5-5.6-2.7l1.5-0.6c0.5-0.3,0.7-0.7,0.7-1.3
					c0.4,0.5,1.1,0.9,2,1.1L83.15,158.45"/>
				<path class="st5" d="M83.85,116.45l-1,2.9c-1.3,0-2.3-0.6-3-1.6c-0.5-0.7-0.8-1.8-1.1-3.5c0.6,0.5,1.4,0.9,2.4,1.2L83.85,116.45
					"/>
				<path class="st6" d="M78.15,138.35c0.8,0.3,1.6,0.2,2.4-0.3c0.4,1.2,1.2,2.1,2.6,2.6c-0.7,0.7-1.3,1.8-1.9,3.4l-1.7,3.6
					l-1.6,0.1l-1.4-0.4c-0.6-1-0.8-2-0.4-3.1c0.3-1.1,1-1.7,2.2-1.9c0.1,0.5,0.3,0.8,0.8,1.1l1.4-0.1c-0.1-0.1-0.3-0.2-0.7-0.3
					l-0.8-0.2l-0.3-1.9c-0.1-0.7,0-1.4,0.3-1.9c-0.3-0.1-0.5,0.1-0.8,0.8c-0.2,0.6-0.3,1.2-0.2,1.8c-0.6,0.9-1.5,1.3-2.7,1.3
					c-1.2-0.1-1.8-0.6-1.8-1.5c0.1-0.6,0.5-1.4,1.3-2.4l2-2.4C76.85,137.55,77.25,138.15,78.15,138.35"/>
				<path class="st0" d="M79.75,35.05c0.6-0.4,1-0.3,1.1,0.5c0.1,0.7-0.1,1.2-0.6,1.5c-0.9,0.1-1.4-0.2-1.5-1c0.3-0.1,0.4,0,0.5,0.3
					s0.2,0.4,0.5,0.3l0.4-0.7C80.15,35.45,80.05,35.25,79.75,35.05"/>
				<path class="st6" d="M79.85,150.55c0.1,1.1,0.3,1.8,0.7,2.1l-0.6,0.1c-0.3-0.2-0.4-0.5-0.3-0.8c-0.2,0.1-0.2,0.3-0.1,0.6
					s0.1,0.6-0.2,0.8c-1.5,0-2.7-0.7-3.6-2c-0.9-1.4-0.8-2.4,0.4-3.3l1.8,0.5c0.8,0.1,1.3-0.1,1.7-0.5L79.85,150.55"/>
				<path class="st0" d="M72.35,69.65c0.3,0.1,1.5,0.7,3.4,2c1.6,1,3.1,1.3,4.7,0.8c-1.5,0.6-3,0.5-4.6-0.4
					C74.25,70.95,73.15,70.15,72.35,69.65"/>
				<path class="st0" d="M78.55,50.25c0.6,0.6,0.6,1.1,0,1.7c-0.6,0.6-1.2,0.6-1.7,0h0.9c0.4,0,0.7-0.3,0.8-0.8
					c0.1-0.3-0.1-0.4-0.5-0.5s-0.6,0-0.7,0.3c-0.3-0.1-0.2-0.3,0.2-0.5L78.55,50.25"/>
				<path class="st7" d="M74.25,149.85c0.6,1.3,1,2.3,1.4,2.8c0.7,0.9,1.5,1.4,2.7,1.6c0,1.7-0.3,3.1-1,4.3
					c-1.4,0.4-2.7-0.6-3.9-2.9c-0.9-1.8-1.5-3.7-1.8-5.8c0.2,0.3,0.7,0.5,1.3,0.5C73.55,150.35,73.95,150.15,74.25,149.85"/>
				<path class="st0" d="M74.55,183.65c1.4,0,2.4,0.3,3,0.8c0.3,0.8,0.3,2,0.2,3.7l-0.5,0.1l0.1-2.6l-0.3-0.7l-0.6-0.5
					c-0.1,0.2,0,0.6,0.3,1.2c0.3,0.7,0.5,1.3,0.4,1.7l-1.1-1.7c-0.4-0.5-0.5-0.9-0.3-1.2l-1.9-0.2l-2.2,0.2
					C72.15,183.85,73.15,183.65,74.55,183.65"/>
				<path class="st0" d="M77.75,188.05v0.3l-0.5,0.1v-0.2L77.75,188.05"/>
				<path class="st0" d="M77.75,188.35l-0.2,1.6c-0.4,0.3-1.2,1-2.4,2.1l-2.3,2.2l1.8-1.9l2.2-1.9l0.4-2L77.75,188.35"/>
				<path class="st0" d="M77.25,188.15v0.2l-0.4,0.1L77.25,188.15"/>
				<path class="st0" d="M76.05,174.75l37.2-5.3c-14.6,3.2-26.8,5.4-36.7,6.5L76.05,174.75"/>
				<path class="st0" d="M76.55,176.05c0.6,1.8,0.4,3.1-0.6,3.8c0.8-1.2,0.8-2.4,0.1-3.8H76.55"/>
				<path class="st0" d="M76.55,176.05l-0.5,0.1l-0.8-1.2l0.8-0.1L76.55,176.05"/>
				<path class="st0" d="M69.95,76.15c0.1,1.6,0.8,2.9,2,3.7c0.9,0.6,2.3,1.1,4.2,1.3c-0.3,0.2-0.4,0.7-0.3,1.4
					c0.2,1,0.2,1.8,0.1,2.2c-0.4,0-1.6,0.5-3.7,1.5l-4.5,0.2c-2,4.1-3,7.5-3.1,10.3c-1.3,0.3-1.9,1.1-2,2.5c-0.1,1.2,0.3,2.3,1,3.5
					c-0.5-0.4-0.9-1.3-1.2-2.7l-1.8,3.7c-0.6,1.5-0.4,2.8,0.5,3.8c-0.1,0.5-0.3,0.9-0.8,1.2l-1.3,0.6l1.7-1.8
					c-1.1-1.3-1.1-3.1-0.1-5.4c1.3-2.8,1.9-4.5,1.8-5.2c0.1-0.3,0.3-0.4,0.6-0.4l0.8-0.1c1.3-8.1,3.9-13.2,7.9-15.3
					c-0.1-0.5-0.3-0.9-0.8-1.3l-1.3-0.9c-0.2-0.3-0.3-0.7-0.3-1.3l-0.4-1.3c1-1.6,1.5-3.8,1.5-6.5l-0.7-7.5l0.3-0.2
					c0.3,0.6,0.6,1.9,0.8,3.8c0.2,1.7,0.4,2.7,0.7,2.9l-0.3-0.4l-0.3,3.9C70.85,74.25,70.45,75.45,69.95,76.15 M75.15,81.35
					l-1.6-0.1l-1.3-0.1c-0.1,0.6,0.1,1.2,0.7,1.8l0.7,1.1c-0.9-0.3-1.6-1-2.2-2.2c-1.9,1.1-3.1,2.4-3.6,4.1c1.6-0.1,2.8,0,3.6,0.4
					c0.4-0.5,1-0.9,1.8-1.3l2.1-0.9l-0.1-1.4L75.15,81.35"/>
				<path class="st0" d="M76.05,174.75l-0.8,0.1c-0.6-0.6-1.4-0.9-2.3-1s-1.9,0.2-2.8,0.9c0.2,0.2,0.2,0.4-0.1,0.7l-1.4,0.1
					c1.7-1.9,3.9-2.5,6.8-1.8L76.05,174.75"/>
				<path class="st7" d="M73.05,141.65c0.3,1.4,1.2,2.1,2.7,1.9c-0.4,0.4-0.6,1.1-0.5,2.1c0,1,0.3,1.7,0.8,1.9
					c-0.7,0.9-1.5,1.5-2.4,1.7c-1.1,0.2-1.8-0.3-2.2-1.4c0-1.1,0.2-2.2,0.7-3.3L73.05,141.65"/>
				<path class="st4" d="M75.35,82.85l0.1,1.4l-2.1,0.9c-0.8,0.4-1.4,0.8-1.8,1.3c-0.8-0.4-2-0.5-3.6-0.4c0.5-1.7,1.7-3,3.6-4.1
					c0.5,1.1,1.2,1.8,2.2,2.2l-0.7-1.1c-0.6-0.6-0.8-1.2-0.7-1.8l1.3,0.1l1.6,0.1L75.35,82.85"/>
				<path class="st10" d="M75.15,174.85l0.8,1.2l-7.4,0.5l1.4-1.1L75.15,174.85"/>
				<path class="st0" d="M69.45,186.85l0.8-0.9c0.3-0.4,0.6-0.6,0.9-0.8l-0.4,0.6c-0.5,0.6-0.6,1-0.4,1.1c-0.4,0.2-0.7,0.7-1,1.3
					l-0.7,1.8c0,0.4,0.2,0.6,0.6,0.9l0.8,0.6l0.4-1.9c0.2-0.8,0.4-1.4,0.6-1.7l2-0.5l1.8-0.7l-1.5,1c-0.6,0.4-1.2,0.6-1.8,0.6
					c-0.8,1-1,2.2-0.8,3.4c0.2,1.3,0.9,2.1,1.9,2.6c-0.6,0-1.3-0.5-2.1-1.5c-0.9-1.1-1.7-1.7-2.4-1.9c-0.1-0.7,0-1.4,0.2-2l0.8-1.6
					l-2.3-0.3c-1.1-0.2-2-0.4-2.5-0.7v-1.5l-2.9,0.1l-4.5,0.1l0.1-0.1l4.7-0.4l3.2-0.2c-0.2,1.2,0.3,1.9,1.3,2.2L69.45,186.85"/>
				<path class="st0" d="M68.65,176.55c-0.6,0.5-1,0.9-1.1,1.3c0.4,0.3,1,1,1.6,2.1c0.6,1,1.2,1.7,1.8,2c0.7-0.1,1.5-0.4,2.3-1
					l2.2-1.2l-2.2,1.5c-0.8,0.6-1.5,0.9-2.1,0.9c-0.8,0-1.6-0.6-2.3-1.7c-0.8-1.2-1.4-1.9-1.8-2.1l0.8-1.8H68.65"/>
				<path class="st10" d="M70.15,174.85c0.9-0.7,1.9-1,2.8-0.9s1.6,0.4,2.3,1l-5.2,0.6C70.35,175.25,70.35,175.05,70.15,174.85"/>
				<path class="st5" d="M57.25,114.05c-1,1.8-1.6,3.1-1.7,3.9c-0.1,0.6-0.1,1.5-0.1,2.6c-0.1,0.9-0.4,1.6-0.9,2
					c0.3,1.1,1.2,2.1,2.7,2.9l0.8-1.3c0.3-0.5,0.7-0.8,1.2-0.9c0.6,0.1,1.1,0.5,1.5,1.2c0.5,0.8,1,1.2,1.3,1.4
					c0.1,0.3,0,0.6-0.3,0.8s-0.4,0.4-0.4,0.7c1.3-0.3,3.2-1.3,5.7-2.9c2.2-1.1,4.1-0.9,5.6,0.8c-1.6-0.1-3.1,0.1-4.5,0.7l-3.3,2
					c0.5,0.3,1.5,0.7,3.1,0.9c1.4,0.3,2.4,0.7,2.9,1.2c-2.3-0.8-3.7-1.3-4.4-1.4c-1.9-0.4-3.2-0.1-4,0.9l0.6,2.2l0.6,2.2
					c0.6,0,1.1-0.2,1.7-0.8s1.1-0.9,1.4-0.9c1.6-0.1,3.2,1,4.7,3.3s1.9,4.3,1.2,5.9c-0.6-0.5-1.3-1.6-2.2-3.3
					c-0.7-1.4-1.6-2.1-2.7-2.3c-0.8-0.1-2.2,0.5-4.3,1.8l-4,2.8c-1,0.8-2,1.8-2.8,3.1c-0.9,1.5-1.3,2.7-1.1,3.6
					c0.1,0.5,0.4,1,0.9,1.3l-0.7-0.6l-0.4,0.5c-0.1,0.2-0.3,0.3-0.6,0.3c-0.1-0.8-0.5-1.8-1-2.9l-1.1-2.9l0,0l1.2,2.4
					c0.4-1.8,1.3-3.5,2.8-5.1l4-3.8l-0.1-2.2l-0.1-2.1c-0.9,0.4-2,1.2-3.2,2.3l-3,2.4c-1.2-0.3-1.7-1.6-1.8-3.6c0-2,0.4-3.4,1.3-4.3
					l0.9,2.1c0.3,1,0.7,1.6,1,2c1.7-1.1,3-2.5,4.1-4.1l-2.2-0.7v-2.4l-1.7-1.3c-0.6-0.5-1-1.1-1.2-1.8c-0.2,1.8-0.8,3.8-1.7,6.1
					l-2.5,5.7l0.9,6.8c0.3,3.1,0.4,5.7,0.3,7.8l-0.5,4.2c-0.2,1.6-0.3,2.9-0.2,3.7l0.2,0.4l0.5,0.1c-0.5,0.2-0.8,0.8-0.8,1.8v2.6
					c0.7,0.7,1.5,2.1,2.4,4.3c1,2.3,1.7,3.8,2.3,4.5l-0.2,0.2c-0.6-0.5-1.2-1.6-1.8-3.3l-1.6-3.8c-0.1,0-0.2,0.1-0.2,0.3l0.2,0.4
					c-0.3,0.1-0.5-0.1-0.7-0.4c-0.2-0.3-0.4-0.4-0.8-0.3c-1.2,0-2.2,0.3-3,0.8c0.8-1.2,1.8-1.7,2.8-1.6l-0.2-2v-2.8
					c-1.8,0.3-4.1,1-7.1,1.9l-7,2l0.4-0.5c0.7-0.4,1.7-0.8,2.9-1.1l3.2-0.9l3.6-1.2l3.8-0.7c1.1-7.1,1.2-14.1,0.3-20.9
					c-0.3-1-0.5-1.7-0.5-2.1c0.1-1.3,0.6-2.8,1.7-4.6c1.2-2,1.9-3.4,2.1-4.1c-0.5-1.6,0-3.5,1.4-5.5c0.3-4.2,1.6-7.7,3.9-10.7
					C58.65,111.05,58.15,112.45,57.25,114.05"/>
				<path class="st0" d="M71.25,56.85l0.3,1.5l-0.5-0.9l0.1-0.8L71.25,56.85"/>
				<path class="st0" d="M71.05,57.55l0.5,0.9c-0.2,0.2-0.4,0.9-0.7,1.9c-0.2,1-0.5,1.6-0.8,1.9l-0.1-0.5l0.7-2L71.05,57.55"/>
				<path class="st0" d="M70.05,62.15l-0.3,0.2l0.2-0.6L70.05,62.15"/>
				<path class="st0" d="M69.95,61.75l-0.2,0.6l-0.1-0.9L69.95,61.75"/>
				<path class="st0" d="M68.65,175.65l1.4-0.1l-1.4,1.1l-0.8,0.1L68.65,175.65"/>
				<path class="st0" d="M68.25,159.65c0.1,1.5-0.6,2.1-2.2,1.9c-0.3-0.9-0.4-1.5-0.2-1.7c0.2-0.2,0.3,0.3,0.4,1.4
					c0.7,0,1.2-0.3,1.4-0.9c0.1-0.3-0.1-0.6-0.3-0.8l-0.6,0.1c-0.3-0.3-0.2-0.4,0.4-0.4C67.75,159.25,68.05,159.45,68.25,159.65"/>
				<path class="st0" d="M68.65,175.65l-0.8,1l-5.1-0.1c2,0,3.6-0.3,4.8-0.8L68.65,175.65"/>
				<path class="st4" d="M44.25,195.35c1.3,0.5,3.3,0.7,6,0.6l6.4,0.2c3.3-1.9,7.3-2.2,12-0.8l5.8,2.2c2.4,0.9,4.3,1.5,5.8,1.8
					c-4,1.4-8.6,2.1-13.8,2.2c-5.7,0.1-10-0.7-12.8-2.5l-8.8,0.3c-2.3-0.5-4.5-1.2-6.5-2.3c1.8,1.3,4,2.2,6.8,2.7
					c2.9,0.5,5.7,0.3,8.3-0.5l2.8,1.3c1.3,0.5,2.2,0.9,2.8,1.3c-1.6,0.1-3.4,0.6-5.4,1.4c-1.9,0.7-3.5,1.6-4.8,2.4l-5.4-4.6
					c-0.9-0.7-2.2-1.3-3.9-1.8l-6.5-7.9c-2.7-3.4-4-6.8-4.1-10.2v-0.3c1.5,2.9,3.8,5.7,6.7,8.4
					C38.55,192.35,41.45,194.25,44.25,195.35"/>
				<path class="st0" d="M44.75,199.35l8.8-0.3c2.8,1.8,7.1,2.6,12.8,2.5c4.9-0.1,9.3-0.7,13-1.9c-7.6,2.7-14,3.6-19.1,2.6
					c0.1,0.2,0.3,0.4,0.6,0.4c-1.3-0.4-3.3-0.2-6,0.7c-2.1,0.7-4.1,1.5-6.1,2.6l-0.1-0.1c1.3-0.9,2.9-1.7,4.8-2.4
					c2-0.8,3.8-1.3,5.4-1.4c-0.5-0.4-1.5-0.8-2.8-1.3l-2.8-1.3c-2.6,0.8-5.4,1-8.3,0.5c-2.8-0.4-5-1.3-6.8-2.7
					C40.25,198.15,42.45,198.85,44.75,199.35"/>
				<path class="st0" d="M62.45,165.75c-0.1-0.4-0.4-0.5-0.7-0.4l0.3-0.2l0.2-0.3c0.6,0,0.8,0.4,0.8,1.1c-0.1,0.8-0.4,1.1-1,1
					c-0.3-0.6-0.4-1.1-0.5-1.4c0.3-0.1,0.5,0,0.5,0.3s0.1,0.5,0.3,0.4C62.55,166.35,62.65,166.15,62.45,165.75"/>
				<path class="st0" d="M62.75,176.55l-1.2,0.1l-0.8-0.4L62.75,176.55"/>
				<path class="st0" d="M56.35,148.35c0.8,0.5,2.1,1.1,4.1,1.8c2.3,0.7,3.7,1.3,4.2,1.6l-4.1-1.2
					C58.75,149.85,57.35,149.15,56.35,148.35"/>
				<path class="st0" d="M57.95,173.75l2.8,2.4c-1.6-0.4-2.4-1-2.5-1.9L57.95,173.75"/>
				<path class="st0" d="M48.75,181.05c0.7-2.1,3.3-2.6,8-1.4c0-0.5-0.4-0.9-1.3-1.3c-0.8-0.4-1.7-0.5-2.6-0.4
					c1.3-0.3,2.5,0,3.8,0.9l3.2,2.2c-0.4,0.9-1.3,2.2-2.8,3.9h-0.4l2.7-3.4c-1-0.8-2.1-1.4-3.4-1.6l-5.3-0.4
					c-1.3,1.5-2.1,3.3-2.6,5.5l2,2.2c0.9,0.9,1.5,1.7,1.8,2.3l0.4-0.2l0.3-0.3l0.1,0.1l-0.3,0.4c-0.2,0.2-0.3,0.3-0.3,0.4
					c-0.5-0.3-1.3-1-2.3-2.2c-0.9-1-1.7-1.6-2.5-1.9v-1.1c0-0.4,0.1-0.7,0.3-0.8l-2.6-2.8L48.75,181.05 M46.45,182.65
					c0.5,0.5,0.9,0.9,1.4,1c0-0.4,0.1-0.9,0.4-1.3l0.5-1.1h-1.9l-1.7,0.3L46.45,182.65"/>
				<path class="st4" d="M59.35,181.55l-2.7,3.4l-0.9,0.3l0.8-0.1l-3.8,4.3l-0.1-0.1l-0.3,0.3l-0.4,0.2c-0.3-0.7-1-1.4-1.8-2.3
					l-2-2.2c0.5-2.2,1.4-4,2.6-5.5l5.3,0.4C57.25,180.15,58.35,180.65,59.35,181.55 M50.25,187.05c1.3,1.3,2.2,1.8,2.7,1.7l-1.2-1
					l-1-1.1c0.1-1.4,0.6-2.6,1.4-3.8c0.7-1,1.6-1.7,2.7-2.2c-0.8,0.2-1.7,0.5-2.7,0.9c-0.1,0.5-0.5,1.4-1.1,2.6
					C50.55,185.15,50.25,186.15,50.25,187.05"/>
				<path class="st0" d="M56.55,185.05h0.4l-4.8,5.1l0.3-0.4l0.3-0.4L56.55,185.05"/>
				<path class="st0" d="M48.35,174.15l4.3-0.1c0.5-0.2,1-0.7,1.5-1.4l1.1-1.9l0.4,0.2c-0.1,0.3-0.2,0.5-0.1,0.7l0.6,0.5l-0.6-0.3
					c-0.4,0-0.8,0.4-1.1,1.1l-0.8,1.6c-3.6,0.5-6.2,0.1-7.9-1c-0.5-0.3-0.8-0.6-0.8-0.8c-0.1-0.2,0.1-0.2,0.6,0l0.1,0.3v-0.2
					L48.35,174.15"/>
				<path class="st0" d="M55.55,170.45c0.2,0.1,0.3,0.2,0.2,0.4l-0.3-0.3L55.55,170.45"/>
				<path class="st0" d="M55.45,170.55l0.3,0.3v0.1l-0.4-0.2L55.45,170.55"/>
				<path class="st2" d="M47.45,164.55c0.8-0.5,1.8-0.8,3-0.8c0.3,0,0.6,0.1,0.8,0.3c0.2,0.3,0.4,0.4,0.7,0.4l-0.2-0.4
					c0-0.1,0-0.2,0.2-0.3l1.5,3.8c0.7,1.7,1.3,2.8,1.8,3.3l-1.1,1.9c-0.5,0.7-1,1.2-1.5,1.4l-4.3,0.1l-2.8-1.3l-0.3-1.3
					c0-1.1,0.2-2.3,0.6-3.6C46.25,166.55,46.85,165.45,47.45,164.55"/>
				<path class="st0" d="M52.15,181.55c1-0.4,1.9-0.7,2.7-0.9c-1.1,0.5-2,1.2-2.7,2.2c-0.8,1.1-1.3,2.4-1.4,3.8l1,1.1l1.2,1
					c-0.5,0.1-1.4-0.4-2.7-1.7c0-0.9,0.3-1.9,0.8-2.9C51.65,182.85,52.05,182.05,52.15,181.55"/>
				<path class="st0" d="M48.85,205.85l1.6,1.4l-1.8-1.2L48.85,205.85"/>
				<path class="st0" d="M48.85,205.85l-0.3,0.2l-0.1-0.1l0.3-0.2L48.85,205.85"/>
				<path class="st0" d="M43.35,201.15l5.4,4.6l-0.3,0.2l-6.4-4.1c-2.6-1.6-4.9-2.9-7-3.8l4.2,1.3l0.3,0.4l-0.2-0.4
					C41.15,199.95,42.45,200.55,43.35,201.15"/>
				<path class="st4" d="M45.15,181.55l1.7-0.3h1.9l-0.5,1.1c-0.3,0.4-0.4,0.9-0.4,1.3c-0.5-0.1-0.9-0.5-1.4-1L45.15,181.55"/>
				<path class="st10" d="M44.45,168.25c0.9-1.8,1.9-3,3-3.7c-0.7,0.9-1.2,2-1.6,3.4c-0.4,1.3-0.6,2.5-0.6,3.6L44.45,168.25"/>
				<path class="st0" d="M44.45,168.25l-0.8,1.5C43.55,166.55,43.85,166.05,44.45,168.25"/>
				<path class="st0" d="M32.45,176.15c1.4,1,4.5,2.4,9.3,4.4l0.5,0.3l0.4,0.1c-3.3-1-6.7-2.4-10.4-4.4l-1.7-3.1
					c-0.7-1.2-1.1-2.4-1.2-3.6c-0.9,5.7-1,9.3-0.2,11h-0.3v0.3c0.1,3.4,1.4,6.8,4.1,10.2l6.5,7.9l-0.1-0.1l-6.5-6.9
					c-2.4-2.9-3.9-5.9-4.4-9.2c-2.7-0.3-5,0.1-7.1,1.1c-1.6,0.8-3.2,2.2-4.7,4.1l-1,1.9c-0.4,0.7-0.8,1.2-1.3,1.5l-2.6,0.4
					c-1.2,0-2.1,0.3-2.7,0.8c0-0.5,0.7-0.9,2.1-1.1l3.2-0.6c4.2-7.1,8.9-9.9,13.9-8.4c-0.6-1.4-0.7-3.6-0.4-6.5l0.9-6.9
					c-0.2-0.9-0.3-1.5-0.3-1.7c0.3-1,1.4-2,3.3-3.1l4.1-2.5l0.1-0.1c-0.5,0.6-1.6,1.6-3.4,2.9l-3.4,2.8c0.2,1.5,0.7,3,1.4,4.5
					L32.45,176.15"/>
				<path class="st0" d="M36.25,161.65l-0.5,0.6l-0.5,0.1C35.75,161.95,36.05,161.75,36.25,161.65"/>
				<path class="st11" d="M109.25,185.55l-8.6,4.6l-6.1,1.4l-6.1,1.7c-1,0.4-2.3,1.4-4,3.2c-1.5,1.5-2.9,2.5-4.3,2.8
					c-1.5-0.3-3.4-0.9-5.8-1.8l-5.8-2.2c-4.7-1.4-8.7-1.2-12,0.8l-6.4-0.2c-2.6,0.1-4.6-0.1-6-0.6c-2.8-1.1-5.7-3-8.7-5.9
					c-2.9-2.7-5.2-5.6-6.7-8.4"/>
				<path class="st11" d="M109.85,185.25l-0.6,0.3"/>
				<path class="st11" d="M127.55,176.15l-0.7,0.1"/>
				<path class="st12" d="M128.65,135.35c0.3-2.1,0.4-4.9,0.4-8.5l0.1-8.5c-0.3-0.3-0.5-0.6-0.6-0.9c-0.1-0.4,0.1-0.7,0.5-0.9
					c-0.1-7.5-1.2-15.7-3.3-24.4c-0.8,0-1.3-0.3-1.5-1.2c-0.2-0.7-0.1-1.4,0.1-2.1l0.5-0.4"/>
				<path class="st13" d="M124.85,73.25c-0.3-0.6-1.4-1.6-3.3-3.1c-1.5-1.2-2.2-2.5-2.2-3.8c0.2-0.3,0.5-0.6,1-0.9l1.2-0.8
					c0.2-1.3,0.5-2.5,1-3.8l1.3-3.3c0.8-2.6,0.5-6.3-0.8-11.2c-1.4-5.4-2-9-1.8-10.7l0.5-1.3"/>
				<path class="st14" d="M115.15,169.05l-0.2,0.1l-0.7,0.3l-0.1-0.1v-0.1c-0.5-3.3,0.9-5.9,4.2-7.9c3.1-1.9,6.3-2.4,9.4-1.4"/>
				<path class="st14" d="M115.55,168.95l-0.3,0.1"/>
				<path class="st14" d="M128.95,159.85c0.5,0.5,0.9,1.3,1.1,2.4l0.6,2.6v0.1l0.4,0.9c-1.1,2.6-3.4,4.3-7.1,5.1s-6.5,0.2-8.4-1.9"
					/>
				<path class="st11" d="M99.35,47.75c0.8-0.2,2.5-0.2,5,0l4.6-0.3c0.5-0.2,1.1-0.8,1.7-1.6l1.5-1.8l1.9-1.5
					c0.8-0.6,1.4-1.3,1.7-1.9c0.5-1,0.8-2.3,0.8-4l0.3-4.2c-3.4-2.6-7.1-5.1-11.3-7.4"/>
				<path class="st14" d="M82.25,178.55c-0.3,0.2-0.3,0.4-0.1,0.8c0.2,0.4,0.5,0.6,0.8,0.5l1.1-0.7c0.2-0.4,0.3-0.8,0.1-1.2
					c-0.3-0.2-0.6-0.3-1-0.3s-0.7,0.1-0.9,0.4V178.55z"/>
			</g>
		</g>
	</g>
	<path class="st15" d="M117.1,23c0.8,1.2,1.4,3.1,1.9,5.8l1.4,7.2c4.4,15.2,4.2,25.3-0.6,30.3c0.7,2.5,2.4,4.5,5,6
		c0.4,1.6,0.3,4.5-0.3,8.8c-0.5,4.2-0.6,7.1-0.1,8.9c0.1,0.3,0.4,0.9,0.9,1.7c0.3,0.8,0.3,1.6-0.2,2.3c1.9,1.3,2.9,4.5,3.1,9.5
		c0.1,5.8,0.7,9.6,1.6,11.2c-0.5,1.4-0.8,3.5-0.8,6.2c0,2.6,0.3,4.6,0.8,6.2c0.5,0,1.2-0.3,2.3-1c1.2-0.8,2.1-1.3,2.7-1.4
		c1.8-2.6,5.3-4.3,10.3-5.3c5.1-0.9,9.4-0.5,13,1.3c0.4,1.1,1.2,2.3,2.5,3.5c1.5,1.4,2.4,2.5,2.8,3.2c0.1,4.2-0.3,7.9-1.1,11.1
		c-1,3.6-2.6,6.4-4.8,8.2c0.7,2.7-0.1,5.8-2.3,9.4c-1.9,3.1-2.3,5.5-1.1,7.3l-7.2,8.9c-2.9,3.7-5.5,6.4-7.8,8.3h-2.7
		c-12.4,6.8-22.5,11.4-30.3,13.7c-3.3,1-6.3,1.6-9,1.8c-3.7,0.3-6.5-0.1-8.3-1.2c-0.9,0.4-2,1.1-3.3,2.1l-3.1,2.3
		c-2.3,0.6-4.3,0.1-6-1.4c-1.6-1.9-2.9-3.2-3.9-3.9s-3.2-1.4-6.4-2.3c-2.8-0.8-4.8-1.8-6-3c-0.3,0.1-0.6,0.6-0.7,1.3
		c-0.1,0.8-0.3,1.2-0.6,1.4c-1.9,0.1-3.6-0.4-5.1-1.6l-3.6-3.1v-4.6c1.6-1.4,3.5-2.3,5.5-2.4c2.4-0.2,3.7,0.9,3.9,3.4l2.8,0.4
		l2.5,0.6c-0.2,0.5-0.1,1,0.2,1.4l0.6,0.9l1.8-0.3l1.2-0.1c0,0.6,0.3,1.3,0.8,2.1s0.8,1.4,0.9,1.9c1.2-0.5,2.2-1.4,3.2-2.6l2.2-3.7
		c-0.5-0.7-1.3-0.9-2.4-0.6L71,184c0.2-1.2-0.2-2.2-1-2.9c-1.2-1-1.8-1.6-2-2.1c0-0.3,0.3-0.4,0.8-0.4H70l1.8-2.3l1.5-2.7
		c3.1-1,4.8-3.2,5-6.6c1.8-3.8,5-9.2,9.6-16.3c4.4-6.9,7.6-12.3,9.4-16.4c2-1.3,3.5-3.8,4.5-7.3c1.4-4.9,2.3-7.8,2.8-8.7
		c2.2-4.1,3.9-7.7,5-10.8c1.5-4.1,2.3-8.3,2.7-12.6c0.4-6.1-0.1-10-1.3-11.7l1.2-5.6c0.5-2.3,0.7-4.3,0.8-6l-8.2-3.7
		c-3.4-1.5-6-2.8-7.8-4.1c0.1-0.8,0.6-1.2,1.5-1.4l2.5,0.1c0.6-1.1,2-1.7,4.3-1.7l6,0.1l-4.9-8.6c-2.2-3.7-3.2-7-3.1-9.8
		c1.6,0.3,3.7-0.5,6.1-2.3c2.3-1.6,3.4-3,3.6-4c0.3-2.5-2-5.3-7-8.4c-0.4-1.3-0.8-2.2-1.3-2.8c-0.7-0.9-1.6-1.4-2.6-1.5
		c-0.7-1.9-0.2-3.9,1.3-6.1c1.3-1.7,1.3-3.2,0-4.3c-3.7,0.2-6.6,1.6-8.7,4c-0.1,2.2-0.2,3.8-0.5,4.7c-0.4,1.5-1.3,2.4-2.5,2.6
		c-0.9-4-1.9-7.1-3-9.4l0.3-0.3l0.1-0.4c1-0.6,2.2-0.8,3.6-0.4c0.2,0,0.7-0.3,1.4-0.9c0.4-0.4,0.6-0.2,0.6,0.6l4.7-4.4
		c1.8-1.7,3.6-2.9,5.3-3.6c0.4-0.2,0.7-0.5,0.9-1.1L106,3c0.2-0.1,0.3,0,0.3,0.3l0.3,0.3c1.2,1.1,2.5,3.1,4,6.1s2.7,5,3.7,5.8
		c-0.2,1.7,0,3.1,0.7,4.4C115.3,21.3,116.1,22.2,117.1,23"/>
</g>
</svg>
