<?xml version="1.0" encoding="utf-8"?>
<!-- Generator: Adobe Illustrator 24.0.1, SVG Export Plug-In . SVG Version: 6.00 Build 0)  -->
<svg version="1.1" id="Camada_1" xmlns="http://www.w3.org/2000/svg" xmlns:xlink="http://www.w3.org/1999/xlink" x="0px" y="0px"
	 viewBox="0 0 194.609 228.522" style="enable-background:new 0 0 194.609 228.522;" xml:space="preserve">
<style type="text/css">
	.st0{fill-rule:evenodd;clip-rule:evenodd;fill:#817578;}
	.st1{fill-rule:evenodd;clip-rule:evenodd;}
	.st2{fill-rule:evenodd;clip-rule:evenodd;fill:#897D80;}
	.st3{fill:none;stroke:#000000;stroke-width:1.1778;stroke-linecap:round;}
	.st4{fill:none;stroke:#000000;stroke-width:1.914;stroke-linecap:round;}
	.st5{opacity:0.31;fill-rule:evenodd;clip-rule:evenodd;fill:#10003D;}
</style>
<g transform="matrix(1.0, 0.0, 0.0, 1.0, 0.05, 0.0)">
	<g transform="matrix(1.0, 0.0, 0.0, 1.0, -0.05, 0.0)">
		<g id="shape0" transform="matrix(1.0, 0.0, 0.0, 1.0, 0.05, 0.0)">
			<path class="st0" d="M145.833,167.125l-11.19-1.178l1.178-1.031l-2.356,1.178l-1.178,0.294h0.589l-10.453,7.95l-8.539,5.742
				c-3.632,2.65-5.742,4.662-6.331,6.036l13.84-10.895l-2.061,2.208l14.723-10.895l12.367,1.325l6.331,8.687
				c2.159,3.828,2.208,7.018,0.147,9.57l-1.472,0.442l-1.472,0.294c-2.552,1.767-11.877,10.257-27.974,25.471v0.147l-3.828-0.147
				c-0.491-3.043-1.669-5.153-3.534-6.331c-0.098,1.08,0.196,2.208,0.883,3.386l1.325,2.945c-4.122-1.08-6.92-5.104-8.392-12.073
				c-0.687-3.534-1.178-9.276-1.472-17.226l-0.736,16.49c-7.558-2.552-10.404-10.012-8.539-22.379
				c1.08-7.263,3.681-15.557,7.803-24.882c-2.846,4.319-5.153,9.226-6.92,14.723c-1.865,6.086-2.846,12.22-2.945,18.404l0.589,9.717
				c0.098,3.435-0.834,5.644-2.797,6.625l-14.723,0.736c3.828-8.245,3.337-15.557-1.472-21.937l-11.337-0.736l0.147-4.711
				c0-1.963-0.294-3.239-0.883-3.828v9.276l-4.564,2.061l-4.564,2.208l-2.797-14.134c-0.196,2.258,0,4.711,0.589,7.362l1.472,6.773
				c-2.356,1.963-4.466,3.141-6.331,3.534c-4.221-1.865-5.497-5.84-3.828-11.926l5.889-13.545c-0.589-1.57-0.785-4.76-0.589-9.57
				c0.196-4.711-0.049-7.901-0.736-9.57l-0.147,16.49c-0.393,5.889-1.767,10.061-4.122,12.515
				c-0.687-3.632-0.982-7.901-0.883-12.809l0.147-13.398c1.669-1.963,5.153-4.957,10.453-8.981
				c4.711-3.73,8.294-7.312,10.748-10.748h-0.736l0.589-0.589l2.797-16.49c1.178-6.38,2.797-11.778,4.859-16.195l3.975-9.864
				c0.883-4.024,0.294-7.509-1.767-10.453l1.325-17.815c0.098-7.95,0.638-13.938,1.62-17.962
				c5.497-5.987,11.631-9.864,18.404-11.631c7.46-1.963,14.429-0.932,20.907,3.092l-1.767,2.503v-0.736l-2.061,1.472
				c9.03,0.491,12.564,4.466,10.601,11.926c3.632,0.393,7.067,1.276,10.306,2.65c3.926,1.669,4.466,3.141,1.62,4.417h2.945
				c1.276-0.098,1.963,0.147,2.061,0.736c-2.356,6.086-4.024,16.441-5.006,31.066l-6.478,3.828l-6.92,3.239
				c0.491,2.454-0.393,4.613-2.65,6.478l-3.681,3.534l-4.27-2.945l-4.122,2.945l-3.681,3.534v4.27c0,1.669,0.491,2.601,1.472,2.797
				c-2.061-5.006,0.294-9.03,7.067-12.073c0.589,1.767,1.865,2.454,3.828,2.061l4.564-2.061c1.57,1.57,2.356,2.748,2.356,3.534
				l1.325-0.294c0.687,0.294,1.129,0.147,1.325-0.442c-0.982-0.196-1.031-0.687-0.147-1.472c0.785-0.785,0.834-1.227,0.147-1.325
				c-2.846,2.061-4.172,1.816-3.975-0.736c0.196-2.356,1.276-4.711,3.239-7.067c1.178-1.276,3.092-2.454,5.742-3.534
				c2.552-1.08,3.926-1.767,4.122-2.061l3.386,3.092c1.669,0.982,2.454,2.307,2.356,3.975c-1.178,0-2.503,0.344-3.975,1.031
				c-1.57,0.785-2.159,1.374-1.767,1.767l6.478-2.797c0.589,3.926,0.491,9.963-0.294,18.109c-0.785,7.754-1.865,14.429-3.239,20.023
				C138.865,139.053,141.22,151.322,145.833,167.125 M115.357,53.315c0.687,2.454,0.147,4.859-1.62,7.214l-4.711,6.92
				c1.178,2.258,2.11,6.478,2.797,12.662l-4.859,8.687c-1.669,3.435-2.405,7.165-2.208,11.19c0.589-0.196,0.883-0.982,0.883-2.356
				l-0.147-3.386l3.975-7.214l3.828-7.656c-0.687-1.08-1.276-3.239-1.767-6.478c-0.393-3.043-0.982-5.104-1.767-6.184l3.239-4.122
				l3.828-3.681l1.914,5.889l2.356,5.448l2.65-1.62c0.785-0.982,1.521-1.129,2.208-0.442l0.589-8.098
				c0-2.846-0.442-5.349-1.325-7.509c0.687-0.785,3.141-1.521,7.362-2.208c1.865-0.294,0.834-0.491-3.092-0.589l-4.27,1.325
				c-0.785-2.65-2.503-3.386-5.153-2.208C117.811,49.88,116.24,51.352,115.357,53.315 M122.424,43.451
				c-4.81,0-9.079,1.08-12.809,3.239c-3.632,2.159-5.693,4.81-6.184,7.95c0.982-3.337,3.484-5.84,7.509-7.509
				C113.295,46.052,117.123,44.825,122.424,43.451 M101.222,56.113c-2.65,1.865-3.583,5.104-2.797,9.717
				c0.393,2.65,1.325,6.478,2.797,11.484c-0.294-5.3-1.227-10.502-2.797-15.607l2.65-4.122
				C102.253,55.916,102.302,55.425,101.222,56.113 M93.419,46.248c2.65-2.552,7.607-5.398,14.87-8.539
				c-3.043,0.393-6.086,1.521-9.128,3.386C96.315,42.764,94.401,44.481,93.419,46.248 M97.394,75.989l0.294-4.27
				c-0.883-1.178-1.521-3.484-1.914-6.92l-1.62-7.214c-0.098,4.024,0.834,9.668,2.797,16.932L97.394,75.989 M91.358,95.718
				c0.196,9.717-3.288,18.109-10.453,25.177l-9.423,8.539c-3.73,3.337-6.527,6.478-8.392,9.423
				c9.815-8.638,16.833-15.606,21.054-20.907c7.362-9.423,9.766-19.925,7.214-31.507V95.718 M84.438,80.553
				c0-2.846-0.294-4.172-0.883-3.975v6.625c-0.098,2.846,0.147,4.172,0.736,3.975L84.438,80.553 M100.928,90.27
				c-0.196,3.043,0.638,5.3,2.503,6.773c-1.276-1.767-1.767-4.27-1.472-7.509c0.393-3.828,0.393-6.478,0-7.95L100.928,90.27
				 M126.399,74.369c0.196,2.159,0.54,3.828,1.031,5.006c0-5.398-0.491-8.932-1.472-10.601L126.399,74.369 M133.761,95.718
				l-3.092,1.178l5.153,0.147c-0.098-1.08-0.785-2.159-2.061-3.239s-2.208-1.374-2.797-0.883l1.767,1.031
				C133.515,94.344,133.859,94.932,133.761,95.718 M76.488,134.145c1.178-1.669,3.288-3.632,6.331-5.889
				c1.767,1.472,2.994,4.024,3.681,7.656l1.325,6.478c1.472-2.65,1.669-5.693,0.589-9.128c-1.178-3.534-3.239-6.184-6.184-7.95
				l-10.748,11.337c-3.534,4.613-5.84,9.57-6.92,14.87l1.472,0.589c0.785,0.098,1.227,0.393,1.325,0.883
				c2.454-0.098,3.092-0.294,1.914-0.589c-2.65-0.687-4.024-1.472-4.122-2.356l3.386-6.625c1.276-2.552,2.748-4.319,4.417-5.3
				c0.393,5.006,1.129,8.049,2.208,9.128c3.632,0.294,6.822-0.638,9.57-2.797l1.031-1.178c-0.393,0-1.374,0.638-2.945,1.914
				l-2.797,0.883l-3.534,0.442l-1.178-0.883c-0.687-0.196-0.982-0.589-0.883-1.178C73.936,140.427,74.623,136.992,76.488,134.145
				 M76.635,149.604l4.122-0.883h-5.006c-2.159-0.098-3.534,0.147-4.122,0.736L76.635,149.604 M54.55,167.714
				c4.81-10.11,6.969-16.195,6.478-18.257l-3.386,9.864C55.777,163.444,54.746,166.241,54.55,167.714 M67.359,161.53l0.736-2.208
				l-2.797,3.534c-0.883,1.472-0.932,3.092-0.147,4.859l0.147,1.767l0.589,1.178l-0.736-6.478L67.359,161.53 M76.488,164.18
				c0.491-3.435,2.601-7.509,6.331-12.22l-2.797,0.294c0.196,0.785-0.393,2.454-1.767,5.006l-2.503,5.595
				c-0.294,1.669-0.196,2.945,0.294,3.828C76.537,167.567,76.684,166.732,76.488,164.18 M135.233,100.576l-0.147,6.036
				c0,2.552,0.245,3.632,0.736,3.239l0.147-5.889C135.969,101.312,135.724,100.184,135.233,100.576 M128.166,111.177l-1.472-7.656
				l0.147,4.564C126.939,109.557,127.381,110.588,128.166,111.177 M112.854,112.944l3.239,0.442c1.865-0.785,0-1.276-5.595-1.472
				L112.854,112.944 M119.626,109.852l-0.736-0.736c-1.276,0.982-1.521,1.472-0.736,1.472
				C119.234,110.49,119.725,110.245,119.626,109.852 M136.558,125.458c0.294-7.067,0.049-11.582-0.736-13.545v12.809
				L136.558,125.458 M80.757,104.11l2.061-9.717c0.294-2.356-0.147-1.472-1.325,2.65l-1.031,3.534
				C80.07,102.147,80.168,103.325,80.757,104.11 M79.285,105.582l-3.534,13.398c0.785-0.491,1.669-2.748,2.65-6.773
				C79.481,108.281,79.776,106.073,79.285,105.582 M103.431,124.722l-0.883,5.153c-0.491,2.159-0.687,3.975-0.589,5.448
				c-0.883,0.589-1.669,1.521-2.356,2.797l-1.914,3.534l2.503-3.239c0.785-1.669,1.62-2.699,2.503-3.092l0.883-6.478
				C104.167,126.195,104.118,124.82,103.431,124.722 M104.756,113.385l-0.147,19.582c0,8.343,0.785,14.527,2.356,18.551
				c-0.883-3.73-1.325-10.306-1.325-19.729C105.541,122.17,105.247,116.036,104.756,113.385 M109.026,157.113
				c-0.589,1.472,0.049,2.748,1.914,3.828c2.061,1.08,2.846,0.982,2.356-0.294c-1.472,0.589-2.552,0.049-3.239-1.62L109.026,157.113
				 M109.026,189.651c0.491,5.693,1.914,9.717,4.27,12.073L109.026,189.651 M134.644,192.596c0.883-1.08,1.08-1.816,0.589-2.208
				l-2.061,2.945c-0.785,1.08-0.589,1.963,0.589,2.65C133.368,194.902,133.662,193.774,134.644,192.596 M99.897,184.056
				c2.65,3.141,2.159,1.031-1.472-6.331l0.736,3.239L99.897,184.056"/>
			<path class="st1" d="M147.6,167.861c3.435,2.061,5.693,5.644,6.773,10.748c1.08,5.3,0.098,8.736-2.945,10.306
				c-0.491-0.098-0.589-0.294-0.294-0.589c0.294-0.393,0.638-0.638,1.031-0.736c-1.57,0-6.331,3.534-14.281,10.601l-15.754,14.134
				h-0.147c16.097-15.214,25.422-23.704,27.974-25.471l1.472-0.294l1.472-0.442c2.061-2.552,2.012-5.742-0.147-9.57l-6.331-8.687
				H147.6"/>
			<path class="st1" d="M138.03,82.909c6.086,5.202,8.294,14.478,6.625,27.827c-2.454,19.336-3.484,30.575-3.092,33.716l1.62,4.122
				l1.914,3.681l1.031,8.392c0.393,3.239,1.472,5.595,3.239,7.067l-1.767,0.147l-1.767-0.736
				c-4.613-15.803-6.969-28.072-7.067-36.808c1.374-5.595,2.454-12.269,3.239-20.023c0.785-8.147,0.883-14.183,0.294-18.109
				l-6.478,2.797c-0.393-0.393,0.196-0.982,1.767-1.767c1.472-0.687,2.797-1.031,3.975-1.031c0.098-1.669-0.687-2.994-2.356-3.975
				l-3.386-3.092c-0.196,0.294-1.57,0.982-4.122,2.061c-2.65,1.08-4.564,2.258-5.742,3.534c-1.963,2.356-3.043,4.711-3.239,7.067
				c-0.196,2.552,1.129,2.797,3.975,0.736c0.687,0.098,0.638,0.54-0.147,1.325c-0.883,0.785-0.834,1.276,0.147,1.472
				c-0.196,0.589-0.638,0.736-1.325,0.442l-1.325,0.294c0-0.785-0.785-1.963-2.356-3.534l-4.564,2.061
				c-1.963,0.393-3.239-0.294-3.828-2.061c-6.773,3.043-9.128,7.067-7.067,12.073c-0.982-0.196-1.472-1.129-1.472-2.797v-4.27
				l3.681-3.534l4.122-2.945l4.27,2.945l3.681-3.534c2.258-1.865,3.141-4.024,2.65-6.478l6.92-3.239l6.478-3.828
				c0.982-14.625,2.65-24.98,5.006-31.066c-0.098-0.589-0.785-0.834-2.061-0.736h-2.945c2.846-1.276,2.307-2.748-1.62-4.417
				c-3.239-1.374-6.674-2.258-10.306-2.65c1.963-7.46-1.57-11.435-10.601-11.926l2.061-1.472v0.736h0.736
				c4.221-0.393,7.116,0.589,8.687,2.945c1.08,1.669,1.472,4.221,1.178,7.656l8.098,2.65c3.435,1.08,5.938,2.552,7.509,4.417
				c-0.196,5.006-0.785,10.797-1.767,17.373L138.03,82.909"/>
			<path class="st1" d="M146.422,167.861l-12.367-1.325l0.589-0.589l11.19,1.178L146.422,167.861"/>
			<path class="st1" d="M136.558,125.458l-0.736-0.736v-12.809C136.607,113.876,136.852,118.391,136.558,125.458"/>
			<path class="st1" d="M135.822,109.852c-0.491,0.393-0.736-0.687-0.736-3.239l0.147-6.036c0.491-0.393,0.736,0.736,0.736,3.386
				L135.822,109.852"/>
			<path class="st1" d="M135.233,190.387c0.491,0.393,0.294,1.129-0.589,2.208c-0.982,1.178-1.276,2.307-0.883,3.386
				c-1.178-0.687-1.374-1.57-0.589-2.65L135.233,190.387"/>
			<path class="st1" d="M135.822,97.043l-5.153-0.147l3.092-1.178c0.098-0.785-0.245-1.374-1.031-1.767l-1.767-1.031
				c0.589-0.491,1.521-0.196,2.797,0.883S135.724,95.963,135.822,97.043"/>
			<path class="st1" d="M134.644,165.947l-0.589,0.589l-1.178-0.147l0.589-0.294L134.644,165.947"/>
			<path class="st1" d="M134.055,166.536l-14.723,10.895l2.061-2.208l1.031-0.883l10.453-7.95L134.055,166.536"/>
			<path class="st1" d="M120.068,48.898c2.65-1.178,4.368-0.442,5.153,2.208l4.27-1.325c3.926,0.098,4.957,0.294,3.092,0.589
				c-4.221,0.687-6.674,1.423-7.362,2.208c0.883,2.159,1.325,4.662,1.325,7.509l-0.589,8.098c-0.687-0.687-1.423-0.54-2.208,0.442
				l-2.65,1.62l-2.356-5.448l-1.914-5.889l-3.828,3.681l-3.239,4.122c0.785,1.08,1.374,3.141,1.767,6.184
				c0.491,3.239,1.08,5.398,1.767,6.478l-3.828,7.656l-3.975,7.214l0.147,3.386c0,1.374-0.294,2.159-0.883,2.356
				c-0.196-4.024,0.54-7.754,2.208-11.19l4.859-8.687c-0.687-6.184-1.62-10.404-2.797-12.662l4.711-6.92
				c1.767-2.356,2.307-4.76,1.62-7.214C116.24,51.352,117.811,49.88,120.068,48.898 M121.54,55.376
				c0.785,0.294,2.012,1.031,3.681,2.208l-0.294-3.828c-0.393-1.472-0.491-2.797-0.294-3.975l-5.889,0.442
				c-1.669,1.08-2.552,2.797-2.65,5.153c1.178,1.08,2.258,2.994,3.239,5.742l2.356,6.331c1.374,0,2.307-0.736,2.797-2.208
				l1.472-3.534l-3.828-3.828c-1.669-1.276-2.994-1.62-3.975-1.031C119.037,55.278,120.166,54.787,121.54,55.376"/>
			<path class="st1" d="M126.693,103.521l1.472,7.656c-0.785-0.589-1.227-1.62-1.325-3.092L126.693,103.521"/>
			<path class="st1" d="M125.957,68.774c0.982,1.669,1.472,5.202,1.472,10.601c-0.491-1.178-0.834-2.846-1.031-5.006L125.957,68.774
				"/>
			<path class="st0" d="M124.632,49.782c-0.196,1.178-0.098,2.503,0.294,3.975l0.294,3.828c-1.669-1.178-2.896-1.914-3.681-2.208
				c-1.374-0.589-2.503-0.098-3.386,1.472c0.982-0.589,2.307-0.245,3.975,1.031l3.828,3.828l-1.472,3.534
				c-0.491,1.472-1.423,2.208-2.797,2.208l-2.356-6.331c-0.982-2.748-2.061-4.662-3.239-5.742c0.098-2.356,0.982-4.073,2.65-5.153
				L124.632,49.782"/>
			<path class="st1" d="M65.887,126.783c-2.454,3.435-6.036,7.018-10.748,10.748c-5.3,4.024-8.785,7.018-10.453,8.981l-0.147,13.398
				c-0.098,4.908,0.196,9.177,0.883,12.809c2.356-2.454,3.73-6.625,4.122-12.515l0.147-16.49c0.687,1.669,0.932,4.859,0.736,9.57
				c-0.196,4.81,0,8,0.589,9.57L45.127,176.4c-1.669,6.086-0.393,10.061,3.828,11.926c1.865-0.393,3.975-1.57,6.331-3.534
				l-1.472-6.773c-0.589-2.65-0.785-5.104-0.589-7.362l2.797,14.134l4.564-2.208l4.564-2.061v-9.276
				c0.589,0.589,0.883,1.865,0.883,3.828l-0.147,4.711l11.337,0.736c4.81,6.38,5.3,13.693,1.472,21.937l14.723-0.736
				c1.963-0.982,2.896-3.19,2.797-6.625l-0.589-9.717c0.098-6.184,1.08-12.318,2.945-18.404c1.767-5.497,4.073-10.404,6.92-14.723
				c-4.122,9.325-6.724,17.619-7.803,24.882c-1.865,12.367,0.982,19.827,8.539,22.379l0.736-16.49
				c0.294,7.95,0.785,13.693,1.472,17.226c1.472,6.969,4.27,10.993,8.392,12.073l-1.325-2.945c-0.687-1.178-0.982-2.307-0.883-3.386
				c1.865,1.178,3.043,3.288,3.534,6.331l3.828,0.147l0.147-0.147l1.767-0.736c-2.846,2.748-6.625,2.699-11.337-0.147
				c-4.711-2.748-7.312-6.233-7.803-10.453c-2.552,2.061-6.331,2.945-11.337,2.65c-7.067-0.393-11.778-0.344-14.134,0.147
				c-3.337,8.343-8.736,12.809-16.195,13.398c-2.552,0-5.644-1.276-9.276-3.828l-9.128-6.036c0-6.871,0.932-12.76,2.797-17.668
				c-0.491-0.687-1.521-1.276-3.092-1.767l-3.239-1.767c2.748-4.221,3.484-10.502,2.208-18.846
				c-1.57-9.815-1.816-16.735-0.736-20.76c0.883-3.141,4.368-6.724,10.453-10.748c6.773-4.417,10.797-7.656,12.073-9.717v0.736
				H65.887 M76.635,198.485c2.159-2.356,3.534-4.564,4.122-6.625c-3.141-12.171-13.742-12.417-31.802-0.736
				c-0.589,4.515-1.767,9.668-3.534,15.459l8.539,5.595c3.435,2.258,6.478,3.926,9.128,5.006c8.932-2.552,14.33-9.128,16.195-19.729
				c-0.687-0.294-1.718,0.442-3.092,2.208c-1.57,1.963-3.092,2.896-4.564,2.797L76.635,198.485"/>
			<path class="st1" d="M122.424,174.339l-1.031,0.883l-13.84,10.895c0.589-1.374,2.699-3.386,6.331-6.036L122.424,174.339"/>
			<path class="st1" d="M119.626,109.852c0.098,0.393-0.393,0.638-1.472,0.736c-0.785,0-0.54-0.491,0.736-1.472L119.626,109.852"/>
			<path class="st1" d="M110.498,111.913c5.595,0.196,7.46,0.687,5.595,1.472l-3.239-0.442L110.498,111.913"/>
			<path class="st1" d="M113.295,160.647c0.491,1.276-0.294,1.374-2.356,0.294c-1.865-1.08-2.503-2.356-1.914-3.828l1.031,1.914
				C110.743,160.696,111.823,161.236,113.295,160.647"/>
			<path class="st1" d="M122.424,43.451c-5.3,1.374-9.128,2.601-11.484,3.681c-4.024,1.669-6.527,4.172-7.509,7.509
				c0.491-3.141,2.552-5.791,6.184-7.95C113.344,44.53,117.614,43.451,122.424,43.451"/>
			<path class="st1" d="M109.026,189.651l4.27,12.073C110.94,199.368,109.516,195.344,109.026,189.651"/>
			<path class="st1" d="M104.756,113.385c0.491,2.65,0.785,8.785,0.883,18.404c0,9.423,0.442,15.999,1.325,19.729
				c-1.57-4.024-2.356-10.208-2.356-18.551L104.756,113.385"/>
			<path class="st1" d="M103.431,124.722c0.687,0.098,0.736,1.472,0.147,4.122l-0.883,6.478c-0.883,0.393-1.718,1.423-2.503,3.092
				l-2.503,3.239l1.914-3.534c0.687-1.276,1.472-2.208,2.356-2.797c-0.098-1.472,0.098-3.288,0.589-5.448L103.431,124.722"/>
			<path class="st1" d="M101.959,81.584c0.393,1.472,0.393,4.122,0,7.95c-0.294,3.239,0.196,5.742,1.472,7.509
				c-1.865-1.472-2.699-3.73-2.503-6.773L101.959,81.584"/>
			<path class="st1" d="M101.222,56.113c1.08-0.687,1.031-0.196-0.147,1.472l-2.65,4.122c1.57,5.104,2.503,10.306,2.797,15.607
				c-1.472-5.006-2.405-8.834-2.797-11.484C97.64,61.217,98.572,57.977,101.222,56.113"/>
			<path class="st1" d="M98.425,177.725c3.632,7.362,4.122,9.472,1.472,6.331l-0.736-3.092L98.425,177.725"/>
			<path class="st1" d="M93.419,46.248c0.982-1.767,2.896-3.484,5.742-5.153c3.043-1.865,6.086-2.994,9.128-3.386
				C101.026,40.85,96.069,43.696,93.419,46.248"/>
			<path class="st1" d="M97.689,71.719l-0.294,4.27l-0.442-1.472c-1.963-7.263-2.896-12.907-2.797-16.932l1.62,7.214
				C96.168,68.235,96.806,70.541,97.689,71.719"/>
			<path class="st1" d="M91.358,86.442c2.552,11.582,0.147,22.085-7.214,31.507c-4.221,5.3-11.239,12.269-21.054,20.907
				c1.865-2.945,4.662-6.086,8.392-9.423l9.423-8.539c7.165-7.067,10.65-15.459,10.453-25.177V86.442"/>
			<path class="st1" d="M65.151,150.046c0.098,0.883,1.472,1.669,4.122,2.356c1.178,0.294,0.54,0.491-1.914,0.589
				c-0.098-0.491-0.54-0.785-1.325-0.883l-1.472-0.589c1.08-5.3,3.386-10.257,6.92-14.87l10.748-11.337
				c2.945,1.767,5.006,4.417,6.184,7.95c1.08,3.435,0.883,6.478-0.589,9.128l-1.325-6.478c-0.687-3.632-1.914-6.184-3.681-7.656
				c-3.043,2.258-5.153,4.221-6.331,5.889c-1.865,2.846-2.552,6.282-2.061,10.306c-0.098,0.589,0.196,0.982,0.883,1.178l1.178,0.883
				l3.534-0.442l2.797-0.883c1.57-1.276,2.552-1.914,2.945-1.914l-1.031,1.178c-2.748,2.159-5.938,3.092-9.57,2.797
				c-1.08-1.08-1.816-4.122-2.208-9.128c-1.669,0.982-3.141,2.748-4.417,5.3L65.151,150.046"/>
			<path class="st1" d="M84.291,87.178c-0.589,0.196-0.834-1.129-0.736-3.975v-6.625c0.589-0.196,0.883,1.129,0.883,3.975
				L84.291,87.178"/>
			<path class="st1" d="M81.493,97.043c1.178-4.122,1.62-5.006,1.325-2.65l-2.061,9.717c-0.589-0.785-0.687-1.963-0.294-3.534
				L81.493,97.043"/>
			<path class="st1" d="M80.021,152.254l2.797-0.294c-3.73,4.711-5.84,8.785-6.331,12.22c0.196,2.552,0.049,3.386-0.442,2.503
				c-0.491-0.883-0.589-2.159-0.294-3.828l2.503-5.595C79.629,154.708,80.217,153.04,80.021,152.254"/>
			<path class="st1" d="M71.629,149.457c0.589-0.589,1.963-0.834,4.122-0.736h5.006l-4.122,0.883L71.629,149.457"/>
			<path class="st1" d="M79.285,105.582c0.491,0.491,0.196,2.699-0.883,6.625c-0.982,4.024-1.865,6.282-2.65,6.773L79.285,105.582"
				/>
			<path class="st2" d="M76.193,199.663c1.374-1.767,2.405-2.503,3.092-2.208c-1.865,10.601-7.263,17.177-16.195,19.729
				c-2.65-1.08-5.693-2.748-9.128-5.006l-8.539-5.595c1.767-5.791,2.945-10.944,3.534-15.459
				c18.06-11.68,28.661-11.435,31.802,0.736c-0.589,2.061-1.963,4.27-4.122,6.625l-5.006,3.975
				C73.101,202.558,74.623,201.626,76.193,199.663 M69.421,201.724h-6.036l-5.3,0.736h6.184L69.421,201.724"/>
			<path class="st1" d="M58.084,202.46l5.3-0.736h6.036l-5.153,0.736H58.084"/>
			<path class="st1" d="M68.095,159.322l-0.736,2.208l-2.208,2.65l0.736,6.478l-0.589-1.178l-0.147-1.767
				c-0.785-1.767-0.736-3.386,0.147-4.859L68.095,159.322"/>
			<path class="st1" d="M61.028,149.457c0.491,2.061-1.669,8.147-6.478,18.257c0.196-1.472,1.227-4.27,3.092-8.392L61.028,149.457"
				/>
			<path class="st2" d="M20.245,176.548c2.159-4.221,5.251-6.576,9.276-7.067c5.006,4.613,8.049,8.441,9.128,11.484
				c-2.945,3.239-8.098,6.282-15.459,9.128l-2.061-0.736c-0.883-0.294-1.374-0.785-1.472-1.472
				C17.791,184.449,17.988,180.67,20.245,176.548 M21.423,183.32c1.865,0.589,3.926,0.196,6.184-1.178l2.208-1.62l-4.417,1.178
				C23.337,181.995,22.012,182.535,21.423,183.32"/>
			<path class="st1" d="M29.815,180.523l-2.208,1.62c-2.258,1.374-4.319,1.767-6.184,1.178c0.589-0.785,1.914-1.325,3.975-1.62
				L29.815,180.523"/>
			<path class="st3" d="M19.656,187.884c-1.865-3.435-1.669-7.214,0.589-11.337c2.159-4.221,5.251-6.576,9.276-7.067
				c5.006,4.613,8.049,8.441,9.128,11.484c-2.945,3.239-8.098,6.282-15.459,9.128l-2.061-0.736
				C20.245,189.062,19.755,188.572,19.656,187.884z"/>
			<path class="st4" d="M65.151,126.783l0.589-0.589l2.797-16.49c1.178-6.38,2.797-11.778,4.859-16.195l3.975-9.864
				c0.883-4.024,0.294-7.509-1.767-10.453l1.325-17.815c0.098-7.95,0.638-13.938,1.62-17.962
				c5.497-5.987,11.631-9.864,18.404-11.631c7.46-1.963,14.429-0.932,20.907,3.092l-1.767,2.503"/>
		</g>
		<g transform="matrix(1.0, 0.0, 0.0, 1.0, -0.05, 0.0)">
			<g id="shape0_1_" transform="matrix(1.0, 0.0, 0.0, 1.0, 0.05, 0.0)">
				<path class="st0" d="M145.833,167.125l-11.19-1.178l1.178-1.031l-2.356,1.178l-1.178,0.294h0.589l-10.453,7.95l-8.539,5.742
					c-3.632,2.65-5.742,4.662-6.331,6.036l13.84-10.895l-2.061,2.208l14.723-10.895l12.367,1.325l6.331,8.687
					c2.159,3.828,2.208,7.018,0.147,9.57l-1.472,0.442l-1.472,0.294c-2.552,1.767-11.877,10.257-27.974,25.471v0.147l-3.828-0.147
					c-0.491-3.043-1.669-5.153-3.534-6.331c-0.098,1.08,0.196,2.208,0.883,3.386l1.325,2.945c-4.122-1.08-6.92-5.104-8.392-12.073
					c-0.687-3.534-1.178-9.276-1.472-17.226l-0.736,16.49c-7.558-2.552-10.404-10.012-8.539-22.379
					c1.08-7.263,3.681-15.557,7.803-24.882c-2.846,4.319-5.153,9.227-6.92,14.723c-1.865,6.086-2.846,12.22-2.945,18.404
					l0.589,9.717c0.098,3.435-0.834,5.644-2.797,6.625l-14.723,0.736c3.828-8.245,3.337-15.557-1.472-21.937l-11.337-0.736
					l0.147-4.711c0-1.963-0.294-3.239-0.883-3.828v9.276l-4.564,2.061l-4.564,2.208l-2.797-14.134c-0.196,2.258,0,4.711,0.589,7.362
					l1.472,6.773c-2.356,1.963-4.466,3.141-6.331,3.534c-4.221-1.865-5.497-5.84-3.828-11.926l5.889-13.545
					c-0.589-1.57-0.785-4.76-0.589-9.57c0.196-4.711-0.049-7.901-0.736-9.57l-0.147,16.49c-0.393,5.889-1.767,10.061-4.122,12.515
					c-0.687-3.632-0.982-7.901-0.883-12.809l0.147-13.398c1.669-1.963,5.153-4.957,10.453-8.981
					c4.711-3.73,8.294-7.312,10.748-10.748H65.15l0.589-0.589l2.797-16.49c1.178-6.38,2.797-11.778,4.859-16.195l3.975-9.864
					c0.883-4.024,0.294-7.509-1.767-10.453l1.325-17.815c0.098-7.95,0.638-13.938,1.62-17.962
					c5.497-5.987,11.631-9.864,18.404-11.631c7.46-1.963,14.429-0.932,20.907,3.092l-1.767,2.503v-0.736l-2.061,1.472
					c9.03,0.491,12.564,4.466,10.601,11.926c3.632,0.393,7.067,1.276,10.306,2.65c3.926,1.669,4.466,3.141,1.62,4.417h2.945
					c1.276-0.098,1.963,0.147,2.061,0.736c-2.356,6.086-4.024,16.441-5.006,31.066l-6.478,3.828l-6.92,3.239
					c0.491,2.454-0.393,4.613-2.65,6.478l-3.681,3.534l-4.27-2.945l-4.122,2.945l-3.681,3.534v4.27c0,1.669,0.491,2.601,1.472,2.797
					c-2.061-5.006,0.294-9.03,7.067-12.073c0.589,1.767,1.865,2.454,3.828,2.061l4.564-2.061c1.57,1.57,2.356,2.748,2.356,3.534
					l1.325-0.294c0.687,0.294,1.129,0.147,1.325-0.442c-0.982-0.196-1.031-0.687-0.147-1.472c0.785-0.785,0.834-1.227,0.147-1.325
					c-2.846,2.061-4.172,1.816-3.975-0.736c0.196-2.356,1.276-4.711,3.239-7.067c1.178-1.276,3.092-2.454,5.742-3.534
					c2.552-1.08,3.926-1.767,4.122-2.061l3.386,3.092c1.669,0.982,2.454,2.307,2.356,3.975c-1.178,0-2.503,0.344-3.975,1.031
					c-1.57,0.785-2.159,1.374-1.767,1.767l6.478-2.797c0.589,3.926,0.491,9.963-0.294,18.109
					c-0.785,7.754-1.865,14.429-3.239,20.023C138.864,139.053,141.22,151.322,145.833,167.125 M115.356,53.315
					c0.687,2.454,0.147,4.859-1.62,7.214l-4.711,6.92c1.178,2.258,2.11,6.478,2.797,12.662l-4.859,8.687
					c-1.669,3.435-2.405,7.165-2.208,11.19c0.589-0.196,0.883-0.982,0.883-2.356l-0.147-3.386l3.975-7.214l3.828-7.656
					c-0.687-1.08-1.276-3.239-1.767-6.478c-0.393-3.043-0.982-5.104-1.767-6.184l3.239-4.122l3.828-3.681l1.914,5.889l2.356,5.448
					l2.65-1.62c0.785-0.982,1.521-1.129,2.208-0.442l0.589-8.098c0-2.846-0.442-5.349-1.325-7.509
					c0.687-0.785,3.141-1.521,7.362-2.208c1.865-0.294,0.834-0.491-3.092-0.589l-4.27,1.325c-0.785-2.65-2.503-3.386-5.153-2.208
					C117.81,49.88,116.24,51.352,115.356,53.315 M122.423,43.45c-4.81,0-9.079,1.08-12.809,3.239
					c-3.632,2.159-5.693,4.81-6.184,7.95c0.982-3.337,3.484-5.84,7.509-7.509C113.295,46.052,117.123,44.825,122.423,43.45
					 M101.222,56.112c-2.65,1.865-3.583,5.104-2.797,9.717c0.393,2.65,1.325,6.478,2.797,11.484
					c-0.294-5.3-1.227-10.502-2.797-15.607l2.65-4.122C102.253,55.916,102.302,55.425,101.222,56.112 M93.419,46.248
					c2.65-2.552,7.607-5.398,14.87-8.539c-3.043,0.393-6.086,1.521-9.128,3.386C96.314,42.763,94.4,44.481,93.419,46.248
					 M97.394,75.989l0.294-4.27c-0.883-1.178-1.521-3.484-1.914-6.92l-1.62-7.214c-0.098,4.024,0.834,9.668,2.797,16.932
					L97.394,75.989 M91.358,95.718c0.196,9.717-3.288,18.109-10.453,25.177l-9.423,8.539c-3.73,3.337-6.527,6.478-8.392,9.423
					c9.815-8.638,16.833-15.607,21.054-20.907c7.362-9.423,9.766-19.925,7.214-31.507V95.718 M84.438,80.553
					c0-2.846-0.294-4.172-0.883-3.975v6.625c-0.098,2.846,0.147,4.172,0.736,3.975L84.438,80.553 M100.928,90.27
					c-0.196,3.043,0.638,5.3,2.503,6.773c-1.276-1.767-1.767-4.27-1.472-7.509c0.393-3.828,0.393-6.478,0-7.95L100.928,90.27
					 M126.399,74.369c0.196,2.159,0.54,3.828,1.031,5.006c0-5.398-0.491-8.932-1.472-10.601L126.399,74.369 M133.76,95.718
					l-3.092,1.178l5.153,0.147c-0.098-1.08-0.785-2.159-2.061-3.239c-1.276-1.08-2.208-1.374-2.797-0.883l1.767,1.031
					C133.515,94.343,133.858,94.932,133.76,95.718 M76.487,134.145c1.178-1.669,3.288-3.632,6.331-5.889
					c1.767,1.472,2.994,4.024,3.681,7.656l1.325,6.478c1.472-2.65,1.669-5.693,0.589-9.128c-1.178-3.534-3.239-6.184-6.184-7.95
					l-10.748,11.337c-3.534,4.613-5.84,9.57-6.92,14.87l1.472,0.589c0.785,0.098,1.227,0.393,1.325,0.883
					c2.454-0.098,3.092-0.294,1.914-0.589c-2.65-0.687-4.024-1.472-4.122-2.356l3.386-6.625c1.276-2.552,2.748-4.319,4.417-5.3
					c0.393,5.006,1.129,8.049,2.208,9.128c3.632,0.294,6.822-0.638,9.57-2.797l1.031-1.178c-0.393,0-1.374,0.638-2.945,1.914
					l-2.797,0.883l-3.534,0.442l-1.178-0.883c-0.687-0.196-0.982-0.589-0.883-1.178C73.935,140.427,74.622,136.991,76.487,134.145
					 M76.634,149.604l4.122-0.883h-5.006c-2.159-0.098-3.534,0.147-4.122,0.736L76.634,149.604 M54.55,167.714
					c4.81-10.11,6.969-16.195,6.478-18.257l-3.386,9.864C55.777,163.444,54.746,166.241,54.55,167.714 M67.359,161.53l0.736-2.208
					l-2.797,3.534c-0.883,1.472-0.932,3.092-0.147,4.859l0.147,1.767l0.589,1.178l-0.736-6.478L67.359,161.53 M76.487,164.18
					c0.491-3.435,2.601-7.509,6.331-12.22l-2.797,0.294c0.196,0.785-0.393,2.454-1.767,5.006l-2.503,5.595
					c-0.294,1.669-0.196,2.945,0.294,3.828C76.536,167.566,76.684,166.732,76.487,164.18 M135.232,100.576l-0.147,6.036
					c0,2.552,0.245,3.632,0.736,3.239l0.147-5.889C135.969,101.312,135.723,100.184,135.232,100.576 M128.165,111.177l-1.472-7.656
					l0.147,4.564C126.938,109.557,127.38,110.588,128.165,111.177 M112.853,112.944l3.239,0.442c1.865-0.785,0-1.276-5.595-1.472
					L112.853,112.944 M119.626,109.852l-0.736-0.736c-1.276,0.982-1.521,1.472-0.736,1.472
					C119.233,110.49,119.724,110.244,119.626,109.852 M136.558,125.458c0.294-7.067,0.049-11.582-0.736-13.545v12.809
					L136.558,125.458 M80.757,104.11l2.061-9.717c0.294-2.356-0.147-1.472-1.325,2.65l-1.031,3.534
					C80.07,102.147,80.168,103.324,80.757,104.11 M79.285,105.582l-3.534,13.398c0.785-0.491,1.669-2.748,2.65-6.773
					C79.481,108.281,79.775,106.073,79.285,105.582 M103.431,124.722l-0.883,5.153c-0.491,2.159-0.687,3.975-0.589,5.448
					c-0.883,0.589-1.669,1.521-2.356,2.797l-1.914,3.534l2.503-3.239c0.785-1.669,1.62-2.699,2.503-3.092l0.883-6.478
					C104.167,126.194,104.118,124.82,103.431,124.722 M104.756,113.385l-0.147,19.582c0,8.343,0.785,14.527,2.356,18.551
					c-0.883-3.73-1.325-10.306-1.325-19.729C105.541,122.17,105.246,116.035,104.756,113.385 M109.025,157.113
					c-0.589,1.472,0.049,2.748,1.914,3.828c2.061,1.08,2.846,0.982,2.356-0.294c-1.472,0.589-2.552,0.049-3.239-1.62
					L109.025,157.113 M109.025,189.651c0.491,5.693,1.914,9.717,4.27,12.073L109.025,189.651 M134.644,192.596
					c0.883-1.08,1.08-1.816,0.589-2.208l-2.061,2.945c-0.785,1.08-0.589,1.963,0.589,2.65
					C133.368,194.902,133.662,193.773,134.644,192.596 M99.897,184.056c2.65,3.141,2.159,1.031-1.472-6.331l0.736,3.239
					L99.897,184.056"/>
				<path class="st1" d="M147.6,167.861c3.435,2.061,5.693,5.644,6.773,10.748c1.08,5.3,0.098,8.736-2.945,10.306
					c-0.491-0.098-0.589-0.294-0.294-0.589c0.294-0.393,0.638-0.638,1.031-0.736c-1.57,0-6.331,3.534-14.281,10.601l-15.754,14.134
					h-0.147c16.097-15.214,25.422-23.704,27.974-25.471l1.472-0.294l1.472-0.442c2.061-2.552,2.012-5.742-0.147-9.57l-6.331-8.687
					H147.6"/>
				<path class="st1" d="M138.03,82.908c6.086,5.202,8.294,14.478,6.625,27.827c-2.454,19.336-3.484,30.575-3.092,33.716l1.62,4.122
					l1.914,3.681l1.031,8.392c0.393,3.239,1.472,5.595,3.239,7.067l-1.767,0.147l-1.767-0.736
					c-4.613-15.803-6.969-28.072-7.067-36.808c1.374-5.595,2.454-12.269,3.239-20.023c0.785-8.147,0.883-14.183,0.294-18.109
					l-6.478,2.797c-0.393-0.393,0.196-0.982,1.767-1.767c1.472-0.687,2.797-1.031,3.975-1.031c0.098-1.669-0.687-2.994-2.356-3.975
					l-3.386-3.092c-0.196,0.294-1.57,0.982-4.122,2.061c-2.65,1.08-4.564,2.258-5.742,3.534c-1.963,2.356-3.043,4.711-3.239,7.067
					c-0.196,2.552,1.129,2.797,3.975,0.736c0.687,0.098,0.638,0.54-0.147,1.325c-0.883,0.785-0.834,1.276,0.147,1.472
					c-0.196,0.589-0.638,0.736-1.325,0.442l-1.325,0.294c0-0.785-0.785-1.963-2.356-3.534l-4.564,2.061
					c-1.963,0.393-3.239-0.294-3.828-2.061c-6.773,3.043-9.128,7.067-7.067,12.073c-0.982-0.196-1.472-1.129-1.472-2.797v-4.27
					l3.681-3.534l4.122-2.945l4.27,2.945l3.681-3.534c2.258-1.865,3.141-4.024,2.65-6.478l6.92-3.239l6.478-3.828
					c0.982-14.625,2.65-24.98,5.006-31.066c-0.098-0.589-0.785-0.834-2.061-0.736h-2.945c2.846-1.276,2.307-2.748-1.62-4.417
					c-3.239-1.374-6.674-2.258-10.306-2.65c1.963-7.46-1.57-11.435-10.601-11.926l2.061-1.472v0.736h0.736
					c4.221-0.393,7.116,0.589,8.687,2.945c1.08,1.669,1.472,4.221,1.178,7.656l8.098,2.65c3.435,1.08,5.938,2.552,7.509,4.417
					c-0.196,5.006-0.785,10.797-1.767,17.373L138.03,82.908"/>
				<path class="st1" d="M146.422,167.861l-12.367-1.325l0.589-0.589l11.19,1.178L146.422,167.861"/>
				<path class="st1" d="M136.558,125.458l-0.736-0.736v-12.809C136.607,113.876,136.852,118.391,136.558,125.458"/>
				<path class="st1" d="M135.821,109.852c-0.491,0.393-0.736-0.687-0.736-3.239l0.147-6.036c0.491-0.393,0.736,0.736,0.736,3.386
					L135.821,109.852"/>
				<path class="st1" d="M135.232,190.387c0.491,0.393,0.294,1.129-0.589,2.208c-0.982,1.178-1.276,2.307-0.883,3.386
					c-1.178-0.687-1.374-1.57-0.589-2.65L135.232,190.387"/>
				<path class="st1" d="M135.821,97.043l-5.153-0.147l3.092-1.178c0.098-0.785-0.245-1.374-1.031-1.767l-1.767-1.031
					c0.589-0.491,1.521-0.196,2.797,0.883C135.036,94.883,135.723,95.963,135.821,97.043"/>
				<path class="st1" d="M134.644,165.947l-0.589,0.589l-1.178-0.147l0.589-0.294L134.644,165.947"/>
				<path class="st1" d="M134.055,166.536l-14.723,10.895l2.061-2.208l1.031-0.883l10.453-7.95L134.055,166.536"/>
				<path class="st1" d="M120.068,48.898c2.65-1.178,4.368-0.442,5.153,2.208l4.27-1.325c3.926,0.098,4.957,0.294,3.092,0.589
					c-4.221,0.687-6.674,1.423-7.362,2.208c0.883,2.159,1.325,4.662,1.325,7.509l-0.589,8.098c-0.687-0.687-1.423-0.54-2.208,0.442
					l-2.65,1.62l-2.356-5.448l-1.914-5.889l-3.828,3.681l-3.239,4.122c0.785,1.08,1.374,3.141,1.767,6.184
					c0.491,3.239,1.08,5.398,1.767,6.478l-3.828,7.656l-3.975,7.214l0.147,3.386c0,1.374-0.294,2.159-0.883,2.356
					c-0.196-4.024,0.54-7.754,2.208-11.19l4.859-8.687c-0.687-6.184-1.62-10.404-2.797-12.662l4.711-6.92
					c1.767-2.356,2.307-4.76,1.62-7.214C116.24,51.352,117.81,49.88,120.068,48.898 M121.54,55.376
					c0.785,0.294,2.012,1.031,3.681,2.208l-0.294-3.828c-0.393-1.472-0.491-2.797-0.294-3.975l-5.889,0.442
					c-1.669,1.08-2.552,2.797-2.65,5.153c1.178,1.08,2.258,2.994,3.239,5.742l2.356,6.331c1.374,0,2.307-0.736,2.797-2.208
					l1.472-3.534l-3.828-3.828c-1.669-1.276-2.994-1.62-3.975-1.031C119.037,55.278,120.166,54.787,121.54,55.376"/>
				<path class="st1" d="M126.693,103.521l1.472,7.656c-0.785-0.589-1.227-1.62-1.325-3.092L126.693,103.521"/>
				<path class="st1" d="M125.957,68.774c0.982,1.669,1.472,5.202,1.472,10.601c-0.491-1.178-0.834-2.846-1.031-5.006
					L125.957,68.774"/>
				<path class="st0" d="M124.632,49.781c-0.196,1.178-0.098,2.503,0.294,3.975l0.294,3.828c-1.669-1.178-2.896-1.914-3.681-2.208
					c-1.374-0.589-2.503-0.098-3.386,1.472c0.982-0.589,2.307-0.245,3.975,1.031l3.828,3.828l-1.472,3.534
					c-0.491,1.472-1.423,2.208-2.797,2.208l-2.356-6.331c-0.982-2.748-2.061-4.662-3.239-5.742c0.098-2.356,0.982-4.073,2.65-5.153
					L124.632,49.781"/>
				<path class="st1" d="M65.887,126.783c-2.454,3.435-6.036,7.018-10.748,10.748c-5.3,4.024-8.785,7.018-10.453,8.981
					l-0.147,13.398c-0.098,4.908,0.196,9.177,0.883,12.809c2.356-2.454,3.73-6.625,4.122-12.515l0.147-16.49
					c0.687,1.669,0.932,4.859,0.736,9.57c-0.196,4.81,0,8,0.589,9.57L45.127,176.4c-1.669,6.086-0.393,10.061,3.828,11.926
					c1.865-0.393,3.975-1.57,6.331-3.534l-1.472-6.773c-0.589-2.65-0.785-5.104-0.589-7.362l2.797,14.134l4.564-2.208l4.564-2.061
					v-9.276c0.589,0.589,0.883,1.865,0.883,3.828l-0.147,4.711l11.337,0.736c4.81,6.38,5.3,13.692,1.472,21.937l14.723-0.736
					c1.963-0.982,2.896-3.19,2.797-6.625l-0.589-9.717c0.098-6.184,1.08-12.318,2.945-18.404c1.767-5.497,4.073-10.404,6.92-14.723
					c-4.122,9.325-6.724,17.619-7.803,24.882c-1.865,12.367,0.982,19.827,8.539,22.379l0.736-16.49
					c0.294,7.95,0.785,13.693,1.472,17.226c1.472,6.969,4.27,10.993,8.392,12.073l-1.325-2.945
					c-0.687-1.178-0.982-2.307-0.883-3.386c1.865,1.178,3.043,3.288,3.534,6.331l3.828,0.147l0.147-0.147l1.767-0.736
					c-2.846,2.748-6.625,2.699-11.337-0.147c-4.711-2.748-7.312-6.233-7.803-10.453c-2.552,2.061-6.331,2.945-11.337,2.65
					c-7.067-0.393-11.778-0.344-14.134,0.147c-3.337,8.343-8.736,12.809-16.195,13.398c-2.552,0-5.644-1.276-9.276-3.828
					l-9.128-6.036c0-6.871,0.932-12.76,2.797-17.668c-0.491-0.687-1.521-1.276-3.092-1.767l-3.239-1.767
					c2.748-4.221,3.484-10.502,2.208-18.846c-1.57-9.815-1.816-16.735-0.736-20.76c0.883-3.141,4.368-6.724,10.453-10.748
					c6.773-4.417,10.797-7.656,12.073-9.717v0.736H65.887 M76.634,198.485c2.159-2.356,3.534-4.564,4.122-6.625
					c-3.141-12.171-13.742-12.417-31.802-0.736c-0.589,4.515-1.767,9.668-3.534,15.459l8.539,5.595
					c3.435,2.258,6.478,3.926,9.128,5.006c8.932-2.552,14.33-9.128,16.195-19.729c-0.687-0.294-1.718,0.442-3.092,2.208
					c-1.57,1.963-3.092,2.896-4.564,2.797L76.634,198.485"/>
				<path class="st1" d="M122.423,174.339l-1.031,0.883l-13.84,10.895c0.589-1.374,2.699-3.386,6.331-6.036L122.423,174.339"/>
				<path class="st1" d="M119.626,109.852c0.098,0.393-0.393,0.638-1.472,0.736c-0.785,0-0.54-0.491,0.736-1.472L119.626,109.852"/>
				<path class="st1" d="M110.498,111.913c5.595,0.196,7.46,0.687,5.595,1.472l-3.239-0.442L110.498,111.913"/>
				<path class="st1" d="M113.295,160.646c0.491,1.276-0.294,1.374-2.356,0.294c-1.865-1.08-2.503-2.356-1.914-3.828l1.031,1.914
					C110.743,160.696,111.823,161.235,113.295,160.646"/>
				<path class="st1" d="M122.423,43.45c-5.3,1.374-9.128,2.601-11.484,3.681c-4.024,1.669-6.527,4.172-7.509,7.509
					c0.491-3.141,2.552-5.791,6.184-7.95C113.344,44.53,117.614,43.45,122.423,43.45"/>
				<path class="st1" d="M109.025,189.651l4.27,12.073C110.939,199.368,109.516,195.344,109.025,189.651"/>
				<path class="st1" d="M104.756,113.385c0.491,2.65,0.785,8.785,0.883,18.404c0,9.423,0.442,15.999,1.325,19.729
					c-1.57-4.024-2.356-10.208-2.356-18.551L104.756,113.385"/>
				<path class="st1" d="M103.431,124.722c0.687,0.098,0.736,1.472,0.147,4.122l-0.883,6.478c-0.883,0.393-1.718,1.423-2.503,3.092
					l-2.503,3.239l1.914-3.534c0.687-1.276,1.472-2.208,2.356-2.797c-0.098-1.472,0.098-3.288,0.589-5.448L103.431,124.722"/>
				<path class="st1" d="M101.958,81.583c0.393,1.472,0.393,4.122,0,7.95c-0.294,3.239,0.196,5.742,1.472,7.509
					c-1.865-1.472-2.699-3.73-2.503-6.773L101.958,81.583"/>
				<path class="st1" d="M101.222,56.112c1.08-0.687,1.031-0.196-0.147,1.472l-2.65,4.122c1.57,5.104,2.503,10.306,2.797,15.607
					c-1.472-5.006-2.405-8.834-2.797-11.484C97.639,61.216,98.572,57.977,101.222,56.112"/>
				<path class="st1" d="M98.425,177.725c3.632,7.362,4.122,9.472,1.472,6.331l-0.736-3.092L98.425,177.725"/>
				<path class="st1" d="M93.419,46.248c0.982-1.767,2.896-3.484,5.742-5.153c3.043-1.865,6.086-2.994,9.128-3.386
					C101.026,40.849,96.069,43.696,93.419,46.248"/>
				<path class="st1" d="M97.688,71.719l-0.294,4.27l-0.442-1.472c-1.963-7.263-2.896-12.907-2.797-16.932l1.62,7.214
					C96.167,68.234,96.805,70.541,97.688,71.719"/>
				<path class="st1" d="M91.358,86.442c2.552,11.582,0.147,22.085-7.214,31.507c-4.221,5.3-11.239,12.269-21.054,20.907
					c1.865-2.945,4.662-6.086,8.392-9.423l9.423-8.539c7.165-7.067,10.65-15.459,10.453-25.177V86.442"/>
				<path class="st1" d="M65.15,150.046c0.098,0.883,1.472,1.669,4.122,2.356c1.178,0.294,0.54,0.491-1.914,0.589
					c-0.098-0.491-0.54-0.785-1.325-0.883l-1.472-0.589c1.08-5.3,3.386-10.257,6.92-14.87l10.748-11.337
					c2.945,1.767,5.006,4.417,6.184,7.95c1.08,3.435,0.883,6.478-0.589,9.128l-1.325-6.478c-0.687-3.632-1.914-6.184-3.681-7.656
					c-3.043,2.258-5.153,4.221-6.331,5.889c-1.865,2.846-2.552,6.282-2.061,10.306c-0.098,0.589,0.196,0.982,0.883,1.178
					l1.178,0.883l3.534-0.442l2.797-0.883c1.57-1.276,2.552-1.914,2.945-1.914l-1.031,1.178c-2.748,2.159-5.938,3.092-9.57,2.797
					c-1.08-1.08-1.816-4.122-2.208-9.128c-1.669,0.982-3.141,2.748-4.417,5.3L65.15,150.046"/>
				<path class="st1" d="M84.29,87.178c-0.589,0.196-0.834-1.129-0.736-3.975v-6.625c0.589-0.196,0.883,1.129,0.883,3.975
					L84.29,87.178"/>
				<path class="st1" d="M81.493,97.043c1.178-4.122,1.62-5.006,1.325-2.65l-2.061,9.717c-0.589-0.785-0.687-1.963-0.294-3.534
					L81.493,97.043"/>
				<path class="st1" d="M80.021,152.254l2.797-0.294c-3.73,4.711-5.84,8.785-6.331,12.22c0.196,2.552,0.049,3.386-0.442,2.503
					c-0.491-0.883-0.589-2.159-0.294-3.828l2.503-5.595C79.628,154.708,80.217,153.04,80.021,152.254"/>
				<path class="st1" d="M71.629,149.457c0.589-0.589,1.963-0.834,4.122-0.736h5.006l-4.122,0.883L71.629,149.457"/>
				<path class="st1" d="M79.285,105.582c0.491,0.491,0.196,2.699-0.883,6.625c-0.982,4.024-1.865,6.282-2.65,6.773L79.285,105.582"
					/>
				<path class="st2" d="M76.193,199.663c1.374-1.767,2.405-2.503,3.092-2.208c-1.865,10.601-7.263,17.177-16.195,19.729
					c-2.65-1.08-5.693-2.748-9.128-5.006l-8.539-5.595c1.767-5.791,2.945-10.944,3.534-15.459
					c18.06-11.68,28.661-11.435,31.802,0.736c-0.589,2.061-1.963,4.27-4.122,6.625l-5.006,3.975
					C73.101,202.558,74.622,201.626,76.193,199.663 M69.42,201.724h-6.036l-5.3,0.736h6.184L69.42,201.724"/>
				<path class="st1" d="M58.083,202.46l5.3-0.736h6.036l-5.153,0.736H58.083"/>
				<path class="st1" d="M68.095,159.321l-0.736,2.208l-2.208,2.65l0.736,6.478l-0.589-1.178l-0.147-1.767
					c-0.785-1.767-0.736-3.386,0.147-4.859L68.095,159.321"/>
				<path class="st1" d="M61.028,149.457c0.491,2.061-1.669,8.147-6.478,18.257c0.196-1.472,1.227-4.27,3.092-8.392L61.028,149.457"
					/>
				<path class="st2" d="M20.245,176.547c2.159-4.221,5.251-6.576,9.276-7.067c5.006,4.613,8.049,8.441,9.128,11.484
					c-2.945,3.239-8.098,6.282-15.459,9.128l-2.061-0.736c-0.883-0.294-1.374-0.785-1.472-1.472
					C17.791,184.449,17.987,180.67,20.245,176.547 M21.423,183.32c1.865,0.589,3.926,0.196,6.184-1.178l2.208-1.62l-4.417,1.178
					C23.337,181.995,22.012,182.535,21.423,183.32"/>
				<path class="st1" d="M29.815,180.523l-2.208,1.62c-2.258,1.374-4.319,1.767-6.184,1.178c0.589-0.785,1.914-1.325,3.975-1.62
					L29.815,180.523"/>
				<path class="st3" d="M19.656,187.884c-1.865-3.435-1.669-7.214,0.589-11.337c2.159-4.221,5.251-6.576,9.276-7.067
					c5.006,4.613,8.049,8.441,9.128,11.484c-2.945,3.239-8.098,6.282-15.459,9.128l-2.061-0.736
					C20.245,189.062,19.754,188.571,19.656,187.884z"/>
				<path class="st4" d="M65.15,126.783l0.589-0.589l2.797-16.49c1.178-6.38,2.797-11.778,4.859-16.195l3.975-9.864
					c0.883-4.024,0.294-7.509-1.767-10.453l1.325-17.815c0.098-7.95,0.638-13.938,1.62-17.962
					c5.497-5.987,11.631-9.864,18.404-11.631c7.46-1.963,14.429-0.932,20.907,3.092l-1.767,2.503"/>
			</g>
		</g>
	</g>
	<path class="st5" d="M139.111,48.015c1.08,3.828,1.129,8.638,0.147,14.429c-1.178,6.478-1.57,11.14-1.178,13.987
		c0.491,3.435,2.159,8.883,5.006,16.343c1.865,6.969,0.883,12.956-2.945,17.962c-1.178,18.159,5.006,29.593,18.551,34.305
		c0.785,3.337,2.601,7.901,5.448,13.693c2.748,5.595,4.515,10.208,5.3,13.84c-4.319,14.527-11.19,24.342-20.612,29.446l-7.362,2.356
		c-3.828,0.883-6.576,1.718-8.245,2.503l-6.036,3.828c-2.258,1.57-3.828,2.258-4.711,2.061c-3.534-0.589-6.036-3.681-7.509-9.276
		c-1.178-6.969-2.307-12.073-3.386-15.312h-5.889c-1.865,2.65-2.307,6.036-1.325,10.159l3.386,9.57l-2.208-1.767l-1.767-2.208
		l-20.023,6.625c-8.245,2.356-15.607,3.092-22.085,2.208c-0.196-9.226,6.674-17.422,20.612-24.588
		c6.086-9.03,10.306-19.14,12.662-30.33l3.534-0.294c1.669,0.098,2.797-0.442,3.386-1.62c0.393,3.828-1.57,10.552-5.889,20.171
		c-3.828,8.736-4.81,16.392-2.945,22.968c4.417,1.178,7.362-0.589,8.834-5.3c0.982-6.282,1.963-10.748,2.945-13.398l4.859-9.128
		c2.258-3.828,3.583-6.969,3.975-9.423c1.08-6.773,1.129-15.361,0.147-25.765l-3.092-24.293c4.81-1.08,9.177-3.534,13.104-7.362
		l9.423-11.19c-3.141-0.687-8.441,0.785-15.901,4.417c-6.969,3.435-12.122,6.822-15.459,10.159
		c-1.472,2.356-2.307,7.754-2.503,16.195c-0.098,7.95-1.227,13.054-3.386,15.312l0.883-23.557
		c0.589-8.147,1.914-15.018,3.975-20.612l2.65-3.828c1.276-1.57,2.012-2.896,2.208-3.975c0.393-1.865,0.442-4.613,0.147-8.245
		l-0.147-8.539l2.65-6.92c1.178-2.945,1.276-5.497,0.294-7.656c-2.454-0.294-4.417,0.344-5.889,1.914
		c-0.687,0.785-1.62,2.405-2.797,4.859c-8.932-4.81-11.828-12.907-8.687-24.293c3.043-11.386,9.815-16.048,20.318-13.987
		c2.454,0.491,4.122,1.963,5.006,4.417l2.945,6.478c0.785,0.883,2.945,2.356,6.478,4.417c2.65,1.472,4.073,3.239,4.27,5.3
		l5.448,0.442L139.111,48.015"/>
</g>
</svg>
