<?xml version="1.0" encoding="utf-8"?>
<!-- Generator: Adobe Illustrator 24.0.1, SVG Export Plug-In . SVG Version: 6.00 Build 0)  -->
<svg version="1.1" id="Camada_1" xmlns="http://www.w3.org/2000/svg" xmlns:xlink="http://www.w3.org/1999/xlink" x="0px" y="0px"
	 viewBox="0 0 146.65 98.05" style="enable-background:new 0 0 146.65 98.05;" xml:space="preserve">
<style type="text/css">
	.st0{fill-rule:evenodd;clip-rule:evenodd;fill:#545F6B;}
	.st1{fill-rule:evenodd;clip-rule:evenodd;fill:#91898B;}
	.st2{fill-rule:evenodd;clip-rule:evenodd;fill:#887F88;}
	.st3{fill-rule:evenodd;clip-rule:evenodd;fill:#8B8388;}
	.st4{fill-rule:evenodd;clip-rule:evenodd;fill:#756D70;}
	.st5{fill-rule:evenodd;clip-rule:evenodd;fill:#817881;}
	.st6{fill:none;stroke:#545F6B;stroke-width:0.35;stroke-linecap:round;}
	.st7{fill:none;stroke:#545F6B;stroke-width:0.25;stroke-linecap:round;}
	.st8{fill:none;stroke:#545F6B;stroke-width:0.3;stroke-linecap:round;}
	.st9{fill:none;stroke:#545F6B;stroke-width:0.45;stroke-linecap:round;}
	.st10{fill:none;stroke:#545F6B;stroke-width:0.5;stroke-linecap:round;}
	.st11{opacity:0.49;fill-rule:evenodd;clip-rule:evenodd;fill:#100C4D;}
</style>
<g transform="matrix(1.0, 0.0, 0.0, 1.0, 0.0, 0.0)">
	<g transform="matrix(1.0, 0.0, 0.0, 1.0, 0.0, 0.0)">
		<g id="shape0" transform="matrix(1.0, 0.0, 0.0, 1.0, 0.0, 0.0)">
			<path class="st0" d="M134,13.3c0.067-0.233,0.183-0.283,0.35-0.15l0.6,0.15l-0.25,0.65L134,13.3"/>
			<path class="st0" d="M134.65,14c-0.4,0.367-0.8,0.317-1.2-0.15C133.05,13.35,133.45,13.4,134.65,14"/>
			<path class="st0" d="M123.7,37.55c-0.233,0-0.65-0.55-1.25-1.65c-0.567-1.033-1.35-1.433-2.35-1.2
				c0.533-0.433,1.233-0.25,2.1,0.55C122.967,35.95,123.467,36.717,123.7,37.55"/>
			<path class="st0" d="M119.1,56.3c0.333,3.033-0.15,5.967-1.45,8.8l-0.25-0.35l0.5-1.5l0.3-2.3c0.5-1.6,0.683-3.317,0.55-5.15
				c-0.1-1.667-0.45-3.183-1.05-4.55C118.4,52.517,118.867,54.2,119.1,56.3"/>
			<path class="st1" d="M91.2,29.85l2.7,3.85l1.85,0.95c1.133,0.5,1.8,0.667,2,0.5l5.6,3.35c3.733,2.333,6.1,3.733,7.1,4.2
				l2.45,2.05l1.05,1.7l1.1,1.9l1.25,1.3l1.1,1.15l0.15,0.15l0.15,0.3c0.6,1.367,0.95,2.883,1.05,4.55
				c0.133,1.833-0.05,3.55-0.55,5.15l-0.3,2.3l-0.5,1.5l-2.7-2.65c-1.5-1.3-3.067-2.367-4.7-3.2l-1.55-0.55
				c-0.667-0.167-0.783-0.133-0.35,0.1c-0.833-0.033-2.067-0.483-3.7-1.35c-1.9-1.033-3.15-1.633-3.75-1.8l-6.35-0.45h-6.6
				c-3.933-0.3-8.65-2.55-14.15-6.75c0.7-0.567,1.233-1.2,1.6-1.9c-1.633-1.933-3.733-3.017-6.3-3.25c-2.7-0.2-4.9,0.65-6.6,2.55
				c-2.3-0.833-5.5-1.383-9.6-1.65l-9.35-0.3L38.45,43l-4.55-0.65c-0.833-0.1-2.15-1.017-3.95-2.75
				c-2.033-1.933-3.383-3.05-4.05-3.35c0.567-0.667,1.167-1.117,1.8-1.35c1.467-0.8,3.367-1.167,5.7-1.1l6.3,0.15l5.05-0.4l5.7-0.75
				l0.15-0.1l-8.8,0.5L33.2,33c-0.667,0.033-1.883,0.367-3.65,1l-2.6-0.05c0.2-1.633,0.45-2.75,0.75-3.35l2.75-0.85l4.85-0.85h1
				l6.75-0.6l10.3-1.7l-0.45,0.15h14.6l5.95,0.55l-2.8-0.05l7.7,0.25l8.15-0.25C88.267,27.05,89.833,27.917,91.2,29.85 M116,52.3
				c-1.267-1.867-2.95-3.183-5.05-3.95c4.633,3.033,7.05,6.833,7.25,11.4C118.167,56.85,117.433,54.367,116,52.3 M57.55,30.05
				l1.8-0.15l-0.15-0.6c-0.2-0.2-0.3-0.167-0.3,0.1C58.833,29.667,58.383,29.883,57.55,30.05 M43.1,40.8
				c0.167-0.5,0.083-0.967-0.25-1.4l-2-0.15c-0.867,0.267-1.133,0.7-0.8,1.3c0.133,0.6,0.583,0.917,1.35,0.95
				C42.167,41.5,42.733,41.267,43.1,40.8 M51.9,38.5c0.133-0.367,0.033-0.667-0.3-0.9l-0.65-0.05l0.75,0.75l-0.65,0.2
				c-0.333,0.067-0.367,0.15-0.1,0.25l0.5-0.1C51.617,38.55,51.767,38.5,51.9,38.5"/>
			<path class="st0" d="M117.65,65.1l-0.1,0.2l-0.35-0.15l0.2-0.4L117.65,65.1"/>
			<path class="st0" d="M117.2,65.15l0.35,0.15l-2.6,4.65c-1.2,1.967-2.05,3.567-2.55,4.8c-1.933,0.1-3.383,0.983-4.35,2.65
				l-1.9,5.05l-4.5,1.65l-1.75-0.35l4.65-2.25c1.533-1.067,2.383-2.517,2.55-4.35l0.15-0.1l-0.15-0.15
				c0.333-0.733,1.2-1.467,2.6-2.2c1.433-0.7,2.333-1.4,2.7-2.1c-3.1-0.233-6.933-0.95-11.5-2.15L89.95,67.7l3.1,0.1l3.25,0.7
				c1.7,0.4,4.233,1.167,7.6,2.3c3.133,0.933,5.967,1.367,8.5,1.3c0.2-0.933,0.883-2.083,2.05-3.45L117.2,65.15"/>
			<path class="st0" d="M117.4,64.75l-0.2,0.4c-0.667-0.3-2.083-1.483-4.25-3.55c-1.933-1.867-3.55-2.917-4.85-3.15
				c-0.433-0.233-0.317-0.267,0.35-0.1L110,58.9c1.633,0.833,3.2,1.9,4.7,3.2L117.4,64.75"/>
			<path class="st0" d="M108.75,41.15c1.933,1.2,3.383,2.317,4.35,3.35l1.05,1.55l1.15,1.85l1.95,2.7l-0.95-0.95l-1.25-1.3l-1.1-1.9
				l-1.05-1.7l-2.45-2.05l0.8,0.2l-3.3-1.9l-0.5-0.3l-2.95-2.2L108.75,41.15"/>
			<path class="st2" d="M117.2,65.15l-2.75,3.5c-1.167,1.367-1.85,2.517-2.05,3.45c-2.533,0.067-5.367-0.367-8.5-1.3
				c-3.367-1.133-5.9-1.9-7.6-2.3l-3.25-0.7l-3.1-0.1c-2-1.067-5.067-1.933-9.2-2.6c-1.667-0.267-3.6-0.083-5.8,0.55L69.85,67
				c-2.433-0.433-5-1.233-7.7-2.4c-1.967-0.833-4.383-2.05-7.25-3.65c0.367-0.4,0.967-0.733,1.8-1l2.1-0.6
				c0.133-2.6,0.033-4.45-0.3-5.55c-3.667-2.6-7.1-4.467-10.3-5.6c-4-1.433-7.933-1.833-11.8-1.2c-1.467,1.333-2.733,3.083-3.8,5.25
				c-0.5,0-1.333-0.45-2.5-1.35c-1.333-1.033-2.133-1.617-2.4-1.75l-0.3-0.3c-0.2-1.067-1.417-2.25-3.65-3.55v-0.05L23.35,45
				l-0.85-0.45l-0.05-0.05c-1.833-1.033-2.733-1.9-2.7-2.6c0.033-0.533,0.467-0.983,1.3-1.35l1.85-0.85l1.45-1.55l1.4-1.75l4.15,3.5
				c1.833,1.667,3.167,2.567,4,2.7l9.6,1.2l9.3,0.35c4.2,0.267,7.333,0.717,9.4,1.35l-0.1,0.1c-0.367,3.233,0.933,4.967,3.9,5.2
				c2.733,0.2,5.25-0.7,7.55-2.7c1.4,1.5,3.383,2.95,5.95,4.35c2.867,1.567,5.433,2.45,7.7,2.65l6.6-0.05l6.6,0.5
				c0.4,0.1,1.683,0.75,3.85,1.95c1.667,0.933,2.95,1.25,3.85,0.95c1.3,0.233,2.917,1.283,4.85,3.15
				C115.117,63.667,116.533,64.85,117.2,65.15 M83.6,56.55c-1.6,0.067-2.483,0.383-2.65,0.95c1-0.467,2-0.683,3-0.65
				c1.267,0,2.033,0.45,2.3,1.35c-0.067,1.167-0.917,2-2.55,2.5c-1.667,0.5-2.983,0.3-3.95-0.6l0.35-0.75
				c0.167-0.367,0.133-0.583-0.1-0.65c-0.4,0.933-0.483,1.65-0.25,2.15l4.55-0.1c1.433-0.567,2.167-1.583,2.2-3.05
				C86.2,56.867,85.233,56.483,83.6,56.55 M96.8,64.9c0.4,0.1,0.567,0.4,0.5,0.9C97.767,65.2,97.6,64.9,96.8,64.9 M96.2,66.15
				c-0.433,0.067-0.717-0.017-0.85-0.25c-0.067-0.267,0.033-0.45,0.3-0.55l0.45-0.45c-0.367,0-0.633,0.15-0.8,0.45l-0.4,0.75
				c0.267,0.433,0.65,0.6,1.15,0.5c0.433-0.1,0.817-0.333,1.15-0.7L96.2,66.15"/>
			<path class="st0" d="M118.2,59.75c-0.2-4.567-2.617-8.367-7.25-11.4c2.1,0.767,3.783,2.083,5.05,3.95
				C117.433,54.367,118.167,56.85,118.2,59.75"/>
			<path class="st0" d="M111.25,42.9l-0.8-0.2l-2.5-1.7L111.25,42.9"/>
			<path class="st3" d="M112.4,72.6c-0.367,0.7-1.267,1.4-2.7,2.1c-1.4,0.733-2.267,1.467-2.6,2.2l0.15,0.15l-6.65-4.5
				c-2.6-1.733-5.15-2.467-7.65-2.2c-0.567-1-1.567-1.883-3-2.65l10.95,2.75C105.467,71.65,109.3,72.367,112.4,72.6"/>
			<path class="st0" d="M110.45,42.7c-1-0.467-3.367-1.867-7.1-4.2l-5.6-3.35c0.167-0.1,1.35,0.5,3.55,1.8l6.15,3.75L110.45,42.7"/>
			<path class="st0" d="M108.1,58.45c-0.9,0.3-2.183-0.017-3.85-0.95c-2.167-1.2-3.45-1.85-3.85-1.95l-6.6-0.5l-6.6,0.05
				c-2.267-0.2-4.833-1.083-7.7-2.65c-2.567-1.4-4.55-2.85-5.95-4.35c5.5,4.2,10.217,6.45,14.15,6.75h6.6l6.35,0.45
				c0.6,0.167,1.85,0.767,3.75,1.8C106.033,57.967,107.267,58.417,108.1,58.45"/>
			<path class="st0" d="M110.5,8.5l-3.2-1.6c-1.267-0.633-2.533-0.967-3.8-1c1.3-0.467,2.683-0.25,4.15,0.65
				C108.45,7.017,109.4,7.667,110.5,8.5"/>
			<path class="st4" d="M100.6,72.55l6.65,4.5l-0.15,0.1c-0.167,1.833-1.017,3.283-2.55,4.35l-4.65,2.25l-5.15-0.35l-4.25,0.4
				c-1.933,0.7-4.633,1.25-8.1,1.65l-8.6,0.3c-2.633-0.167-5.117-0.7-7.45-1.6c-1.9-0.733-4.233-1.95-7-3.65h0.25
				c-0.3-0.433-0.517-1.117-0.65-2.05l-0.3-2.5l0.75-0.1l-0.5-0.35c0-0.567,0.45-1.433,1.35-2.6c0.933-1.233,1.75-1.967,2.45-2.2
				l-0.55,0.75c-0.267,0.267-0.4,0.567-0.4,0.9c0.7,0.5,1.483,1.5,2.35,3c0.733,1.233,1.467,1.917,2.2,2.05
				c-0.7-0.6-1.417-1.467-2.15-2.6l-1.9-2.9c0.5-0.933,1.5-1.733,3-2.4c0.8-0.4,2.033-0.967,3.7-1.7H68.7
				c0.067-0.067,0.283-0.167,0.65-0.3l0.5-0.5l5.1-1.35c2.2-0.633,4.133-0.817,5.8-0.55c4.133,0.667,7.2,1.533,9.2,2.6
				c1.433,0.767,2.433,1.65,3,2.65C95.45,70.083,98,70.817,100.6,72.55 M97.5,82.45v0.25h-0.2c0.067,0.2,0.383,0.3,0.95,0.3
				l0.95-0.3c-0.133-0.133-0.367-0.217-0.7-0.25H97.5 M81.45,74.05c-0.333-0.2-0.583-0.317-0.75-0.35
				c-0.233-0.1-0.383,0.017-0.45,0.35c0.667-0.1,0.983,0.133,0.95,0.7c-0.067,0.333-0.4,0.433-1,0.3L79.75,75l0.55,0.35l0.65,0.15
				l0.4-0.6L81.45,74.05 M76.2,77.9c-1.433,0.1-1.933,0.567-1.5,1.4c0.367-0.867,1.017-1.267,1.95-1.2
				c1.433,2.267,2.467,3.067,3.1,2.4c-0.933-0.067-1.567-0.383-1.9-0.95C78.117,78.35,77.567,77.8,76.2,77.9 M71.35,80.75L70.6,80.5
				c-0.433-0.067-0.667,0.017-0.7,0.25c0.033,0.1,0.25,0.183,0.65,0.25c0.3,0.033,0.417,0.2,0.35,0.5h-1.2l-0.05-0.45l-0.2-0.3
				c-0.1,0.467-0.017,0.867,0.25,1.2l0.9-0.05l0.75-0.2V80.75"/>
			<path class="st0" d="M103.05,24.1l2.75,1.6c1.233,0.567,2.067,1.167,2.5,1.8l-2.55-1.45l-2.95-1.7l-6.95,0.25l4.5-0.5
				c2.033-0.033,3.417-0.3,4.15-0.8C103.933,23.8,103.45,24.067,103.05,24.1"/>
			<path class="st0" d="M101.65,84.1c-1.533,0.6-2.7,1.2-3.5,1.8c-1.133,0.833-1.9,1.833-2.3,3c-3.2,1.633-7.833,3.283-13.9,4.95
				c-8.067,2.2-12.95,3.6-14.65,4.2c2.433-1.267,7.267-2.867,14.5-4.8c6.467-1.767,11.067-3.617,13.8-5.55
				c0.533-1.6,1.967-2.917,4.3-3.95L101.65,84.1"/>
			<path class="st0" d="M97.5,82.45h1c0.333,0.033,0.567,0.117,0.7,0.25L98.25,83c-0.567,0-0.883-0.1-0.95-0.3h0.2V82.45"/>
			<path class="st0" d="M93.9,33.45c-0.067-0.133,0.583,0.1,1.95,0.7c1.367,0.6,2,0.933,1.9,1c-0.2,0.167-0.867,0-2-0.5L93.9,33.7
				l-2.7-3.85c-1.367-1.933-2.933-2.8-4.7-2.6c1.533-0.467,3.067,0.267,4.6,2.2L93.9,33.45"/>
			<path class="st0" d="M96.8,64.9c0.8,0,0.967,0.3,0.5,0.9C97.367,65.3,97.2,65,96.8,64.9"/>
			<path class="st0" d="M95.35,65.9c0.133,0.233,0.417,0.317,0.85,0.25l1-0.25c-0.333,0.367-0.717,0.6-1.15,0.7
				c-0.5,0.1-0.883-0.067-1.15-0.5l0.4-0.75c0.167-0.3,0.433-0.45,0.8-0.45l-0.45,0.45C95.383,65.45,95.283,65.633,95.35,65.9"/>
			<path class="st0" d="M75.55,27.25c5.833-0.233,9.483-0.233,10.95,0l-8.15,0.25l-7.7-0.25l2.8,0.05l2.65,0.2L75.55,27.25"/>
			<path class="st0" d="M86.25,58.2c-0.267-0.9-1.033-1.35-2.3-1.35c-1-0.033-2,0.183-3,0.65c0.167-0.567,1.05-0.883,2.65-0.95
				c1.633-0.067,2.6,0.317,2.9,1.15c-0.033,1.467-0.767,2.483-2.2,3.05l-4.55,0.1c-0.233-0.5-0.15-1.217,0.25-2.15
				c0.233,0.067,0.267,0.283,0.1,0.65l-0.35,0.75c0.967,0.9,2.283,1.1,3.95,0.6C85.333,60.2,86.183,59.367,86.25,58.2"/>
			<path class="st0" d="M80.35,14.95l1.8,0.55c-1.567,0.167-2.917-0.317-4.05-1.45l-1.2-0.1l-0.75,0.1
				c-0.2-0.367,0.05-0.517,0.75-0.45l1.65,0.2C78.717,14.267,79.317,14.65,80.35,14.95"/>
			<path class="st0" d="M81.35,74.9l-0.4,0.6l-0.65-0.15L79.75,75l0.45,0.05c0.6,0.133,0.933,0.033,1-0.3
				c0.033-0.567-0.283-0.8-0.95-0.7c0.067-0.333,0.217-0.45,0.45-0.35c0.167,0.033,0.417,0.15,0.75,0.35L81.35,74.9"/>
			<path class="st0" d="M79.75,80.5c-0.633,0.667-1.667-0.133-3.1-2.4c-0.933-0.067-1.583,0.333-1.95,1.2
				c-0.433-0.833,0.067-1.3,1.5-1.4c1.367-0.1,1.917,0.45,1.65,1.65C78.183,80.117,78.817,80.433,79.75,80.5"/>
			<path class="st0" d="M76.1,27.5l-2.65-0.2l2.1-0.05L76.1,27.5"/>
			<path class="st4" d="M62.4,45.55l-0.15-0.05c1.7-1.9,3.9-2.75,6.6-2.55c2.567,0.233,4.667,1.317,6.3,3.25
				c-0.367,0.7-0.9,1.333-1.6,1.9c-2.3,2-4.817,2.9-7.55,2.7c-2.967-0.233-4.267-1.967-3.9-5.2l0.1-0.1L62.4,45.55"/>
			<path class="st0" d="M75.55,27.25l-2.1,0.05l-5.95-0.55L75.55,27.25"/>
			<path class="st0" d="M71.35,81.7l-0.75,0.2l-0.9,0.05c-0.267-0.333-0.35-0.733-0.25-1.2l0.2,0.3l0.05,0.45h1.2
				c0.067-0.3-0.05-0.467-0.35-0.5c-0.4-0.067-0.617-0.15-0.65-0.25c0.033-0.233,0.267-0.317,0.7-0.25l0.75,0.25V81.7"/>
			<path class="st0" d="M16.15,42.85c-0.333,1.9-0.167,4.183,0.5,6.85c0.8,3.133,1.2,5.4,1.2,6.8c3.033,2.733,5.117,5.617,6.25,8.65
				l-2.85-4.55c-1.2-1.667-2.5-2.867-3.9-3.6c-1.333,0.833-3.533,1.867-6.6,3.1c-2.467,1.333-3.783,3.267-3.95,5.8l0.5,0.6l0.45,0.6
				c4.133-1.533,8.7-2.083,13.7-1.65c5.333,0.467,9.167,1.967,11.5,4.5l7.75,1.4l8.35,0.3c1.567-0.9,3.533-1.533,5.9-1.9l6.8,0.2
				c0.8-0.467,1.9-0.917,3.3-1.35l3.65-1.05v0.25h0.25c-1.667,0.733-2.9,1.3-3.7,1.7c-1.5,0.667-2.5,1.467-3,2.4l1.9,2.9
				c0.733,1.133,1.45,2,2.15,2.6c-0.733-0.133-1.467-0.817-2.2-2.05c-0.867-1.5-1.65-2.5-2.35-3c0-0.333,0.133-0.633,0.4-0.9
				l0.55-0.75c-0.7,0.233-1.517,0.967-2.45,2.2c-0.9,1.167-1.35,2.033-1.35,2.6l0.5,0.35l-0.75,0.1l0.3,2.5
				c0.133,0.933,0.35,1.617,0.65,2.05h-0.25v0.25c-1.267-1.7-1.533-3.6-0.8-5.7c0.3-0.767,1.217-2.383,2.75-4.85
				c-1.833-0.333-3.933-0.333-6.3,0c-2.6,0.333-4.433,0.967-5.5,1.9c-2.433,0.367-4.983,0.333-7.65-0.1l-6.75-1.55l-1.5-0.2
				l-1.35-0.3l-0.95-0.8l-1-0.85c-2.2-1.233-6.117-2.117-11.75-2.65l-5.4,0.5C11.917,66.45,10.2,67,8,67.8
				c-0.267-0.3-0.65-0.567-1.15-0.8c-0.333-0.167-0.517-0.383-0.55-0.65L3.6,66.4l-2.3,0.2l-0.9,0.5c-0.4,0.2-0.5,0.117-0.3-0.25
				c1.167-0.567,3.167-0.883,6-0.95c-0.2-2.667,0.983-4.783,3.55-6.35l7.25-3.25l-1.45-7.6c-0.667-3.033-0.517-5.467,0.45-7.3
				c3.5-0.367,6.533-2.167,9.1-5.4l0.75,0.4l-1.4,1.75L22.9,39.7l-1.85,0.85c-0.833,0.367-1.267,0.817-1.3,1.35
				c-0.033,0.7,0.867,1.567,2.7,2.6l-1.55-0.6l-1.4-1.05c-0.3-0.7-0.217-1.267,0.25-1.7C18.717,41.417,17.517,41.983,16.15,42.85"/>
			<path class="st5" d="M19.75,41.15c-0.467,0.433-0.55,1-0.25,1.7l1.4,1.05l1.55,0.6l0.05,0.05l1.25,0.7v0.05l1.75,1.6l1.9,1.95
				l0.05,0.25l0.25,0.05c2,2.067,3.633,3.1,4.9,3.1l-0.5,1.05c1.4,3.133,3.917,5.55,7.55,7.25c2.567,1.2,6.017,2.15,10.35,2.85
				c0.567-0.133,1.383-0.567,2.45-1.3c0.967-0.7,1.783-1.083,2.45-1.15c2.867,1.6,5.283,2.817,7.25,3.65
				c2.7,1.167,5.267,1.967,7.7,2.4l-0.5,0.5c-0.367,0.133-0.583,0.233-0.65,0.3v-0.25l-3.65,1.05c-1.4,0.433-2.5,0.883-3.3,1.35
				l-6.8-0.2c-2.367,0.367-4.333,1-5.9,1.9l-8.35-0.3l-7.75-1.4c-2.333-2.533-6.167-4.033-11.5-4.5c-5-0.433-9.567,0.117-13.7,1.65
				L7.3,66.5l-0.5-0.6c0.167-2.533,1.483-4.467,3.95-5.8c3.067-1.233,5.267-2.267,6.6-3.1c1.4,0.733,2.7,1.933,3.9,3.6l2.85,4.55
				c-1.133-3.033-3.217-5.917-6.25-8.65c0-1.4-0.4-3.667-1.2-6.8c-0.667-2.667-0.833-4.95-0.5-6.85
				C17.517,41.983,18.717,41.417,19.75,41.15"/>
			<path class="st0" d="M67.5,26.75H52.9l0.45-0.15l2.5-0.6H55.7l2.2-0.2L67.5,26.75"/>
			<path class="st0" d="M64.15,18.85l0.4,0.4l-0.4-0.15c-0.733-0.2-2.333,0.017-4.8,0.65c-1.667,0.433-2.7-0.033-3.1-1.4
				c0.267,0.033,0.4,0.15,0.4,0.35c0,0.267,0.1,0.467,0.3,0.6l3.7-0.4C61.983,18.6,63.15,18.583,64.15,18.85"/>
			<path class="st0" d="M62.25,45.5H62.2c-2.067-0.633-5.2-1.083-9.4-1.35l-9.3-0.35l-9.6-1.2c-0.833-0.133-2.167-1.033-4-2.7
				l-4.15-3.5l0.15-0.15c0.667,0.3,2.017,1.417,4.05,3.35c1.8,1.733,3.117,2.65,3.95,2.75L38.45,43l4.85,0.55l9.35,0.3
				C56.75,44.117,59.95,44.667,62.25,45.5"/>
			<path class="st0" d="M58.9,29.4c0-0.267,0.1-0.3,0.3-0.1l0.15,0.6l-1.8,0.15C58.383,29.883,58.833,29.667,58.9,29.4"/>
			<path class="st4" d="M32.6,52.25c1.067-2.167,2.333-3.917,3.8-5.25c3.867-0.633,7.8-0.233,11.8,1.2c3.2,1.133,6.633,3,10.3,5.6
				c0.333,1.1,0.433,2.95,0.3,5.55l-2.1,0.6c-0.833,0.267-1.433,0.6-1.8,1c-0.667,0.067-1.483,0.45-2.45,1.15
				c-1.067,0.733-1.883,1.167-2.45,1.3c-4.333-0.7-7.783-1.65-10.35-2.85c-3.633-1.7-6.15-4.117-7.55-7.25L32.6,52.25 M37.05,56.5
				C37.017,57,37.3,57.167,37.9,57c0.6-0.2,0.8-0.517,0.6-0.95c-0.567-0.1-0.9,0.05-1,0.45c0.333,0.1,0.5,0.183,0.5,0.25L37.05,56.5
				 M53.6,56.5c-1.933,0.067-2.967,0.8-3.1,2.2c0.167-0.533,0.6-0.983,1.3-1.35L53.6,56.5 M51.9,55.3
				c0.2-0.533-0.017-0.983-0.65-1.35c-0.8-0.433-1.05-0.45-0.75-0.05l0.75,0.55c0.267,0.233,0.417,0.517,0.45,0.85
				c-1.167,0-1.5,0.083-1,0.25L51.9,55.3 M47.6,56.05c-1.067-0.733-1.783-0.9-2.15-0.5c0.733,0.067,1.217,0.233,1.45,0.5l0.05,0.85
				c-0.067,0.433-0.017,0.783,0.15,1.05l0.6,0.45c0.167,0.167,0.3,0.267,0.4,0.3l1,0.05l-1.5-1.25V56.05"/>
			<path class="st0" d="M50.1,15.45c2.667-0.767,4.717-1.8,6.15-3.1v0.25h0.25c-0.733,1.133-2.067,2.083-4,2.85l-4.9,1.95
				c-0.833-0.667-1.75-0.733-2.75-0.2c-1.067,0.533-1.583,1.4-1.55,2.6c0.967,0.267,2.1,0.133,3.4-0.4
				c1.267-0.5,2.117-0.683,2.55-0.55c-0.5,0.067-1.4,0.383-2.7,0.95c-1.067,0.5-2.15,0.667-3.25,0.5c-0.867,0.3-2.35,1.333-4.45,3.1
				c-1.733,1.4-3.533,2.117-5.4,2.15c-0.333,0.533-1.433,1.167-3.3,1.9c-1.533,0.6-2.35,1.483-2.45,2.65l2.75-0.35L27.7,30.6
				c-0.3,0.6-0.55,1.717-0.75,3.35l2.6,0.05c1.767-0.633,2.983-0.967,3.65-1l8.6,0.2l8.8-0.5l-0.15,0.1l-5.7,0.75l-5.05,0.4
				l-6.3-0.15c-2.333-0.067-4.233,0.3-5.7,1.1c-0.633,0.233-1.233,0.683-1.8,1.35L25,36l1-1.3c0.333-3.1,0.733-5.267,1.2-6.5l2-1.1
				l2.1-1.05l0.95-0.8c0.367-0.333,0.683-0.55,0.95-0.65l1.4-0.1l1.5-0.15c0.833-0.267,1.833-1.017,3-2.25
				c1.133-1.2,2.133-1.883,3-2.05c0.3-1,0.7-1.967,1.2-2.9L50.1,15.45"/>
			<path class="st0" d="M55.85,26l-2.5,0.6L55.7,26H55.85"/>
			<path class="st0" d="M43.05,28.3l-6.75,0.6h-1c11.867-2.067,18.667-3.033,20.4-2.9l-2.35,0.6L43.05,28.3"/>
			<path class="st0" d="M53.6,56.5l-1.8,0.85c-0.7,0.367-1.133,0.817-1.3,1.35C50.633,57.3,51.667,56.567,53.6,56.5"/>
			<path class="st0" d="M50.95,37.55l0.65,0.05c0.333,0.233,0.433,0.533,0.3,0.9c-0.133,0-0.283,0.05-0.45,0.15l-0.5,0.1
				c-0.267-0.1-0.233-0.183,0.1-0.25l0.65-0.2L50.95,37.55"/>
			<path class="st0" d="M50.5,53.9c-0.3-0.4-0.05-0.383,0.75,0.05c0.633,0.367,0.85,0.817,0.65,1.35l-1.2,0.25
				c-0.5-0.167-0.167-0.25,1-0.25c-0.033-0.333-0.183-0.617-0.45-0.85L50.5,53.9"/>
			<path class="st0" d="M50,19.3c-0.1,0.333-0.233,0.383-0.4,0.15l-0.3-0.6L50,19.3"/>
			<path class="st0" d="M47.7,58.4l-0.6-0.45c-0.167-0.267-0.217-0.617-0.15-1.05l-0.05-0.85c-0.233-0.267-0.717-0.433-1.45-0.5
				c0.367-0.4,1.083-0.233,2.15,0.5v1.45l1.5,1.25l-1-0.05C48,58.667,47.867,58.567,47.7,58.4"/>
			<path class="st3" d="M42.85,39.4c0.333,0.433,0.417,0.9,0.25,1.4c-0.367,0.467-0.933,0.7-1.7,0.7
				c-0.767-0.033-1.217-0.35-1.35-0.95c-0.333-0.6-0.067-1.033,0.8-1.3L42.85,39.4"/>
			<path class="st0" d="M38.5,56.05c0.2,0.433,0,0.75-0.6,0.95c-0.6,0.167-0.883,0-0.85-0.5L38,56.75c0-0.067-0.167-0.15-0.5-0.25
				C37.6,56.1,37.933,55.95,38.5,56.05"/>
			<path class="st0" d="M32.6,52.25c-1.267,0-2.9-1.033-4.9-3.1c0.267,0.133,1.067,0.717,2.4,1.75
				C31.233,51.8,32.067,52.25,32.6,52.25"/>
			<path class="st0" d="M25.9,36.25l-0.15,0.15L25,36L25.9,36.25"/>
			<path class="st0" d="M27.4,48.85l-1.9-1.95l-1.75-1.6C25.983,46.6,27.2,47.783,27.4,48.85"/>
			<path class="st6" d="M62.1,45.6c-0.367,3.233,0.933,4.967,3.9,5.2c2.733,0.2,5.25-0.7,7.55-2.7c0.7-0.567,1.233-1.2,1.6-1.9
				c-1.633-1.933-3.733-3.017-6.3-3.25c-2.7-0.2-4.9,0.65-6.6,2.55H62.2L62.1,45.6z"/>
			<path class="st7" d="M41.4,41.5c-0.767-0.033-1.217-0.35-1.35-0.95c-0.333-0.6-0.067-1.033,0.8-1.3l2,0.15
				c0.333,0.433,0.417,0.9,0.25,1.4C42.733,41.267,42.167,41.5,41.4,41.5z"/>
			<path class="st8" d="M50.6,32.7l5.55-0.4l5.8,0.55l9.75,0.65c3.867,0.367,7.017,1.017,9.45,1.95
				c4.433,1.733,9.15,3.183,14.15,4.35c2.233,0.533,5.35,2.033,9.35,4.5s6.717,4.583,8.15,6.35"/>
			<path class="st6" d="M124.15,12.25c3.267-2.5,6.967-3.717,11.1-3.65c3.967,0.067,7.7,1.317,11.2,3.75l0.05,1.35"/>
			<path class="st9" d="M59.35,80.5c2.767,1.7,5.1,2.917,7,3.65c2.333,0.9,4.817,1.433,7.45,1.6l8.6-0.3
				c3.467-0.4,6.167-0.95,8.1-1.65l4.25-0.4l5.15,0.35l1.75,0.35"/>
			<path class="st10" d="M56.25,12.6c0.8-0.933,2.367-1.567,4.7-1.9c2.867-0.4,4.883-0.9,6.05-1.5c2.2-1.167,5.367-2.167,9.5-3
				c3.667-0.767,6.45-1.817,8.35-3.15C85.683,2.983,86.4,3.1,87,3.4l5.3,0.2l5.5-0.3l10.05-1.25l5.5-0.2
				c1.967-0.133,3.433-0.467,4.4-1c0.533-0.3,1.25-0.483,2.15-0.55c1.1-0.1,1.967,0.067,2.6,0.5l8.7,0.7c3.6,0.4,6.5,0.383,8.7-0.05
				"/>
			<path class="st9" d="M69.85,67l5.1-1.35c2.2-0.633,4.133-0.817,5.8-0.55c4.133,0.667,7.2,1.533,9.2,2.6
				c1.433,0.767,2.433,1.65,3,2.65c2.5-0.267,5.05,0.467,7.65,2.2l6.65,4.5"/>
			<path class="st10" d="M69.85,67l-0.5,0.5c-0.367,0.133-0.583,0.233-0.65,0.3"/>
			<path class="st6" d="M54.9,60.95c2.867,1.6,5.283,2.817,7.25,3.65c2.7,1.167,5.267,1.967,7.7,2.4"/>
			<path class="st6" d="M39.65,60.55c2.567,1.2,6.017,2.15,10.35,2.85c0.567-0.133,1.383-0.567,2.45-1.3
				c0.967-0.7,1.783-1.083,2.45-1.15c0.367-0.4,0.967-0.733,1.8-1l2.1-0.6c0.133-2.6,0.033-4.45-0.3-5.55
				c-3.667-2.6-7.1-4.467-10.3-5.6c-4-1.433-7.933-1.833-11.8-1.2c-1.467,1.333-2.733,3.083-3.8,5.25l-0.5,1.05
				C33.5,56.433,36.017,58.85,39.65,60.55z"/>
		</g>
		<g transform="matrix(1.0, 0.0, 0.0, 1.0, 0.0, 0.0)">
			<g id="shape0_1_" transform="matrix(1.0, 0.0, 0.0, 1.0, 0.0, 0.0)">
				<path class="st0" d="M134,13.3c0.067-0.233,0.183-0.283,0.35-0.15l0.6,0.15l-0.25,0.65L134,13.3"/>
				<path class="st0" d="M134.65,14c-0.4,0.367-0.8,0.317-1.2-0.15C133.05,13.35,133.45,13.4,134.65,14"/>
				<path class="st0" d="M123.7,37.55c-0.233,0-0.65-0.55-1.25-1.65c-0.567-1.033-1.35-1.433-2.35-1.2
					c0.533-0.433,1.233-0.25,2.1,0.55C122.967,35.95,123.467,36.717,123.7,37.55"/>
				<path class="st0" d="M119.1,56.3c0.333,3.033-0.15,5.967-1.45,8.8l-0.25-0.35l0.5-1.5l0.3-2.3c0.5-1.6,0.683-3.317,0.55-5.15
					c-0.1-1.667-0.45-3.183-1.05-4.55C118.4,52.517,118.867,54.2,119.1,56.3"/>
				<path class="st1" d="M91.2,29.85l2.7,3.85l1.85,0.95c1.133,0.5,1.8,0.667,2,0.5l5.6,3.35c3.733,2.333,6.1,3.733,7.1,4.2
					l2.45,2.05l1.05,1.7l1.1,1.9l1.25,1.3l1.1,1.15l0.15,0.15l0.15,0.3c0.6,1.367,0.95,2.883,1.05,4.55
					c0.133,1.833-0.05,3.55-0.55,5.15l-0.3,2.3l-0.5,1.5l-2.7-2.65c-1.5-1.3-3.067-2.367-4.7-3.2l-1.55-0.55
					c-0.667-0.167-0.783-0.133-0.35,0.1c-0.833-0.033-2.067-0.483-3.7-1.35c-1.9-1.033-3.15-1.633-3.75-1.8l-6.35-0.45h-6.6
					c-3.933-0.3-8.65-2.55-14.15-6.75c0.7-0.567,1.233-1.2,1.6-1.9c-1.633-1.933-3.733-3.017-6.3-3.25c-2.7-0.2-4.9,0.65-6.6,2.55
					c-2.3-0.833-5.5-1.383-9.6-1.65l-9.35-0.3L38.45,43l-4.55-0.65c-0.833-0.1-2.15-1.017-3.95-2.75
					c-2.033-1.933-3.383-3.05-4.05-3.35c0.567-0.667,1.167-1.117,1.8-1.35c1.467-0.8,3.367-1.167,5.7-1.1l6.3,0.15l5.05-0.4
					l5.7-0.75l0.15-0.1l-8.8,0.5L33.2,33c-0.667,0.033-1.883,0.367-3.65,1l-2.6-0.05c0.2-1.633,0.45-2.75,0.75-3.35l2.75-0.85
					l4.85-0.85h1l6.75-0.6l10.3-1.7l-0.45,0.15h14.6l5.95,0.55l-2.8-0.05l7.7,0.25l8.15-0.25C88.267,27.05,89.833,27.917,91.2,29.85
					 M116,52.3c-1.267-1.867-2.95-3.183-5.05-3.95c4.633,3.033,7.05,6.833,7.25,11.4C118.167,56.85,117.433,54.367,116,52.3
					 M57.55,30.05l1.8-0.15l-0.15-0.6c-0.2-0.2-0.3-0.167-0.3,0.1C58.833,29.667,58.383,29.883,57.55,30.05 M43.1,40.8
					c0.167-0.5,0.083-0.967-0.25-1.4l-2-0.15c-0.867,0.267-1.133,0.7-0.8,1.3c0.133,0.6,0.583,0.917,1.35,0.95
					C42.167,41.5,42.733,41.267,43.1,40.8 M51.9,38.5c0.133-0.367,0.033-0.667-0.3-0.9l-0.65-0.05l0.75,0.75l-0.65,0.2
					c-0.333,0.067-0.367,0.15-0.1,0.25l0.5-0.1C51.617,38.55,51.767,38.5,51.9,38.5"/>
				<path class="st0" d="M117.65,65.1l-0.1,0.2l-0.35-0.15l0.2-0.4L117.65,65.1"/>
				<path class="st0" d="M117.2,65.15l0.35,0.15l-2.6,4.65c-1.2,1.967-2.05,3.567-2.55,4.8c-1.933,0.1-3.383,0.983-4.35,2.65
					l-1.9,5.05l-4.5,1.65l-1.75-0.35l4.65-2.25c1.533-1.067,2.383-2.517,2.55-4.35l0.15-0.1l-0.15-0.15
					c0.333-0.733,1.2-1.467,2.6-2.2c1.433-0.7,2.333-1.4,2.7-2.1c-3.1-0.233-6.933-0.95-11.5-2.15L89.95,67.7l3.1,0.1l3.25,0.7
					c1.7,0.4,4.233,1.167,7.6,2.3c3.133,0.933,5.967,1.367,8.5,1.3c0.2-0.933,0.883-2.083,2.05-3.45L117.2,65.15"/>
				<path class="st0" d="M117.4,64.75l-0.2,0.4c-0.667-0.3-2.083-1.483-4.25-3.55c-1.933-1.867-3.55-2.917-4.85-3.15
					c-0.433-0.233-0.317-0.267,0.35-0.1L110,58.9c1.633,0.833,3.2,1.9,4.7,3.2L117.4,64.75"/>
				<path class="st0" d="M108.75,41.15c1.933,1.2,3.383,2.317,4.35,3.35l1.05,1.55l1.15,1.85l1.95,2.7l-0.95-0.95l-1.25-1.3
					l-1.1-1.9l-1.05-1.7l-2.45-2.05l0.8,0.2l-3.3-1.9l-0.5-0.3l-2.95-2.2L108.75,41.15"/>
				<path class="st2" d="M117.2,65.15l-2.75,3.5c-1.167,1.367-1.85,2.517-2.05,3.45c-2.533,0.067-5.367-0.367-8.5-1.3
					c-3.367-1.133-5.9-1.9-7.6-2.3l-3.25-0.7l-3.1-0.1c-2-1.067-5.067-1.933-9.2-2.6c-1.667-0.267-3.6-0.083-5.8,0.55L69.85,67
					c-2.433-0.433-5-1.233-7.7-2.4c-1.967-0.833-4.383-2.05-7.25-3.65c0.367-0.4,0.967-0.733,1.8-1l2.1-0.6
					c0.133-2.6,0.033-4.45-0.3-5.55c-3.667-2.6-7.1-4.467-10.3-5.6c-4-1.433-7.933-1.833-11.8-1.2
					c-1.467,1.333-2.733,3.083-3.8,5.25c-0.5,0-1.333-0.45-2.5-1.35c-1.333-1.033-2.133-1.617-2.4-1.75l-0.3-0.3
					c-0.2-1.067-1.417-2.25-3.65-3.55v-0.05L23.35,45l-0.85-0.45l-0.05-0.05c-1.833-1.033-2.733-1.9-2.7-2.6
					c0.033-0.533,0.467-0.983,1.3-1.35l1.85-0.85l1.45-1.55l1.4-1.75l4.15,3.5c1.833,1.667,3.167,2.567,4,2.7l9.6,1.2l9.3,0.35
					c4.2,0.267,7.333,0.717,9.4,1.35l-0.1,0.1c-0.367,3.233,0.933,4.967,3.9,5.2c2.733,0.2,5.25-0.7,7.55-2.7
					c1.4,1.5,3.383,2.95,5.95,4.35c2.867,1.567,5.433,2.45,7.7,2.65l6.6-0.05l6.6,0.5c0.4,0.1,1.683,0.75,3.85,1.95
					c1.667,0.933,2.95,1.25,3.85,0.95c1.3,0.233,2.917,1.283,4.85,3.15C115.117,63.667,116.533,64.85,117.2,65.15 M83.6,56.55
					c-1.6,0.067-2.483,0.383-2.65,0.95c1-0.467,2-0.683,3-0.65c1.267,0,2.033,0.45,2.3,1.35c-0.067,1.167-0.917,2-2.55,2.5
					c-1.667,0.5-2.983,0.3-3.95-0.6l0.35-0.75c0.167-0.367,0.133-0.583-0.1-0.65c-0.4,0.933-0.483,1.65-0.25,2.15l4.55-0.1
					c1.433-0.567,2.167-1.583,2.2-3.05C86.2,56.867,85.233,56.483,83.6,56.55 M96.8,64.9c0.4,0.1,0.567,0.4,0.5,0.9
					C97.767,65.2,97.6,64.9,96.8,64.9 M96.2,66.15c-0.433,0.067-0.717-0.017-0.85-0.25c-0.067-0.267,0.033-0.45,0.3-0.55l0.45-0.45
					c-0.367,0-0.633,0.15-0.8,0.45l-0.4,0.75c0.267,0.433,0.65,0.6,1.15,0.5c0.433-0.1,0.817-0.333,1.15-0.7L96.2,66.15"/>
				<path class="st0" d="M118.2,59.75c-0.2-4.567-2.617-8.367-7.25-11.4c2.1,0.767,3.783,2.083,5.05,3.95
					C117.433,54.367,118.167,56.85,118.2,59.75"/>
				<path class="st0" d="M111.25,42.9l-0.8-0.2l-2.5-1.7L111.25,42.9"/>
				<path class="st3" d="M112.4,72.6c-0.367,0.7-1.267,1.4-2.7,2.1c-1.4,0.733-2.267,1.467-2.6,2.2l0.15,0.15l-6.65-4.5
					c-2.6-1.733-5.15-2.467-7.65-2.2c-0.567-1-1.567-1.883-3-2.65l10.95,2.75C105.467,71.65,109.3,72.367,112.4,72.6"/>
				<path class="st0" d="M110.45,42.7c-1-0.467-3.367-1.867-7.1-4.2l-5.6-3.35c0.167-0.1,1.35,0.5,3.55,1.8l6.15,3.75L110.45,42.7"
					/>
				<path class="st0" d="M108.1,58.45c-0.9,0.3-2.183-0.017-3.85-0.95c-2.167-1.2-3.45-1.85-3.85-1.95l-6.6-0.5l-6.6,0.05
					c-2.267-0.2-4.833-1.083-7.7-2.65c-2.567-1.4-4.55-2.85-5.95-4.35c5.5,4.2,10.217,6.45,14.15,6.75h6.6l6.35,0.45
					c0.6,0.167,1.85,0.767,3.75,1.8C106.033,57.967,107.267,58.417,108.1,58.45"/>
				<path class="st0" d="M110.5,8.5l-3.2-1.6c-1.267-0.633-2.533-0.967-3.8-1c1.3-0.467,2.683-0.25,4.15,0.65
					C108.45,7.017,109.4,7.667,110.5,8.5"/>
				<path class="st4" d="M100.6,72.55l6.65,4.5l-0.15,0.1c-0.167,1.833-1.017,3.283-2.55,4.35l-4.65,2.25l-5.15-0.35l-4.25,0.4
					c-1.933,0.7-4.633,1.25-8.1,1.65l-8.6,0.3c-2.633-0.167-5.117-0.7-7.45-1.6c-1.9-0.733-4.233-1.95-7-3.65h0.25
					c-0.3-0.433-0.517-1.117-0.65-2.05l-0.3-2.5l0.75-0.1l-0.5-0.35c0-0.567,0.45-1.433,1.35-2.6c0.933-1.233,1.75-1.967,2.45-2.2
					l-0.55,0.75c-0.267,0.267-0.4,0.567-0.4,0.9c0.7,0.5,1.483,1.5,2.35,3c0.733,1.233,1.467,1.917,2.2,2.05
					c-0.7-0.6-1.417-1.467-2.15-2.6l-1.9-2.9c0.5-0.933,1.5-1.733,3-2.4c0.8-0.4,2.033-0.967,3.7-1.7H68.7
					c0.067-0.067,0.283-0.167,0.65-0.3l0.5-0.5l5.1-1.35c2.2-0.633,4.133-0.817,5.8-0.55c4.133,0.667,7.2,1.533,9.2,2.6
					c1.433,0.767,2.433,1.65,3,2.65C95.45,70.083,98,70.817,100.6,72.55 M97.5,82.45v0.25h-0.2c0.067,0.2,0.383,0.3,0.95,0.3
					l0.95-0.3c-0.133-0.133-0.367-0.217-0.7-0.25H97.5 M81.45,74.05c-0.333-0.2-0.583-0.317-0.75-0.35
					c-0.233-0.1-0.383,0.017-0.45,0.35c0.667-0.1,0.983,0.133,0.95,0.7c-0.067,0.333-0.4,0.433-1,0.3L79.75,75l0.55,0.35l0.65,0.15
					l0.4-0.6L81.45,74.05 M76.2,77.9c-1.433,0.1-1.933,0.567-1.5,1.4c0.367-0.867,1.017-1.267,1.95-1.2
					c1.433,2.267,2.467,3.067,3.1,2.4c-0.933-0.067-1.567-0.383-1.9-0.95C78.117,78.35,77.567,77.8,76.2,77.9 M71.35,80.75
					L70.6,80.5c-0.433-0.067-0.667,0.017-0.7,0.25c0.033,0.1,0.25,0.183,0.65,0.25c0.3,0.033,0.417,0.2,0.35,0.5h-1.2l-0.05-0.45
					l-0.2-0.3c-0.1,0.467-0.017,0.867,0.25,1.2l0.9-0.05l0.75-0.2V80.75"/>
				<path class="st0" d="M103.05,24.1l2.75,1.6c1.233,0.567,2.067,1.167,2.5,1.8l-2.55-1.45l-2.95-1.7l-6.95,0.25l4.5-0.5
					c2.033-0.033,3.417-0.3,4.15-0.8C103.933,23.8,103.45,24.067,103.05,24.1"/>
				<path class="st0" d="M101.65,84.1c-1.533,0.6-2.7,1.2-3.5,1.8c-1.133,0.833-1.9,1.833-2.3,3c-3.2,1.633-7.833,3.283-13.9,4.95
					c-8.067,2.2-12.95,3.6-14.65,4.2c2.433-1.267,7.267-2.867,14.5-4.8c6.467-1.767,11.067-3.617,13.8-5.55
					c0.533-1.6,1.967-2.917,4.3-3.95L101.65,84.1"/>
				<path class="st0" d="M97.5,82.45h1c0.333,0.033,0.567,0.117,0.7,0.25L98.25,83c-0.567,0-0.883-0.1-0.95-0.3h0.2V82.45"/>
				<path class="st0" d="M93.9,33.45c-0.067-0.133,0.583,0.1,1.95,0.7c1.367,0.6,2,0.933,1.9,1c-0.2,0.167-0.867,0-2-0.5L93.9,33.7
					l-2.7-3.85c-1.367-1.933-2.933-2.8-4.7-2.6c1.533-0.467,3.067,0.267,4.6,2.2L93.9,33.45"/>
				<path class="st0" d="M96.8,64.9c0.8,0,0.967,0.3,0.5,0.9C97.367,65.3,97.2,65,96.8,64.9"/>
				<path class="st0" d="M95.35,65.9c0.133,0.233,0.417,0.317,0.85,0.25l1-0.25c-0.333,0.367-0.717,0.6-1.15,0.7
					c-0.5,0.1-0.883-0.067-1.15-0.5l0.4-0.75c0.167-0.3,0.433-0.45,0.8-0.45l-0.45,0.45C95.383,65.45,95.283,65.633,95.35,65.9"/>
				<path class="st0" d="M75.55,27.25c5.833-0.233,9.483-0.233,10.95,0l-8.15,0.25l-7.7-0.25l2.8,0.05l2.65,0.2L75.55,27.25"/>
				<path class="st0" d="M86.25,58.2c-0.267-0.9-1.033-1.35-2.3-1.35c-1-0.033-2,0.183-3,0.65c0.167-0.567,1.05-0.883,2.65-0.95
					c1.633-0.067,2.6,0.317,2.9,1.15c-0.033,1.467-0.767,2.483-2.2,3.05l-4.55,0.1c-0.233-0.5-0.15-1.217,0.25-2.15
					c0.233,0.067,0.267,0.283,0.1,0.65l-0.35,0.75c0.967,0.9,2.283,1.1,3.95,0.6C85.333,60.2,86.183,59.367,86.25,58.2"/>
				<path class="st0" d="M80.35,14.95l1.8,0.55c-1.567,0.167-2.917-0.317-4.05-1.45l-1.2-0.1l-0.75,0.1
					c-0.2-0.367,0.05-0.517,0.75-0.45l1.65,0.2C78.717,14.267,79.317,14.65,80.35,14.95"/>
				<path class="st0" d="M81.35,74.9l-0.4,0.6l-0.65-0.15L79.75,75l0.45,0.05c0.6,0.133,0.933,0.033,1-0.3
					c0.033-0.567-0.283-0.8-0.95-0.7c0.067-0.333,0.217-0.45,0.45-0.35c0.167,0.033,0.417,0.15,0.75,0.35L81.35,74.9"/>
				<path class="st0" d="M79.75,80.5c-0.633,0.667-1.667-0.133-3.1-2.4c-0.933-0.067-1.583,0.333-1.95,1.2
					c-0.433-0.833,0.067-1.3,1.5-1.4c1.367-0.1,1.917,0.45,1.65,1.65C78.183,80.117,78.817,80.433,79.75,80.5"/>
				<path class="st0" d="M76.1,27.5l-2.65-0.2l2.1-0.05L76.1,27.5"/>
				<path class="st4" d="M62.4,45.55l-0.15-0.05c1.7-1.9,3.9-2.75,6.6-2.55c2.567,0.233,4.667,1.317,6.3,3.25
					c-0.367,0.7-0.9,1.333-1.6,1.9c-2.3,2-4.817,2.9-7.55,2.7c-2.967-0.233-4.267-1.967-3.9-5.2l0.1-0.1L62.4,45.55"/>
				<path class="st0" d="M75.55,27.25l-2.1,0.05l-5.95-0.55L75.55,27.25"/>
				<path class="st0" d="M71.35,81.7l-0.75,0.2l-0.9,0.05c-0.267-0.333-0.35-0.733-0.25-1.2l0.2,0.3l0.05,0.45h1.2
					c0.067-0.3-0.05-0.467-0.35-0.5c-0.4-0.067-0.617-0.15-0.65-0.25c0.033-0.233,0.267-0.317,0.7-0.25l0.75,0.25V81.7"/>
				<path class="st0" d="M16.15,42.85c-0.333,1.9-0.167,4.183,0.5,6.85c0.8,3.133,1.2,5.4,1.2,6.8
					c3.033,2.733,5.117,5.617,6.25,8.65l-2.85-4.55c-1.2-1.667-2.5-2.867-3.9-3.6c-1.333,0.833-3.533,1.867-6.6,3.1
					c-2.467,1.333-3.783,3.267-3.95,5.8l0.5,0.6l0.45,0.6c4.133-1.533,8.7-2.083,13.7-1.65c5.333,0.467,9.167,1.967,11.5,4.5
					l7.75,1.4l8.35,0.3c1.567-0.9,3.533-1.533,5.9-1.9l6.8,0.2c0.8-0.467,1.9-0.917,3.3-1.35l3.65-1.05v0.25h0.25
					c-1.667,0.733-2.9,1.3-3.7,1.7c-1.5,0.667-2.5,1.467-3,2.4l1.9,2.9c0.733,1.133,1.45,2,2.15,2.6
					c-0.733-0.133-1.467-0.817-2.2-2.05c-0.867-1.5-1.65-2.5-2.35-3c0-0.333,0.133-0.633,0.4-0.9l0.55-0.75
					c-0.7,0.233-1.517,0.967-2.45,2.2c-0.9,1.167-1.35,2.033-1.35,2.6l0.5,0.35l-0.75,0.1l0.3,2.5c0.133,0.933,0.35,1.617,0.65,2.05
					h-0.25v0.25c-1.267-1.7-1.533-3.6-0.8-5.7c0.3-0.767,1.217-2.383,2.75-4.85c-1.833-0.333-3.933-0.333-6.3,0
					c-2.6,0.333-4.433,0.967-5.5,1.9c-2.433,0.367-4.983,0.333-7.65-0.1l-6.75-1.55l-1.5-0.2l-1.35-0.3l-0.95-0.8l-1-0.85
					c-2.2-1.233-6.117-2.117-11.75-2.65l-5.4,0.5C11.917,66.45,10.2,67,8,67.8c-0.267-0.3-0.65-0.567-1.15-0.8
					c-0.333-0.167-0.517-0.383-0.55-0.65L3.6,66.4l-2.3,0.2l-0.9,0.5c-0.4,0.2-0.5,0.117-0.3-0.25c1.167-0.567,3.167-0.883,6-0.95
					c-0.2-2.667,0.983-4.783,3.55-6.35l7.25-3.25l-1.45-7.6c-0.667-3.033-0.517-5.467,0.45-7.3c3.5-0.367,6.533-2.167,9.1-5.4
					l0.75,0.4l-1.4,1.75L22.9,39.7l-1.85,0.85c-0.833,0.367-1.267,0.817-1.3,1.35c-0.033,0.7,0.867,1.567,2.7,2.6l-1.55-0.6
					l-1.4-1.05c-0.3-0.7-0.217-1.267,0.25-1.7C18.717,41.417,17.517,41.983,16.15,42.85"/>
				<path class="st5" d="M19.75,41.15c-0.467,0.433-0.55,1-0.25,1.7l1.4,1.05l1.55,0.6l0.05,0.05l1.25,0.7v0.05l1.75,1.6l1.9,1.95
					l0.05,0.25l0.25,0.05c2,2.067,3.633,3.1,4.9,3.1l-0.5,1.05c1.4,3.133,3.917,5.55,7.55,7.25c2.567,1.2,6.017,2.15,10.35,2.85
					c0.567-0.133,1.383-0.567,2.45-1.3c0.967-0.7,1.783-1.083,2.45-1.15c2.867,1.6,5.283,2.817,7.25,3.65
					c2.7,1.167,5.267,1.967,7.7,2.4l-0.5,0.5c-0.367,0.133-0.583,0.233-0.65,0.3v-0.25l-3.65,1.05c-1.4,0.433-2.5,0.883-3.3,1.35
					l-6.8-0.2c-2.367,0.367-4.333,1-5.9,1.9l-8.35-0.3l-7.75-1.4c-2.333-2.533-6.167-4.033-11.5-4.5c-5-0.433-9.567,0.117-13.7,1.65
					L7.3,66.5l-0.5-0.6c0.167-2.533,1.483-4.467,3.95-5.8c3.067-1.233,5.267-2.267,6.6-3.1c1.4,0.733,2.7,1.933,3.9,3.6l2.85,4.55
					c-1.133-3.033-3.217-5.917-6.25-8.65c0-1.4-0.4-3.667-1.2-6.8c-0.667-2.667-0.833-4.95-0.5-6.85
					C17.517,41.983,18.717,41.417,19.75,41.15"/>
				<path class="st0" d="M67.5,26.75H52.9l0.45-0.15l2.5-0.6H55.7l2.2-0.2L67.5,26.75"/>
				<path class="st0" d="M64.15,18.85l0.4,0.4l-0.4-0.15c-0.733-0.2-2.333,0.017-4.8,0.65c-1.667,0.433-2.7-0.033-3.1-1.4
					c0.267,0.033,0.4,0.15,0.4,0.35c0,0.267,0.1,0.467,0.3,0.6l3.7-0.4C61.983,18.6,63.15,18.583,64.15,18.85"/>
				<path class="st0" d="M62.25,45.5H62.2c-2.067-0.633-5.2-1.083-9.4-1.35l-9.3-0.35l-9.6-1.2c-0.833-0.133-2.167-1.033-4-2.7
					l-4.15-3.5l0.15-0.15c0.667,0.3,2.017,1.417,4.05,3.35c1.8,1.733,3.117,2.65,3.95,2.75L38.45,43l4.85,0.55l9.35,0.3
					C56.75,44.117,59.95,44.667,62.25,45.5"/>
				<path class="st0" d="M58.9,29.4c0-0.267,0.1-0.3,0.3-0.1l0.15,0.6l-1.8,0.15C58.383,29.883,58.833,29.667,58.9,29.4"/>
				<path class="st4" d="M32.6,52.25c1.067-2.167,2.333-3.917,3.8-5.25c3.867-0.633,7.8-0.233,11.8,1.2c3.2,1.133,6.633,3,10.3,5.6
					c0.333,1.1,0.433,2.95,0.3,5.55l-2.1,0.6c-0.833,0.267-1.433,0.6-1.8,1c-0.667,0.067-1.483,0.45-2.45,1.15
					c-1.067,0.733-1.883,1.167-2.45,1.3c-4.333-0.7-7.783-1.65-10.35-2.85c-3.633-1.7-6.15-4.117-7.55-7.25L32.6,52.25 M37.05,56.5
					C37.017,57,37.3,57.167,37.9,57c0.6-0.2,0.8-0.517,0.6-0.95c-0.567-0.1-0.9,0.05-1,0.45c0.333,0.1,0.5,0.183,0.5,0.25
					L37.05,56.5 M53.6,56.5c-1.933,0.067-2.967,0.8-3.1,2.2c0.167-0.533,0.6-0.983,1.3-1.35L53.6,56.5 M51.9,55.3
					c0.2-0.533-0.017-0.983-0.65-1.35c-0.8-0.433-1.05-0.45-0.75-0.05l0.75,0.55c0.267,0.233,0.417,0.517,0.45,0.85
					c-1.167,0-1.5,0.083-1,0.25L51.9,55.3 M47.6,56.05c-1.067-0.733-1.783-0.9-2.15-0.5c0.733,0.067,1.217,0.233,1.45,0.5l0.05,0.85
					c-0.067,0.433-0.017,0.783,0.15,1.05l0.6,0.45c0.167,0.167,0.3,0.267,0.4,0.3l1,0.05l-1.5-1.25V56.05"/>
				<path class="st0" d="M50.1,15.45c2.667-0.767,4.717-1.8,6.15-3.1v0.25h0.25c-0.733,1.133-2.067,2.083-4,2.85l-4.9,1.95
					c-0.833-0.667-1.75-0.733-2.75-0.2c-1.067,0.533-1.583,1.4-1.55,2.6c0.967,0.267,2.1,0.133,3.4-0.4
					c1.267-0.5,2.117-0.683,2.55-0.55c-0.5,0.067-1.4,0.383-2.7,0.95c-1.067,0.5-2.15,0.667-3.25,0.5
					c-0.867,0.3-2.35,1.333-4.45,3.1c-1.733,1.4-3.533,2.117-5.4,2.15c-0.333,0.533-1.433,1.167-3.3,1.9
					c-1.533,0.6-2.35,1.483-2.45,2.65l2.75-0.35L27.7,30.6c-0.3,0.6-0.55,1.717-0.75,3.35l2.6,0.05c1.767-0.633,2.983-0.967,3.65-1
					l8.6,0.2l8.8-0.5l-0.15,0.1l-5.7,0.75l-5.05,0.4l-6.3-0.15c-2.333-0.067-4.233,0.3-5.7,1.1c-0.633,0.233-1.233,0.683-1.8,1.35
					L25,36l1-1.3c0.333-3.1,0.733-5.267,1.2-6.5l2-1.1l2.1-1.05l0.95-0.8c0.367-0.333,0.683-0.55,0.95-0.65l1.4-0.1l1.5-0.15
					c0.833-0.267,1.833-1.017,3-2.25c1.133-1.2,2.133-1.883,3-2.05c0.3-1,0.7-1.967,1.2-2.9L50.1,15.45"/>
				<path class="st0" d="M55.85,26l-2.5,0.6L55.7,26H55.85"/>
				<path class="st0" d="M43.05,28.3l-6.75,0.6h-1c11.867-2.067,18.667-3.033,20.4-2.9l-2.35,0.6L43.05,28.3"/>
				<path class="st0" d="M53.6,56.5l-1.8,0.85c-0.7,0.367-1.133,0.817-1.3,1.35C50.633,57.3,51.667,56.567,53.6,56.5"/>
				<path class="st0" d="M50.95,37.55l0.65,0.05c0.333,0.233,0.433,0.533,0.3,0.9c-0.133,0-0.283,0.05-0.45,0.15l-0.5,0.1
					c-0.267-0.1-0.233-0.183,0.1-0.25l0.65-0.2L50.95,37.55"/>
				<path class="st0" d="M50.5,53.9c-0.3-0.4-0.05-0.383,0.75,0.05c0.633,0.367,0.85,0.817,0.65,1.35l-1.2,0.25
					c-0.5-0.167-0.167-0.25,1-0.25c-0.033-0.333-0.183-0.617-0.45-0.85L50.5,53.9"/>
				<path class="st0" d="M50,19.3c-0.1,0.333-0.233,0.383-0.4,0.15l-0.3-0.6L50,19.3"/>
				<path class="st0" d="M47.7,58.4l-0.6-0.45c-0.167-0.267-0.217-0.617-0.15-1.05l-0.05-0.85c-0.233-0.267-0.717-0.433-1.45-0.5
					c0.367-0.4,1.083-0.233,2.15,0.5v1.45l1.5,1.25l-1-0.05C48,58.667,47.867,58.567,47.7,58.4"/>
				<path class="st3" d="M42.85,39.4c0.333,0.433,0.417,0.9,0.25,1.4c-0.367,0.467-0.933,0.7-1.7,0.7
					c-0.767-0.033-1.217-0.35-1.35-0.95c-0.333-0.6-0.067-1.033,0.8-1.3L42.85,39.4"/>
				<path class="st0" d="M38.5,56.05c0.2,0.433,0,0.75-0.6,0.95c-0.6,0.167-0.883,0-0.85-0.5L38,56.75c0-0.067-0.167-0.15-0.5-0.25
					C37.6,56.1,37.933,55.95,38.5,56.05"/>
				<path class="st0" d="M32.6,52.25c-1.267,0-2.9-1.033-4.9-3.1c0.267,0.133,1.067,0.717,2.4,1.75
					C31.233,51.8,32.067,52.25,32.6,52.25"/>
				<path class="st0" d="M25.9,36.25l-0.15,0.15L25,36L25.9,36.25"/>
				<path class="st0" d="M27.4,48.85l-1.9-1.95l-1.75-1.6C25.983,46.6,27.2,47.783,27.4,48.85"/>
				<path class="st6" d="M62.1,45.6c-0.367,3.233,0.933,4.967,3.9,5.2c2.733,0.2,5.25-0.7,7.55-2.7c0.7-0.567,1.233-1.2,1.6-1.9
					c-1.633-1.933-3.733-3.017-6.3-3.25c-2.7-0.2-4.9,0.65-6.6,2.55H62.2L62.1,45.6z"/>
				<path class="st7" d="M41.4,41.5c-0.767-0.033-1.217-0.35-1.35-0.95c-0.333-0.6-0.067-1.033,0.8-1.3l2,0.15
					c0.333,0.433,0.417,0.9,0.25,1.4C42.733,41.267,42.167,41.5,41.4,41.5z"/>
				<path class="st8" d="M50.6,32.7l5.55-0.4l5.8,0.55l9.75,0.65c3.867,0.367,7.017,1.017,9.45,1.95
					c4.433,1.733,9.15,3.183,14.15,4.35c2.233,0.533,5.35,2.033,9.35,4.5s6.717,4.583,8.15,6.35"/>
				<path class="st6" d="M124.15,12.25c3.267-2.5,6.967-3.717,11.1-3.65c3.967,0.067,7.7,1.317,11.2,3.75l0.05,1.35"/>
				<path class="st9" d="M59.35,80.5c2.767,1.7,5.1,2.917,7,3.65c2.333,0.9,4.817,1.433,7.45,1.6l8.6-0.3
					c3.467-0.4,6.167-0.95,8.1-1.65l4.25-0.4l5.15,0.35l1.75,0.35"/>
				<path class="st10" d="M56.25,12.6c0.8-0.933,2.367-1.567,4.7-1.9c2.867-0.4,4.883-0.9,6.05-1.5c2.2-1.167,5.367-2.167,9.5-3
					c3.667-0.767,6.45-1.817,8.35-3.15C85.683,2.983,86.4,3.1,87,3.4l5.3,0.2l5.5-0.3l10.05-1.25l5.5-0.2
					c1.967-0.133,3.433-0.467,4.4-1c0.533-0.3,1.25-0.483,2.15-0.55c1.1-0.1,1.967,0.067,2.6,0.5l8.7,0.7
					c3.6,0.4,6.5,0.383,8.7-0.05"/>
				<path class="st9" d="M69.85,67l5.1-1.35c2.2-0.633,4.133-0.817,5.8-0.55c4.133,0.667,7.2,1.533,9.2,2.6
					c1.433,0.767,2.433,1.65,3,2.65c2.5-0.267,5.05,0.467,7.65,2.2l6.65,4.5"/>
				<path class="st10" d="M69.85,67l-0.5,0.5c-0.367,0.133-0.583,0.233-0.65,0.3"/>
				<path class="st6" d="M54.9,60.95c2.867,1.6,5.283,2.817,7.25,3.65c2.7,1.167,5.267,1.967,7.7,2.4"/>
				<path class="st6" d="M39.65,60.55c2.567,1.2,6.017,2.15,10.35,2.85c0.567-0.133,1.383-0.567,2.45-1.3
					c0.967-0.7,1.783-1.083,2.45-1.15c0.367-0.4,0.967-0.733,1.8-1l2.1-0.6c0.133-2.6,0.033-4.45-0.3-5.55
					c-3.667-2.6-7.1-4.467-10.3-5.6c-4-1.433-7.933-1.833-11.8-1.2c-1.467,1.333-2.733,3.083-3.8,5.25l-0.5,1.05
					C33.5,56.433,36.017,58.85,39.65,60.55z"/>
			</g>
		</g>
	</g>
	<path class="st11" d="M120.25,65.45c-1.1,2.567-3.4,6.033-6.9,10.4l-5.85,6.65c-2.5,2.567-4.467,4.267-5.9,5.1
		c-0.467,0.267-1.133,0.467-2,0.6l-1.9,0.4l-2.85,1.85c-1.1,0.733-1.95,1.083-2.55,1.05c-2.767-0.133-4.417-2.033-4.95-5.7
		c-0.2-4.6-0.667-7.917-1.4-9.95c-0.4-1.133-1.133-2.317-2.2-3.55c-1.1-1.267-1.833-2.367-2.2-3.3c0.3-1.6,1.05-3.033,2.25-4.3
		c0.633-0.7,1.833-1.7,3.6-3c-0.167-1.733-1.5-3.183-4-4.35c-2.567-1.2-4-2.533-4.3-4c0.933-0.133,1.817,0.05,2.65,0.55
		c0.967,0.6,1.717,0.917,2.25,0.95c-0.767-0.967-1.25-2.383-1.45-4.25c-0.167-1.833-0.017-3.517,0.45-5.05
		c-3.267-2.833-10.15-4.933-20.65-6.3C51.683,37.883,44.7,35.9,41.4,33.3l-5.85,1.35c-2.467,0.467-4.417,0.5-5.85,0.1
		c-0.2-0.767-0.067-1.433,0.4-2c0.467-0.633,0.65-1.267,0.55-1.9c1.533-0.867,3.767-1.65,6.7-2.35c3.1-0.767,5.267-1.45,6.5-2.05
		c0.933-0.433,1.867-1.167,2.8-2.2c0.933-1.067,1.8-1.8,2.6-2.2c2.733-1.367,5.75-2.183,9.05-2.45l8.1,0.5c0.9,0.2,2.7,1,5.4,2.4
		c2.367,1.2,4.467,1.867,6.3,2l7.9-0.75l7.8-0.25c2.333,0.467,5.417,1.783,9.25,3.95c3.967,2.2,6.583,4.15,7.85,5.85
		c1.067,1.433,2.667,4.633,4.8,9.6c1.833,4.3,3.817,7.467,5.95,9.5C122.45,57.133,121.983,61.483,120.25,65.45"/>
	<path class="st11" d="M75.2,47c0.8,0.867,1.217,1.95,1.25,3.25c0.033,1.167-0.233,2.367-0.8,3.6c-1.167,0.567-2.633,0.8-4.4,0.7
		c-1.7-0.1-3.167-0.5-4.4-1.2c-0.7-2.033,0.017-3.567,2.15-4.6L75.2,47"/>
	<path class="st11" d="M64.9,64.15c-1.733,1.1-4.167,1.767-7.3,2c-3.533,0.267-5.833-0.4-6.9-2c-0.167-1.367,0.383-2.717,1.65-4.05
		c1.167-1.267,1.6-2.7,1.3-4.3c1.067-1.633,2.383-2.55,3.95-2.75c1.467-0.167,2.883,0.283,4.25,1.35
		C65.083,56.867,66.1,60.117,64.9,64.15"/>
</g>
</svg>
