<?xml version="1.0" encoding="utf-8"?>
<!-- Generator: Adobe Illustrator 24.0.1, SVG Export Plug-In . SVG Version: 6.00 Build 0)  -->
<svg version="1.1" id="Camada_1" xmlns="http://www.w3.org/2000/svg" xmlns:xlink="http://www.w3.org/1999/xlink" x="0px" y="0px"
	 viewBox="0 0 87.522 78.913" style="enable-background:new 0 0 87.522 78.913;" xml:space="preserve">
<style type="text/css">
	.st0{fill-rule:evenodd;clip-rule:evenodd;fill:#545F6B;}
	.st1{fill-rule:evenodd;clip-rule:evenodd;fill:#7F757F;}
	.st2{fill-rule:evenodd;clip-rule:evenodd;fill:#756D70;}
	.st3{fill-rule:evenodd;clip-rule:evenodd;fill:#8B8388;}
	.st4{fill:none;stroke:#545F6B;stroke-width:0.3;stroke-linecap:round;}
	.st5{fill:none;stroke:#545F6B;stroke-width:0.4;stroke-linecap:round;}
	.st6{fill:none;stroke:#545F6B;stroke-width:0.45;stroke-linecap:round;}
	.st7{fill:none;stroke:#545F6B;stroke-width:0.5;stroke-linecap:round;}
	.st8{opacity:0.5;fill-rule:evenodd;clip-rule:evenodd;fill:#100C4D;}
</style>
<g transform="matrix(1.0, 0.0, 0.0, 1.0, 0.0, 0.0)">
	<g transform="matrix(1.0, 0.0, 0.0, 1.0, 0.0, 0.0)">
		<g id="shape0" transform="matrix(1.0, 0.0, 0.0, 1.0, 0.0, 0.0)">
			<path class="st0" d="M86.4,62.274l-1.15-0.7c-0.667-0.467-1.317-0.633-1.95-0.5c-0.167-1.2-0.783-2.067-1.85-2.6l-3.65-0.3
				l-0.3,1.25c-0.2,0.533-0.183,0.85,0.05,0.95l-1.65,1.8l-1.7,1.8l1.65,0.95c-1.8,0.067-3.367,0.483-4.7,1.25
				c-1.5,0.867-2.483,2.05-2.95,3.55c-2,0.2-3.467,0.6-4.4,1.2c-1.267,0.8-1.883,2.083-1.85,3.85c-0.433-0.533-0.483-1.233-0.15-2.1
				l1.1-2c-1.167-0.1-3.217-0.767-6.15-2c-2.4-1-4.833-1.3-7.3-0.9c-0.067,0.267-0.033,0.483,0.1,0.65l0.15,0.55
				c-0.833-1.167-1.633-1.483-2.4-0.95c-0.267-0.133-0.167-0.25,0.3-0.35l1.15-0.1l-0.2-1.15l-0.05-1.25l-5.45-0.55
				c-2.3-0.033-3.767,0.7-4.4,2.2c-0.033,0.267,0.05,0.483,0.25,0.65l0.5,0.3l-2.05-0.45l-2.3-0.25c-0.967-1.167-2.167-2-3.6-2.5
				c-1.7-0.567-3.3-0.45-4.8,0.35c1.1,0.567,1.883,1.067,2.35,1.5c0.767,0.667,1.267,1.45,1.5,2.35
				c-1.567-2.067-4.283-3.35-8.15-3.85v-1.4c-0.033-0.567-0.2-0.667-0.5-0.3c0.333-0.733,0.083-1.417-0.75-2.05
				c-0.867-0.6-1.917-0.8-3.15-0.6c0.233-0.1,0.367-0.5,0.4-1.2c0.033-0.8-0.233-1.117-0.8-0.95c0.967-1.633,0.533-3.25-1.3-4.85
				c-1.867-1.6-3.75-1.983-5.65-1.15l-1.95-1.35c-0.733-0.533-1.533-0.8-2.4-0.8c-0.333-2.167-0.917-3.817-1.75-4.95
				c-1.033-1.367-2.533-2.117-4.5-2.25c0.233-0.433,0.783-0.6,1.65-0.5c0.733,0.067,1.317,0.233,1.75,0.5
				c0.367-0.067,0.717-0.283,1.05-0.65l0.85-0.8c1.3-0.2,3.017-0.2,5.15,0c2.133,0.167,3.7,0.167,4.7,0
				c0.7-0.133,1.767-0.55,3.2-1.25l3.75-1.85l5.2-2.35c1.567-0.667,3.2-1.167,4.9-1.5v0.25h0.2c-1.667,0.833-3.267,2.067-4.8,3.7
				c-0.967,1-2.233,2.567-3.8,4.7c-0.867,0-2.133,0.483-3.8,1.45c-1.733,1-3.267,1.55-4.6,1.65l-5.2-0.9
				c-2.333-0.367-3.567,0.017-3.7,1.15H6.25v0.25c0.3,0.333,0.383,1.217,0.25,2.65c0.633-0.167,1.317,0.1,2.05,0.8
				c0.933,0.8,1.617,1.25,2.05,1.35l3.95,0.2c1.467,0.133,2.467,0.783,3,1.95l-0.15,0.35l0.4,0.15l0.6,0.9l0.6,1
				c1.333-1.3,3.633-2.633,6.9-4c3.767-1.6,6.267-2.833,7.5-3.7l2.7-2.7c1.033-1.167,1.967-1.933,2.8-2.3l2.65-0.55l2.65-0.45
				l5.3-2.25c2.2-1.033,3.95-1.717,5.25-2.05c-0.667,0.667-1.7,1.267-3.1,1.8l-3.85,1.3c-3.133,1.267-6.183,2.067-9.15,2.4
				l-1.85,1.75l-1.75,1.85c0.433,0.8,1.45,1.35,3.05,1.65l3.7,1c1.133-0.9,3.017-1.667,5.65-2.3c2.767-0.7,4.633-1.367,5.6-2
				c0.667-0.433,1.6-1.433,2.8-3c1.167-1.5,2.15-2.5,2.95-3l-1.7-0.8c-0.733-0.333-1.2-0.717-1.4-1.15
				c0.867,0.233,2.017,0.833,3.45,1.8c1.2,0.8,2.367,1.25,3.5,1.35c-0.233-0.4-0.3-1.133-0.2-2.2l-0.05-1.9
				c-0.133-0.1-0.817-0.1-2.05,0h-2.5c0.433-0.267,1.183-0.417,2.25-0.45h2.1c-0.067-0.7-0.033-1.583,0.1-2.65l0.1-2.65l1.05-1.15
				c0.433-0.467,0.417-0.8-0.05-1c-0.6-0.067-1.017,0.667-1.25,2.2c-0.233,1.767-0.55,2.783-0.95,3.05l0.5-2.5
				c0.133-1.4,0.3-2.317,0.5-2.75c0.133-0.3,0.433-0.633,0.9-1l0.75-0.95c0.4-1.633,0.15-3.267-0.75-4.9l-2.6-3.95l0.05,2.3
				c0,0.967-0.1,1.633-0.3,2v-0.25H60c0.367-1.9,0.2-3.867-0.5-5.9l-1.4-4.4c-0.567-0.233-1.35-0.883-2.35-1.95
				c-1-1.033-1.817-1.667-2.45-1.9l-2.6,0.25l-2.7,0.5c-0.4-0.067-1.45-0.85-3.15-2.35c-1.333-1.167-2.683-1.35-4.05-0.55
				c0.167,0.5,0.633,1,1.4,1.5l1.5,1.4l-0.35,4.05c-0.133,1.667-0.333,2.95-0.6,3.85l1.45-0.5c0.6-0.233,1.067-0.233,1.4,0
				c-0.967,0.367-1.683,0.65-2.15,0.85l-1.85,1.15c0.567-0.867,0.967-2.167,1.2-3.9l0.4-5.05c-0.667-0.3-1.583-0.9-2.75-1.8
				l-2.75-1.8c-0.1,0.7-0.4,1.333-0.9,1.9l0.3-1.5c0.1-0.633,0.3-0.85,0.6-0.65c-0.567-0.4-1.6-0.867-3.1-1.4s-2.55-1.017-3.15-1.45
				c-0.8,1.3-1.283,3.217-1.45,5.75c-0.833-0.1-1.9,0.167-3.2,0.8l-3.25,1.35c0.2,0.267,0.6,0.5,1.2,0.7l1.45,0.5l-1.2,0.05
				l-1.2-0.5c-0.1,0.2,0.017,0.583,0.35,1.15l0.85,1.25c-0.367,0-0.783-0.417-1.25-1.25l-1.15-1.9l-2.65,0.25
				c1.5-0.033,3.133-0.417,4.9-1.15c2.5-1,4.067-1.583,4.7-1.75c0.467-2.267,0.95-3.933,1.45-5l-8.75,1.5L13,5.874l-2.2,4.55
				c0.267,0.367,0.783,0.617,1.55,0.75l1.85,0.45l-1.1,0.15l-1.1-0.4l3.15,5.3c1.133,1.8,2.15,3.083,3.05,3.85
				c-3.4-2.533-5.7-3.583-6.9-3.15l-2.7-2.05c-0.967-0.867-1.667-1.783-2.1-2.75c1.233-2.767,2.6-5,4.1-6.7H9.45L11,5.324l2,0.05
				l14-3c5.667-0.667,9.8,0.333,12.4,3c1.533-1,3.183-1.15,4.95-0.45C45.783,5.491,47,6.441,48,7.774c2.1-1.067,4.2-1.05,6.3,0.05
				c1.2,0.633,2.7,1.9,4.5,3.8c0.367,1.8,1.05,3.583,2.05,5.35c1,1.767,2.167,3.267,3.5,4.5l0.3,3.35l0.15,3.15
				c-0.033,0.9,0.367,1.783,1.2,2.65l2.65,2.6c-0.033,3.167,0.217,6.367,0.75,9.6l-1.45,2.4c0.767,0.733,1.1,1.917,1,3.55l-0.55,4.4
				c-0.5,0.033-0.967,0.2-1.4,0.5l-1,0.9l1.35-0.05c0.6-0.267,0.717-0.65,0.35-1.15c1.067,1.067,3.3,1.633,6.7,1.7
				c0.033,0.7,0.517,1.267,1.45,1.7c1,0.433,1.567,0.9,1.7,1.4c1.233-0.667,2.483-0.767,3.75-0.3c1.367,0.467,2.117,1.367,2.25,2.7
				l1.65,0.65C85.767,61.491,86.167,61.841,86.4,62.274 M40.6,19.774c-0.467,0.067-0.717,0-0.75-0.2l0.25-0.25l-0.25-0.25
				c-0.633-1.133-1.817-2.5-3.55-4.1c-1.8-1.7-3.017-3.05-3.65-4.05l-0.1-0.35l0.1-0.4c0.933-1.133,2.3-2,4.1-2.6l-1.15,0.9
				c-1.5,0.9-2.4,1.633-2.7,2.2l7.9,8.4l0.2-0.2L40.6,19.774 M46.6,48.824c-2.467,1.267-4.067,1.917-4.8,1.95
				c-0.867,0.033-2.2-0.25-4-0.85c-1.7-0.533-3.017-0.733-3.95-0.6c-0.867,0.133-2.017,0.55-3.45,1.25l-3.5,1.85l-7.55,4l-0.15-0.15
				c-0.233,0.333-0.3,0.733-0.2,1.2v0.25h0.2c-0.2,0.4-0.35,1.2-0.45,2.4l2.05,0.25l1.55,0.7c2.267-1.967,5.067-3.3,8.4-4
				c3.967-0.867,7.317-0.417,10.05,1.35c1.267-0.6,3.417-1.35,6.45-2.25c2.5-0.733,4.433-1.583,5.8-2.55
				c0.7-0.5,1.55-1.517,2.55-3.05c0.933-1.5,1.767-2.483,2.5-2.95c0.833-0.5,2.1-1.017,3.8-1.55l3.9-1.55l-1.35-0.25l-1.3-0.25v-1.9
				l-1.6-0.85c-0.6-0.4-1.183-0.6-1.75-0.6l-1.5,1.65c-0.567,0.733-1.117,1.217-1.65,1.45c0.167-0.267,0.5-0.617,1-1.05l0.95-1.1
				c-0.867,0.4-1.95,1.317-3.25,2.75c-1.267,1.433-2.433,2.367-3.5,2.8l-2.4,0.75L46.6,48.824 M56.3,50.424
				c-0.533,0.833-0.9,1.667-1.1,2.5c-2.267,1.433-5.933,3.033-11,4.8l-3.6,1.05c-1.467,0.467-2.033,0.833-1.7,1.1
				c-0.5-0.167-1.133-0.067-1.9,0.3l-1.95,0.65l-0.95-0.3l-0.95-0.4c-3.467-0.667-6.917,0.05-10.35,2.15
				c0.233,0.733,0.317,1.45,0.25,2.15c1.333,0.067,2.383,0.317,3.15,0.75c1.1-1.367,2.75-1.783,4.95-1.25
				c2,0.467,3.383,1.35,4.15,2.65l1.4,0.2l1.5,0.05c0.6-1.7,2.033-2.6,4.3-2.7l6,0.3c0.067-4.167,1.183-6.883,3.35-8.15
				c1.133-0.7,3.25-1.033,6.35-1c3.3,0,5.5-0.233,6.6-0.7c0.533-0.2,1.083-0.667,1.65-1.4c0.567-0.767,1.067-1.25,1.5-1.45
				l0.05-2.35l0.2-2.2l-0.9-1.15l-1.05-1.05c-0.933,0.133-2.283,0.65-4.05,1.55c-2,1-3.45,1.617-4.35,1.85L56.3,50.424 M62.9,37.324
				c-0.333,2.033-0.017,3.633,0.95,4.8c0.5,0.6,1.617,1.4,3.35,2.4c1-0.567,1.367-1.917,1.1-4.05l-0.6-5.55
				c-0.033,1.067-0.5,1.9-1.4,2.5c-0.9,0.533-1.867,0.65-2.9,0.35l1.8-0.55l1.8-0.65c0-0.433,0.117-0.983,0.35-1.65l0.35-1.7
				l-1.7-1.45c-0.567,1.733-0.8,3.1-0.7,4.1l-1.1,0.8L62.9,37.324 M65.25,33.524c0.167-1.833-0.217-3.133-1.15-3.9
				c-0.733,0.567-1.217,1.783-1.45,3.65c-0.267,1.867-0.1,3.133,0.5,3.8C64.35,36.574,65.05,35.391,65.25,33.524 M64.7,43.174
				c-0.267-0.233-0.55-0.35-0.85-0.35c0.033,0.433-0.05,0.75-0.25,0.95l1-0.05l0.95-0.15C65.283,43.574,65,43.441,64.7,43.174
				 M12.5,5.874c-1.167,0.033-2.233,0.817-3.2,2.35l-2.3,3.9c0.8,1.7,1.783,2.917,2.95,3.65c1.367,0.9,3.1,1.2,5.2,0.9l-2.4-3.35
				c-0.967-1.3-2.017-2.183-3.15-2.65c0.733-0.333,1.317-1.033,1.75-2.1L12.5,5.874 M4.95,44.174c0.4,0.4,0.6,0.833,0.6,1.3
				c1.4-1.067,3.167-1.317,5.3-0.75l5,1c0.9-0.1,2.133-0.567,3.7-1.4c1.567-0.833,2.9-1.333,4-1.5c0.3-0.8,1.317-2.083,3.05-3.85
				l2.45-2.85H28.8c-2.067,0.7-4.467,1.683-7.2,2.95l-6.95,3.3l0.15-0.45l-0.6-0.05H8.55c-2.2,0.033-3.683,0.433-4.45,1.2
				L4.95,44.174 M33.2,59.024c-1.567-0.1-2.633,0.1-3.2,0.6l3.85,0.4c1.333,0.333,2.3,0.2,2.9-0.4L33.2,59.024 M73.95,56.524
				c-1.433-0.833-3.2-1.183-5.3-1.05c-2.133,0.1-3.65,0.683-4.55,1.75c0.767,2.267,2.45,3.2,5.05,2.8
				c2.067-0.333,3.983-1.267,5.75-2.8c-0.8-0.3-1.783-0.117-2.95,0.55c-1.3,0.767-2.083,1.15-2.35,1.15l2.1-1.25L73.95,56.524
				 M77.05,59.574l-0.25-1.6c-1,0.6-2.317,1.583-3.95,2.95l-3.95,3.05l-0.85,1c-0.333,0.433-0.683,0.5-1.05,0.2
				c-0.033-0.267,0.15-0.4,0.55-0.4s0.617-0.2,0.65-0.6l-2.15,0.2c2.033-0.4,3.967-1.333,5.8-2.8l4.5-4.1
				c-0.8-0.067-2.1,0.483-3.9,1.65c-1.867,1.2-3.367,1.767-4.5,1.7c-2.1-0.1-3.55-1.383-4.35-3.85c0.133-0.3,0.483-0.55,1.05-0.75
				l1.15-0.65l-9.6,0.5c-3.633,0.3-5.633,1.65-6,4.05c0.6,0.667,1.55,1.3,2.85,1.9c0.2-0.567,1.033-0.95,2.5-1.15l3.25-0.3
				l-2.75,0.55l-2.75,0.65c-0.267,0.867-0.1,1.433,0.5,1.7l-0.05-0.75c-0.033-0.333,0.05-0.483,0.25-0.45l2.05-0.5l2.3-0.2l1.7-1.05
				c0.733-0.433,1.2-0.483,1.4-0.15l-3.1,1.45c-1.067,0.633-1.867,1.35-2.4,2.15l1.05,0.4l0.85,0.55l-1-0.3
				c-0.4-0.1-0.7-0.25-0.9-0.45c-0.333,0-0.65,0.2-0.95,0.6c-0.3,0.4-0.633,0.6-1,0.6l-1.1-2.2c-0.467-0.9-1.05-1.433-1.75-1.6
				l-0.85,0.8l-1.1,0.6v4.35c2.133-0.3,4.167-0.267,6.1,0.1c1.967,0.4,3.533,1.083,4.7,2.05l0.05-1.6l-0.25-1.3
				c0.667,0.467,1.217,0.067,1.65-1.2l-1.55,0.1c-0.5,0.4-0.867,0.533-1.1,0.4l0.35-0.4l-0.55-0.3c0.667-0.7,1.533-1.183,2.6-1.45
				l0.75,0.55c0.3,0.267,0.617,0.4,0.95,0.4l2.55-0.15c-2.167,0.4-3.817,1.25-4.95,2.55v1.6l-0.25,1.3l3.6,0.15l3.6-0.65
				c0.967-1.5,2.567-3.1,4.8-4.8l5.3-4.3C77.283,60.541,77.117,60.274,77.05,59.574 M53.95,64.024c-0.067,0.4,0.117,0.7,0.55,0.9
				c0.7-1.033,1.583-2,2.65-2.9l-1.45,0.4l-1.45,0.35L53.95,64.024 M49.2,62.774l1.4-1.25c0.133-0.433-0.167-0.9-0.9-1.4l-0.6,1.25
				C48.867,61.941,48.9,62.407,49.2,62.774"/>
			<path class="st1" d="M76.8,57.974l0.25,1.6c0.067,0.7,0.233,0.967,0.5,0.8l-5.3,4.3c-2.233,1.7-3.833,3.3-4.8,4.8l-3.6,0.65
				l-3.6-0.15l0.25-1.3v-1.6c1.167-1.333,2.867-2.2,5.1-2.6l0.4-0.05l0.05-0.05l2.15-0.2c-0.033,0.4-0.25,0.6-0.65,0.6
				s-0.583,0.133-0.55,0.4c0.367,0.3,0.717,0.233,1.05-0.2l0.85-1l3.95-3.05C74.483,59.557,75.8,58.574,76.8,57.974"/>
			<path class="st1" d="M71.85,61.574c-1.833,1.467-3.767,2.4-5.8,2.8L66,64.424l-0.4,0.05l-2.7,0.2c-0.333,0-0.65-0.133-0.95-0.4
				l-0.75-0.55c-1.067,0.267-1.933,0.75-2.6,1.45l0.55,0.3l-0.35,0.4c0.233,0.133,0.6,0,1.1-0.4l1.55-0.1
				c-0.433,1.267-0.983,1.667-1.65,1.2l0.25,1.3l-0.05,1.6c-1.167-0.967-2.733-1.65-4.7-2.05c-1.933-0.367-3.967-0.4-6.1-0.1v-4.35
				l1.1-0.6l0.85-0.8c0.7,0.167,1.283,0.7,1.75,1.6l1.1,2.2c0.367,0,0.7-0.2,1-0.6c0.3-0.4,0.617-0.6,0.95-0.6
				c0.2,0.2,0.5,0.35,0.9,0.45l1,0.3L57,64.374l-1.05-0.4c0.533-0.8,1.333-1.517,2.4-2.15l3.1-1.45c-0.2-0.333-0.667-0.283-1.4,0.15
				l-1.7,1.05l-2.3,0.2l-2.05,0.5c-0.2-0.033-0.283,0.117-0.25,0.45l0.05,0.75c-0.6-0.267-0.767-0.833-0.5-1.7l2.75-0.65l2.75-0.55
				l-3.25,0.3c-1.467,0.2-2.3,0.583-2.5,1.15c-1.3-0.6-2.25-1.233-2.85-1.9c0.367-2.4,2.367-3.75,6-4.05l9.6-0.5l-1.15,0.65
				c-0.567,0.2-0.917,0.45-1.05,0.75c0.8,2.467,2.25,3.75,4.35,3.85c1.133,0.067,2.633-0.5,4.5-1.7c1.8-1.167,3.1-1.717,3.9-1.65
				L71.85,61.574 M54.75,58.674l1.45,0.1c0.633-0.333,0.633-0.6,0-0.8c0.1,0.467-0.117,0.683-0.65,0.65L54.75,58.674"/>
			<path class="st1" d="M71.7,57.674l-2.1,1.25c0.267,0,1.05-0.383,2.35-1.15c1.167-0.667,2.15-0.85,2.95-0.55
				c-1.767,1.533-3.683,2.467-5.75,2.8c-2.6,0.4-4.283-0.533-5.05-2.8c0.9-1.067,2.417-1.65,4.55-1.75
				c2.1-0.133,3.867,0.217,5.3,1.05L71.7,57.674 M64.8,57.474c0.433,0.367,1.117,0.733,2.05,1.1c0.933,0.433,1.45,0.55,1.55,0.35
				l-1.95-0.9C65.683,57.591,65.133,57.407,64.8,57.474"/>
			<path class="st0" d="M68.4,58.924c-0.1,0.2-0.617,0.083-1.55-0.35c-0.933-0.367-1.617-0.733-2.05-1.1
				c0.333-0.067,0.883,0.117,1.65,0.55L68.4,58.924"/>
			<path class="st2" d="M57.85,48.374c0.9-0.233,2.35-0.85,4.35-1.85c1.767-0.9,3.117-1.417,4.05-1.55l1.05,1.05l0.9,1.15l-0.2,2.2
				l-0.05,2.35c-0.433,0.2-0.933,0.683-1.5,1.45c-0.567,0.733-1.117,1.2-1.65,1.4c-1.1,0.467-3.3,0.7-6.6,0.7
				c-3.1-0.033-5.217,0.3-6.35,1c-2.167,1.267-3.283,3.983-3.35,8.15l-6-0.3c-2.267,0.1-3.7,1-4.3,2.7l-1.5-0.05l-1.4-0.2
				c-0.767-1.3-2.15-2.183-4.15-2.65c-2.2-0.533-3.85-0.117-4.95,1.25c-0.767-0.433-1.817-0.683-3.15-0.75
				c0.067-0.7-0.017-1.417-0.25-2.15c3.433-2.1,6.883-2.817,10.35-2.15l0.95,0.4l0.95,0.3l1.95-0.65c0.767-0.367,1.4-0.467,1.9-0.3
				c-0.333-0.267,0.233-0.633,1.7-1.1l3.6-1.05c5.067-1.767,8.733-3.367,11-4.8c0.2-0.833,0.567-1.667,1.1-2.5L57.85,48.374
				 M62.4,49.924c-0.133-0.567-0.45-0.667-0.95-0.3c-0.533,0.4-0.567,0.733-0.1,1l0.65-0.05L62.4,49.924"/>
			<path class="st1" d="M64.2,36.674l1.1-0.8c-0.1-1,0.133-2.367,0.7-4.1l1.7,1.45l-0.35,1.7c-0.233,0.667-0.35,1.217-0.35,1.65
				l-1.8,0.65l-1.8,0.55c1.033,0.3,2,0.183,2.9-0.35c0.9-0.6,1.367-1.433,1.4-2.5l0.6,5.55c0.267,2.133-0.1,3.483-1.1,4.05
				c-1.733-1-2.85-1.8-3.35-2.4c-0.967-1.167-1.283-2.767-0.95-4.8L64.2,36.674"/>
			<path class="st2" d="M65.55,43.574l-0.95,0.15l-1,0.05c0.2-0.2,0.283-0.517,0.25-0.95c0.3,0,0.583,0.117,0.85,0.35
				C65,43.441,65.283,43.574,65.55,43.574"/>
			<path class="st2" d="M49.45,47.924l2.4-0.75c1.067-0.433,2.233-1.367,3.5-2.8c1.3-1.433,2.383-2.35,3.25-2.75l-0.95,1.1
				c-0.5,0.433-0.833,0.783-1,1.05c0.533-0.233,1.083-0.717,1.65-1.45l1.5-1.65c0.567,0,1.15,0.2,1.75,0.6l1.6,0.85v1.9l1.3,0.25
				l1.35,0.25l-3.9,1.55c-1.7,0.533-2.967,1.05-3.8,1.55c-0.733,0.467-1.567,1.45-2.5,2.95c-1,1.533-1.85,2.55-2.55,3.05
				c-1.367,0.967-3.3,1.817-5.8,2.55c-3.033,0.9-5.183,1.65-6.45,2.25c-2.733-1.767-6.083-2.217-10.05-1.35
				c-3.333,0.7-6.133,2.033-8.4,4l-1.55-0.7l-2.05-0.25c0.1-1.2,0.25-2,0.45-2.4H19v-0.25c-0.1-0.467-0.033-0.867,0.2-1.2l0.15,0.15
				l7.55-4l3.5-1.85c1.433-0.7,2.583-1.117,3.45-1.25c0.933-0.133,2.25,0.067,3.95,0.6c1.8,0.6,3.133,0.883,4,0.85
				c0.733-0.033,2.333-0.683,4.8-1.95L49.45,47.924 M59,43.924l-0.65-0.35c-0.067,0.533,0.333,0.767,1.2,0.7
				c0.1-0.267,0.083-0.55-0.05-0.85c-0.167-0.267-0.317-0.217-0.45,0.15C59.317,43.807,59.3,43.924,59,43.924 M43.7,55.774l0.9-0.55
				c0.333-0.2,0.433-0.567,0.3-1.1c-0.8-0.267-1.367-0.117-1.7,0.45C42.867,55.174,43.033,55.574,43.7,55.774"/>
			<path class="st2" d="M64.1,29.624c0.933,0.767,1.317,2.067,1.15,3.9c-0.2,1.867-0.9,3.05-2.1,3.55
				c-0.6-0.667-0.767-1.933-0.5-3.8C62.883,31.407,63.367,30.191,64.1,29.624"/>
			<path class="st1" d="M60.5,18.124l2.6,3.95c0.9,1.633,1.15,3.267,0.75,4.9l-0.75,0.95c-0.467,0.367-0.767,0.7-0.9,1
				c-0.2,0.433-0.367,1.35-0.5,2.75l-0.5,2.5c0.4-0.267,0.717-1.283,0.95-3.05c0.233-1.533,0.65-2.267,1.25-2.2
				c0.467,0.2,0.483,0.533,0.05,1l-1.05,1.15l-0.1,2.65c-0.133,1.067-0.167,1.95-0.1,2.65h-2.1c-1.067,0.033-1.817,0.183-2.25,0.45
				h2.5c1.233-0.1,1.917-0.1,2.05,0l0.05,1.9c-0.1,1.067-0.033,1.8,0.2,2.2c-1.133-0.1-2.3-0.55-3.5-1.35
				c-1.433-0.967-2.583-1.567-3.45-1.8c0.2,0.433,0.667,0.817,1.4,1.15l1.7,0.8c-0.8,0.5-1.783,1.5-2.95,3
				c-1.2,1.567-2.133,2.567-2.8,3c-0.967,0.633-2.833,1.3-5.6,2c-2.633,0.633-4.517,1.4-5.65,2.3l-3.7-1
				c-1.6-0.3-2.617-0.85-3.05-1.65l1.75-1.85l1.85-1.75c2.967-0.333,6.017-1.133,9.15-2.4l3.85-1.3c1.4-0.533,2.433-1.133,3.1-1.8
				c-1.3,0.333-3.05,1.017-5.25,2.05l-5.3,2.25l-2.65,0.45l-2.65,0.55c-0.833,0.367-1.767,1.133-2.8,2.3l-2.7,2.7
				c-1.233,0.867-3.733,2.1-7.5,3.7c-3.267,1.367-5.567,2.7-6.9,4l-0.6-1l-0.6-0.9l-0.4-0.15c0.533-0.667,1.25-1.233,2.15-1.7
				l2.3-1.1l3.15-1.7c1.367-0.833,2.467-1.717,3.3-2.65c3.033-3.433,5.267-5.433,6.7-6c1.267-0.467,3.217-0.767,5.85-0.9l5.65-0.7
				l3.3-1.4c1.567-0.7,2.617-1.15,3.15-1.35c2.5-1.033,5.15-1.583,7.95-1.65l0.05-0.25c-1.333-1.433-1.85-3.417-1.55-5.95
				c0.6-2.867,0.883-5.017,0.85-6.45c0.2-0.367,0.3-1.033,0.3-2L60.5,18.124 M46.15,44.324c-0.4-0.167-0.65-0.017-0.75,0.45
				c0.367,0,0.517,0.15,0.45,0.45c-0.233,0.067-0.417,0.017-0.55-0.15c-0.133-0.2-0.267-0.3-0.4-0.3c-0.067,0.233,0,0.417,0.2,0.55
				l0.3,0.4l0.65-0.2l0.55-0.3C46.667,44.791,46.517,44.491,46.15,44.324"/>
			<path class="st2" d="M62.4,49.924l-0.4,0.65l-0.65,0.05c-0.467-0.267-0.433-0.6,0.1-1C61.95,49.257,62.267,49.357,62.4,49.924"/>
			<path class="st0" d="M59.05,43.574c0.133-0.367,0.283-0.417,0.45-0.15c0.133,0.3,0.15,0.583,0.05,0.85
				c-0.867,0.067-1.267-0.167-1.2-0.7l0.65,0.35C59.3,43.924,59.317,43.807,59.05,43.574"/>
			<path class="st0" d="M56.2,57.974c0.633,0.2,0.633,0.467,0,0.8l-1.45-0.1l0.8-0.05C56.083,58.657,56.3,58.441,56.2,57.974"/>
			<path class="st1" d="M57.15,62.024c-1.067,0.9-1.95,1.867-2.65,2.9c-0.433-0.2-0.617-0.5-0.55-0.9l0.3-1.25l1.45-0.35
				L57.15,62.024"/>
			<path class="st0" d="M54.75,9.974l-0.9,0.35c-0.767,0.133-1.183,0.333-1.25,0.6c-0.133-0.167,0.05-0.4,0.55-0.7
				C53.717,9.957,54.25,9.874,54.75,9.974"/>
			<path class="st0" d="M51.4,11.374c-0.267-0.3-0.017-0.3,0.75,0c0.7,0.267,1,0.6,0.9,1l-0.75-0.6
				C52.033,11.507,51.733,11.374,51.4,11.374"/>
			<path class="st2" d="M49.7,60.124c0.733,0.5,1.033,0.967,0.9,1.4l-1.4,1.25c-0.3-0.367-0.333-0.833-0.1-1.4L49.7,60.124"/>
			<path class="st3" d="M52.95,36.724c-0.533,0.2-1.583,0.65-3.15,1.35l-3.3,1.4l-5.65,0.7c-2.633,0.133-4.583,0.433-5.85,0.9
				c-1.433,0.567-3.667,2.567-6.7,6c-0.833,0.933-1.933,1.817-3.3,2.65l-3.15,1.7l-2.3,1.1c-0.9,0.467-1.617,1.033-2.15,1.7
				l0.15-0.35c-0.533-1.167-1.533-1.817-3-1.95l-3.95-0.2c-0.433-0.1-1.117-0.55-2.05-1.35c-0.733-0.7-1.417-0.967-2.05-0.8
				c0.133-1.433,0.05-2.317-0.25-2.65v-0.25H6.5c1.1-0.1,2.817,0.133,5.15,0.7l4.5,0.35c1.9-0.6,4.867-1.8,8.9-3.6
				c1.5-0.633,3.35-2.117,5.55-4.45c2.267-2.4,4.167-3.95,5.7-4.65l0.1-0.25c1.8,0.167,4.683,0.1,8.65-0.2
				C48.55,34.507,51.183,35.224,52.95,36.724 M19.7,50.024c-0.1,0.3-0.017,0.467,0.25,0.5h0.7c0.133-0.3,0.067-0.583-0.2-0.85
				c-0.233-0.267-0.4-0.233-0.5,0.1l0.25,0.5L19.7,50.024 M39.65,37.574l0.7-0.25c0.033-0.6-0.2-0.9-0.7-0.9
				c-0.533,0-0.783,0.3-0.75,0.9L39.65,37.574"/>
			<path class="st0" d="M46.6,45.224l-0.55,0.3l-0.65,0.2l-0.3-0.4c-0.2-0.133-0.267-0.317-0.2-0.55c0.133,0,0.267,0.1,0.4,0.3
				c0.133,0.167,0.317,0.217,0.55,0.15c0.067-0.3-0.083-0.45-0.45-0.45c0.1-0.467,0.35-0.617,0.75-0.45
				C46.517,44.491,46.667,44.791,46.6,45.224"/>
			<path class="st0" d="M44.9,54.124c0.133,0.533,0.033,0.9-0.3,1.1l-0.9,0.55c-0.667-0.2-0.833-0.6-0.5-1.2
				C43.533,54.007,44.1,53.857,44.9,54.124"/>
			<path class="st0" d="M38.9,37.324c-0.033-0.6,0.217-0.9,0.75-0.9c0.5,0,0.733,0.3,0.7,0.9l-0.7,0.25L38.9,37.324"/>
			<path class="st3" d="M11.65,47.374c-2.333-0.567-4.05-0.8-5.15-0.7c0.133-1.133,1.367-1.517,3.7-1.15l5.2,0.9
				c1.333-0.1,2.867-0.65,4.6-1.65c1.667-0.967,2.933-1.45,3.8-1.45c1.567-2.133,2.833-3.7,3.8-4.7c1.533-1.633,3.133-2.867,4.8-3.7
				h-0.2l4.2-0.15l-0.1,0.25c-1.533,0.7-3.433,2.25-5.7,4.65c-2.2,2.333-4.05,3.817-5.55,4.45c-4.033,1.8-7,3-8.9,3.6L11.65,47.374"
				/>
			<path class="st2" d="M36.75,59.624c-0.6,0.6-1.567,0.733-2.9,0.4l-3.85-0.4c0.567-0.5,1.633-0.7,3.2-0.6L36.75,59.624"/>
			<path class="st3" d="M8.55,41.874h5.65l0.6,0.05l-0.15,0.45l6.95-3.3c2.733-1.267,5.133-2.25,7.2-2.95h0.25l-2.45,2.85
				c-1.733,1.767-2.75,3.05-3.05,3.85c-1.1,0.167-2.433,0.667-4,1.5c-1.567,0.833-2.8,1.3-3.7,1.4l-5-1
				c-2.133-0.567-3.9-0.317-5.3,0.75c0-0.467-0.2-0.9-0.6-1.3l-0.85-1.1C4.867,42.307,6.35,41.907,8.55,41.874"/>
			<path class="st0" d="M26.2,5.624c0.233,0.333,0.3,0.733,0.2,1.2l-0.55,0.15l-0.65,0.1C25.033,6.107,25.367,5.624,26.2,5.624"/>
			<path class="st0" d="M19.95,49.774c0.1-0.333,0.267-0.367,0.5-0.1c0.267,0.267,0.333,0.55,0.2,0.85h-0.7
				c-0.267-0.033-0.35-0.2-0.25-0.5l0.5,0.25L19.95,49.774"/>
			<path class="st4" d="M61.35,50.624c-0.467-0.267-0.433-0.6,0.1-1c0.5-0.367,0.817-0.267,0.95,0.3l-0.4,0.65L61.35,50.624z"/>
			<path class="st5" d="M32.05,22.074c0.667-0.033,1.95-0.667,3.85-1.9c1.6-1.033,3-1.317,4.2-0.85"/>
			<path class="st6" d="M30.5,16.324c0.767,1.6,1.283,3.517,1.55,5.75"/>
			<path class="st5" d="M30.5,16.324c-1.4-0.2-2.983-0.833-4.75-1.9l-0.55-0.05l-6.2,5.65l0.05,1.15l1.95,0.7
				c0.767,0.333,1.3,0.75,1.6,1.25l0.8,0.25c0.933-0.567,1.95-0.817,3.05-0.75c1.133,0.067,2.133,0.433,3,1.1
				c0.633-0.233,1.5-0.783,2.6-1.65"/>
			<path class="st6" d="M30.5,16.324c0.4-2.167,0.917-4.067,1.55-5.7l0.5-0.05"/>
			<path class="st4" d="M19,57.724l8.8-5.05c3.7-2.2,6.417-3.05,8.15-2.55l4.3,1.35c1,0.133,2.367-0.133,4.1-0.8l4.4-1.8l4.9-1.85"
				/>
			<path class="st7" d="M52.95,36.724c2.5-1.033,5.15-1.583,7.95-1.65l0.05-0.25c-1.333-1.433-1.85-3.417-1.55-5.95
				c0.6-2.867,0.883-5.017,0.85-6.45v-0.25"/>
			<path class="st5" d="M52.95,36.724c-0.533,0.2-1.583,0.65-3.15,1.35l-3.3,1.4l-5.65,0.7c-2.633,0.133-4.583,0.433-5.85,0.9
				c-1.433,0.567-3.667,2.567-6.7,6c-0.833,0.933-1.933,1.817-3.3,2.65l-3.15,1.7l-2.3,1.1c-0.9,0.467-1.617,1.033-2.15,1.7"/>
			<path class="st6" d="M36.4,34.774c1.8,0.167,4.683,0.1,8.65-0.2c3.5-0.067,6.133,0.65,7.9,2.15"/>
			<path class="st4" d="M36.4,34.774l-0.1,0.25c-1.533,0.7-3.433,2.25-5.7,4.65c-2.2,2.333-4.05,3.817-5.55,4.45
				c-4.033,1.8-7,3-8.9,3.6l-4.5-0.35c-2.333-0.567-4.05-0.8-5.15-0.7H6.25"/>
			<path class="st6" d="M36.4,34.774l-4.2,0.15"/>
		</g>
		<g transform="matrix(1.0, 0.0, 0.0, 1.0, 0.0, 0.0)">
			<g id="shape0_1_" transform="matrix(1.0, 0.0, 0.0, 1.0, 0.0, 0.0)">
				<path class="st0" d="M86.4,62.274l-1.15-0.7c-0.667-0.467-1.317-0.633-1.95-0.5c-0.167-1.2-0.783-2.067-1.85-2.6l-3.65-0.3
					l-0.3,1.25c-0.2,0.533-0.183,0.85,0.05,0.95l-1.65,1.8l-1.7,1.8l1.65,0.95c-1.8,0.067-3.367,0.483-4.7,1.25
					c-1.5,0.867-2.483,2.05-2.95,3.55c-2,0.2-3.467,0.6-4.4,1.2c-1.267,0.8-1.883,2.083-1.85,3.85
					c-0.433-0.533-0.483-1.233-0.15-2.1l1.1-2c-1.167-0.1-3.217-0.767-6.15-2c-2.4-1-4.833-1.3-7.3-0.9
					c-0.067,0.267-0.033,0.483,0.1,0.65l0.15,0.55c-0.833-1.167-1.633-1.483-2.4-0.95c-0.267-0.133-0.167-0.25,0.3-0.35l1.15-0.1
					l-0.2-1.15l-0.05-1.25l-5.45-0.55c-2.3-0.033-3.767,0.7-4.4,2.2c-0.033,0.267,0.05,0.483,0.25,0.65l0.5,0.3l-2.05-0.45
					l-2.3-0.25c-0.967-1.167-2.167-2-3.6-2.5c-1.7-0.567-3.3-0.45-4.8,0.35c1.1,0.567,1.883,1.067,2.35,1.5
					c0.767,0.667,1.267,1.45,1.5,2.35c-1.567-2.067-4.283-3.35-8.15-3.85v-1.4c-0.033-0.567-0.2-0.667-0.5-0.3
					c0.333-0.733,0.083-1.417-0.75-2.05c-0.867-0.6-1.917-0.8-3.15-0.6c0.233-0.1,0.367-0.5,0.4-1.2c0.033-0.8-0.233-1.117-0.8-0.95
					c0.967-1.633,0.533-3.25-1.3-4.85c-1.867-1.6-3.75-1.983-5.65-1.15l-1.95-1.35c-0.733-0.533-1.533-0.8-2.4-0.8
					c-0.333-2.167-0.917-3.817-1.75-4.95c-1.033-1.367-2.533-2.117-4.5-2.25c0.233-0.433,0.783-0.6,1.65-0.5
					c0.733,0.067,1.317,0.233,1.75,0.5c0.367-0.067,0.717-0.283,1.05-0.65l0.85-0.8c1.3-0.2,3.017-0.2,5.15,0
					c2.133,0.167,3.7,0.167,4.7,0c0.7-0.133,1.767-0.55,3.2-1.25l3.75-1.85l5.2-2.35c1.567-0.667,3.2-1.167,4.9-1.5v0.25h0.2
					c-1.667,0.833-3.267,2.067-4.8,3.7c-0.967,1-2.233,2.567-3.8,4.7c-0.867,0-2.133,0.483-3.8,1.45c-1.733,1-3.267,1.55-4.6,1.65
					l-5.2-0.9c-2.333-0.367-3.567,0.017-3.7,1.15H6.25v0.25c0.3,0.333,0.383,1.217,0.25,2.65c0.633-0.167,1.317,0.1,2.05,0.8
					c0.933,0.8,1.617,1.25,2.05,1.35l3.95,0.2c1.467,0.133,2.467,0.783,3,1.95l-0.15,0.35l0.4,0.15l0.6,0.9l0.6,1
					c1.333-1.3,3.633-2.633,6.9-4c3.767-1.6,6.267-2.833,7.5-3.7l2.7-2.7c1.033-1.167,1.967-1.933,2.8-2.3l2.65-0.55l2.65-0.45
					l5.3-2.25c2.2-1.033,3.95-1.717,5.25-2.05c-0.667,0.667-1.7,1.267-3.1,1.8l-3.85,1.3c-3.133,1.267-6.183,2.067-9.15,2.4
					l-1.85,1.75l-1.75,1.85c0.433,0.8,1.45,1.35,3.05,1.65l3.7,1c1.133-0.9,3.017-1.667,5.65-2.3c2.767-0.7,4.633-1.367,5.6-2
					c0.667-0.433,1.6-1.433,2.8-3c1.167-1.5,2.15-2.5,2.95-3l-1.7-0.8c-0.733-0.333-1.2-0.717-1.4-1.15
					c0.867,0.233,2.017,0.833,3.45,1.8c1.2,0.8,2.367,1.25,3.5,1.35c-0.233-0.4-0.3-1.133-0.2-2.2l-0.05-1.9
					c-0.133-0.1-0.817-0.1-2.05,0h-2.5c0.433-0.267,1.183-0.417,2.25-0.45h2.1c-0.067-0.7-0.033-1.583,0.1-2.65l0.1-2.65l1.05-1.15
					c0.433-0.467,0.417-0.8-0.05-1c-0.6-0.067-1.017,0.667-1.25,2.2c-0.233,1.767-0.55,2.783-0.95,3.05l0.5-2.5
					c0.133-1.4,0.3-2.317,0.5-2.75c0.133-0.3,0.433-0.633,0.9-1l0.75-0.95c0.4-1.633,0.15-3.267-0.75-4.9l-2.6-3.95l0.05,2.3
					c0,0.967-0.1,1.633-0.3,2v-0.25H60c0.367-1.9,0.2-3.867-0.5-5.9l-1.4-4.4c-0.567-0.233-1.35-0.883-2.35-1.95
					c-1-1.033-1.817-1.667-2.45-1.9l-2.6,0.25l-2.7,0.5c-0.4-0.067-1.45-0.85-3.15-2.35c-1.333-1.167-2.683-1.35-4.05-0.55
					c0.167,0.5,0.633,1,1.4,1.5l1.5,1.4l-0.35,4.05c-0.133,1.667-0.333,2.95-0.6,3.85l1.45-0.5c0.6-0.233,1.067-0.233,1.4,0
					c-0.967,0.367-1.683,0.65-2.15,0.85l-1.85,1.15c0.567-0.867,0.967-2.167,1.2-3.9l0.4-5.05c-0.667-0.3-1.583-0.9-2.75-1.8
					l-2.75-1.8c-0.1,0.7-0.4,1.333-0.9,1.9l0.3-1.5c0.1-0.633,0.3-0.85,0.6-0.65c-0.567-0.4-1.6-0.867-3.1-1.4
					s-2.55-1.017-3.15-1.45c-0.8,1.3-1.283,3.217-1.45,5.75c-0.833-0.1-1.9,0.167-3.2,0.8l-3.25,1.35c0.2,0.267,0.6,0.5,1.2,0.7
					l1.45,0.5l-1.2,0.05l-1.2-0.5c-0.1,0.2,0.017,0.583,0.35,1.15l0.85,1.25c-0.367,0-0.783-0.417-1.25-1.25l-1.15-1.9l-2.65,0.25
					c1.5-0.033,3.133-0.417,4.9-1.15c2.5-1,4.067-1.583,4.7-1.75c0.467-2.267,0.95-3.933,1.45-5l-8.75,1.5L13,5.874l-2.2,4.55
					c0.267,0.367,0.783,0.617,1.55,0.75l1.85,0.45l-1.1,0.15l-1.1-0.4l3.15,5.3c1.133,1.8,2.15,3.083,3.05,3.85
					c-3.4-2.533-5.7-3.583-6.9-3.15l-2.7-2.05c-0.967-0.867-1.667-1.783-2.1-2.75c1.233-2.767,2.6-5,4.1-6.7H9.45L11,5.324l2,0.05
					l14-3c5.667-0.667,9.8,0.333,12.4,3c1.533-1,3.183-1.15,4.95-0.45C45.783,5.491,47,6.441,48,7.774c2.1-1.067,4.2-1.05,6.3,0.05
					c1.2,0.633,2.7,1.9,4.5,3.8c0.367,1.8,1.05,3.583,2.05,5.35c1,1.767,2.167,3.267,3.5,4.5l0.3,3.35l0.15,3.15
					c-0.033,0.9,0.367,1.783,1.2,2.65l2.65,2.6c-0.033,3.167,0.217,6.367,0.75,9.6l-1.45,2.4c0.767,0.733,1.1,1.917,1,3.55
					l-0.55,4.4c-0.5,0.033-0.967,0.2-1.4,0.5l-1,0.9l1.35-0.05c0.6-0.267,0.717-0.65,0.35-1.15c1.067,1.067,3.3,1.633,6.7,1.7
					c0.033,0.7,0.517,1.267,1.45,1.7c1,0.433,1.567,0.9,1.7,1.4c1.233-0.667,2.483-0.767,3.75-0.3c1.367,0.467,2.117,1.367,2.25,2.7
					l1.65,0.65C85.767,61.491,86.167,61.841,86.4,62.274 M40.6,19.774c-0.467,0.067-0.717,0-0.75-0.2l0.25-0.25l-0.25-0.25
					c-0.633-1.133-1.817-2.5-3.55-4.1c-1.8-1.7-3.017-3.05-3.65-4.05l-0.1-0.35l0.1-0.4c0.933-1.133,2.3-2,4.1-2.6l-1.15,0.9
					c-1.5,0.9-2.4,1.633-2.7,2.2l7.9,8.4l0.2-0.2L40.6,19.774 M46.6,48.824c-2.467,1.267-4.067,1.917-4.8,1.95
					c-0.867,0.033-2.2-0.25-4-0.85c-1.7-0.533-3.017-0.733-3.95-0.6c-0.867,0.133-2.017,0.55-3.45,1.25l-3.5,1.85l-7.55,4
					l-0.15-0.15c-0.233,0.333-0.3,0.733-0.2,1.2v0.25h0.2c-0.2,0.4-0.35,1.2-0.45,2.4l2.05,0.25l1.55,0.7
					c2.267-1.967,5.067-3.3,8.4-4c3.967-0.867,7.317-0.417,10.05,1.35c1.267-0.6,3.417-1.35,6.45-2.25
					c2.5-0.733,4.433-1.583,5.8-2.55c0.7-0.5,1.55-1.517,2.55-3.05c0.933-1.5,1.767-2.483,2.5-2.95c0.833-0.5,2.1-1.017,3.8-1.55
					l3.9-1.55l-1.35-0.25l-1.3-0.25v-1.9l-1.6-0.85c-0.6-0.4-1.183-0.6-1.75-0.6l-1.5,1.65c-0.567,0.733-1.117,1.217-1.65,1.45
					c0.167-0.267,0.5-0.617,1-1.05l0.95-1.1c-0.867,0.4-1.95,1.317-3.25,2.75c-1.267,1.433-2.433,2.367-3.5,2.8l-2.4,0.75
					L46.6,48.824 M56.3,50.424c-0.533,0.833-0.9,1.667-1.1,2.5c-2.267,1.433-5.933,3.033-11,4.8l-3.6,1.05
					c-1.467,0.467-2.033,0.833-1.7,1.1c-0.5-0.167-1.133-0.067-1.9,0.3l-1.95,0.65l-0.95-0.3l-0.95-0.4
					c-3.467-0.667-6.917,0.05-10.35,2.15c0.233,0.733,0.317,1.45,0.25,2.15c1.333,0.067,2.383,0.317,3.15,0.75
					c1.1-1.367,2.75-1.783,4.95-1.25c2,0.467,3.383,1.35,4.15,2.65l1.4,0.2l1.5,0.05c0.6-1.7,2.033-2.6,4.3-2.7l6,0.3
					c0.067-4.167,1.183-6.883,3.35-8.15c1.133-0.7,3.25-1.033,6.35-1c3.3,0,5.5-0.233,6.6-0.7c0.533-0.2,1.083-0.667,1.65-1.4
					c0.567-0.767,1.067-1.25,1.5-1.45l0.05-2.35l0.2-2.2l-0.9-1.15l-1.05-1.05c-0.933,0.133-2.283,0.65-4.05,1.55
					c-2,1-3.45,1.617-4.35,1.85L56.3,50.424 M62.9,37.324c-0.333,2.033-0.017,3.633,0.95,4.8c0.5,0.6,1.617,1.4,3.35,2.4
					c1-0.567,1.367-1.917,1.1-4.05l-0.6-5.55c-0.033,1.067-0.5,1.9-1.4,2.5c-0.9,0.533-1.867,0.65-2.9,0.35l1.8-0.55l1.8-0.65
					c0-0.433,0.117-0.983,0.35-1.65l0.35-1.7l-1.7-1.45c-0.567,1.733-0.8,3.1-0.7,4.1l-1.1,0.8L62.9,37.324 M65.25,33.524
					c0.167-1.833-0.217-3.133-1.15-3.9c-0.733,0.567-1.217,1.783-1.45,3.65c-0.267,1.867-0.1,3.133,0.5,3.8
					C64.35,36.574,65.05,35.391,65.25,33.524 M64.7,43.174c-0.267-0.233-0.55-0.35-0.85-0.35c0.033,0.433-0.05,0.75-0.25,0.95
					l1-0.05l0.95-0.15C65.283,43.574,65,43.441,64.7,43.174 M12.5,5.874c-1.167,0.033-2.233,0.817-3.2,2.35l-2.3,3.9
					c0.8,1.7,1.783,2.917,2.95,3.65c1.367,0.9,3.1,1.2,5.2,0.9l-2.4-3.35c-0.967-1.3-2.017-2.183-3.15-2.65
					c0.733-0.333,1.317-1.033,1.75-2.1L12.5,5.874 M4.95,44.174c0.4,0.4,0.6,0.833,0.6,1.3c1.4-1.067,3.167-1.317,5.3-0.75l5,1
					c0.9-0.1,2.133-0.567,3.7-1.4c1.567-0.833,2.9-1.333,4-1.5c0.3-0.8,1.317-2.083,3.05-3.85l2.45-2.85H28.8
					c-2.067,0.7-4.467,1.683-7.2,2.95l-6.95,3.3l0.15-0.45l-0.6-0.05H8.55c-2.2,0.033-3.683,0.433-4.45,1.2L4.95,44.174
					 M33.2,59.024c-1.567-0.1-2.633,0.1-3.2,0.6l3.85,0.4c1.333,0.333,2.3,0.2,2.9-0.4L33.2,59.024 M73.95,56.524
					c-1.433-0.833-3.2-1.183-5.3-1.05c-2.133,0.1-3.65,0.683-4.55,1.75c0.767,2.267,2.45,3.2,5.05,2.8
					c2.067-0.333,3.983-1.267,5.75-2.8c-0.8-0.3-1.783-0.117-2.95,0.55c-1.3,0.767-2.083,1.15-2.35,1.15l2.1-1.25L73.95,56.524
					 M77.05,59.574l-0.25-1.6c-1,0.6-2.317,1.583-3.95,2.95l-3.95,3.05l-0.85,1c-0.333,0.433-0.683,0.5-1.05,0.2
					c-0.033-0.267,0.15-0.4,0.55-0.4c0.4,0,0.617-0.2,0.65-0.6l-2.15,0.2c2.033-0.4,3.967-1.333,5.8-2.8l4.5-4.1
					c-0.8-0.067-2.1,0.483-3.9,1.65c-1.867,1.2-3.367,1.767-4.5,1.7c-2.1-0.1-3.55-1.383-4.35-3.85c0.133-0.3,0.483-0.55,1.05-0.75
					l1.15-0.65l-9.6,0.5c-3.633,0.3-5.633,1.65-6,4.05c0.6,0.667,1.55,1.3,2.85,1.9c0.2-0.567,1.033-0.95,2.5-1.15l3.25-0.3
					l-2.75,0.55l-2.75,0.65c-0.267,0.867-0.1,1.433,0.5,1.7l-0.05-0.75c-0.033-0.333,0.05-0.483,0.25-0.45l2.05-0.5l2.3-0.2
					l1.7-1.05c0.733-0.433,1.2-0.483,1.4-0.15l-3.1,1.45c-1.067,0.633-1.867,1.35-2.4,2.15l1.05,0.4l0.85,0.55l-1-0.3
					c-0.4-0.1-0.7-0.25-0.9-0.45c-0.333,0-0.65,0.2-0.95,0.6s-0.633,0.6-1,0.6l-1.1-2.2c-0.467-0.9-1.05-1.433-1.75-1.6l-0.85,0.8
					l-1.1,0.6v4.35c2.133-0.3,4.167-0.267,6.1,0.1c1.967,0.4,3.533,1.083,4.7,2.05l0.05-1.6l-0.25-1.3
					c0.667,0.467,1.217,0.067,1.65-1.2l-1.55,0.1c-0.5,0.4-0.867,0.533-1.1,0.4l0.35-0.4l-0.55-0.3c0.667-0.7,1.533-1.183,2.6-1.45
					l0.75,0.55c0.3,0.267,0.617,0.4,0.95,0.4l2.55-0.15c-2.167,0.4-3.817,1.25-4.95,2.55v1.6l-0.25,1.3l3.6,0.15l3.6-0.65
					c0.967-1.5,2.567-3.1,4.8-4.8l5.3-4.3C77.283,60.541,77.117,60.274,77.05,59.574 M53.95,64.024c-0.067,0.4,0.117,0.7,0.55,0.9
					c0.7-1.033,1.583-2,2.65-2.9l-1.45,0.4l-1.45,0.35L53.95,64.024 M49.2,62.774l1.4-1.25c0.133-0.433-0.167-0.9-0.9-1.4l-0.6,1.25
					C48.867,61.941,48.9,62.407,49.2,62.774"/>
				<path class="st1" d="M76.8,57.974l0.25,1.6c0.067,0.7,0.233,0.967,0.5,0.8l-5.3,4.3c-2.233,1.7-3.833,3.3-4.8,4.8l-3.6,0.65
					l-3.6-0.15l0.25-1.3v-1.6c1.167-1.333,2.867-2.2,5.1-2.6l0.4-0.05l0.05-0.05l2.15-0.2c-0.033,0.4-0.25,0.6-0.65,0.6
					c-0.4,0-0.583,0.133-0.55,0.4c0.367,0.3,0.717,0.233,1.05-0.2l0.85-1l3.95-3.05C74.483,59.557,75.8,58.574,76.8,57.974"/>
				<path class="st1" d="M71.85,61.574c-1.833,1.467-3.767,2.4-5.8,2.8L66,64.424l-0.4,0.05l-2.7,0.2c-0.333,0-0.65-0.133-0.95-0.4
					l-0.75-0.55c-1.067,0.267-1.933,0.75-2.6,1.45l0.55,0.3l-0.35,0.4c0.233,0.133,0.6,0,1.1-0.4l1.55-0.1
					c-0.433,1.267-0.983,1.667-1.65,1.2l0.25,1.3l-0.05,1.6c-1.167-0.967-2.733-1.65-4.7-2.05c-1.933-0.367-3.967-0.4-6.1-0.1v-4.35
					l1.1-0.6l0.85-0.8c0.7,0.167,1.283,0.7,1.75,1.6l1.1,2.2c0.367,0,0.7-0.2,1-0.6s0.617-0.6,0.95-0.6c0.2,0.2,0.5,0.35,0.9,0.45
					l1,0.3L57,64.374l-1.05-0.4c0.533-0.8,1.333-1.517,2.4-2.15l3.1-1.45c-0.2-0.333-0.667-0.283-1.4,0.15l-1.7,1.05l-2.3,0.2
					l-2.05,0.5c-0.2-0.033-0.283,0.117-0.25,0.45l0.05,0.75c-0.6-0.267-0.767-0.833-0.5-1.7l2.75-0.65l2.75-0.55l-3.25,0.3
					c-1.467,0.2-2.3,0.583-2.5,1.15c-1.3-0.6-2.25-1.233-2.85-1.9c0.367-2.4,2.367-3.75,6-4.05l9.6-0.5l-1.15,0.65
					c-0.567,0.2-0.917,0.45-1.05,0.75c0.8,2.467,2.25,3.75,4.35,3.85c1.133,0.067,2.633-0.5,4.5-1.7c1.8-1.167,3.1-1.717,3.9-1.65
					L71.85,61.574 M54.75,58.674l1.45,0.1c0.633-0.333,0.633-0.6,0-0.8c0.1,0.467-0.117,0.683-0.65,0.65L54.75,58.674"/>
				<path class="st1" d="M71.7,57.674l-2.1,1.25c0.267,0,1.05-0.383,2.35-1.15c1.167-0.667,2.15-0.85,2.95-0.55
					c-1.767,1.533-3.683,2.467-5.75,2.8c-2.6,0.4-4.283-0.533-5.05-2.8c0.9-1.067,2.417-1.65,4.55-1.75
					c2.1-0.133,3.867,0.217,5.3,1.05L71.7,57.674 M64.8,57.474c0.433,0.367,1.117,0.733,2.05,1.1c0.933,0.433,1.45,0.55,1.55,0.35
					l-1.95-0.9C65.683,57.591,65.133,57.407,64.8,57.474"/>
				<path class="st0" d="M68.4,58.924c-0.1,0.2-0.617,0.083-1.55-0.35c-0.933-0.367-1.617-0.733-2.05-1.1
					c0.333-0.067,0.883,0.117,1.65,0.55L68.4,58.924"/>
				<path class="st2" d="M57.85,48.374c0.9-0.233,2.35-0.85,4.35-1.85c1.767-0.9,3.117-1.417,4.05-1.55l1.05,1.05l0.9,1.15l-0.2,2.2
					l-0.05,2.35c-0.433,0.2-0.933,0.683-1.5,1.45c-0.567,0.733-1.117,1.2-1.65,1.4c-1.1,0.467-3.3,0.7-6.6,0.7
					c-3.1-0.033-5.217,0.3-6.35,1c-2.167,1.267-3.283,3.983-3.35,8.15l-6-0.3c-2.267,0.1-3.7,1-4.3,2.7l-1.5-0.05l-1.4-0.2
					c-0.767-1.3-2.15-2.183-4.15-2.65c-2.2-0.533-3.85-0.117-4.95,1.25c-0.767-0.433-1.817-0.683-3.15-0.75
					c0.067-0.7-0.017-1.417-0.25-2.15c3.433-2.1,6.883-2.817,10.35-2.15l0.95,0.4l0.95,0.3l1.95-0.65c0.767-0.367,1.4-0.467,1.9-0.3
					c-0.333-0.267,0.233-0.633,1.7-1.1l3.6-1.05c5.067-1.767,8.733-3.367,11-4.8c0.2-0.833,0.567-1.667,1.1-2.5L57.85,48.374
					 M62.4,49.924c-0.133-0.567-0.45-0.667-0.95-0.3c-0.533,0.4-0.567,0.733-0.1,1l0.65-0.05L62.4,49.924"/>
				<path class="st1" d="M64.2,36.674l1.1-0.8c-0.1-1,0.133-2.367,0.7-4.1l1.7,1.45l-0.35,1.7c-0.233,0.667-0.35,1.217-0.35,1.65
					l-1.8,0.65l-1.8,0.55c1.033,0.3,2,0.183,2.9-0.35c0.9-0.6,1.367-1.433,1.4-2.5l0.6,5.55c0.267,2.133-0.1,3.483-1.1,4.05
					c-1.733-1-2.85-1.8-3.35-2.4c-0.967-1.167-1.283-2.767-0.95-4.8L64.2,36.674"/>
				<path class="st2" d="M65.55,43.574l-0.95,0.15l-1,0.05c0.2-0.2,0.283-0.517,0.25-0.95c0.3,0,0.583,0.117,0.85,0.35
					C65,43.441,65.283,43.574,65.55,43.574"/>
				<path class="st2" d="M49.45,47.924l2.4-0.75c1.067-0.433,2.233-1.367,3.5-2.8c1.3-1.433,2.383-2.35,3.25-2.75l-0.95,1.1
					c-0.5,0.433-0.833,0.783-1,1.05c0.533-0.233,1.083-0.717,1.65-1.45l1.5-1.65c0.567,0,1.15,0.2,1.75,0.6l1.6,0.85v1.9l1.3,0.25
					l1.35,0.25l-3.9,1.55c-1.7,0.533-2.967,1.05-3.8,1.55c-0.733,0.467-1.567,1.45-2.5,2.95c-1,1.533-1.85,2.55-2.55,3.05
					c-1.367,0.967-3.3,1.817-5.8,2.55c-3.033,0.9-5.183,1.65-6.45,2.25c-2.733-1.767-6.083-2.217-10.05-1.35
					c-3.333,0.7-6.133,2.033-8.4,4l-1.55-0.7l-2.05-0.25c0.1-1.2,0.25-2,0.45-2.4H19v-0.25c-0.1-0.467-0.033-0.867,0.2-1.2
					l0.15,0.15l7.55-4l3.5-1.85c1.433-0.7,2.583-1.117,3.45-1.25c0.933-0.133,2.25,0.067,3.95,0.6c1.8,0.6,3.133,0.883,4,0.85
					c0.733-0.033,2.333-0.683,4.8-1.95L49.45,47.924 M59,43.924l-0.65-0.35c-0.067,0.533,0.333,0.767,1.2,0.7
					c0.1-0.267,0.083-0.55-0.05-0.85c-0.167-0.267-0.317-0.217-0.45,0.15C59.317,43.807,59.3,43.924,59,43.924 M43.7,55.774
					l0.9-0.55c0.333-0.2,0.433-0.567,0.3-1.1c-0.8-0.267-1.367-0.117-1.7,0.45C42.867,55.174,43.033,55.574,43.7,55.774"/>
				<path class="st2" d="M64.1,29.624c0.933,0.767,1.317,2.067,1.15,3.9c-0.2,1.867-0.9,3.05-2.1,3.55
					c-0.6-0.667-0.767-1.933-0.5-3.8C62.883,31.407,63.367,30.191,64.1,29.624"/>
				<path class="st1" d="M60.5,18.124l2.6,3.95c0.9,1.633,1.15,3.267,0.75,4.9l-0.75,0.95c-0.467,0.367-0.767,0.7-0.9,1
					c-0.2,0.433-0.367,1.35-0.5,2.75l-0.5,2.5c0.4-0.267,0.717-1.283,0.95-3.05c0.233-1.533,0.65-2.267,1.25-2.2
					c0.467,0.2,0.483,0.533,0.05,1l-1.05,1.15l-0.1,2.65c-0.133,1.067-0.167,1.95-0.1,2.65h-2.1c-1.067,0.033-1.817,0.183-2.25,0.45
					h2.5c1.233-0.1,1.917-0.1,2.05,0l0.05,1.9c-0.1,1.067-0.033,1.8,0.2,2.2c-1.133-0.1-2.3-0.55-3.5-1.35
					c-1.433-0.967-2.583-1.567-3.45-1.8c0.2,0.433,0.667,0.817,1.4,1.15l1.7,0.8c-0.8,0.5-1.783,1.5-2.95,3
					c-1.2,1.567-2.133,2.567-2.8,3c-0.967,0.633-2.833,1.3-5.6,2c-2.633,0.633-4.517,1.4-5.65,2.3l-3.7-1
					c-1.6-0.3-2.617-0.85-3.05-1.65l1.75-1.85l1.85-1.75c2.967-0.333,6.017-1.133,9.15-2.4l3.85-1.3c1.4-0.533,2.433-1.133,3.1-1.8
					c-1.3,0.333-3.05,1.017-5.25,2.05l-5.3,2.25l-2.65,0.45l-2.65,0.55c-0.833,0.367-1.767,1.133-2.8,2.3l-2.7,2.7
					c-1.233,0.867-3.733,2.1-7.5,3.7c-3.267,1.367-5.567,2.7-6.9,4l-0.6-1l-0.6-0.9l-0.4-0.15c0.533-0.667,1.25-1.233,2.15-1.7
					l2.3-1.1l3.15-1.7c1.367-0.833,2.467-1.717,3.3-2.65c3.033-3.433,5.267-5.433,6.7-6c1.267-0.467,3.217-0.767,5.85-0.9l5.65-0.7
					l3.3-1.4c1.567-0.7,2.617-1.15,3.15-1.35c2.5-1.033,5.15-1.583,7.95-1.65l0.05-0.25c-1.333-1.433-1.85-3.417-1.55-5.95
					c0.6-2.867,0.883-5.017,0.85-6.45c0.2-0.367,0.3-1.033,0.3-2L60.5,18.124 M46.15,44.324c-0.4-0.167-0.65-0.017-0.75,0.45
					c0.367,0,0.517,0.15,0.45,0.45c-0.233,0.067-0.417,0.017-0.55-0.15c-0.133-0.2-0.267-0.3-0.4-0.3c-0.067,0.233,0,0.417,0.2,0.55
					l0.3,0.4l0.65-0.2l0.55-0.3C46.667,44.791,46.517,44.491,46.15,44.324"/>
				<path class="st2" d="M62.4,49.924l-0.4,0.65l-0.65,0.05c-0.467-0.267-0.433-0.6,0.1-1C61.95,49.257,62.267,49.357,62.4,49.924"
					/>
				<path class="st0" d="M59.05,43.574c0.133-0.367,0.283-0.417,0.45-0.15c0.133,0.3,0.15,0.583,0.05,0.85
					c-0.867,0.067-1.267-0.167-1.2-0.7l0.65,0.35C59.3,43.924,59.317,43.807,59.05,43.574"/>
				<path class="st0" d="M56.2,57.974c0.633,0.2,0.633,0.467,0,0.8l-1.45-0.1l0.8-0.05C56.083,58.657,56.3,58.441,56.2,57.974"/>
				<path class="st1" d="M57.15,62.024c-1.067,0.9-1.95,1.867-2.65,2.9c-0.433-0.2-0.617-0.5-0.55-0.9l0.3-1.25l1.45-0.35
					L57.15,62.024"/>
				<path class="st0" d="M54.75,9.974l-0.9,0.35c-0.767,0.133-1.183,0.333-1.25,0.6c-0.133-0.167,0.05-0.4,0.55-0.7
					C53.717,9.957,54.25,9.874,54.75,9.974"/>
				<path class="st0" d="M51.4,11.374c-0.267-0.3-0.017-0.3,0.75,0c0.7,0.267,1,0.6,0.9,1l-0.75-0.6
					C52.033,11.507,51.733,11.374,51.4,11.374"/>
				<path class="st2" d="M49.7,60.124c0.733,0.5,1.033,0.967,0.9,1.4l-1.4,1.25c-0.3-0.367-0.333-0.833-0.1-1.4L49.7,60.124"/>
				<path class="st3" d="M52.95,36.724c-0.533,0.2-1.583,0.65-3.15,1.35l-3.3,1.4l-5.65,0.7c-2.633,0.133-4.583,0.433-5.85,0.9
					c-1.433,0.567-3.667,2.567-6.7,6c-0.833,0.933-1.933,1.817-3.3,2.65l-3.15,1.7l-2.3,1.1c-0.9,0.467-1.617,1.033-2.15,1.7
					l0.15-0.35c-0.533-1.167-1.533-1.817-3-1.95l-3.95-0.2c-0.433-0.1-1.117-0.55-2.05-1.35c-0.733-0.7-1.417-0.967-2.05-0.8
					c0.133-1.433,0.05-2.317-0.25-2.65v-0.25H6.5c1.1-0.1,2.817,0.133,5.15,0.7l4.5,0.35c1.9-0.6,4.867-1.8,8.9-3.6
					c1.5-0.633,3.35-2.117,5.55-4.45c2.267-2.4,4.167-3.95,5.7-4.65l0.1-0.25c1.8,0.167,4.683,0.1,8.65-0.2
					C48.55,34.507,51.183,35.224,52.95,36.724 M19.7,50.024c-0.1,0.3-0.017,0.467,0.25,0.5h0.7c0.133-0.3,0.067-0.583-0.2-0.85
					c-0.233-0.267-0.4-0.233-0.5,0.1l0.25,0.5L19.7,50.024 M39.65,37.574l0.7-0.25c0.033-0.6-0.2-0.9-0.7-0.9
					c-0.533,0-0.783,0.3-0.75,0.9L39.65,37.574"/>
				<path class="st0" d="M46.6,45.224l-0.55,0.3l-0.65,0.2l-0.3-0.4c-0.2-0.133-0.267-0.317-0.2-0.55c0.133,0,0.267,0.1,0.4,0.3
					c0.133,0.167,0.317,0.217,0.55,0.15c0.067-0.3-0.083-0.45-0.45-0.45c0.1-0.467,0.35-0.617,0.75-0.45
					C46.517,44.491,46.667,44.791,46.6,45.224"/>
				<path class="st0" d="M44.9,54.124c0.133,0.533,0.033,0.9-0.3,1.1l-0.9,0.55c-0.667-0.2-0.833-0.6-0.5-1.2
					C43.533,54.007,44.1,53.857,44.9,54.124"/>
				<path class="st0" d="M38.9,37.324c-0.033-0.6,0.217-0.9,0.75-0.9c0.5,0,0.733,0.3,0.7,0.9l-0.7,0.25L38.9,37.324"/>
				<path class="st3" d="M11.65,47.374c-2.333-0.567-4.05-0.8-5.15-0.7c0.133-1.133,1.367-1.517,3.7-1.15l5.2,0.9
					c1.333-0.1,2.867-0.65,4.6-1.65c1.667-0.967,2.933-1.45,3.8-1.45c1.567-2.133,2.833-3.7,3.8-4.7
					c1.533-1.633,3.133-2.867,4.8-3.7h-0.2l4.2-0.15l-0.1,0.25c-1.533,0.7-3.433,2.25-5.7,4.65c-2.2,2.333-4.05,3.817-5.55,4.45
					c-4.033,1.8-7,3-8.9,3.6L11.65,47.374"/>
				<path class="st2" d="M36.75,59.624c-0.6,0.6-1.567,0.733-2.9,0.4l-3.85-0.4c0.567-0.5,1.633-0.7,3.2-0.6L36.75,59.624"/>
				<path class="st3" d="M8.55,41.874h5.65l0.6,0.05l-0.15,0.45l6.95-3.3c2.733-1.267,5.133-2.25,7.2-2.95h0.25l-2.45,2.85
					c-1.733,1.767-2.75,3.05-3.05,3.85c-1.1,0.167-2.433,0.667-4,1.5c-1.567,0.833-2.8,1.3-3.7,1.4l-5-1
					c-2.133-0.567-3.9-0.317-5.3,0.75c0-0.467-0.2-0.9-0.6-1.3l-0.85-1.1C4.867,42.307,6.35,41.907,8.55,41.874"/>
				<path class="st0" d="M26.2,5.624c0.233,0.333,0.3,0.733,0.2,1.2l-0.55,0.15l-0.65,0.1C25.033,6.107,25.367,5.624,26.2,5.624"/>
				<path class="st0" d="M19.95,49.774c0.1-0.333,0.267-0.367,0.5-0.1c0.267,0.267,0.333,0.55,0.2,0.85h-0.7
					c-0.267-0.033-0.35-0.2-0.25-0.5l0.5,0.25L19.95,49.774"/>
				<path class="st4" d="M61.35,50.624c-0.467-0.267-0.433-0.6,0.1-1c0.5-0.367,0.817-0.267,0.95,0.3l-0.4,0.65L61.35,50.624z"/>
				<path class="st5" d="M32.05,22.074c0.667-0.033,1.95-0.667,3.85-1.9c1.6-1.033,3-1.317,4.2-0.85"/>
				<path class="st6" d="M30.5,16.324c0.767,1.6,1.283,3.517,1.55,5.75"/>
				<path class="st5" d="M30.5,16.324c-1.4-0.2-2.983-0.833-4.75-1.9l-0.55-0.05l-6.2,5.65l0.05,1.15l1.95,0.7
					c0.767,0.333,1.3,0.75,1.6,1.25l0.8,0.25c0.933-0.567,1.95-0.817,3.05-0.75c1.133,0.067,2.133,0.433,3,1.1
					c0.633-0.233,1.5-0.783,2.6-1.65"/>
				<path class="st6" d="M30.5,16.324c0.4-2.167,0.917-4.067,1.55-5.7l0.5-0.05"/>
				<path class="st4" d="M19,57.724l8.8-5.05c3.7-2.2,6.417-3.05,8.15-2.55l4.3,1.35c1,0.133,2.367-0.133,4.1-0.8l4.4-1.8l4.9-1.85"
					/>
				<path class="st7" d="M52.95,36.724c2.5-1.033,5.15-1.583,7.95-1.65l0.05-0.25c-1.333-1.433-1.85-3.417-1.55-5.95
					c0.6-2.867,0.883-5.017,0.85-6.45v-0.25"/>
				<path class="st5" d="M52.95,36.724c-0.533,0.2-1.583,0.65-3.15,1.35l-3.3,1.4l-5.65,0.7c-2.633,0.133-4.583,0.433-5.85,0.9
					c-1.433,0.567-3.667,2.567-6.7,6c-0.833,0.933-1.933,1.817-3.3,2.65l-3.15,1.7l-2.3,1.1c-0.9,0.467-1.617,1.033-2.15,1.7"/>
				<path class="st6" d="M36.4,34.774c1.8,0.167,4.683,0.1,8.65-0.2c3.5-0.067,6.133,0.65,7.9,2.15"/>
				<path class="st4" d="M36.4,34.774l-0.1,0.25c-1.533,0.7-3.433,2.25-5.7,4.65c-2.2,2.333-4.05,3.817-5.55,4.45
					c-4.033,1.8-7,3-8.9,3.6l-4.5-0.35c-2.333-0.567-4.05-0.8-5.15-0.7H6.25"/>
				<path class="st6" d="M36.4,34.774l-4.2,0.15"/>
			</g>
		</g>
	</g>
	<path class="st8" d="M86.4,46.824c0.4,1.833,0.333,5.25-0.2,10.25c-0.5,4.9-1.083,8-1.75,9.3c-1.6,3.267-5.1,5.767-10.5,7.5
		c-5.733,1.833-10.55,1.617-14.45-0.65c-0.5-1.267-0.483-2.717,0.05-4.35c0.533-1.733,0.683-3.05,0.45-3.95
		c-0.6-2.267-2.267-3.5-5-3.7l-8.2,0.75c-0.1-2.233,0.833-6,2.8-11.3c1.467-4,1.333-7.4-0.4-10.2
		c-1.433-0.767-4.517-1.183-9.25-1.25c-4.5-0.067-7.45-0.633-8.85-1.7c1.6-0.933,4.25-1.283,7.95-1.05l8.7,0.55
		c-0.333-3.367-1.083-6.317-2.25-8.85c-1.5-3.367-3.517-5.467-6.05-6.3c2.5-3.3,2.867-6.717,1.1-10.25
		c-1.7-3.433-4.517-5.4-8.45-5.9c1.6-0.267,3.45-0.017,5.55,0.75c2.833,1.033,4.567,1.6,5.2,1.7l4.5,0.15c1.8,0,3.233,0.267,4.3,0.8
		c0.967,0.5,2,1.583,3.1,3.25c1.233,1.9,2.167,3.1,2.8,3.6c1.867,1.533,4.5,2.767,7.9,3.7l9.2,2.2c2.9,3.133,5.683,5.567,8.35,7.3
		l-0.9,3.3c-0.4,1.167-0.6,2.2-0.6,3.1c0.033,1.7,0.783,3.717,2.25,6.05C85.35,44.257,86.233,45.991,86.4,46.824"/>
	<path class="st8" d="M32.6,24.274c-2.467,0.667-3.933,1.333-4.4,2c-2.6-0.9-5.533-1.233-8.8-1c-2.167-0.633-4.117-2.283-5.85-4.95
		c-2.333-3.633-3.817-5.733-4.45-6.3c0.333-2.933,1.483-4.733,3.45-5.4c1.067,0.167,1.833,0.783,2.3,1.85
		c0.3,0.767,0.5,1.95,0.6,3.55l3.1-0.1l2.3,0.1l0.85,1.35c0.233,0.6,0.267,1.3,0.1,2.1l6.55,0.7c2.6,0.4,4.183,1.467,4.75,3.2
		c0.2-0.267,0.7-0.45,1.5-0.55c0.833-0.133,1.3,0.05,1.4,0.55C35.833,22.774,34.7,23.741,32.6,24.274"/>
</g>
</svg>
