<?xml version="1.0" encoding="utf-8"?>
<!-- Generator: Adobe Illustrator 24.0.1, SVG Export Plug-In . SVG Version: 6.00 Build 0)  -->
<svg version="1.1" id="Camada_1" xmlns="http://www.w3.org/2000/svg" xmlns:xlink="http://www.w3.org/1999/xlink" x="0px" y="0px"
	 viewBox="0 0 107.022 73.758" style="enable-background:new 0 0 107.022 73.758;" xml:space="preserve">
<style type="text/css">
	.st0{fill-rule:evenodd;clip-rule:evenodd;fill:#756D70;}
	.st1{fill-rule:evenodd;clip-rule:evenodd;fill:#545F6B;}
	.st2{fill-rule:evenodd;clip-rule:evenodd;fill:#7F757F;}
	.st3{fill-rule:evenodd;clip-rule:evenodd;fill:#8B8388;}
	.st4{fill:none;stroke:#545F6B;stroke-width:0.35;stroke-linecap:round;}
	.st5{fill:none;stroke:#545F6B;stroke-width:0.3;stroke-linecap:round;}
	.st6{opacity:0.53;}
	.st7{fill-rule:evenodd;clip-rule:evenodd;fill:#100C4D;}
</style>
<g transform="matrix(1.0, 0.0, 0.0, 1.0, 0.0, 0.0)">
	<g transform="matrix(1.0, 0.0, 0.0, 1.0, 0.0, 0.9)">
		<g id="shape0" transform="matrix(1.0, 0.0, 0.0, 1.0, 0.0, -0.9)">
			<path class="st0" d="M88.476,14.217l2.1,3.5c0.833,1.3,1.667,2.1,2.5,2.4c-0.1,0.167-0.867,0.55-2.3,1.15
				c-1.367,0.567-2.2,1.233-2.5,2c0.167,1.233-0.167,2.217-1,2.95c-1.067,0.733-1.783,1.35-2.15,1.85l1.15,0.35
				c0.567,0.033,0.833,0.233,0.8,0.6c-1.333-0.567-2.633-0.55-3.9,0.05c-1.267,0.567-1.967,1.517-2.1,2.85
				c-1.8-1-3.45-0.533-4.95,1.4c-1.467,1.933-1.417,3.533,0.15,4.8c1.267-0.933,2.733-1.167,4.4-0.7
				c1.633,0.433,2.65,1.317,3.05,2.65c-0.633-1-1.7-1.733-3.2-2.2c-1.767-0.6-3.183-0.35-4.25,0.75c-0.6-0.067-1.167-0.333-1.7-0.8
				l-1.45-1.1c-2.667-0.3-4.583,0.767-5.75,3.2c-1.133,2.333-0.967,4.533,0.5,6.6c-0.333,0.333-0.517,0.983-0.55,1.95
				c0,0.833,0.1,1.55,0.3,2.15c-1.967-0.467-3.55-0.3-4.75,0.5c-1.3,0.867-1.8,2.3-1.5,4.3c-1.333,0.033-2.05,0.917-2.15,2.65
				c-0.5-0.333-0.717,0.067-0.65,1.2c0.067,1.5-0.033,2.383-0.3,2.65c-0.333-1.433-0.317-2.817,0.05-4.15
				c0.4-1.533,1.183-2.483,2.35-2.85c-0.167-0.133-0.25-0.4-0.25-0.8c0-0.4,0.083-0.683,0.25-0.85c-0.8,0.4-1.7,0.967-2.7,1.7
				c-1.1,0.8-1.967,1.583-2.6,2.35l-1.5-1.5c-0.7-0.567-1.15-1.1-1.35-1.6c-1.367,0.133-2.483,0.583-3.35,1.35
				c-1.033,0.9-1.517,2.133-1.45,3.7l-3,1.45c-1.133,0.633-1.817,1.433-2.05,2.4c-1.133-0.333-2.267-0.167-3.4,0.5
				c-1,0.6-1.633,1.3-1.9,2.1c-1.667-1-2.617-2.2-2.85-3.6c0.267-0.3,0.5-0.2,0.7,0.3c0.2,0.433,0.283,0.9,0.25,1.4
				c0.133,0.133,0.417,0.283,0.85,0.45l0.8,0.5c1.3-1.633,3.067-2.433,5.3-2.4c0.367-0.767,1-1.417,1.9-1.95
				c0.533-0.333,1.417-0.717,2.65-1.15c0.033-1.3,0.4-2.383,1.1-3.25c0.533-0.633,1.367-1.233,2.5-1.8c-1.3-0.167-2.6,0.15-3.9,0.95
				l-3.3,2.6c2.433-3.1,5.15-4.45,8.15-4.05l-0.1-1.4c-0.067-0.6-0.267-0.933-0.6-1c-0.4,0-1.4,0.6-3,1.8
				c-1.367,0.967-2.683,1.1-3.95,0.4l-1.05,1.45c-0.467,0.5-1.083,0.733-1.85,0.7c-0.067-1.2-0.517-2.35-1.35-3.45l-2-2.8
				l-2.45,0.55c-0.9,0.2-1.6,0.017-2.1-0.55l3.25-0.2l2.75-1l-0.05-1.45c0.067-0.4,0.317-0.717,0.75-0.95
				c0.133,0.6,0.367,0.867,0.7,0.8l1,0.15c-0.3,0.2-0.417,0.583-0.35,1.15l0.1,1.75c0.8-0.2,2.017-0.717,3.65-1.55
				c1.433-0.733,2.7-1.183,3.8-1.35c1.033-1.733,1.783-2.8,2.25-3.2c1.1-1.033,2.433-1.317,4-0.85l0.85-2.65
				c0.333-1.067,0.45-2.117,0.35-3.15c-0.8,0.033-1.733,0.383-2.8,1.05c-1.1,0.7-1.833,1.067-2.2,1.1l0.05-0.05l1.65-0.95
				c0.667-0.433,0.967-0.817,0.9-1.15l-0.7,0.2c1.067-0.633,2.017-1.017,2.85-1.15c-0.033,0.2,0.033,0.333,0.2,0.4l0.5,0.1
				c0.067,1.867-0.083,3.067-0.45,3.6l1.85-0.9c0.7-0.433,1.35-0.7,1.95-0.8l1.05-3.55c0.3-1.333,0.2-2.633-0.3-3.9
				c-0.233,0.133-0.433,0.417-0.6,0.85l-0.35,1.1l-1.15,0.2l-1.05,0.25c1.433-0.3,2.333-1.333,2.7-3.1s-0.05-3.133-1.25-4.1
				c-0.433,0-0.95,0.433-1.55,1.3c-0.467,0.667-0.9,0.8-1.3,0.4l0.45,1.45c0.2,0.567,0.283,1.117,0.25,1.65l-0.8-1.95l-0.95-1.8
				l0.55-0.4c0.5,0.367,0.817,0.717,0.95,1.05l1.2-1.6c0.433-0.7,0.917-1.133,1.45-1.3l1.25,2.15c0.4,0.833,0.55,1.65,0.45,2.45
				c0.8-0.033,2.2-0.4,4.2-1.1c2.433-0.9,4.033-1.433,4.8-1.6l-0.15,0.3l-4.8,1.95c-1.933,0.667-3.133,0.883-3.6,0.65
				c-0.333,0.267-0.25,0.933,0.25,2c0.533,1.167,0.7,1.95,0.5,2.35c1.367,0.6,2.233,1.233,2.6,1.9c0.6-0.433,1.783-0.783,3.55-1.05
				c1.4-0.233,2.383-0.833,2.95-1.8c0.067-1.033-0.117-1.967-0.55-2.8l-1.35-2c0.267-0.233,0.583-0.1,0.95,0.4l0.95,1
				c3.367-0.933,5.533-2.767,6.5-5.5c0.767-0.667,1.917-1.35,3.45-2.05l3.1-1.45l-4.45,2.45c-2.233,1.267-3.333,2.983-3.3,5.15
				c-0.833,0.267-1.533,0.55-2.1,0.85l-1.75,0.8c0.167-0.3,0.483-0.45,0.95-0.45l-1.05,0.05l-1.35,0.4
				c0.267,0.7,0.883,1.333,1.85,1.9l2.25,1.45l2.05-1.75c0.9-0.533,1.967-0.75,3.2-0.65c1.2-1.5,2.483-2.367,3.85-2.6
				c-0.533-1.267-0.333-3.033,0.6-5.3c0.867-2.1,0.9-3.867,0.1-5.3c0.967,0.933,1.183,2.367,0.65,4.3l-1.35,5.3
				c0.767-0.1,1.517-0.517,2.25-1.25c0.8-0.833,1.25-1.767,1.35-2.8l-0.6-0.7l-0.6-0.75l1.2,0.95c1.133-1.2,2.5-2,4.1-2.4
				c-0.7-0.467-1.467-1.35-2.3-2.65l-2-3.25L88.476,14.217 M75.876,28.217c0.5-0.367,0.633-0.733,0.4-1.1l-1.05,1.05
				c-0.567,0.367-0.783,0.65-0.65,0.85L75.876,28.217 M60.426,38.617c-2.733,0.233-4.583,1.767-5.55,4.6l0.05-0.3
				c-1.667-0.167-2.967,0.217-3.9,1.15c-0.567,0.567-1.2,1.633-1.9,3.2c-2.667,0.833-5.3,2.033-7.9,3.6
				c-0.067,0.267-0.033,0.55,0.1,0.85l0.15,0.8l2.6,0.55l2.45,0.65c0.6-1.033,1.967-2.35,4.1-3.95
				c1.933-1.467,3.183-2.883,3.75-4.25c-0.333,2.367-0.15,4.783,0.55,7.25c0.4,0.067,0.517-0.117,0.35-0.55
				c-0.233-0.533-0.2-0.833,0.1-0.9c0.067,0.733,0.233,1.217,0.5,1.45c0.233-0.6,0.85-1.367,1.85-2.3c1.033-0.933,1.7-1.767,2-2.5
				v-0.85v-0.8c0.333-1.633,1-3.033,2-4.2c1.1-1.3,2.433-2.067,4-2.3c0.1-1.3-0.283-2.3-1.15-3l-2.7-1.55
				C60.909,35.833,60.426,36.95,60.426,38.617 M53.326,52.417l1.1,0.1c-0.133-0.267-0.217-0.9-0.25-1.9c0-0.9-0.15-1.467-0.45-1.7
				l-1.1,1.35c-0.333,0.6-0.45,1.283-0.35,2.05L53.326,52.417 M60.176,48.467l-3.2,3.1c-1.2,1.367-1.483,2.817-0.85,4.35l4.55-3.85
				c1.8-1.567,3.8-2.367,6-2.4c0.333-1.5,0.283-3.117-0.15-4.85l-1.05-4.75c-1.7,0.5-3.05,1.533-4.05,3.1
				C60.459,44.733,60.043,46.5,60.176,48.467 M53.926,53.067l-1.65-0.55c0.1,0.9,0.5,1.7,1.2,2.4l1.9,1.7v-3.35L53.926,53.067
				 M74.826,34.317c-0.833-0.567-1.6-0.75-2.3-0.55c-0.8,0.233-1.067,0.967-0.8,2.2c0.933-0.033,1.883,0.217,2.85,0.75
				C74.509,35.65,74.593,34.85,74.826,34.317 M70.726,33.817c-0.633,0.9-1.433,1.533-2.4,1.9c-0.4-0.4-1-0.533-1.8-0.4
				c-0.767,0.133-1.283,0.433-1.55,0.9c0.6,0.167,1.05,0.55,1.35,1.15l0.6,1.95c1.233-1.567,2.5-2.6,3.8-3.1
				c-0.1-0.3-0.05-0.75,0.15-1.35C71.043,34.367,70.993,34.017,70.726,33.817 M39.526,46.767c0.1,1.067,0.583,1.867,1.45,2.4
				l-0.1-0.95l-0.15-0.95l-0.65-0.2L39.526,46.767 M40.276,49.767l-1.45-1.3l-0.25,0.75l-0.25,0.7l1.2,1.1l1.45,0.8
				C41.009,51.017,40.776,50.333,40.276,49.767"/>
			<path class="st1" d="M91.126,36.717l-1.35-0.2c-0.833-0.233-1.333-0.1-1.5,0.4c-0.533,0.033-1.233-0.433-2.1-1.4
				c-0.7-0.8-1.45-0.883-2.25-0.25c0.167-1.033,0.8-1.35,1.9-0.95c1.1,0.367,1.667,1.083,1.7,2.15l2-0.35
				C90.193,36.05,90.726,36.25,91.126,36.717"/>
			<path class="st1" d="M88.376,14.067l0.1,0.15l-0.65,0.25l-0.15-0.2L88.376,14.067"/>
			<path class="st2" d="M92.126,20.367c-1.6,0.4-2.967,1.2-4.1,2.4l-1.2-0.95l0.6,0.75l0.6,0.7c-0.1,1.033-0.55,1.967-1.35,2.8
				c-0.733,0.733-1.483,1.15-2.25,1.25l1.35-5.3c0.533-1.933,0.317-3.367-0.65-4.3c0.8,1.433,0.767,3.2-0.1,5.3
				c-0.933,2.267-1.133,4.033-0.6,5.3c-1.367,0.233-2.65,1.1-3.85,2.6c-1.233-0.1-2.3,0.117-3.2,0.65l-2.05,1.75l-2.25-1.45
				c-0.967-0.567-1.583-1.2-1.85-1.9l1.35-0.4l1.05-0.05c-0.467,0-0.783,0.15-0.95,0.45l1.75-0.8c0.567-0.3,1.267-0.583,2.1-0.85
				c-0.033-2.167,1.067-3.883,3.3-5.15l4.45-2.45l-3.1,1.45c-1.533,0.7-2.683,1.383-3.45,2.05c-0.967,2.733-3.133,4.567-6.5,5.5
				l-0.95-1c-0.367-0.5-0.683-0.633-0.95-0.4l1.35,2c0.433,0.833,0.617,1.767,0.55,2.8c-0.567,0.967-1.55,1.567-2.95,1.8
				c-1.767,0.267-2.95,0.617-3.55,1.05c-0.367-0.667-1.233-1.3-2.6-1.9c0.2-0.4,0.033-1.183-0.5-2.35c-0.5-1.067-0.583-1.733-0.25-2
				c0.467,0.233,1.667,0.017,3.6-0.65l4.8-1.95l-0.25,0.45l0.35-0.5l1.1-0.45l-0.9,0.15l2.9-3.7l2.8-3.8
				c5.1-1.933,9.117-3.533,12.05-4.8l2,3.25C90.659,19.017,91.426,19.9,92.126,20.367 M80.226,27.517
				c0.233-0.533,0.033-0.833-0.6-0.9c0.2,0.467,0.183,0.783-0.05,0.95l-0.65,0.5C79.559,28.233,79.993,28.05,80.226,27.517
				 M66.426,31.667l-0.7-0.25l0.2,0.7c0.133,0.267,0.067,0.433-0.2,0.5l-0.4-0.35l-0.35-0.35c0.133,0.633,0.383,1.033,0.75,1.2
				l0.6-0.5C66.493,32.383,66.526,32.067,66.426,31.667"/>
			<path class="st1" d="M88.376,14.067l-0.7,0.2c-1.467-1.833-3.267-2.283-5.4-1.35c-1.1-1.167-2.067-1.883-2.9-2.15
				c0.333-1.867-0.283-3.1-1.85-3.7c-1.4-0.567-2.867-0.45-4.4,0.35c1.1-1.2,2.633-1.533,4.6-1c2.033,0.567,2.9,1.783,2.6,3.65
				c0.167,0.2,0.567,0.5,1.2,0.9l1,1c1.333-0.433,2.517-0.433,3.55,0C86.876,12.333,87.643,13.033,88.376,14.067"/>
			<path class="st1" d="M87.826,14.467c-2.933,1.267-6.95,2.867-12.05,4.8l0.15-0.2c1.467-0.7,3.333-1.517,5.6-2.45l6.15-2.35
				L87.826,14.467"/>
			<path class="st1" d="M81.326,47.017c0.9-1.133,1.767-1.85,2.6-2.15c0.2,0.067-0.05,0.333-0.75,0.8
				c-0.867,0.533-1.333,0.983-1.4,1.35c0.3,1.167,0.25,2.217-0.15,3.15l-1.05,2.6c-0.1-0.533,0.1-1.383,0.6-2.55
				C81.643,49.117,81.693,48.05,81.326,47.017"/>
			<path class="st1" d="M76.276,48.917l2.25-1l2.55-0.2l-2.45,0.6C77.693,48.717,76.909,48.917,76.276,48.917"/>
			<path class="st1" d="M79.626,26.617c0.633,0.067,0.833,0.367,0.6,0.9s-0.667,0.717-1.3,0.55l0.65-0.5
				C79.809,27.4,79.826,27.083,79.626,26.617"/>
			<path class="st1" d="M78.176,14.117l-2.4-0.35c-1.033-0.333-1.75-0.767-2.15-1.3c-1.3,0.167-2.1,0.8-2.4,1.9
				c-0.167-0.6,0.083-1.15,0.75-1.65c0.667-0.533,1.45-0.783,2.35-0.75c0.2,0.633,0.717,1.117,1.55,1.45L78.176,14.117"/>
			<path class="st1" d="M75.476,19.417l0.3-0.15l-2.8,3.8l-2.9,3.7l-0.15,0.05C70.859,25.083,72.709,22.617,75.476,19.417"/>
			<path class="st0" d="M74.826,34.317c-0.233,0.533-0.317,1.333-0.25,2.4c-0.967-0.533-1.917-0.783-2.85-0.75
				c-0.267-1.233,0-1.967,0.8-2.2C73.226,33.567,73.993,33.75,74.826,34.317"/>
			<path class="st1" d="M72.426,44.367l-0.7,0.75c-0.467,0.5-0.55,1.133-0.25,1.9c-0.333-0.167-0.5-0.8-0.5-1.9
				c0.033,0,0.25-0.15,0.65-0.45C71.859,44.467,72.126,44.367,72.426,44.367c-0.6-0.833-0.517-1.633,0.25-2.4
				c0.233,0.1,0.217,0.4-0.05,0.9c-0.233,0.433-0.133,0.7,0.3,0.8L72.426,44.367"/>
			<path class="st0" d="M70.726,33.817c0.267,0.2,0.317,0.55,0.15,1.05c-0.2,0.6-0.25,1.05-0.15,1.35c-1.3,0.5-2.567,1.533-3.8,3.1
				l-0.6-1.95c-0.3-0.6-0.75-0.983-1.35-1.15c0.267-0.467,0.783-0.767,1.55-0.9c0.8-0.133,1.4,0,1.8,0.4
				C69.293,35.35,70.093,34.717,70.726,33.817"/>
			<path class="st1" d="M69.526,19.417c-1.3,0.2-2.25,0.683-2.85,1.45l-1.25-0.4c-0.467-0.1-0.85,0.033-1.15,0.4
				c-0.333-0.3-0.083-0.533,0.75-0.7c0.8-0.133,1.267,0.017,1.4,0.45l0.7-0.65l0.5-0.8h1.1L69.526,19.417"/>
			<path class="st1" d="M67.126,23.717c0.067,0.5-0.017,0.933-0.25,1.3l-0.7,0.9c-0.2-0.1-0.167-0.333,0.1-0.7l0.65-0.75
				c-0.5-1.033-1.233-1.367-2.2-1c-0.833,0.3-1.467,0.867-1.9,1.7l0.85,0.8l1.3,0.15c0.533,0,0.35,0.05-0.55,0.15
				c-1.2,0-1.9-0.283-2.1-0.85l0.55-0.9c0.233-0.333,0.533-0.517,0.9-0.55c-1.233-0.2-0.983-0.517,0.75-0.95
				C66.026,22.65,66.893,22.883,67.126,23.717"/>
			<path class="st2" d="M61.426,43.167c1-1.567,2.35-2.6,4.05-3.1l1.05,4.75c0.433,1.733,0.483,3.35,0.15,4.85
				c-2.2,0.033-4.2,0.833-6,2.4l-4.55,3.85c-0.633-1.533-0.35-2.983,0.85-4.35l3.2-3.1C60.043,46.5,60.459,44.733,61.426,43.167
				 M64.726,42.917c-0.467,0.1-0.7,0.183-0.7,0.25c0.5,0.167,0.617,0.467,0.35,0.9l-0.85,0.8c0.567,0.067,1-0.133,1.3-0.6
				C65.093,43.8,65.059,43.35,64.726,42.917"/>
			<path class="st1" d="M66.426,31.667c0.1,0.4,0.067,0.717-0.1,0.95l-0.6,0.5c-0.367-0.167-0.617-0.567-0.75-1.2l0.35,0.35
				l0.4,0.35c0.267-0.067,0.333-0.233,0.2-0.5l-0.2-0.7L66.426,31.667"/>
			<path class="st2" d="M61.876,35.267l2.7,1.55c0.867,0.7,1.25,1.7,1.15,3c-1.567,0.233-2.9,1-4,2.3c-1,1.167-1.667,2.567-2,4.2
				v0.8v0.85c-0.3,0.733-0.967,1.567-2,2.5c-1,0.933-1.617,1.7-1.85,2.3c-0.267-0.233-0.433-0.717-0.5-1.45
				c-0.3,0.067-0.333,0.367-0.1,0.9c0.167,0.433,0.05,0.617-0.35,0.55c-0.7-2.467-0.883-4.883-0.55-7.25
				c0.3-0.8,0.467-1.567,0.5-2.3c0.967-2.833,2.817-4.367,5.55-4.6C60.426,36.95,60.909,35.833,61.876,35.267 M57.526,46.517
				l-0.9-0.05c-0.267,0.167-0.367,0.517-0.3,1.05C57.293,47.617,57.693,47.283,57.526,46.517"/>
			<path class="st1" d="M64.726,42.917c0.333,0.433,0.367,0.883,0.1,1.35c-0.3,0.467-0.733,0.667-1.3,0.6l0.85-0.8
				c0.267-0.433,0.15-0.733-0.35-0.9C64.026,43.1,64.259,43.017,64.726,42.917"/>
			<path class="st2" d="M58.976,26.117c1.2,0.967,1.617,2.333,1.25,4.1s-1.267,2.8-2.7,3.1l1.05-0.25l1.15-0.2l0.35-1.1
				c0.167-0.433,0.367-0.717,0.6-0.85c0.5,1.267,0.6,2.567,0.3,3.9l-1.05,3.55c-0.6,0.1-1.25,0.367-1.95,0.8l-1.85,0.9
				c0.367-0.533,0.517-1.733,0.45-3.6l-0.5-0.1c-0.167-0.067-0.233-0.2-0.2-0.4c-0.833,0.133-1.783,0.517-2.85,1.15l-0.9,0.6
				l-1.05,0.65c-1.633-0.967-3.383-1.433-5.25-1.4l-0.05-0.05v0.05c-1.433,0-2.717,0.383-3.85,1.15c-0.267-0.967-0.583-1.6-0.95-1.9
				c1.467-0.267,3.15-1.15,5.05-2.65c1.933-1.5,3.617-2.383,5.05-2.65c0.833,2.333,2.583,2.9,5.25,1.7v2.9
				c0.633-0.367,0.833-1.05,0.6-2.05c-0.3-1.2-0.417-1.883-0.35-2.05l-1.85,0.9l-2.45,0.3l-0.45-1.15l-0.5-1
				c-2.767,0.6-4.7,1.717-5.8,3.35c-0.3,0.067-0.733,0.267-1.3,0.6l-1.55,0.85c-2.833,1.067-3.367,0.783-1.6-0.85
				c1.867-1.733,3.35-2.65,4.45-2.75l0.25,0.7c0.233-0.933,1.55-1.9,3.95-2.9l5.35-2.3l0.95,1.8l0.8,1.95
				c0.033-0.533-0.05-1.083-0.25-1.65l-0.45-1.45c0.4,0.4,0.833,0.267,1.3-0.4C58.026,26.55,58.543,26.117,58.976,26.117
				 M48.676,34.517c0.3-0.167,0.467-0.067,0.5,0.3c0.067,0.367-0.017,0.517-0.25,0.45l-0.3-0.25l-0.2-0.25l0.25,0.75l0.5-0.1
				c0.167-0.1,0.317-0.15,0.45-0.15c0.167-0.5,0.083-0.867-0.25-1.1C49.009,33.933,48.776,34.05,48.676,34.517"/>
			<path class="st1" d="M57.526,46.517c0.167,0.767-0.233,1.1-1.2,1c-0.067-0.533,0.033-0.883,0.3-1.05L57.526,46.517"/>
			<path class="st0" d="M55.076,27.167l-5.35,2.3c-2.4,1-3.717,1.967-3.95,2.9l-0.25-0.7c-1.1,0.1-2.583,1.017-4.45,2.75
				c-1.767,1.633-1.233,1.917,1.6,0.85l1.55-0.85c0.567-0.333,1-0.533,1.3-0.6c1.1-1.633,3.033-2.75,5.8-3.35l0.5,1l0.45,1.15
				l2.45-0.3l1.85-0.9c-0.067,0.167,0.05,0.85,0.35,2.05c0.233,1,0.033,1.683-0.6,2.05v-2.9c-2.667,1.2-4.417,0.633-5.25-1.7
				c-1.433,0.267-3.117,1.15-5.05,2.65c-1.9,1.5-3.583,2.383-5.05,2.65c0.367,0.3,0.683,0.933,0.95,1.9
				c1.133-0.767,2.417-1.15,3.85-1.15c-0.4,0.467-0.917,0.733-1.55,0.8c-0.733,0.067-1.333,0.267-1.8,0.6
				c-0.3,0.233-0.75,0.95-1.35,2.15c-0.533,1.033-1.05,1.6-1.55,1.7l-1.15-0.3c-0.5-0.4-0.833-0.617-1-0.65l-0.55,0.1l-0.65,0.15
				c-1.867-0.3-3.517-0.95-4.95-1.95c-1.7-1.133-2.683-2.483-2.95-4.05l-5.8-3.15l-5.95-2.85c-0.067,0.5-0.317,0.767-0.75,0.8
				l-1.2,0.15c0.633,0,1.35,0.333,2.15,1c0.8,0.633,1.367,0.933,1.7,0.9c-0.033-0.367-0.45-0.717-1.25-1.05
				c-0.7-0.333-1-0.617-0.9-0.85l1.5,0.9l1.35,1c0.2,1.233,1.133,2.333,2.8,3.3c1.9,1.1,2.967,1.85,3.2,2.25l-2.8-1.8l-2.7-1.8
				l-0.25,1.85c-0.2,0.933-0.283,1.75-0.25,2.45l-0.1,0.1l0.1,0.15c-0.367,0.267-0.5,0.733-0.4,1.4v1.35l-0.3-0.35l-0.85,0.35
				l-0.85,0.35c-1.067-0.667-2.283-1.117-3.65-1.35l-4.25-0.55c0.367-1.6-0.2-2.833-1.7-3.7c-1.567-0.867-3-0.75-4.3,0.35
				c0.867-1.4,2.283-1.683,4.25-0.85s2.867,2.15,2.7,3.95l1.6,0.2l1.3,0.05l-0.3-2.05c-0.267-1.167-0.417-2-0.45-2.5
				c0.533-0.533,0.967-1.383,1.3-2.55l0.9-3l0.95-0.1l0.7-0.35l-0.3-0.9l-0.65-0.55c0.167-0.833,0.5-1.817,1-2.95l1.15-2.8
				c-0.933-1.4-1.15-2.833-0.65-4.3c0.567-1.633,1.833-2.283,3.8-1.95c-0.1-1.733,0.9-2.783,3-3.15
				c2.067-0.333,3.383,0.067,3.95,1.2l0.7-0.2c-0.333-1.2,0.15-2.233,1.45-3.1c1.333-0.867,2.533-0.8,3.6,0.2
				c0.667-1.233,1.933-1.917,3.8-2.05c1.967-0.133,3.183,0.55,3.65,2.05c-1.1-0.967-2.45-1.35-4.05-1.15
				c-1.6,0.167-2.733,0.867-3.4,2.1c-0.767-0.5-1.4-0.817-1.9-0.95c-1.5,0.467-2.383,1.267-2.65,2.4c0.067,0.2,0.433,0.383,1.1,0.55
				c0.6,0.133,0.867,0.433,0.8,0.9c-0.7-0.433-1.5-0.533-2.4-0.3c-0.833,0.233-1.467,0.65-1.9,1.25c-0.2-0.067-0.2-0.25,0-0.55
				l0.45-0.65c-0.767-1.133-1.917-1.45-3.45-0.95c-1.567,0.533-2.25,1.567-2.05,3.1c-2.067-0.767-3.3-0.05-3.7,2.15
				c-0.4,2.167,0.117,3.533,1.55,4.1l1.4-0.05l1.25-0.2l-0.2,1.25l-0.05,1.4l3.1,4.8c1.233,0.367,3.383,1.233,6.45,2.6
				c2.733,1.2,4.833,1.933,6.3,2.2c1.067,0.2,2.617-0.283,4.65-1.45l4.45-2.85c2.533-1.533,5.483-2.817,8.85-3.85L55.076,27.167
				 M18.876,23.417c-0.6-0.167-1.067-0.467-1.4-0.9l-0.95,2.55l-1,2.5c1.167,0.833,3.367,2.083,6.6,3.75
				c2.9,1.5,5.033,2.817,6.4,3.95c0.4,2.067,1.8,3.567,4.2,4.5l7.05,1.75l-1.9-6c-3.133-0.6-6.45-1.7-9.95-3.3l-8.8-4.4l-0.45-0.75
				c-0.067-0.4,0.017-0.717,0.25-0.95l-1.15-0.6c-0.5-0.267-0.683-0.467-0.55-0.6l1.2,0.45c0.5,0.2,0.817,0.45,0.95,0.75
				c-0.167,0.2-0.233,0.433-0.2,0.7l0.2,0.75c0.3,0.267,0.8,0.533,1.5,0.8l1.65,0.65l-1.65-2.6c-0.667-1.033-0.683-2.083-0.05-3.15
				L18.876,23.417 M16.276,31.617c-0.6-0.567-1.25-0.867-1.95-0.9c-0.367,1.433-0.917,2.95-1.65,4.55l1.4,0.75
				c0.567,0.367,1.05,0.6,1.45,0.7c0.2-0.633,0.567-1.317,1.1-2.05l1.3-1.8L16.276,31.617 M16.976,39.917
				c0.233,0.467,0.633,0.833,1.2,1.1c0.267-0.467,0.367-1.1,0.3-1.9c-0.1-0.833-0.35-1.317-0.75-1.45l0.5,0.1l0.45,0.15l0.05-1.3
				l0.2-1.1c-1.233,0.333-1.967,1.183-2.2,2.55c-0.1,0.667-0.05,1.25,0.15,1.75l-1.1-1.8c-0.967-1.233-2-2.067-3.1-2.5l0.15,2.35
				l0.3,2.2c0.567-0.033,1.317,0.233,2.25,0.8c0.833,0.5,1.533,0.633,2.1,0.4L16.976,39.917 M39.076,35.717
				c-0.133,0.833-0.1,1.733,0.1,2.7c0.267,1.167,0.717,1.867,1.35,2.1c0.833-0.667,1.117-1.533,0.85-2.6
				c-0.233-1.1-0.85-1.583-1.85-1.45c0.2-0.067,0.283-0.233,0.25-0.5L39.076,35.717"/>
			<path class="st3" d="M55.776,40.067l-0.85,2.65c-1.567-0.467-2.9-0.183-4,0.85c-0.467,0.4-1.217,1.467-2.25,3.2
				c-1.1,0.167-2.367,0.617-3.8,1.35c-1.633,0.833-2.85,1.35-3.65,1.55l-0.1-1.75c-0.067-0.567,0.05-0.95,0.35-1.15l-1-0.15
				c-0.333,0.067-0.567-0.2-0.7-0.8c-0.433,0.233-0.683,0.55-0.75,0.95l0.05,1.45l-2.75,1l-3.25,0.2c0.5,0.567,1.2,0.75,2.1,0.55
				l2.45-0.55l2,2.8c0.833,1.1,1.283,2.25,1.35,3.45c0.767,0.033,1.383-0.2,1.85-0.7l1.05-1.45c1.267,0.7,2.583,0.567,3.95-0.4
				c1.6-1.2,2.6-1.8,3-1.8c0.333,0.067,0.533,0.4,0.6,1l0.1,1.4c-3-0.4-5.717,0.95-8.15,4.05l-0.7,0.55h-0.05
				c-2.133,1-5.317,1-9.55,0l-0.4-3.9l-0.2-4.3c-0.833-0.2-1.45-0.683-1.85-1.45l-0.8-2.25c-1.167-0.733-2.967-2.033-5.4-3.9
				c-2.3-1.733-4.1-3-5.4-3.8l0.1-0.1c-0.033-0.7,0.05-1.517,0.25-2.45l0.25-1.85l2.7,1.8l2.8,1.8c-0.233-0.4-1.3-1.15-3.2-2.25
				c-1.667-0.967-2.6-2.067-2.8-3.3l-1.35-1l-1.5-0.9c-0.1,0.233,0.2,0.517,0.9,0.85c0.8,0.333,1.217,0.683,1.25,1.05
				c-0.333,0.033-0.9-0.267-1.7-0.9c-0.8-0.667-1.517-1-2.15-1l1.2-0.15c0.433-0.033,0.683-0.3,0.75-0.8l5.95,2.85l5.8,3.15
				c0.267,1.567,1.25,2.917,2.95,4.05c1.433,1,3.083,1.65,4.95,1.95l0.65-0.15l0.55-0.1c0.167,0.033,0.5,0.25,1,0.65l1.15,0.3
				c0.5-0.1,1.017-0.667,1.55-1.7c0.6-1.2,1.05-1.917,1.35-2.15c0.467-0.333,1.067-0.533,1.8-0.6c0.633-0.067,1.15-0.333,1.55-0.8
				h0.05l2.7,0.65c1.133,0.233,1.9,0.567,2.3,1c-0.2,2-1.15,3.6-2.85,4.8c-0.567,0.4-2.267,1.25-5.1,2.55l2.85-0.85
				c1.167-0.333,2.067-0.733,2.7-1.2c0.567-0.433,1.083-1.167,1.55-2.2l1.15-2.65c0.367-0.033,1.1-0.4,2.2-1.1
				c1.067-0.667,2-1.017,2.8-1.05C56.226,37.95,56.109,39,55.776,40.067 M53.526,40.267l-0.55-0.45l0.15,0.5l0.1,0.45
				c0.4,0.067,0.683-0.1,0.85-0.5c0.167-0.367,0.05-0.6-0.35-0.7C53.793,40.067,53.726,40.3,53.526,40.267 M44.126,40.117
				c-0.367-0.133-0.7-0.067-1,0.2v0.95c0.933,0.367,1.5,0.2,1.7-0.5C44.726,40.467,44.493,40.25,44.126,40.117 M45.026,43.267
				c-1.267,0.633-3.567,1.25-6.9,1.85c0.233-0.5,0.217-1.05-0.05-1.65l-0.7-1.5c-0.067,0.5,0,0.967,0.2,1.4l0.55,1
				c-0.733,2.367-3.233,2.517-7.5,0.45c-4.233-2.067-6.067-4.133-5.5-6.2l-2.4-1.6c-1.033-0.667-1.833-1.017-2.4-1.05
				c0.333,0.3,1.133,0.8,2.4,1.5c1.033,0.567,1.767,1.117,2.2,1.65c-0.233,0.3-0.317,0.7-0.25,1.2c1.6,2.067,3.55,3.667,5.85,4.8
				c2.733,1.333,5.5,1.733,8.3,1.2l-1,0.05c-0.433,0-0.667-0.1-0.7-0.3c1.333-0.533,3.833-1.283,7.5-2.25
				c2.967-1.233,4.317-3.133,4.05-5.7C48.409,40.45,47.193,42.167,45.026,43.267 M26.126,35.017c-0.5-0.067-0.9,0.017-1.2,0.25
				c-0.033,0.4,0.033,0.717,0.2,0.95c0.5,0.033,0.833-0.067,1-0.3C26.293,35.683,26.293,35.383,26.126,35.017 M26.126,38.367
				c-0.167,2.333,1.35,3.933,4.55,4.8l-2.9-1.75C26.843,40.617,26.293,39.6,26.126,38.367 M32.826,41.517
				c-0.167-0.2-0.45-0.283-0.85-0.25c-0.4,0-0.6,0.15-0.6,0.45l0.55,0.45c0.167,0.233,0.383,0.333,0.65,0.3l0.2-0.4L32.826,41.517
				 M35.826,45.267l0.85-0.15l-1-0.25c-0.5-0.1-0.817-0.017-0.95,0.25L35.826,45.267"/>
			<path class="st1" d="M55.526,26.667l0.1,0.1l-0.55,0.4l-0.2-0.3L55.526,26.667"/>
			<path class="st0" d="M55.376,53.267v3.35l-1.9-1.7c-0.7-0.7-1.1-1.5-1.2-2.4l1.65,0.55L55.376,53.267"/>
			<path class="st2" d="M51.026,44.067c0.933-0.933,2.233-1.317,3.9-1.15l-0.05,0.3c-0.233,0.6-0.4,1.367-0.5,2.3
				c-0.567,1.367-1.817,2.783-3.75,4.25c-2.133,1.6-3.5,2.917-4.1,3.95l-2.45-0.65l-2.6-0.55l-0.15-0.8
				c-0.133-0.3-0.167-0.583-0.1-0.85c2.6-1.567,5.233-2.767,7.9-3.6C49.826,45.7,50.459,44.633,51.026,44.067 M52.776,45.417
				c0.4-0.467,0.317-0.817-0.25-1.05c0.067,0.6-0.1,0.917-0.5,0.95c-0.1-0.167-0.05-0.4,0.15-0.7c0.1-0.2-0.033-0.283-0.4-0.25
				l-0.1,0.65c-0.133,0.2-0.183,0.383-0.15,0.55C51.926,45.933,52.343,45.883,52.776,45.417 M47.726,49.917
				c-0.233-0.233-0.483-0.283-0.75-0.15l-0.45,0.6l0.4,0.2l0.55,0.05L47.726,49.917"/>
			<path class="st0" d="M54.426,52.517l-1.1-0.1l-1.05-0.1c-0.1-0.767,0.017-1.45,0.35-2.05l1.1-1.35c0.3,0.233,0.45,0.8,0.45,1.7
				C54.209,51.617,54.293,52.25,54.426,52.517"/>
			<path class="st1" d="M53.726,39.567c0.4,0.1,0.517,0.333,0.35,0.7c-0.167,0.4-0.45,0.567-0.85,0.5l-0.1-0.45l-0.15-0.5l0.55,0.45
				C53.726,40.3,53.793,40.067,53.726,39.567"/>
			<path class="st0" d="M53.726,36.917c0.067,0.333-0.233,0.717-0.9,1.15l-1.65,0.95c0.233-0.467,0.55-0.9,0.95-1.3l0.9-0.6
				L53.726,36.917"/>
			<path class="st1" d="M52.526,44.367c0.567,0.233,0.65,0.583,0.25,1.05c-0.433,0.467-0.85,0.517-1.25,0.15
				c-0.033-0.167,0.017-0.35,0.15-0.55l0.1-0.65c0.367-0.033,0.5,0.05,0.4,0.25c-0.2,0.3-0.25,0.533-0.15,0.7
				C52.426,45.283,52.593,44.967,52.526,44.367"/>
			<path class="st1" d="M51.076,38.367l1.05-0.65c-0.4,0.4-0.717,0.833-0.95,1.3l-0.05,0.05l-1.15,2.65
				c-0.467,1.033-0.983,1.767-1.55,2.2c-0.633,0.467-1.533,0.867-2.7,1.2l-2.85,0.85c2.833-1.3,4.533-2.15,5.1-2.55
				c1.7-1.2,2.65-2.8,2.85-4.8c-0.4-0.433-1.167-0.767-2.3-1l-2.7-0.65C47.693,36.933,49.443,37.4,51.076,38.367"/>
			<path class="st2" d="M43.126,58.067l0.25-0.3l3.3-2.6c1.3-0.8,2.6-1.117,3.9-0.95c-1.133,0.567-1.967,1.167-2.5,1.8
				c-0.7,0.867-1.067,1.95-1.1,3.25c-1.233,0.433-2.117,0.817-2.65,1.15c-0.9,0.533-1.533,1.183-1.9,1.95
				c-2.233-0.033-4,0.767-5.3,2.4l-0.8-0.5c-0.433-0.167-0.717-0.317-0.85-0.45c0.033-0.5-0.05-0.967-0.25-1.4
				c-0.2-0.5-0.433-0.6-0.7-0.3l-1.05-1c-0.667-0.5-0.883-1.117-0.65-1.85l0.35-0.25l0.35-0.25l3.05,0.7l2.75,0.25
				c1.033-0.133,2.133-0.6,3.3-1.4h0.05C42.843,58.25,42.993,58.167,43.126,58.067"/>
			<path class="st1" d="M49.376,34.167c0.333,0.233,0.417,0.6,0.25,1.1c-0.133,0-0.283,0.05-0.45,0.15l-0.5,0.1l-0.25-0.75l0.2,0.25
				l0.3,0.25c0.233,0.067,0.317-0.083,0.25-0.45c-0.033-0.367-0.2-0.467-0.5-0.3C48.776,34.05,49.009,33.933,49.376,34.167"/>
			<path class="st1" d="M48.676,38.117c0.267,2.567-1.083,4.467-4.05,5.7c-3.667,0.967-6.167,1.717-7.5,2.25
				c0.033,0.2,0.267,0.3,0.7,0.3l1-0.05c-2.8,0.533-5.567,0.133-8.3-1.2c-2.3-1.133-4.25-2.733-5.85-4.8
				c-0.067-0.5,0.017-0.9,0.25-1.2c-0.433-0.533-1.167-1.083-2.2-1.65c-1.267-0.7-2.067-1.2-2.4-1.5
				c0.567,0.033,1.367,0.383,2.4,1.05l2.4,1.6c-0.567,2.067,1.267,4.133,5.5,6.2c4.267,2.067,6.767,1.917,7.5-0.45l-0.55-1
				c-0.2-0.433-0.267-0.9-0.2-1.4l0.7,1.5c0.267,0.6,0.283,1.15,0.05,1.65c3.333-0.6,5.633-1.217,6.9-1.85
				C47.193,42.167,48.409,40.45,48.676,38.117"/>
			<path class="st1" d="M47.726,49.917l-0.25,0.7l-0.55-0.05l-0.4-0.2l0.45-0.6C47.243,49.633,47.493,49.683,47.726,49.917"/>
			<path class="st1" d="M45.526,21.117c-0.033,0.233-0.267,0.317-0.7,0.25l-0.7-0.25c-2.033,0.5-2.25,0.467-0.65-0.1L45.526,21.117"
				/>
			<path class="st1" d="M44.826,40.767c-0.2,0.7-0.767,0.867-1.7,0.5v-0.95c0.3-0.267,0.633-0.333,1-0.2
				C44.493,40.25,44.726,40.467,44.826,40.767"/>
			<path class="st0" d="M40.726,47.267l0.15,0.95l0.1,0.95c-0.867-0.533-1.35-1.333-1.45-2.4l0.55,0.3L40.726,47.267"/>
			<path class="st0" d="M38.826,48.467l1.45,1.3c0.5,0.567,0.733,1.25,0.7,2.05l-1.45-0.8l-1.2-1.1l0.25-0.7L38.826,48.467"/>
			<path class="st3" d="M39.526,36.467c1-0.133,1.617,0.35,1.85,1.45c0.267,1.067-0.017,1.933-0.85,2.6
				c-0.633-0.233-1.083-0.933-1.35-2.1c-0.2-0.967-0.233-1.867-0.1-2.7l0.7,0.25C39.809,36.233,39.726,36.4,39.526,36.467"/>
			<path class="st1" d="M33.526,58.767l-0.35,0.25l-0.35,0.25v-0.75l0.3,0.05l-0.05-0.25c4.233,1,7.417,1,9.55,0
				c-1.167,0.8-2.267,1.267-3.3,1.4l-2.75-0.25L33.526,58.767"/>
			<path class="st3" d="M20.826,23.267c-0.633,1.067-0.617,2.117,0.05,3.15l1.65,2.6l-1.65-0.65c-0.7-0.267-1.2-0.533-1.5-0.8
				l-0.2-0.75c-0.033-0.267,0.033-0.5,0.2-0.7c-0.133-0.3-0.45-0.55-0.95-0.75l-1.2-0.45c-0.133,0.133,0.05,0.333,0.55,0.6l1.15,0.6
				c-0.233,0.233-0.317,0.55-0.25,0.95l0.45,0.75l8.8,4.4c3.5,1.6,6.817,2.7,9.95,3.3l1.9,6l-7.05-1.75
				c-2.4-0.933-3.8-2.433-4.2-4.5c-1.367-1.133-3.5-2.45-6.4-3.95c-3.233-1.667-5.433-2.917-6.6-3.75l1-2.5l0.95-2.55
				c0.333,0.433,0.8,0.733,1.4,0.9L20.826,23.267 M34.276,38.367c0.133-0.3,0.067-0.567-0.2-0.8c-0.233-0.267-0.417-0.233-0.55,0.1
				l0.35,0.25c0.1,0.1,0.067,0.167-0.1,0.2l-0.45-0.3c-0.133-0.167-0.217-0.133-0.25,0.1l0.4,0.4L34.276,38.367"/>
			<path class="st1" d="M36.426,23.267c-0.133-0.567,0.467-0.933,1.8-1.1c1.3-0.167,1.983,0.2,2.05,1.1
				c-0.567-0.4-1.217-0.617-1.95-0.65C37.526,22.583,36.893,22.8,36.426,23.267"/>
			<path class="st1" d="M39.076,29.267l-0.65,0.1c-0.367,0.033-0.633,0.15-0.8,0.35c-0.033,0.333,0.067,0.633,0.3,0.9l-0.05,0.8
				l-1.8,0.2c-0.7-0.2-1.15-0.5-1.35-0.9l-1.25,0.2c0-0.167,0.417-0.317,1.25-0.45c0.367,0.4,0.783,0.683,1.25,0.85l1.65-0.15
				c-0.467-0.533-0.5-1.067-0.1-1.6C37.893,29.033,38.409,28.933,39.076,29.267"/>
			<path class="st1" d="M36.676,45.117l-0.85,0.15l-1.1-0.15c0.133-0.267,0.45-0.35,0.95-0.25L36.676,45.117"/>
			<path class="st1" d="M28.876,53.367c1.533,1.233,2.217,2.95,2.05,5.15c0.733,0.467,1.367,0.717,1.9,0.75
				c-0.233,0.733-0.017,1.35,0.65,1.85l1.05,1c-0.5,0-1.2-0.5-2.1-1.5c-0.833-1-1.583-1.45-2.25-1.35
				c0.533-1.5,0.25-3.183-0.85-5.05L28.876,53.367 M28.726,53.117c-0.6-1.3-0.7-2.4-0.3-3.3l0.25-0.5l0.05-0.15V53.117"/>
			<path class="st1" d="M33.526,37.667c0.133-0.333,0.317-0.367,0.55-0.1c0.267,0.233,0.333,0.5,0.2,0.8l-0.8-0.05l-0.4-0.4
				c0.033-0.233,0.117-0.267,0.25-0.1l0.45,0.3c0.167-0.033,0.2-0.1,0.1-0.2L33.526,37.667"/>
			<path class="st3" d="M19.026,38.717c1.3,0.8,3.1,2.067,5.4,3.8c2.433,1.867,4.233,3.167,5.4,3.9l0.8,2.25
				c0.4,0.767,1.017,1.25,1.85,1.45l0.2,4.3c0.067,1.667,0.217,3.05,0.45,4.15l-0.3-0.05v0.75c-0.533-0.033-1.167-0.283-1.9-0.75
				c0.167-2.267-0.567-4.017-2.2-5.25v-4.1l-0.05,0.15l0.05-0.6l-0.95-1.6c-0.467-0.6-0.983-0.883-1.55-0.85
				c-0.367-0.3-0.733-0.367-1.1-0.2c-0.6-0.233-1.517-1.083-2.75-2.55c-1-1.233-2.183-1.833-3.55-1.8l-0.1-0.1v-1.35
				c-0.1-0.667,0.033-1.133,0.4-1.4L19.026,38.717"/>
			<path class="st1" d="M32.826,41.517l-0.05,0.55l-0.2,0.4c-0.267,0.033-0.483-0.067-0.65-0.3l-0.55-0.45c0-0.3,0.2-0.45,0.6-0.45
				C32.376,41.233,32.659,41.317,32.826,41.517"/>
			<path class="st1" d="M28.976,19.417c1.4-0.867,2.767-0.7,4.1,0.5c1.133,1.033,1.85,2.383,2.15,4.05l-2.25-3.45
				C31.876,19.417,30.543,19.05,28.976,19.417"/>
			<path class="st1" d="M28.726,48.717l-0.05,0.6l-0.25,0.5c-0.133,0-0.417-0.483-0.85-1.45l-1.35-2.1
				c0.567-0.033,1.083,0.25,1.55,0.85L28.726,48.717"/>
			<path class="st1" d="M26.126,38.367c0.167,1.233,0.717,2.25,1.65,3.05l2.9,1.75C27.476,42.3,25.959,40.7,26.126,38.367"/>
			<path class="st1" d="M26.126,35.017c0.167,0.367,0.167,0.667,0,0.9s-0.5,0.333-1,0.3c-0.167-0.233-0.233-0.55-0.2-0.95
				C25.226,35.033,25.626,34.95,26.126,35.017"/>
			<path class="st1" d="M25.126,46.067c0.367-0.167,0.733-0.1,1.1,0.2l-0.85,0.25l-1.55-0.95c-0.633-0.367-1.233-0.6-1.8-0.7
				c-0.067-0.8-0.483-1.45-1.25-1.95c-0.933-0.467-1.583-0.867-1.95-1.2c1.367-0.033,2.55,0.567,3.55,1.8
				C23.609,44.983,24.526,45.833,25.126,46.067"/>
			<path class="st0" d="M18.676,37.917l-0.45-0.15l-0.5-0.1c0.4,0.133,0.65,0.617,0.75,1.45c0.067,0.8-0.033,1.433-0.3,1.9
				c-1.2-0.567-1.683-1.55-1.45-2.95c0.233-1.367,0.967-2.217,2.2-2.55l-0.2,1.1L18.676,37.917"/>
			<path class="st3" d="M17.476,41.267c-0.567,0.233-1.267,0.1-2.1-0.4c-0.933-0.567-1.683-0.833-2.25-0.8l-0.3-2.2l-0.15-2.35
				c1.1,0.433,2.133,1.267,3.1,2.5C16.576,39.083,17.143,40.167,17.476,41.267"/>
			<path class="st3" d="M14.326,30.717c0.7,0.033,1.35,0.333,1.95,0.9l1.65,1.25l-1.3,1.8c-0.533,0.733-0.9,1.417-1.1,2.05
				c-0.4-0.1-0.883-0.333-1.45-0.7l-1.4-0.75C13.409,33.667,13.959,32.15,14.326,30.717"/>
			<path class="st4" d="M46.126,23.867c-0.267-0.267-0.083-0.467,0.55-0.6c0.6-0.133,0.933-0.017,1,0.35
				c0,0.333-0.217,0.517-0.65,0.55C46.593,24.2,46.293,24.1,46.126,23.867z"/>
			<path class="st5" d="M48.526,16.167l-0.3-0.35c0.233-0.9,0.9-1.517,2-1.85l2.85,0.1l0.2,0.25c0.3,0.667,0.2,1.35-0.3,2.05
				c-0.467,0.7-1.067,1.067-1.8,1.1c-0.4-0.033-0.85-0.2-1.35-0.5C49.259,16.6,48.826,16.333,48.526,16.167z"/>
			<path class="st5" d="M60.526,11.617c-0.167-1.9,1.067-3.133,3.7-3.7c2.6-0.567,4.383,0.1,5.35,2c-1.133,1.567-2.467,2.883-4,3.95
				l-2.55-1L60.526,11.617z"/>
			<path class="st4" d="M19.026,38.717c1.3,0.8,3.1,2.067,5.4,3.8c2.433,1.867,4.233,3.167,5.4,3.9l0.8,2.25
				c0.4,0.767,1.017,1.25,1.85,1.45l0.2,4.3c0.067,1.667,0.217,3.05,0.45,4.15"/>
		</g>
		<g transform="matrix(1.0, 0.0, 0.0, 1.0, 0.0, 0.9)">
			<g id="shape0_1_" transform="matrix(1.0, 0.0, 0.0, 1.0, 0.0, -0.9)">
				<path class="st0" d="M88.483,13.31l2.1,3.5c0.833,1.3,1.667,2.1,2.5,2.4c-0.1,0.167-0.867,0.55-2.3,1.15
					c-1.367,0.567-2.2,1.233-2.5,2c0.167,1.233-0.167,2.217-1,2.95c-1.067,0.733-1.783,1.35-2.15,1.85l1.15,0.35
					c0.567,0.033,0.833,0.233,0.8,0.6c-1.333-0.567-2.633-0.55-3.9,0.05c-1.267,0.567-1.967,1.517-2.1,2.85
					c-1.8-1-3.45-0.533-4.95,1.4c-1.467,1.933-1.417,3.533,0.15,4.8c1.267-0.933,2.733-1.167,4.4-0.7
					c1.633,0.433,2.65,1.317,3.05,2.65c-0.633-1-1.7-1.733-3.2-2.2c-1.767-0.6-3.183-0.35-4.25,0.75c-0.6-0.067-1.167-0.333-1.7-0.8
					l-1.45-1.1c-2.667-0.3-4.583,0.767-5.75,3.2c-1.133,2.333-0.967,4.533,0.5,6.6c-0.333,0.333-0.517,0.983-0.55,1.95
					c0,0.833,0.1,1.55,0.3,2.15c-1.967-0.467-3.55-0.3-4.75,0.5c-1.3,0.867-1.8,2.3-1.5,4.3c-1.333,0.033-2.05,0.917-2.15,2.65
					c-0.5-0.333-0.717,0.067-0.65,1.2c0.067,1.5-0.033,2.383-0.3,2.65c-0.333-1.433-0.317-2.817,0.05-4.15
					c0.4-1.533,1.183-2.483,2.35-2.85c-0.167-0.133-0.25-0.4-0.25-0.8c0-0.4,0.083-0.683,0.25-0.85c-0.8,0.4-1.7,0.967-2.7,1.7
					c-1.1,0.8-1.967,1.583-2.6,2.35l-1.5-1.5c-0.7-0.567-1.15-1.1-1.35-1.6c-1.367,0.133-2.483,0.583-3.35,1.35
					c-1.033,0.9-1.517,2.133-1.45,3.7l-3,1.45c-1.133,0.633-1.817,1.433-2.05,2.4c-1.133-0.333-2.267-0.167-3.4,0.5
					c-1,0.6-1.633,1.3-1.9,2.1c-1.667-1-2.617-2.2-2.85-3.6c0.267-0.3,0.5-0.2,0.7,0.3c0.2,0.433,0.283,0.9,0.25,1.4
					c0.133,0.133,0.417,0.283,0.85,0.45l0.8,0.5c1.3-1.633,3.067-2.433,5.3-2.4c0.367-0.767,1-1.417,1.9-1.95
					c0.533-0.333,1.417-0.717,2.65-1.15c0.033-1.3,0.4-2.383,1.1-3.25c0.533-0.633,1.367-1.233,2.5-1.8
					c-1.3-0.167-2.6,0.15-3.9,0.95l-3.3,2.6c2.433-3.1,5.15-4.45,8.15-4.05l-0.1-1.4c-0.067-0.6-0.267-0.933-0.6-1
					c-0.4,0-1.4,0.6-3,1.8c-1.367,0.967-2.683,1.1-3.95,0.4l-1.05,1.45c-0.467,0.5-1.083,0.733-1.85,0.7
					c-0.067-1.2-0.517-2.35-1.35-3.45l-2-2.8l-2.45,0.55c-0.9,0.2-1.6,0.017-2.1-0.55l3.25-0.2l2.75-1l-0.05-1.45
					c0.067-0.4,0.317-0.717,0.75-0.95c0.133,0.6,0.367,0.867,0.7,0.8l1,0.15c-0.3,0.2-0.417,0.583-0.35,1.15l0.1,1.75
					c0.8-0.2,2.017-0.717,3.65-1.55c1.433-0.733,2.7-1.183,3.8-1.35c1.033-1.733,1.783-2.8,2.25-3.2c1.1-1.033,2.433-1.317,4-0.85
					l0.85-2.65c0.333-1.067,0.45-2.117,0.35-3.15c-0.8,0.033-1.733,0.383-2.8,1.05c-1.1,0.7-1.833,1.067-2.2,1.1l0.05-0.05
					l1.65-0.95c0.667-0.433,0.967-0.817,0.9-1.15l-0.7,0.2c1.067-0.633,2.017-1.017,2.85-1.15c-0.033,0.2,0.033,0.333,0.2,0.4
					l0.5,0.1c0.067,1.867-0.083,3.067-0.45,3.6l1.85-0.9c0.7-0.433,1.35-0.7,1.95-0.8l1.05-3.55c0.3-1.333,0.2-2.633-0.3-3.9
					c-0.233,0.133-0.433,0.417-0.6,0.85l-0.35,1.1l-1.15,0.2l-1.05,0.25c1.433-0.3,2.333-1.333,2.7-3.1s-0.05-3.133-1.25-4.1
					c-0.433,0-0.95,0.433-1.55,1.3c-0.467,0.667-0.9,0.8-1.3,0.4l0.45,1.45c0.2,0.567,0.283,1.117,0.25,1.65l-0.8-1.95l-0.95-1.8
					l0.55-0.4c0.5,0.367,0.817,0.717,0.95,1.05l1.2-1.6c0.433-0.7,0.917-1.133,1.45-1.3l1.25,2.15c0.4,0.833,0.55,1.65,0.45,2.45
					c0.8-0.033,2.2-0.4,4.2-1.1c2.433-0.9,4.033-1.433,4.8-1.6l-0.15,0.3l-4.8,1.95c-1.933,0.667-3.133,0.883-3.6,0.65
					c-0.333,0.267-0.25,0.933,0.25,2c0.533,1.167,0.7,1.95,0.5,2.35c1.367,0.6,2.233,1.233,2.6,1.9c0.6-0.433,1.783-0.783,3.55-1.05
					c1.4-0.233,2.383-0.833,2.95-1.8c0.067-1.033-0.117-1.967-0.55-2.8l-1.35-2c0.267-0.233,0.583-0.1,0.95,0.4l0.95,1
					c3.367-0.933,5.533-2.767,6.5-5.5c0.767-0.667,1.917-1.35,3.45-2.05l3.1-1.45l-4.45,2.45c-2.233,1.267-3.333,2.983-3.3,5.15
					c-0.833,0.267-1.533,0.55-2.1,0.85l-1.75,0.8c0.167-0.3,0.483-0.45,0.95-0.45l-1.05,0.05l-1.35,0.4
					c0.267,0.7,0.883,1.333,1.85,1.9l2.25,1.45l2.05-1.75c0.9-0.533,1.967-0.75,3.2-0.65c1.2-1.5,2.483-2.367,3.85-2.6
					c-0.533-1.267-0.333-3.033,0.6-5.3c0.867-2.1,0.9-3.867,0.1-5.3c0.967,0.933,1.183,2.367,0.65,4.3l-1.35,5.3
					c0.767-0.1,1.517-0.517,2.25-1.25c0.8-0.833,1.25-1.767,1.35-2.8l-0.6-0.7l-0.6-0.75l1.2,0.95c1.133-1.2,2.5-2,4.1-2.4
					c-0.7-0.467-1.467-1.35-2.3-2.65l-2-3.25L88.483,13.31 M75.883,27.31c0.5-0.367,0.633-0.733,0.4-1.1l-1.05,1.05
					c-0.567,0.367-0.783,0.65-0.65,0.85L75.883,27.31 M60.433,37.71c-2.733,0.233-4.583,1.767-5.55,4.6l0.05-0.3
					c-1.667-0.167-2.967,0.217-3.9,1.15c-0.567,0.567-1.2,1.633-1.9,3.2c-2.667,0.833-5.3,2.033-7.9,3.6
					c-0.067,0.267-0.033,0.55,0.1,0.85l0.15,0.8l2.6,0.55l2.45,0.65c0.6-1.033,1.967-2.35,4.1-3.95
					c1.933-1.467,3.183-2.883,3.75-4.25c-0.333,2.367-0.15,4.783,0.55,7.25c0.4,0.067,0.517-0.117,0.35-0.55
					c-0.233-0.533-0.2-0.833,0.1-0.9c0.067,0.733,0.233,1.217,0.5,1.45c0.233-0.6,0.85-1.367,1.85-2.3c1.033-0.933,1.7-1.767,2-2.5
					v-0.85v-0.8c0.333-1.633,1-3.033,2-4.2c1.1-1.3,2.433-2.067,4-2.3c0.1-1.3-0.283-2.3-1.15-3l-2.7-1.55
					C60.916,34.927,60.433,36.043,60.433,37.71 M53.333,51.51l1.1,0.1c-0.133-0.267-0.217-0.9-0.25-1.9c0-0.9-0.15-1.467-0.45-1.7
					l-1.1,1.35c-0.333,0.6-0.45,1.283-0.35,2.05L53.333,51.51 M60.183,47.56l-3.2,3.1c-1.2,1.367-1.483,2.817-0.85,4.35l4.55-3.85
					c1.8-1.567,3.8-2.367,6-2.4c0.333-1.5,0.283-3.117-0.15-4.85l-1.05-4.75c-1.7,0.5-3.05,1.533-4.05,3.1
					C60.466,43.827,60.05,45.593,60.183,47.56 M53.933,52.16l-1.65-0.55c0.1,0.9,0.5,1.7,1.2,2.4l1.9,1.7v-3.35L53.933,52.16
					 M74.833,33.41c-0.833-0.567-1.6-0.75-2.3-0.55c-0.8,0.233-1.067,0.967-0.8,2.2c0.933-0.033,1.883,0.217,2.85,0.75
					C74.516,34.743,74.6,33.943,74.833,33.41 M70.733,32.91c-0.633,0.9-1.433,1.533-2.4,1.9c-0.4-0.4-1-0.533-1.8-0.4
					c-0.767,0.133-1.283,0.433-1.55,0.9c0.6,0.167,1.05,0.55,1.35,1.15l0.6,1.95c1.233-1.567,2.5-2.6,3.8-3.1
					c-0.1-0.3-0.05-0.75,0.15-1.35C71.05,33.46,71,33.11,70.733,32.91 M39.533,45.86c0.1,1.067,0.583,1.867,1.45,2.4l-0.1-0.95
					l-0.15-0.95l-0.65-0.2L39.533,45.86 M40.283,48.86l-1.45-1.3l-0.25,0.75l-0.25,0.7l1.2,1.1l1.45,0.8
					C41.016,50.11,40.783,49.427,40.283,48.86"/>
				<path class="st1" d="M91.133,35.81l-1.35-0.2c-0.833-0.233-1.333-0.1-1.5,0.4c-0.533,0.033-1.233-0.433-2.1-1.4
					c-0.7-0.8-1.45-0.883-2.25-0.25c0.167-1.033,0.8-1.35,1.9-0.95c1.1,0.367,1.667,1.083,1.7,2.15l2-0.35
					C90.2,35.143,90.733,35.343,91.133,35.81"/>
				<path class="st1" d="M88.383,13.16l0.1,0.15l-0.65,0.25l-0.15-0.2L88.383,13.16"/>
				<path class="st2" d="M92.133,19.46c-1.6,0.4-2.967,1.2-4.1,2.4l-1.2-0.95l0.6,0.75l0.6,0.7c-0.1,1.033-0.55,1.967-1.35,2.8
					c-0.733,0.733-1.483,1.15-2.25,1.25l1.35-5.3c0.533-1.933,0.317-3.367-0.65-4.3c0.8,1.433,0.767,3.2-0.1,5.3
					c-0.933,2.267-1.133,4.033-0.6,5.3c-1.367,0.233-2.65,1.1-3.85,2.6c-1.233-0.1-2.3,0.117-3.2,0.65l-2.05,1.75l-2.25-1.45
					c-0.967-0.567-1.583-1.2-1.85-1.9l1.35-0.4l1.05-0.05c-0.467,0-0.783,0.15-0.95,0.45l1.75-0.8c0.567-0.3,1.267-0.583,2.1-0.85
					c-0.033-2.167,1.067-3.883,3.3-5.15l4.45-2.45l-3.1,1.45c-1.533,0.7-2.683,1.383-3.45,2.05c-0.967,2.733-3.133,4.567-6.5,5.5
					l-0.95-1c-0.367-0.5-0.683-0.633-0.95-0.4l1.35,2c0.433,0.833,0.617,1.767,0.55,2.8c-0.567,0.967-1.55,1.567-2.95,1.8
					c-1.767,0.267-2.95,0.617-3.55,1.05c-0.367-0.667-1.233-1.3-2.6-1.9c0.2-0.4,0.033-1.183-0.5-2.35
					c-0.5-1.067-0.583-1.733-0.25-2c0.467,0.233,1.667,0.017,3.6-0.65l4.8-1.95l-0.25,0.45l0.35-0.5l1.1-0.45l-0.9,0.15l2.9-3.7
					l2.8-3.8c5.1-1.933,9.117-3.533,12.05-4.8l2,3.25C90.666,18.11,91.433,18.993,92.133,19.46 M80.233,26.61
					c0.233-0.533,0.033-0.833-0.6-0.9c0.2,0.467,0.183,0.783-0.05,0.95l-0.65,0.5C79.566,27.327,80,27.143,80.233,26.61
					 M66.433,30.76l-0.7-0.25l0.2,0.7c0.133,0.267,0.067,0.433-0.2,0.5l-0.4-0.35l-0.35-0.35c0.133,0.633,0.383,1.033,0.75,1.2
					l0.6-0.5C66.5,31.477,66.533,31.16,66.433,30.76"/>
				<path class="st1" d="M88.383,13.16l-0.7,0.2c-1.467-1.833-3.267-2.283-5.4-1.35c-1.1-1.167-2.067-1.883-2.9-2.15
					c0.333-1.867-0.283-3.1-1.85-3.7c-1.4-0.567-2.867-0.45-4.4,0.35c1.1-1.2,2.633-1.533,4.6-1c2.033,0.567,2.9,1.783,2.6,3.65
					c0.167,0.2,0.567,0.5,1.2,0.9l1,1c1.333-0.433,2.517-0.433,3.55,0C86.883,11.427,87.65,12.127,88.383,13.16"/>
				<path class="st1" d="M87.833,13.56c-2.933,1.267-6.95,2.867-12.05,4.8l0.15-0.2c1.467-0.7,3.333-1.517,5.6-2.45l6.15-2.35
					L87.833,13.56"/>
				<path class="st1" d="M81.333,46.11c0.9-1.133,1.767-1.85,2.6-2.15c0.2,0.067-0.05,0.333-0.75,0.8
					c-0.867,0.533-1.333,0.983-1.4,1.35c0.3,1.167,0.25,2.217-0.15,3.15l-1.05,2.6c-0.1-0.533,0.1-1.383,0.6-2.55
					C81.65,48.21,81.7,47.143,81.333,46.11"/>
				<path class="st1" d="M76.283,48.01l2.25-1l2.55-0.2l-2.45,0.6C77.7,47.81,76.916,48.01,76.283,48.01"/>
				<path class="st1" d="M79.633,25.71c0.633,0.067,0.833,0.367,0.6,0.9s-0.667,0.717-1.3,0.55l0.65-0.5
					C79.816,26.493,79.833,26.177,79.633,25.71"/>
				<path class="st1" d="M78.183,13.21l-2.4-0.35c-1.033-0.333-1.75-0.767-2.15-1.3c-1.3,0.167-2.1,0.8-2.4,1.9
					c-0.167-0.6,0.083-1.15,0.75-1.65c0.667-0.533,1.45-0.783,2.35-0.75c0.2,0.633,0.717,1.117,1.55,1.45L78.183,13.21"/>
				<path class="st1" d="M75.483,18.51l0.3-0.15l-2.8,3.8l-2.9,3.7l-0.15,0.05C70.866,24.177,72.716,21.71,75.483,18.51"/>
				<path class="st0" d="M74.833,33.41c-0.233,0.533-0.317,1.333-0.25,2.4c-0.967-0.533-1.917-0.783-2.85-0.75
					c-0.267-1.233,0-1.967,0.8-2.2C73.233,32.66,74,32.843,74.833,33.41"/>
				<path class="st1" d="M72.433,43.46l-0.7,0.75c-0.467,0.5-0.55,1.133-0.25,1.9c-0.333-0.167-0.5-0.8-0.5-1.9
					c0.033,0,0.25-0.15,0.65-0.45C71.866,43.56,72.133,43.46,72.433,43.46c-0.6-0.833-0.517-1.633,0.25-2.4
					c0.233,0.1,0.217,0.4-0.05,0.9c-0.233,0.433-0.133,0.7,0.3,0.8L72.433,43.46"/>
				<path class="st0" d="M70.733,32.91c0.267,0.2,0.317,0.55,0.15,1.05c-0.2,0.6-0.25,1.05-0.15,1.35c-1.3,0.5-2.567,1.533-3.8,3.1
					l-0.6-1.95c-0.3-0.6-0.75-0.983-1.35-1.15c0.267-0.467,0.783-0.767,1.55-0.9c0.8-0.133,1.4,0,1.8,0.4
					C69.3,34.443,70.1,33.81,70.733,32.91"/>
				<path class="st1" d="M69.533,18.51c-1.3,0.2-2.25,0.683-2.85,1.45l-1.25-0.4c-0.467-0.1-0.85,0.033-1.15,0.4
					c-0.333-0.3-0.083-0.533,0.75-0.7c0.8-0.133,1.267,0.017,1.4,0.45l0.7-0.65l0.5-0.8h1.1L69.533,18.51"/>
				<path class="st1" d="M67.133,22.81c0.067,0.5-0.017,0.933-0.25,1.3l-0.7,0.9c-0.2-0.1-0.167-0.333,0.1-0.7l0.65-0.75
					c-0.5-1.033-1.233-1.367-2.2-1c-0.833,0.3-1.467,0.867-1.9,1.7l0.85,0.8l1.3,0.15c0.533,0,0.35,0.05-0.55,0.15
					c-1.2,0-1.9-0.283-2.1-0.85l0.55-0.9c0.233-0.333,0.533-0.517,0.9-0.55c-1.233-0.2-0.983-0.517,0.75-0.95
					C66.033,21.743,66.9,21.977,67.133,22.81"/>
				<path class="st2" d="M61.433,42.26c1-1.567,2.35-2.6,4.05-3.1l1.05,4.75c0.433,1.733,0.483,3.35,0.15,4.85
					c-2.2,0.033-4.2,0.833-6,2.4l-4.55,3.85c-0.633-1.533-0.35-2.983,0.85-4.35l3.2-3.1C60.05,45.593,60.466,43.827,61.433,42.26
					 M64.733,42.01c-0.467,0.1-0.7,0.183-0.7,0.25c0.5,0.167,0.617,0.467,0.35,0.9l-0.85,0.8c0.567,0.067,1-0.133,1.3-0.6
					C65.1,42.893,65.066,42.443,64.733,42.01"/>
				<path class="st1" d="M66.433,30.76c0.1,0.4,0.067,0.717-0.1,0.95l-0.6,0.5c-0.367-0.167-0.617-0.567-0.75-1.2l0.35,0.35
					l0.4,0.35c0.267-0.067,0.333-0.233,0.2-0.5l-0.2-0.7L66.433,30.76"/>
				<path class="st2" d="M61.883,34.36l2.7,1.55c0.867,0.7,1.25,1.7,1.15,3c-1.567,0.233-2.9,1-4,2.3c-1,1.167-1.667,2.567-2,4.2
					v0.8v0.85c-0.3,0.733-0.967,1.567-2,2.5c-1,0.933-1.617,1.7-1.85,2.3c-0.267-0.233-0.433-0.717-0.5-1.45
					c-0.3,0.067-0.333,0.367-0.1,0.9c0.167,0.433,0.05,0.617-0.35,0.55c-0.7-2.467-0.883-4.883-0.55-7.25
					c0.3-0.8,0.467-1.567,0.5-2.3c0.967-2.833,2.817-4.367,5.55-4.6C60.433,36.043,60.916,34.927,61.883,34.36 M57.533,45.61
					l-0.9-0.05c-0.267,0.167-0.367,0.517-0.3,1.05C57.3,46.71,57.7,46.377,57.533,45.61"/>
				<path class="st1" d="M64.733,42.01c0.333,0.433,0.367,0.883,0.1,1.35c-0.3,0.467-0.733,0.667-1.3,0.6l0.85-0.8
					c0.267-0.433,0.15-0.733-0.35-0.9C64.033,42.193,64.266,42.11,64.733,42.01"/>
				<path class="st2" d="M58.983,25.21c1.2,0.967,1.617,2.333,1.25,4.1s-1.267,2.8-2.7,3.1l1.05-0.25l1.15-0.2l0.35-1.1
					c0.167-0.433,0.367-0.717,0.6-0.85c0.5,1.267,0.6,2.567,0.3,3.9l-1.05,3.55c-0.6,0.1-1.25,0.367-1.95,0.8l-1.85,0.9
					c0.367-0.533,0.517-1.733,0.45-3.6l-0.5-0.1c-0.167-0.067-0.233-0.2-0.2-0.4c-0.833,0.133-1.783,0.517-2.85,1.15l-0.9,0.6
					l-1.05,0.65c-1.633-0.967-3.383-1.433-5.25-1.4l-0.05-0.05v0.05c-1.433,0-2.717,0.383-3.85,1.15
					c-0.267-0.967-0.583-1.6-0.95-1.9c1.467-0.267,3.15-1.15,5.05-2.65c1.933-1.5,3.617-2.383,5.05-2.65
					c0.833,2.333,2.583,2.9,5.25,1.7v2.9c0.633-0.367,0.833-1.05,0.6-2.05c-0.3-1.2-0.417-1.883-0.35-2.05l-1.85,0.9l-2.45,0.3
					l-0.45-1.15l-0.5-1c-2.767,0.6-4.7,1.717-5.8,3.35c-0.3,0.067-0.733,0.267-1.3,0.6l-1.55,0.85
					c-2.833,1.067-3.367,0.783-1.6-0.85c1.867-1.733,3.35-2.65,4.45-2.75l0.25,0.7c0.233-0.933,1.55-1.9,3.95-2.9l5.35-2.3l0.95,1.8
					l0.8,1.95c0.033-0.533-0.05-1.083-0.25-1.65l-0.45-1.45c0.4,0.4,0.833,0.267,1.3-0.4C58.033,25.643,58.55,25.21,58.983,25.21
					 M48.683,33.61c0.3-0.167,0.467-0.067,0.5,0.3c0.067,0.367-0.017,0.517-0.25,0.45l-0.3-0.25l-0.2-0.25l0.25,0.75l0.5-0.1
					c0.167-0.1,0.317-0.15,0.45-0.15c0.167-0.5,0.083-0.867-0.25-1.1C49.016,33.027,48.783,33.143,48.683,33.61"/>
				<path class="st1" d="M57.533,45.61c0.167,0.767-0.233,1.1-1.2,1c-0.067-0.533,0.033-0.883,0.3-1.05L57.533,45.61"/>
				<path class="st0" d="M55.083,26.26l-5.35,2.3c-2.4,1-3.717,1.967-3.95,2.9l-0.25-0.7c-1.1,0.1-2.583,1.017-4.45,2.75
					c-1.767,1.633-1.233,1.917,1.6,0.85l1.55-0.85c0.567-0.333,1-0.533,1.3-0.6c1.1-1.633,3.033-2.75,5.8-3.35l0.5,1l0.45,1.15
					l2.45-0.3l1.85-0.9c-0.067,0.167,0.05,0.85,0.35,2.05c0.233,1,0.033,1.683-0.6,2.05v-2.9c-2.667,1.2-4.417,0.633-5.25-1.7
					c-1.433,0.267-3.117,1.15-5.05,2.65c-1.9,1.5-3.583,2.383-5.05,2.65c0.367,0.3,0.683,0.933,0.95,1.9
					c1.133-0.767,2.417-1.15,3.85-1.15c-0.4,0.467-0.917,0.733-1.55,0.8c-0.733,0.067-1.333,0.267-1.8,0.6
					c-0.3,0.233-0.75,0.95-1.35,2.15c-0.533,1.033-1.05,1.6-1.55,1.7l-1.15-0.3c-0.5-0.4-0.833-0.617-1-0.65l-0.55,0.1l-0.65,0.15
					c-1.867-0.3-3.517-0.95-4.95-1.95c-1.7-1.133-2.683-2.483-2.95-4.05l-5.8-3.15l-5.95-2.85c-0.067,0.5-0.317,0.767-0.75,0.8
					l-1.2,0.15c0.633,0,1.35,0.333,2.15,1c0.8,0.633,1.367,0.933,1.7,0.9c-0.033-0.367-0.45-0.717-1.25-1.05
					c-0.7-0.333-1-0.617-0.9-0.85l1.5,0.9l1.35,1c0.2,1.233,1.133,2.333,2.8,3.3c1.9,1.1,2.967,1.85,3.2,2.25l-2.8-1.8l-2.7-1.8
					l-0.25,1.85c-0.2,0.933-0.283,1.75-0.25,2.45l-0.1,0.1l0.1,0.15c-0.367,0.267-0.5,0.733-0.4,1.4v1.35l-0.3-0.35l-0.85,0.35
					l-0.85,0.35c-1.067-0.667-2.283-1.117-3.65-1.35l-4.25-0.55c0.367-1.6-0.2-2.833-1.7-3.7c-1.567-0.867-3-0.75-4.3,0.35
					c0.867-1.4,2.283-1.683,4.25-0.85s2.867,2.15,2.7,3.95l1.6,0.2l1.3,0.05l-0.3-2.05c-0.267-1.167-0.417-2-0.45-2.5
					c0.533-0.533,0.967-1.383,1.3-2.55l0.9-3l0.95-0.1l0.7-0.35l-0.3-0.9l-0.65-0.55c0.167-0.833,0.5-1.817,1-2.95l1.15-2.8
					c-0.933-1.4-1.15-2.833-0.65-4.3c0.567-1.633,1.833-2.283,3.8-1.95c-0.1-1.733,0.9-2.783,3-3.15
					c2.067-0.333,3.383,0.067,3.95,1.2l0.7-0.2c-0.333-1.2,0.15-2.233,1.45-3.1c1.333-0.867,2.533-0.8,3.6,0.2
					c0.667-1.233,1.933-1.917,3.8-2.05c1.967-0.133,3.183,0.55,3.65,2.05c-1.1-0.967-2.45-1.35-4.05-1.15
					c-1.6,0.167-2.733,0.867-3.4,2.1c-0.767-0.5-1.4-0.817-1.9-0.95c-1.5,0.467-2.383,1.267-2.65,2.4
					c0.067,0.2,0.433,0.383,1.1,0.55c0.6,0.133,0.867,0.433,0.8,0.9c-0.7-0.433-1.5-0.533-2.4-0.3c-0.833,0.233-1.467,0.65-1.9,1.25
					c-0.2-0.067-0.2-0.25,0-0.55l0.45-0.65c-0.767-1.133-1.917-1.45-3.45-0.95c-1.567,0.533-2.25,1.567-2.05,3.1
					c-2.067-0.767-3.3-0.05-3.7,2.15c-0.4,2.167,0.117,3.533,1.55,4.1l1.4-0.05l1.25-0.2l-0.2,1.25l-0.05,1.4l3.1,4.8
					c1.233,0.367,3.383,1.233,6.45,2.6c2.733,1.2,4.833,1.933,6.3,2.2c1.067,0.2,2.617-0.283,4.65-1.45l4.45-2.85
					c2.533-1.533,5.483-2.817,8.85-3.85L55.083,26.26 M18.883,22.51c-0.6-0.167-1.067-0.467-1.4-0.9l-0.95,2.55l-1,2.5
					c1.167,0.833,3.367,2.083,6.6,3.75c2.9,1.5,5.033,2.817,6.4,3.95c0.4,2.067,1.8,3.567,4.2,4.5l7.05,1.75l-1.9-6
					c-3.133-0.6-6.45-1.7-9.95-3.3l-8.8-4.4l-0.45-0.75c-0.067-0.4,0.017-0.717,0.25-0.95l-1.15-0.6
					c-0.5-0.267-0.683-0.467-0.55-0.6l1.2,0.45c0.5,0.2,0.817,0.45,0.95,0.75c-0.167,0.2-0.233,0.433-0.2,0.7l0.2,0.75
					c0.3,0.267,0.8,0.533,1.5,0.8l1.65,0.65l-1.65-2.6c-0.667-1.033-0.683-2.083-0.05-3.15L18.883,22.51 M16.283,30.71
					c-0.6-0.567-1.25-0.867-1.95-0.9c-0.367,1.433-0.917,2.95-1.65,4.55l1.4,0.75c0.567,0.367,1.05,0.6,1.45,0.7
					c0.2-0.633,0.567-1.317,1.1-2.05l1.3-1.8L16.283,30.71 M16.983,39.01c0.233,0.467,0.633,0.833,1.2,1.1
					c0.267-0.467,0.367-1.1,0.3-1.9c-0.1-0.833-0.35-1.317-0.75-1.45l0.5,0.1l0.45,0.15l0.05-1.3l0.2-1.1
					c-1.233,0.333-1.967,1.183-2.2,2.55c-0.1,0.667-0.05,1.25,0.15,1.75l-1.1-1.8c-0.967-1.233-2-2.067-3.1-2.5l0.15,2.35l0.3,2.2
					c0.567-0.033,1.317,0.233,2.25,0.8c0.833,0.5,1.533,0.633,2.1,0.4L16.983,39.01 M39.083,34.81c-0.133,0.833-0.1,1.733,0.1,2.7
					c0.267,1.167,0.717,1.867,1.35,2.1c0.833-0.667,1.117-1.533,0.85-2.6c-0.233-1.1-0.85-1.583-1.85-1.45
					c0.2-0.067,0.283-0.233,0.25-0.5L39.083,34.81"/>
				<path class="st3" d="M55.783,39.16l-0.85,2.65c-1.567-0.467-2.9-0.183-4,0.85c-0.467,0.4-1.217,1.467-2.25,3.2
					c-1.1,0.167-2.367,0.617-3.8,1.35c-1.633,0.833-2.85,1.35-3.65,1.55l-0.1-1.75c-0.067-0.567,0.05-0.95,0.35-1.15l-1-0.15
					c-0.333,0.067-0.567-0.2-0.7-0.8c-0.433,0.233-0.683,0.55-0.75,0.95l0.05,1.45l-2.75,1l-3.25,0.2c0.5,0.567,1.2,0.75,2.1,0.55
					l2.45-0.55l2,2.8c0.833,1.1,1.283,2.25,1.35,3.45c0.767,0.033,1.383-0.2,1.85-0.7l1.05-1.45c1.267,0.7,2.583,0.567,3.95-0.4
					c1.6-1.2,2.6-1.8,3-1.8c0.333,0.067,0.533,0.4,0.6,1l0.1,1.4c-3-0.4-5.717,0.95-8.15,4.05l-0.7,0.55h-0.05
					c-2.133,1-5.317,1-9.55,0l-0.4-3.9l-0.2-4.3c-0.833-0.2-1.45-0.683-1.85-1.45l-0.8-2.25c-1.167-0.733-2.967-2.033-5.4-3.9
					c-2.3-1.733-4.1-3-5.4-3.8l0.1-0.1c-0.033-0.7,0.05-1.517,0.25-2.45l0.25-1.85l2.7,1.8l2.8,1.8c-0.233-0.4-1.3-1.15-3.2-2.25
					c-1.667-0.967-2.6-2.067-2.8-3.3l-1.35-1l-1.5-0.9c-0.1,0.233,0.2,0.517,0.9,0.85c0.8,0.333,1.217,0.683,1.25,1.05
					c-0.333,0.033-0.9-0.267-1.7-0.9c-0.8-0.667-1.517-1-2.15-1l1.2-0.15c0.433-0.033,0.683-0.3,0.75-0.8l5.95,2.85l5.8,3.15
					c0.267,1.567,1.25,2.917,2.95,4.05c1.433,1,3.083,1.65,4.95,1.95l0.65-0.15l0.55-0.1c0.167,0.033,0.5,0.25,1,0.65l1.15,0.3
					c0.5-0.1,1.017-0.667,1.55-1.7c0.6-1.2,1.05-1.917,1.35-2.15c0.467-0.333,1.067-0.533,1.8-0.6c0.633-0.067,1.15-0.333,1.55-0.8
					h0.05l2.7,0.65c1.133,0.233,1.9,0.567,2.3,1c-0.2,2-1.15,3.6-2.85,4.8c-0.567,0.4-2.267,1.25-5.1,2.55l2.85-0.85
					c1.167-0.333,2.067-0.733,2.7-1.2c0.567-0.433,1.083-1.167,1.55-2.2l1.15-2.65c0.367-0.033,1.1-0.4,2.2-1.1
					c1.067-0.667,2-1.017,2.8-1.05C56.233,37.043,56.116,38.093,55.783,39.16 M53.533,39.36l-0.55-0.45l0.15,0.5l0.1,0.45
					c0.4,0.067,0.683-0.1,0.85-0.5c0.167-0.367,0.05-0.6-0.35-0.7C53.8,39.16,53.733,39.393,53.533,39.36 M44.133,39.21
					c-0.367-0.133-0.7-0.067-1,0.2v0.95c0.933,0.367,1.5,0.2,1.7-0.5C44.733,39.56,44.5,39.343,44.133,39.21 M45.033,42.36
					c-1.267,0.633-3.567,1.25-6.9,1.85c0.233-0.5,0.217-1.05-0.05-1.65l-0.7-1.5c-0.067,0.5,0,0.967,0.2,1.4l0.55,1
					c-0.733,2.367-3.233,2.517-7.5,0.45c-4.233-2.067-6.067-4.133-5.5-6.2l-2.4-1.6c-1.033-0.667-1.833-1.017-2.4-1.05
					c0.333,0.3,1.133,0.8,2.4,1.5c1.033,0.567,1.767,1.117,2.2,1.65c-0.233,0.3-0.317,0.7-0.25,1.2c1.6,2.067,3.55,3.667,5.85,4.8
					c2.733,1.333,5.5,1.733,8.3,1.2l-1,0.05c-0.433,0-0.667-0.1-0.7-0.3c1.333-0.533,3.833-1.283,7.5-2.25
					c2.967-1.233,4.317-3.133,4.05-5.7C48.416,39.543,47.2,41.26,45.033,42.36 M26.133,34.11c-0.5-0.067-0.9,0.017-1.2,0.25
					c-0.033,0.4,0.033,0.717,0.2,0.95c0.5,0.033,0.833-0.067,1-0.3C26.3,34.777,26.3,34.477,26.133,34.11 M26.133,37.46
					c-0.167,2.333,1.35,3.933,4.55,4.8l-2.9-1.75C26.85,39.71,26.3,38.693,26.133,37.46 M32.833,40.61
					c-0.167-0.2-0.45-0.283-0.85-0.25c-0.4,0-0.6,0.15-0.6,0.45l0.55,0.45c0.167,0.233,0.383,0.333,0.65,0.3l0.2-0.4L32.833,40.61
					 M35.833,44.36l0.85-0.15l-1-0.25c-0.5-0.1-0.817-0.017-0.95,0.25L35.833,44.36"/>
				<path class="st1" d="M55.533,25.76l0.1,0.1l-0.55,0.4l-0.2-0.3L55.533,25.76"/>
				<path class="st0" d="M55.383,52.36v3.35l-1.9-1.7c-0.7-0.7-1.1-1.5-1.2-2.4l1.65,0.55L55.383,52.36"/>
				<path class="st2" d="M51.033,43.16c0.933-0.933,2.233-1.317,3.9-1.15l-0.05,0.3c-0.233,0.6-0.4,1.367-0.5,2.3
					c-0.567,1.367-1.817,2.783-3.75,4.25c-2.133,1.6-3.5,2.917-4.1,3.95l-2.45-0.65l-2.6-0.55l-0.15-0.8
					c-0.133-0.3-0.167-0.583-0.1-0.85c2.6-1.567,5.233-2.767,7.9-3.6C49.833,44.793,50.466,43.727,51.033,43.16 M52.783,44.51
					c0.4-0.467,0.317-0.817-0.25-1.05c0.067,0.6-0.1,0.917-0.5,0.95c-0.1-0.167-0.05-0.4,0.15-0.7c0.1-0.2-0.033-0.283-0.4-0.25
					l-0.1,0.65c-0.133,0.2-0.183,0.383-0.15,0.55C51.933,45.027,52.35,44.977,52.783,44.51 M47.733,49.01
					c-0.233-0.233-0.483-0.283-0.75-0.15l-0.45,0.6l0.4,0.2l0.55,0.05L47.733,49.01"/>
				<path class="st0" d="M54.433,51.61l-1.1-0.1l-1.05-0.1c-0.1-0.767,0.017-1.45,0.35-2.05l1.1-1.35c0.3,0.233,0.45,0.8,0.45,1.7
					C54.216,50.71,54.3,51.343,54.433,51.61"/>
				<path class="st1" d="M53.733,38.66c0.4,0.1,0.517,0.333,0.35,0.7c-0.167,0.4-0.45,0.567-0.85,0.5l-0.1-0.45l-0.15-0.5l0.55,0.45
					C53.733,39.393,53.8,39.16,53.733,38.66"/>
				<path class="st0" d="M53.733,36.01c0.067,0.333-0.233,0.717-0.9,1.15l-1.65,0.95c0.233-0.467,0.55-0.9,0.95-1.3l0.9-0.6
					L53.733,36.01"/>
				<path class="st1" d="M52.533,43.46c0.567,0.233,0.65,0.583,0.25,1.05c-0.433,0.467-0.85,0.517-1.25,0.15
					c-0.033-0.167,0.017-0.35,0.15-0.55l0.1-0.65c0.367-0.033,0.5,0.05,0.4,0.25c-0.2,0.3-0.25,0.533-0.15,0.7
					C52.433,44.377,52.6,44.06,52.533,43.46"/>
				<path class="st1" d="M51.083,37.46l1.05-0.65c-0.4,0.4-0.717,0.833-0.95,1.3l-0.05,0.05l-1.15,2.65
					c-0.467,1.033-0.983,1.767-1.55,2.2c-0.633,0.467-1.533,0.867-2.7,1.2l-2.85,0.85c2.833-1.3,4.533-2.15,5.1-2.55
					c1.7-1.2,2.65-2.8,2.85-4.8c-0.4-0.433-1.167-0.767-2.3-1l-2.7-0.65C47.7,36.027,49.45,36.493,51.083,37.46"/>
				<path class="st2" d="M43.133,57.16l0.25-0.3l3.3-2.6c1.3-0.8,2.6-1.117,3.9-0.95c-1.133,0.567-1.967,1.167-2.5,1.8
					c-0.7,0.867-1.067,1.95-1.1,3.25c-1.233,0.433-2.117,0.817-2.65,1.15c-0.9,0.533-1.533,1.183-1.9,1.95
					c-2.233-0.033-4,0.767-5.3,2.4l-0.8-0.5c-0.433-0.167-0.717-0.317-0.85-0.45c0.033-0.5-0.05-0.967-0.25-1.4
					c-0.2-0.5-0.433-0.6-0.7-0.3l-1.05-1c-0.667-0.5-0.883-1.117-0.65-1.85l0.35-0.25l0.35-0.25l3.05,0.7l2.75,0.25
					c1.033-0.133,2.133-0.6,3.3-1.4h0.05C42.85,57.343,43,57.26,43.133,57.16"/>
				<path class="st1" d="M49.383,33.26c0.333,0.233,0.417,0.6,0.25,1.1c-0.133,0-0.283,0.05-0.45,0.15l-0.5,0.1l-0.25-0.75l0.2,0.25
					l0.3,0.25c0.233,0.067,0.317-0.083,0.25-0.45c-0.033-0.367-0.2-0.467-0.5-0.3C48.783,33.143,49.016,33.027,49.383,33.26"/>
				<path class="st1" d="M48.683,37.21c0.267,2.567-1.083,4.467-4.05,5.7c-3.667,0.967-6.167,1.717-7.5,2.25
					c0.033,0.2,0.267,0.3,0.7,0.3l1-0.05c-2.8,0.533-5.567,0.133-8.3-1.2c-2.3-1.133-4.25-2.733-5.85-4.8
					c-0.067-0.5,0.017-0.9,0.25-1.2c-0.433-0.533-1.167-1.083-2.2-1.65c-1.267-0.7-2.067-1.2-2.4-1.5
					c0.567,0.033,1.367,0.383,2.4,1.05l2.4,1.6c-0.567,2.067,1.267,4.133,5.5,6.2c4.267,2.067,6.767,1.917,7.5-0.45l-0.55-1
					c-0.2-0.433-0.267-0.9-0.2-1.4l0.7,1.5c0.267,0.6,0.283,1.15,0.05,1.65c3.333-0.6,5.633-1.217,6.9-1.85
					C47.2,41.26,48.416,39.543,48.683,37.21"/>
				<path class="st1" d="M47.733,49.01l-0.25,0.7l-0.55-0.05l-0.4-0.2l0.45-0.6C47.25,48.727,47.5,48.777,47.733,49.01"/>
				<path class="st1" d="M45.533,20.21c-0.033,0.233-0.267,0.317-0.7,0.25l-0.7-0.25c-2.033,0.5-2.25,0.467-0.65-0.1L45.533,20.21"
					/>
				<path class="st1" d="M44.833,39.86c-0.2,0.7-0.767,0.867-1.7,0.5v-0.95c0.3-0.267,0.633-0.333,1-0.2
					C44.5,39.343,44.733,39.56,44.833,39.86"/>
				<path class="st0" d="M40.733,46.36l0.15,0.95l0.1,0.95c-0.867-0.533-1.35-1.333-1.45-2.4l0.55,0.3L40.733,46.36"/>
				<path class="st0" d="M38.833,47.56l1.45,1.3c0.5,0.567,0.733,1.25,0.7,2.05l-1.45-0.8l-1.2-1.1l0.25-0.7L38.833,47.56"/>
				<path class="st3" d="M39.533,35.56c1-0.133,1.617,0.35,1.85,1.45c0.267,1.067-0.017,1.933-0.85,2.6
					c-0.633-0.233-1.083-0.933-1.35-2.1c-0.2-0.967-0.233-1.867-0.1-2.7l0.7,0.25C39.816,35.327,39.733,35.493,39.533,35.56"/>
				<path class="st1" d="M33.533,57.86l-0.35,0.25l-0.35,0.25v-0.75l0.3,0.05l-0.05-0.25c4.233,1,7.417,1,9.55,0
					c-1.167,0.8-2.267,1.267-3.3,1.4l-2.75-0.25L33.533,57.86"/>
				<path class="st3" d="M20.833,22.36c-0.633,1.067-0.617,2.117,0.05,3.15l1.65,2.6l-1.65-0.65c-0.7-0.267-1.2-0.533-1.5-0.8
					l-0.2-0.75c-0.033-0.267,0.033-0.5,0.2-0.7c-0.133-0.3-0.45-0.55-0.95-0.75l-1.2-0.45c-0.133,0.133,0.05,0.333,0.55,0.6
					l1.15,0.6c-0.233,0.233-0.317,0.55-0.25,0.95l0.45,0.75l8.8,4.4c3.5,1.6,6.817,2.7,9.95,3.3l1.9,6l-7.05-1.75
					c-2.4-0.933-3.8-2.433-4.2-4.5c-1.367-1.133-3.5-2.45-6.4-3.95c-3.233-1.667-5.433-2.917-6.6-3.75l1-2.5l0.95-2.55
					c0.333,0.433,0.8,0.733,1.4,0.9L20.833,22.36 M34.283,37.46c0.133-0.3,0.067-0.567-0.2-0.8c-0.233-0.267-0.417-0.233-0.55,0.1
					l0.35,0.25c0.1,0.1,0.067,0.167-0.1,0.2l-0.45-0.3c-0.133-0.167-0.217-0.133-0.25,0.1l0.4,0.4L34.283,37.46"/>
				<path class="st1" d="M36.433,22.36c-0.133-0.567,0.467-0.933,1.8-1.1c1.3-0.167,1.983,0.2,2.05,1.1
					c-0.567-0.4-1.217-0.617-1.95-0.65C37.533,21.677,36.9,21.893,36.433,22.36"/>
				<path class="st1" d="M39.083,28.36l-0.65,0.1c-0.367,0.033-0.633,0.15-0.8,0.35c-0.033,0.333,0.067,0.633,0.3,0.9l-0.05,0.8
					l-1.8,0.2c-0.7-0.2-1.15-0.5-1.35-0.9l-1.25,0.2c0-0.167,0.417-0.317,1.25-0.45c0.367,0.4,0.783,0.683,1.25,0.85l1.65-0.15
					c-0.467-0.533-0.5-1.067-0.1-1.6C37.9,28.127,38.416,28.027,39.083,28.36"/>
				<path class="st1" d="M36.683,44.21l-0.85,0.15l-1.1-0.15c0.133-0.267,0.45-0.35,0.95-0.25L36.683,44.21"/>
				<path class="st1" d="M28.883,52.46c1.533,1.233,2.217,2.95,2.05,5.15c0.733,0.467,1.367,0.717,1.9,0.75
					c-0.233,0.733-0.017,1.35,0.65,1.85l1.05,1c-0.5,0-1.2-0.5-2.1-1.5c-0.833-1-1.583-1.45-2.25-1.35
					c0.533-1.5,0.25-3.183-0.85-5.05L28.883,52.46 M28.733,52.21c-0.6-1.3-0.7-2.4-0.3-3.3l0.25-0.5l0.05-0.15V52.21"/>
				<path class="st1" d="M33.533,36.76c0.133-0.333,0.317-0.367,0.55-0.1c0.267,0.233,0.333,0.5,0.2,0.8l-0.8-0.05l-0.4-0.4
					c0.033-0.233,0.117-0.267,0.25-0.1l0.45,0.3c0.167-0.033,0.2-0.1,0.1-0.2L33.533,36.76"/>
				<path class="st3" d="M19.033,37.81c1.3,0.8,3.1,2.067,5.4,3.8c2.433,1.867,4.233,3.167,5.4,3.9l0.8,2.25
					c0.4,0.767,1.017,1.25,1.85,1.45l0.2,4.3c0.067,1.667,0.217,3.05,0.45,4.15l-0.3-0.05v0.75c-0.533-0.033-1.167-0.283-1.9-0.75
					c0.167-2.267-0.567-4.017-2.2-5.25v-4.1l-0.05,0.15l0.05-0.6l-0.95-1.6c-0.467-0.6-0.983-0.883-1.55-0.85
					c-0.367-0.3-0.733-0.367-1.1-0.2c-0.6-0.233-1.517-1.083-2.75-2.55c-1-1.233-2.183-1.833-3.55-1.8l-0.1-0.1v-1.35
					c-0.1-0.667,0.033-1.133,0.4-1.4L19.033,37.81"/>
				<path class="st1" d="M32.833,40.61l-0.05,0.55l-0.2,0.4c-0.267,0.033-0.483-0.067-0.65-0.3l-0.55-0.45c0-0.3,0.2-0.45,0.6-0.45
					C32.383,40.327,32.666,40.41,32.833,40.61"/>
				<path class="st1" d="M28.983,18.51c1.4-0.867,2.767-0.7,4.1,0.5c1.133,1.033,1.85,2.383,2.15,4.05l-2.25-3.45
					C31.883,18.51,30.55,18.143,28.983,18.51"/>
				<path class="st1" d="M28.733,47.81l-0.05,0.6l-0.25,0.5c-0.133,0-0.417-0.483-0.85-1.45l-1.35-2.1
					c0.567-0.033,1.083,0.25,1.55,0.85L28.733,47.81"/>
				<path class="st1" d="M26.133,37.46c0.167,1.233,0.717,2.25,1.65,3.05l2.9,1.75C27.483,41.393,25.966,39.793,26.133,37.46"/>
				<path class="st1" d="M26.133,34.11c0.167,0.367,0.167,0.667,0,0.9s-0.5,0.333-1,0.3c-0.167-0.233-0.233-0.55-0.2-0.95
					C25.233,34.127,25.633,34.043,26.133,34.11"/>
				<path class="st1" d="M25.133,45.16c0.367-0.167,0.733-0.1,1.1,0.2l-0.85,0.25l-1.55-0.95c-0.633-0.367-1.233-0.6-1.8-0.7
					c-0.067-0.8-0.483-1.45-1.25-1.95c-0.933-0.467-1.583-0.867-1.95-1.2c1.367-0.033,2.55,0.567,3.55,1.8
					C23.616,44.077,24.533,44.927,25.133,45.16"/>
				<path class="st0" d="M18.683,37.01l-0.45-0.15l-0.5-0.1c0.4,0.133,0.65,0.617,0.75,1.45c0.067,0.8-0.033,1.433-0.3,1.9
					c-1.2-0.567-1.683-1.55-1.45-2.95c0.233-1.367,0.967-2.217,2.2-2.55l-0.2,1.1L18.683,37.01"/>
				<path class="st3" d="M17.483,40.36c-0.567,0.233-1.267,0.1-2.1-0.4c-0.933-0.567-1.683-0.833-2.25-0.8l-0.3-2.2l-0.15-2.35
					c1.1,0.433,2.133,1.267,3.1,2.5C16.583,38.177,17.15,39.26,17.483,40.36"/>
				<path class="st3" d="M14.333,29.81c0.7,0.033,1.35,0.333,1.95,0.9l1.65,1.25l-1.3,1.8c-0.533,0.733-0.9,1.417-1.1,2.05
					c-0.4-0.1-0.883-0.333-1.45-0.7l-1.4-0.75C13.416,32.76,13.966,31.243,14.333,29.81"/>
				<path class="st4" d="M46.133,22.96c-0.267-0.267-0.083-0.467,0.55-0.6c0.6-0.133,0.933-0.017,1,0.35
					c0,0.333-0.217,0.517-0.65,0.55C46.6,23.293,46.3,23.193,46.133,22.96z"/>
				<path class="st5" d="M48.533,15.26l-0.3-0.35c0.233-0.9,0.9-1.517,2-1.85l2.85,0.1l0.2,0.25c0.3,0.667,0.2,1.35-0.3,2.05
					c-0.467,0.7-1.067,1.067-1.8,1.1c-0.4-0.033-0.85-0.2-1.35-0.5C49.266,15.693,48.833,15.427,48.533,15.26z"/>
				<path class="st5" d="M60.533,10.71c-0.167-1.9,1.067-3.133,3.7-3.7c2.6-0.567,4.383,0.1,5.35,2c-1.133,1.567-2.467,2.883-4,3.95
					l-2.55-1L60.533,10.71z"/>
				<path class="st4" d="M19.033,37.81c1.3,0.8,3.1,2.067,5.4,3.8c2.433,1.867,4.233,3.167,5.4,3.9l0.8,2.25
					c0.4,0.767,1.017,1.25,1.85,1.45l0.2,4.3c0.067,1.667,0.217,3.05,0.45,4.15"/>
			</g>
		</g>
	</g>
	<g transform="matrix(1.0, 0.0, 0.0, 1.0, 0.0, 0.0)" class="st6">
		<g id="shape1" transform="matrix(1.0, 0.0, 0.0, 1.0, 0.0, 0.0)">
			<path class="st7" d="M104.876,21.517c-0.033,2.167-0.433,5.767-1.2,10.8c-0.3,2.8-1.267,5.35-2.9,7.65l-4.95,6.05
				c-0.333,0.433-0.733,1.183-1.2,2.25l-1.25,2.15c-1,1.067-2.5,2.133-4.5,3.2l-5.25,2.65c-1.533,0.8-3.433,1.517-5.7,2.15
				l-6.05,1.75c-1.733,0.6-5.283,2.933-10.65,7c-4.267,3.2-8.383,4.783-12.35,4.75c-5.2-0.067-9.433-2.25-12.7-6.55
				c-3.533-4.633-4.2-9.783-2-15.45c0.3-0.767,1.417-2.167,3.35-4.2c1.7-1.767,2.7-3.633,3-5.6l-7.5-2.5
				c-2.967-1.033-4.867-2.483-5.7-4.35c1.033-0.667,2.25-0.767,3.65-0.3l3.2,1.3c1.967-2.4,5.667-4.983,11.1-7.75
				c6.533-3.267,10.667-5.583,12.4-6.95c2.167,0.067,4.567-0.633,7.2-2.1c2.7-1.5,5.033-2.267,7-2.3c0.9-0.3,1.483-1.267,1.75-2.9
				l0.7-3.95c0.333-0.333,0.9-0.5,1.7-0.5s1.367,0.167,1.7,0.5l-0.4-1.35c-0.2-0.5-0.233-1.033-0.1-1.6
				c2.767-1.267,5.717-1.333,8.85-0.2c1.767,0.633,4.2,1.85,7.3,3.65l5,2c1.6,0.6,2.717,1.233,3.35,1.9
				C103.859,15.017,104.909,17.95,104.876,21.517"/>
		</g>
	</g>
</g>
</svg>
