<?xml version="1.0" encoding="utf-8"?>
<!-- Generator: Adobe Illustrator 24.0.1, SVG Export Plug-In . SVG Version: 6.00 Build 0)  -->
<svg version="1.1" id="Camada_1" xmlns="http://www.w3.org/2000/svg" xmlns:xlink="http://www.w3.org/1999/xlink" x="0px" y="0px"
	 viewBox="0 0 210.783 280.993" style="enable-background:new 0 0 210.783 280.993;" xml:space="preserve">
<style type="text/css">
	.st0{fill-rule:evenodd;clip-rule:evenodd;}
	.st1{fill-rule:evenodd;clip-rule:evenodd;fill:#817578;}
	.st2{fill-rule:evenodd;clip-rule:evenodd;fill:#897D80;}
	.st3{opacity:0.31;fill-rule:evenodd;clip-rule:evenodd;fill:#10003D;}
	.st4{opacity:0.31;}
	.st5{fill-rule:evenodd;clip-rule:evenodd;fill:#10003D;}
</style>
<g transform="matrix(1.0, 0.0, 0.0, 1.0, 0.0, 0.0)">
	<g transform="matrix(1.0, 0.0, 0.0, 1.0, 0.0, 0.0)">
		<g id="shape0" transform="matrix(1.0, 0.0, 0.0, 1.0, 0.0, 0.0)">
			<path class="st0" d="M105.551,18.2l-4.006-7.038l-9.311,0.974c-3.609-0.289-5.847-1.48-6.713-3.573l-7.795,4.656
				c-2.598,2.382-3.14,5.161-1.624,8.337l3.14-0.541l3.465,0.433l-0.325,0.758l-3.789-0.325c-1.299,0.144-2.129,0.902-2.49,2.274
				l-0.65-2.707l-0.866-3.573c-1.299,1.371-1.949,3.32-1.949,5.847l0.325,6.604c0,24.758-4.15,40.71-12.451,47.855h-5.197
				c0.361,3.248,0.036,7.507-0.974,12.776c-1.011,5.269-1.371,9.167-1.083,11.693c0.072,0.65,0.505,1.732,1.299,3.248l1.299,3.465
				c0.289,2.671-0.433,6.027-2.165,10.069c-2.093,4.908-3.284,8.12-3.573,9.636c-1.516,1.011-3.573,3.609-6.171,7.795
				c0,5.702-0.866,14.941-2.598,27.717c-1.516,11.404-2.057,20.535-1.624,27.392l-0.433-0.758l-0.108-1.299
				c-0.866,0.938-1.588,2.707-2.165,5.305c-0.65,2.959-1.299,4.98-1.949,6.063c-0.505,0.866-0.253,5.089,0.758,12.668
				c0.866,6.713-0.433,11.332-3.898,13.859c-0.433,4.186,0.217,7.723,1.949,10.61c1.227,2.021,3.356,4.042,6.388,6.063
				c1.155-4.475,1.516-7.435,1.083-8.878l3.248,5.847c1.011,2.382,1.48,4.62,1.408,6.713c3.681-1.732,7.543-2.201,11.585-1.408
				c4.547,0.938,7.254,3.284,8.12,7.038c0.505,0.722,0.397,1.624-0.325,2.707c-0.866,1.227-1.263,2.057-1.191,2.49
				c0.361,3.032,3.104,5.413,8.229,7.146c3.392,1.155,5.305,0.686,5.738-1.408l3.898,2.707c1.732,1.083,3.212,1.552,4.439,1.408
				l2.707-2.057c0.794-0.938,1.444-1.119,1.949-0.541c0.433,1.083,2.274,1.985,5.522,2.707c3.392,0.794,5.883,0.614,7.471-0.541
				c0.361,0,0.433-0.361,0.217-1.083c-0.289-0.938-0.361-1.624-0.217-2.057c0.361-0.794,0.541,0.072,0.541,2.598
				c2.093-0.072,5.414-0.974,9.961-2.707c5.125-1.877,8.698-2.995,10.719-3.356l1.083-5.089l0.65-5.955
				c0.577,0.505,0.686,1.263,0.325,2.274c-0.433,1.299-0.541,2.238-0.325,2.815c3.104-0.505,5.738-2.454,7.904-5.847l5.522-8.12
				c-0.361-7.146-1.732-12.704-4.114-16.674l-0.541,0.758c-1.227-3.826-6.244-6.857-15.05-9.095
				c2.887,2.165,5.305,5.991,7.254,11.477c-1.516,4.042-5.486,6.135-11.91,6.28l-0.974,3.14l-0.65,3.573
				c-1.588-0.072-3.068,0.253-4.439,0.974l-3.356,2.165c0.072-0.65,0.758-1.408,2.057-2.274c1.444-0.938,2.851-1.408,4.223-1.408
				l1.299-4.439l0.217-2.815l7.795-0.433c2.743-0.794,4.475-2.201,5.197-4.223l-3.248-6.929c-1.444-2.454-3.465-3.789-6.063-4.006
				l3.681-4.114l1.516-29.125c-1.227-2.959-1.841-7.326-1.841-13.101l0.541-15.483c0.361-12.632-2.31-19.922-8.012-21.871
				c-2.382,0.361-4.475,1.804-6.28,4.331c-0.722,1.011-1.768,3.032-3.14,6.063c1.299-6.207,4.583-9.816,9.853-10.827l-0.974-2.923
				c-0.65-0.722-1.696-0.974-3.14-0.758c0.144-0.794,0.686-1.047,1.624-0.758l2.49,0.758c-0.577-8.084-0.65-14.4-0.217-18.947
				c0.577-6.785,2.238-11.91,4.98-15.374c-0.144-3.032,0-7.001,0.433-11.91l0.541-10.935l-2.274-12.668
				c-1.011-5.053-0.758-9.311,0.758-12.776c-3.826,1.732-7.795,2.815-11.91,3.248c-5.269,0.505-9.275-0.253-12.018-2.274
				c0.072-0.505-0.83-1.624-2.707-3.356l-4.114-4.439v-0.758l4.656,3.898c1.949,1.805,3.032,3.176,3.248,4.114
				c3.465,2.382,7.651,3.104,12.559,2.165c4.62-0.794,8.229-2.707,10.827-5.738l-4.223-6.713c-1.804-2.31-3.862-3.898-6.171-4.764
				c-0.722,0.072-1.335,0.397-1.841,0.974l-1.299,1.624l1.732-3.898c0.361-1.516,0.289-3.14-0.217-4.872l-4.114-1.083l-4.223-0.974
				c-1.732,0.505-3.753,1.371-6.063,2.598l-5.847,3.032c-0.072,1.732-0.325,2.598-0.758,2.598c-0.361,0-0.289-0.866,0.217-2.598
				c1.444-1.083,3.356-2.201,5.738-3.356l6.28-2.815l9.311,1.516C107.897,23.577,107.139,21.087,105.551,18.2 M119.843,51.872
				c-0.577,3.753-0.758,6.641-0.541,8.662l1.732,6.28c0.938,2.526,1.371,4.583,1.299,6.171l-0.217,11.693
				c-0.144,4.62-0.577,8.517-1.299,11.693l-1.408,2.923l-1.732,2.815c-1.227,3.32-1.768,8.12-1.624,14.4
				c0.217,7.507,0.072,12.74-0.433,15.699l3.356,3.14l3.356,3.14c1.155,5.053,1.732,11.765,1.732,20.138l-0.65,21.437
				c0,0.866,0.397,1.696,1.191,2.49c0.866,0.794,1.335,1.516,1.408,2.165l-1.299,15.591c-0.65,5.702-1.444,10.538-2.382,14.508
				c5.053,2.743,9.744,4.836,14.075,6.28c2.382,2.238,3.934,5.63,4.656,10.177l1.624,13.209c-0.505,0.072-0.83-0.072-0.974-0.433
				l-0.108-1.191c-0.866,0.433-2.635,3.068-5.305,7.904c-2.238,3.97-5.161,5.847-8.77,5.63l-0.541,2.815l-0.866,2.382l-0.758,0.217
				l-0.217,0.217l-11.801,4.223c-5.197,1.805-8.95,3.392-11.26,4.764l-5.63-1.624l-5.738-1.516c-0.866-0.144-1.696,0.18-2.49,0.974
				c-0.722,0.794-1.48,1.155-2.274,1.083c-1.227-0.072-2.49-0.577-3.789-1.516c-1.588-1.227-2.743-1.949-3.465-2.165l-8.012,0.217
				c-3.176-1.732-5.341-3.862-6.496-6.388c-1.588,1.805-4.872,2.562-9.853,2.274l-10.935-1.732c-0.65-1.949-0.505-4.764,0.433-8.445
				c0.938-3.753,1.119-6.496,0.541-8.229c-1.877-0.072-2.887,0.794-3.032,2.598c-3.681-1.877-6.821-5.161-9.419-9.853l-0.866,2.707
				l-1.191,2.49c-3.826-1.588-7.976-2.635-12.451-3.14l-1.299-8.337c-0.505-3.032-0.614-5.63-0.325-7.795
				c0.217-1.516,1.011-3.573,2.382-6.171c1.371-2.598,2.165-4.511,2.382-5.738l-0.108-2.598c-0.144-1.155-0.108-2.021,0.108-2.598
				c0.866-2.454,3.826-5.161,8.878-8.12c4.836-2.815,7.579-5.486,8.229-8.012c-0.433-4.186,0-10.647,1.299-19.38l2.815-21.113
				v-6.496c0-2.743,0.18-4.764,0.541-6.063c0.361-1.155,1.263-2.418,2.707-3.789l3.573-3.898c1.371-2.093,2.671-5.053,3.898-8.878
				c1.299-3.898,1.913-6.857,1.841-8.878c0-0.794-0.469-1.913-1.408-3.356c-1.011-1.444-1.588-2.562-1.732-3.356
				c-0.577-3.176-0.253-7.579,0.974-13.209c1.444-6.641,2.165-11.26,2.165-13.859l4.656-0.433c1.588-1.227,3.32-3.32,5.197-6.28
				c2.165-3.465,3.717-5.702,4.656-6.713c-0.072-4.692,0.361-11.982,1.299-21.871c0.794-9.095,1.047-16.529,0.758-22.304
				c2.238-3.176,4.295-5.63,6.171-7.362c2.526-2.454,5.341-4.186,8.445-5.197c1.732,1.444,4.006,2.454,6.821,3.032
				c3.392,0.65,5.955,0.18,7.687-1.408c8.301,6.352,11.404,13.281,9.311,20.788c4.98,4.692,8.806,9.203,11.477,13.534
				L119.843,51.872 M33.984,196.196l-6.388,4.656c-2.959,1.588-4.8,3.501-5.522,5.738c-0.217,0.505-0.253,1.263-0.108,2.274
				l0.108,2.382l-2.057,6.063l-2.598,5.847l12.992,0.541c0.289-1.444,1.011-2.815,2.165-4.114l3.032-3.14
				c0.072-2.165-0.577-5.847-1.949-11.044C32.649,201.501,32.757,198.433,33.984,196.196 M62.135,250.114
				c-1.299-1.732-2.887-2.743-4.764-3.032c-3.97-0.65-7.326,0.144-10.069,2.382c-3.032,2.382-4.15,5.738-3.356,10.069
				c1.66,0.794,4.475,1.263,8.445,1.408l9.203,0.65c1.083-0.505,1.913-1.48,2.49-2.923l1.083-4.331L62.135,250.114 M78.267,263.323
				l-0.541-2.707c0.361-0.577,0.541-0.217,0.541,1.083V263.323 M29.329,224.238l-6.28,0.325l-5.63-0.866
				c0.361,1.732,0.469,4.223,0.325,7.471c-0.144,3.176-0.072,5.522,0.217,7.038l6.388,0.866l5.522,1.732l0.541-8.662
				C30.556,228.893,30.195,226.259,29.329,224.238"/>
			<path class="st1" d="M114.321,111.204c-0.433,4.547-0.361,10.863,0.217,18.947l-2.49-0.758c-0.938-0.289-1.48-0.036-1.624,0.758
				c1.444-0.217,2.49,0.036,3.14,0.758l0.974,2.923c-5.269,1.011-8.553,4.62-9.853,10.827c1.371-3.032,2.418-5.053,3.14-6.063
				c1.805-2.526,3.898-3.97,6.28-4.331c5.702,1.949,8.373,9.239,8.012,21.871l-0.541,15.483c0,5.774,0.614,10.141,1.841,13.101
				l-1.516,29.125l-3.681,4.114c2.598,0.217,4.62,1.552,6.063,4.006l3.248,6.929c-0.722,2.021-2.454,3.429-5.197,4.223l-7.795,0.433
				l-0.217,2.815l-1.299,4.439c-1.371,0-2.779,0.469-4.223,1.408c-1.299,0.866-1.985,1.624-2.057,2.274l3.356-2.165
				c1.371-0.722,2.851-1.047,4.439-0.974l0.65-3.573l0.974-3.14c6.424-0.144,10.394-2.238,11.91-6.28
				c-1.949-5.486-4.367-9.311-7.254-11.477c8.806,2.238,13.822,5.269,15.05,9.095l0.541-0.758c2.382,3.97,3.753,9.528,4.114,16.674
				l-5.522,8.12c-2.165,3.392-4.8,5.341-7.904,5.847c-0.217-0.577-0.108-1.516,0.325-2.815c0.361-1.011,0.253-1.768-0.325-2.274
				l-0.65,5.955l-1.083,5.089c-2.021,0.361-5.594,1.48-10.719,3.356c-4.547,1.732-7.868,2.635-9.961,2.707
				c0-2.526-0.18-3.392-0.541-2.598c-0.144,0.433-0.072,1.119,0.217,2.057c0.217,0.722,0.144,1.083-0.217,1.083
				c-1.588,1.155-4.078,1.335-7.471,0.541c-3.248-0.722-5.089-1.624-5.522-2.707c-0.505-0.577-1.155-0.397-1.949,0.541l-2.707,2.057
				c-1.227,0.144-2.707-0.325-4.439-1.408l-3.898-2.707c-0.361,2.093-2.274,2.562-5.738,1.408c-5.125-1.732-7.868-4.114-8.229-7.146
				c-0.072-0.433,0.325-1.263,1.191-2.49c0.722-1.083,0.83-1.985,0.325-2.707c-0.866-3.753-3.573-6.099-8.12-7.038
				c-4.042-0.794-7.904-0.325-11.585,1.408c0.072-2.093-0.397-4.331-1.408-6.713l-3.248-5.847c0.433,1.444,0.072,4.403-1.083,8.878
				c-3.032-2.021-5.161-4.042-6.388-6.063c-1.732-2.887-2.382-6.424-1.949-10.61c3.465-2.526,4.764-7.146,3.898-13.859
				c-1.011-7.579-1.263-11.801-0.758-12.668c0.65-1.083,1.299-3.104,1.949-6.063c0.577-2.598,1.299-4.367,2.165-5.305l0.108,1.299
				l0.433,0.758c-0.433-6.857,0.108-15.988,1.624-27.392c1.732-12.776,2.598-22.015,2.598-27.717
				c2.598-4.186,4.656-6.785,6.171-7.795c0.289-1.516,1.48-4.728,3.573-9.636c1.732-4.042,2.454-7.398,2.165-10.069l-1.299-3.465
				c-0.794-1.516-1.227-2.598-1.299-3.248c-0.289-2.526,0.072-6.424,1.083-11.693c1.011-5.269,1.335-9.528,0.974-12.776h5.197
				c8.301-7.146,12.451-23.098,12.451-47.855l-0.325-6.604c0-2.526,0.65-4.475,1.949-5.847l0.866,3.573l0.65,2.707
				c0.361-1.371,1.191-2.129,2.49-2.274l3.789,0.325l-3.356,3.789c-1.083,1.444-1.011,2.887,0.217,4.331
				c-0.65-0.938-0.541-2.129,0.325-3.573c0.866-1.371,1.624-1.913,2.274-1.624c-0.577,2.238-0.144,4.8,1.299,7.687l4.223,6.604
				c-0.505,2.093-0.614,4.259-0.325,6.496l1.299,3.032l1.299,3.032c-1.083-5.125-1.624-8.878-1.624-11.26l4.114,4.439
				c1.877,1.732,2.779,2.851,2.707,3.356c2.743,2.021,6.749,2.779,12.018,2.274c4.114-0.433,8.084-1.516,11.91-3.248
				c-1.516,3.465-1.768,7.723-0.758,12.776l2.274,12.668l-0.541,10.935c-0.433,4.908-0.577,8.878-0.433,11.91
				C116.558,99.294,114.898,104.419,114.321,111.204 M112.48,54.254c-3.826,1.805-6.929,4.15-9.311,7.038l5.197-3.356L112.48,54.254
				 M106.958,112.72l-0.65,5.955c1.011,0.794,1.335-3.176,0.974-11.91L106.958,112.72 M80.541,31.192l-0.217,0.217
				c-0.577-0.072-1.299,0.325-2.165,1.191c-0.65,0.65-1.155,0.758-1.516,0.325c0-4.547-0.361-6.785-1.083-6.713
				c0,1.299,0.253,3.826,0.758,7.579l0.325,8.012c0,1.083,0.144,1.335,0.433,0.758l0.108-1.841v-4.114l0.541-3.14L80.541,31.192
				 M79.025,50.789l-1.841-6.929l1.191,7.471c0.505,2.815,0.108,5.017-1.191,6.604C78.989,56.78,79.602,54.398,79.025,50.789
				 M90.826,55.336c-0.361,0.361-0.577,0.361-0.65,0l-0.541-3.14l-0.541,5.738c0.072,1.804,0.614,4.583,1.624,8.337l0.541,13.101
				c0.144,5.486,0.65,9.78,1.516,12.884c0.217-3.97-0.18-10.899-1.191-20.788c-0.794-8.301-0.794-14.147,0-17.54L90.826,55.336
				 M101.761,63.348c-2.238,3.753-3.32,8.337-3.248,13.75l0.217,0.866l0.217-0.866C99.235,74.428,100.173,69.845,101.761,63.348
				l1.408-2.057l-1.083,0.758L101.761,63.348 M67.765,71.902v3.573c0,1.588,0.18,2.129,0.541,1.624l0.108-3.573
				C68.414,72.01,68.198,71.469,67.765,71.902 M68.306,85.435c-0.072,2.165,0.108,3.212,0.541,3.14l0.108-5.089
				c0-2.238-0.217-3.32-0.65-3.248V85.435 M72.745,82.404l0.758,12.451v11.368c0.361,0.794,0.541-0.072,0.541-2.598
				c0.433-3.898,0.325-9.853-0.325-17.865c-0.794-8.301-1.047-13.931-0.758-16.89C72.384,72.046,72.312,76.557,72.745,82.404
				 M101.112,95.829c-0.577-1.155-1.011-3.537-1.299-7.146l-0.866-6.388c-0.144,2.959,0.036,5.991,0.541,9.095l1.624,8.12V95.829
				 M91.692,94.747v2.598c0.289,3.609-1.119,8.409-4.223,14.4c-2.743,5.341-3.753,8.878-3.032,10.61
				c0.144-2.454,1.552-6.28,4.223-11.477c2.526-5.053,3.717-9.564,3.573-13.534V92.69C91.801,92.978,91.62,93.664,91.692,94.747
				 M100.029,106.548c0.289-1.083,0.108-1.877-0.541-2.382c0.217,0.65,0.144,1.624-0.217,2.923
				c-0.361,1.083-0.289,1.841,0.217,2.274C99.416,109.002,99.596,108.064,100.029,106.548 M77.184,101.568l1.299-19.597
				c0.722-7.579,2.021-12.812,3.898-15.699c-2.598,3.104-4.223,8.445-4.872,16.024C77.292,85.183,77.184,91.607,77.184,101.568
				 M100.462,139.354c-0.65,0.794-0.614,1.552,0.108,2.274c-0.217-0.794,0.108-1.624,0.974-2.49
				c0.794-0.794,0.974-1.371,0.541-1.732L100.462,139.354 M84.438,127.553v4.331c-0.072,1.877,0.108,2.671,0.541,2.382l0.108-4.331
				C85.088,128.058,84.871,127.264,84.438,127.553 M71.121,125.495c-1.877,4.042-2.454,7.507-1.732,10.394v-4.223
				c1.949-5.414,3.501-9.203,4.656-11.368l0.108-3.248c0-1.299-0.217-2.129-0.65-2.49C73.936,117.592,73.142,121.237,71.121,125.495
				 M61.052,131.667c-5.269-1.66-9.023,0.217-11.26,5.63c-1.444,3.681-2.057,8.337-1.841,13.967
				c0.217-0.577,0.866-0.938,1.949-1.083l2.274-0.325c2.382-0.794,4.223-2.671,5.522-5.63c1.155-2.743,1.588-5.522,1.299-8.337
				l-2.382,8.878c-1.371,2.959-3.862,4.475-7.471,4.547c-0.65-3.465-0.325-7.11,0.974-10.935c1.444-4.259,3.537-6.496,6.28-6.713
				c2.743-0.217,4.006,0.65,3.789,2.598l0.65-1.083L61.052,131.667 M101.545,165.447c-0.361,3.248-0.505,6.207-0.433,8.878
				c2.238,2.671,2.959,7.001,2.165,12.992c-1.011,7.795-1.408,12.451-1.191,13.967c-0.144-2.31,0.217-5.161,1.083-8.553l1.516-8.012
				c0.144-1.805-0.253-3.862-1.191-6.171c-1.155-2.743-1.804-4.656-1.949-5.738c-0.144-1.588,0.108-4.331,0.758-8.229
				c0.577-3.609,0.686-6.063,0.325-7.362L101.545,165.447 M90.718,147.799l-0.217-0.758c-0.289-0.144-0.397,0.108-0.325,0.758
				c-2.454,6.135-3.248,14.905-2.382,26.31c1.083,14.075,1.408,22.917,0.974,26.526l1.408-6.604
				c0.144-4.114-0.144-9.347-0.866-15.699l-1.732-16.024L90.718,147.799 M53.69,139.354c-1.011,1.516-1.155,2.274-0.433,2.274
				c0-1.011,0.469-1.841,1.408-2.49l2.274-1.732C55.783,137.189,54.7,137.838,53.69,139.354 M53.798,180.713v10.719l0.325,3.573
				c0.217,1.732,0.433,2.274,0.65,1.624c-0.361-2.454-0.505-7.074-0.433-13.859c0.072-6.424-0.108-10.61-0.541-12.559V180.713
				 M47.085,170.211c0-1.299-0.18-1.66-0.541-1.083l-0.108,3.032c0,1.299,0.18,1.66,0.541,1.083L47.085,170.211 M46.002,187.318
				l0.108-4.331c0-1.877-0.217-2.671-0.65-2.382v4.331C45.389,186.812,45.569,187.606,46.002,187.318 M46.002,201.176
				c0-1.66-0.18-2.31-0.541-1.949v3.789c-0.072,1.66,0.108,2.31,0.541,1.949V201.176 M40.481,219.69l-0.758,2.923
				c0.217,2.238,0.758,0.505,1.624-5.197C40.841,218.211,40.553,218.969,40.481,219.69 M50.333,211.57
				c0.65-2.671,1.227-4.295,1.732-4.872c-1.444,1.516-2.454,4.006-3.032,7.471c-0.433,3.176-0.397,6.352,0.108,9.528
				c0.289,1.949,0.397,2.31,0.325,1.083l-0.325-5.197C49.214,217.272,49.611,214.602,50.333,211.57 M94.291,190.457l0.217,5.522
				l-0.217,5.305c-0.361,1.516-1.66,3.429-3.898,5.738c-2.093,2.238-3.212,3.97-3.356,5.197l4.223-5.305
				c1.732-2.165,2.923-4.186,3.573-6.063c-0.072-5.269,0.541-13.678,1.841-25.227c1.371-11.477,1.985-19.886,1.841-25.227
				l-2.165,19.38C95.193,178.728,94.507,185.621,94.291,190.457 M68.306,196.629c-3.392,2.165-5.738,5.883-7.038,11.152
				c-1.444,5.486-1.155,10.61,0.866,15.374c-1.588-5.269-1.552-10.538,0.108-15.807C63.542,203.161,65.563,199.588,68.306,196.629
				 M88.986,217.741L78.7,227.269l0.541,5.305l0.541,5.197c0.072,3.537,0.253,4.367,0.541,2.49
				c0.072-4.331-0.289-8.662-1.083-12.992c6.785-5.63,13.353-12.018,19.705-19.164L88.986,217.741 M67.332,189.916
				c-1.155-29.449,2.31-49.371,10.394-59.765C68.27,141.555,64.805,161.477,67.332,189.916 M108.799,181.038
				c1.949-2.454,3.717-4.006,5.305-4.656c-2.743,0.866-4.98,2.598-6.713,5.197c-1.732,2.598-2.454,5.377-2.165,8.337
				C105.298,186.957,106.489,183.997,108.799,181.038 M78.7,129.61c0.144-7.507-0.18-12.704-0.974-15.591
				C77.725,120.298,78.05,125.495,78.7,129.61 M135.867,225.97v1.949l0.108,1.841C136.336,228.388,136.3,227.125,135.867,225.97
				 M113.563,228.893l1.624-6.171c0.505-2.671,1.335-4.439,2.49-5.305c-1.588,0.433-2.707,2.129-3.356,5.089L113.563,228.893
				 M117.136,242.427l3.356,1.516l2.923,0.541c-0.722-0.217-0.758-0.614-0.108-1.191c0.577-0.577,0.614-0.866,0.108-0.866
				c-0.577,1.083-1.263,1.588-2.057,1.516l-2.165-1.408L117.136,242.427 M63.65,236.256c0-1.588-0.18-2.129-0.541-1.624v3.573
				c0,1.516,0.18,2.057,0.541,1.624V236.256 M78.267,263.323v-1.624c0-1.299-0.18-1.66-0.541-1.083L78.267,263.323 M73.178,227.702
				c2.093-6.857,6.207-11.477,12.343-13.859c-6.641,1.66-11.08,6.244-13.317,13.75c-1.949,6.352-2.201,14.4-0.758,24.144
				C70.796,241.416,71.374,233.405,73.178,227.702 M50.225,230.301c0-1.66-0.217-2.31-0.65-1.949v3.789
				c0,1.66,0.18,2.31,0.541,1.949L50.225,230.301 M50.117,239.937c-0.072,1.949,0.108,2.779,0.541,2.49l0.108-4.331
				c0-1.949-0.217-2.779-0.65-2.49V239.937"/>
			<path class="st0" d="M135.867,225.97c0.433,1.155,0.469,2.418,0.108,3.789l-0.108-1.841V225.97"/>
			<path class="st0" d="M125.148,262.024l0.974-0.433l-1.624,1.083L125.148,262.024"/>
			<path class="st0" d="M123.415,242.427c0.505,0,0.469,0.289-0.108,0.866c-0.65,0.577-0.614,0.974,0.108,1.191l-2.923-0.541
				l-3.356-1.516l2.057,0.108l2.165,1.408C122.152,244.015,122.838,243.51,123.415,242.427"/>
			<path class="st2" d="M108.907,32.925c2.31,0.866,4.367,2.454,6.171,4.764l4.223,6.713c-2.598,3.032-6.207,4.944-10.827,5.738
				c-4.908,0.938-9.095,0.217-12.559-2.165c-0.217-0.938-1.299-2.31-3.248-4.114l-4.656-3.898c0.144-1.877,0.361-3.248,0.65-4.114
				c-0.505,0.938-0.938,2.129-1.299,3.573c-1.299-1.877-2.346-4.62-3.14-8.229c-0.722-3.032-1.155-6.027-1.299-8.986
				c1.155,0.144,2.021-0.072,2.598-0.65h-2.598v-0.541l-0.217,0.433l-3.465-0.433l-3.14,0.541c-1.516-3.176-0.974-5.955,1.624-8.337
				l7.795-4.656c0.866,2.093,3.104,3.284,6.713,3.573l9.311-0.974l4.006,7.038c1.588,2.887,2.346,5.377,2.274,7.471l-9.311-1.516
				l-6.28,2.815c-2.382,1.155-4.295,2.274-5.738,3.356c-0.505,1.732-0.577,2.598-0.217,2.598c0.433,0,0.686-0.866,0.758-2.598
				l5.847-3.032c2.31-1.227,4.331-2.093,6.063-2.598l4.223,0.974l4.114,1.083c0.505,1.732,0.577,3.356,0.217,4.872l-1.732,3.898
				l1.299-1.624C107.572,33.321,108.185,32.997,108.907,32.925 M104.685,28.81c-4.908,0-9.564,1.047-13.967,3.14L104.685,28.81"/>
			<path class="st0" d="M114.321,222.505c0.65-2.959,1.768-4.656,3.356-5.089c-1.155,0.866-1.985,2.635-2.49,5.305l-1.624,6.171
				L114.321,222.505"/>
			<path class="st0" d="M108.366,57.935l-5.197,3.356c2.382-2.887,5.486-5.233,9.311-7.038L108.366,57.935"/>
			<path class="st0" d="M114.104,176.382c-1.588,0.65-3.356,2.201-5.305,4.656c-2.31,2.959-3.501,5.919-3.573,8.878
				c-0.289-2.959,0.433-5.738,2.165-8.337C109.124,178.981,111.361,177.248,114.104,176.382"/>
			<path class="st0" d="M107.283,106.765c0.361,8.734,0.036,12.704-0.974,11.91l0.65-5.955L107.283,106.765"/>
			<path class="st0" d="M101.545,172.809c0.144,1.083,0.794,2.995,1.949,5.738c0.938,2.31,1.335,4.367,1.191,6.171l-1.516,8.012
				c-0.866,3.392-1.227,6.244-1.083,8.553c-0.217-1.516,0.18-6.171,1.191-13.967c0.794-5.991,0.072-10.322-2.165-12.992
				c-0.072-2.671,0.072-5.63,0.433-8.878l1.083-8.229c0.361,1.299,0.253,3.753-0.325,7.362
				C101.653,168.479,101.401,171.221,101.545,172.809"/>
			<path class="st0" d="M90.718,31.95c4.403-2.093,9.059-3.14,13.967-3.14L90.718,31.95"/>
			<path class="st0" d="M102.086,62.049l1.083-0.758l-1.408,2.057L102.086,62.049"/>
			<path class="st0" d="M102.086,137.405c0.433,0.361,0.253,0.938-0.541,1.732c-0.866,0.866-1.191,1.696-0.974,2.49
				c-0.722-0.722-0.758-1.48-0.108-2.274L102.086,137.405"/>
			<path class="st0" d="M101.112,95.829v3.681l-1.624-8.12c-0.505-3.104-0.686-6.135-0.541-9.095l0.866,6.388
				C100.101,92.293,100.534,94.675,101.112,95.829"/>
			<path class="st0" d="M99.488,104.166c0.65,0.505,0.83,1.299,0.541,2.382c-0.433,1.516-0.614,2.454-0.541,2.815
				c-0.505-0.433-0.577-1.191-0.217-2.274C99.632,105.79,99.704,104.816,99.488,104.166"/>
			<path class="st0" d="M101.761,63.348c-1.588,6.496-2.526,11.08-2.815,13.75l-0.217,0.866l-0.217-0.866
				C98.441,71.685,99.524,67.102,101.761,63.348"/>
			<path class="st0" d="M94.832,200.851c-0.65,1.877-1.841,3.898-3.573,6.063l-4.223,5.305c0.144-1.227,1.263-2.959,3.356-5.197
				c2.238-2.31,3.537-4.223,3.898-5.738l0.217-5.305l-0.217-5.522c0.217-4.836,0.902-11.729,2.057-20.68l2.165-19.38
				c0.144,5.341-0.469,13.75-1.841,25.227C95.374,187.173,94.76,195.582,94.832,200.851"/>
			<path class="st0" d="M89.635,52.197l0.541,3.14c0.072,0.361,0.289,0.361,0.65,0l0.758-1.408c-0.794,3.392-0.794,9.239,0,17.54
				c1.011,9.889,1.408,16.818,1.191,20.788c-0.866-3.104-1.371-7.398-1.516-12.884l-0.541-13.101
				c-1.011-3.753-1.552-6.532-1.624-8.337L89.635,52.197"/>
			<path class="st0" d="M92.234,97.345c0.144,3.97-1.047,8.481-3.573,13.534c-2.671,5.197-4.078,9.023-4.223,11.477
				c-0.722-1.732,0.289-5.269,3.032-10.61c3.104-5.991,4.511-10.791,4.223-14.4v-2.598c-0.072-1.083,0.108-1.768,0.541-2.057V97.345
				"/>
			<path class="st0" d="M98.946,208.105c-6.352,7.146-12.92,13.534-19.705,19.164c0.794,4.331,1.155,8.662,1.083,12.992
				c-0.289,1.877-0.469,1.047-0.541-2.49l-0.541-5.197l-0.541-5.305l10.286-9.528L98.946,208.105"/>
			<path class="st0" d="M90.177,147.799c-0.072-0.65,0.036-0.902,0.325-0.758l0.217,0.758l-3.14,14.508l1.732,16.024
				c0.722,6.352,1.011,11.585,0.866,15.699l-1.408,6.604c0.433-3.609,0.108-12.451-0.974-26.526
				C86.928,162.704,87.722,153.934,90.177,147.799"/>
			<path class="st0" d="M88.011,40.72c0,2.382,0.541,6.135,1.624,11.26l-1.299-3.032l-1.299-3.032
				c-0.289-2.238-0.18-4.403,0.325-6.496L88.011,40.72"/>
			<path class="st0" d="M88.661,35.848c-0.289,0.866-0.505,2.238-0.65,4.114l-0.65-0.541C87.722,37.977,88.155,36.786,88.661,35.848
				"/>
			<path class="st0" d="M82.922,21.556h2.598c-0.577,0.577-1.444,0.794-2.598,0.65V21.556"/>
			<path class="st0" d="M84.98,134.265c-0.433,0.289-0.614-0.505-0.541-2.382v-4.331c0.433-0.289,0.65,0.505,0.65,2.382
				L84.98,134.265"/>
			<path class="st0" d="M82.922,22.206c0.144,2.959,0.577,5.955,1.299,8.986c0.722,3.32,1.66,5.919,2.815,7.795l-3.898-6.171
				c-1.444-2.887-1.877-5.45-1.299-7.687c-0.65-0.289-1.408,0.253-2.274,1.624c-0.866,1.444-0.974,2.635-0.325,3.573
				c-1.227-1.444-1.299-2.887-0.217-4.331l3.356-3.789H82.922"/>
			<path class="st0" d="M82.922,22.206h-0.541l0.325-0.758l0.217,0.108V22.206"/>
			<path class="st0" d="M80.324,31.409l0.217-0.217l-2.815,2.274l-0.541,3.14v4.114l-0.108,1.841
				c-0.289,0.577-0.433,0.325-0.433-0.758l-0.325-8.012c-0.505-3.753-0.758-6.28-0.758-7.579c0.722-0.072,1.083,2.165,1.083,6.713
				c0.361,0.433,0.866,0.325,1.516-0.325C79.025,31.734,79.747,31.337,80.324,31.409"/>
			<path class="st0" d="M77.725,114.019c0.794,2.887,1.119,8.084,0.974,15.591C78.05,125.495,77.725,120.298,77.725,114.019"/>
			<path class="st0" d="M82.381,66.272c-1.877,2.887-3.176,8.12-3.898,15.699l-1.299,19.597c0-9.961,0.108-16.385,0.325-19.272
				C78.159,74.717,79.783,69.375,82.381,66.272"/>
			<path class="st0" d="M77.184,43.86l1.841,6.929c0.577,3.609-0.036,5.991-1.841,7.146c1.299-1.588,1.696-3.789,1.191-6.604
				L77.184,43.86"/>
			<path class="st0" d="M73.503,94.855l-0.758-12.451c-0.433-5.847-0.361-10.358,0.217-13.534c-0.289,2.959-0.036,8.589,0.758,16.89
				c0.65,8.012,0.758,13.967,0.325,17.865c0,2.526-0.18,3.392-0.541,2.598V94.855"/>
			<path class="st0" d="M73.503,114.56c0.433,0.361,0.65,1.191,0.65,2.49l-0.108,3.248c-1.155,2.165-2.707,5.955-4.656,11.368v4.223
				c-0.722-2.887-0.144-6.352,1.732-10.394C73.142,121.237,73.936,117.592,73.503,114.56"/>
			<path class="st0" d="M72.204,227.594c2.238-7.507,6.677-12.09,13.317-13.75c-6.135,2.382-10.25,7.001-12.343,13.859
				c-1.804,5.702-2.382,13.714-1.732,24.036C70.002,241.994,70.255,233.946,72.204,227.594"/>
			<path class="st0" d="M68.847,88.575c-0.433,0.072-0.614-0.974-0.541-3.14v-5.197c0.433-0.072,0.65,1.011,0.65,3.248
				L68.847,88.575"/>
			<path class="st0" d="M67.765,71.902c0.433-0.433,0.65,0.108,0.65,1.624l-0.108,3.573c-0.361,0.505-0.541-0.036-0.541-1.624
				V71.902"/>
			<path class="st0" d="M77.725,130.151c-8.084,10.394-11.549,30.316-10.394,59.765C64.805,161.477,68.27,141.555,77.725,130.151"/>
			<path class="st1" d="M65.166,254.337l-1.083,4.331c-0.577,1.444-1.408,2.418-2.49,2.923l-9.203-0.65
				c-3.97-0.144-6.785-0.614-8.445-1.408c-0.794-4.331,0.325-7.687,3.356-10.069c2.743-2.238,6.099-3.032,10.069-2.382
				c1.877,0.289,3.465,1.299,4.764,3.032L65.166,254.337"/>
			<path class="st0" d="M63.109,234.632c0.361-0.505,0.541,0.036,0.541,1.624v3.573c-0.361,0.433-0.541-0.108-0.541-1.624V234.632"
				/>
			<path class="st0" d="M60.835,133.183l-0.65,1.083c0.217-1.949-1.047-2.815-3.789-2.598c-2.743,0.217-4.836,2.454-6.28,6.713
				c-1.299,3.826-1.624,7.471-0.974,10.935c3.609-0.072,6.099-1.588,7.471-4.547l2.382-8.878c0.289,2.815-0.144,5.594-1.299,8.337
				c-1.299,2.959-3.14,4.836-5.522,5.63l-2.274,0.325c-1.083,0.144-1.732,0.505-1.949,1.083c-0.217-5.63,0.397-10.286,1.841-13.967
				c2.238-5.413,5.991-7.29,11.26-5.63L60.835,133.183"/>
			<path class="st0" d="M68.306,196.629c-2.743,2.959-4.764,6.532-6.063,10.719c-1.66,5.269-1.696,10.538-0.108,15.807
				c-2.021-4.764-2.31-9.889-0.866-15.374C62.568,202.511,64.914,198.794,68.306,196.629"/>
			<path class="st0" d="M53.256,141.628c-0.722,0-0.577-0.758,0.433-2.274c1.011-1.516,2.093-2.165,3.248-1.949l-2.274,1.732
				C53.726,139.787,53.256,140.617,53.256,141.628"/>
			<path class="st0" d="M54.772,196.629c-0.217,0.65-0.433,0.108-0.65-1.624l-0.325-3.573v-10.719v-10.502
				c0.433,1.949,0.614,6.135,0.541,12.559C54.267,189.555,54.411,194.175,54.772,196.629"/>
			<path class="st0" d="M50.658,242.427c-0.433,0.289-0.614-0.541-0.541-2.49v-4.331c0.433-0.289,0.65,0.541,0.65,2.49
				L50.658,242.427"/>
			<path class="st0" d="M52.065,206.698c-0.505,0.577-1.083,2.201-1.732,4.872c-0.722,3.032-1.119,5.702-1.191,8.012l0.325,5.197
				c0.072,1.227-0.036,0.866-0.325-1.083c-0.505-3.176-0.541-6.352-0.108-9.528C49.611,210.704,50.622,208.214,52.065,206.698"/>
			<path class="st0" d="M49.575,228.352c0.433-0.361,0.65,0.289,0.65,1.949l-0.108,3.789c-0.361,0.361-0.541-0.289-0.541-1.949
				V228.352"/>
			<path class="st0" d="M46.544,169.128c0.361-0.577,0.541-0.217,0.541,1.083l-0.108,3.032c-0.361,0.577-0.541,0.217-0.541-1.083
				L46.544,169.128"/>
			<path class="st0" d="M46.002,187.318c-0.433,0.289-0.614-0.505-0.541-2.382v-4.331c0.433-0.289,0.65,0.505,0.65,2.382
				L46.002,187.318"/>
			<path class="st0" d="M45.461,199.227c0.361-0.361,0.541,0.289,0.541,1.949v3.789c-0.433,0.361-0.614-0.289-0.541-1.949V199.227"
				/>
			<path class="st0" d="M41.347,217.417c-0.866,5.702-1.408,7.435-1.624,5.197l0.758-2.923
				C40.553,218.969,40.841,218.211,41.347,217.417"/>
			<path class="st1" d="M33.984,196.196c-1.227,2.238-1.335,5.305-0.325,9.203c1.371,5.197,2.021,8.878,1.949,11.044l-3.032,3.14
				c-1.155,1.299-1.877,2.671-2.165,4.114l-12.992-0.541l2.598-5.847l2.057-6.063l-0.108-2.382
				c-0.144-1.011-0.108-1.768,0.108-2.274c0.722-2.238,2.562-4.15,5.522-5.738L33.984,196.196"/>
			<path class="st2" d="M29.329,224.238c0.866,2.021,1.227,4.656,1.083,7.904l-0.541,8.662l-5.522-1.732l-6.388-0.866
				c-0.289-1.516-0.361-3.862-0.217-7.038c0.144-3.248,0.036-5.738-0.325-7.471l5.63,0.866L29.329,224.238"/>
		</g>
		<g transform="matrix(1.0, 0.0, 0.0, 1.0, 0.0, 0.0)">
			<g id="shape0_1_" transform="matrix(1.0, 0.0, 0.0, 1.0, 0.0, 0.0)">
				<path class="st0" d="M105.552,18.2l-4.006-7.038l-9.311,0.974c-3.609-0.289-5.847-1.48-6.713-3.573l-7.795,4.656
					c-2.598,2.382-3.14,5.161-1.624,8.337l3.14-0.541l3.465,0.433l-0.325,0.758l-3.789-0.325c-1.299,0.144-2.129,0.902-2.49,2.274
					l-0.65-2.707l-0.866-3.573c-1.299,1.371-1.949,3.32-1.949,5.847l0.325,6.604c0,24.758-4.15,40.71-12.451,47.855h-5.197
					c0.361,3.248,0.036,7.507-0.974,12.776c-1.011,5.269-1.371,9.167-1.083,11.693c0.072,0.65,0.505,1.732,1.299,3.248l1.299,3.465
					c0.289,2.671-0.433,6.027-2.165,10.069c-2.093,4.908-3.284,8.12-3.573,9.636c-1.516,1.011-3.573,3.609-6.171,7.795
					c0,5.702-0.866,14.941-2.598,27.717c-1.516,11.404-2.057,20.535-1.624,27.392l-0.433-0.758l-0.108-1.299
					c-0.866,0.938-1.588,2.707-2.165,5.305c-0.65,2.959-1.299,4.98-1.949,6.063c-0.505,0.866-0.253,5.089,0.758,12.668
					c0.866,6.713-0.433,11.332-3.898,13.859c-0.433,4.186,0.217,7.723,1.949,10.61c1.227,2.021,3.356,4.042,6.388,6.063
					c1.155-4.475,1.516-7.435,1.083-8.878l3.248,5.847c1.011,2.382,1.48,4.62,1.408,6.713c3.681-1.732,7.543-2.201,11.585-1.408
					c4.547,0.938,7.254,3.284,8.12,7.038c0.505,0.722,0.397,1.624-0.325,2.707c-0.866,1.227-1.263,2.057-1.191,2.49
					c0.361,3.032,3.104,5.413,8.229,7.146c3.392,1.155,5.305,0.686,5.738-1.408l3.898,2.707c1.732,1.083,3.212,1.552,4.439,1.408
					l2.707-2.057c0.794-0.938,1.444-1.119,1.949-0.541c0.433,1.083,2.274,1.985,5.522,2.707c3.392,0.794,5.883,0.614,7.471-0.541
					c0.361,0,0.433-0.361,0.217-1.083c-0.289-0.938-0.361-1.624-0.217-2.057c0.361-0.794,0.541,0.072,0.541,2.598
					c2.093-0.072,5.414-0.974,9.961-2.707c5.125-1.877,8.698-2.995,10.719-3.356l1.083-5.089l0.65-5.955
					c0.577,0.505,0.686,1.263,0.325,2.274c-0.433,1.299-0.541,2.238-0.325,2.815c3.104-0.505,5.738-2.454,7.904-5.847l5.522-8.12
					c-0.361-7.146-1.732-12.704-4.114-16.674l-0.541,0.758c-1.227-3.826-6.244-6.857-15.05-9.095
					c2.887,2.165,5.305,5.991,7.254,11.477c-1.516,4.042-5.486,6.135-11.91,6.28l-0.974,3.14l-0.65,3.573
					c-1.588-0.072-3.068,0.253-4.439,0.974l-3.356,2.165c0.072-0.65,0.758-1.408,2.057-2.274c1.444-0.938,2.851-1.408,4.223-1.408
					l1.299-4.439l0.217-2.815l7.795-0.433c2.743-0.794,4.475-2.201,5.197-4.223l-3.248-6.929c-1.444-2.454-3.465-3.789-6.063-4.006
					l3.681-4.114l1.516-29.125c-1.227-2.959-1.841-7.326-1.841-13.101l0.541-15.483c0.361-12.632-2.31-19.922-8.012-21.871
					c-2.382,0.361-4.475,1.804-6.28,4.331c-0.722,1.011-1.768,3.032-3.14,6.063c1.299-6.207,4.583-9.816,9.853-10.827l-0.974-2.923
					c-0.65-0.722-1.696-0.974-3.14-0.758c0.144-0.794,0.686-1.047,1.624-0.758l2.49,0.758c-0.577-8.084-0.65-14.4-0.217-18.947
					c0.577-6.785,2.238-11.91,4.98-15.374c-0.144-3.032,0-7.001,0.433-11.91l0.541-10.935l-2.274-12.668
					c-1.011-5.053-0.758-9.311,0.758-12.776c-3.826,1.732-7.795,2.815-11.91,3.248c-5.269,0.505-9.275-0.253-12.018-2.274
					c0.072-0.505-0.83-1.624-2.707-3.356l-4.114-4.439v-0.758l4.656,3.898c1.949,1.805,3.032,3.176,3.248,4.114
					c3.465,2.382,7.651,3.104,12.559,2.165c4.62-0.794,8.229-2.707,10.827-5.738l-4.223-6.713c-1.804-2.31-3.862-3.898-6.171-4.764
					c-0.722,0.072-1.335,0.397-1.841,0.974l-1.299,1.624l1.732-3.898c0.361-1.516,0.289-3.14-0.217-4.872l-4.114-1.083l-4.223-0.974
					c-1.732,0.505-3.753,1.371-6.063,2.598l-5.847,3.032c-0.072,1.732-0.325,2.598-0.758,2.598c-0.361,0-0.289-0.866,0.217-2.598
					c1.444-1.083,3.356-2.201,5.738-3.356l6.28-2.815l9.311,1.516C107.898,23.577,107.14,21.087,105.552,18.2 M119.843,51.872
					c-0.577,3.753-0.758,6.641-0.541,8.662l1.732,6.28c0.938,2.526,1.371,4.583,1.299,6.171l-0.217,11.693
					c-0.144,4.62-0.577,8.517-1.299,11.693l-1.408,2.923l-1.732,2.815c-1.227,3.32-1.768,8.12-1.624,14.4
					c0.217,7.507,0.072,12.74-0.433,15.699l3.356,3.14l3.356,3.14c1.155,5.053,1.732,11.765,1.732,20.138l-0.65,21.437
					c0,0.866,0.397,1.696,1.191,2.49c0.866,0.794,1.335,1.516,1.408,2.165l-1.299,15.591c-0.65,5.702-1.444,10.538-2.382,14.508
					c5.053,2.743,9.744,4.836,14.075,6.28c2.382,2.238,3.934,5.63,4.656,10.177l1.624,13.209c-0.505,0.072-0.83-0.072-0.974-0.433
					l-0.108-1.191c-0.866,0.433-2.635,3.068-5.305,7.904c-2.238,3.97-5.161,5.847-8.77,5.63l-0.541,2.815l-0.866,2.382l-0.758,0.217
					l-0.217,0.217l-11.801,4.223c-5.197,1.805-8.95,3.392-11.26,4.764l-5.63-1.624l-5.738-1.516c-0.866-0.144-1.696,0.18-2.49,0.974
					c-0.722,0.794-1.48,1.155-2.274,1.083c-1.227-0.072-2.49-0.577-3.789-1.516c-1.588-1.227-2.743-1.949-3.465-2.165l-8.012,0.217
					c-3.176-1.732-5.341-3.862-6.496-6.388c-1.588,1.805-4.872,2.562-9.853,2.274l-10.935-1.732
					c-0.65-1.949-0.505-4.764,0.433-8.445c0.938-3.753,1.119-6.496,0.541-8.229c-1.877-0.072-2.887,0.794-3.032,2.598
					c-3.681-1.877-6.821-5.161-9.419-9.853l-0.866,2.707l-1.191,2.49c-3.826-1.588-7.976-2.635-12.451-3.14l-1.299-8.337
					c-0.505-3.032-0.614-5.63-0.325-7.795c0.217-1.516,1.011-3.573,2.382-6.171c1.371-2.598,2.165-4.511,2.382-5.738l-0.108-2.598
					c-0.144-1.155-0.108-2.021,0.108-2.598c0.866-2.454,3.826-5.161,8.878-8.12c4.836-2.815,7.579-5.486,8.229-8.012
					c-0.433-4.186,0-10.647,1.299-19.38l2.815-21.113v-6.496c0-2.743,0.18-4.764,0.541-6.063c0.361-1.155,1.263-2.418,2.707-3.789
					l3.573-3.898c1.371-2.093,2.671-5.053,3.898-8.878c1.299-3.898,1.913-6.857,1.841-8.878c0-0.794-0.469-1.913-1.408-3.356
					c-1.011-1.444-1.588-2.562-1.732-3.356c-0.577-3.176-0.253-7.579,0.974-13.209c1.444-6.641,2.165-11.26,2.165-13.859
					l4.656-0.433c1.588-1.227,3.32-3.32,5.197-6.28c2.165-3.465,3.717-5.702,4.656-6.713c-0.072-4.692,0.361-11.982,1.299-21.871
					c0.794-9.095,1.047-16.529,0.758-22.304c2.238-3.176,4.295-5.63,6.171-7.362c2.526-2.454,5.341-4.186,8.445-5.197
					c1.732,1.444,4.006,2.454,6.821,3.032c3.392,0.65,5.955,0.18,7.687-1.408c8.301,6.352,11.404,13.281,9.311,20.788
					c4.98,4.692,8.806,9.203,11.477,13.534L119.843,51.872 M33.985,196.196l-6.388,4.656c-2.959,1.588-4.8,3.501-5.522,5.738
					c-0.217,0.505-0.253,1.263-0.108,2.274l0.108,2.382l-2.057,6.063l-2.598,5.847l12.992,0.541
					c0.289-1.444,1.011-2.815,2.165-4.114l3.032-3.14c0.072-2.165-0.577-5.847-1.949-11.044
					C32.65,201.501,32.758,198.433,33.985,196.196 M62.135,250.114c-1.299-1.732-2.887-2.743-4.764-3.032
					c-3.97-0.65-7.326,0.144-10.069,2.382c-3.032,2.382-4.15,5.738-3.356,10.069c1.66,0.794,4.475,1.263,8.445,1.408l9.203,0.65
					c1.083-0.505,1.913-1.48,2.49-2.923l1.083-4.331L62.135,250.114 M78.268,263.323l-0.541-2.707
					c0.361-0.577,0.541-0.217,0.541,1.083V263.323 M29.33,224.238l-6.28,0.325l-5.63-0.866c0.361,1.732,0.469,4.223,0.325,7.471
					c-0.144,3.176-0.072,5.522,0.217,7.038l6.388,0.866l5.522,1.732l0.541-8.662C30.557,228.893,30.196,226.259,29.33,224.238"/>
				<path class="st1" d="M114.322,111.204c-0.433,4.547-0.361,10.863,0.217,18.947l-2.49-0.758c-0.938-0.289-1.48-0.036-1.624,0.758
					c1.444-0.217,2.49,0.036,3.14,0.758l0.974,2.923c-5.269,1.011-8.553,4.62-9.853,10.827c1.371-3.032,2.418-5.053,3.14-6.063
					c1.805-2.526,3.898-3.97,6.28-4.331c5.702,1.949,8.373,9.239,8.012,21.871l-0.541,15.483c0,5.774,0.614,10.141,1.841,13.101
					l-1.516,29.125l-3.681,4.114c2.598,0.217,4.62,1.552,6.063,4.006l3.248,6.929c-0.722,2.021-2.454,3.429-5.197,4.223
					l-7.795,0.433l-0.217,2.815l-1.299,4.439c-1.371,0-2.779,0.469-4.223,1.408c-1.299,0.866-1.985,1.624-2.057,2.274l3.356-2.165
					c1.371-0.722,2.851-1.047,4.439-0.974l0.65-3.573l0.974-3.14c6.424-0.144,10.394-2.238,11.91-6.28
					c-1.949-5.486-4.367-9.311-7.254-11.477c8.806,2.238,13.822,5.269,15.05,9.095l0.541-0.758c2.382,3.97,3.753,9.528,4.114,16.674
					l-5.522,8.12c-2.165,3.392-4.8,5.341-7.904,5.847c-0.217-0.577-0.108-1.516,0.325-2.815c0.361-1.011,0.253-1.768-0.325-2.274
					l-0.65,5.955l-1.083,5.089c-2.021,0.361-5.594,1.48-10.719,3.356c-4.547,1.732-7.868,2.635-9.961,2.707
					c0-2.526-0.18-3.392-0.541-2.598c-0.144,0.433-0.072,1.119,0.217,2.057c0.217,0.722,0.144,1.083-0.217,1.083
					c-1.588,1.155-4.078,1.335-7.471,0.541c-3.248-0.722-5.089-1.624-5.522-2.707c-0.505-0.577-1.155-0.397-1.949,0.541
					l-2.707,2.057c-1.227,0.144-2.707-0.325-4.439-1.408l-3.898-2.707c-0.361,2.093-2.274,2.562-5.738,1.408
					c-5.125-1.732-7.868-4.114-8.229-7.146c-0.072-0.433,0.325-1.263,1.191-2.49c0.722-1.083,0.83-1.985,0.325-2.707
					c-0.866-3.753-3.573-6.099-8.12-7.038c-4.042-0.794-7.904-0.325-11.585,1.408c0.072-2.093-0.397-4.331-1.408-6.713l-3.248-5.847
					c0.433,1.444,0.072,4.403-1.083,8.878c-3.032-2.021-5.161-4.042-6.388-6.063c-1.732-2.887-2.382-6.424-1.949-10.61
					c3.465-2.526,4.764-7.146,3.898-13.859c-1.011-7.579-1.263-11.801-0.758-12.668c0.65-1.083,1.299-3.104,1.949-6.063
					c0.577-2.598,1.299-4.367,2.165-5.305l0.108,1.299l0.433,0.758c-0.433-6.857,0.108-15.988,1.624-27.392
					c1.732-12.776,2.598-22.015,2.598-27.717c2.598-4.186,4.656-6.785,6.171-7.795c0.289-1.516,1.48-4.728,3.573-9.636
					c1.732-4.042,2.454-7.398,2.165-10.069l-1.299-3.465c-0.794-1.516-1.227-2.598-1.299-3.248
					c-0.289-2.526,0.072-6.424,1.083-11.693c1.011-5.269,1.335-9.528,0.974-12.776h5.197c8.301-7.146,12.451-23.098,12.451-47.855
					l-0.325-6.604c0-2.526,0.65-4.475,1.949-5.847l0.866,3.573l0.65,2.707c0.361-1.371,1.191-2.129,2.49-2.274l3.789,0.325
					l-3.356,3.789c-1.083,1.444-1.011,2.887,0.217,4.331c-0.65-0.938-0.541-2.129,0.325-3.573c0.866-1.371,1.624-1.913,2.274-1.624
					c-0.577,2.238-0.144,4.8,1.299,7.687l4.223,6.604c-0.505,2.093-0.614,4.259-0.325,6.496l1.299,3.032l1.299,3.032
					c-1.083-5.125-1.624-8.878-1.624-11.26l4.114,4.439c1.877,1.732,2.779,2.851,2.707,3.356c2.743,2.021,6.749,2.779,12.018,2.274
					c4.114-0.433,8.084-1.516,11.91-3.248c-1.516,3.465-1.768,7.723-0.758,12.776l2.274,12.668l-0.541,10.935
					c-0.433,4.908-0.577,8.878-0.433,11.91C116.559,99.294,114.899,104.419,114.322,111.204 M112.481,54.254
					c-3.826,1.805-6.929,4.15-9.311,7.038l5.197-3.356L112.481,54.254 M106.959,112.72l-0.65,5.955
					c1.011,0.794,1.335-3.176,0.974-11.91L106.959,112.72 M80.541,31.192l-0.217,0.217c-0.577-0.072-1.299,0.325-2.165,1.191
					c-0.65,0.65-1.155,0.758-1.516,0.325c0-4.547-0.361-6.785-1.083-6.713c0,1.299,0.253,3.826,0.758,7.579l0.325,8.012
					c0,1.083,0.144,1.335,0.433,0.758l0.108-1.841v-4.114l0.541-3.14L80.541,31.192 M79.026,50.789l-1.841-6.929l1.191,7.471
					c0.505,2.815,0.108,5.017-1.191,6.604C78.989,56.78,79.603,54.398,79.026,50.789 M90.827,55.336
					c-0.361,0.361-0.577,0.361-0.65,0l-0.541-3.14l-0.541,5.738c0.072,1.804,0.614,4.583,1.624,8.337l0.541,13.101
					c0.144,5.486,0.65,9.78,1.516,12.884c0.217-3.97-0.18-10.899-1.191-20.788c-0.794-8.301-0.794-14.147,0-17.54L90.827,55.336
					 M101.762,63.348c-2.238,3.753-3.32,8.337-3.248,13.75l0.217,0.866l0.217-0.866C99.236,74.428,100.174,69.845,101.762,63.348
					l1.408-2.057l-1.083,0.758L101.762,63.348 M67.765,71.902v3.573c0,1.588,0.18,2.129,0.541,1.624l0.108-3.573
					C68.415,72.01,68.199,71.469,67.765,71.902 M68.307,85.435c-0.072,2.165,0.108,3.212,0.541,3.14l0.108-5.089
					c0-2.238-0.217-3.32-0.65-3.248V85.435 M72.746,82.404l0.758,12.451v11.368c0.361,0.794,0.541-0.072,0.541-2.598
					c0.433-3.898,0.325-9.853-0.325-17.865c-0.794-8.301-1.047-13.931-0.758-16.89C72.385,72.046,72.313,76.557,72.746,82.404
					 M101.113,95.829c-0.577-1.155-1.011-3.537-1.299-7.146l-0.866-6.388c-0.144,2.959,0.036,5.991,0.541,9.095l1.624,8.12V95.829
					 M91.693,94.747v2.598c0.289,3.609-1.119,8.409-4.223,14.4c-2.743,5.341-3.753,8.878-3.032,10.61
					c0.144-2.454,1.552-6.28,4.223-11.477c2.526-5.053,3.717-9.564,3.573-13.534V92.69C91.801,92.978,91.621,93.664,91.693,94.747
					 M100.03,106.548c0.289-1.083,0.108-1.877-0.541-2.382c0.217,0.65,0.144,1.624-0.217,2.923
					c-0.361,1.083-0.289,1.841,0.217,2.274C99.416,109.002,99.597,108.064,100.03,106.548 M77.185,101.568l1.299-19.597
					c0.722-7.579,2.021-12.812,3.898-15.699c-2.598,3.104-4.223,8.445-4.872,16.024C77.293,85.183,77.185,91.607,77.185,101.568
					 M100.463,139.354c-0.65,0.794-0.614,1.552,0.108,2.274c-0.217-0.794,0.108-1.624,0.974-2.49
					c0.794-0.794,0.974-1.371,0.541-1.732L100.463,139.354 M84.439,127.553v4.331c-0.072,1.877,0.108,2.671,0.541,2.382l0.108-4.331
					C85.089,128.058,84.872,127.264,84.439,127.553 M71.122,125.495c-1.877,4.042-2.454,7.507-1.732,10.394v-4.223
					c1.949-5.414,3.501-9.203,4.656-11.368l0.108-3.248c0-1.299-0.217-2.129-0.65-2.49
					C73.937,117.592,73.143,121.237,71.122,125.495 M61.053,131.667c-5.269-1.66-9.023,0.217-11.26,5.63
					c-1.444,3.681-2.057,8.337-1.841,13.967c0.217-0.577,0.866-0.938,1.949-1.083l2.274-0.325c2.382-0.794,4.223-2.671,5.522-5.63
					c1.155-2.743,1.588-5.522,1.299-8.337l-2.382,8.878c-1.371,2.959-3.862,4.475-7.471,4.547c-0.65-3.465-0.325-7.11,0.974-10.935
					c1.444-4.259,3.537-6.496,6.28-6.713c2.743-0.217,4.006,0.65,3.789,2.598l0.65-1.083L61.053,131.667 M101.546,165.447
					c-0.361,3.248-0.505,6.207-0.433,8.878c2.238,2.671,2.959,7.001,2.165,12.992c-1.011,7.795-1.408,12.451-1.191,13.967
					c-0.144-2.31,0.217-5.161,1.083-8.553l1.516-8.012c0.144-1.805-0.253-3.862-1.191-6.171c-1.155-2.743-1.804-4.656-1.949-5.738
					c-0.144-1.588,0.108-4.331,0.758-8.229c0.577-3.609,0.686-6.063,0.325-7.362L101.546,165.447 M90.719,147.799l-0.217-0.758
					c-0.289-0.144-0.397,0.108-0.325,0.758c-2.454,6.135-3.248,14.905-2.382,26.31c1.083,14.075,1.408,22.917,0.974,26.526
					l1.408-6.604c0.144-4.114-0.144-9.347-0.866-15.699l-1.732-16.024L90.719,147.799 M53.69,139.354
					c-1.011,1.516-1.155,2.274-0.433,2.274c0-1.011,0.469-1.841,1.408-2.49l2.274-1.732
					C55.784,137.189,54.701,137.838,53.69,139.354 M53.799,180.713v10.719l0.325,3.573c0.217,1.732,0.433,2.274,0.65,1.624
					c-0.361-2.454-0.505-7.074-0.433-13.859c0.072-6.424-0.108-10.61-0.541-12.559V180.713 M47.086,170.211
					c0-1.299-0.18-1.66-0.541-1.083l-0.108,3.032c0,1.299,0.18,1.66,0.541,1.083L47.086,170.211 M46.003,187.318l0.108-4.331
					c0-1.877-0.217-2.671-0.65-2.382v4.331C45.39,186.812,45.57,187.606,46.003,187.318 M46.003,201.176
					c0-1.66-0.18-2.31-0.541-1.949v3.789c-0.072,1.66,0.108,2.31,0.541,1.949V201.176 M40.481,219.69l-0.758,2.923
					c0.217,2.238,0.758,0.505,1.624-5.197C40.842,218.211,40.554,218.969,40.481,219.69 M50.334,211.57
					c0.65-2.671,1.227-4.295,1.732-4.872c-1.444,1.516-2.454,4.006-3.032,7.471c-0.433,3.176-0.397,6.352,0.108,9.528
					c0.289,1.949,0.397,2.31,0.325,1.083l-0.325-5.197C49.215,217.272,49.612,214.602,50.334,211.57 M94.292,190.457l0.217,5.522
					l-0.217,5.305c-0.361,1.516-1.66,3.429-3.898,5.738c-2.093,2.238-3.212,3.97-3.356,5.197l4.223-5.305
					c1.732-2.165,2.923-4.186,3.573-6.063c-0.072-5.269,0.541-13.678,1.841-25.227c1.371-11.477,1.985-19.886,1.841-25.227
					l-2.165,19.38C95.194,178.728,94.508,185.621,94.292,190.457 M68.307,196.629c-3.392,2.165-5.738,5.883-7.038,11.152
					c-1.444,5.486-1.155,10.61,0.866,15.374c-1.588-5.269-1.552-10.538,0.108-15.807C63.543,203.161,65.564,199.588,68.307,196.629
					 M88.986,217.741l-10.286,9.528l0.541,5.305l0.541,5.197c0.072,3.537,0.253,4.367,0.541,2.49
					c0.072-4.331-0.289-8.662-1.083-12.992c6.785-5.63,13.353-12.018,19.705-19.164L88.986,217.741 M67.332,189.916
					c-1.155-29.449,2.31-49.371,10.394-59.765C68.271,141.555,64.806,161.477,67.332,189.916 M108.8,181.038
					c1.949-2.454,3.717-4.006,5.305-4.656c-2.743,0.866-4.98,2.598-6.713,5.197c-1.732,2.598-2.454,5.377-2.165,8.337
					C105.299,186.957,106.49,183.997,108.8,181.038 M78.701,129.61c0.144-7.507-0.18-12.704-0.974-15.591
					C77.726,120.298,78.051,125.495,78.701,129.61 M135.867,225.97v1.949l0.108,1.841C136.336,228.388,136.3,227.125,135.867,225.97
					 M113.564,228.893l1.624-6.171c0.505-2.671,1.335-4.439,2.49-5.305c-1.588,0.433-2.707,2.129-3.356,5.089L113.564,228.893
					 M117.137,242.427l3.356,1.516l2.923,0.541c-0.722-0.217-0.758-0.614-0.108-1.191c0.577-0.577,0.614-0.866,0.108-0.866
					c-0.577,1.083-1.263,1.588-2.057,1.516l-2.165-1.408L117.137,242.427 M63.651,236.256c0-1.588-0.18-2.129-0.541-1.624v3.573
					c0,1.516,0.18,2.057,0.541,1.624V236.256 M78.268,263.323v-1.624c0-1.299-0.18-1.66-0.541-1.083L78.268,263.323 M73.179,227.702
					c2.093-6.857,6.207-11.477,12.343-13.859c-6.641,1.66-11.08,6.244-13.317,13.75c-1.949,6.352-2.201,14.4-0.758,24.144
					C70.797,241.416,71.374,233.405,73.179,227.702 M50.226,230.301c0-1.66-0.217-2.31-0.65-1.949v3.789
					c0,1.66,0.18,2.31,0.541,1.949L50.226,230.301 M50.117,239.937c-0.072,1.949,0.108,2.779,0.541,2.49l0.108-4.331
					c0-1.949-0.217-2.779-0.65-2.49V239.937"/>
				<path class="st0" d="M135.867,225.97c0.433,1.155,0.469,2.418,0.108,3.789l-0.108-1.841V225.97"/>
				<path class="st0" d="M125.149,262.024l0.974-0.433l-1.624,1.083L125.149,262.024"/>
				<path class="st0" d="M123.416,242.427c0.505,0,0.469,0.289-0.108,0.866c-0.65,0.577-0.614,0.974,0.108,1.191l-2.923-0.541
					l-3.356-1.516l2.057,0.108l2.165,1.408C122.153,244.015,122.839,243.51,123.416,242.427"/>
				<path class="st2" d="M108.908,32.925c2.31,0.866,4.367,2.454,6.171,4.764l4.223,6.713c-2.598,3.032-6.207,4.944-10.827,5.738
					c-4.908,0.938-9.095,0.217-12.559-2.165c-0.217-0.938-1.299-2.31-3.248-4.114l-4.656-3.898c0.144-1.877,0.361-3.248,0.65-4.114
					c-0.505,0.938-0.938,2.129-1.299,3.573c-1.299-1.877-2.346-4.62-3.14-8.229c-0.722-3.032-1.155-6.027-1.299-8.986
					c1.155,0.144,2.021-0.072,2.598-0.65h-2.598v-0.541l-0.217,0.433l-3.465-0.433l-3.14,0.541
					c-1.516-3.176-0.974-5.955,1.624-8.337l7.795-4.656c0.866,2.093,3.104,3.284,6.713,3.573l9.311-0.974l4.006,7.038
					c1.588,2.887,2.346,5.377,2.274,7.471l-9.311-1.516l-6.28,2.815c-2.382,1.155-4.295,2.274-5.738,3.356
					c-0.505,1.732-0.577,2.598-0.217,2.598c0.433,0,0.686-0.866,0.758-2.598l5.847-3.032c2.31-1.227,4.331-2.093,6.063-2.598
					l4.223,0.974l4.114,1.083c0.505,1.732,0.577,3.356,0.217,4.872l-1.732,3.898l1.299-1.624
					C107.573,33.321,108.186,32.997,108.908,32.925 M104.686,28.81c-4.908,0-9.564,1.047-13.967,3.14L104.686,28.81"/>
				<path class="st0" d="M114.322,222.505c0.65-2.959,1.768-4.656,3.356-5.089c-1.155,0.866-1.985,2.635-2.49,5.305l-1.624,6.171
					L114.322,222.505"/>
				<path class="st0" d="M108.367,57.935l-5.197,3.356c2.382-2.887,5.486-5.233,9.311-7.038L108.367,57.935"/>
				<path class="st0" d="M114.105,176.382c-1.588,0.65-3.356,2.201-5.305,4.656c-2.31,2.959-3.501,5.919-3.573,8.878
					c-0.289-2.959,0.433-5.738,2.165-8.337C109.125,178.981,111.362,177.248,114.105,176.382"/>
				<path class="st0" d="M107.284,106.765c0.361,8.734,0.036,12.704-0.974,11.91l0.65-5.955L107.284,106.765"/>
				<path class="st0" d="M101.546,172.809c0.144,1.083,0.794,2.995,1.949,5.738c0.938,2.31,1.335,4.367,1.191,6.171l-1.516,8.012
					c-0.866,3.392-1.227,6.244-1.083,8.553c-0.217-1.516,0.18-6.171,1.191-13.967c0.794-5.991,0.072-10.322-2.165-12.992
					c-0.072-2.671,0.072-5.63,0.433-8.878l1.083-8.229c0.361,1.299,0.253,3.753-0.325,7.362
					C101.654,168.479,101.401,171.221,101.546,172.809"/>
				<path class="st0" d="M90.719,31.95c4.403-2.093,9.059-3.14,13.967-3.14L90.719,31.95"/>
				<path class="st0" d="M102.087,62.049l1.083-0.758l-1.408,2.057L102.087,62.049"/>
				<path class="st0" d="M102.087,137.405c0.433,0.361,0.253,0.938-0.541,1.732c-0.866,0.866-1.191,1.696-0.974,2.49
					c-0.722-0.722-0.758-1.48-0.108-2.274L102.087,137.405"/>
				<path class="st0" d="M101.113,95.829v3.681l-1.624-8.12c-0.505-3.104-0.686-6.135-0.541-9.095l0.866,6.388
					C100.102,92.293,100.535,94.675,101.113,95.829"/>
				<path class="st0" d="M99.489,104.166c0.65,0.505,0.83,1.299,0.541,2.382c-0.433,1.516-0.614,2.454-0.541,2.815
					c-0.505-0.433-0.577-1.191-0.217-2.274C99.633,105.79,99.705,104.816,99.489,104.166"/>
				<path class="st0" d="M101.762,63.348c-1.588,6.496-2.526,11.08-2.815,13.75l-0.217,0.866l-0.217-0.866
					C98.442,71.685,99.525,67.102,101.762,63.348"/>
				<path class="st0" d="M94.833,200.851c-0.65,1.877-1.841,3.898-3.573,6.063l-4.223,5.305c0.144-1.227,1.263-2.959,3.356-5.197
					c2.238-2.31,3.537-4.223,3.898-5.738l0.217-5.305l-0.217-5.522c0.217-4.836,0.902-11.729,2.057-20.68l2.165-19.38
					c0.144,5.341-0.469,13.75-1.841,25.227C95.374,187.173,94.761,195.582,94.833,200.851"/>
				<path class="st0" d="M89.636,52.197l0.541,3.14c0.072,0.361,0.289,0.361,0.65,0l0.758-1.408c-0.794,3.392-0.794,9.239,0,17.54
					c1.011,9.889,1.408,16.818,1.191,20.788c-0.866-3.104-1.371-7.398-1.516-12.884l-0.541-13.101
					c-1.011-3.753-1.552-6.532-1.624-8.337L89.636,52.197"/>
				<path class="st0" d="M92.234,97.345c0.144,3.97-1.047,8.481-3.573,13.534c-2.671,5.197-4.078,9.023-4.223,11.477
					c-0.722-1.732,0.289-5.269,3.032-10.61c3.104-5.991,4.511-10.791,4.223-14.4v-2.598c-0.072-1.083,0.108-1.768,0.541-2.057
					V97.345"/>
				<path class="st0" d="M98.947,208.105c-6.352,7.146-12.92,13.534-19.705,19.164c0.794,4.331,1.155,8.662,1.083,12.992
					c-0.289,1.877-0.469,1.047-0.541-2.49l-0.541-5.197l-0.541-5.305l10.286-9.528L98.947,208.105"/>
				<path class="st0" d="M90.177,147.799c-0.072-0.65,0.036-0.902,0.325-0.758l0.217,0.758l-3.14,14.508l1.732,16.024
					c0.722,6.352,1.011,11.585,0.866,15.699l-1.408,6.604c0.433-3.609,0.108-12.451-0.974-26.526
					C86.929,162.704,87.723,153.934,90.177,147.799"/>
				<path class="st0" d="M88.012,40.72c0,2.382,0.541,6.135,1.624,11.26l-1.299-3.032l-1.299-3.032
					c-0.289-2.238-0.18-4.403,0.325-6.496L88.012,40.72"/>
				<path class="st0" d="M88.662,35.848c-0.289,0.866-0.505,2.238-0.65,4.114l-0.65-0.541
					C87.723,37.977,88.156,36.786,88.662,35.848"/>
				<path class="st0" d="M82.923,21.556h2.598c-0.577,0.577-1.444,0.794-2.598,0.65V21.556"/>
				<path class="st0" d="M84.98,134.265c-0.433,0.289-0.614-0.505-0.541-2.382v-4.331c0.433-0.289,0.65,0.505,0.65,2.382
					L84.98,134.265"/>
				<path class="st0" d="M82.923,22.206c0.144,2.959,0.577,5.955,1.299,8.986c0.722,3.32,1.66,5.919,2.815,7.795l-3.898-6.171
					c-1.444-2.887-1.877-5.45-1.299-7.687c-0.65-0.289-1.408,0.253-2.274,1.624c-0.866,1.444-0.974,2.635-0.325,3.573
					c-1.227-1.444-1.299-2.887-0.217-4.331l3.356-3.789H82.923"/>
				<path class="st0" d="M82.923,22.206h-0.541l0.325-0.758l0.217,0.108V22.206"/>
				<path class="st0" d="M80.325,31.409l0.217-0.217l-2.815,2.274l-0.541,3.14v4.114l-0.108,1.841
					c-0.289,0.577-0.433,0.325-0.433-0.758l-0.325-8.012c-0.505-3.753-0.758-6.28-0.758-7.579c0.722-0.072,1.083,2.165,1.083,6.713
					c0.361,0.433,0.866,0.325,1.516-0.325C79.026,31.734,79.747,31.337,80.325,31.409"/>
				<path class="st0" d="M77.726,114.019c0.794,2.887,1.119,8.084,0.974,15.591C78.051,125.495,77.726,120.298,77.726,114.019"/>
				<path class="st0" d="M82.382,66.272c-1.877,2.887-3.176,8.12-3.898,15.699l-1.299,19.597c0-9.961,0.108-16.385,0.325-19.272
					C78.159,74.717,79.783,69.375,82.382,66.272"/>
				<path class="st0" d="M77.185,43.86l1.841,6.929c0.577,3.609-0.036,5.991-1.841,7.146c1.299-1.588,1.696-3.789,1.191-6.604
					L77.185,43.86"/>
				<path class="st0" d="M73.504,94.855l-0.758-12.451c-0.433-5.847-0.361-10.358,0.217-13.534
					c-0.289,2.959-0.036,8.589,0.758,16.89c0.65,8.012,0.758,13.967,0.325,17.865c0,2.526-0.18,3.392-0.541,2.598V94.855"/>
				<path class="st0" d="M73.504,114.56c0.433,0.361,0.65,1.191,0.65,2.49l-0.108,3.248c-1.155,2.165-2.707,5.955-4.656,11.368
					v4.223c-0.722-2.887-0.144-6.352,1.732-10.394C73.143,121.237,73.937,117.592,73.504,114.56"/>
				<path class="st0" d="M72.205,227.594c2.238-7.507,6.677-12.09,13.317-13.75c-6.135,2.382-10.25,7.001-12.343,13.859
					c-1.804,5.702-2.382,13.714-1.732,24.036C70.003,241.994,70.256,233.946,72.205,227.594"/>
				<path class="st0" d="M68.848,88.575c-0.433,0.072-0.614-0.974-0.541-3.14v-5.197c0.433-0.072,0.65,1.011,0.65,3.248
					L68.848,88.575"/>
				<path class="st0" d="M67.765,71.902c0.433-0.433,0.65,0.108,0.65,1.624l-0.108,3.573c-0.361,0.505-0.541-0.036-0.541-1.624
					V71.902"/>
				<path class="st0" d="M77.726,130.151c-8.084,10.394-11.549,30.316-10.394,59.765C64.806,161.477,68.271,141.555,77.726,130.151"
					/>
				<path class="st1" d="M65.167,254.337l-1.083,4.331c-0.577,1.444-1.408,2.418-2.49,2.923l-9.203-0.65
					c-3.97-0.144-6.785-0.614-8.445-1.408c-0.794-4.331,0.325-7.687,3.356-10.069c2.743-2.238,6.099-3.032,10.069-2.382
					c1.877,0.289,3.465,1.299,4.764,3.032L65.167,254.337"/>
				<path class="st0" d="M63.11,234.632c0.361-0.505,0.541,0.036,0.541,1.624v3.573c-0.361,0.433-0.541-0.108-0.541-1.624V234.632"
					/>
				<path class="st0" d="M60.836,133.183l-0.65,1.083c0.217-1.949-1.047-2.815-3.789-2.598c-2.743,0.217-4.836,2.454-6.28,6.713
					c-1.299,3.826-1.624,7.471-0.974,10.935c3.609-0.072,6.099-1.588,7.471-4.547l2.382-8.878c0.289,2.815-0.144,5.594-1.299,8.337
					c-1.299,2.959-3.14,4.836-5.522,5.63l-2.274,0.325c-1.083,0.144-1.732,0.505-1.949,1.083c-0.217-5.63,0.397-10.286,1.841-13.967
					c2.238-5.413,5.991-7.29,11.26-5.63L60.836,133.183"/>
				<path class="st0" d="M68.307,196.629c-2.743,2.959-4.764,6.532-6.063,10.719c-1.66,5.269-1.696,10.538-0.108,15.807
					c-2.021-4.764-2.31-9.889-0.866-15.374C62.568,202.511,64.914,198.794,68.307,196.629"/>
				<path class="st0" d="M53.257,141.628c-0.722,0-0.577-0.758,0.433-2.274c1.011-1.516,2.093-2.165,3.248-1.949l-2.274,1.732
					C53.726,139.787,53.257,140.617,53.257,141.628"/>
				<path class="st0" d="M54.773,196.629c-0.217,0.65-0.433,0.108-0.65-1.624l-0.325-3.573v-10.719v-10.502
					c0.433,1.949,0.614,6.135,0.541,12.559C54.268,189.555,54.412,194.175,54.773,196.629"/>
				<path class="st0" d="M50.659,242.427c-0.433,0.289-0.614-0.541-0.541-2.49v-4.331c0.433-0.289,0.65,0.541,0.65,2.49
					L50.659,242.427"/>
				<path class="st0" d="M52.066,206.698c-0.505,0.577-1.083,2.201-1.732,4.872c-0.722,3.032-1.119,5.702-1.191,8.012l0.325,5.197
					c0.072,1.227-0.036,0.866-0.325-1.083c-0.505-3.176-0.541-6.352-0.108-9.528C49.612,210.704,50.623,208.214,52.066,206.698"/>
				<path class="st0" d="M49.576,228.352c0.433-0.361,0.65,0.289,0.65,1.949l-0.108,3.789c-0.361,0.361-0.541-0.289-0.541-1.949
					V228.352"/>
				<path class="st0" d="M46.545,169.128c0.361-0.577,0.541-0.217,0.541,1.083l-0.108,3.032c-0.361,0.577-0.541,0.217-0.541-1.083
					L46.545,169.128"/>
				<path class="st0" d="M46.003,187.318c-0.433,0.289-0.614-0.505-0.541-2.382v-4.331c0.433-0.289,0.65,0.505,0.65,2.382
					L46.003,187.318"/>
				<path class="st0" d="M45.462,199.227c0.361-0.361,0.541,0.289,0.541,1.949v3.789c-0.433,0.361-0.614-0.289-0.541-1.949V199.227"
					/>
				<path class="st0" d="M41.348,217.417c-0.866,5.702-1.408,7.435-1.624,5.197l0.758-2.923
					C40.554,218.969,40.842,218.211,41.348,217.417"/>
				<path class="st1" d="M33.985,196.196c-1.227,2.238-1.335,5.305-0.325,9.203c1.371,5.197,2.021,8.878,1.949,11.044l-3.032,3.14
					c-1.155,1.299-1.877,2.671-2.165,4.114l-12.992-0.541l2.598-5.847l2.057-6.063l-0.108-2.382
					c-0.144-1.011-0.108-1.768,0.108-2.274c0.722-2.238,2.562-4.15,5.522-5.738L33.985,196.196"/>
				<path class="st2" d="M29.33,224.238c0.866,2.021,1.227,4.656,1.083,7.904l-0.541,8.662l-5.522-1.732l-6.388-0.866
					c-0.289-1.516-0.361-3.862-0.217-7.038c0.144-3.248,0.036-5.738-0.325-7.471l5.63,0.866L29.33,224.238"/>
			</g>
		</g>
	</g>
	<path class="st3" d="M101.653,10.837c0.722-0.217,1.263-0.036,1.624,0.541l1.299,0.866c0.65,11.188,4.728,21.762,12.235,31.723
		l0.758,0.325l1.408-0.325c-0.794,5.414-0.361,12.74,1.299,21.979c1.732,9.456,2.238,17.251,1.516,23.386
		c-0.361,3.104-1.805,7.11-4.331,12.018c-2.598,4.98-4.042,8.662-4.331,11.044c-0.361,3.176,0.361,7.326,2.165,12.451l4.331,12.776
		l1.841,9.636c1.011,3.032,3.068,4.872,6.171,5.522v4.331c0.866,0,1.552-0.505,2.057-1.516c0.505-1.155,1.011-1.841,1.516-2.057
		c8.517-1.371,18.117-4.475,28.8-9.311c14.292-6.568,23.206-10.43,26.743-11.585c1.227,0.217,2.671,0.938,4.331,2.165
		c1.732,1.227,3.176,1.949,4.331,2.165c0.65,2.526,0.217,5.269-1.299,8.229l-3.032,6.929c-0.577,3.681,0.469,7.976,3.14,12.884
		c3.248,5.991,5.053,10.105,5.414,12.343c-4.114,6.135-9.961,13.462-17.54,21.979l-18.406,21.221
		c-0.217,1.083-0.144,2.201,0.217,3.356c0.433,1.227,0.577,2.274,0.433,3.14c-3.681,4.836-9.816,10.683-18.406,17.54
		c-9.239,7.435-15.591,13.137-19.056,17.107l-21.437,6.28c-8.589,2.382-16.096,3.176-22.52,2.382l-0.433-2.49
		c-0.433-0.866-0.541-1.732-0.325-2.598c-3.104,1.01-7.832,0.938-14.183-0.217c-5.991-1.155-10.863-2.779-14.616-4.872l2.274-5.955
		c0.722-2.165,0.686-4.475-0.108-6.929c4.692-0.289,8.77,1.877,12.235,6.496c3.609,4.98,7.218,7.615,10.827,7.904
		c-1.588-2.31-2.346-6.388-2.274-12.235c0.072-3.465,0.577-8.77,1.516-15.916c0.505-3.681,1.877-7.001,4.114-9.961l6.713-8.012
		c0.794-1.011,0.974-2.779,0.541-5.305l-1.299-7.038l-0.541-36.162c-0.072-15.302-1.335-25.84-3.789-31.615
		c-1.588-9.023-0.144-17.323,4.331-24.902l5.63-8.986c1.949-3.609,3.212-7.182,3.789-10.719l4.547,2.707
		c2.238,1.444,4.078,1.011,5.522-1.299l-0.866-8.553c-0.433-3.248-0.361-6.171,0.217-8.77c0.433-1.805,1.949-4.186,4.547-7.146
		c2.165-2.454,3.032-4.403,2.598-5.847c-1.155-3.97-4.042-4.259-8.662-0.866c-4.692,3.392-6.857,7.074-6.496,11.044
		c-1.949-5.702-1.119-10.719,2.49-15.05l4.764-5.197c1.805-2.021,2.995-3.934,3.573-5.738c-0.072-1.083-0.938-1.768-2.598-2.057
		l-3.898-0.866l-5.522-9.528c-2.382-3.609-5.341-5.702-8.878-6.28c0.072-1.083,0.866-1.841,2.382-2.274l3.356-1.408l1.949-7.362
		c0.794-2.959,2.093-4.8,3.898-5.522H101.653 M97.322,258.776l4.98-7.254c1.877-2.887,3.104-5.738,3.681-8.553
		c-3.681-1.011-7.868,0.83-12.559,5.522c-4.62,4.547-6.929,8.95-6.929,13.209c0,2.815,0.794,4.908,2.382,6.28
		c1.371,1.227,2.995,1.624,4.872,1.191c1.877-0.433,3.176-1.516,3.898-3.248C98.586,263.901,98.477,261.519,97.322,258.776"/>
	<g transform="matrix(1.0, 0.0, 0.0, 1.0, 6.05, 88.35)" class="st4">
		<g id="sprite1" transform="matrix(1.0, 0.0, 0.0, 1.0, 0.0, 0.0)">
			<g transform="matrix(1.0, 0.0, 0.0, 1.0, 0.0, 0.0)">
				<g id="shape2" transform="matrix(1.0, 0.0, 0.0, 1.0, 0.0, 0.0)">
					<path class="st5" d="M35.284,198.253h2.165c0,4.114,0.902,11.874,2.707,23.278c1.444,9.456,1.768,16.818,0.974,22.087
						l-4.331-1.624l-5.089,0.217l-0.974-2.274c-0.433-0.794-1.083-1.227-1.949-1.299c-0.072-1.732,0.072-4.15,0.433-7.254
						l0.325-7.254c3.032-2.093,4.728-6.027,5.089-11.801C34.49,205.687,34.706,200.996,35.284,198.253"/>
				</g>
			</g>
		</g>
	</g>
</g>
</svg>
