<?xml version="1.0" encoding="utf-8"?>
<!-- Generator: Adobe Illustrator 24.0.1, SVG Export Plug-In . SVG Version: 6.00 Build 0)  -->
<svg version="1.1" id="Camada_1" xmlns="http://www.w3.org/2000/svg" xmlns:xlink="http://www.w3.org/1999/xlink" x="0px" y="0px"
	 viewBox="0 0 216.522 136.968" style="enable-background:new 0 0 216.522 136.968;" xml:space="preserve">
<style type="text/css">
	.st0{fill-rule:evenodd;clip-rule:evenodd;fill:#9FA6C4;}
	.st1{fill-rule:evenodd;clip-rule:evenodd;fill:#7F7F87;}
	.st2{fill-rule:evenodd;clip-rule:evenodd;fill:#878791;}
	.st3{fill-rule:evenodd;clip-rule:evenodd;fill:#9393A0;}
	.st4{fill-rule:evenodd;clip-rule:evenodd;fill:#9A9AA5;}
	.st5{fill-rule:evenodd;clip-rule:evenodd;fill:#9696B5;}
	.st6{fill-rule:evenodd;clip-rule:evenodd;fill:#A2A2BC;}
	.st7{fill-rule:evenodd;clip-rule:evenodd;fill:#79797F;}
	.st8{fill:none;stroke:#7F7F87;stroke-width:0.3;stroke-linecap:round;}
	.st9{fill:none;stroke:#A3A3C9;stroke-width:0.25;stroke-linecap:round;}
	.st10{fill:none;stroke:#7F7F87;stroke-width:0.5;stroke-linecap:round;}
	.st11{fill:none;stroke:#7F7F87;stroke-width:0.25;stroke-linecap:round;}
	.st12{fill:none;stroke:#7F7F87;stroke-width:0.45;stroke-linecap:round;}
	.st13{fill:none;stroke:#7F7F87;stroke-width:0.55;stroke-linecap:round;}
	.st14{fill:none;stroke:#7F7F87;stroke-width:0.35;stroke-linecap:round;}
	.st15{fill:none;stroke:#7F7F87;stroke-width:0.4;stroke-linecap:round;}
	.st16{fill:none;stroke:#9A9AC1;}
	.st17{fill:none;stroke:#A3A3CC;}
	.st18{fill:none;stroke:#A7A7CE;}
	.st19{fill:none;stroke:#9393B2;}
	.st20{opacity:0.21;fill-rule:evenodd;clip-rule:evenodd;fill:#18124A;}
	.st21{fill-rule:evenodd;clip-rule:evenodd;fill:#18124A;}
</style>
<g transform="matrix(1.0, 0.0, 0.0, 1.0, 0.0, 0.0)">
	<g transform="matrix(1.0, 0.0, 0.0, 1.0, 0.0, 0.0)">
		<g id="shape0" transform="matrix(1.0, 0.0, 0.0, 1.0, 0.0, 0.0)">
			<path class="st0" d="M207.904,50.903c0.067-0.433-0.15-0.833-0.65-1.2c-0.6-0.433-0.95-0.833-1.05-1.2c0.233-2.5,0.233-4.1,0-4.8
				c-0.467-1.5-1.533-2.567-3.2-3.2c-1.767-0.667-3.25-0.4-4.45,0.8c-0.367-0.233-0.75-0.733-1.15-1.5
				c-0.367-0.733-0.783-1.2-1.25-1.4c-0.8-0.333-1.817-0.333-3.05,0l-3.2,0.75c-1.267-1.6-2.067-3.283-2.4-5.05l-0.65-0.95l-0.8-1.2
				c-0.133-0.4-0.167-0.85-0.1-1.35l-0.15-0.85c-0.633-0.967-1.7-1.45-3.2-1.45s-2.75,0.483-3.75,1.45l-2.25-0.15l-1.8,0.15
				c-0.033-0.4,0.167-0.667,0.6-0.8l1.05-0.4c-0.233-1.133-1.167-2.1-2.8-2.9c-1.767-0.833-2.833-1.783-3.2-2.85l-1.15-0.15l-1-0.1
				c-0.033-2.033-1.267-3.317-3.7-3.85c-2.333-0.533-4.217-0.117-5.65,1.25c-1.467-0.767-2.617-1.283-3.45-1.55l-4,0.1
				c-1-1.667-2.033-2.817-3.1-3.45c-1.233-0.767-2.767-0.983-4.6-0.65c-0.267,0.067-0.75,0.3-1.45,0.7
				c-0.6,0.367-1.067,0.533-1.4,0.5c-0.633-0.067-1.45-0.633-2.45-1.7c-0.833-0.933-1.7-1.25-2.6-0.95
				c0.367-1.6-1.083-2.55-4.35-2.85c-0.133-1.4-0.967-2.417-2.5-3.05l-4.65-0.3c-0.6,0.133-1.25,0.567-1.95,1.3
				c-0.667,0.7-1.217,1.067-1.65,1.1c-1.733-0.9-3.5-1-5.3-0.3c-1.9,0.767-2.867,2.067-2.9,3.9c-1.833,0.7-3.1,2.133-3.8,4.3
				c-0.233-0.7-0.083-1.5,0.45-2.4c0.2-0.333,0.783-0.783,1.75-1.35c0.833-0.467,1.3-0.983,1.4-1.55c-0.2-0.367-0.65-0.433-1.35-0.2
				l-1.55,0.7c-0.333-0.867-0.983-1.367-1.95-1.5l-3.1-0.2l-1.8-1.2c-0.7-0.6-1.383-0.75-2.05-0.45c-0.367,0.733-0.217,1.4,0.45,2
				c0.9,0.8,1.4,1.417,1.5,1.85c-0.4-0.633-1.283-1.283-2.65-1.95c0.567-2.467-0.6-3.967-3.5-4.5c-2.733-0.5-4.933-0.033-6.6,1.4
				l-2-0.4l-2.05-0.1c-0.467,0.067-1.067,0.35-1.8,0.85l-1.55,0.85h-2.55l-2.3,0.25c-0.733,0.3-1.417,0.85-2.05,1.65l-1.75,2.15
				l-2-0.9c-0.767-0.367-1.617-0.467-2.55-0.3c-0.7-1.233-2.117-1.85-4.25-1.85c-2.067-0.033-3.533,0.517-4.4,1.65
				c-0.033,0.233,0.083,0.683,0.35,1.35c0.167,0.5,0.133,0.917-0.1,1.25c1.767,0.967,2.4,1.45,1.9,1.45l-1.1-0.7l-1.3-0.5
				c0.233-0.633,0.233-1.267,0-1.9c-1.833-1.467-3.917-1.617-6.25-0.45c-2.367,1.167-3.483,2.917-3.35,5.25
				c-2.1,0.3-3.183,1.4-3.25,3.3c-0.033,0.933,0.183,1.717,0.65,2.35c-0.9-0.967-1.8-1.417-2.7-1.35c0-0.2,0.15-0.283,0.45-0.25
				h0.75c0.1-0.633-0.067-1.183-0.5-1.65c-0.367-0.433-0.833-0.683-1.4-0.75c-0.367-0.033-0.7,0.083-1,0.35l-0.9,0.65l-2.05,0.4
				c-0.667,0.1-1.15,0.317-1.45,0.65c-0.167-0.633-0.05-1.067,0.35-1.3l2.35-0.85c1.2-0.4,2.017-0.6,2.45-0.6
				c0.4,0,0.85,0.117,1.35,0.35l1.3,0.6c0.333-0.933,1.217-1.65,2.65-2.15c0.233-2.433,1.4-4.283,3.5-5.55
				c2.133-1.3,4.4-1.45,6.8-0.45c1.433-1.467,3.117-2.183,5.05-2.15c1.133,0,2.583,0.433,4.35,1.3l3.8,1.8l2.5-2.55
				c1.033-0.933,2.05-1.6,3.05-2c1.3,0.6,3.083,0.467,5.35-0.4c2.233-0.9,4.033-1,5.4-0.3c3.133-1.567,5.867-1.967,8.2-1.2
				c0.433,0.133,0.917,0.517,1.45,1.15l1.4,1.25l1.05,0.1l1.15,0.1l1.2,0.8l0.95,0.65l2.85,0.35c1,0.133,1.8,0.5,2.4,1.1
				c0.3-0.3,0.583-0.483,0.85-0.55l1.1,0.05c0.633-1.3,1.817-2.2,3.55-2.7c1.7-0.5,3.467-0.467,5.3,0.1
				c1.2-1.7,3.317-2.417,6.35-2.15c3.1,0.267,4.833,1.45,5.2,3.55l1.75,0.4l1.6,0.6c0.433,0.833,1.2,1.583,2.3,2.25
				c1.467,0.833,2.467,1.517,3,2.05c1.767-1.333,3.833-1.633,6.2-0.9c2.233,0.7,3.75,1.967,4.55,3.8c2.133-0.733,4.467-0.267,7,1.4
				c1.533-1.433,3.617-1.783,6.25-1.05c2.667,0.733,3.933,2.05,3.8,3.95c0.9-0.133,1.683,0.083,2.35,0.65l1.5,1.5l2.9,1.95
				c1.067,0.8,1.783,1.75,2.15,2.85c2.1-0.767,3.617-1.217,4.55-1.35c1.667-0.167,2.95,0.283,3.85,1.35
				c0.6,0.733,1.25,2.383,1.95,4.95c0.6,2.3,1.383,3.767,2.35,4.4c1.4-0.833,3-1.083,4.8-0.75c1.933,0.333,3.067,1.233,3.4,2.7
				c2.533-1.6,4.817-1.267,6.85,1c1.967,2.167,2.483,4.633,1.55,7.4l4.2,2.75c1.833,1.033,2.983,2.2,3.45,3.5v1.4
				c-0.167-0.033-0.25,0.117-0.25,0.45c0,0.333-0.15,0.433-0.45,0.3c-0.333-0.1-0.467-0.35-0.4-0.75l0.15-0.95
				c-0.267-1.1-1.017-2.05-2.25-2.85C210.588,51.619,209.338,51.136,207.904,50.903"/>
			<path class="st1" d="M206.454,64.553c0.167,0.233,0.717,0.533,1.65,0.9c0.733,0.3,1.15,0.733,1.25,1.3l-1.2-0.95
				c-0.667-0.533-1.317-0.783-1.95-0.75c0.233-1.333-0.1-2.417-1-3.25c-0.867-0.8-2.05-1.233-3.55-1.3
				c1.033-0.267,2.133-0.083,3.3,0.55C206.388,61.819,206.888,62.986,206.454,64.553"/>
			<path class="st2" d="M194.554,74.853c1.2,3.033,2.283,4.967,3.25,5.8c0.033,0.333-0.167,0.633-0.6,0.9
				c-0.433,0.267-0.633,0.6-0.6,1c1.233,0.967,2.133,2.483,2.7,4.55c0.6,2.133,0.433,3.667-0.5,4.6c-1.667-0.233-3.583,0.433-5.75,2
				c-2.333,1.7-4.1,2.55-5.3,2.55l-2.65-0.45c-1.033-0.167-1.833,0.067-2.4,0.7l-0.35-0.15l-0.15,0.4
				c-0.6-0.333-1.167-0.517-1.7-0.55l-2.35-0.2c-0.3,0.1-0.483,0.317-0.55,0.65c-0.033,0.233-0.167,0.267-0.4,0.1
				c-0.733-0.9-1.5-1.55-2.3-1.95c-1.033-0.467-2.267-0.617-3.7-0.45c-1-1.333-2.683-1.983-5.05-1.95l0.15,0.5l0.1,0.45l-0.4-0.45
				c-0.1-0.233-0.3-0.317-0.6-0.25c-0.267,0.633-0.783,1.283-1.55,1.95l-1.8,1.65c-0.833,0.3-1.683,0.167-2.55-0.4l-2.25-1.3
				l-1.8-0.15l-1.8-0.05c-1.167,0.067-2.25,0.567-3.25,1.5l-2.5,2.8c-3.1-0.5-5.567-0.483-7.4,0.05c-2.467,0.7-3.6,2.283-3.4,4.75
				l-2.4-1.4c-0.967-0.467-1.933-0.633-2.9-0.5c-0.4,0.033-0.95,0.283-1.65,0.75l-1.7,0.65l-0.25-1.4l-0.45-1.2
				c-1.033-0.633-1.85-1.067-2.45-1.3c-1-0.467-2.117-0.6-3.35-0.4c-1.033-1.267-2.55-2.133-4.55-2.6c-2.2-0.5-4.117-0.267-5.75,0.7
				c-0.233,0.167-0.183,0.45,0.15,0.85c0.333,0.367,0.367,0.633,0.1,0.8c-0.7-0.867-2.617-1.267-5.75-1.2c-0.9-0.7-2.1-1.1-3.6-1.2
				c-0.567-1.233-1.783-1.683-3.65-1.35c-1.5,0.233-2.767,0.767-3.8,1.6c-1.067-0.8-2.283-1.233-3.65-1.3
				c-1.367-0.067-2.567,0.25-3.6,0.95c0.333-1.433,0.233-3.35-0.3-5.75l-1.35-5.9l-1.7,0.1l-1.4,0.4
				c-0.933-0.933-2.417-1.717-4.45-2.35l-4.7-1.75c-0.233-2.333-1.033-3.7-2.4-4.1l0.1,0.2c0.233,0.333,0.133,0.35-0.3,0.05
				c-0.333-0.633-0.9-0.95-1.7-0.95l-0.25-0.5h0.25v-0.2h0.5l0.85-3.75c0.267-1.733,0.533-2.967,0.8-3.7l-1.2,7.2
				c0.5,0.6,1.617,1.483,3.35,2.65c0.1-0.667,0.017-2.5-0.25-5.5c-0.167-1.933,0.25-3.233,1.25-3.9
				c-0.767,0.833-1.067,2.417-0.9,4.75c0.233,3.267,0.283,5.367,0.15,6.3c1.667,0.3,3.567,0.05,5.7-0.75c2.1-0.8,3.733-1.1,4.9-0.9
				c-1.167,0-2.85,0.4-5.05,1.2c-1.933,0.7-3.783,0.933-5.55,0.7c0.1,0.9,0.567,1.417,1.4,1.55l2.2,0.15
				c0.833,0.233,2.1,0.867,3.8,1.9c1.667,0.833,3.283,1.067,4.85,0.7c-0.2-0.833-0.1-1.567,0.3-2.2l0.9-1.6
				c-0.5-0.4-0.917-1.25-1.25-2.55c-0.4-1.5-0.783-2.5-1.15-3c-0.167-0.233-0.5-0.45-1-0.65c-0.467-0.167-0.767-0.433-0.9-0.8
				c-0.167-0.4-0.25-1.2-0.25-2.4l-0.25-2.85l-0.45-2.9l-0.75-3.1l-3.4,3.5c-1.8,1.933-2.883,2.917-3.25,2.95l3.45-3.4
				c2-1.967,3.067-3.233,3.2-3.8c-0.567-1.467-1.6-2.417-3.1-2.85c-1.467,0.733-2.767,1.95-3.9,3.65c-0.567,0.867-1.433,2.533-2.6,5
				c1.4-4.3,3.4-7.183,6-8.65c-1.867-3.267-5.15-5.75-9.85-7.45h0.25v-0.25c1.4,0.1,2.767,0.5,4.1,1.2l3.35,1.95
				c2.133,4.1,5.333,5.767,9.6,5c0.3,0.133,0.533,0.3,0.7,0.5v0.25l-1.8,0.3l-1.65-0.1l0.65,2.85c0.133,1.1-0.05,2.083-0.55,2.95
				c0.733,1.833,1.217,4.317,1.45,7.45c0.133,0.3,0.533,0.533,1.2,0.7c0.667,0.2,1.067,0.433,1.2,0.7h-0.25v0.25l-0.25,0.5
				c0.133,0.833,0.567,1.767,1.3,2.8l1.35,2.7l5.85,1.25c1.833,0.6,3.167,1.55,4,2.85c1.8,2.8,3.167,4.717,4.1,5.75l1.8,0.55l2,0.4
				c0.1-0.633,0.05-1.217-0.15-1.75l-0.5-1.3c0.167,0.433,0.467,0.567,0.9,0.4c0.533-0.2,0.933-0.2,1.2,0
				c0.133,0.433-0.017,0.7-0.45,0.8c-0.467,0.1-0.717,0.233-0.75,0.4c0.2,0.033,0.3,0.267,0.3,0.7l-0.05,1l7.25,2.7
				c2.933,1.2,5.467,1.983,7.6,2.35c0.633-0.767,1.6-1.333,2.9-1.7l5.2-0.4l9.7-0.3l1.05-1.25c0.433-0.433,0.967-0.667,1.6-0.7
				l-1.3,0.9c-0.5,0.367-0.8,0.8-0.9,1.3c1.167,0.6,2.583,0.983,4.25,1.15l4.35-0.2l-0.2,0.25l0.4-0.3l0.55-0.2l-0.35,0.05
				c1.567-1,3.583-1.483,6.05-1.45c2.6,0,4.467,0.633,5.6,1.9c0.933-0.3,1.8-0.867,2.6-1.7l1.95-2.4l-0.95-3.3
				c-0.4-1.033-0.95-1.767-1.65-2.2c-0.5,0.933-1.433,1.567-2.8,1.9l-4.45,0.25c-0.233,0.233-0.583,0.717-1.05,1.45l-1.1,1.4
				c0.733-1.4,1.45-2.433,2.15-3.1l4.45-0.25c1.8-0.4,2.65-1.033,2.55-1.9c-0.033-0.433-0.633-0.883-1.8-1.35
				c-1.2-0.467-1.883-0.983-2.05-1.55l0.1-0.35l-0.35-0.1c-0.167-1.4-0.25-4.133-0.25-8.2c-1.167-1-1.433-2.333-0.8-4
				c0.633-1.667,1.7-2.567,3.2-2.7v-2.4l0.15-0.1l-0.15-0.15c1.067-0.467,1.967-1.533,2.7-3.2c1-2.3,1.633-3.633,1.9-4l0.1-0.1
				l-0.1-0.15l2.45,0.1c-1.267,0.533-2.217,1.267-2.85,2.2c-0.733,1-1.017,2.167-0.85,3.5l-1.9,1.6c-0.533,0.667-0.7,1.65-0.5,2.95
				c-1.333,0.4-2.317,1.1-2.95,2.1c-0.8,1.2-0.85,2.5-0.15,3.9l0.1,0.35l0.15,0.35c-0.133,2.7,0.1,5.583,0.7,8.65
				c2.2,0.933,3.883,2.217,5.05,3.85l-0.05,0.25h0.3c0.333,0.367,0.567,1.1,0.7,2.2c0.133,1.2,0.3,1.983,0.5,2.35
				c1.867-0.5,3.95,0.133,6.25,1.9c1.2-0.167,2.283-0.017,3.25,0.45l2.25,1.5c0.567-0.433,1.333-0.583,2.3-0.45
				c0.9,0.133,1.567,0.433,2,0.9c0.867-0.567,2.167-0.817,3.9-0.75l4.3,0.05c0.8-1.067,2.15-2.033,4.05-2.9
				c1.033-0.5,2.633-1.217,4.8-2.15l-1.45-5.5c-0.867,0.567-1.983,1.467-3.35,2.7l-3.35,2.8c0.533-0.7,1.6-1.717,3.2-3.05
				c1.5-1.167,2.517-2.233,3.05-3.2c-0.933,0.067-1.867,0.633-2.8,1.7c-0.933,1.033-1.85,1.583-2.75,1.65l-0.2-0.7l2.8-2.95
				l2.7-3.05c-0.467-0.567-0.867-1.367-1.2-2.4l-0.55,0.15l-0.65,0.1l0.1-0.15l-0.1-0.1l0.35-1.6c0.067-0.533-0.05-1.117-0.35-1.75
				L194.554,74.853 M195.404,83.053l-1.95,2.05c-0.9,0.833-1.367,1.517-1.4,2.05c0.633-0.167,1.3-0.667,2-1.5
				c0.7-0.9,1.317-1.45,1.85-1.65C195.838,83.503,195.671,83.186,195.404,83.053 M97.004,83.053c-0.767-0.6-2.083-1.033-3.95-1.3
				c-2.1-0.3-3.583-0.667-4.45-1.1c0.033,0.233-0.133,0.433-0.5,0.6c-0.333,0.133-0.483,0.333-0.45,0.6
				c2.3-0.233,4.2,0.083,5.7,0.95c-2.433-0.667-4.483-0.817-6.15-0.45c0.067,1.367,0.35,3.35,0.85,5.95
				c0.5,2.467,0.767,4.483,0.8,6.05l3.5-0.15c0.633,0.133,1.7,0.5,3.2,1.1c1.633-1.667,3.983-1.917,7.05-0.75
				c3.9,1.5,6.517,2.15,7.85,1.95c0.4-0.067,1-0.333,1.8-0.8c0.8-0.5,1.483-0.8,2.05-0.9c-1.167-0.833-3.45-1.717-6.85-2.65
				c-3.2-0.9-5.4-1.85-6.6-2.85c-0.333-0.433-0.917-1.533-1.75-3.3C98.438,84.603,97.738,83.619,97.004,83.053 M126.504,98.553
				c1.533,0.733,2.5,1.8,2.9,3.2c0.8-0.7,2.1-1.033,3.9-1c1.767,0.033,2.8,0.367,3.1,1c0.467-1.433,1.233-2.567,2.3-3.4
				c1.133-0.9,2.433-1.283,3.9-1.15c0.2,0.033,0.483,0.167,0.85,0.4l0.85,0.35l1.8-0.5c0.767-0.2,1.367-0.117,1.8,0.25l0.65-0.95
				l0.55-1l-5.15,0.15c-1.933-0.8-3.333-1.25-4.2-1.35l-1.45,0.2l-1.45,0.3l-5.75-0.05l-6.25-0.2c-0.367,0.233-0.883,0.633-1.55,1.2
				l-1.55,1.2C123.988,97.669,125.571,98.119,126.504,98.553"/>
			<path class="st3" d="M179.404,90.153c2.967,0.1,6.467-0.367,10.5-1.4l1.55-1.75l0.1,0.35c0.9-0.067,1.817-0.617,2.75-1.65
				c0.933-1.067,1.867-1.633,2.8-1.7c-0.533,0.967-1.55,2.033-3.05,3.2c-1.6,1.333-2.667,2.35-3.2,3.05l3.35-2.8
				c1.367-1.233,2.483-2.133,3.35-2.7l1.45,5.5c-2.167,0.933-3.767,1.65-4.8,2.15c-1.9,0.867-3.25,1.833-4.05,2.9l-4.3-0.05
				c-1.733-0.067-3.033,0.183-3.9,0.75c-0.433-0.467-1.1-0.767-2-0.9c-0.967-0.133-1.733,0.017-2.3,0.45l-2.25-1.5
				c-0.967-0.467-2.05-0.617-3.25-0.45c-2.3-1.767-4.383-2.4-6.25-1.9c-0.2-0.367-0.367-1.15-0.5-2.35
				c-0.133-1.1-0.367-1.833-0.7-2.2h-0.3l5.05-0.2C172.221,88.953,175.538,90.019,179.404,90.153"/>
			<path class="st3" d="M195.654,78.253c0.333,1.033,0.733,1.833,1.2,2.4l-2.7,3.05l-2.8,2.95l0.1,0.35l-1.55,1.75
				c-4.033,1.033-7.533,1.5-10.5,1.4c-3.867-0.133-7.183-1.2-9.95-3.2l-5.05,0.2l0.05-0.25c-1.167-1.633-2.85-2.917-5.05-3.85
				c-0.6-3.067-0.833-5.95-0.7-8.65l-0.15-0.35c1.833,0.867,4.583,2.383,8.25,4.55c3.3,1.567,6.35,1.917,9.15,1.05
				c0.533-0.5,1.167-0.667,1.9-0.5l1.95,0.6c1.8,0.4,3.85,0.383,6.15-0.05l6-1.65l1.3,0.4l1.3-0.1l-0.1,0.15l0.65-0.1
				L195.654,78.253"/>
			<path class="st4" d="M195.404,83.053c0.267,0.133,0.433,0.45,0.5,0.95c-0.533,0.2-1.15,0.75-1.85,1.65
				c-0.7,0.833-1.367,1.333-2,1.5c0.033-0.533,0.5-1.217,1.4-2.05L195.404,83.053"/>
			<path class="st0" d="M193.154,71.703c-1.9-0.867-3.15-1.317-3.75-1.35c0.2-0.567,0.2-1.133,0-1.7
				c-1.4-0.267-2.883-1.867-4.45-4.8c-1.4-2.6-3.2-3.733-5.4-3.4l-0.2-0.9c2.467-0.2,4.367,0.6,5.7,2.4
				c0.767,1.067,1.733,2.817,2.9,5.25c1.5,0.233,2.383,0.883,2.65,1.95c0.2-0.133,0.417,0.083,0.65,0.65
				c0.267,0.6,0.533,0.867,0.8,0.8C192.421,70.703,192.788,71.069,193.154,71.703"/>
			<path class="st0" d="M181.954,64.103c-1.267-0.033-2.7,0.367-4.3,1.2c-0.233,0.933-0.75,1.85-1.55,2.75l-1.75,1.95l2.4-3.7
				c1.1-1.567,2.45-2.467,4.05-2.7c-0.133-0.3-0.467-0.617-1-0.95v-0.45C180.138,62.736,180.854,63.369,181.954,64.103"/>
			<path class="st5" d="M169.004,41.053c0.467-0.7,1.183-1.3,2.15-1.8c1.067-0.6,2.033-0.8,2.9-0.6c-1.333,0.1-2.933,0.9-4.8,2.4
				l-0.5,0.6C168.521,41.853,168.604,41.653,169.004,41.053"/>
			<path class="st4" d="M95.754,53.153c1.033,0.433,2.583,1.383,4.65,2.85c1.933,1.367,3.5,2.25,4.7,2.65
				c1.167,0.4,2.767,0.667,4.8,0.8l4.95,0.5c0.933,0.8,2.25,1.8,3.95,3c2.033,1.433,3.733,2.5,5.1,3.2c2.2,0.4,5.083,0.4,8.65,0
				l8.65-0.8c2.5-2.767,4.25-4.5,5.25-5.2c1.867-1.333,4-1.917,6.4-1.75l12.45-0.9l-0.1,0.1c-0.267,0.367-0.9,1.7-1.9,4
				c-0.733,1.667-1.633,2.733-2.7,3.2l0.15,0.15l-0.15,0.1v2.4c-1.5,0.133-2.567,1.033-3.2,2.7c-0.633,1.667-0.367,3,0.8,4
				c0,4.067,0.083,6.8,0.25,8.2c-2.367-0.6-4.783-0.15-7.25,1.35c-2.867,2.133-5.067,3.617-6.6,4.45c-0.367,1.3-2.067,2.033-5.1,2.2
				l-6.95-0.05l-8.1,0.5c-3.6,0.067-6.067-0.283-7.4-1.05c-1.7-0.967-3.4-1.783-5.1-2.45l-3.8-1.5c-0.8-0.433-1.65-1.267-2.55-2.5
				c-0.967-1.233-2.85-2.383-5.65-3.45l-7.4-2.4c-2.633-0.933-4.667-2.033-6.1-3.3h0.25c-0.133-0.267-0.533-0.5-1.2-0.7
				c-0.667-0.167-1.067-0.4-1.2-0.7c-0.233-3.133-0.717-5.617-1.45-7.45c0.5-0.867,0.683-1.85,0.55-2.95l-0.65-2.85l1.65,0.1
				l1.8-0.3l0.3,0.1l1.3,0.55c-0.7-0.5-1.233-1.267-1.6-2.3c-0.033-0.567-0.2-1.167-0.5-1.8l-0.2-1.6c-1.433-0.967-3.35-2-5.75-3.1
				l-6.1-2.8l-3.6-2c-1.867-1-3.117-1.567-3.75-1.7l-2.8,0.3l-2.7,0.4l-3.3-0.8c-0.633,1.067-3.283,3.967-7.95,8.7l-6.6,6.5
				c-2.167,2.2-3.417,3.733-3.75,4.6l-0.35,1.15c-0.367,0.633-0.583,1.117-0.65,1.45l-6.45,4.6l-1.65-1.4l-1.7-1.25
				c0.367-2.067-0.083-3.583-1.35-4.55l-3.95-1.95c0.067-0.467,0.3-1.167,0.7-2.1c0.367-0.8,0.533-1.45,0.5-1.95
				c-0.033-0.533-0.3-1.1-0.8-1.7c-0.533-0.633-0.833-1.117-0.9-1.45c-0.067-0.333,0.283-1.35,1.05-3.05
				c0.6-1.4,0.533-2.567-0.2-3.5l-0.1-0.15c0.267-0.233,0.767-0.567,1.5-1l0.9-1.15c1.533,1.267,2.417,3.017,2.65,5.25
				c0.3-0.7,0.117-1.717-0.55-3.05c-0.5-1.033-1.133-2.017-1.9-2.95c0.167-0.367,0.267-1.1,0.3-2.2
				c0.067-1.033,0.217-1.733,0.45-2.1l2.5,1.65c1.167,0.7,1.85,1.433,2.05,2.2l0.15,0.6l0.1-0.85c-0.533-0.733-1.317-1.467-2.35-2.2
				l-2.7-1.9l0.5-3.35c3.433-2.367,6.867-4.6,10.3-6.7c-0.767,0.233-1.867,0.783-3.3,1.65l-2.95,1.45c0.2-0.9,0.75-1.667,1.65-2.3
				l2.2-1.55l1.35-2.3l2.6-2.4c1.467,3.167,3.783,5.05,6.95,5.65l4.35,0.55l4.6,1l12.6,4.4c0,3.033,1.55,5.267,4.65,6.7
				c2.567,1.167,5.417,1.533,8.55,1.1c4.367-0.6,8.6-0.15,12.7,1.35l2.1,3.4C95.971,50.753,96.121,51.986,95.754,53.153
				 M92.954,55.953l0.2,0.95c0,0.333-0.233,0.483-0.7,0.45c-0.3-0.067-0.567-0.467-0.8-1.2c-0.067-0.233-0.117,0.1-0.15,1l0.7,0.35
				l1,0.1l0.2-0.95C93.438,56.219,93.288,55.986,92.954,55.953 M95.404,63.803l6.4,3.65c-5.333-3.533-9.833-5.967-13.5-7.3
				L95.404,63.803 M90.304,67.953l-0.6-0.1l-0.35-0.4c-0.133,0.4-0.05,0.633,0.25,0.7h0.95l0.25-0.7l-0.7-0.45
				c-0.367-0.167-0.617-0.1-0.75,0.2l0.65,0.15C90.238,67.486,90.338,67.686,90.304,67.953 M116.054,80.703l-0.5-0.35
				c-0.333,0.1-0.55,0.383-0.65,0.85c-0.067,0.4-0.033,0.783,0.1,1.15l0.8,0.35l0.75-0.25c0.233-0.333,0.233-0.8,0-1.4
				C116.488,80.953,116.321,80.836,116.054,80.703 M153.454,70.653c0-0.433-0.083-0.467-0.25-0.1c-0.167,0.7-0.417,0.767-0.75,0.2
				l-0.5-0.65v0.95l0.6,0.15l0.65,0.1L153.454,70.653 M133.054,71.903c0.2-0.133,0.267-0.333,0.2-0.6l-0.7-0.6
				c-0.467-0.233-0.55-0.2-0.25,0.1l0.45,0.4l0.25,0.55l-0.45,0.35l-0.75,0.15c-0.233,0-0.383-0.2-0.45-0.6s-0.233-0.6-0.5-0.6
				c0.1,1.133,0.75,1.617,1.95,1.45C132.738,72.269,132.821,72.069,133.054,71.903 M146.704,75.353
				c-0.533-0.367-0.967-1.233-1.3-2.6l-0.6-2.65c0,1.167,0.167,2.283,0.5,3.35C145.704,74.586,146.171,75.219,146.704,75.353
				 M55.004,37.453l-0.45,0.25c-0.233,0.1-0.4-0.083-0.5-0.55c-0.067-0.367-0.15-0.433-0.25-0.2l0.15,0.5l0.1,0.5h0.95l0.25-1.05
				c-0.1-0.467-0.333-0.683-0.7-0.65c-0.067,0.267,0.017,0.467,0.25,0.6C55.004,37.019,55.071,37.219,55.004,37.453 M55.754,43.953
				l1.25,0.4l-3.85-1.4l-3.4-0.2L55.754,43.953 M39.404,36.503c0.633,0,1.367,0.4,2.2,1.2c0.8,0.733,1.433,1.05,1.9,0.95l-2.1-1.35
				l-2-1.55l-0.55-2.1l-0.65-1.5c0.067,0.633,0.25,1.383,0.55,2.25L39.404,36.503 M31.954,50.403c1,1.2,2.45,2.367,4.35,3.5
				l4.8,2.75l-5.75-3.7c-2.367-1.533-3.683-3.317-3.95-5.35v1.5C31.438,49.603,31.621,50.036,31.954,50.403 M38.954,42.953l-0.5-0.7
				c0,0.467,0.083,0.783,0.25,0.95c0.433,0.2,0.833,0.083,1.2-0.35c0.6-0.733,0.6-0.85,0-0.35
				C39.771,42.803,39.454,42.953,38.954,42.953 M39.904,48.253l0.45,0.35c0.133,0.233,0.067,0.35-0.2,0.35l-0.05-0.3l-0.2-0.15
				c-0.033,0.367,0.2,0.683,0.7,0.95c0.333-0.2,0.367-0.567,0.1-1.1C40.471,47.853,40.204,47.819,39.904,48.253 M26.704,53.303
				c-1.133,1.433-1.467,2.033-1,1.8C26.171,54.869,26.504,54.269,26.704,53.303"/>
			<path class="st3" d="M92.554,77.453l7.4,2.4c2.8,1.067,4.683,2.217,5.65,3.45c0.9,1.233,1.75,2.067,2.55,2.5l3.8,1.5
				c1.7,0.667,3.4,1.483,5.1,2.45c1.333,0.767,3.8,1.117,7.4,1.05l8.1-0.5l6.95,0.05c3.033-0.167,4.733-0.9,5.1-2.2
				c1.533-0.833,3.733-2.317,6.6-4.45c2.6-1.567,5.133-1.983,7.6-1.25l-0.1,0.35c0.167,0.567,0.85,1.083,2.05,1.55
				c1.167,0.467,1.767,0.917,1.8,1.35c0.1,0.867-0.75,1.5-2.55,1.9l-4.45,0.25c-0.7,0.667-1.417,1.7-2.15,3.1l1.1-1.4
				c0.467-0.733,0.817-1.217,1.05-1.45l4.45-0.25c1.367-0.333,2.3-0.967,2.8-1.9c0.7,0.433,1.25,1.167,1.65,2.2l0.95,3.3l-1.95,2.4
				c-0.8,0.833-1.667,1.4-2.6,1.7c-1.133-1.267-3-1.9-5.6-1.9c-2.467-0.033-4.483,0.45-6.05,1.45l-0.4,0.2l-4.35,0.2
				c-1.667-0.167-3.083-0.55-4.25-1.15c0.1-0.5,0.4-0.933,0.9-1.3l1.3-0.9c-0.633,0.033-1.167,0.267-1.6,0.7l-1.05,1.25l-9.7,0.3
				c-4.1-0.2-6.8,0.5-8.1,2.1c-2.133-0.367-4.667-1.15-7.6-2.35l-7.25-2.7l0.05-1c0-0.433-0.1-0.667-0.3-0.7
				c0.033-0.167,0.283-0.3,0.75-0.4c0.433-0.1,0.583-0.367,0.45-0.8c-0.267-0.2-0.667-0.2-1.2,0c-0.433,0.167-0.733,0.033-0.9-0.4
				l0.5,1.3c0.2,0.533,0.25,1.117,0.15,1.75l-2-0.4l-1.8-0.55c-0.933-1.033-2.3-2.95-4.1-5.75c-0.833-1.3-2.167-2.25-4-2.85
				l-5.85-1.25l-1.35-2.7c-0.733-1.033-1.167-1.967-1.3-2.8l0.25-0.5v-0.25C87.888,75.419,89.921,76.519,92.554,77.453
				 M148.854,92.053l-4.55-0.1c0.867,0.567,2.333,0.733,4.4,0.5c2.033-0.233,3.533-0.733,4.5-1.5L148.854,92.053"/>
			<path class="st1" d="M153.204,70.553c0.167-0.367,0.25-0.333,0.25,0.1l-0.25,0.65l-0.65-0.1l-0.6-0.15v-0.95l0.5,0.65
				C152.788,71.319,153.038,71.253,153.204,70.553"/>
			<path class="st4" d="M124.854,94.803l6.25,0.2l5.75,0.05l1.45-0.3l1.45-0.2c0.867,0.1,2.267,0.55,4.2,1.35l5.15-0.15l-0.55,1
				l-0.65,0.95c-0.433-0.367-1.033-0.45-1.8-0.25l-1.8,0.5l-0.85-0.35c-0.367-0.233-0.65-0.367-0.85-0.4
				c-1.467-0.133-2.767,0.25-3.9,1.15c-1.067,0.833-1.833,1.967-2.3,3.4c-0.3-0.633-1.333-0.967-3.1-1c-1.8-0.033-3.1,0.3-3.9,1
				c-0.4-1.4-1.367-2.467-2.9-3.2c-0.933-0.433-2.517-0.883-4.75-1.35l1.55-1.2C123.971,95.436,124.488,95.036,124.854,94.803"/>
			<path class="st1" d="M153.204,90.953c-0.967,0.767-2.467,1.267-4.5,1.5c-2.067,0.233-3.533,0.067-4.4-0.5l4.55,0.1
				L153.204,90.953"/>
			<path class="st1" d="M144.804,70.103l0.6,2.65c0.333,1.367,0.767,2.233,1.3,2.6c-0.533-0.133-1-0.767-1.4-1.9
				C144.971,72.386,144.804,71.269,144.804,70.103"/>
			<path class="st1" d="M133.254,71.303c0.067,0.267,0,0.467-0.2,0.6c-0.233,0.167-0.317,0.367-0.25,0.6
				c-1.2,0.167-1.85-0.317-1.95-1.45c0.267,0,0.433,0.2,0.5,0.6s0.217,0.6,0.45,0.6l0.75-0.15l0.45-0.35l-0.25-0.55l-0.45-0.4
				c-0.3-0.3-0.217-0.333,0.25-0.1L133.254,71.303"/>
			<path class="st4" d="M135.304,123.153l-1,1.75l-1.5,1.4l-3,0.35c-1.033,1.5-2.967,2.633-5.8,3.4l-7.35,1.65
				c-5.433,1.533-8.75,1.733-9.95,0.6c0.033-0.167,0.25-0.483,0.65-0.95c1.633,0.133,3.167-0.1,4.6-0.7
				c1.567-0.667,2.733-1.667,3.5-3c2.067,0.7,4.417,0.45,7.05-0.75c1.5-0.667,3.65-1.85,6.45-3.55l3.2,0.1L135.304,123.153"/>
			<path class="st4" d="M128.954,123.353c-2.8,1.7-4.95,2.883-6.45,3.55c-2.633,1.2-4.983,1.45-7.05,0.75l0.3-2.7l2.3-1.75
				c0.833-0.7,1.467-1.4,1.9-2.1c0.767,0.567,1.8,0.683,3.1,0.35l2.95-0.5c0.167,0.6,0.567,1.117,1.2,1.55L128.954,123.353"/>
			<path class="st2" d="M116.554,81.053c0.233,0.6,0.233,1.067,0,1.4l-0.75,0.25l-0.8-0.35c-0.133-0.367-0.167-0.75-0.1-1.15
				c0.1-0.467,0.317-0.75,0.65-0.85l0.5,0.35C116.321,80.836,116.488,80.953,116.554,81.053"/>
			<path class="st1" d="M113.804,109.703l0.95,1.1l0.75,1.3l-1.4-1.7c-0.6-0.7-1.017-1.333-1.25-1.9c-1-0.8-2.183-1.3-3.55-1.5
				c-1.633-0.2-2.767,0.217-3.4,1.25c0.133-1.1,1.133-1.617,3-1.55c1.767,0.033,3.083,0.467,3.95,1.3l0.5,0.85L113.804,109.703"/>
			<path class="st4" d="M100.854,89.303c1.2,1,3.4,1.95,6.6,2.85c3.4,0.933,5.683,1.817,6.85,2.65c-0.567,0.1-1.25,0.4-2.05,0.9
				c-0.8,0.467-1.4,0.733-1.8,0.8c-1.333,0.2-3.95-0.45-7.85-1.95c-3.067-1.167-5.417-0.917-7.05,0.75c-1.5-0.6-2.567-0.967-3.2-1.1
				l-3.5,0.15c-0.033-1.567-0.3-3.583-0.8-6.05c-0.5-2.6-0.783-4.583-0.85-5.95c1.667-0.367,3.717-0.217,6.15,0.45
				c-1.5-0.867-3.4-1.183-5.7-0.95c-0.033-0.267,0.117-0.467,0.45-0.6c0.367-0.167,0.533-0.367,0.5-0.6
				c0.867,0.433,2.35,0.8,4.45,1.1c1.867,0.267,3.183,0.7,3.95,1.3c0.733,0.567,1.433,1.55,2.1,2.95
				C99.938,87.769,100.521,88.869,100.854,89.303 M94.154,83.053l-0.8-0.25l0.95,0.6L94.154,83.053 M97.004,86.653
				c-0.9-1.5-1.8-2.583-2.7-3.25C94.804,84.569,95.704,85.653,97.004,86.653 M111.904,95.053c-4.1-1.3-6.667-2.017-7.7-2.15
				l3.95,1.25L111.904,95.053"/>
			<path class="st1" d="M111.904,95.053l-3.75-0.9l-3.95-1.25C105.238,93.036,107.804,93.753,111.904,95.053"/>
			<path class="st1" d="M88.304,60.153c3.667,1.333,8.167,3.767,13.5,7.3l-6.4-3.65L88.304,60.153"/>
			<path class="st1" d="M94.304,83.403c0.9,0.667,1.8,1.75,2.7,3.25C95.704,85.653,94.804,84.569,94.304,83.403"/>
			<path class="st1" d="M94.154,83.053l0.15,0.35l-0.95-0.6L94.154,83.053"/>
			<path class="st1" d="M92.954,55.953c0.333,0.033,0.483,0.267,0.45,0.7l-0.2,0.95l-1-0.1l-0.7-0.35c0.033-0.9,0.083-1.233,0.15-1
				c0.233,0.733,0.5,1.133,0.8,1.2c0.467,0.033,0.7-0.117,0.7-0.45L92.954,55.953"/>
			<path class="st1" d="M89.354,67.203c0.133-0.3,0.383-0.367,0.75-0.2l0.7,0.45l-0.25,0.7h-0.95c-0.3-0.067-0.383-0.3-0.25-0.7
				l0.35,0.4l0.6,0.1c0.033-0.267-0.067-0.467-0.3-0.6L89.354,67.203"/>
			<path class="st6" d="M87.404,34.803c0.4-2.033-0.883-3.467-3.85-4.3c-0.2-1.067-0.433-1.783-0.7-2.15
				c-0.967-0.967-1.85-1.533-2.65-1.7l-2.1,0.1c-0.667,0.1-0.85-0.017-0.55-0.35h2.9l1.5,0.95l1.4,1l0.45,1.65l2.1,1.3
				c0.867,0.5,1.45,1.033,1.75,1.6L87.404,34.803"/>
			<path class="st1" d="M86.504,59.403l-0.3-0.35v-1.4c0.367,1.033,0.9,1.8,1.6,2.3L86.504,59.403"/>
			<path class="st1" d="M86.204,59.053l0.3,0.35l-0.3-0.1V59.053"/>
			<path class="st7" d="M86.454,83.753c-1.567,0.367-3.183,0.133-4.85-0.7c-1.7-1.033-2.967-1.667-3.8-1.9l-2.2-0.15
				c-0.833-0.133-1.3-0.65-1.4-1.55c1.767,0.233,3.617,0,5.55-0.7c2.2-0.8,3.883-1.2,5.05-1.2c-1.167-0.2-2.8,0.1-4.9,0.9
				c-2.133,0.8-4.033,1.05-5.7,0.75c0.133-0.933,0.083-3.033-0.15-6.3c-0.167-2.333,0.133-3.917,0.9-4.75
				c0.267,0.1,1.367-0.883,3.3-2.95l3.4-3.5l0.75,3.1l0.45,2.9l0.25,2.85c0,1.2,0.083,2,0.25,2.4c0.133,0.367,0.433,0.633,0.9,0.8
				c0.5,0.2,0.833,0.417,1,0.65c0.367,0.5,0.75,1.5,1.15,3c0.333,1.3,0.75,2.15,1.25,2.55l-0.9,1.6
				C86.354,82.186,86.254,82.919,86.454,83.753"/>
			<path class="st2" d="M54.354,52.403c-6.633,4.4-11.533,11.617-14.7,21.65l-0.25-0.1c-0.533,1.233-1.483,2.283-2.85,3.15
				l-4.1,1.85c-0.167-1.133-0.717-2.083-1.65-2.85c0.467-0.433,0.8-1.067,1-1.9c0.233-0.9,0.217-1.717-0.05-2.45l3.4-2.2l3.3-2.35
				l0.4-1.7c1.233-2.133,4.8-6.217,10.7-12.25c5-4.8,7.65-7.7,7.95-8.7l3.05,1.05l2.9-0.4l2.85-0.3l2.4,1.05l3,1.6
				c1,0.6,2.95,1.55,5.85,2.85l5,2.3c1.6,0.867,2.65,1.917,3.15,3.15l0.5,1.8v1.4c-0.167-0.2-0.4-0.367-0.7-0.5
				c-4.267,0.767-7.467-0.9-9.6-5l-3.35-1.95c-1.333-0.7-2.7-1.1-4.1-1.2v0.25c-1.833-1.2-4.167-1.367-7-0.5
				C58.288,51.453,55.921,52.203,54.354,52.403"/>
			<path class="st0" d="M86.254,97.853c-0.5,1.167-0.517,2.467-0.05,3.9c-2.1,1.167-3.533,2.267-4.3,3.3
				c-1.233,1.633-1.55,3.667-0.95,6.1c-1.3,0.433-2.3,1.217-3,2.35c-0.7,1.2-0.9,2.567-0.6,4.1h-0.25v0.25
				c-1.033-1.167-1.05-2.567-0.05-4.2l2.9-3.5c-0.5-2.167-0.083-4.05,1.25-5.65l4.05-3.45c-0.4-0.867-0.467-1.55-0.2-2.05
				C85.188,98.703,85.588,98.319,86.254,97.853"/>
			<path class="st1" d="M85.504,54.253l0.2,1.6c-0.5-1.233-1.55-2.283-3.15-3.15l-5-2.3c-2.9-1.3-4.85-2.25-5.85-2.85
				c0.833,0.433,1.483,0.7,1.95,0.8l6.1,2.8C82.154,52.253,84.071,53.286,85.504,54.253"/>
			<path class="st2" d="M68.204,50.653c4.7,1.7,7.983,4.183,9.85,7.45c-2.6,1.467-4.6,4.35-6,8.65c1.167-2.467,2.033-4.133,2.6-5
				c1.133-1.7,2.433-2.917,3.9-3.65c1.5,0.433,2.533,1.383,3.1,2.85c-0.133,0.567-1.2,1.833-3.2,3.8l-3.5,3.4
				c-1,0.667-1.417,1.967-1.25,3.9c0.267,3,0.35,4.833,0.25,5.5c-1.733-1.167-2.85-2.05-3.35-2.65l1.2-7.2
				c-0.267,0.733-0.533,1.967-0.8,3.7l-0.85,3.75h-0.5v0.2c-1.733-2.367-4.533-3.417-8.4-3.15l-4.8,0.5l-4.55-0.1l-1.5,1.55
				c-0.633,0.6-1.1,1.15-1.4,1.65l-3.9-0.25l-3.9-0.55l0.15-0.35c-0.3-0.367-0.783-0.6-1.45-0.7l-0.25,0.1
				c3.167-10.033,8.067-17.25,14.7-21.65c1.567-0.2,3.933-0.95,7.1-2.25c2.833-0.867,5.167-0.7,7,0.5H68.204 M55.754,67.453
				c-0.133,0.433-0.033,0.733,0.3,0.9c0.333,0.133,0.633,0.067,0.9-0.2C57.021,67.619,56.621,67.386,55.754,67.453"/>
			<path class="st1" d="M60.554,45.603l-3.05-1.05l3.3,0.8l2.7-0.4l2.8-0.3c0.633,0.133,1.883,0.7,3.75,1.7l3.6,2l-3.05-1.55
				l1.1,0.75l-3-1.6l-2.4-1.05l-2.85,0.3L60.554,45.603"/>
			<path class="st1" d="M73.654,48.353c-0.467-0.1-1.117-0.367-1.95-0.8l-1.1-0.75L73.654,48.353"/>
			<path class="st1" d="M60.304,81.603h-2.45c-0.667,0-0.25-0.15,1.25-0.45l0.65,0.2L60.304,81.603"/>
			<path class="st1" d="M57.504,44.553c-0.3,1-2.95,3.9-7.95,8.7C54.221,48.519,56.871,45.619,57.504,44.553"/>
			<path class="st1" d="M55.754,67.453c0.867-0.067,1.267,0.167,1.2,0.7c-0.267,0.267-0.567,0.333-0.9,0.2
				C55.721,68.186,55.621,67.886,55.754,67.453"/>
			<path class="st1" d="M57.004,44.353l-1.25-0.4l-6-1.2l3.4,0.2L57.004,44.353"/>
			<path class="st1" d="M54.804,36.853c-0.233-0.133-0.317-0.333-0.25-0.6c0.367-0.033,0.6,0.183,0.7,0.65l-0.25,1.05h-0.95
				l-0.1-0.5l-0.15-0.5c0.1-0.233,0.183-0.167,0.25,0.2c0.1,0.467,0.267,0.65,0.5,0.55l0.45-0.25
				C55.071,37.219,55.004,37.019,54.804,36.853"/>
			<path class="st1" d="M39.204,64.353c0.333-0.867,1.583-2.4,3.75-4.6l6.6-6.5c-5.9,6.033-9.467,10.117-10.7,12.25L39.204,64.353"
				/>
			<path class="st1" d="M43.504,38.653c-0.467,0.1-1.1-0.217-1.9-0.95c-0.833-0.8-1.567-1.2-2.2-1.2l-0.65-2.1
				c-0.3-0.867-0.483-1.617-0.55-2.25l0.65,1.5l0.55,2.1l2,1.55L43.504,38.653"/>
			<path class="st0" d="M23.654,52.153c-0.767,1.7-1.117,2.717-1.05,3.05c0.067,0.333,0.367,0.817,0.9,1.45
				c0.5,0.6,0.767,1.167,0.8,1.7c0.033,0.5-0.133,1.15-0.5,1.95c-0.4,0.933-0.633,1.633-0.7,2.1l3.95,1.95
				c1.267,0.967,1.717,2.483,1.35,4.55l1.7,1.25l1.65,1.4l6.45-4.6c0.067-0.333,0.283-0.817,0.65-1.45l-0.4,1.7l-3.3,2.35l-3.4,2.2
				c0.267,0.733,0.283,1.55,0.05,2.45c-0.2,0.833-0.533,1.467-1,1.9c0.933,0.767,1.483,1.717,1.65,2.85l4.1-1.85
				c1.367-0.867,2.317-1.917,2.85-3.15l0.25,0.1l0.25-0.1c0.667,0.1,1.15,0.333,1.45,0.7l-0.15,0.35l0.15,0.35
				c-1.5,0.2-2.933,0.8-4.3,1.8c-1.7,1.233-2.983,2-3.85,2.3c0.8,0.267,1.6,0.95,2.4,2.05c0.8,1.133,1.35,2.367,1.65,3.7
				c0.367,1.533,0.317,3.167-0.15,4.9c-0.467,1.767-1.133,2.7-2,2.8v-0.25h-0.25c0.033-0.1,0.15-0.183,0.35-0.25l0.35-0.25
				c-0.133-0.367,0.067-1.317,0.6-2.85c0.467-1.367,0.433-2.333-0.1-2.9c0.067,0.833,0,1.533-0.2,2.1l-0.5,1.75l0.15-2.25l0.05-2.3
				l0.25,0.25l0.25,0.2c0.433-0.8,0.267-1.517-0.5-2.15l0.05,0.75c0.033,0.333-0.05,0.483-0.25,0.45l-0.75-3.85
				c-1.033-0.167-2.2-1.233-3.5-3.2c-1.133-1.667-2.683-2.35-4.65-2.05c-0.2,0.1-0.233,0.267-0.1,0.5
				c0.133,0.2,0.083,0.35-0.15,0.45c-0.533-0.7-1.533-0.85-3-0.45l-3.25,0.45l5-1l5.1-0.2c1.167-1.333,1.267-2.7,0.3-4.1
				c-0.767-1.067-1.9-1.933-3.4-2.6c1.067-1.967,0.6-3.533-1.4-4.7c-2-1.133-3.617-0.85-4.85,0.85
				c-0.267-0.267-0.717-0.433-1.35-0.5l-1.55,0.25l0.25-0.5l2.85-0.05c0.633-0.2,1.2-0.65,1.7-1.35c-0.033-0.3,0.233-1.667,0.8-4.1
				c0.333-1.5-0.167-2.7-1.5-3.6c0-0.7,0.317-1.667,0.95-2.9c0.567-1.033,0.733-2.067,0.5-3.1l-1.65-0.7l1.75-0.1
				C24.188,49.586,24.254,50.753,23.654,52.153 M40.304,75.053c0.367-0.067,0.55-0.2,0.55-0.4l-0.95-0.5l-0.35,0.7
				c-0.2,0.267-0.167,0.433,0.1,0.5C39.688,75.219,39.904,75.119,40.304,75.053"/>
			<path class="st1" d="M39.904,48.253c0.3-0.433,0.567-0.4,0.8,0.1c0.267,0.533,0.233,0.9-0.1,1.1c-0.5-0.267-0.733-0.583-0.7-0.95
				l0.2,0.15l0.05,0.3c0.267,0,0.333-0.117,0.2-0.35L39.904,48.253"/>
			<path class="st2" d="M40.854,74.653c0,0.2-0.183,0.333-0.55,0.4c-0.4,0.067-0.617,0.167-0.65,0.3c-0.267-0.067-0.3-0.233-0.1-0.5
				l0.35-0.7L40.854,74.653"/>
			<path class="st1" d="M39.904,42.503c0.6-0.5,0.6-0.383,0,0.35c-0.367,0.433-0.767,0.55-1.2,0.35
				c-0.167-0.167-0.25-0.483-0.25-0.95l0.5,0.7C39.454,42.953,39.771,42.803,39.904,42.503"/>
			<path class="st4" d="M38.354,24.153l0.45,1.15l-2.6,2.4c0.6-1.7,1.267-2.85,2-3.45L38.354,24.153"/>
			<path class="st1" d="M35.354,52.953l5.75,3.7l-4.8-2.75c-1.9-1.133-3.35-2.3-4.35-3.5c-0.333-0.367-0.517-0.8-0.55-1.3v-1.5
				C31.671,49.636,32.988,51.419,35.354,52.953"/>
			<path class="st0" d="M36.204,27.703l-1.35,2.3l-2.2,1.55c-0.9,0.633-1.45,1.4-1.65,2.3l2.95-1.45
				c1.433-0.867,2.533-1.417,3.3-1.65c-3.433,2.1-6.867,4.333-10.3,6.7l-0.5,3.35l2.7,1.9c1.033,0.733,1.817,1.467,2.35,2.2
				l-0.1,0.85l-0.15-0.6c-0.2-0.767-0.883-1.5-2.05-2.2l-2.5-1.65c-0.233,0.367-0.383,1.067-0.45,2.1
				c-0.033,1.1-0.133,1.833-0.3,2.2c0.767,0.933,1.4,1.917,1.9,2.95c0.667,1.333,0.85,2.35,0.55,3.05
				c-0.233-2.233-1.117-3.983-2.65-5.25l-0.9,1.15c-0.733,0.433-1.233,0.767-1.5,1l0.1,0.15l-1.75,0.1h-0.05l0.25-0.75
				c1.833-0.267,2.983-1.6,3.45-4l0.4-6.55l1.75-1.35c0.7-0.533,1.383-0.883,2.05-1.05c0.367-0.4,0.667-1.067,0.9-2
				c0.267-0.933,0.617-1.633,1.05-2.1c0.167-0.2,0.617-0.45,1.35-0.75c0.733-0.267,1.25-0.567,1.55-0.9L36.204,27.703"/>
			<path class="st1" d="M26.704,53.303c-0.2,0.967-0.533,1.567-1,1.8C25.238,55.336,25.571,54.736,26.704,53.303"/>
			<path class="st4" d="M12.604,88.303l0.1,0.5c-0.233,1.833-0.85,3.117-1.85,3.85l-2.6,0.25l-1.5-1.15l-1.45-1.2l0.65-2.55
				l0.5-0.45C8.488,87.353,10.538,87.603,12.604,88.303"/>
			<path class="st1" d="M11.554,65.753c-0.2,0.6-0.167,1.117,0.1,1.55c0.3,0.567,0.433,1.1,0.4,1.6l-1.7-3.75
				c-0.933-1.233-2.2-1.583-3.8-1.05c0.133-0.567,0.967-0.65,2.5-0.25S11.421,64.886,11.554,65.753"/>
			<path class="st8" d="M115.004,82.353l0.8,0.35l0.75-0.25c0.233-0.333,0.233-0.8,0-1.4c-0.067-0.1-0.233-0.217-0.5-0.35l-0.5-0.35
				c-0.333,0.1-0.55,0.383-0.65,0.85C114.838,81.603,114.871,81.986,115.004,82.353z"/>
			<path class="st9" d="M144.654,36.853c1.3,0,2.567,0.583,3.8,1.75c-0.1,0.867,0.267,1.75,1.1,2.65
				c1.033,1.067,1.617,1.85,1.75,2.35l0.05,1.2c-0.067,0.533-0.033,0.917,0.1,1.15c1.333,1.533,3.117,1.8,5.35,0.8
				c2.733-1.233,4.6-1.683,5.6-1.35c0.8-2.133,2.267-3.15,4.4-3.05c2.033,0.1,3.617,1.067,4.75,2.9"/>
			<path class="st10" d="M191.454,87.003l-1.55,1.75c-4.033,1.033-7.533,1.5-10.5,1.4c-3.867-0.133-7.183-1.2-9.95-3.2l-5.05,0.2"/>
			<path class="st10" d="M194.554,78.353l-1.3,0.1l-1.3-0.4l-6,1.65c-2.3,0.433-4.35,0.45-6.15,0.05l-1.95-0.6
				c-0.733-0.167-1.367,0-1.9,0.5c-2.8,0.867-5.85,0.517-9.15-1.05c-3.667-2.167-6.417-3.683-8.25-4.55"/>
			<path class="st11" d="M123.904,66.153c2.2,0.4,5.083,0.4,8.65,0l8.65-0.8c2.5-2.767,4.25-4.5,5.25-5.2
				c1.867-1.333,4-1.917,6.4-1.75l12.45-0.9"/>
			<path class="st11" d="M160.754,64.953l-8.15,1.5l-8.1,1.45c-0.467,0.467-0.85,1.333-1.15,2.6l-0.9,3
				c-1,1.933-2.733,2.983-5.2,3.15c-3.333-0.167-6.083-0.167-8.25,0l-4.2,0.3l-4.45-0.2l-8.55-1.35c-3.1-0.767-4.983-2.05-5.65-3.85
				"/>
			<path class="st10" d="M86.454,74.153c1.433,1.267,3.467,2.367,6.1,3.3l7.4,2.4c2.8,1.067,4.683,2.217,5.65,3.45
				c0.9,1.233,1.75,2.067,2.55,2.5l3.8,1.5c1.7,0.667,3.4,1.483,5.1,2.45c1.333,0.767,3.8,1.117,7.4,1.05l8.1-0.5l6.95,0.05
				c3.033-0.167,4.733-0.9,5.1-2.2c1.533-0.833,3.733-2.317,6.6-4.45c2.6-1.567,5.133-1.983,7.6-1.25"/>
			<path class="st12" d="M115.454,127.653l0.3-2.7l2.3-1.75c0.833-0.7,1.467-1.4,1.9-2.1c0.767,0.567,1.8,0.683,3.1,0.35l2.95-0.5
				c0.167,0.6,0.567,1.117,1.2,1.55l1.75,0.85"/>
			<path class="st8" d="M115.454,127.653c2.067,0.7,4.417,0.45,7.05-0.75c1.5-0.667,3.65-1.85,6.45-3.55"/>
			<path class="st13" d="M135.304,123.153l-3.15,0.3l-3.2-0.1"/>
			<path class="st12" d="M106.704,132.303c0.033-0.167,0.25-0.483,0.65-0.95c1.633,0.133,3.167-0.1,4.6-0.7
				c1.567-0.667,2.733-1.667,3.5-3"/>
			<path class="st14" d="M106.704,132.303c1.2,1.133,4.517,0.933,9.95-0.6l7.35-1.65c2.833-0.767,4.767-1.9,5.8-3.4l3-0.35l1.5-1.4
				l1-1.75"/>
			<path class="st10" d="M102.404,134.053c1.6-0.2,3.033-0.783,4.3-1.75"/>
			<path class="st15" d="M41.204,75.003l3.9,0.55l3.9,0.25c0.3-0.5,0.767-1.05,1.4-1.65l1.5-1.55l4.55,0.1l4.8-0.5
				c3.867-0.267,6.667,0.783,8.4,3.15"/>
			<path class="st12" d="M39.654,74.053c3.167-10.033,8.067-17.25,14.7-21.65c1.567-0.2,3.933-0.95,7.1-2.25
				c2.833-0.867,5.167-0.7,7,0.5"/>
			<path class="st11" d="M38.354,24.153l0.45,1.15c1.467,3.167,3.783,5.05,6.95,5.65l4.35,0.55l4.6,1l12.6,4.4
				c0,3.033,1.55,5.267,4.65,6.7c2.567,1.167,5.417,1.533,8.55,1.1c4.367-0.6,8.6-0.15,12.7,1.35l2.1,3.4
				c0.667,1.3,0.817,2.533,0.45,3.7c1.033,0.433,2.583,1.383,4.65,2.85c1.933,1.367,3.5,2.25,4.7,2.65
				c1.167,0.4,2.767,0.667,4.8,0.8l4.95,0.5c0.933,0.8,2.25,1.8,3.95,3c2.033,1.433,3.733,2.5,5.1,3.2l1.9,0.75"/>
			<path class="st16" d="M112.854,108.003l0.5,0.85l0.45,0.85l0.95,1.1l0.75,1.3l-1.4-1.7c-0.6-0.7-1.017-1.333-1.25-1.9
				c-1-0.8-2.183-1.3-3.55-1.5c-1.633-0.2-2.767,0.217-3.4,1.25c0.133-1.1,1.133-1.617,3-1.55
				C110.671,106.736,111.988,107.169,112.854,108.003z"/>
			<path class="st17" d="M12.054,68.903l-1.7-3.75c-0.933-1.233-2.2-1.583-3.8-1.05c0.133-0.567,0.967-0.65,2.5-0.25
				s2.367,1.033,2.5,1.9c-0.2,0.6-0.167,1.117,0.1,1.55C11.954,67.869,12.088,68.403,12.054,68.903z"/>
			<path class="st18" d="M201.654,60.503c1.033-0.267,2.133-0.083,3.3,0.55c1.433,0.767,1.933,1.933,1.5,3.5
				c0.167,0.233,0.717,0.533,1.65,0.9c0.733,0.3,1.15,0.733,1.25,1.3l-1.2-0.95c-0.667-0.533-1.317-0.783-1.95-0.75
				c0.233-1.333-0.1-2.417-1-3.25C204.338,61.003,203.154,60.569,201.654,60.503z"/>
			<path class="st19" d="M174.054,38.653c-1.333,0.1-2.933,0.9-4.8,2.4l-0.5,0.6c-0.233,0.2-0.15,0,0.25-0.6
				c0.467-0.7,1.183-1.3,2.15-1.8C172.221,38.653,173.188,38.453,174.054,38.653z"/>
		</g>
		<g transform="matrix(1.0, 0.0, 0.0, 1.0, 0.0, 0.0)">
			<g id="shape0_1_" transform="matrix(1.0, 0.0, 0.0, 1.0, 0.0, 0.0)">
				<path class="st0" d="M207.904,50.903c0.067-0.433-0.15-0.833-0.65-1.2c-0.6-0.433-0.95-0.833-1.05-1.2
					c0.233-2.5,0.233-4.1,0-4.8c-0.467-1.5-1.533-2.567-3.2-3.2c-1.767-0.667-3.25-0.4-4.45,0.8c-0.367-0.233-0.75-0.733-1.15-1.5
					c-0.367-0.733-0.783-1.2-1.25-1.4c-0.8-0.333-1.817-0.333-3.05,0l-3.2,0.75c-1.267-1.6-2.067-3.283-2.4-5.05l-0.65-0.95
					l-0.8-1.2c-0.133-0.4-0.167-0.85-0.1-1.35l-0.15-0.85c-0.633-0.967-1.7-1.45-3.2-1.45s-2.75,0.483-3.75,1.45l-2.25-0.15
					l-1.8,0.15c-0.033-0.4,0.167-0.667,0.6-0.8l1.05-0.4c-0.233-1.133-1.167-2.1-2.8-2.9c-1.767-0.833-2.833-1.783-3.2-2.85
					l-1.15-0.15l-1-0.1c-0.033-2.033-1.267-3.317-3.7-3.85c-2.333-0.533-4.217-0.117-5.65,1.25c-1.467-0.767-2.617-1.283-3.45-1.55
					l-4,0.1c-1-1.667-2.033-2.817-3.1-3.45c-1.233-0.767-2.767-0.983-4.6-0.65c-0.267,0.067-0.75,0.3-1.45,0.7
					c-0.6,0.367-1.067,0.533-1.4,0.5c-0.633-0.067-1.45-0.633-2.45-1.7c-0.833-0.933-1.7-1.25-2.6-0.95
					c0.367-1.6-1.083-2.55-4.35-2.85c-0.133-1.4-0.967-2.417-2.5-3.05l-4.65-0.3c-0.6,0.133-1.25,0.567-1.95,1.3
					c-0.667,0.7-1.217,1.067-1.65,1.1c-1.733-0.9-3.5-1-5.3-0.3c-1.9,0.767-2.867,2.067-2.9,3.9c-1.833,0.7-3.1,2.133-3.8,4.3
					c-0.233-0.7-0.083-1.5,0.45-2.4c0.2-0.333,0.783-0.783,1.75-1.35c0.833-0.467,1.3-0.983,1.4-1.55
					c-0.2-0.367-0.65-0.433-1.35-0.2l-1.55,0.7c-0.333-0.867-0.983-1.367-1.95-1.5l-3.1-0.2l-1.8-1.2c-0.7-0.6-1.383-0.75-2.05-0.45
					c-0.367,0.733-0.217,1.4,0.45,2c0.9,0.8,1.4,1.417,1.5,1.85c-0.4-0.633-1.283-1.283-2.65-1.95c0.567-2.467-0.6-3.967-3.5-4.5
					c-2.733-0.5-4.933-0.033-6.6,1.4l-2-0.4l-2.05-0.1c-0.467,0.067-1.067,0.35-1.8,0.85l-1.55,0.85h-2.55l-2.3,0.25
					c-0.733,0.3-1.417,0.85-2.05,1.65l-1.75,2.15l-2-0.9c-0.767-0.367-1.617-0.467-2.55-0.3c-0.7-1.233-2.117-1.85-4.25-1.85
					c-2.067-0.033-3.533,0.517-4.4,1.65c-0.033,0.233,0.083,0.683,0.35,1.35c0.167,0.5,0.133,0.917-0.1,1.25
					c1.767,0.967,2.4,1.45,1.9,1.45l-1.1-0.7l-1.3-0.5c0.233-0.633,0.233-1.267,0-1.9c-1.833-1.467-3.917-1.617-6.25-0.45
					c-2.367,1.167-3.483,2.917-3.35,5.25c-2.1,0.3-3.183,1.4-3.25,3.3c-0.033,0.933,0.183,1.717,0.65,2.35
					c-0.9-0.967-1.8-1.417-2.7-1.35c0-0.2,0.15-0.283,0.45-0.25h0.75c0.1-0.633-0.067-1.183-0.5-1.65
					c-0.367-0.433-0.833-0.683-1.4-0.75c-0.367-0.033-0.7,0.083-1,0.35l-0.9,0.65l-2.05,0.4c-0.667,0.1-1.15,0.317-1.45,0.65
					c-0.167-0.633-0.05-1.067,0.35-1.3l2.35-0.85c1.2-0.4,2.017-0.6,2.45-0.6c0.4,0,0.85,0.117,1.35,0.35l1.3,0.6
					c0.333-0.933,1.217-1.65,2.65-2.15c0.233-2.433,1.4-4.283,3.5-5.55c2.133-1.3,4.4-1.45,6.8-0.45
					c1.433-1.467,3.117-2.183,5.05-2.15c1.133,0,2.583,0.433,4.35,1.3l3.8,1.8l2.5-2.55c1.033-0.933,2.05-1.6,3.05-2
					c1.3,0.6,3.083,0.467,5.35-0.4c2.233-0.9,4.033-1,5.4-0.3c3.133-1.567,5.867-1.967,8.2-1.2c0.433,0.133,0.917,0.517,1.45,1.15
					l1.4,1.25l1.05,0.1l1.15,0.1l1.2,0.8l0.95,0.65l2.85,0.35c1,0.133,1.8,0.5,2.4,1.1c0.3-0.3,0.583-0.483,0.85-0.55l1.1,0.05
					c0.633-1.3,1.817-2.2,3.55-2.7c1.7-0.5,3.467-0.467,5.3,0.1c1.2-1.7,3.317-2.417,6.35-2.15c3.1,0.267,4.833,1.45,5.2,3.55
					l1.75,0.4l1.6,0.6c0.433,0.833,1.2,1.583,2.3,2.25c1.467,0.833,2.467,1.517,3,2.05c1.767-1.333,3.833-1.633,6.2-0.9
					c2.233,0.7,3.75,1.967,4.55,3.8c2.133-0.733,4.467-0.267,7,1.4c1.533-1.433,3.617-1.783,6.25-1.05
					c2.667,0.733,3.933,2.05,3.8,3.95c0.9-0.133,1.683,0.083,2.35,0.65l1.5,1.5l2.9,1.95c1.067,0.8,1.783,1.75,2.15,2.85
					c2.1-0.767,3.617-1.217,4.55-1.35c1.667-0.167,2.95,0.283,3.85,1.35c0.6,0.733,1.25,2.383,1.95,4.95
					c0.6,2.3,1.383,3.767,2.35,4.4c1.4-0.833,3-1.083,4.8-0.75c1.933,0.333,3.067,1.233,3.4,2.7c2.533-1.6,4.817-1.267,6.85,1
					c1.967,2.167,2.483,4.633,1.55,7.4l4.2,2.75c1.833,1.033,2.983,2.2,3.45,3.5v1.4c-0.167-0.033-0.25,0.117-0.25,0.45
					c0,0.333-0.15,0.433-0.45,0.3c-0.333-0.1-0.467-0.35-0.4-0.75l0.15-0.95c-0.267-1.1-1.017-2.05-2.25-2.85
					C210.587,51.62,209.337,51.136,207.904,50.903"/>
				<path class="st1" d="M206.454,64.553c0.167,0.233,0.717,0.533,1.65,0.9c0.733,0.3,1.15,0.733,1.25,1.3l-1.2-0.95
					c-0.667-0.533-1.317-0.783-1.95-0.75c0.233-1.333-0.1-2.417-1-3.25c-0.867-0.8-2.05-1.233-3.55-1.3
					c1.033-0.267,2.133-0.083,3.3,0.55C206.387,61.82,206.887,62.986,206.454,64.553"/>
				<path class="st2" d="M194.554,74.853c1.2,3.033,2.283,4.967,3.25,5.8c0.033,0.333-0.167,0.633-0.6,0.9
					c-0.433,0.267-0.633,0.6-0.6,1c1.233,0.967,2.133,2.483,2.7,4.55c0.6,2.133,0.433,3.667-0.5,4.6
					c-1.667-0.233-3.583,0.433-5.75,2c-2.333,1.7-4.1,2.55-5.3,2.55l-2.65-0.45c-1.033-0.167-1.833,0.067-2.4,0.7l-0.35-0.15
					l-0.15,0.4c-0.6-0.333-1.167-0.517-1.7-0.55l-2.35-0.2c-0.3,0.1-0.483,0.317-0.55,0.65c-0.033,0.233-0.167,0.267-0.4,0.1
					c-0.733-0.9-1.5-1.55-2.3-1.95c-1.033-0.467-2.267-0.617-3.7-0.45c-1-1.333-2.683-1.983-5.05-1.95l0.15,0.5l0.1,0.45l-0.4-0.45
					c-0.1-0.233-0.3-0.317-0.6-0.25c-0.267,0.633-0.783,1.283-1.55,1.95l-1.8,1.65c-0.833,0.3-1.683,0.167-2.55-0.4l-2.25-1.3
					l-1.8-0.15l-1.8-0.05c-1.167,0.067-2.25,0.567-3.25,1.5l-2.5,2.8c-3.1-0.5-5.567-0.483-7.4,0.05c-2.467,0.7-3.6,2.283-3.4,4.75
					l-2.4-1.4c-0.967-0.467-1.933-0.633-2.9-0.5c-0.4,0.033-0.95,0.283-1.65,0.75l-1.7,0.65l-0.25-1.4l-0.45-1.2
					c-1.033-0.633-1.85-1.067-2.45-1.3c-1-0.467-2.117-0.6-3.35-0.4c-1.033-1.267-2.55-2.133-4.55-2.6
					c-2.2-0.5-4.117-0.267-5.75,0.7c-0.233,0.167-0.183,0.45,0.15,0.85c0.333,0.367,0.367,0.633,0.1,0.8
					c-0.7-0.867-2.617-1.267-5.75-1.2c-0.9-0.7-2.1-1.1-3.6-1.2c-0.567-1.233-1.783-1.683-3.65-1.35c-1.5,0.233-2.767,0.767-3.8,1.6
					c-1.067-0.8-2.283-1.233-3.65-1.3c-1.367-0.067-2.567,0.25-3.6,0.95c0.333-1.433,0.233-3.35-0.3-5.75l-1.35-5.9l-1.7,0.1
					l-1.4,0.4c-0.933-0.933-2.417-1.717-4.45-2.35l-4.7-1.75c-0.233-2.333-1.033-3.7-2.4-4.1l0.1,0.2
					c0.233,0.333,0.133,0.35-0.3,0.05c-0.333-0.633-0.9-0.95-1.7-0.95l-0.25-0.5h0.25v-0.2h0.5l0.85-3.75
					c0.267-1.733,0.533-2.967,0.8-3.7l-1.2,7.2c0.5,0.6,1.617,1.483,3.35,2.65c0.1-0.667,0.017-2.5-0.25-5.5
					c-0.167-1.933,0.25-3.233,1.25-3.9c-0.767,0.833-1.067,2.417-0.9,4.75c0.233,3.267,0.283,5.367,0.15,6.3
					c1.667,0.3,3.567,0.05,5.7-0.75c2.1-0.8,3.733-1.1,4.9-0.9c-1.167,0-2.85,0.4-5.05,1.2c-1.933,0.7-3.783,0.933-5.55,0.7
					c0.1,0.9,0.567,1.417,1.4,1.55l2.2,0.15c0.833,0.233,2.1,0.867,3.8,1.9c1.667,0.833,3.283,1.067,4.85,0.7
					c-0.2-0.833-0.1-1.567,0.3-2.2l0.9-1.6c-0.5-0.4-0.917-1.25-1.25-2.55c-0.4-1.5-0.783-2.5-1.15-3c-0.167-0.233-0.5-0.45-1-0.65
					c-0.467-0.167-0.767-0.433-0.9-0.8c-0.167-0.4-0.25-1.2-0.25-2.4l-0.25-2.85l-0.45-2.9l-0.75-3.1l-3.4,3.5
					c-1.8,1.933-2.883,2.917-3.25,2.95l3.45-3.4c2-1.967,3.067-3.233,3.2-3.8c-0.567-1.467-1.6-2.417-3.1-2.85
					c-1.467,0.733-2.767,1.95-3.9,3.65c-0.567,0.867-1.433,2.533-2.6,5c1.4-4.3,3.4-7.183,6-8.65c-1.867-3.267-5.15-5.75-9.85-7.45
					h0.25v-0.25c1.4,0.1,2.767,0.5,4.1,1.2l3.35,1.95c2.133,4.1,5.333,5.767,9.6,5c0.3,0.133,0.533,0.3,0.7,0.5v0.25l-1.8,0.3
					l-1.65-0.1l0.65,2.85c0.133,1.1-0.05,2.083-0.55,2.95c0.733,1.833,1.217,4.317,1.45,7.45c0.133,0.3,0.533,0.533,1.2,0.7
					c0.667,0.2,1.067,0.433,1.2,0.7h-0.25v0.25l-0.25,0.5c0.133,0.833,0.567,1.767,1.3,2.8l1.35,2.7l5.85,1.25
					c1.833,0.6,3.167,1.55,4,2.85c1.8,2.8,3.167,4.717,4.1,5.75l1.8,0.55l2,0.4c0.1-0.633,0.05-1.217-0.15-1.75l-0.5-1.3
					c0.167,0.433,0.467,0.567,0.9,0.4c0.533-0.2,0.933-0.2,1.2,0c0.133,0.433-0.017,0.7-0.45,0.8c-0.467,0.1-0.717,0.233-0.75,0.4
					c0.2,0.033,0.3,0.267,0.3,0.7l-0.05,1l7.25,2.7c2.933,1.2,5.467,1.983,7.6,2.35c0.633-0.767,1.6-1.333,2.9-1.7l5.2-0.4l9.7-0.3
					l1.05-1.25c0.433-0.433,0.967-0.667,1.6-0.7l-1.3,0.9c-0.5,0.367-0.8,0.8-0.9,1.3c1.167,0.6,2.583,0.983,4.25,1.15l4.35-0.2
					l-0.2,0.25l0.4-0.3l0.55-0.2l-0.35,0.05c1.567-1,3.583-1.483,6.05-1.45c2.6,0,4.467,0.633,5.6,1.9c0.933-0.3,1.8-0.867,2.6-1.7
					l1.95-2.4l-0.95-3.3c-0.4-1.033-0.95-1.767-1.65-2.2c-0.5,0.933-1.433,1.567-2.8,1.9l-4.45,0.25
					c-0.233,0.233-0.583,0.717-1.05,1.45l-1.1,1.4c0.733-1.4,1.45-2.433,2.15-3.1l4.45-0.25c1.8-0.4,2.65-1.033,2.55-1.9
					c-0.033-0.433-0.633-0.883-1.8-1.35c-1.2-0.467-1.883-0.983-2.05-1.55l0.1-0.35l-0.35-0.1c-0.167-1.4-0.25-4.133-0.25-8.2
					c-1.167-1-1.433-2.333-0.8-4c0.633-1.667,1.7-2.567,3.2-2.7v-2.4l0.15-0.1l-0.15-0.15c1.067-0.467,1.967-1.533,2.7-3.2
					c1-2.3,1.633-3.633,1.9-4l0.1-0.1l-0.1-0.15l2.45,0.1c-1.267,0.533-2.217,1.267-2.85,2.2c-0.733,1-1.017,2.167-0.85,3.5
					l-1.9,1.6c-0.533,0.667-0.7,1.65-0.5,2.95c-1.333,0.4-2.317,1.1-2.95,2.1c-0.8,1.2-0.85,2.5-0.15,3.9l0.1,0.35l0.15,0.35
					c-0.133,2.7,0.1,5.583,0.7,8.65c2.2,0.933,3.883,2.217,5.05,3.85l-0.05,0.25h0.3c0.333,0.367,0.567,1.1,0.7,2.2
					c0.133,1.2,0.3,1.983,0.5,2.35c1.867-0.5,3.95,0.133,6.25,1.9c1.2-0.167,2.283-0.017,3.25,0.45l2.25,1.5
					c0.567-0.433,1.333-0.583,2.3-0.45c0.9,0.133,1.567,0.433,2,0.9c0.867-0.567,2.167-0.817,3.9-0.75l4.3,0.05
					c0.8-1.067,2.15-2.033,4.05-2.9c1.033-0.5,2.633-1.217,4.8-2.15l-1.45-5.5c-0.867,0.567-1.983,1.467-3.35,2.7l-3.35,2.8
					c0.533-0.7,1.6-1.717,3.2-3.05c1.5-1.167,2.517-2.233,3.05-3.2c-0.933,0.067-1.867,0.633-2.8,1.7
					c-0.933,1.033-1.85,1.583-2.75,1.65l-0.2-0.7l2.8-2.95l2.7-3.05c-0.467-0.567-0.867-1.367-1.2-2.4l-0.55,0.15l-0.65,0.1
					l0.1-0.15l-0.1-0.1l0.35-1.6c0.067-0.533-0.05-1.117-0.35-1.75L194.554,74.853 M195.404,83.053l-1.95,2.05
					c-0.9,0.833-1.367,1.517-1.4,2.05c0.633-0.167,1.3-0.667,2-1.5c0.7-0.9,1.317-1.45,1.85-1.65
					C195.837,83.503,195.671,83.186,195.404,83.053 M97.004,83.053c-0.767-0.6-2.083-1.033-3.95-1.3c-2.1-0.3-3.583-0.667-4.45-1.1
					c0.033,0.233-0.133,0.433-0.5,0.6c-0.333,0.133-0.483,0.333-0.45,0.6c2.3-0.233,4.2,0.083,5.7,0.95
					c-2.433-0.667-4.483-0.817-6.15-0.45c0.067,1.367,0.35,3.35,0.85,5.95c0.5,2.467,0.767,4.483,0.8,6.05l3.5-0.15
					c0.633,0.133,1.7,0.5,3.2,1.1c1.633-1.667,3.983-1.917,7.05-0.75c3.9,1.5,6.517,2.15,7.85,1.95c0.4-0.067,1-0.333,1.8-0.8
					c0.8-0.5,1.483-0.8,2.05-0.9c-1.167-0.833-3.45-1.717-6.85-2.65c-3.2-0.9-5.4-1.85-6.6-2.85c-0.333-0.433-0.917-1.533-1.75-3.3
					C98.437,84.603,97.737,83.62,97.004,83.053 M126.504,98.553c1.533,0.733,2.5,1.8,2.9,3.2c0.8-0.7,2.1-1.033,3.9-1
					c1.767,0.033,2.8,0.367,3.1,1c0.467-1.433,1.233-2.567,2.3-3.4c1.133-0.9,2.433-1.283,3.9-1.15c0.2,0.033,0.483,0.167,0.85,0.4
					l0.85,0.35l1.8-0.5c0.767-0.2,1.367-0.117,1.8,0.25l0.65-0.95l0.55-1l-5.15,0.15c-1.933-0.8-3.333-1.25-4.2-1.35l-1.45,0.2
					l-1.45,0.3l-5.75-0.05l-6.25-0.2c-0.367,0.233-0.883,0.633-1.55,1.2l-1.55,1.2C123.987,97.67,125.571,98.12,126.504,98.553"/>
				<path class="st3" d="M179.404,90.153c2.967,0.1,6.467-0.367,10.5-1.4l1.55-1.75l0.1,0.35c0.9-0.067,1.817-0.617,2.75-1.65
					c0.933-1.067,1.867-1.633,2.8-1.7c-0.533,0.967-1.55,2.033-3.05,3.2c-1.6,1.333-2.667,2.35-3.2,3.05l3.35-2.8
					c1.367-1.233,2.483-2.133,3.35-2.7l1.45,5.5c-2.167,0.933-3.767,1.65-4.8,2.15c-1.9,0.867-3.25,1.833-4.05,2.9l-4.3-0.05
					c-1.733-0.067-3.033,0.183-3.9,0.75c-0.433-0.467-1.1-0.767-2-0.9c-0.967-0.133-1.733,0.017-2.3,0.45l-2.25-1.5
					c-0.967-0.467-2.05-0.617-3.25-0.45c-2.3-1.767-4.383-2.4-6.25-1.9c-0.2-0.367-0.367-1.15-0.5-2.35
					c-0.133-1.1-0.367-1.833-0.7-2.2h-0.3l5.05-0.2C172.221,88.953,175.537,90.02,179.404,90.153"/>
				<path class="st3" d="M195.654,78.253c0.333,1.033,0.733,1.833,1.2,2.4l-2.7,3.05l-2.8,2.95l0.1,0.35l-1.55,1.75
					c-4.033,1.033-7.533,1.5-10.5,1.4c-3.867-0.133-7.183-1.2-9.95-3.2l-5.05,0.2l0.05-0.25c-1.167-1.633-2.85-2.917-5.05-3.85
					c-0.6-3.067-0.833-5.95-0.7-8.65l-0.15-0.35c1.833,0.867,4.583,2.383,8.25,4.55c3.3,1.567,6.35,1.917,9.15,1.05
					c0.533-0.5,1.167-0.667,1.9-0.5l1.95,0.6c1.8,0.4,3.85,0.383,6.15-0.05l6-1.65l1.3,0.4l1.3-0.1l-0.1,0.15l0.65-0.1
					L195.654,78.253"/>
				<path class="st4" d="M195.404,83.053c0.267,0.133,0.433,0.45,0.5,0.95c-0.533,0.2-1.15,0.75-1.85,1.65
					c-0.7,0.833-1.367,1.333-2,1.5c0.033-0.533,0.5-1.217,1.4-2.05L195.404,83.053"/>
				<path class="st0" d="M193.154,71.703c-1.9-0.867-3.15-1.317-3.75-1.35c0.2-0.567,0.2-1.133,0-1.7
					c-1.4-0.267-2.883-1.867-4.45-4.8c-1.4-2.6-3.2-3.733-5.4-3.4l-0.2-0.9c2.467-0.2,4.367,0.6,5.7,2.4
					c0.767,1.067,1.733,2.817,2.9,5.25c1.5,0.233,2.383,0.883,2.65,1.95c0.2-0.133,0.417,0.083,0.65,0.65
					c0.267,0.6,0.533,0.867,0.8,0.8C192.421,70.703,192.787,71.07,193.154,71.703"/>
				<path class="st0" d="M181.954,64.103c-1.267-0.033-2.7,0.367-4.3,1.2c-0.233,0.933-0.75,1.85-1.55,2.75l-1.75,1.95l2.4-3.7
					c1.1-1.567,2.45-2.467,4.05-2.7c-0.133-0.3-0.467-0.617-1-0.95v-0.45C180.137,62.736,180.854,63.37,181.954,64.103"/>
				<path class="st5" d="M169.004,41.053c0.467-0.7,1.183-1.3,2.15-1.8c1.067-0.6,2.033-0.8,2.9-0.6c-1.333,0.1-2.933,0.9-4.8,2.4
					l-0.5,0.6C168.521,41.853,168.604,41.653,169.004,41.053"/>
				<path class="st4" d="M95.754,53.153c1.033,0.433,2.583,1.383,4.65,2.85c1.933,1.367,3.5,2.25,4.7,2.65
					c1.167,0.4,2.767,0.667,4.8,0.8l4.95,0.5c0.933,0.8,2.25,1.8,3.95,3c2.033,1.433,3.733,2.5,5.1,3.2c2.2,0.4,5.083,0.4,8.65,0
					l8.65-0.8c2.5-2.767,4.25-4.5,5.25-5.2c1.867-1.333,4-1.917,6.4-1.75l12.45-0.9l-0.1,0.1c-0.267,0.367-0.9,1.7-1.9,4
					c-0.733,1.667-1.633,2.733-2.7,3.2l0.15,0.15l-0.15,0.1v2.4c-1.5,0.133-2.567,1.033-3.2,2.7c-0.633,1.667-0.367,3,0.8,4
					c0,4.067,0.083,6.8,0.25,8.2c-2.367-0.6-4.783-0.15-7.25,1.35c-2.867,2.133-5.067,3.617-6.6,4.45
					c-0.367,1.3-2.067,2.033-5.1,2.2l-6.95-0.05l-8.1,0.5c-3.6,0.067-6.067-0.283-7.4-1.05c-1.7-0.967-3.4-1.783-5.1-2.45l-3.8-1.5
					c-0.8-0.433-1.65-1.267-2.55-2.5c-0.967-1.233-2.85-2.383-5.65-3.45l-7.4-2.4c-2.633-0.933-4.667-2.033-6.1-3.3h0.25
					c-0.133-0.267-0.533-0.5-1.2-0.7c-0.667-0.167-1.067-0.4-1.2-0.7c-0.233-3.133-0.717-5.617-1.45-7.45
					c0.5-0.867,0.683-1.85,0.55-2.95l-0.65-2.85l1.65,0.1l1.8-0.3l0.3,0.1l1.3,0.55c-0.7-0.5-1.233-1.267-1.6-2.3
					c-0.033-0.567-0.2-1.167-0.5-1.8l-0.2-1.6c-1.433-0.967-3.35-2-5.75-3.1l-6.1-2.8l-3.6-2c-1.867-1-3.117-1.567-3.75-1.7
					l-2.8,0.3l-2.7,0.4l-3.3-0.8c-0.633,1.067-3.283,3.967-7.95,8.7l-6.6,6.5c-2.167,2.2-3.417,3.733-3.75,4.6l-0.35,1.15
					c-0.367,0.633-0.583,1.117-0.65,1.45l-6.45,4.6l-1.65-1.4l-1.7-1.25c0.367-2.067-0.083-3.583-1.35-4.55l-3.95-1.95
					c0.067-0.467,0.3-1.167,0.7-2.1c0.367-0.8,0.533-1.45,0.5-1.95c-0.033-0.533-0.3-1.1-0.8-1.7c-0.533-0.633-0.833-1.117-0.9-1.45
					c-0.067-0.333,0.283-1.35,1.05-3.05c0.6-1.4,0.533-2.567-0.2-3.5l-0.1-0.15c0.267-0.233,0.767-0.567,1.5-1l0.9-1.15
					c1.533,1.267,2.417,3.017,2.65,5.25c0.3-0.7,0.117-1.717-0.55-3.05c-0.5-1.033-1.133-2.017-1.9-2.95
					c0.167-0.367,0.267-1.1,0.3-2.2c0.067-1.033,0.217-1.733,0.45-2.1l2.5,1.65c1.167,0.7,1.85,1.433,2.05,2.2l0.15,0.6l0.1-0.85
					c-0.533-0.733-1.317-1.467-2.35-2.2l-2.7-1.9l0.5-3.35c3.433-2.367,6.867-4.6,10.3-6.7c-0.767,0.233-1.867,0.783-3.3,1.65
					l-2.95,1.45c0.2-0.9,0.75-1.667,1.65-2.3l2.2-1.55l1.35-2.3l2.6-2.4c1.467,3.167,3.783,5.05,6.95,5.65l4.35,0.55l4.6,1l12.6,4.4
					c0,3.033,1.55,5.267,4.65,6.7c2.567,1.167,5.417,1.533,8.55,1.1c4.367-0.6,8.6-0.15,12.7,1.35l2.1,3.4
					C95.971,50.753,96.121,51.986,95.754,53.153 M92.954,55.953l0.2,0.95c0,0.333-0.233,0.483-0.7,0.45
					c-0.3-0.067-0.567-0.467-0.8-1.2c-0.067-0.233-0.117,0.1-0.15,1l0.7,0.35l1,0.1l0.2-0.95
					C93.437,56.22,93.287,55.986,92.954,55.953 M95.404,63.803l6.4,3.65c-5.333-3.533-9.833-5.967-13.5-7.3L95.404,63.803
					 M90.304,67.953l-0.6-0.1l-0.35-0.4c-0.133,0.4-0.05,0.633,0.25,0.7h0.95l0.25-0.7l-0.7-0.45c-0.367-0.167-0.617-0.1-0.75,0.2
					l0.65,0.15C90.237,67.486,90.337,67.686,90.304,67.953 M116.054,80.703l-0.5-0.35c-0.333,0.1-0.55,0.383-0.65,0.85
					c-0.067,0.4-0.033,0.783,0.1,1.15l0.8,0.35l0.75-0.25c0.233-0.333,0.233-0.8,0-1.4
					C116.487,80.953,116.321,80.836,116.054,80.703 M153.454,70.653c0-0.433-0.083-0.467-0.25-0.1c-0.167,0.7-0.417,0.767-0.75,0.2
					l-0.5-0.65v0.95l0.6,0.15l0.65,0.1L153.454,70.653 M133.054,71.903c0.2-0.133,0.267-0.333,0.2-0.6l-0.7-0.6
					c-0.467-0.233-0.55-0.2-0.25,0.1l0.45,0.4l0.25,0.55l-0.45,0.35l-0.75,0.15c-0.233,0-0.383-0.2-0.45-0.6s-0.233-0.6-0.5-0.6
					c0.1,1.133,0.75,1.617,1.95,1.45C132.737,72.27,132.821,72.07,133.054,71.903 M146.704,75.353c-0.533-0.367-0.967-1.233-1.3-2.6
					l-0.6-2.65c0,1.167,0.167,2.283,0.5,3.35C145.704,74.586,146.171,75.22,146.704,75.353 M55.004,37.453l-0.45,0.25
					c-0.233,0.1-0.4-0.083-0.5-0.55c-0.067-0.367-0.15-0.433-0.25-0.2l0.15,0.5l0.1,0.5h0.95l0.25-1.05
					c-0.1-0.467-0.333-0.683-0.7-0.65c-0.067,0.267,0.017,0.467,0.25,0.6C55.004,37.02,55.071,37.22,55.004,37.453 M55.754,43.953
					l1.25,0.4l-3.85-1.4l-3.4-0.2L55.754,43.953 M39.404,36.503c0.633,0,1.367,0.4,2.2,1.2c0.8,0.733,1.433,1.05,1.9,0.95l-2.1-1.35
					l-2-1.55l-0.55-2.1l-0.65-1.5c0.067,0.633,0.25,1.383,0.55,2.25L39.404,36.503 M31.954,50.403c1,1.2,2.45,2.367,4.35,3.5
					l4.8,2.75l-5.75-3.7c-2.367-1.533-3.683-3.317-3.95-5.35v1.5C31.437,49.603,31.621,50.036,31.954,50.403 M38.954,42.953
					l-0.5-0.7c0,0.467,0.083,0.783,0.25,0.95c0.433,0.2,0.833,0.083,1.2-0.35c0.6-0.733,0.6-0.85,0-0.35
					C39.771,42.803,39.454,42.953,38.954,42.953 M39.904,48.253l0.45,0.35c0.133,0.233,0.067,0.35-0.2,0.35l-0.05-0.3l-0.2-0.15
					c-0.033,0.367,0.2,0.683,0.7,0.95c0.333-0.2,0.367-0.567,0.1-1.1C40.471,47.853,40.204,47.82,39.904,48.253 M26.704,53.303
					c-1.133,1.433-1.467,2.033-1,1.8C26.171,54.87,26.504,54.27,26.704,53.303"/>
				<path class="st3" d="M92.554,77.453l7.4,2.4c2.8,1.067,4.683,2.217,5.65,3.45c0.9,1.233,1.75,2.067,2.55,2.5l3.8,1.5
					c1.7,0.667,3.4,1.483,5.1,2.45c1.333,0.767,3.8,1.117,7.4,1.05l8.1-0.5l6.95,0.05c3.033-0.167,4.733-0.9,5.1-2.2
					c1.533-0.833,3.733-2.317,6.6-4.45c2.6-1.567,5.133-1.983,7.6-1.25l-0.1,0.35c0.167,0.567,0.85,1.083,2.05,1.55
					c1.167,0.467,1.767,0.917,1.8,1.35c0.1,0.867-0.75,1.5-2.55,1.9l-4.45,0.25c-0.7,0.667-1.417,1.7-2.15,3.1l1.1-1.4
					c0.467-0.733,0.817-1.217,1.05-1.45l4.45-0.25c1.367-0.333,2.3-0.967,2.8-1.9c0.7,0.433,1.25,1.167,1.65,2.2l0.95,3.3l-1.95,2.4
					c-0.8,0.833-1.667,1.4-2.6,1.7c-1.133-1.267-3-1.9-5.6-1.9c-2.467-0.033-4.483,0.45-6.05,1.45l-0.4,0.2l-4.35,0.2
					c-1.667-0.167-3.083-0.55-4.25-1.15c0.1-0.5,0.4-0.933,0.9-1.3l1.3-0.9c-0.633,0.033-1.167,0.267-1.6,0.7l-1.05,1.25l-9.7,0.3
					c-4.1-0.2-6.8,0.5-8.1,2.1c-2.133-0.367-4.667-1.15-7.6-2.35l-7.25-2.7l0.05-1c0-0.433-0.1-0.667-0.3-0.7
					c0.033-0.167,0.283-0.3,0.75-0.4c0.433-0.1,0.583-0.367,0.45-0.8c-0.267-0.2-0.667-0.2-1.2,0c-0.433,0.167-0.733,0.033-0.9-0.4
					l0.5,1.3c0.2,0.533,0.25,1.117,0.15,1.75l-2-0.4l-1.8-0.55c-0.933-1.033-2.3-2.95-4.1-5.75c-0.833-1.3-2.167-2.25-4-2.85
					l-5.85-1.25l-1.35-2.7c-0.733-1.033-1.167-1.967-1.3-2.8l0.25-0.5v-0.25C87.887,75.42,89.921,76.52,92.554,77.453
					 M148.854,92.053l-4.55-0.1c0.867,0.567,2.333,0.733,4.4,0.5c2.033-0.233,3.533-0.733,4.5-1.5L148.854,92.053"/>
				<path class="st1" d="M153.204,70.553c0.167-0.367,0.25-0.333,0.25,0.1l-0.25,0.65l-0.65-0.1l-0.6-0.15v-0.95l0.5,0.65
					C152.787,71.32,153.037,71.253,153.204,70.553"/>
				<path class="st4" d="M124.854,94.803l6.25,0.2l5.75,0.05l1.45-0.3l1.45-0.2c0.867,0.1,2.267,0.55,4.2,1.35l5.15-0.15l-0.55,1
					l-0.65,0.95c-0.433-0.367-1.033-0.45-1.8-0.25l-1.8,0.5l-0.85-0.35c-0.367-0.233-0.65-0.367-0.85-0.4
					c-1.467-0.133-2.767,0.25-3.9,1.15c-1.067,0.833-1.833,1.967-2.3,3.4c-0.3-0.633-1.333-0.967-3.1-1c-1.8-0.033-3.1,0.3-3.9,1
					c-0.4-1.4-1.367-2.467-2.9-3.2c-0.933-0.433-2.517-0.883-4.75-1.35l1.55-1.2C123.971,95.436,124.487,95.036,124.854,94.803"/>
				<path class="st1" d="M153.204,90.953c-0.967,0.767-2.467,1.267-4.5,1.5c-2.067,0.233-3.533,0.067-4.4-0.5l4.55,0.1
					L153.204,90.953"/>
				<path class="st1" d="M144.804,70.103l0.6,2.65c0.333,1.367,0.767,2.233,1.3,2.6c-0.533-0.133-1-0.767-1.4-1.9
					C144.971,72.386,144.804,71.27,144.804,70.103"/>
				<path class="st1" d="M133.254,71.303c0.067,0.267,0,0.467-0.2,0.6c-0.233,0.167-0.317,0.367-0.25,0.6
					c-1.2,0.167-1.85-0.317-1.95-1.45c0.267,0,0.433,0.2,0.5,0.6s0.217,0.6,0.45,0.6l0.75-0.15l0.45-0.35l-0.25-0.55l-0.45-0.4
					c-0.3-0.3-0.217-0.333,0.25-0.1L133.254,71.303"/>
				<path class="st4" d="M135.304,123.153l-1,1.75l-1.5,1.4l-3,0.35c-1.033,1.5-2.967,2.633-5.8,3.4l-7.35,1.65
					c-5.433,1.533-8.75,1.733-9.95,0.6c0.033-0.167,0.25-0.483,0.65-0.95c1.633,0.133,3.167-0.1,4.6-0.7
					c1.567-0.667,2.733-1.667,3.5-3c2.067,0.7,4.417,0.45,7.05-0.75c1.5-0.667,3.65-1.85,6.45-3.55l3.2,0.1L135.304,123.153"/>
				<path class="st4" d="M128.954,123.353c-2.8,1.7-4.95,2.883-6.45,3.55c-2.633,1.2-4.983,1.45-7.05,0.75l0.3-2.7l2.3-1.75
					c0.833-0.7,1.467-1.4,1.9-2.1c0.767,0.567,1.8,0.683,3.1,0.35l2.95-0.5c0.167,0.6,0.567,1.117,1.2,1.55L128.954,123.353"/>
				<path class="st2" d="M116.554,81.053c0.233,0.6,0.233,1.067,0,1.4l-0.75,0.25l-0.8-0.35c-0.133-0.367-0.167-0.75-0.1-1.15
					c0.1-0.467,0.317-0.75,0.65-0.85l0.5,0.35C116.321,80.836,116.487,80.953,116.554,81.053"/>
				<path class="st1" d="M113.804,109.703l0.95,1.1l0.75,1.3l-1.4-1.7c-0.6-0.7-1.017-1.333-1.25-1.9c-1-0.8-2.183-1.3-3.55-1.5
					c-1.633-0.2-2.767,0.217-3.4,1.25c0.133-1.1,1.133-1.617,3-1.55c1.767,0.033,3.083,0.467,3.95,1.3l0.5,0.85L113.804,109.703"/>
				<path class="st4" d="M100.854,89.303c1.2,1,3.4,1.95,6.6,2.85c3.4,0.933,5.683,1.817,6.85,2.65c-0.567,0.1-1.25,0.4-2.05,0.9
					c-0.8,0.467-1.4,0.733-1.8,0.8c-1.333,0.2-3.95-0.45-7.85-1.95c-3.067-1.167-5.417-0.917-7.05,0.75
					c-1.5-0.6-2.567-0.967-3.2-1.1l-3.5,0.15c-0.033-1.567-0.3-3.583-0.8-6.05c-0.5-2.6-0.783-4.583-0.85-5.95
					c1.667-0.367,3.717-0.217,6.15,0.45c-1.5-0.867-3.4-1.183-5.7-0.95c-0.033-0.267,0.117-0.467,0.45-0.6
					c0.367-0.167,0.533-0.367,0.5-0.6c0.867,0.433,2.35,0.8,4.45,1.1c1.867,0.267,3.183,0.7,3.95,1.3
					c0.733,0.567,1.433,1.55,2.1,2.95C99.937,87.77,100.521,88.87,100.854,89.303 M94.154,83.053l-0.8-0.25l0.95,0.6L94.154,83.053
					 M97.004,86.653c-0.9-1.5-1.8-2.583-2.7-3.25C94.804,84.57,95.704,85.653,97.004,86.653 M111.904,95.053
					c-4.1-1.3-6.667-2.017-7.7-2.15l3.95,1.25L111.904,95.053"/>
				<path class="st1" d="M111.904,95.053l-3.75-0.9l-3.95-1.25C105.237,93.036,107.804,93.753,111.904,95.053"/>
				<path class="st1" d="M88.304,60.153c3.667,1.333,8.167,3.767,13.5,7.3l-6.4-3.65L88.304,60.153"/>
				<path class="st1" d="M94.304,83.403c0.9,0.667,1.8,1.75,2.7,3.25C95.704,85.653,94.804,84.57,94.304,83.403"/>
				<path class="st1" d="M94.154,83.053l0.15,0.35l-0.95-0.6L94.154,83.053"/>
				<path class="st1" d="M92.954,55.953c0.333,0.033,0.483,0.267,0.45,0.7l-0.2,0.95l-1-0.1l-0.7-0.35c0.033-0.9,0.083-1.233,0.15-1
					c0.233,0.733,0.5,1.133,0.8,1.2c0.467,0.033,0.7-0.117,0.7-0.45L92.954,55.953"/>
				<path class="st1" d="M89.354,67.203c0.133-0.3,0.383-0.367,0.75-0.2l0.7,0.45l-0.25,0.7h-0.95c-0.3-0.067-0.383-0.3-0.25-0.7
					l0.35,0.4l0.6,0.1c0.033-0.267-0.067-0.467-0.3-0.6L89.354,67.203"/>
				<path class="st6" d="M87.404,34.803c0.4-2.033-0.883-3.467-3.85-4.3c-0.2-1.067-0.433-1.783-0.7-2.15
					c-0.967-0.967-1.85-1.533-2.65-1.7l-2.1,0.1c-0.667,0.1-0.85-0.017-0.55-0.35h2.9l1.5,0.95l1.4,1l0.45,1.65l2.1,1.3
					c0.867,0.5,1.45,1.033,1.75,1.6L87.404,34.803"/>
				<path class="st1" d="M86.504,59.403l-0.3-0.35v-1.4c0.367,1.033,0.9,1.8,1.6,2.3L86.504,59.403"/>
				<path class="st1" d="M86.204,59.053l0.3,0.35l-0.3-0.1V59.053"/>
				<path class="st7" d="M86.454,83.753c-1.567,0.367-3.183,0.133-4.85-0.7c-1.7-1.033-2.967-1.667-3.8-1.9l-2.2-0.15
					c-0.833-0.133-1.3-0.65-1.4-1.55c1.767,0.233,3.617,0,5.55-0.7c2.2-0.8,3.883-1.2,5.05-1.2c-1.167-0.2-2.8,0.1-4.9,0.9
					c-2.133,0.8-4.033,1.05-5.7,0.75c0.133-0.933,0.083-3.033-0.15-6.3c-0.167-2.333,0.133-3.917,0.9-4.75
					c0.267,0.1,1.367-0.883,3.3-2.95l3.4-3.5l0.75,3.1l0.45,2.9l0.25,2.85c0,1.2,0.083,2,0.25,2.4c0.133,0.367,0.433,0.633,0.9,0.8
					c0.5,0.2,0.833,0.417,1,0.65c0.367,0.5,0.75,1.5,1.15,3c0.333,1.3,0.75,2.15,1.25,2.55l-0.9,1.6
					C86.354,82.186,86.254,82.92,86.454,83.753"/>
				<path class="st2" d="M54.354,52.403c-6.633,4.4-11.533,11.617-14.7,21.65l-0.25-0.1c-0.533,1.233-1.483,2.283-2.85,3.15
					l-4.1,1.85c-0.167-1.133-0.717-2.083-1.65-2.85c0.467-0.433,0.8-1.067,1-1.9c0.233-0.9,0.217-1.717-0.05-2.45l3.4-2.2l3.3-2.35
					l0.4-1.7c1.233-2.133,4.8-6.217,10.7-12.25c5-4.8,7.65-7.7,7.95-8.7l3.05,1.05l2.9-0.4l2.85-0.3l2.4,1.05l3,1.6
					c1,0.6,2.95,1.55,5.85,2.85l5,2.3c1.6,0.867,2.65,1.917,3.15,3.15l0.5,1.8v1.4c-0.167-0.2-0.4-0.367-0.7-0.5
					c-4.267,0.767-7.467-0.9-9.6-5l-3.35-1.95c-1.333-0.7-2.7-1.1-4.1-1.2v0.25c-1.833-1.2-4.167-1.367-7-0.5
					C58.287,51.453,55.921,52.203,54.354,52.403"/>
				<path class="st0" d="M86.254,97.853c-0.5,1.167-0.517,2.467-0.05,3.9c-2.1,1.167-3.533,2.267-4.3,3.3
					c-1.233,1.633-1.55,3.667-0.95,6.1c-1.3,0.433-2.3,1.217-3,2.35c-0.7,1.2-0.9,2.567-0.6,4.1h-0.25v0.25
					c-1.033-1.167-1.05-2.567-0.05-4.2l2.9-3.5c-0.5-2.167-0.083-4.05,1.25-5.65l4.05-3.45c-0.4-0.867-0.467-1.55-0.2-2.05
					C85.187,98.703,85.587,98.32,86.254,97.853"/>
				<path class="st1" d="M85.504,54.253l0.2,1.6c-0.5-1.233-1.55-2.283-3.15-3.15l-5-2.3c-2.9-1.3-4.85-2.25-5.85-2.85
					c0.833,0.433,1.483,0.7,1.95,0.8l6.1,2.8C82.154,52.253,84.071,53.286,85.504,54.253"/>
				<path class="st2" d="M68.204,50.653c4.7,1.7,7.983,4.183,9.85,7.45c-2.6,1.467-4.6,4.35-6,8.65c1.167-2.467,2.033-4.133,2.6-5
					c1.133-1.7,2.433-2.917,3.9-3.65c1.5,0.433,2.533,1.383,3.1,2.85c-0.133,0.567-1.2,1.833-3.2,3.8l-3.5,3.4
					c-1,0.667-1.417,1.967-1.25,3.9c0.267,3,0.35,4.833,0.25,5.5c-1.733-1.167-2.85-2.05-3.35-2.65l1.2-7.2
					c-0.267,0.733-0.533,1.967-0.8,3.7l-0.85,3.75h-0.5v0.2c-1.733-2.367-4.533-3.417-8.4-3.15l-4.8,0.5l-4.55-0.1l-1.5,1.55
					c-0.633,0.6-1.1,1.15-1.4,1.65l-3.9-0.25l-3.9-0.55l0.15-0.35c-0.3-0.367-0.783-0.6-1.45-0.7l-0.25,0.1
					c3.167-10.033,8.067-17.25,14.7-21.65c1.567-0.2,3.933-0.95,7.1-2.25c2.833-0.867,5.167-0.7,7,0.5H68.204 M55.754,67.453
					c-0.133,0.433-0.033,0.733,0.3,0.9c0.333,0.133,0.633,0.067,0.9-0.2C57.021,67.62,56.621,67.386,55.754,67.453"/>
				<path class="st1" d="M60.554,45.603l-3.05-1.05l3.3,0.8l2.7-0.4l2.8-0.3c0.633,0.133,1.883,0.7,3.75,1.7l3.6,2l-3.05-1.55
					l1.1,0.75l-3-1.6l-2.4-1.05l-2.85,0.3L60.554,45.603"/>
				<path class="st1" d="M73.654,48.353c-0.467-0.1-1.117-0.367-1.95-0.8l-1.1-0.75L73.654,48.353"/>
				<path class="st1" d="M60.304,81.603h-2.45c-0.667,0-0.25-0.15,1.25-0.45l0.65,0.2L60.304,81.603"/>
				<path class="st1" d="M57.504,44.553c-0.3,1-2.95,3.9-7.95,8.7C54.221,48.52,56.871,45.62,57.504,44.553"/>
				<path class="st1" d="M55.754,67.453c0.867-0.067,1.267,0.167,1.2,0.7c-0.267,0.267-0.567,0.333-0.9,0.2
					C55.721,68.186,55.621,67.886,55.754,67.453"/>
				<path class="st1" d="M57.004,44.353l-1.25-0.4l-6-1.2l3.4,0.2L57.004,44.353"/>
				<path class="st1" d="M54.804,36.853c-0.233-0.133-0.317-0.333-0.25-0.6c0.367-0.033,0.6,0.183,0.7,0.65l-0.25,1.05h-0.95
					l-0.1-0.5l-0.15-0.5c0.1-0.233,0.183-0.167,0.25,0.2c0.1,0.467,0.267,0.65,0.5,0.55l0.45-0.25
					C55.071,37.22,55.004,37.02,54.804,36.853"/>
				<path class="st1" d="M39.204,64.353c0.333-0.867,1.583-2.4,3.75-4.6l6.6-6.5c-5.9,6.033-9.467,10.117-10.7,12.25L39.204,64.353"
					/>
				<path class="st1" d="M43.504,38.653c-0.467,0.1-1.1-0.217-1.9-0.95c-0.833-0.8-1.567-1.2-2.2-1.2l-0.65-2.1
					c-0.3-0.867-0.483-1.617-0.55-2.25l0.65,1.5l0.55,2.1l2,1.55L43.504,38.653"/>
				<path class="st0" d="M23.654,52.153c-0.767,1.7-1.117,2.717-1.05,3.05c0.067,0.333,0.367,0.817,0.9,1.45
					c0.5,0.6,0.767,1.167,0.8,1.7c0.033,0.5-0.133,1.15-0.5,1.95c-0.4,0.933-0.633,1.633-0.7,2.1l3.95,1.95
					c1.267,0.967,1.717,2.483,1.35,4.55l1.7,1.25l1.65,1.4l6.45-4.6c0.067-0.333,0.283-0.817,0.65-1.45l-0.4,1.7l-3.3,2.35l-3.4,2.2
					c0.267,0.733,0.283,1.55,0.05,2.45c-0.2,0.833-0.533,1.467-1,1.9c0.933,0.767,1.483,1.717,1.65,2.85l4.1-1.85
					c1.367-0.867,2.317-1.917,2.85-3.15l0.25,0.1l0.25-0.1c0.667,0.1,1.15,0.333,1.45,0.7l-0.15,0.35l0.15,0.35
					c-1.5,0.2-2.933,0.8-4.3,1.8c-1.7,1.233-2.983,2-3.85,2.3c0.8,0.267,1.6,0.95,2.4,2.05c0.8,1.133,1.35,2.367,1.65,3.7
					c0.367,1.533,0.317,3.167-0.15,4.9c-0.467,1.767-1.133,2.7-2,2.8v-0.25h-0.25c0.033-0.1,0.15-0.183,0.35-0.25l0.35-0.25
					c-0.133-0.367,0.067-1.317,0.6-2.85c0.467-1.367,0.433-2.333-0.1-2.9c0.067,0.833,0,1.533-0.2,2.1l-0.5,1.75l0.15-2.25l0.05-2.3
					l0.25,0.25l0.25,0.2c0.433-0.8,0.267-1.517-0.5-2.15l0.05,0.75c0.033,0.333-0.05,0.483-0.25,0.45l-0.75-3.85
					c-1.033-0.167-2.2-1.233-3.5-3.2c-1.133-1.667-2.683-2.35-4.65-2.05c-0.2,0.1-0.233,0.267-0.1,0.5
					c0.133,0.2,0.083,0.35-0.15,0.45c-0.533-0.7-1.533-0.85-3-0.45l-3.25,0.45l5-1l5.1-0.2c1.167-1.333,1.267-2.7,0.3-4.1
					c-0.767-1.067-1.9-1.933-3.4-2.6c1.067-1.967,0.6-3.533-1.4-4.7c-2-1.133-3.617-0.85-4.85,0.85
					c-0.267-0.267-0.717-0.433-1.35-0.5l-1.55,0.25l0.25-0.5l2.85-0.05c0.633-0.2,1.2-0.65,1.7-1.35c-0.033-0.3,0.233-1.667,0.8-4.1
					c0.333-1.5-0.167-2.7-1.5-3.6c0-0.7,0.317-1.667,0.95-2.9c0.567-1.033,0.733-2.067,0.5-3.1l-1.65-0.7l1.75-0.1
					C24.187,49.586,24.254,50.753,23.654,52.153 M40.304,75.053c0.367-0.067,0.55-0.2,0.55-0.4l-0.95-0.5l-0.35,0.7
					c-0.2,0.267-0.167,0.433,0.1,0.5C39.687,75.22,39.904,75.12,40.304,75.053"/>
				<path class="st1" d="M39.904,48.253c0.3-0.433,0.567-0.4,0.8,0.1c0.267,0.533,0.233,0.9-0.1,1.1
					c-0.5-0.267-0.733-0.583-0.7-0.95l0.2,0.15l0.05,0.3c0.267,0,0.333-0.117,0.2-0.35L39.904,48.253"/>
				<path class="st2" d="M40.854,74.653c0,0.2-0.183,0.333-0.55,0.4c-0.4,0.067-0.617,0.167-0.65,0.3
					c-0.267-0.067-0.3-0.233-0.1-0.5l0.35-0.7L40.854,74.653"/>
				<path class="st1" d="M39.904,42.503c0.6-0.5,0.6-0.383,0,0.35c-0.367,0.433-0.767,0.55-1.2,0.35
					c-0.167-0.167-0.25-0.483-0.25-0.95l0.5,0.7C39.454,42.953,39.771,42.803,39.904,42.503"/>
				<path class="st4" d="M38.354,24.153l0.45,1.15l-2.6,2.4c0.6-1.7,1.267-2.85,2-3.45L38.354,24.153"/>
				<path class="st1" d="M35.354,52.953l5.75,3.7l-4.8-2.75c-1.9-1.133-3.35-2.3-4.35-3.5c-0.333-0.367-0.517-0.8-0.55-1.3v-1.5
					C31.671,49.636,32.987,51.42,35.354,52.953"/>
				<path class="st0" d="M36.204,27.703l-1.35,2.3l-2.2,1.55c-0.9,0.633-1.45,1.4-1.65,2.3l2.95-1.45
					c1.433-0.867,2.533-1.417,3.3-1.65c-3.433,2.1-6.867,4.333-10.3,6.7l-0.5,3.35l2.7,1.9c1.033,0.733,1.817,1.467,2.35,2.2
					l-0.1,0.85l-0.15-0.6c-0.2-0.767-0.883-1.5-2.05-2.2l-2.5-1.65c-0.233,0.367-0.383,1.067-0.45,2.1
					c-0.033,1.1-0.133,1.833-0.3,2.2c0.767,0.933,1.4,1.917,1.9,2.95c0.667,1.333,0.85,2.35,0.55,3.05
					c-0.233-2.233-1.117-3.983-2.65-5.25l-0.9,1.15c-0.733,0.433-1.233,0.767-1.5,1l0.1,0.15l-1.75,0.1h-0.05l0.25-0.75
					c1.833-0.267,2.983-1.6,3.45-4l0.4-6.55l1.75-1.35c0.7-0.533,1.383-0.883,2.05-1.05c0.367-0.4,0.667-1.067,0.9-2
					c0.267-0.933,0.617-1.633,1.05-2.1c0.167-0.2,0.617-0.45,1.35-0.75c0.733-0.267,1.25-0.567,1.55-0.9L36.204,27.703"/>
				<path class="st1" d="M26.704,53.303c-0.2,0.967-0.533,1.567-1,1.8C25.237,55.336,25.571,54.736,26.704,53.303"/>
				<path class="st4" d="M12.604,88.303l0.1,0.5c-0.233,1.833-0.85,3.117-1.85,3.85l-2.6,0.25l-1.5-1.15l-1.45-1.2l0.65-2.55
					l0.5-0.45C8.487,87.353,10.537,87.603,12.604,88.303"/>
				<path class="st1" d="M11.554,65.753c-0.2,0.6-0.167,1.117,0.1,1.55c0.3,0.567,0.433,1.1,0.4,1.6l-1.7-3.75
					c-0.933-1.233-2.2-1.583-3.8-1.05c0.133-0.567,0.967-0.65,2.5-0.25C10.587,64.253,11.421,64.886,11.554,65.753"/>
				<path class="st8" d="M115.004,82.353l0.8,0.35l0.75-0.25c0.233-0.333,0.233-0.8,0-1.4c-0.067-0.1-0.233-0.217-0.5-0.35
					l-0.5-0.35c-0.333,0.1-0.55,0.383-0.65,0.85C114.837,81.603,114.871,81.986,115.004,82.353z"/>
				<path class="st9" d="M144.654,36.853c1.3,0,2.567,0.583,3.8,1.75c-0.1,0.867,0.267,1.75,1.1,2.65
					c1.033,1.067,1.617,1.85,1.75,2.35l0.05,1.2c-0.067,0.533-0.033,0.917,0.1,1.15c1.333,1.533,3.117,1.8,5.35,0.8
					c2.733-1.233,4.6-1.683,5.6-1.35c0.8-2.133,2.267-3.15,4.4-3.05c2.033,0.1,3.617,1.067,4.75,2.9"/>
				<path class="st10" d="M191.454,87.003l-1.55,1.75c-4.033,1.033-7.533,1.5-10.5,1.4c-3.867-0.133-7.183-1.2-9.95-3.2l-5.05,0.2"
					/>
				<path class="st10" d="M194.554,78.353l-1.3,0.1l-1.3-0.4l-6,1.65c-2.3,0.433-4.35,0.45-6.15,0.05l-1.95-0.6
					c-0.733-0.167-1.367,0-1.9,0.5c-2.8,0.867-5.85,0.517-9.15-1.05c-3.667-2.167-6.417-3.683-8.25-4.55"/>
				<path class="st11" d="M123.904,66.153c2.2,0.4,5.083,0.4,8.65,0l8.65-0.8c2.5-2.767,4.25-4.5,5.25-5.2
					c1.867-1.333,4-1.917,6.4-1.75l12.45-0.9"/>
				<path class="st11" d="M160.754,64.953l-8.15,1.5l-8.1,1.45c-0.467,0.467-0.85,1.333-1.15,2.6l-0.9,3
					c-1,1.933-2.733,2.983-5.2,3.15c-3.333-0.167-6.083-0.167-8.25,0l-4.2,0.3l-4.45-0.2l-8.55-1.35
					c-3.1-0.767-4.983-2.05-5.65-3.85"/>
				<path class="st10" d="M86.454,74.153c1.433,1.267,3.467,2.367,6.1,3.3l7.4,2.4c2.8,1.067,4.683,2.217,5.65,3.45
					c0.9,1.233,1.75,2.067,2.55,2.5l3.8,1.5c1.7,0.667,3.4,1.483,5.1,2.45c1.333,0.767,3.8,1.117,7.4,1.05l8.1-0.5l6.95,0.05
					c3.033-0.167,4.733-0.9,5.1-2.2c1.533-0.833,3.733-2.317,6.6-4.45c2.6-1.567,5.133-1.983,7.6-1.25"/>
				<path class="st12" d="M115.454,127.653l0.3-2.7l2.3-1.75c0.833-0.7,1.467-1.4,1.9-2.1c0.767,0.567,1.8,0.683,3.1,0.35l2.95-0.5
					c0.167,0.6,0.567,1.117,1.2,1.55l1.75,0.85"/>
				<path class="st8" d="M115.454,127.653c2.067,0.7,4.417,0.45,7.05-0.75c1.5-0.667,3.65-1.85,6.45-3.55"/>
				<path class="st13" d="M135.304,123.153l-3.15,0.3l-3.2-0.1"/>
				<path class="st12" d="M106.704,132.303c0.033-0.167,0.25-0.483,0.65-0.95c1.633,0.133,3.167-0.1,4.6-0.7
					c1.567-0.667,2.733-1.667,3.5-3"/>
				<path class="st14" d="M106.704,132.303c1.2,1.133,4.517,0.933,9.95-0.6l7.35-1.65c2.833-0.767,4.767-1.9,5.8-3.4l3-0.35l1.5-1.4
					l1-1.75"/>
				<path class="st10" d="M102.404,134.053c1.6-0.2,3.033-0.783,4.3-1.75"/>
				<path class="st15" d="M41.204,75.003l3.9,0.55l3.9,0.25c0.3-0.5,0.767-1.05,1.4-1.65l1.5-1.55l4.55,0.1l4.8-0.5
					c3.867-0.267,6.667,0.783,8.4,3.15"/>
				<path class="st12" d="M39.654,74.053c3.167-10.033,8.067-17.25,14.7-21.65c1.567-0.2,3.933-0.95,7.1-2.25
					c2.833-0.867,5.167-0.7,7,0.5"/>
				<path class="st11" d="M38.354,24.153l0.45,1.15c1.467,3.167,3.783,5.05,6.95,5.65l4.35,0.55l4.6,1l12.6,4.4
					c0,3.033,1.55,5.267,4.65,6.7c2.567,1.167,5.417,1.533,8.55,1.1c4.367-0.6,8.6-0.15,12.7,1.35l2.1,3.4
					c0.667,1.3,0.817,2.533,0.45,3.7c1.033,0.433,2.583,1.383,4.65,2.85c1.933,1.367,3.5,2.25,4.7,2.65
					c1.167,0.4,2.767,0.667,4.8,0.8l4.95,0.5c0.933,0.8,2.25,1.8,3.95,3c2.033,1.433,3.733,2.5,5.1,3.2l1.9,0.75"/>
				<path class="st16" d="M112.854,108.003l0.5,0.85l0.45,0.85l0.95,1.1l0.75,1.3l-1.4-1.7c-0.6-0.7-1.017-1.333-1.25-1.9
					c-1-0.8-2.183-1.3-3.55-1.5c-1.633-0.2-2.767,0.217-3.4,1.25c0.133-1.1,1.133-1.617,3-1.55
					C110.671,106.736,111.987,107.17,112.854,108.003z"/>
				<path class="st17" d="M12.054,68.903l-1.7-3.75c-0.933-1.233-2.2-1.583-3.8-1.05c0.133-0.567,0.967-0.65,2.5-0.25
					c1.533,0.4,2.367,1.033,2.5,1.9c-0.2,0.6-0.167,1.117,0.1,1.55C11.954,67.87,12.087,68.403,12.054,68.903z"/>
				<path class="st18" d="M201.654,60.503c1.033-0.267,2.133-0.083,3.3,0.55c1.433,0.767,1.933,1.933,1.5,3.5
					c0.167,0.233,0.717,0.533,1.65,0.9c0.733,0.3,1.15,0.733,1.25,1.3l-1.2-0.95c-0.667-0.533-1.317-0.783-1.95-0.75
					c0.233-1.333-0.1-2.417-1-3.25C204.337,61.003,203.154,60.57,201.654,60.503z"/>
				<path class="st19" d="M174.054,38.653c-1.333,0.1-2.933,0.9-4.8,2.4l-0.5,0.6c-0.233,0.2-0.15,0,0.25-0.6
					c0.467-0.7,1.183-1.3,2.15-1.8C172.221,38.653,173.187,38.453,174.054,38.653z"/>
			</g>
		</g>
	</g>
	<path class="st20" d="M85.954,58.053c-0.133,0.6-0.75,1.133-1.85,1.6c-1.133,0.433-1.783,1.017-1.95,1.75
		c0.167,1.533,0.217,4.383,0.15,8.55c0.2,3.533,1.183,5.633,2.95,6.3c0.9,1.133,1.333,2.783,1.3,4.95l-0.1,5.85
		c0.133,1.133,0.55,2.733,1.25,4.8c0.7,1.967,1.083,3.417,1.15,4.35c-0.733,0.1-1.45,0.367-2.15,0.8l-1.7,1.35
		c0.067,1.433-0.317,2.8-1.15,4.1c-1.133,1.767-1.783,2.883-1.95,3.35c-0.367-0.067-0.75-0.4-1.15-1l-1-1.4
		c-1.533-1.3-2.817-2.017-3.85-2.15l-4.45,0.45c-1.933,0.433-3.5,0.433-4.7,0l-5.25-2.85c-3.333-1.967-6.133-4.767-8.4-8.4
		c-1.667-1.167-3.233-2.717-4.7-4.65c-1.067-1.4-2.3-3.3-3.7-5.7l-0.5-2.15c-1.7-1.4-3.617-2.033-5.75-1.9l-0.4-5.85
		c-0.1-1.967,0.2-3.617,0.9-4.95c0.667-0.3,1.15-0.95,1.45-1.95l0.95-2.65c0.333-0.567,1.133-1.283,2.4-2.15l3.35-2.4l1.9-2
		l1.7-1.85l1.35-0.8l1.3-0.85l1.7-2.2c0.667-0.933,1.3-1.567,1.9-1.9c1.033-0.6,2.383-1.033,4.05-1.3l4.35-0.15l1.25,0.65l1.35,0.8
		l6.7,2.25c2.367,0.867,4.133,2.033,5.3,3.5c1.267-0.3,2.65,0.4,4.15,2.1C85.538,55.986,86.154,57.219,85.954,58.053"/>
	<path class="st21" d="M167.804,53.253c0.267,0.333,0.433,0.867,0.5,1.6v2c-0.367-0.167-0.55-0.667-0.55-1.5L167.804,53.253"/>
	<path class="st21" d="M35.354,72.653c0.233,0.067,0.317,0.35,0.25,0.85l-0.05,1.1c-0.333-0.067-0.483-0.333-0.45-0.8L35.354,72.653
		"/>
</g>
</svg>
