<?xml version="1.0" encoding="utf-8"?>
<!-- Generator: Adobe Illustrator 24.0.1, SVG Export Plug-In . SVG Version: 6.00 Build 0)  -->
<svg version="1.1" id="Camada_1" xmlns="http://www.w3.org/2000/svg" xmlns:xlink="http://www.w3.org/1999/xlink" x="0px" y="0px"
	 viewBox="0 0 74.152 116.217" style="enable-background:new 0 0 74.152 116.217;" xml:space="preserve">
<style type="text/css">
	.st0{fill-rule:evenodd;clip-rule:evenodd;fill:#5F5964;}
	.st1{fill-rule:evenodd;clip-rule:evenodd;}
	.st2{fill-rule:evenodd;clip-rule:evenodd;fill:#D2CEE0;}
	.st3{fill-rule:evenodd;clip-rule:evenodd;fill:#6B6570;}
	.st4{fill:none;stroke:#000000;stroke-width:0.4;stroke-linecap:round;}
	.st5{fill:none;stroke:#000000;stroke-width:0.55;stroke-linecap:round;}
	.st6{fill:none;stroke:#000000;stroke-width:0.45;stroke-linecap:round;}
	.st7{opacity:0.52;fill-rule:evenodd;clip-rule:evenodd;fill:#291633;}
</style>
<g transform="matrix(1.0, 0.0, 0.0, 1.0, 0.0, -0.05)">
	<g transform="matrix(1.0, 0.0, 0.0, 1.0, 0.0, 0.05)">
		<g id="shape0" transform="matrix(1.0, 0.0, 0.0, 1.0, 0.0, -0.05)">
			<path class="st0" d="M50.887,41.639l1.3,1.6l1.25,1.9l2.45,5.2c0.933,2.1,1.483,3.833,1.65,5.2c0.233,1.933-0.15,4.6-1.15,8
				c-1.133,3.933-1.767,6.833-1.9,8.7l-1.45,1.3l-0.05-1.1l-0.4,1.45c-0.567,2.133-0.917,4.3-1.05,6.5
				c-0.133,2.667,0.117,4.733,0.75,6.2v-1.8c-0.033-0.767,0.05-1.283,0.25-1.55c0.167,0.233,0.717,0.55,1.65,0.95v-0.2l3.5,5.85
				c1.067,2.367,1.317,4.567,0.75,6.6c-1.833,1.8-4.267,3.917-7.3,6.35l-7.05,5.6c-1.833,1.5-4.017,2.333-6.55,2.5
				c-3.2-0.067-5.883-0.05-8.05,0.05l-1.05-0.15l-3.4-1.8c-1.8-0.967-3.15-1.583-4.05-1.85c0.133-0.233,0.383-0.283,0.75-0.15
				c0.4,0.133,0.667,0.133,0.8,0c-1.8-0.233-3.833-0.983-6.1-2.25c-2.5-1.5-4.383-2.583-5.65-3.25l-0.5-0.95l2-4.6
				c0.8-1.667,1.65-3.017,2.55-4.05c-0.133-1.1,0.15-2.083,0.85-2.95c0.533-0.667,1.133-1.117,1.8-1.35l0.5,2.15l5.85,3.8
				c2.367,1.333,4.567,2.15,6.6,2.45c-5.1-1.933-9.183-4.267-12.25-7c0.133-2.133-0.367-4.333-1.5-6.6
				c-1.367-2.7-2.133-4.65-2.3-5.85l0.6-0.45l0.6-0.5l-0.95-7.35c-0.333-3.1-0.817-5.383-1.45-6.85c0.433,4.033,0.9,7.8,1.4,11.3
				c-1.033,0.7-1.933,0.7-2.7,0c-0.733-0.667-1.033-1.633-0.9-2.9c0.333,0.433,0.867,0.583,1.6,0.45c0.733-0.1,1.167-0.4,1.3-0.9
				c-1.733,0.9-2.833,0.217-3.3-2.05c-0.567-2.967-1.067-4.6-1.5-4.9c0.4-0.667,0.667-1.95,0.8-3.85c0.167-1.833,0.533-3.2,1.1-4.1
				l1.35-0.05l0.85,0.05c0.267,0.533,0.433,1.367,0.5,2.5l0.2,2.8l-1.85,0.25c-0.8,0.1-1.3-0.067-1.5-0.5
				c0.2-0.3,0.283-0.7,0.25-1.2c1.267-0.167,1.65-0.317,1.15-0.45c-0.467-0.1-1.017,0.05-1.65,0.45v1.7
				c0.133,0.3,0.75,0.45,1.85,0.45c0.9-0.033,1.4,0.183,1.5,0.65c-0.033-0.3,0.033-0.517,0.2-0.65l0.75-0.25l-0.05-1.2l-0.15-1.2
				l2.05-3.95l1.75-3.45l2-5.05c0.833-2,1.85-3.117,3.05-3.35c-0.067,1.867,0.017,3.217,0.25,4.05l5.05,2.15
				c2.367-1.533,4.767-2.333,7.2-2.4l2.25-1.9l1.8-1.7c-0.533,0.167-1.217,0.683-2.05,1.55c-0.867,0.933-1.7,1.55-2.5,1.85l-1.7,0.1
				l-1.9,0.1c-0.267,0.067-0.767,0.383-1.5,0.95c-0.667,0.467-1.2,0.717-1.6,0.75c-0.733,0.033-1.583-0.267-2.55-0.9l-2.25-1.5
				l-0.2-1.75c-0.133-0.7-0.067-1.317,0.2-1.85l4.15,1.7l4.25,1.65c0.633-0.7,0.783-2.05,0.45-4.05c1.1-0.1,1.75-0.583,1.95-1.45
				c-0.367-1.933-0.45-3.417-0.25-4.45c0.267-1.467,1.067-2.3,2.4-2.5l0.05,3.7c0.1,1.467,0.083,2.55-0.05,3.25
				c0.467,0.233,1.233,0.65,2.3,1.25l2.75,0.2c0.333,1.267,1.117,1.9,2.35,1.9c1.033,0,2.083-0.4,3.15-1.2
				c-0.833,0.067-2.033,0.383-3.6,0.95l-0.85-0.95c-0.367-0.367-0.567-0.767-0.6-1.2c1.767-1.2,2.9-2.167,3.4-2.9h-0.25
				c1.7-1.567,3.15-2.583,4.35-3.05l0.1,0.1c0.133,0.567,0.2,1.867,0.2,3.9C50.02,39.706,50.32,40.806,50.887,41.639 M49.887,43.889
				c0.033-0.267,0.4-0.467,1.1-0.6l0.8-0.35c-0.5-0.233-1.017-0.083-1.55,0.45L49.887,43.889 M42.437,62.139
				c-1.3,0.933-2.85,1.15-4.65,0.65c-1.667-0.433-2.917-1.217-3.75-2.35h-3.85c-1.4,0.067-2.433,0.317-3.1,0.75v5.5l2.55,0.45
				c1.267,0,1.933,0.333,2,1c-2.667-0.367-4.75-0.367-6.25,0c-0.567,1.033-0.783,2.35-0.65,3.95c0.167,1.9,0.15,3.217-0.05,3.95
				c0.333,0.3,0.583,0.817,0.75,1.55l0.45,1.8l7.35,0.8c2.967,0.267,5.483,0.25,7.55-0.05h-0.25v-0.25l-7.15-0.45l-7-0.5
				c-0.367-1.233-0.3-2.117,0.2-2.65h-0.55l-0.4-0.25v-1.45c-0.033-0.633,0.05-1.033,0.25-1.2l0.8,0.15l0.9,0.1h1.4l0.7-0.1
				c0-0.167-0.233-0.217-0.7-0.15l-3.1-0.2c-0.267-0.667-0.433-1.4-0.5-2.2c-0.033-0.967,0.133-1.683,0.5-2.15l1.4-0.05l1.25-0.2
				l-0.25,0.3l-0.25,0.2l1.85-0.3l2-0.2l0.3,1.25l0.2,0.95c0.2-0.6,0.233-1.317,0.1-2.15l-0.6-1.95
				c-0.367-0.367-1.067-0.483-2.1-0.35c-1,0.1-1.667-0.017-2-0.35l-0.1-2.3c-0.133-0.9-0.167-1.667-0.1-2.3
				c2.233-0.733,4.35-0.7,6.35,0.1l5.15,2.3c0.2-0.233,0.867-0.5,2-0.8C42.054,62.722,42.504,62.439,42.437,62.139 M43.187,58.789
				l-0.05,1.85c0,0.833,0.083,1.167,0.25,1l0.05-1.85C43.437,58.956,43.354,58.622,43.187,58.789 M30.787,62.839l-1.8,0.25l2.1,0.05
				l1.75-0.3H30.787 M36.737,66.889c0.2,0.133,0.267,0.383,0.2,0.75h-0.6l-0.35,0.25l1.2-0.25v-0.95l-0.7-0.2
				c-0.267-0.133-0.433-0.067-0.5,0.2L36.737,66.889 M31.637,70.789l-2.9-0.45l-2.35,0.2l2.6,0.15L31.637,70.789 M40.987,71.489
				l0.25-1.2l-0.5-0.25c-0.267-0.067-0.417,0.017-0.45,0.25c0.533-0.067,0.767,0.167,0.7,0.7l-0.45,0.25l-0.5-0.7v0.95H40.987
				 M20.837,58.539c0.2-0.333,0.15-0.667-0.15-1c-0.133-0.133-0.167-0.117-0.1,0.05c0.1,0.433-0.017,0.75-0.35,0.95l-0.85,0.45
				C19.92,59.089,20.404,58.939,20.837,58.539 M21.337,81.789c0.367-0.067,0.6-0.367,0.7-0.9c0.1-0.533-0.133-0.783-0.7-0.75
				c0.233,0.267,0.283,0.617,0.15,1.05L21.337,81.789 M21.287,98.489c-0.467-0.233-0.767-0.117-0.9,0.35l0.95,0.15l0.45,0.6
				C21.92,99.089,21.754,98.722,21.287,98.489 M47.237,79.639c0.567-0.033,0.95,0.05,1.15,0.25c0.233,0.233,0.25,0.55,0.05,0.95
				l-0.65-0.1c-0.167-0.133-0.267-0.1-0.3,0.1l0.95,0.15c0.367-0.167,0.533-0.45,0.5-0.85c-0.033-0.4-0.283-0.7-0.75-0.9
				C47.687,79.072,47.37,79.206,47.237,79.639 M44.837,85.189c-0.167,0-0.25,0.067-0.25,0.2c0.6,0.067,0.917-0.217,0.95-0.85
				c0.067-0.633-0.167-0.983-0.7-1.05l0.25,0.9C45.187,84.789,45.104,85.056,44.837,85.189 M29.987,88.689
				c0-0.767-0.083-1.067-0.25-0.9v1.8c-0.033,0.733,0.05,1.017,0.25,0.85V88.689 M34.787,84.389c0.1-0.533-0.067-0.75-0.5-0.65
				l-0.25,1.2C34.404,85.106,34.654,84.922,34.787,84.389 M37.187,91.889c-0.2-0.067-0.283-0.233-0.25-0.5
				c-0.6-0.067-0.917,0.1-0.95,0.5l0.5,0.15c-0.4,0.133-0.567,0.317-0.5,0.55C36.62,92.522,37.02,92.289,37.187,91.889
				 M30.687,96.189l4.6,0.05c1.8-0.067,3.233-0.317,4.3-0.75l-4.15,0.2l-4.05,0.3l-0.25-1.35c-0.2-0.533-0.433-0.65-0.7-0.35
				l0.65,0.95C31.22,95.706,31.087,96.022,30.687,96.189 M32.087,100.589c-0.133,0.033-0.117,0.1,0.05,0.2
				c0.133-0.2,0.583-0.283,1.35-0.25l1.3-0.25h-2.4L32.087,100.589 M43.187,96.939l3.35-2.3c1.533-0.933,2.483-1.683,2.85-2.25
				l-3.4,2.25C44.52,95.539,43.587,96.306,43.187,96.939 M45.987,91.539c2.4-1.5,4.183-2.9,5.35-4.2c-1.267,1.1-3.2,2.45-5.8,4.05
				l-5.95,3.85C42.554,93.606,44.687,92.372,45.987,91.539 M41.737,97.389l-0.95,1c-2.733,1.733-2.967,1.95-0.7,0.65
				C41.054,98.472,41.604,97.922,41.737,97.389 M51.087,65.239l-0.8-0.05l-0.4,0.05C50.42,65.972,50.82,65.972,51.087,65.239
				 M51.187,64.289c-0.033-0.267-0.15-0.267-0.35,0l0.25,0.9L51.187,64.289 M54.037,63.639l0.4-0.05c0.1-0.433,0.083-0.867-0.05-1.3
				c-0.167-0.467-0.383-0.517-0.65-0.15c0.433,0.167,0.533,0.483,0.3,0.95l-0.3,0.7L54.037,63.639 M53.987,89.589l1.4-0.8l-0.15-0.7
				c-0.1-0.233-0.283-0.333-0.55-0.3c0.333,0.567,0.067,1.117-0.8,1.65c-0.867,0.533-1.233,0.95-1.1,1.25L53.987,89.589
				 M29.237,109.389c0.067,0.8,0.25,0.367,0.55-1.3c0.333-1.733,0.4-2.5,0.2-2.3C29.754,106.522,29.504,107.722,29.237,109.389
				 M24.437,104.389v-0.6l-0.25-0.4l-0.25,0.55l-0.45,0.45l0.4,0.15L24.437,104.389"/>
			<path class="st1" d="M54.687,87.789c0.267-0.033,0.45,0.067,0.55,0.3l0.15,0.7l-1.4,0.8l-1.2,1.1
				c-0.133-0.3,0.233-0.717,1.1-1.25C54.754,88.906,55.02,88.356,54.687,87.789"/>
			<path class="st1" d="M53.737,62.139c0.267-0.367,0.483-0.317,0.65,0.15c0.133,0.433,0.15,0.867,0.05,1.3l-0.4,0.05l-0.3,0.15
				l0.3-0.7C54.27,62.622,54.17,62.306,53.737,62.139"/>
			<path class="st1" d="M53.037,73.539l-0.5,4.25c-0.233,1.933-0.317,3.433-0.25,4.5c0.133,0.233,0.533,0.483,1.2,0.75
				c0.567,0.2,0.883,0.517,0.95,0.95h-0.25v0.2c-0.933-0.4-1.483-0.717-1.65-0.95c-0.2,0.267-0.283,0.783-0.25,1.55v1.8
				c-0.633-1.467-0.883-3.533-0.75-6.2c0.133-2.2,0.483-4.367,1.05-6.5L53.037,73.539"/>
			<path class="st1" d="M52.987,72.439l0.05,1.1l-0.45,0.35L52.987,72.439"/>
			<path class="st1" d="M51.787,42.939l-0.8,0.35c-0.7,0.133-1.067,0.333-1.1,0.6l0.35-0.5
				C50.77,42.856,51.287,42.706,51.787,42.939"/>
			<path class="st1" d="M50.837,64.289c0.2-0.267,0.317-0.267,0.35,0l-0.1,0.9L50.837,64.289"/>
			<path class="st1" d="M49.887,65.239l0.4-0.05l0.8,0.05C50.82,65.972,50.42,65.972,49.887,65.239"/>
			<path class="st0" d="M49.687,34.339c-1.2,0.467-2.65,1.483-4.35,3.05v-0.2c-0.5,0.467-1.4,1.033-2.7,1.7
				c-1.2,0.6-1.983,1.15-2.35,1.65l-1.7-0.85l-1.4-1.1c-0.233-3.233-0.317-7.067-0.25-11.5l0.4,0.2l0.3-0.2
				c-0.4-0.033-0.55-0.35-0.45-0.95l1.3-1.45c0.433-0.767,0.867-1.25,1.3-1.45l2.3,0.25c0.567,0,1.167-0.233,1.8-0.7
				c-0.167-1.033,0.067-1.85,0.7-2.45l1.7-1.4c-1.7,0.167-2.667,1.367-2.9,3.6c-0.267,0-0.517,0.1-0.75,0.3l-0.65,0.4
				c-0.667-0.433-1.4-0.583-2.2-0.45c-0.5,0.333-1.1,0.967-1.8,1.9l-1.8,1.9c-2.633,0.467-5.25,0.417-7.85-0.15
				c-2.667-0.567-4.767-1.55-6.3-2.95l-0.25-0.5c-0.4-1.3-0.15-2.867,0.75-4.7l2.55-4.45l6.05,0.8l5.6,0.3l-0.05-0.1l0.1,0.05
				l-0.05,0.05h-0.9c1.567-0.6,4.783-2.417,9.65-5.45c1.8,2.733,2.583,5.583,2.35,8.55c2.5,0.4,3.95,2.9,4.35,7.5
				C52.554,30.039,51.72,32.972,49.687,34.339 M31.387,19.639c-0.267-0.067-0.533,0.033-0.8,0.3s-0.233,0.483,0.1,0.65
				c-0.067-0.4,0.167-0.55,0.7-0.45l0.05,0.75c0.033,0.333-0.05,0.483-0.25,0.45l-0.45-0.15l-0.3-0.35
				c0.067,0.767,0.35,1.017,0.85,0.75c0.533-0.267,0.733-0.75,0.6-1.45L31.387,19.639 M26.137,23.989l-0.5,0.2
				c0.733,0.1,1.05-0.133,0.95-0.7l-0.4-0.2l-0.55-0.05C25.604,23.572,25.77,23.822,26.137,23.989 M44.387,30.239
				c0.367-1.3,0.117-1.55-0.75-0.75c0.3-0.1,0.467-0.017,0.5,0.25v0.7c-0.1,0.233-0.333,0.3-0.7,0.2l-0.5,0.05
				C43.57,31.556,44.054,31.406,44.387,30.239"/>
			<path class="st1" d="M48.937,80.139c0.033,0.4-0.133,0.683-0.5,0.85l-0.95-0.15c0.033-0.2,0.133-0.233,0.3-0.1l0.65,0.1
				c0.2-0.4,0.183-0.717-0.05-0.95c-0.2-0.2-0.583-0.283-1.15-0.25c0.133-0.433,0.45-0.567,0.95-0.4
				C48.654,79.439,48.904,79.739,48.937,80.139"/>
			<path class="st1" d="M45.987,94.639l3.4-2.25c-0.367,0.567-1.317,1.317-2.85,2.25l-3.35,2.3
				C43.587,96.306,44.52,95.539,45.987,94.639"/>
			<path class="st1" d="M45.537,91.389c2.6-1.6,4.533-2.95,5.8-4.05c-1.167,1.3-2.95,2.7-5.35,4.2c-1.3,0.833-3.433,2.067-6.4,3.7
				L45.537,91.389"/>
			<path class="st1" d="M36.937,27.089c-0.067,4.433,0.017,8.267,0.25,11.5l1.4,1.1l1.7,0.85c0.367-0.5,1.15-1.05,2.35-1.65
				c1.3-0.667,2.2-1.233,2.7-1.7v0.2h0.25c-0.5,0.733-1.633,1.7-3.4,2.9c0.033,0.433,0.233,0.833,0.6,1.2l0.85,0.95
				c1.567-0.567,2.767-0.883,3.6-0.95c-1.067,0.8-2.117,1.2-3.15,1.2c-1.233,0-2.017-0.633-2.35-1.9l-2.75-0.2
				c-1.067-0.6-1.833-1.017-2.3-1.25c0.133-0.7,0.15-1.783,0.05-3.25l-0.05-3.7c-1.333,0.2-2.133,1.033-2.4,2.5
				c-0.2,1.033-0.117,2.517,0.25,4.45c-0.2,0.867-0.85,1.35-1.95,1.45c0.333,2,0.183,3.35-0.45,4.05l-4.25-1.65l-4.15-1.7
				c-0.267,0.533-0.333,1.15-0.2,1.85l0.2,1.75l2.25,1.5c0.967,0.633,1.817,0.933,2.55,0.9c0.4-0.033,0.933-0.283,1.6-0.75
				c0.733-0.567,1.233-0.883,1.5-0.95l1.9-0.1l1.7-0.1c0.8-0.3,1.633-0.917,2.5-1.85c0.833-0.867,1.517-1.383,2.05-1.55l-1.8,1.7
				l-2.25,1.9c-2.433,0.067-4.833,0.867-7.2,2.4l-5.05-2.15c-0.233-0.833-0.317-2.183-0.25-4.05c-1.2,0.233-2.217,1.35-3.05,3.35
				l-2,5.05l-1.75,3.45l-2.05,3.95l0.15,1.2l0.05,1.2l-0.75,0.25c-0.167,0.133-0.233,0.35-0.2,0.65c-0.1-0.467-0.6-0.683-1.5-0.65
				c-1.1,0-1.717-0.15-1.85-0.45v-1.7c0.633-0.4,1.183-0.55,1.65-0.45c0.5,0.133,0.117,0.283-1.15,0.45c0.033,0.5-0.05,0.9-0.25,1.2
				c0.2,0.433,0.7,0.6,1.5,0.5l1.85-0.25l-0.2-2.8c-0.067-1.133-0.233-1.967-0.5-2.5l-0.85-0.05l-1.35,0.05
				c-0.567,0.9-0.933,2.267-1.1,4.1c-0.133,1.9-0.4,3.183-0.8,3.85c0.433,0.3,0.933,1.933,1.5,4.9c0.467,2.267,1.567,2.95,3.3,2.05
				c-0.133,0.5-0.567,0.8-1.3,0.9c-0.733,0.133-1.267-0.017-1.6-0.45c-0.133,1.267,0.167,2.233,0.9,2.9c0.767,0.7,1.667,0.7,2.7,0
				c-0.5-3.5-0.967-7.267-1.4-11.3c0.633,1.467,1.117,3.75,1.45,6.85l0.95,7.35l-0.6,0.5l-0.6,0.45c0.167,1.2,0.933,3.15,2.3,5.85
				c1.133,2.267,1.633,4.467,1.5,6.6c3.067,2.733,7.15,5.067,12.25,7c-2.033-0.3-4.233-1.117-6.6-2.45l-5.85-3.8l-0.5-2.15
				c-0.667,0.233-1.267,0.683-1.8,1.35c-0.7,0.867-0.983,1.85-0.85,2.95c-0.9,1.033-1.75,2.383-2.55,4.05l-2,4.6l0.5,0.95
				c1.267,0.667,3.15,1.75,5.65,3.25c2.267,1.267,4.3,2.017,6.1,2.25c-0.133,0.133-0.4,0.133-0.8,0
				c-0.367-0.133-0.617-0.083-0.75,0.15l-1.25-0.2l-4.9-2.55l-3.05-1.6c-1.367-0.8-2.1-1.55-2.2-2.25
				c-0.133-0.833,0.383-2.2,1.55-4.1l2.75-4.8l1.25-2.9c0.433-0.833,1.133-1.467,2.1-1.9c0.033-1.533-0.583-3.217-1.85-5.05
				s-1.85-3.583-1.75-5.25l-0.5-0.2l-0.95-0.05c-0.8-1.767-1.433-4.167-1.9-7.2c-0.467-3.1-1.033-5.267-1.7-6.5
				c0.467-0.667,0.717-1.233,0.75-1.7c0.067-0.567-0.1-1.2-0.5-1.9l1-2.45l0.95-2.55c0.967-0.067,1.983-0.333,3.05-0.8l2.7-1.15
				c0.433-0.567,1.233-2.517,2.4-5.85c0.867-2.5,2.15-4.067,3.85-4.7c-0.1-0.167-0.367-0.417-0.8-0.75
				c-0.4-0.267-0.617-0.583-0.65-0.95l0.25-2.35l0.45-2.2l-0.6-0.95l-0.6-0.95c-0.3-1.5-0.3-3.45,0-5.85l0.5-3.75
				c-0.067-1.9,0.15-3.717,0.65-5.45c0.433-1.467,1.15-3.067,2.15-4.8l0.95,0.35l-2.55,4.45c-0.9,1.833-1.15,3.4-0.75,4.7l0.25,0.5
				c1.533,1.4,3.633,2.383,6.3,2.95c2.6,0.567,5.217,0.617,7.85,0.15l1.8-1.9c0.7-0.933,1.3-1.567,1.8-1.9
				c0.8-0.133,1.533,0.017,2.2,0.45l0.65-0.4c0.233-0.2,0.483-0.3,0.75-0.3c0.233-2.233,1.2-3.433,2.9-3.6l-1.7,1.4
				c-0.633,0.6-0.867,1.417-0.7,2.45c-0.633,0.467-1.233,0.7-1.8,0.7l-2.3-0.25c-0.433,0.2-0.867,0.683-1.3,1.45l-1.3,1.45
				c-0.1,0.6,0.05,0.917,0.45,0.95l-0.3,0.2L36.937,27.089 M35.037,27.239l-1.7,0.1c-0.067,1.467-0.767,2.283-2.1,2.45
				c-1.133,0.133-2.283-0.2-3.45-1c-0.167-0.167-0.25-0.483-0.25-0.95l0.05-1.25l-0.9-0.15l-0.8-0.3
				c0.133,0.567,0.067,1.017-0.2,1.35l-0.75,0.8l0.4,2.1c0.133,0.867,0,1.45-0.4,1.75c-0.033-0.5-0.167-0.783-0.4-0.85l-1.05,0.1
				c-0.3,0.3-0.383,1.1-0.25,2.4l2.7,1c1.2,0.333,2.15,0.25,2.85-0.25c-0.1,0.6,0.2,1.183,0.9,1.75c0.867,0.7,1.367,1.233,1.5,1.6
				c0.233,0.667,0.317,1.533,0.25,2.6l-0.25,2.9l-0.15-2.85c-0.133-1.167-0.167-2.133-0.1-2.9c-0.733-0.9-1.983-1.6-3.75-2.1l-4.4-1
				c-0.167,0.133-0.25,0.4-0.25,0.8v1.1c1.233-0.167,2.583,0.033,4.05,0.6l3.4,1.8c-2.4-1.1-4.167-1.75-5.3-1.95
				c-2.067-0.367-2.95,0.683-2.65,3.15c2.633,1.7,5.2,2.817,7.7,3.35c0.233-0.3,0.4-0.933,0.5-1.9c0.1-0.933,0.25-1.567,0.45-1.9
				l-0.15,2.1c-0.133,0.867-0.167,1.6-0.1,2.2c0.2,0.033,0.433,0.167,0.7,0.4l0.75,0.3c0.467-0.867,0.6-2.167,0.4-3.9l-0.65-4
				l-1.2-0.8c-0.5-0.3-0.817-0.667-0.95-1.1c2.267,1,3.383,2.833,3.35,5.5c0.133-0.267,0.45-0.433,0.95-0.5v-5.75
				c0.2-0.4,0.683-0.8,1.45-1.2l1.45-1.2c-0.2-1.567-0.283-3.167-0.25-4.8L35.037,27.239 M23.737,26.389v-1l-1.1-0.55
				c-0.4-0.233-0.683-0.517-0.85-0.85c-0.333,1.833-0.467,3.667-0.4,5.5c0.067,2.467,0.533,4.067,1.4,4.8
				c-0.4-0.967-0.167-2.25,0.7-3.85l-0.75-1.05c-0.267-0.433-0.417-0.883-0.45-1.35c0.067-0.3,0.3-0.583,0.7-0.85
				C23.42,26.922,23.67,26.656,23.737,26.389 M24.437,27.589c-0.733-0.1-1.133,0.217-1.2,0.95l0.6,1.1
				c0.167,0.533,0.45,0.8,0.85,0.8l-0.2-1.55C24.32,28.422,24.304,27.989,24.437,27.589 M13.387,53.989
				c0.367,0.133,0.583,0.6,0.65,1.4c0.067,0.833,0.25,1.317,0.55,1.45c0-0.4,0.317-1.167,0.95-2.3c0.467-0.9,0.55-1.483,0.25-1.75
				c-0.167,0.267-0.533,0.483-1.1,0.65C14.02,53.639,13.587,53.822,13.387,53.989 M11.987,73.389l0.35,1.1l0.35,1.1l2.4-0.25
				l0.05-1.45c0-0.633-0.1-1.033-0.3-1.2c-0.167,0.433-0.567,0.717-1.2,0.85L11.987,73.389"/>
			<path class="st1" d="M45.437,9.489h0.05c-4.867,3.033-8.083,4.85-9.65,5.45h-0.25C41.52,11.439,44.804,9.622,45.437,9.489"/>
			<path class="st1" d="M44.837,83.489c0.533,0.067,0.767,0.417,0.7,1.05c-0.033,0.633-0.35,0.917-0.95,0.85
				c0-0.133,0.083-0.2,0.25-0.2c0.267-0.133,0.35-0.4,0.25-0.8L44.837,83.489"/>
			<path class="st1" d="M43.637,29.489c0.867-0.8,1.117-0.55,0.75,0.75c-0.333,1.167-0.817,1.317-1.45,0.45l0.5-0.05
				c0.367,0.1,0.6,0.033,0.7-0.2v-0.7C44.104,29.472,43.937,29.389,43.637,29.489"/>
			<path class="st1" d="M43.187,58.789c0.167-0.167,0.25,0.167,0.25,1l-0.05,1.85c-0.167,0.167-0.25-0.167-0.25-1L43.187,58.789"/>
			<path class="st2" d="M42.437,5.789c1.3,1.367,2.3,2.6,3,3.7c-0.633,0.133-3.917,1.95-9.85,5.45l-4.45-0.3l-5.95-1l0.45-0.95
				c-0.367-0.833-0.283-1.7,0.25-2.6c0.533-0.867,1.167-1.283,1.9-1.25c0.433,0.033,0.8,0.25,1.1,0.65
				c0.267,0.4,0.55,0.583,0.85,0.55c-0.3-0.933-0.883-1.433-1.75-1.5c0.4-0.5,1.167-0.783,2.3-0.85c1.1-0.067,1.867,0.083,2.3,0.45
				c-0.2-0.7,0.017-1.083,0.65-1.15l1.55-0.3l-0.45-0.2l-0.55-0.05h-0.2c0.5-0.933,1.317-1.383,2.45-1.35
				c1.133,0,1.983,0.433,2.55,1.3l1.6-0.1l1.4-0.8L42.437,5.789 M30.437,10.289c0.367,0.1,0.733,0.3,1.1,0.6l0.85,0.85
				c-0.033-0.467-0.3-0.867-0.8-1.2C31.12,10.206,30.737,10.122,30.437,10.289"/>
			<path class="st1" d="M39.087,63.789l-5.15-2.3c-2-0.8-4.117-0.833-6.35-0.1c-0.067,0.633-0.033,1.4,0.1,2.3l0.1,2.3
				c0.333,0.333,1,0.45,2,0.35c1.033-0.133,1.733-0.017,2.1,0.35l0.6,1.95c0.133,0.833,0.1,1.55-0.1,2.15l-0.2-0.95l-0.3-1.25
				l-2,0.2l-1.85,0.3l0.25-0.2l0.25-0.3l-1.25,0.2l-1.4,0.05c-0.367,0.467-0.533,1.183-0.5,2.15c0.067,0.8,0.233,1.533,0.5,2.2
				l3.1,0.2c0.467-0.067,0.7-0.017,0.7,0.15l-0.7,0.1h-1.4l-0.9-0.1l-0.8-0.15c-0.2,0.167-0.283,0.567-0.25,1.2v1.45l0.4,0.25h0.55
				c-0.5,0.533-0.567,1.417-0.2,2.65l7,0.5l7.15,0.45v0.25h0.25c-2.067,0.3-4.583,0.317-7.55,0.05l-7.35-0.8l-0.45-1.8
				c-0.167-0.733-0.417-1.25-0.75-1.55c0.2-0.733,0.217-2.05,0.05-3.95c-0.133-1.6,0.083-2.917,0.65-3.95
				c1.5-0.367,3.583-0.367,6.25,0c-0.067-0.667-0.733-1-2-1l-2.55-0.45v-5.5c0.667-0.433,1.7-0.683,3.1-0.75h3.85
				c0.833,1.133,2.083,1.917,3.75,2.35c1.8,0.5,3.35,0.283,4.65-0.65c0.067,0.3-0.383,0.583-1.35,0.85
				C39.954,63.289,39.287,63.556,39.087,63.789"/>
			<path class="st1" d="M41.237,70.289l-0.25,1.2h-0.95v-0.95l0.5,0.7l0.45-0.25c0.067-0.533-0.167-0.767-0.7-0.7
				c0.033-0.233,0.183-0.317,0.45-0.25L41.237,70.289"/>
			<path class="st1" d="M40.787,98.389l0.95-1c-0.133,0.533-0.683,1.083-1.65,1.65C37.82,100.339,38.054,100.122,40.787,98.389"/>
			<path class="st1" d="M31.387,95.989l4.05-0.3l4.15-0.2c-1.067,0.433-2.5,0.683-4.3,0.75l-4.6-0.05
				c0.4-0.167,0.533-0.483,0.4-0.95l-0.65-0.95c0.267-0.3,0.5-0.183,0.7,0.35L31.387,95.989"/>
			<path class="st1" d="M36.687,109.189c0.133-0.667,0.567-0.783,1.3-0.35c0.767,0.433,0.65,0.7-0.35,0.8
				c0.267-0.333,0.25-0.533-0.05-0.6L36.687,109.189"/>
			<path class="st1" d="M37.187,66.689v0.95l-1.2,0.25l0.35-0.25h0.6c0.067-0.367,0-0.617-0.2-0.75l-0.75-0.2
				c0.067-0.267,0.233-0.333,0.5-0.2L37.187,66.689"/>
			<path class="st1" d="M36.937,91.389c-0.033,0.267,0.05,0.433,0.25,0.5c-0.167,0.4-0.567,0.633-1.2,0.7
				c-0.067-0.233,0.1-0.417,0.5-0.55l-0.5-0.15C36.02,91.489,36.337,91.322,36.937,91.389"/>
			<path class="st1" d="M36.737,14.939l-5.6-0.3l4.45,0.3l-0.35,0.15l0.6-0.15H36.737"/>
			<path class="st0" d="M36.437,26.839c-0.033,1.633,0.05,3.233,0.25,4.8l-1.45,1.2c-0.767,0.4-1.25,0.8-1.45,1.2v5.75
				c-0.5,0.067-0.817,0.233-0.95,0.5c0.033-2.667-1.083-4.5-3.35-5.5c0.133,0.433,0.45,0.8,0.95,1.1l1.2,0.8l0.65,4
				c0.2,1.733,0.067,3.033-0.4,3.9l-0.75-0.3c-0.267-0.233-0.5-0.367-0.7-0.4c-0.067-0.6-0.033-1.333,0.1-2.2l0.15-2.1
				c-0.2,0.333-0.35,0.967-0.45,1.9c-0.1,0.967-0.267,1.6-0.5,1.9c-2.5-0.533-5.067-1.65-7.7-3.35c-0.3-2.467,0.583-3.517,2.65-3.15
				c1.133,0.2,2.9,0.85,5.3,1.95l-3.4-1.8c-1.467-0.567-2.817-0.767-4.05-0.6v-1.1c0-0.4,0.083-0.667,0.25-0.8l4.4,1
				c1.767,0.5,3.017,1.2,3.75,2.1c-0.067,0.767-0.033,1.733,0.1,2.9l0.15,2.85l0.25-2.9c0.067-1.067-0.017-1.933-0.25-2.6
				c-0.133-0.367-0.633-0.9-1.5-1.6c-0.7-0.567-1-1.15-0.9-1.75c-0.7,0.5-1.65,0.583-2.85,0.25l-2.7-1c-0.133-1.3-0.05-2.1,0.25-2.4
				l1.05-0.1c0.233,0.067,0.367,0.35,0.4,0.85c0.4-0.3,0.533-0.883,0.4-1.75l-0.4-2.1l0.75-0.8c0.267-0.333,0.333-0.783,0.2-1.35
				l0.8,0.3l0.9,0.15l-0.05,1.25c0,0.467,0.083,0.783,0.25,0.95c1.167,0.8,2.317,1.133,3.45,1c1.333-0.167,2.033-0.983,2.1-2.45
				l1.7-0.1L36.437,26.839"/>
			<path class="st1" d="M32.387,100.289h2.4l-1.3,0.25c-0.767-0.033-1.217,0.05-1.35,0.25c-0.167-0.1-0.183-0.167-0.05-0.2
				L32.387,100.289"/>
			<path class="st1" d="M34.287,83.739c0.433-0.1,0.6,0.117,0.5,0.65c-0.133,0.533-0.383,0.717-0.75,0.55L34.287,83.739"/>
			<path class="st1" d="M33.787,6.439l0.55,0.05l0.45,0.2l-1.55,0.3c-0.633,0.067-0.85,0.45-0.65,1.15
				c-0.433-0.367-1.2-0.517-2.3-0.45c-1.133,0.067-1.9,0.35-2.3,0.85h-0.15c0.133-0.533,1.017-0.95,2.65-1.25
				c1.767-0.3,2.8-0.667,3.1-1.1v0.25H33.787"/>
			<path class="st1" d="M28.987,63.089l1.8-0.25h2.05l-1.75,0.3L28.987,63.089"/>
			<path class="st1" d="M31.887,20.139c0.133,0.7-0.067,1.183-0.6,1.45c-0.5,0.267-0.783,0.017-0.85-0.75l0.3,0.35l0.45,0.15
				c0.2,0.033,0.283-0.117,0.25-0.45l-0.05-0.75c-0.533-0.1-0.767,0.05-0.7,0.45c-0.333-0.167-0.367-0.383-0.1-0.65
				s0.533-0.367,0.8-0.3L31.887,20.139"/>
			<path class="st1" d="M31.637,70.789l-2.65-0.1l-2.6-0.15l2.35-0.2L31.637,70.789"/>
			<path class="st1" d="M30.437,10.289c0.3-0.167,0.683-0.083,1.15,0.25c0.5,0.333,0.767,0.733,0.8,1.2l-0.85-0.85
				C31.17,10.589,30.804,10.389,30.437,10.289"/>
			<path class="st1" d="M29.987,105.789c0.2-0.2,0.133,0.567-0.2,2.3c-0.3,1.667-0.483,2.1-0.55,1.3
				C29.504,107.722,29.754,106.522,29.987,105.789"/>
			<path class="st1" d="M29.737,87.789c0.167-0.167,0.25,0.133,0.25,0.9v1.75c-0.2,0.167-0.283-0.117-0.25-0.85V87.789"/>
			<path class="st1" d="M29.737,10.039c-0.3,0.033-0.583-0.15-0.85-0.55c-0.3-0.4-0.667-0.617-1.1-0.65l0.2-0.3
				C28.854,8.606,29.437,9.106,29.737,10.039"/>
			<path class="st1" d="M28.437,110.789h-0.3c-0.7-0.167-2.167-0.8-4.4-1.9c-2.233-1.1-3.683-1.733-4.35-1.9l0.35-0.05l1.1,0.55
				l0.15-0.35c0.9,0.267,2.25,0.883,4.05,1.85L28.437,110.789"/>
			<path class="st1" d="M27.837,8.539h0.15l-0.2,0.3L27.837,8.539"/>
			<path class="st1" d="M24.937,12.189c-0.233-1.067,0-1.967,0.7-2.7c0.633-0.7,1.367-1.017,2.2-0.95l-0.05,0.3
				c-0.733-0.033-1.367,0.383-1.9,1.25c-0.533,0.9-0.617,1.767-0.25,2.6l-0.45,0.95l-1.05-0.15L24.937,12.189"/>
			<path class="st1" d="M26.587,23.489c0.1,0.567-0.217,0.8-0.95,0.7l0.5-0.2c-0.367-0.167-0.533-0.417-0.5-0.75l0.55,0.05
				L26.587,23.489"/>
			<path class="st1" d="M25.187,13.639l5.95,1l-6.05-0.8L25.187,13.639"/>
			<path class="st1" d="M25.187,13.639l-0.1,0.2l-0.95-0.35L25.187,13.639"/>
			<path class="st0" d="M24.437,27.589c-0.133,0.4-0.117,0.833,0.05,1.3l0.2,1.55c-0.4,0-0.683-0.267-0.85-0.8l-0.6-1.1
				C23.304,27.806,23.704,27.489,24.437,27.589"/>
			<path class="st1" d="M23.937,103.939l0.25-0.55l0.25,0.4v0.6l-0.55,0.15l-0.4-0.15L23.937,103.939"/>
			<path class="st3" d="M23.737,25.389v1c-0.067,0.267-0.317,0.533-0.75,0.8c-0.4,0.267-0.633,0.55-0.7,0.85
				c0.033,0.467,0.183,0.917,0.45,1.35l0.75,1.05c-0.867,1.6-1.1,2.883-0.7,3.85c-0.867-0.733-1.333-2.333-1.4-4.8
				c-0.067-1.833,0.067-3.667,0.4-5.5c0.167,0.333,0.45,0.617,0.85,0.85L23.737,25.389"/>
			<path class="st1" d="M20.387,98.839c0.133-0.467,0.433-0.583,0.9-0.35s0.633,0.6,0.5,1.1l-0.45-0.6L20.387,98.839"/>
			<path class="st1" d="M21.337,80.139c0.567-0.033,0.8,0.217,0.7,0.75c-0.1,0.533-0.333,0.833-0.7,0.9l0.15-0.6
				C21.62,80.756,21.57,80.406,21.337,80.139"/>
			<path class="st1" d="M20.587,57.589c-0.067-0.167-0.033-0.183,0.1-0.05c0.3,0.333,0.35,0.667,0.15,1
				c-0.433,0.4-0.917,0.55-1.45,0.45l0.85-0.45C20.57,58.339,20.687,58.022,20.587,57.589"/>
			<path class="st1" d="M20.987,107.139l-0.15,0.35l-1.1-0.55L20.987,107.139"/>
			<path class="st0" d="M15.787,52.789c0.3,0.267,0.217,0.85-0.25,1.75c-0.633,1.133-0.95,1.9-0.95,2.3
				c-0.3-0.133-0.483-0.617-0.55-1.45c-0.067-0.8-0.283-1.267-0.65-1.4c0.2-0.167,0.633-0.35,1.3-0.55
				C15.254,53.272,15.62,53.056,15.787,52.789"/>
			<path class="st3" d="M14.837,72.689c0.2,0.167,0.3,0.567,0.3,1.2l-0.05,1.45l-2.4,0.25l-0.35-1.1l-0.35-1.1l1.65,0.15
				C14.27,73.406,14.67,73.122,14.837,72.689"/>
			<path class="st4" d="M26.637,110.589l1.5,0.2h0.3l1.05,0.15c2.167-0.1,4.85-0.117,8.05-0.05c2.533-0.167,4.717-1,6.55-2.5
				l7.05-5.6c3.033-2.433,5.467-4.55,7.3-6.35c0.567-2.033,0.317-4.233-0.75-6.6l-3.5-5.85"/>
			<path class="st5" d="M49.787,34.439c0.133,0.567,0.2,1.867,0.2,3.9c0.033,1.367,0.333,2.467,0.9,3.3l1.3,1.6l1.25,1.9l2.45,5.2
				c0.933,2.1,1.483,3.833,1.65,5.2c0.233,1.933-0.15,4.6-1.15,8c-1.133,3.933-1.767,6.833-1.9,8.7l-1.9,1.65
				c-1.6,1.233-3.533,2.4-5.8,3.5l-6.25,2.75"/>
			<path class="st6" d="M49.687,34.339c-1.2,0.467-2.65,1.483-4.35,3.05"/>
			<path class="st5" d="M33.587,6.439c0.5-0.933,1.317-1.383,2.45-1.35c1.133,0,1.983,0.433,2.55,1.3l1.6-0.1l1.4-0.8l0.85,0.3
				c1.3,1.367,2.3,2.6,3,3.7h0.05c1.8,2.733,2.583,5.583,2.35,8.55c2.5,0.4,3.95,2.9,4.35,7.5c0.367,4.5-0.467,7.433-2.5,8.8"/>
		</g>
		<g transform="matrix(1.0, 0.0, 0.0, 1.0, 0.0, 0.05)">
			<g id="shape0_1_" transform="matrix(1.0, 0.0, 0.0, 1.0, 0.0, -0.05)">
				<path class="st0" d="M50.887,41.639l1.3,1.6l1.25,1.9l2.45,5.2c0.933,2.1,1.483,3.833,1.65,5.2c0.233,1.933-0.15,4.6-1.15,8
					c-1.133,3.933-1.767,6.833-1.9,8.7l-1.45,1.3l-0.05-1.1l-0.4,1.45c-0.567,2.133-0.917,4.3-1.05,6.5
					c-0.133,2.667,0.117,4.733,0.75,6.2v-1.8c-0.033-0.767,0.05-1.283,0.25-1.55c0.167,0.233,0.717,0.55,1.65,0.95v-0.2l3.5,5.85
					c1.067,2.367,1.317,4.567,0.75,6.6c-1.833,1.8-4.267,3.917-7.3,6.35l-7.05,5.6c-1.833,1.5-4.017,2.333-6.55,2.5
					c-3.2-0.067-5.883-0.05-8.05,0.05l-1.05-0.15l-3.4-1.8c-1.8-0.967-3.15-1.583-4.05-1.85c0.133-0.233,0.383-0.283,0.75-0.15
					c0.4,0.133,0.667,0.133,0.8,0c-1.8-0.233-3.833-0.983-6.1-2.25c-2.5-1.5-4.383-2.583-5.65-3.25l-0.5-0.95l2-4.6
					c0.8-1.667,1.65-3.017,2.55-4.05c-0.133-1.1,0.15-2.083,0.85-2.95c0.533-0.667,1.133-1.117,1.8-1.35l0.5,2.15l5.85,3.8
					c2.367,1.333,4.567,2.15,6.6,2.45c-5.1-1.933-9.183-4.267-12.25-7c0.133-2.133-0.367-4.333-1.5-6.6
					c-1.367-2.7-2.133-4.65-2.3-5.85l0.6-0.45l0.6-0.5l-0.95-7.35c-0.333-3.1-0.817-5.383-1.45-6.85c0.433,4.033,0.9,7.8,1.4,11.3
					c-1.033,0.7-1.933,0.7-2.7,0c-0.733-0.667-1.033-1.633-0.9-2.9c0.333,0.433,0.867,0.583,1.6,0.45c0.733-0.1,1.167-0.4,1.3-0.9
					c-1.733,0.9-2.833,0.217-3.3-2.05c-0.567-2.967-1.067-4.6-1.5-4.9c0.4-0.667,0.667-1.95,0.8-3.85c0.167-1.833,0.533-3.2,1.1-4.1
					l1.35-0.05l0.85,0.05c0.267,0.533,0.433,1.367,0.5,2.5l0.2,2.8l-1.85,0.25c-0.8,0.1-1.3-0.067-1.5-0.5
					c0.2-0.3,0.283-0.7,0.25-1.2c1.267-0.167,1.65-0.317,1.15-0.45c-0.467-0.1-1.017,0.05-1.65,0.45v1.7
					c0.133,0.3,0.75,0.45,1.85,0.45c0.9-0.033,1.4,0.183,1.5,0.65c-0.033-0.3,0.033-0.517,0.2-0.65l0.75-0.25l-0.05-1.2l-0.15-1.2
					l2.05-3.95l1.75-3.45l2-5.05c0.833-2,1.85-3.117,3.05-3.35c-0.067,1.867,0.017,3.217,0.25,4.05l5.05,2.15
					c2.367-1.533,4.767-2.333,7.2-2.4l2.25-1.9l1.8-1.7c-0.533,0.167-1.217,0.683-2.05,1.55c-0.867,0.933-1.7,1.55-2.5,1.85
					l-1.7,0.1l-1.9,0.1c-0.267,0.067-0.767,0.383-1.5,0.95c-0.667,0.467-1.2,0.717-1.6,0.75c-0.733,0.033-1.583-0.267-2.55-0.9
					l-2.25-1.5l-0.2-1.75c-0.133-0.7-0.067-1.317,0.2-1.85l4.15,1.7l4.25,1.65c0.633-0.7,0.783-2.05,0.45-4.05
					c1.1-0.1,1.75-0.583,1.95-1.45c-0.367-1.933-0.45-3.417-0.25-4.45c0.267-1.467,1.067-2.3,2.4-2.5l0.05,3.7
					c0.1,1.467,0.083,2.55-0.05,3.25c0.467,0.233,1.233,0.65,2.3,1.25l2.75,0.2c0.333,1.267,1.117,1.9,2.35,1.9
					c1.033,0,2.083-0.4,3.15-1.2c-0.833,0.067-2.033,0.383-3.6,0.95l-0.85-0.95c-0.367-0.367-0.567-0.767-0.6-1.2
					c1.767-1.2,2.9-2.167,3.4-2.9h-0.25c1.7-1.567,3.15-2.583,4.35-3.05l0.1,0.1c0.133,0.567,0.2,1.867,0.2,3.9
					C50.02,39.706,50.32,40.806,50.887,41.639 M49.887,43.889c0.033-0.267,0.4-0.467,1.1-0.6l0.8-0.35
					c-0.5-0.233-1.017-0.083-1.55,0.45L49.887,43.889 M42.437,62.139c-1.3,0.933-2.85,1.15-4.65,0.65
					c-1.667-0.433-2.917-1.217-3.75-2.35h-3.85c-1.4,0.067-2.433,0.317-3.1,0.75v5.5l2.55,0.45c1.267,0,1.933,0.333,2,1
					c-2.667-0.367-4.75-0.367-6.25,0c-0.567,1.033-0.783,2.35-0.65,3.95c0.167,1.9,0.15,3.217-0.05,3.95
					c0.333,0.3,0.583,0.817,0.75,1.55l0.45,1.8l7.35,0.8c2.967,0.267,5.483,0.25,7.55-0.05h-0.25v-0.25l-7.15-0.45l-7-0.5
					c-0.367-1.233-0.3-2.117,0.2-2.65h-0.55l-0.4-0.25v-1.45c-0.033-0.633,0.05-1.033,0.25-1.2l0.8,0.15l0.9,0.1h1.4l0.7-0.1
					c0-0.167-0.233-0.217-0.7-0.15l-3.1-0.2c-0.267-0.667-0.433-1.4-0.5-2.2c-0.033-0.967,0.133-1.683,0.5-2.15l1.4-0.05l1.25-0.2
					l-0.25,0.3l-0.25,0.2l1.85-0.3l2-0.2l0.3,1.25l0.2,0.95c0.2-0.6,0.233-1.317,0.1-2.15l-0.6-1.95
					c-0.367-0.367-1.067-0.483-2.1-0.35c-1,0.1-1.667-0.017-2-0.35l-0.1-2.3c-0.133-0.9-0.167-1.667-0.1-2.3
					c2.233-0.733,4.35-0.7,6.35,0.1l5.15,2.3c0.2-0.233,0.867-0.5,2-0.8C42.053,62.722,42.503,62.439,42.437,62.139 M43.187,58.789
					l-0.05,1.85c0,0.833,0.083,1.167,0.25,1l0.05-1.85C43.437,58.956,43.353,58.622,43.187,58.789 M30.787,62.839l-1.8,0.25
					l2.1,0.05l1.75-0.3H30.787 M36.737,66.889c0.2,0.133,0.267,0.383,0.2,0.75h-0.6l-0.35,0.25l1.2-0.25v-0.95l-0.7-0.2
					c-0.267-0.133-0.433-0.067-0.5,0.2L36.737,66.889 M31.637,70.789l-2.9-0.45l-2.35,0.2l2.6,0.15L31.637,70.789 M40.987,71.489
					l0.25-1.2l-0.5-0.25c-0.267-0.067-0.417,0.017-0.45,0.25c0.533-0.067,0.767,0.167,0.7,0.7l-0.45,0.25l-0.5-0.7v0.95H40.987
					 M20.837,58.539c0.2-0.333,0.15-0.667-0.15-1c-0.133-0.133-0.167-0.117-0.1,0.05c0.1,0.433-0.017,0.75-0.35,0.95l-0.85,0.45
					C19.92,59.089,20.403,58.939,20.837,58.539 M21.337,81.789c0.367-0.067,0.6-0.367,0.7-0.9c0.1-0.533-0.133-0.783-0.7-0.75
					c0.233,0.267,0.283,0.617,0.15,1.05L21.337,81.789 M21.287,98.489c-0.467-0.233-0.767-0.117-0.9,0.35l0.95,0.15l0.45,0.6
					C21.92,99.089,21.753,98.722,21.287,98.489 M47.237,79.639c0.567-0.033,0.95,0.05,1.15,0.25c0.233,0.233,0.25,0.55,0.05,0.95
					l-0.65-0.1c-0.167-0.133-0.267-0.1-0.3,0.1l0.95,0.15c0.367-0.167,0.533-0.45,0.5-0.85c-0.033-0.4-0.283-0.7-0.75-0.9
					C47.687,79.072,47.37,79.206,47.237,79.639 M44.837,85.189c-0.167,0-0.25,0.067-0.25,0.2c0.6,0.067,0.917-0.217,0.95-0.85
					c0.067-0.633-0.167-0.983-0.7-1.05l0.25,0.9C45.187,84.789,45.103,85.056,44.837,85.189 M29.987,88.689
					c0-0.767-0.083-1.067-0.25-0.9v1.8c-0.033,0.733,0.05,1.017,0.25,0.85V88.689 M34.787,84.389c0.1-0.533-0.067-0.75-0.5-0.65
					l-0.25,1.2C34.403,85.106,34.653,84.922,34.787,84.389 M37.187,91.889c-0.2-0.067-0.283-0.233-0.25-0.5
					c-0.6-0.067-0.917,0.1-0.95,0.5l0.5,0.15c-0.4,0.133-0.567,0.317-0.5,0.55C36.62,92.522,37.02,92.289,37.187,91.889
					 M30.687,96.189l4.6,0.05c1.8-0.067,3.233-0.317,4.3-0.75l-4.15,0.2l-4.05,0.3l-0.25-1.35c-0.2-0.533-0.433-0.65-0.7-0.35
					l0.65,0.95C31.22,95.706,31.087,96.022,30.687,96.189 M32.087,100.589c-0.133,0.033-0.117,0.1,0.05,0.2
					c0.133-0.2,0.583-0.283,1.35-0.25l1.3-0.25h-2.4L32.087,100.589 M43.187,96.939l3.35-2.3c1.533-0.933,2.483-1.683,2.85-2.25
					l-3.4,2.25C44.52,95.539,43.587,96.306,43.187,96.939 M45.987,91.539c2.4-1.5,4.183-2.9,5.35-4.2c-1.267,1.1-3.2,2.45-5.8,4.05
					l-5.95,3.85C42.553,93.606,44.687,92.372,45.987,91.539 M41.737,97.389l-0.95,1c-2.733,1.733-2.967,1.95-0.7,0.65
					C41.053,98.472,41.603,97.922,41.737,97.389 M51.087,65.239l-0.8-0.05l-0.4,0.05C50.42,65.972,50.82,65.972,51.087,65.239
					 M51.187,64.289c-0.033-0.267-0.15-0.267-0.35,0l0.25,0.9L51.187,64.289 M54.037,63.639l0.4-0.05
					c0.1-0.433,0.083-0.867-0.05-1.3c-0.167-0.467-0.383-0.517-0.65-0.15c0.433,0.167,0.533,0.483,0.3,0.95l-0.3,0.7L54.037,63.639
					 M53.987,89.589l1.4-0.8l-0.15-0.7c-0.1-0.233-0.283-0.333-0.55-0.3c0.333,0.567,0.067,1.117-0.8,1.65
					c-0.867,0.533-1.233,0.95-1.1,1.25L53.987,89.589 M29.237,109.389c0.067,0.8,0.25,0.367,0.55-1.3c0.333-1.733,0.4-2.5,0.2-2.3
					C29.753,106.522,29.503,107.722,29.237,109.389 M24.437,104.389v-0.6l-0.25-0.4l-0.25,0.55l-0.45,0.45l0.4,0.15L24.437,104.389"
					/>
				<path class="st1" d="M54.687,87.789c0.267-0.033,0.45,0.067,0.55,0.3l0.15,0.7l-1.4,0.8l-1.2,1.1
					c-0.133-0.3,0.233-0.717,1.1-1.25C54.753,88.906,55.02,88.356,54.687,87.789"/>
				<path class="st1" d="M53.737,62.139c0.267-0.367,0.483-0.317,0.65,0.15c0.133,0.433,0.15,0.867,0.05,1.3l-0.4,0.05l-0.3,0.15
					l0.3-0.7C54.27,62.622,54.17,62.306,53.737,62.139"/>
				<path class="st1" d="M53.037,73.539l-0.5,4.25c-0.233,1.933-0.317,3.433-0.25,4.5c0.133,0.233,0.533,0.483,1.2,0.75
					c0.567,0.2,0.883,0.517,0.95,0.95h-0.25v0.2c-0.933-0.4-1.483-0.717-1.65-0.95c-0.2,0.267-0.283,0.783-0.25,1.55v1.8
					c-0.633-1.467-0.883-3.533-0.75-6.2c0.133-2.2,0.483-4.367,1.05-6.5L53.037,73.539"/>
				<path class="st1" d="M52.987,72.439l0.05,1.1l-0.45,0.35L52.987,72.439"/>
				<path class="st1" d="M51.787,42.939l-0.8,0.35c-0.7,0.133-1.067,0.333-1.1,0.6l0.35-0.5
					C50.77,42.856,51.287,42.706,51.787,42.939"/>
				<path class="st1" d="M50.837,64.289c0.2-0.267,0.317-0.267,0.35,0l-0.1,0.9L50.837,64.289"/>
				<path class="st1" d="M49.887,65.239l0.4-0.05l0.8,0.05C50.82,65.972,50.42,65.972,49.887,65.239"/>
				<path class="st0" d="M49.687,34.339c-1.2,0.467-2.65,1.483-4.35,3.05v-0.2c-0.5,0.467-1.4,1.033-2.7,1.7
					c-1.2,0.6-1.983,1.15-2.35,1.65l-1.7-0.85l-1.4-1.1c-0.233-3.233-0.317-7.067-0.25-11.5l0.4,0.2l0.3-0.2
					c-0.4-0.033-0.55-0.35-0.45-0.95l1.3-1.45c0.433-0.767,0.867-1.25,1.3-1.45l2.3,0.25c0.567,0,1.167-0.233,1.8-0.7
					c-0.167-1.033,0.067-1.85,0.7-2.45l1.7-1.4c-1.7,0.167-2.667,1.367-2.9,3.6c-0.267,0-0.517,0.1-0.75,0.3l-0.65,0.4
					c-0.667-0.433-1.4-0.583-2.2-0.45c-0.5,0.333-1.1,0.967-1.8,1.9l-1.8,1.9c-2.633,0.467-5.25,0.417-7.85-0.15
					c-2.667-0.567-4.767-1.55-6.3-2.95l-0.25-0.5c-0.4-1.3-0.15-2.867,0.75-4.7l2.55-4.45l6.05,0.8l5.6,0.3l-0.05-0.1l0.1,0.05
					l-0.05,0.05h-0.9c1.567-0.6,4.783-2.417,9.65-5.45c1.8,2.733,2.583,5.583,2.35,8.55c2.5,0.4,3.95,2.9,4.35,7.5
					C52.553,30.039,51.72,32.972,49.687,34.339 M31.387,19.639c-0.267-0.067-0.533,0.033-0.8,0.3s-0.233,0.483,0.1,0.65
					c-0.067-0.4,0.167-0.55,0.7-0.45l0.05,0.75c0.033,0.333-0.05,0.483-0.25,0.45l-0.45-0.15l-0.3-0.35
					c0.067,0.767,0.35,1.017,0.85,0.75c0.533-0.267,0.733-0.75,0.6-1.45L31.387,19.639 M26.137,23.989l-0.5,0.2
					c0.733,0.1,1.05-0.133,0.95-0.7l-0.4-0.2l-0.55-0.05C25.603,23.572,25.77,23.822,26.137,23.989 M44.387,30.239
					c0.367-1.3,0.117-1.55-0.75-0.75c0.3-0.1,0.467-0.017,0.5,0.25v0.7c-0.1,0.233-0.333,0.3-0.7,0.2l-0.5,0.05
					C43.57,31.556,44.053,31.406,44.387,30.239"/>
				<path class="st1" d="M48.937,80.139c0.033,0.4-0.133,0.683-0.5,0.85l-0.95-0.15c0.033-0.2,0.133-0.233,0.3-0.1l0.65,0.1
					c0.2-0.4,0.183-0.717-0.05-0.95c-0.2-0.2-0.583-0.283-1.15-0.25c0.133-0.433,0.45-0.567,0.95-0.4
					C48.653,79.439,48.903,79.739,48.937,80.139"/>
				<path class="st1" d="M45.987,94.639l3.4-2.25c-0.367,0.567-1.317,1.317-2.85,2.25l-3.35,2.3
					C43.587,96.306,44.52,95.539,45.987,94.639"/>
				<path class="st1" d="M45.537,91.389c2.6-1.6,4.533-2.95,5.8-4.05c-1.167,1.3-2.95,2.7-5.35,4.2c-1.3,0.833-3.433,2.067-6.4,3.7
					L45.537,91.389"/>
				<path class="st1" d="M36.937,27.089c-0.067,4.433,0.017,8.267,0.25,11.5l1.4,1.1l1.7,0.85c0.367-0.5,1.15-1.05,2.35-1.65
					c1.3-0.667,2.2-1.233,2.7-1.7v0.2h0.25c-0.5,0.733-1.633,1.7-3.4,2.9c0.033,0.433,0.233,0.833,0.6,1.2l0.85,0.95
					c1.567-0.567,2.767-0.883,3.6-0.95c-1.067,0.8-2.117,1.2-3.15,1.2c-1.233,0-2.017-0.633-2.35-1.9l-2.75-0.2
					c-1.067-0.6-1.833-1.017-2.3-1.25c0.133-0.7,0.15-1.783,0.05-3.25l-0.05-3.7c-1.333,0.2-2.133,1.033-2.4,2.5
					c-0.2,1.033-0.117,2.517,0.25,4.45c-0.2,0.867-0.85,1.35-1.95,1.45c0.333,2,0.183,3.35-0.45,4.05l-4.25-1.65l-4.15-1.7
					c-0.267,0.533-0.333,1.15-0.2,1.85l0.2,1.75l2.25,1.5c0.967,0.633,1.817,0.933,2.55,0.9c0.4-0.033,0.933-0.283,1.6-0.75
					c0.733-0.567,1.233-0.883,1.5-0.95l1.9-0.1l1.7-0.1c0.8-0.3,1.633-0.917,2.5-1.85c0.833-0.867,1.517-1.383,2.05-1.55l-1.8,1.7
					l-2.25,1.9c-2.433,0.067-4.833,0.867-7.2,2.4l-5.05-2.15c-0.233-0.833-0.317-2.183-0.25-4.05c-1.2,0.233-2.217,1.35-3.05,3.35
					l-2,5.05l-1.75,3.45l-2.05,3.95l0.15,1.2l0.05,1.2l-0.75,0.25c-0.167,0.133-0.233,0.35-0.2,0.65c-0.1-0.467-0.6-0.683-1.5-0.65
					c-1.1,0-1.717-0.15-1.85-0.45v-1.7c0.633-0.4,1.183-0.55,1.65-0.45c0.5,0.133,0.117,0.283-1.15,0.45
					c0.033,0.5-0.05,0.9-0.25,1.2c0.2,0.433,0.7,0.6,1.5,0.5l1.85-0.25l-0.2-2.8c-0.067-1.133-0.233-1.967-0.5-2.5l-0.85-0.05
					l-1.35,0.05c-0.567,0.9-0.933,2.267-1.1,4.1c-0.133,1.9-0.4,3.183-0.8,3.85c0.433,0.3,0.933,1.933,1.5,4.9
					c0.467,2.267,1.567,2.95,3.3,2.05c-0.133,0.5-0.567,0.8-1.3,0.9c-0.733,0.133-1.267-0.017-1.6-0.45
					c-0.133,1.267,0.167,2.233,0.9,2.9c0.767,0.7,1.667,0.7,2.7,0c-0.5-3.5-0.967-7.267-1.4-11.3c0.633,1.467,1.117,3.75,1.45,6.85
					l0.95,7.35l-0.6,0.5l-0.6,0.45c0.167,1.2,0.933,3.15,2.3,5.85c1.133,2.267,1.633,4.467,1.5,6.6c3.067,2.733,7.15,5.067,12.25,7
					c-2.033-0.3-4.233-1.117-6.6-2.45l-5.85-3.8l-0.5-2.15c-0.667,0.233-1.267,0.683-1.8,1.35c-0.7,0.867-0.983,1.85-0.85,2.95
					c-0.9,1.033-1.75,2.383-2.55,4.05l-2,4.6l0.5,0.95c1.267,0.667,3.15,1.75,5.65,3.25c2.267,1.267,4.3,2.017,6.1,2.25
					c-0.133,0.133-0.4,0.133-0.8,0c-0.367-0.133-0.617-0.083-0.75,0.15l-1.25-0.2l-4.9-2.55l-3.05-1.6c-1.367-0.8-2.1-1.55-2.2-2.25
					c-0.133-0.833,0.383-2.2,1.55-4.1l2.75-4.8l1.25-2.9c0.433-0.833,1.133-1.467,2.1-1.9c0.033-1.533-0.583-3.217-1.85-5.05
					s-1.85-3.583-1.75-5.25l-0.5-0.2l-0.95-0.05c-0.8-1.767-1.433-4.167-1.9-7.2c-0.467-3.1-1.033-5.267-1.7-6.5
					c0.467-0.667,0.717-1.233,0.75-1.7c0.067-0.567-0.1-1.2-0.5-1.9l1-2.45l0.95-2.55c0.967-0.067,1.983-0.333,3.05-0.8l2.7-1.15
					c0.433-0.567,1.233-2.517,2.4-5.85c0.867-2.5,2.15-4.067,3.85-4.7c-0.1-0.167-0.367-0.417-0.8-0.75
					c-0.4-0.267-0.617-0.583-0.65-0.95l0.25-2.35l0.45-2.2l-0.6-0.95l-0.6-0.95c-0.3-1.5-0.3-3.45,0-5.85l0.5-3.75
					c-0.067-1.9,0.15-3.717,0.65-5.45c0.433-1.467,1.15-3.067,2.15-4.8l0.95,0.35l-2.55,4.45c-0.9,1.833-1.15,3.4-0.75,4.7l0.25,0.5
					c1.533,1.4,3.633,2.383,6.3,2.95c2.6,0.567,5.217,0.617,7.85,0.15l1.8-1.9c0.7-0.933,1.3-1.567,1.8-1.9
					c0.8-0.133,1.533,0.017,2.2,0.45l0.65-0.4c0.233-0.2,0.483-0.3,0.75-0.3c0.233-2.233,1.2-3.433,2.9-3.6l-1.7,1.4
					c-0.633,0.6-0.867,1.417-0.7,2.45c-0.633,0.467-1.233,0.7-1.8,0.7l-2.3-0.25c-0.433,0.2-0.867,0.683-1.3,1.45l-1.3,1.45
					c-0.1,0.6,0.05,0.917,0.45,0.95l-0.3,0.2L36.937,27.089 M35.037,27.239l-1.7,0.1c-0.067,1.467-0.767,2.283-2.1,2.45
					c-1.133,0.133-2.283-0.2-3.45-1c-0.167-0.167-0.25-0.483-0.25-0.95l0.05-1.25l-0.9-0.15l-0.8-0.3
					c0.133,0.567,0.067,1.017-0.2,1.35l-0.75,0.8l0.4,2.1c0.133,0.867,0,1.45-0.4,1.75c-0.033-0.5-0.167-0.783-0.4-0.85l-1.05,0.1
					c-0.3,0.3-0.383,1.1-0.25,2.4l2.7,1c1.2,0.333,2.15,0.25,2.85-0.25c-0.1,0.6,0.2,1.183,0.9,1.75c0.867,0.7,1.367,1.233,1.5,1.6
					c0.233,0.667,0.317,1.533,0.25,2.6l-0.25,2.9l-0.15-2.85c-0.133-1.167-0.167-2.133-0.1-2.9c-0.733-0.9-1.983-1.6-3.75-2.1
					l-4.4-1c-0.167,0.133-0.25,0.4-0.25,0.8v1.1c1.233-0.167,2.583,0.033,4.05,0.6l3.4,1.8c-2.4-1.1-4.167-1.75-5.3-1.95
					c-2.067-0.367-2.95,0.683-2.65,3.15c2.633,1.7,5.2,2.817,7.7,3.35c0.233-0.3,0.4-0.933,0.5-1.9c0.1-0.933,0.25-1.567,0.45-1.9
					l-0.15,2.1c-0.133,0.867-0.167,1.6-0.1,2.2c0.2,0.033,0.433,0.167,0.7,0.4l0.75,0.3c0.467-0.867,0.6-2.167,0.4-3.9l-0.65-4
					l-1.2-0.8c-0.5-0.3-0.817-0.667-0.95-1.1c2.267,1,3.383,2.833,3.35,5.5c0.133-0.267,0.45-0.433,0.95-0.5v-5.75
					c0.2-0.4,0.683-0.8,1.45-1.2l1.45-1.2c-0.2-1.567-0.283-3.167-0.25-4.8L35.037,27.239 M23.737,26.389v-1l-1.1-0.55
					c-0.4-0.233-0.683-0.517-0.85-0.85c-0.333,1.833-0.467,3.667-0.4,5.5c0.067,2.467,0.533,4.067,1.4,4.8
					c-0.4-0.967-0.167-2.25,0.7-3.85l-0.75-1.05c-0.267-0.433-0.417-0.883-0.45-1.35c0.067-0.3,0.3-0.583,0.7-0.85
					C23.42,26.922,23.67,26.656,23.737,26.389 M24.437,27.589c-0.733-0.1-1.133,0.217-1.2,0.95l0.6,1.1
					c0.167,0.533,0.45,0.8,0.85,0.8l-0.2-1.55C24.32,28.422,24.303,27.989,24.437,27.589 M13.387,53.989
					c0.367,0.133,0.583,0.6,0.65,1.4c0.067,0.833,0.25,1.317,0.55,1.45c0-0.4,0.317-1.167,0.95-2.3c0.467-0.9,0.55-1.483,0.25-1.75
					c-0.167,0.267-0.533,0.483-1.1,0.65C14.02,53.639,13.587,53.822,13.387,53.989 M11.987,73.389l0.35,1.1l0.35,1.1l2.4-0.25
					l0.05-1.45c0-0.633-0.1-1.033-0.3-1.2c-0.167,0.433-0.567,0.717-1.2,0.85L11.987,73.389"/>
				<path class="st1" d="M45.437,9.489h0.05c-4.867,3.033-8.083,4.85-9.65,5.45h-0.25C41.52,11.439,44.803,9.622,45.437,9.489"/>
				<path class="st1" d="M44.837,83.489c0.533,0.067,0.767,0.417,0.7,1.05c-0.033,0.633-0.35,0.917-0.95,0.85
					c0-0.133,0.083-0.2,0.25-0.2c0.267-0.133,0.35-0.4,0.25-0.8L44.837,83.489"/>
				<path class="st1" d="M43.637,29.489c0.867-0.8,1.117-0.55,0.75,0.75c-0.333,1.167-0.817,1.317-1.45,0.45l0.5-0.05
					c0.367,0.1,0.6,0.033,0.7-0.2v-0.7C44.103,29.472,43.937,29.389,43.637,29.489"/>
				<path class="st1" d="M43.187,58.789c0.167-0.167,0.25,0.167,0.25,1l-0.05,1.85c-0.167,0.167-0.25-0.167-0.25-1L43.187,58.789"/>
				<path class="st2" d="M42.437,5.789c1.3,1.367,2.3,2.6,3,3.7c-0.633,0.133-3.917,1.95-9.85,5.45l-4.45-0.3l-5.95-1l0.45-0.95
					c-0.367-0.833-0.283-1.7,0.25-2.6c0.533-0.867,1.167-1.283,1.9-1.25c0.433,0.033,0.8,0.25,1.1,0.65
					c0.267,0.4,0.55,0.583,0.85,0.55c-0.3-0.933-0.883-1.433-1.75-1.5c0.4-0.5,1.167-0.783,2.3-0.85c1.1-0.067,1.867,0.083,2.3,0.45
					c-0.2-0.7,0.017-1.083,0.65-1.15l1.55-0.3l-0.45-0.2l-0.55-0.05h-0.2c0.5-0.933,1.317-1.383,2.45-1.35
					c1.133,0,1.983,0.433,2.55,1.3l1.6-0.1l1.4-0.8L42.437,5.789 M30.437,10.289c0.367,0.1,0.733,0.3,1.1,0.6l0.85,0.85
					c-0.033-0.467-0.3-0.867-0.8-1.2C31.12,10.206,30.737,10.122,30.437,10.289"/>
				<path class="st1" d="M39.087,63.789l-5.15-2.3c-2-0.8-4.117-0.833-6.35-0.1c-0.067,0.633-0.033,1.4,0.1,2.3l0.1,2.3
					c0.333,0.333,1,0.45,2,0.35c1.033-0.133,1.733-0.017,2.1,0.35l0.6,1.95c0.133,0.833,0.1,1.55-0.1,2.15l-0.2-0.95l-0.3-1.25
					l-2,0.2l-1.85,0.3l0.25-0.2l0.25-0.3l-1.25,0.2l-1.4,0.05c-0.367,0.467-0.533,1.183-0.5,2.15c0.067,0.8,0.233,1.533,0.5,2.2
					l3.1,0.2c0.467-0.067,0.7-0.017,0.7,0.15l-0.7,0.1h-1.4l-0.9-0.1l-0.8-0.15c-0.2,0.167-0.283,0.567-0.25,1.2v1.45l0.4,0.25h0.55
					c-0.5,0.533-0.567,1.417-0.2,2.65l7,0.5l7.15,0.45v0.25h0.25c-2.067,0.3-4.583,0.317-7.55,0.05l-7.35-0.8l-0.45-1.8
					c-0.167-0.733-0.417-1.25-0.75-1.55c0.2-0.733,0.217-2.05,0.05-3.95c-0.133-1.6,0.083-2.917,0.65-3.95
					c1.5-0.367,3.583-0.367,6.25,0c-0.067-0.667-0.733-1-2-1l-2.55-0.45v-5.5c0.667-0.433,1.7-0.683,3.1-0.75h3.85
					c0.833,1.133,2.083,1.917,3.75,2.35c1.8,0.5,3.35,0.283,4.65-0.65c0.067,0.3-0.383,0.583-1.35,0.85
					C39.953,63.289,39.287,63.556,39.087,63.789"/>
				<path class="st1" d="M41.237,70.289l-0.25,1.2h-0.95v-0.95l0.5,0.7l0.45-0.25c0.067-0.533-0.167-0.767-0.7-0.7
					c0.033-0.233,0.183-0.317,0.45-0.25L41.237,70.289"/>
				<path class="st1" d="M40.787,98.389l0.95-1c-0.133,0.533-0.683,1.083-1.65,1.65C37.82,100.339,38.053,100.122,40.787,98.389"/>
				<path class="st1" d="M31.387,95.989l4.05-0.3l4.15-0.2c-1.067,0.433-2.5,0.683-4.3,0.75l-4.6-0.05
					c0.4-0.167,0.533-0.483,0.4-0.95l-0.65-0.95c0.267-0.3,0.5-0.183,0.7,0.35L31.387,95.989"/>
				<path class="st1" d="M36.687,109.189c0.133-0.667,0.567-0.783,1.3-0.35c0.767,0.433,0.65,0.7-0.35,0.8
					c0.267-0.333,0.25-0.533-0.05-0.6L36.687,109.189"/>
				<path class="st1" d="M37.187,66.689v0.95l-1.2,0.25l0.35-0.25h0.6c0.067-0.367,0-0.617-0.2-0.75l-0.75-0.2
					c0.067-0.267,0.233-0.333,0.5-0.2L37.187,66.689"/>
				<path class="st1" d="M36.937,91.389c-0.033,0.267,0.05,0.433,0.25,0.5c-0.167,0.4-0.567,0.633-1.2,0.7
					c-0.067-0.233,0.1-0.417,0.5-0.55l-0.5-0.15C36.02,91.489,36.337,91.322,36.937,91.389"/>
				<path class="st1" d="M36.737,14.939l-5.6-0.3l4.45,0.3l-0.35,0.15l0.6-0.15H36.737"/>
				<path class="st0" d="M36.437,26.839c-0.033,1.633,0.05,3.233,0.25,4.8l-1.45,1.2c-0.767,0.4-1.25,0.8-1.45,1.2v5.75
					c-0.5,0.067-0.817,0.233-0.95,0.5c0.033-2.667-1.083-4.5-3.35-5.5c0.133,0.433,0.45,0.8,0.95,1.1l1.2,0.8l0.65,4
					c0.2,1.733,0.067,3.033-0.4,3.9l-0.75-0.3c-0.267-0.233-0.5-0.367-0.7-0.4c-0.067-0.6-0.033-1.333,0.1-2.2l0.15-2.1
					c-0.2,0.333-0.35,0.967-0.45,1.9c-0.1,0.967-0.267,1.6-0.5,1.9c-2.5-0.533-5.067-1.65-7.7-3.35
					c-0.3-2.467,0.583-3.517,2.65-3.15c1.133,0.2,2.9,0.85,5.3,1.95l-3.4-1.8c-1.467-0.567-2.817-0.767-4.05-0.6v-1.1
					c0-0.4,0.083-0.667,0.25-0.8l4.4,1c1.767,0.5,3.017,1.2,3.75,2.1c-0.067,0.767-0.033,1.733,0.1,2.9l0.15,2.85l0.25-2.9
					c0.067-1.067-0.017-1.933-0.25-2.6c-0.133-0.367-0.633-0.9-1.5-1.6c-0.7-0.567-1-1.15-0.9-1.75c-0.7,0.5-1.65,0.583-2.85,0.25
					l-2.7-1c-0.133-1.3-0.05-2.1,0.25-2.4l1.05-0.1c0.233,0.067,0.367,0.35,0.4,0.85c0.4-0.3,0.533-0.883,0.4-1.75l-0.4-2.1
					l0.75-0.8c0.267-0.333,0.333-0.783,0.2-1.35l0.8,0.3l0.9,0.15l-0.05,1.25c0,0.467,0.083,0.783,0.25,0.95
					c1.167,0.8,2.317,1.133,3.45,1c1.333-0.167,2.033-0.983,2.1-2.45l1.7-0.1L36.437,26.839"/>
				<path class="st1" d="M32.387,100.289h2.4l-1.3,0.25c-0.767-0.033-1.217,0.05-1.35,0.25c-0.167-0.1-0.183-0.167-0.05-0.2
					L32.387,100.289"/>
				<path class="st1" d="M34.287,83.739c0.433-0.1,0.6,0.117,0.5,0.65c-0.133,0.533-0.383,0.717-0.75,0.55L34.287,83.739"/>
				<path class="st1" d="M33.787,6.439l0.55,0.05l0.45,0.2l-1.55,0.3c-0.633,0.067-0.85,0.45-0.65,1.15
					c-0.433-0.367-1.2-0.517-2.3-0.45c-1.133,0.067-1.9,0.35-2.3,0.85h-0.15c0.133-0.533,1.017-0.95,2.65-1.25
					c1.767-0.3,2.8-0.667,3.1-1.1v0.25H33.787"/>
				<path class="st1" d="M28.987,63.089l1.8-0.25h2.05l-1.75,0.3L28.987,63.089"/>
				<path class="st1" d="M31.887,20.139c0.133,0.7-0.067,1.183-0.6,1.45c-0.5,0.267-0.783,0.017-0.85-0.75l0.3,0.35l0.45,0.15
					c0.2,0.033,0.283-0.117,0.25-0.45l-0.05-0.75c-0.533-0.1-0.767,0.05-0.7,0.45c-0.333-0.167-0.367-0.383-0.1-0.65
					s0.533-0.367,0.8-0.3L31.887,20.139"/>
				<path class="st1" d="M31.637,70.789l-2.65-0.1l-2.6-0.15l2.35-0.2L31.637,70.789"/>
				<path class="st1" d="M30.437,10.289c0.3-0.167,0.683-0.083,1.15,0.25c0.5,0.333,0.767,0.733,0.8,1.2l-0.85-0.85
					C31.17,10.589,30.803,10.389,30.437,10.289"/>
				<path class="st1" d="M29.987,105.789c0.2-0.2,0.133,0.567-0.2,2.3c-0.3,1.667-0.483,2.1-0.55,1.3
					C29.503,107.722,29.753,106.522,29.987,105.789"/>
				<path class="st1" d="M29.737,87.789c0.167-0.167,0.25,0.133,0.25,0.9v1.75c-0.2,0.167-0.283-0.117-0.25-0.85V87.789"/>
				<path class="st1" d="M29.737,10.039c-0.3,0.033-0.583-0.15-0.85-0.55c-0.3-0.4-0.667-0.617-1.1-0.65l0.2-0.3
					C28.853,8.606,29.437,9.106,29.737,10.039"/>
				<path class="st1" d="M28.437,110.789h-0.3c-0.7-0.167-2.167-0.8-4.4-1.9c-2.233-1.1-3.683-1.733-4.35-1.9l0.35-0.05l1.1,0.55
					l0.15-0.35c0.9,0.267,2.25,0.883,4.05,1.85L28.437,110.789"/>
				<path class="st1" d="M27.837,8.539h0.15l-0.2,0.3L27.837,8.539"/>
				<path class="st1" d="M24.937,12.189c-0.233-1.067,0-1.967,0.7-2.7c0.633-0.7,1.367-1.017,2.2-0.95l-0.05,0.3
					c-0.733-0.033-1.367,0.383-1.9,1.25c-0.533,0.9-0.617,1.767-0.25,2.6l-0.45,0.95l-1.05-0.15L24.937,12.189"/>
				<path class="st1" d="M26.587,23.489c0.1,0.567-0.217,0.8-0.95,0.7l0.5-0.2c-0.367-0.167-0.533-0.417-0.5-0.75l0.55,0.05
					L26.587,23.489"/>
				<path class="st1" d="M25.187,13.639l5.95,1l-6.05-0.8L25.187,13.639"/>
				<path class="st1" d="M25.187,13.639l-0.1,0.2l-0.95-0.35L25.187,13.639"/>
				<path class="st0" d="M24.437,27.589c-0.133,0.4-0.117,0.833,0.05,1.3l0.2,1.55c-0.4,0-0.683-0.267-0.85-0.8l-0.6-1.1
					C23.303,27.806,23.703,27.489,24.437,27.589"/>
				<path class="st1" d="M23.937,103.939l0.25-0.55l0.25,0.4v0.6l-0.55,0.15l-0.4-0.15L23.937,103.939"/>
				<path class="st3" d="M23.737,25.389v1c-0.067,0.267-0.317,0.533-0.75,0.8c-0.4,0.267-0.633,0.55-0.7,0.85
					c0.033,0.467,0.183,0.917,0.45,1.35l0.75,1.05c-0.867,1.6-1.1,2.883-0.7,3.85c-0.867-0.733-1.333-2.333-1.4-4.8
					c-0.067-1.833,0.067-3.667,0.4-5.5c0.167,0.333,0.45,0.617,0.85,0.85L23.737,25.389"/>
				<path class="st1" d="M20.387,98.839c0.133-0.467,0.433-0.583,0.9-0.35c0.467,0.233,0.633,0.6,0.5,1.1l-0.45-0.6L20.387,98.839"
					/>
				<path class="st1" d="M21.337,80.139c0.567-0.033,0.8,0.217,0.7,0.75c-0.1,0.533-0.333,0.833-0.7,0.9l0.15-0.6
					C21.62,80.756,21.57,80.406,21.337,80.139"/>
				<path class="st1" d="M20.587,57.589c-0.067-0.167-0.033-0.183,0.1-0.05c0.3,0.333,0.35,0.667,0.15,1
					c-0.433,0.4-0.917,0.55-1.45,0.45l0.85-0.45C20.57,58.339,20.687,58.022,20.587,57.589"/>
				<path class="st1" d="M20.987,107.139l-0.15,0.35l-1.1-0.55L20.987,107.139"/>
				<path class="st0" d="M15.787,52.789c0.3,0.267,0.217,0.85-0.25,1.75c-0.633,1.133-0.95,1.9-0.95,2.3
					c-0.3-0.133-0.483-0.617-0.55-1.45c-0.067-0.8-0.283-1.267-0.65-1.4c0.2-0.167,0.633-0.35,1.3-0.55
					C15.253,53.272,15.62,53.056,15.787,52.789"/>
				<path class="st3" d="M14.837,72.689c0.2,0.167,0.3,0.567,0.3,1.2l-0.05,1.45l-2.4,0.25l-0.35-1.1l-0.35-1.1l1.65,0.15
					C14.27,73.406,14.67,73.122,14.837,72.689"/>
				<path class="st4" d="M26.637,110.589l1.5,0.2h0.3l1.05,0.15c2.167-0.1,4.85-0.117,8.05-0.05c2.533-0.167,4.717-1,6.55-2.5
					l7.05-5.6c3.033-2.433,5.467-4.55,7.3-6.35c0.567-2.033,0.317-4.233-0.75-6.6l-3.5-5.85"/>
				<path class="st5" d="M49.787,34.439c0.133,0.567,0.2,1.867,0.2,3.9c0.033,1.367,0.333,2.467,0.9,3.3l1.3,1.6l1.25,1.9l2.45,5.2
					c0.933,2.1,1.483,3.833,1.65,5.2c0.233,1.933-0.15,4.6-1.15,8c-1.133,3.933-1.767,6.833-1.9,8.7l-1.9,1.65
					c-1.6,1.233-3.533,2.4-5.8,3.5l-6.25,2.75"/>
				<path class="st6" d="M49.687,34.339c-1.2,0.467-2.65,1.483-4.35,3.05"/>
				<path class="st5" d="M33.587,6.439c0.5-0.933,1.317-1.383,2.45-1.35c1.133,0,1.983,0.433,2.55,1.3l1.6-0.1l1.4-0.8l0.85,0.3
					c1.3,1.367,2.3,2.6,3,3.7h0.05c1.8,2.733,2.583,5.583,2.35,8.55c2.5,0.4,3.95,2.9,4.35,7.5c0.367,4.5-0.467,7.433-2.5,8.8"/>
			</g>
		</g>
	</g>
	<path class="st7" d="M38.537,7.939c3.733-0.767,7.133,2.283,10.2,9.15c2.9,6.533,3.817,11.883,2.75,16.05
		c-2,1.3-2.567,3.35-1.7,6.15c0.8,2.733,2.267,4.233,4.4,4.5c1.5,3.867,2.133,9.833,1.9,17.9c-0.267,10.467-0.233,17.2,0.1,20.2
		c0.667,0.933,2.367,1.917,5.1,2.95c2.5,1,4.017,2.183,4.55,3.55l-2,2.9c0.567,2.233,1.233,3.083,2,2.55
		c-0.433,3.267-3.35,6.85-8.75,10.75c-5.1,3.633-9.283,5.55-12.55,5.75c-4.7,0.267-7.533-2.4-8.5-8c-0.333-1.967-0.5-4.7-0.5-8.2
		v-8.7c-5.233,0.433-8.35-1.5-9.35-5.8c0.467-0.167,0.7-0.483,0.7-0.95c3.1,1.4,5.783,1.3,8.05-0.3c2-1.367,3.2-3.417,3.6-6.15
		c0.433-2.733-0.1-4.933-1.6-6.6c-1.733-1.867-4.317-2.367-7.75-1.5c-0.233-0.3-0.35-0.883-0.35-1.75l0.05-2.1
		c1.5,1.3,3.85,2.167,7.05,2.6c3.567,0.467,4.983-0.617,4.25-3.25c-0.233-0.767-1.133-1.567-2.7-2.4l-4.75-2.2
		c-4.233-2.133-5.967-4.7-5.2-7.7c-0.067-0.567,0.2-0.95,0.8-1.15l1.55-0.45c-0.9-2.033-0.833-4.633,0.2-7.8
		c0.9-2.867,2.167-5.117,3.8-6.75l1.9,0.1l1.4,0.55c0.9-1.5,1.2-3.633,0.9-6.4l-1.45-7.55c-0.7-3.033-0.983-5.217-0.85-6.55
		C35.954,9.406,36.87,8.272,38.537,7.939"/>
</g>
</svg>
