<?xml version="1.0" encoding="utf-8"?>
<!-- Generator: Adobe Illustrator 24.0.1, SVG Export Plug-In . SVG Version: 6.00 Build 0)  -->
<svg version="1.1" id="Camada_1" xmlns="http://www.w3.org/2000/svg" xmlns:xlink="http://www.w3.org/1999/xlink" x="0px" y="0px"
	 viewBox="0 0 248.971 268.223" style="enable-background:new 0 0 248.971 268.223;" xml:space="preserve">
<style type="text/css">
	.st0{fill-rule:evenodd;clip-rule:evenodd;}
	.st1{fill-rule:evenodd;clip-rule:evenodd;fill:#5F5964;}
	.st2{fill-rule:evenodd;clip-rule:evenodd;fill:#6B6570;}
	.st3{fill:none;stroke:#000000;stroke-width:0.8365;stroke-linecap:round;}
	.st4{fill:none;stroke:#000000;stroke-width:0.956;stroke-linecap:round;}
	.st5{fill:none;stroke:#000000;stroke-width:1.3145;stroke-linecap:round;}
	.st6{opacity:0.52;fill-rule:evenodd;clip-rule:evenodd;fill:#291633;}
</style>
<g transform="matrix(1.0, 0.0, 0.0, 1.0, 0.0, 0.0)">
	<g transform="matrix(1.0, 0.0, 0.0, 1.0, 0.0, 0.0)">
		<g id="shape0" transform="matrix(1.0, 0.0, 0.0, 1.0, 0.0, 0.0)">
			<path class="st0" d="M117.668,249.603l0.717,5.855c0.478,1.992,1.553,3.067,3.226,3.226l-0.239-3.704l-0.358-3.704
				c3.027-0.08,6.572-0.757,10.635-2.031c4.7-1.434,8.046-2.27,10.038-2.509l-0.597-6.692l-12.308,2.27l-12.308,1.553
				c0.319,1.195,0.996,2.709,2.031,4.541l2.031,4.541l-1.673-1.434L117.668,249.603 M141.089,240.043l1.075-0.358l0.717,5.855
				c2.231-2.151,1.832,0.916-1.195,9.201c-1.912-0.239-4.979,0.518-9.201,2.27c-4.621,1.832-8.046,2.788-10.277,2.868l0.119-0.239
				l8.962-3.346c3.824-1.434,6.931-2.35,9.321-2.748l1.314-2.987l0.956-3.346c-1.753,0.239-4.979,1.075-9.679,2.509l-10.994,2.748
				l0.119,4.063v3.107l-0.717,0.239c-2.47-0.558-3.983-2.748-4.541-6.572c-0.239-4.7-0.637-8.046-1.195-10.038l25.214-3.465V240.043
				"/>
			<path class="st1" d="M141.925,250.559l-1.314,2.987c-2.39,0.398-5.497,1.314-9.321,2.748l-8.962,3.346v-3.107l-0.119-4.063
				l10.994-2.748c4.7-1.434,7.927-2.27,9.679-2.509L141.925,250.559"/>
			<path class="st2" d="M170.604,87.806c1.036,0.717,1.553,2.151,1.553,4.302c0,2.39,0.199,3.943,0.597,4.66l-5.258,0.239
				c-0.637-1.673-0.717-3.505-0.239-5.497C167.895,89.359,169.011,88.124,170.604,87.806"/>
			<path class="st2" d="M131.41,28.775c0.319-2.31,2.549-3.824,6.692-4.541l8.723,0.478c-1.593,1.115-3.943,1.992-7.05,2.629
				L131.41,28.775"/>
			<path class="st2" d="M146.346,23.039l-7.528,0.478l-6.811,1.195v-4.063c2.629-1.992,5.497-2.987,8.604-2.987
				C144.275,17.662,146.187,19.454,146.346,23.039"/>
			<path class="st2" d="M130.215,31.643c1.354,1.912,1.075,3.943-0.836,6.094l-5.497,4.182l-5.258-0.717
				c-3.187,0.159-4.859-0.558-5.019-2.151l4.78,0.239l5.497-0.239l3.346-3.585L130.215,31.643"/>
			<path class="st2" d="M123.403,37.14c-3.187,1.514-6.652,1.753-10.396,0.717c1.673-2.948,3.704-4.979,6.094-6.094l10.516-0.717
				C128.342,33.754,126.271,35.785,123.403,37.14"/>
			<path class="st2" d="M94.724,70.598c0.797,0.558,1.553,0.757,2.27,0.597L95.8,70.479l-1.673-0.478
				c1.434-1.434,3.426-2.868,5.975-4.302c1.434-0.876,3.625-2.111,6.572-3.704l0.358,2.629l0.239,2.509
				c-1.593,0-3.067,0.558-4.421,1.673l-3.585,2.39l0.597,3.465c-0.637,0.159-1.155-0.159-1.553-0.956
				c-0.398-0.797-0.279-1.275,0.358-1.434c-0.08-0.398-0.279-0.478-0.597-0.239l-1.075-0.239l0.956,2.748
				c0.558,1.036,0.797,2.031,0.717,2.987l-5.258,1.434c-1.832,0.398-3.147-0.279-3.943-2.031l1.553-3.346l1.314-3.585
				C93.131,69.921,93.928,70.12,94.724,70.598"/>
			<path class="st2" d="M80.863,89.479c0.398,1.115,0.08,2.669-0.956,4.66l-2.39,4.541c-0.319-0.398-0.597-1.553-0.836-3.465
				c-0.239-1.514-0.757-2.47-1.553-2.868l3.107-1.195C79.588,90.674,80.465,90.116,80.863,89.479"/>
			<path class="st2" d="M78.592,137.157c0.478,0.398,0.717,1.314,0.717,2.748l-0.119,3.585l-5.736,0.478l-0.836-2.509l-0.836-2.629
				l3.943,0.358C77.238,138.87,78.194,138.193,78.592,137.157"/>
			<path class="st2" d="M36.172,148.151c0.478,0.717,0.717,2.071,0.717,4.063l-2.39,0.358l-2.031-1.434l0.239-1.912
				C33.822,148.27,34.977,147.912,36.172,148.151"/>
			<path class="st1" d="M151.485,33.913c2.231,9.639,2.788,15.933,1.673,18.88c0.637-0.319,1.115-1.075,1.434-2.27l0.836-2.868
				c0.717,3.346,0.159,7.01-1.673,10.994c-2.151,4.859-3.306,8.285-3.465,10.277l3.346-7.409c1.354-2.868,2.748-5.019,4.182-6.453
				h0.478l-0.239-0.836l7.05,8.245c2.709,3.107,4.62,6.015,5.736,8.723l5.736,12.308c2.31,5.098,3.665,9.321,4.063,12.667
				c0.558,4.78-0.358,11.272-2.748,19.478c-2.788,9.321-4.302,16.132-4.541,20.434l-1.792,1.673l-0.12-0.717l-0.358,1.195
				c-1.832,5.497-3.147,10.794-3.943,15.893c-1.036,7.09-0.717,12.507,0.956,16.251v-4.302c-0.08-1.832,0.12-3.067,0.597-3.704
				v-0.597l1.912,0.956l1.912,0.956c1.434,3.266,4.143,8.046,8.126,14.339c3.027,5.656,3.744,10.914,2.151,15.773
				c-4.302,4.302-10.038,9.36-17.207,15.176l-17.088,13.503c-4.382,3.505-9.599,5.457-15.654,5.855
				c-7.568-0.08-13.662-0.04-18.283,0.119l-12.069-5.736c-5.019-2.151-8.205-2.948-9.56-2.39c0.239-1.195,0.876-1.633,1.912-1.314
				l2.151,0.119c-4.302-0.558-9.161-2.35-14.578-5.377l-13.503-7.767l-1.195-2.27l4.78-10.994c1.912-4.063,3.943-7.289,6.094-9.679
				c-0.319-2.629,0.358-4.979,2.031-7.05c1.195-1.593,2.629-2.709,4.302-3.346l1.195,5.258c5.975,4.222,10.635,7.249,13.981,9.082
				c5.656,3.107,10.914,5.019,15.773,5.736c-12.109-4.461-21.868-9.998-29.276-16.61c0.319-5.178-0.916-10.516-3.704-16.012
				c-3.187-6.293-4.979-11.073-5.377-14.339c0.717,0.08,1.275-0.119,1.673-0.597l1.195-1.195l-2.27-17.446
				c-0.797-7.409-1.952-12.866-3.465-16.371l3.346,27.006l-3.226,1.075l-3.585-0.478c-0.558-0.637-0.956-1.792-1.195-3.465
				l-0.597-4.063c0.797,1.036,2.071,1.394,3.824,1.075c1.753-0.319,2.788-1.036,3.107-2.151c-4.222,2.151-6.851,0.518-7.887-4.899
				c-1.354-7.17-2.549-11.113-3.585-11.83l1.075-2.509l2.39-2.629l4.063,0.597c1.992,0,3.107,0.398,3.346,1.195l0.956-1.434
				l1.314-1.434l-0.119-2.031l-0.358-2.031c0.319-3.027,2.231-7.01,5.736-11.95c3.585-4.939,5.497-8.803,5.736-11.591
				c0.717,1.275,1.992,1.832,3.824,1.673c1.673-0.159,3.067-0.717,4.182-1.673l1.792,1.553c0.797,0.717,1.434,0.876,1.912,0.478
				l7.648,4.78c2.788,1.673,4.342,2.27,4.66,1.792c-0.08,3.585,0.916,6.413,2.987,8.484c2.071,2.071,4.7,2.709,7.887,1.912
				c-4.382,0-7.409-2.111-9.082-6.333c0.797-0.876,3.147-2.629,7.05-5.258c4.063-2.709,6.652-4.222,7.767-4.541
				c0.876-0.159,1.474-0.876,1.792-2.151c0.319-1.673,0.876-2.868,1.673-3.585c5.098,0.239,9.759-2.47,13.981-8.126l-1.912,0.717
				c0.797-2.31,0.996-4.979,0.597-8.006h2.868c1.115-1.115,2.27-3.226,3.465-6.333l-2.151,2.987
				c-1.275,1.753-2.669,2.669-4.182,2.748c-1.354,0-2.987-0.876-4.899-2.629c-2.071-1.912-3.704-2.948-4.899-3.107v-5.736
				c-0.478,0.319-0.677,1.155-0.597,2.509v3.226l-1.792,5.258l-2.151,5.616l-0.597,2.509l1.314-2.629
				c2.231-4.302,4.262-6.373,6.094-6.214l3.226,1.195c1.036,0.398,2.071,0.398,3.107,0c0.558,0.956,0.677,2.43,0.358,4.421
				c-0.478,2.39-0.597,4.143-0.358,5.258c-2.47,4.063-6.054,5.736-10.755,5.019c-4.62-0.717-6.174-3.346-4.66-7.887l-0.836,3.585
				c-0.239,1.434-0.916,2.151-2.031,2.151c0.159-0.558-0.08-1.115-0.717-1.673c-0.558-0.558-0.916-0.558-1.075,0l-8.604-0.836
				c-4.461-0.478-6.931-1.155-7.409-2.031c0.239-2.231,0.04-5.537-0.597-9.918c-0.558-3.505-0.478-5.935,0.239-7.289h-0.239
				c-0.956-0.319-0.398-1.075,1.673-2.27l0.239,1.195c0.159,0.398,0.478,0.558,0.956,0.478c-0.319-1.912-0.159-3.505,0.478-4.78
				c0.558-1.115,1.753-2.39,3.585-3.824l5.258,0.717c2.47,0.08,4.143,0.438,5.019,1.075l4.182-4.421l3.824-4.78
				c-0.717-0.876-1.275-2.231-1.673-4.063l8.245-2.031l8.962-1.434l-2.39,4.541c-1.115,1.912-1.872,3.465-2.27,4.66
				c3.027-2.151,5.138-4.979,6.333-8.484l2.27,4.541l-3.346,2.27c-1.673,0.876-2.828,1.633-3.465,2.27l2.987-0.956L151.485,33.913
				 M139.416,39.052c-2.39,0.956-3.904,1.912-4.541,2.868l2.509-1.314l2.031-0.358c-0.717,0.319-1.474,1.075-2.27,2.27l-2.27,2.27
				l-1.195-0.717c-0.478-0.398-0.677-0.916-0.597-1.553c-4.939,1.832-7.409,3.346-7.409,4.541c1.912-1.434,4.182-2.589,6.811-3.465
				c0.717,0.478,1.155,1.195,1.314,2.151c0.08,0.956,0.438,1.593,1.075,1.912c0-1.354,0.876-2.868,2.629-4.541
				C139.177,41.521,139.814,40.167,139.416,39.052 M133.68,48.85c0.08,0.876-0.518,1.434-1.792,1.673l-2.27,1.195l3.346-0.836
				C134.317,50.404,134.556,49.727,133.68,48.85 M121.611,48.253c1.036-0.319,1.235-0.438,0.597-0.358l-2.27,0.358l5.019,6.333
				c1.992,2.788,3.545,4.501,4.66,5.138l-1.912-2.987l-2.031-2.748l1.673-1.195c-1.354-0.08-2.47-0.637-3.346-1.673L121.611,48.253
				 M121.013,61.397c0.159-0.876-0.239-1.553-1.195-2.031c-0.956-0.558-1.673-0.438-2.151,0.358c1.753,0.159,2.509,0.916,2.27,2.27
				l-1.553-0.239c-0.398-0.319-0.637-0.239-0.717,0.239l2.868,0.597L121.013,61.397 M166.9,66.058
				c-1.195-0.558-2.43-0.199-3.704,1.075l-0.239,0.478l2.031-0.836L166.9,66.058 M144.554,98.68
				c0.797-0.956,1.195-0.558,1.195,1.195c0,1.753,0.199,2.31,0.597,1.673v-4.182c-0.159-1.593-0.558-2.669-1.195-3.226
				c0.478,1.115,0.518,2.151,0.119,3.107L144.554,98.68 M134.277,100.95l5.855-0.717c2.231-0.637,2.948-1.155,2.151-1.553
				c-1.753,1.036-3.704,1.593-5.855,1.673c-2.549,0.08-4.023-0.836-4.421-2.748c1.115-1.036,2.151-2.868,3.107-5.497
				c1.036-2.629,1.314-4.262,0.836-4.899c-1.514,7.17-3.904,10.635-7.17,10.396c1.115,0.159,2.111,0.558,2.987,1.195L134.277,100.95
				 M127.944,82.667c2.231,3.187,5.935,3.864,11.113,2.031c4.939-1.753,7.369-3.784,7.289-6.094
				c-1.036,2.709-3.864,4.461-8.484,5.258C133.401,84.659,130.095,84.261,127.944,82.667 M132.246,118.875l0.239,5.019
				c-1.514-1.912-2.629-2.27-3.346-1.075c1.195,0,1.952,0.358,2.27,1.075l-6.931,0.836l-7.409,0.358
				c-0.956,0.717-1.474,2.071-1.553,4.063c0,1.832,0.319,3.147,0.956,3.943l-7.528,0.836c-3.187,0.239-5.457,0.717-6.811,1.434
				l0.597,8.484c0.319,3.744,1.075,6.851,2.27,9.321l23.899,2.27c9.639,0.319,16.769-0.996,21.39-3.943
				c-0.159-2.39,0.996-4.103,3.465-5.138c0.797,0.159,1.354,0.677,1.673,1.553s0.717,1.314,1.195,1.314
				c0.876-0.797,2.669-1.992,5.377-3.585l4.899-3.943h-0.478v-0.597c-1.275,0.478-2.908,1.434-4.899,2.868l-4.899,2.868
				l-0.717-1.553c-0.319-0.558-0.836-0.797-1.553-0.717l-2.27,2.151c-0.797,0.717-1.394,0.398-1.792-0.956l-0.119,2.151
				l-0.478,1.792c-4.063,3.346-10.675,4.78-19.836,4.302l-23.66-1.912c-0.876-2.948-0.717-5.059,0.478-6.333h-1.314
				c-0.558-0.08-0.876-0.279-0.956-0.597l-0.12-3.824c0-1.514,0.438-2.35,1.314-2.509l1.553,0.478l1.912,0.119l4.063-0.239
				l-2.27-0.119c-4.62-0.239-6.572-1.075-5.855-2.509c2.948-0.956,6.572-1.514,10.874-1.673c-0.398,0.478-0.558,1.434-0.478,2.868
				l-0.119,2.27l-1.792,0.119c-0.637-0.239-1.155-0.08-1.553,0.478c2.629,0.717,4.342,0.717,5.138,0
				c0-4.859,0.199-9.48,0.597-13.861l10.755-0.717c3.744-0.558,6.054-2.031,6.931-4.421c-1.195,0-1.792-1.036-1.792-3.107
				s0.438-3.306,1.314-3.704c1.195,0.398,3.107,1.394,5.736,2.987c2.231,1.354,3.943,2.071,5.138,2.151l0.239,1.195l0.358,1.075
				l-1.912,1.075c-0.637,0.478-0.597,1.075,0.119,1.792c1.275-0.159,1.912-1.394,1.912-3.704c0-2.868,0.12-4.501,0.358-4.899
				c-0.717-0.159-1.195,0.239-1.434,1.195c-0.159,0.876-0.637,1.235-1.434,1.075l-2.509-2.031l-2.629-1.912l5.497-2.39
				c2.39-0.876,3.625-1.832,3.704-2.868c0.159-0.876,0-1.155-0.478-0.836c-0.478,0.319-0.717,0.239-0.717-0.239l0.12-3.346
				c0-1.434-0.199-1.872-0.597-1.314c0.876,3.904-0.279,6.413-3.465,7.528l-9.201,1.673
				C132.644,114.613,132.166,116.564,132.246,118.875 M129.139,114.812c0.398-4.063-0.956-5.815-4.063-5.258
				c0.159,0.558,0.876,1.115,2.151,1.673c1.036,0.478,1.474,1.275,1.314,2.39l-2.629,0.478l-2.031,0.119
				C125.554,115.409,127.307,115.608,129.139,114.812 M123.881,132.497l9.679-1.075c3.983-1.036,6.493-0.478,7.528,1.673
				c-0.478,0.558-0.876,0.637-1.195,0.239l-1.075-1.314v2.27l2.868-0.597c0.239-0.956,0.159-1.713-0.239-2.27l-1.434-1.195
				c1.593,0.398,2.948,0.199,4.063-0.597c1.195-0.797,1.354-1.753,0.478-2.868l-0.478,1.553l-1.195,0.836l-9.201,1.553
				l-10.277,1.314c-1.036-0.08-1.394,0.04-1.075,0.358L123.881,132.497 M164.629,117.082c0.398,0.08,0.597,0.797,0.597,2.151
				l0.239-2.151C165.386,116.445,165.107,116.445,164.629,117.082 M163.315,119.114c-0.558-0.239-0.876-0.159-0.956,0.239
				c1.195,1.753,2.151,1.753,2.868,0L163.315,119.114 M170.604,87.806c-1.593,0.319-2.709,1.553-3.346,3.704
				c-0.478,1.992-0.398,3.824,0.239,5.497l5.258-0.239c-0.398-0.717-0.597-2.27-0.597-4.66
				C172.157,89.957,171.64,88.523,170.604,87.806 M173.113,112.183c-0.398-1.115-0.916-1.195-1.553-0.239
				c1.036,0.398,1.275,1.155,0.717,2.27l-0.717,1.673l0.717-0.358l0.956-0.239L173.113,112.183 M106.196,90.076l4.66,9.201
				c1.354,3.983,1.314,7.249-0.119,9.799c-0.478,0.08-0.558,0.159-0.239,0.239l0.836-0.239l1.673-5.258
				c-0.797-1.195-1.713-3.625-2.748-7.289c-0.956-3.426-1.952-5.776-2.987-7.05c-2.31-0.239-4.222,0.159-5.736,1.195
				c-0.956,0.637-2.111,1.792-3.465,3.465l3.346-2.748C102.77,90.355,104.364,89.917,106.196,90.076 M99.743,100.233l1.195,1.912
				c1.753,0.398,3.505,0.398,5.258,0l2.39-0.119c0.717-0.398,0.279-0.558-1.314-0.478h-5.138c-0.637-0.239-1.195-0.797-1.673-1.673
				l-1.195-2.27C99.106,98.56,99.265,99.437,99.743,100.233 M97.592,95.812c-1.354,3.983-1.553,7.568-0.597,10.755
				c1.036,3.824,3.505,5.019,7.409,3.585l-4.421-0.717c-1.115-0.558-1.912-1.633-2.39-3.226c-0.478-1.434-0.358-3.904,0.358-7.409
				C98.429,96.25,98.309,95.254,97.592,95.812 M92.932,103.34c0.717-1.275,0.518-2.071-0.597-2.39
				c0.239,1.036-0.04,1.792-0.836,2.27l-2.031,1.195l2.031-0.358L92.932,103.34 M94.127,158.906
				c0.876-0.159,1.434-0.876,1.673-2.151c0.239-1.275-0.319-1.872-1.673-1.792c0.558,0.637,0.677,1.474,0.358,2.509L94.127,158.906
				 M117.429,191.05c0.319,1.115,0,1.872-0.956,2.27l10.994,0.119c4.302-0.159,7.727-0.757,10.277-1.792l-9.918,0.478l-9.679,0.597
				l-0.597-3.107c-0.478-1.195-1.036-1.474-1.673-0.836L117.429,191.05 M114.8,175.396c0-1.832-0.199-2.549-0.597-2.151v4.182
				c-0.08,1.832,0.119,2.549,0.597,2.151V175.396 M114.8,216.263c-0.558,1.753-1.155,4.62-1.792,8.604
				c0.159,1.912,0.597,0.876,1.314-3.107C115.118,217.538,115.278,215.706,114.8,216.263 M101.536,212.798v-1.314l-0.597-0.956
				l-0.597,1.314l-1.075,0.956l0.956,0.358L101.536,212.798 M94.127,200.012l1.075,1.314c0.319-1.195-0.08-2.071-1.195-2.629
				c-1.115-0.478-1.832-0.159-2.151,0.956L94.127,200.012 M175.145,173.962l-1.314-0.717c0.797,1.354,0.159,2.669-1.912,3.943
				c-2.071,1.275-2.948,2.27-2.629,2.987l2.868-2.629l3.346-2.031L175.145,173.962 M158.893,156.994
				c0.876-0.398,1.275-1.075,1.195-2.031s-0.677-1.673-1.792-2.151c-1.195-0.478-1.952-0.159-2.27,0.956
				c1.354-0.08,2.27,0.119,2.748,0.597c0.558,0.558,0.597,1.314,0.119,2.27l-1.553-0.239c-0.398-0.319-0.637-0.239-0.717,0.239
				C157.26,157.272,158.017,157.392,158.893,156.994 M125.076,163.566l-0.597,2.868c0.876,0.398,1.474-0.04,1.792-1.314
				C126.51,163.845,126.112,163.327,125.076,163.566 M129.139,184.717c1.514-0.159,2.47-0.717,2.868-1.673
				c-0.478-0.159-0.677-0.558-0.597-1.195c-1.434-0.159-2.191,0.239-2.27,1.195l1.195,0.358
				C129.378,183.721,128.98,184.159,129.139,184.717 M150.29,166.912l-0.597,0.597c1.434,0.08,2.191-0.597,2.27-2.031
				c0.159-1.514-0.398-2.35-1.673-2.509l0.597,2.151C151.126,166.075,150.927,166.673,150.29,166.912 M165.824,183.641
				c0.558,1.832,0.119,3.027-1.314,3.585l-3.346,0.358c1.115,1.673,2.629,1.753,4.541,0.239
				C167.537,186.31,167.577,184.916,165.824,183.641 M161.164,184.119l-5.377,3.704c-2.231,1.514-4.262,2.589-6.094,3.226
				c0,2.868-1.115,5.059-3.346,6.572l-6.931,3.226c2.549,0,4.74-0.677,6.572-2.031l4.302-4.302
				c0.637,5.417-0.876,9.241-4.541,11.472c-1.434,0.159-2.948-0.558-4.541-2.151c-1.514-1.514-2.669-2.151-3.465-1.912
				c3.187,4.939,6.652,5.895,10.396,2.868c3.665-3.027,4.581-7.409,2.748-13.145l5.975-3.704
				C159.332,186.509,160.766,185.234,161.164,184.119 M165.824,172.17c-3.027,2.629-7.648,5.855-13.861,9.679
				c-6.931,4.143-11.671,7.21-14.22,9.201l15.295-8.843C158.774,178.622,163.036,175.276,165.824,172.17 M126.271,203.119h-5.736
				l-0.717,0.717c-0.319,0.08-0.279,0.199,0.119,0.358l3.226-0.478C124.917,203.876,125.953,203.677,126.271,203.119
				 M133.919,223.433c-1.753-1.036-2.788-0.757-3.107,0.836l2.151-0.239c0.717,0.159,0.757,0.637,0.12,1.434
				C135.472,225.226,135.751,224.548,133.919,223.433"/>
			<path class="st0" d="M180.761,218.056c0.08,2.868-1.115,4.7-3.585,5.497l-7.409-0.358c0.956-3.107,2.31-4.82,4.063-5.138
				l-1.434,1.792c-0.558,0.637-0.836,1.354-0.836,2.151c1.434,1.115,3.067,1.354,4.899,0.717c1.992-0.558,3.027-1.753,3.107-3.585
				c-0.159-0.478-0.677-0.797-1.553-0.956l-1.912-0.717c0.478-0.637,1.235-0.757,2.27-0.358L180.761,218.056"/>
			<path class="st0" d="M173.83,173.245l1.314,0.717l0.358,1.553l-3.346,2.031l-2.868,2.629c-0.319-0.717,0.558-1.713,2.629-2.987
				C173.99,175.914,174.627,174.599,173.83,173.245"/>
			<path class="st0" d="M171.56,111.944c0.637-0.956,1.155-0.876,1.553,0.239l0.119,3.107l-0.956,0.239l-0.717,0.358l0.717-1.673
				C172.835,113.099,172.596,112.342,171.56,111.944"/>
			<path class="st0" d="M168.692,162.371c-0.478,0.637-0.677,1.872-0.597,3.704v4.302c-1.673-3.744-1.992-9.161-0.956-16.251
				c0.797-5.098,2.111-10.396,3.943-15.893l0.478-0.478l-2.27,12.069c-1.275,5.656-1.275,9.639,0,11.95h-0.597V162.371"/>
			<path class="st0" d="M166.9,66.058l-1.912,0.717l-2.031,0.836l0.239-0.478C164.47,65.858,165.705,65.5,166.9,66.058"/>
			<path class="st0" d="M133.68,113.019l9.201-1.673c3.187-1.115,4.342-3.625,3.465-7.528c0.398-0.558,0.597-0.12,0.597,1.314
				l-0.12,3.346c0,0.478,0.239,0.558,0.717,0.239c0.478-0.319,0.637-0.04,0.478,0.836c-0.08,1.036-1.314,1.992-3.704,2.868
				l-5.497,2.39l2.629,1.912l2.509,2.031c0.797,0.159,1.275-0.199,1.434-1.075c0.239-0.956,0.717-1.354,1.434-1.195
				c-0.239,0.398-0.358,2.031-0.358,4.899c0,2.31-0.637,3.545-1.912,3.704c-0.717-0.717-0.757-1.314-0.119-1.792l1.912-1.075
				l-0.358-1.075l-0.239-1.195c-1.195-0.08-2.908-0.797-5.138-2.151c-2.629-1.593-4.541-2.589-5.736-2.987
				c-0.876,0.398-1.314,1.633-1.314,3.704s0.597,3.107,1.792,3.107c-0.876,2.39-3.187,3.864-6.931,4.421l-10.755,0.717
				c-0.398,4.382-0.597,9.002-0.597,13.861c-0.797,0.717-2.509,0.717-5.138,0c0.398-0.558,0.916-0.717,1.553-0.478l1.792-0.119
				l0.119-2.27c-0.08-1.434,0.08-2.39,0.478-2.868c-4.302,0.159-7.927,0.717-10.874,1.673c-0.717,1.434,1.235,2.27,5.855,2.509
				l2.27,0.119l-4.063,0.239l-1.912-0.119l-1.553-0.478c-0.876,0.159-1.314,0.996-1.314,2.509l0.12,3.824
				c0.08,0.319,0.398,0.518,0.956,0.597h1.314c-1.195,1.275-1.354,3.386-0.478,6.333l23.66,1.912
				c9.161,0.478,15.773-0.956,19.836-4.302l0.478-1.792l0.119-2.151c0.398,1.354,0.996,1.673,1.792,0.956l2.27-2.151
				c0.717-0.08,1.235,0.159,1.553,0.717l0.717,1.553l4.899-2.868c1.992-1.434,3.625-2.39,4.899-2.868v0.597h0.478L162,145.642
				c-2.709,1.593-4.501,2.788-5.377,3.585c-0.478,0-0.876-0.438-1.195-1.314s-0.876-1.394-1.673-1.553
				c-2.47,1.036-3.625,2.748-3.465,5.138c-4.62,2.948-11.75,4.262-21.39,3.943l-23.899-2.27c-1.195-2.47-1.952-5.576-2.27-9.321
				l-0.597-8.484c1.354-0.717,3.625-1.195,6.811-1.434l7.528-0.836c-0.637-0.797-0.956-2.111-0.956-3.943
				c0.08-1.992,0.597-3.346,1.553-4.063l7.409-0.358l6.931-0.836c-0.319-0.717-1.075-1.075-2.27-1.075
				c0.717-1.195,1.832-0.836,3.346,1.075l-0.239-5.019C132.166,116.564,132.644,114.613,133.68,113.019"/>
			<path class="st0" d="M165.824,183.641c1.753,1.275,1.713,2.669-0.119,4.182c-1.912,1.514-3.426,1.434-4.541-0.239l3.346-0.358
				C165.944,186.668,166.382,185.473,165.824,183.641"/>
			<path class="st0" d="M164.629,117.082c0.478-0.637,0.757-0.637,0.836,0l-0.239,2.151
				C165.227,117.879,165.028,117.162,164.629,117.082"/>
			<path class="st0" d="M162.359,119.353c0.08-0.398,0.398-0.478,0.956-0.239l1.912,0.239
				C164.51,121.105,163.554,121.105,162.359,119.353"/>
			<path class="st0" d="M160.088,154.962c0.08,0.956-0.319,1.633-1.195,2.031c-0.876,0.398-1.633,0.279-2.27-0.358
				c0.08-0.478,0.319-0.558,0.717-0.239l1.553,0.239c0.478-0.956,0.438-1.713-0.119-2.27c-0.478-0.478-1.394-0.677-2.748-0.597
				c0.319-1.115,1.075-1.434,2.27-0.956C159.411,153.289,160.009,154.006,160.088,154.962"/>
			<path class="st0" d="M154.592,37.737l2.629,14.459c0.797-0.239,1.155-0.797,1.075-1.673c0.558,0.159,0.677,0.518,0.358,1.075
				c-0.478,0.717-0.597,1.314-0.358,1.792l-0.239,0.836l0.239,0.836h-0.478c-1.434,1.434-2.828,3.585-4.182,6.453l-3.346,7.409
				c0.159-1.992,1.314-5.417,3.465-10.277c1.832-3.983,2.39-7.648,1.673-10.994l-0.836,2.868c-0.319,1.195-0.797,1.952-1.434,2.27
				c1.115-2.948,0.558-9.241-1.673-18.88l-2.748,1.314l-2.987,0.956c0.637-0.637,1.792-1.394,3.465-2.27l3.346-2.27l-2.27-4.541
				C152.042,28.934,153.476,32.479,154.592,37.737"/>
			<path class="st0" d="M161.164,184.119c-0.398,1.115-1.832,2.39-4.302,3.824l-5.975,3.704c1.832,5.736,0.916,10.117-2.748,13.145
				c-3.744,3.027-7.21,2.071-10.396-2.868c0.797-0.239,1.952,0.398,3.465,1.912c1.593,1.593,3.107,2.31,4.541,2.151
				c3.665-2.231,5.178-6.054,4.541-11.472l-4.302,4.302c-1.832,1.354-4.023,2.031-6.572,2.031l6.931-3.226
				c2.231-1.514,3.346-3.704,3.346-6.572c1.832-0.637,3.864-1.713,6.094-3.226L161.164,184.119"/>
			<path class="st0" d="M165.824,172.17c-2.788,3.107-7.05,6.453-12.786,10.038l-15.295,8.843c2.549-1.992,7.289-5.059,14.22-9.201
				C158.176,178.025,162.797,174.798,165.824,172.17"/>
			<path class="st0" d="M150.29,27.102c-1.195,3.505-3.306,6.333-6.333,8.484c0.398-1.195,1.155-2.748,2.27-4.66l2.39-4.541
				l-8.962,1.434l-8.245,2.031c0.398,1.832,0.956,3.187,1.673,4.063l-3.824,4.78l-4.182,4.421c-0.876-0.637-2.549-0.996-5.019-1.075
				l-5.258-0.717c-1.832,1.434-3.027,2.709-3.585,3.824c-0.637,1.275-0.797,2.868-0.478,4.78c-0.478,0.08-0.797-0.08-0.956-0.478
				l-0.239-1.195c-2.071,1.195-2.629,1.952-1.673,2.27h0.239c-0.717,1.354-0.797,3.784-0.239,7.289
				c0.637,4.382,0.836,7.688,0.597,9.918c0.478,0.876,2.948,1.553,7.409,2.031l8.604,0.836l-10.277,1.673
				c-0.876,0.239-1.434-0.159-1.673-1.195c-0.239-1.115-0.637-1.673-1.195-1.673l-2.509,0.478l-2.151,0.717l1.195-2.27
				c-2.868-0.159-5.098,1.075-6.692,3.704c-1.593,2.629-1.753,5.218-0.478,7.767c-2.151-1.115-3.386-1.514-3.704-1.195
				c-1.115,0.956-2.509,1.514-4.182,1.673c-1.832,0.159-3.107-0.398-3.824-1.673c-0.239,2.788-2.151,6.652-5.736,11.591
				c-3.505,4.939-5.417,8.922-5.736,11.95l0.358,2.031l0.119,2.031l-1.314,1.434l-0.956,1.434c-0.239-0.797-1.354-1.195-3.346-1.195
				l-4.063-0.597c0.478-0.478,1.593-0.677,3.346-0.597l3.465-0.478l0.717-6.572c-0.08-3.426-0.677-5.656-1.792-6.692l-2.031,0.597
				h-2.629c-1.434,2.231-2.31,5.815-2.629,10.755c-0.478-1.593-0.358-3.465,0.358-5.616l1.792-6.333
				c7.01-0.319,12.189-3.147,15.534-8.484l6.811-16.729c2.868-0.319,5.656-1.354,8.365-3.107l6.572-4.899
				c-1.434-3.824-1.235-7.369,0.597-10.635l5.616-7.17c-1.912-1.832-1.713-4.182,0.597-7.05c2.071-2.47,4.581-4.302,7.528-5.497
				l4.899,0.836c1.753,0.398,3.147,0.119,4.182-0.836c-0.797-4.222,0.119-7.528,2.748-9.918c2.629-2.47,6.493-3.585,11.591-3.346
				c0.797,0.637,1.753,2.27,2.868,4.899c1.036,2.231,2.191,3.665,3.465,4.302c0.398-0.558,0.597-0.558,0.597,0L150.29,27.102
				 M132.007,24.712l6.811-1.195l7.528-0.478c-0.159-3.585-2.071-5.377-5.736-5.377c-3.107,0-5.975,0.996-8.604,2.987V24.712
				 M131.41,28.775l8.365-1.434c3.107-0.637,5.457-1.514,7.05-2.629l-8.723-0.478C133.959,24.951,131.728,26.465,131.41,28.775
				 M119.101,31.762c-2.39,1.115-4.421,3.147-6.094,6.094c3.744,1.036,7.21,0.797,10.396-0.717c2.868-1.354,4.939-3.386,6.214-6.094
				L119.101,31.762 M129.378,37.737c1.912-2.151,2.191-4.182,0.836-6.094l-2.987,3.824l-3.346,3.585l-5.497,0.239l-4.78-0.239
				c0.159,1.593,1.832,2.31,5.019,2.151l5.258,0.717L129.378,37.737 M92.334,70.001l-1.314,3.585l-1.553,3.346
				c0.797,1.753,2.111,2.43,3.943,2.031l5.258-1.434c0.08-0.956-0.159-1.952-0.717-2.987l-0.956-2.748l1.075,0.239
				c0.319-0.239,0.518-0.159,0.597,0.239c-0.637,0.159-0.757,0.637-0.358,1.434c0.398,0.797,0.916,1.115,1.553,0.956l-0.597-3.465
				l3.585-2.39c1.354-1.115,2.828-1.673,4.421-1.673l-0.239-2.509l-0.358-2.629c-2.948,1.593-5.138,2.828-6.572,3.704
				c-2.549,1.434-4.541,2.868-5.975,4.302l1.673,0.478l1.195,0.717c-0.717,0.159-1.474-0.04-2.27-0.597
				C93.928,70.12,93.131,69.921,92.334,70.001 M78.234,91.152l-3.107,1.195c0.797,0.398,1.314,1.354,1.553,2.868
				c0.239,1.912,0.518,3.067,0.836,3.465l2.39-4.541c1.036-1.992,1.354-3.545,0.956-4.66C80.465,90.116,79.588,90.674,78.234,91.152
				"/>
			<path class="st0" d="M150.29,162.968c1.275,0.159,1.832,0.996,1.673,2.509c-0.08,1.434-0.836,2.111-2.27,2.031l0.597-0.597
				c0.637-0.239,0.836-0.836,0.597-1.792L150.29,162.968"/>
			<path class="st0" d="M140.85,57.095c1.912,1.753,3.545,2.629,4.899,2.629c1.514-0.08,2.908-0.996,4.182-2.748l2.151-2.987
				c-1.195,3.107-2.35,5.218-3.465,6.333h-2.868c0.398,3.027,0.199,5.696-0.597,8.006l1.912-0.717
				c-4.222,5.656-8.882,8.365-13.981,8.126c-0.797,0.717-1.354,1.912-1.673,3.585c-0.319,1.275-0.916,1.992-1.792,2.151
				c-0.956-0.239-0.916-0.717,0.119-1.434c1.275-1.036,1.832-1.872,1.673-2.509c0.08-1.115-0.279-1.992-1.075-2.629l-1.792-2.031
				c-1.036,0.717-1.314,1.832-0.836,3.346l0.836,4.182c-0.797-0.797-1.474-2.43-2.031-4.899c-0.637-2.47-1.314-4.103-2.031-4.899
				c0.159-0.558,0.518-0.558,1.075,0c0.637,0.558,0.876,1.115,0.717,1.673c1.115,0,1.792-0.717,2.031-2.151l0.836-3.585
				c-1.514,4.541,0.04,7.17,4.66,7.887c4.7,0.717,8.285-0.956,10.755-5.019c-0.239-1.115-0.119-2.868,0.358-5.258
				c0.319-1.992,0.199-3.465-0.358-4.421c-1.036,0.398-2.071,0.398-3.107,0l-3.226-1.195c-1.832-0.159-3.864,1.912-6.094,6.214
				l-1.314,2.629l0.597-2.509l2.151-5.616l1.792-5.258v-3.226c-0.08-1.354,0.119-2.191,0.597-2.509v5.736
				C137.145,54.148,138.778,55.183,140.85,57.095"/>
			<path class="st0" d="M145.152,94.139c0.637,0.558,1.036,1.633,1.195,3.226v4.182c-0.398,0.637-0.597,0.08-0.597-1.673
				c0-1.753-0.398-2.151-1.195-1.195l0.717-1.434C145.669,96.29,145.629,95.254,145.152,94.139"/>
			<path class="st0" d="M146.346,78.605c0.08,2.31-2.35,4.342-7.289,6.094c-5.178,1.832-8.883,1.155-11.113-2.031
				c2.151,1.593,5.457,1.992,9.918,1.195C142.483,83.066,145.311,81.313,146.346,78.605"/>
			<path class="st0" d="M122.328,132.378c-0.319-0.319,0.04-0.438,1.075-0.358l10.277-1.314l9.201-1.553l1.195-0.836l0.478-1.553
				c0.876,1.115,0.717,2.071-0.478,2.868c-1.115,0.797-2.47,0.996-4.063,0.597l1.434,1.195c0.398,0.558,0.478,1.314,0.239,2.27
				l-2.868,0.597v-2.27l1.075,1.314c0.319,0.398,0.717,0.319,1.195-0.239c-1.036-2.151-3.545-2.709-7.528-1.673l-9.679,1.075
				L122.328,132.378"/>
			<path class="st0" d="M132.007,97.604c0.398,1.912,1.872,2.828,4.421,2.748c2.151-0.08,4.103-0.637,5.855-1.673
				c0.797,0.398,0.08,0.916-2.151,1.553l-5.855,0.717l-2.509-2.151c-0.876-0.637-1.872-1.036-2.987-1.195
				c3.266,0.239,5.656-3.226,7.17-10.396c0.478,0.637,0.199,2.27-0.836,4.899C134.158,94.736,133.122,96.569,132.007,97.604"/>
			<path class="st0" d="M142.164,239.565v0.12l-1.075,0.358v-0.239L142.164,239.565"/>
			<path class="st1" d="M116.473,243.867l12.308-1.553l12.308-2.27l0.597,6.692c-1.992,0.239-5.337,1.075-10.038,2.509
				c-4.063,1.275-7.608,1.952-10.635,2.031l0.358,3.704l0.239,3.704c-1.673-0.159-2.748-1.235-3.226-3.226l-0.717-5.855l1.195,1.912
				l1.673,1.434l-2.031-4.541C117.468,246.575,116.791,245.062,116.473,243.867"/>
			<path class="st0" d="M142.164,239.565l-1.075,0.239l-0.478-3.465L142.164,239.565"/>
			<path class="st0" d="M139.416,39.052c0.398,1.115-0.239,2.47-1.912,4.063c-1.753,1.673-2.629,3.187-2.629,4.541
				c-0.637-0.319-0.996-0.956-1.075-1.912c-0.159-0.956-0.597-1.673-1.314-2.151c-2.629,0.876-4.899,2.031-6.811,3.465
				c0-1.195,2.47-2.709,7.409-4.541c-0.08,0.637,0.119,1.155,0.597,1.553l1.195,0.717l2.27-2.27c0.797-1.195,1.553-1.952,2.27-2.27
				l-2.031,0.358l-2.509,1.314C135.512,40.964,137.026,40.008,139.416,39.052"/>
			<path class="st0" d="M118.146,192.723l9.679-0.597l9.918-0.478c-2.549,1.036-5.975,1.633-10.277,1.792l-10.994-0.119
				c0.956-0.398,1.275-1.155,0.956-2.27l-1.553-2.27c0.637-0.637,1.195-0.358,1.673,0.836L118.146,192.723"/>
			<path class="st0" d="M133.68,48.85c0.876,0.876,0.637,1.553-0.717,2.031l-3.346,0.836l2.27-1.195
				C133.162,50.284,133.76,49.727,133.68,48.85"/>
			<path class="st0" d="M130.812,224.27c0.319-1.593,1.354-1.872,3.107-0.836c1.832,1.115,1.553,1.792-0.836,2.031
				c0.637-0.797,0.597-1.275-0.12-1.434L130.812,224.27"/>
			<path class="st2" d="M131.41,77.529c0.159,0.637-0.398,1.474-1.673,2.509c-1.036,0.717-1.075,1.195-0.119,1.434l-11.113,1.314
				l-10.038,1.553l0.239,0.358c-2.868-1.912-5.537-3.545-8.006-4.899c-1.275-2.549-1.115-5.138,0.478-7.767
				c1.593-2.629,3.824-3.864,6.692-3.704l-1.195,2.27l2.151-0.717l2.509-0.478c0.558,0,0.956,0.558,1.195,1.673
				c0.239,1.036,0.797,1.434,1.673,1.195l10.277-1.673c0.717,0.797,1.394,2.43,2.031,4.899c0.558,2.47,1.235,4.103,2.031,4.899
				l-0.836-4.182c-0.478-1.514-0.199-2.629,0.836-3.346l1.792,2.031C131.131,75.538,131.489,76.414,131.41,77.529"/>
			<path class="st0" d="M131.41,181.849c-0.08,0.637,0.119,1.036,0.597,1.195c-0.398,0.956-1.354,1.514-2.868,1.673
				c-0.159-0.558,0.239-0.996,1.195-1.314l-1.195-0.358C129.219,182.088,129.976,181.689,131.41,181.849"/>
			<path class="st0" d="M121.85,86.013c-3.904,2.629-6.254,4.382-7.05,5.258c1.673,4.222,4.7,6.333,9.082,6.333
				c-3.187,0.797-5.815,0.159-7.887-1.912c-2.071-2.071-3.067-4.899-2.987-8.484c-0.239-0.478-1.195-0.996-2.868-1.553l-1.434-0.956
				l-0.239-0.358l10.038-1.553l11.113-1.314C128.502,81.791,125.913,83.305,121.85,86.013"/>
			<path class="st0" d="M125.076,109.554c3.107-0.558,4.461,1.195,4.063,5.258c-1.832,0.797-3.585,0.597-5.258-0.597l2.031-0.119
				l2.629-0.478c0.159-1.115-0.279-1.912-1.314-2.39C125.953,110.669,125.236,110.112,125.076,109.554"/>
			<path class="st0" d="M124.001,51.121c0.876,1.036,1.992,1.593,3.346,1.673l-1.673,1.195l2.031,2.748l1.912,2.987
				c-1.115-0.637-2.669-2.35-4.66-5.138l-5.019-6.333l2.27-0.358c0.637-0.08,0.438,0.04-0.597,0.358L124.001,51.121"/>
			<path class="st0" d="M120.535,203.119h5.736c-0.319,0.558-1.354,0.757-3.107,0.597l-3.226,0.478
				c-0.398-0.159-0.438-0.279-0.119-0.358L120.535,203.119"/>
			<path class="st0" d="M125.076,163.566c1.036-0.239,1.434,0.279,1.195,1.553c-0.319,1.275-0.916,1.713-1.792,1.314
				L125.076,163.566"/>
			<path class="st0" d="M120.535,62.592l-2.868-0.597c0.08-0.478,0.319-0.558,0.717-0.239l1.553,0.239
				c0.239-1.354-0.518-2.111-2.27-2.27c0.478-0.797,1.195-0.916,2.151-0.358c0.956,0.478,1.354,1.155,1.195,2.031L120.535,62.592"/>
			<path class="st0" d="M114.561,228.452l3.107,1.553c-1.434-0.159-5.417-1.673-11.95-4.541l-12.786-5.138
				c1.354-0.558,4.541,0.239,9.56,2.39L114.561,228.452"/>
			<path class="st0" d="M114.8,216.263c0.478-0.558,0.319,1.275-0.478,5.497c-0.717,3.983-1.155,5.019-1.314,3.107
				C113.645,220.884,114.242,218.016,114.8,216.263"/>
			<path class="st0" d="M114.202,173.245c0.398-0.398,0.597,0.319,0.597,2.151v4.182c-0.478,0.398-0.677-0.319-0.597-2.151V173.245"
				/>
			<path class="st0" d="M113.007,87.208c-0.319,0.478-1.872-0.119-4.66-1.792l-7.648-4.78l0.239-0.239l-0.239-0.597
				c2.47,1.354,5.138,2.987,8.006,4.899l1.434,0.956L113.007,87.208"/>
			<path class="st0" d="M113.007,103.818l-1.673,5.258l-0.836,0.239c-0.319-0.08-0.239-0.159,0.239-0.239
				c1.434-2.549,1.474-5.815,0.119-9.799l-4.66-9.201c-1.832-0.159-3.426,0.279-4.78,1.314l-3.346,2.748
				c1.354-1.673,2.509-2.828,3.465-3.465c1.514-1.036,3.426-1.434,5.736-1.195c1.036,1.275,2.031,3.625,2.987,7.05
				C111.294,100.193,112.211,102.623,113.007,103.818"/>
			<path class="st0" d="M107.271,101.548c1.593-0.08,2.031,0.08,1.314,0.478l-2.39,0.119c-1.753,0.398-3.505,0.398-5.258,0
				l-1.195-1.912c-0.478-0.797-0.637-1.673-0.478-2.629l1.195,2.27c0.478,0.876,1.036,1.434,1.673,1.673H107.271"/>
			<path class="st0" d="M104.404,110.151c-3.904,1.434-6.373,0.239-7.409-3.585c-0.956-3.187-0.757-6.771,0.597-10.755
				c0.717-0.558,0.836,0.438,0.358,2.987c-0.717,3.505-0.836,5.975-0.358,7.409c0.478,1.593,1.275,2.669,2.39,3.226L104.404,110.151
				"/>
			<path class="st0" d="M78.115,126.522l2.27,17.446l-1.195,1.195c-0.398,0.478-0.956,0.677-1.673,0.597
				c0.398,3.266,2.191,8.046,5.377,14.339c2.788,5.497,4.023,10.834,3.704,16.012c7.409,6.612,17.168,12.149,29.276,16.61
				c-4.859-0.717-10.117-2.629-15.773-5.736c-3.346-1.832-8.006-4.859-13.981-9.082l-1.195-5.258
				c-1.673,0.637-3.107,1.753-4.302,3.346c-1.673,2.071-2.35,4.421-2.031,7.05c-2.151,2.39-4.182,5.616-6.094,9.679l-4.78,10.994
				l1.195,2.27l13.503,7.767c5.417,3.027,10.277,4.82,14.578,5.377l-2.151-0.119c-1.036-0.319-1.673,0.119-1.912,1.314
				l-14.339-7.528l-7.289-3.704c-3.266-1.912-5.019-3.704-5.258-5.377c-0.319-1.992,0.916-5.298,3.704-9.918l6.572-11.352
				c1.115-3.346,2.031-5.656,2.748-6.931c1.036-1.992,2.788-3.306,5.258-3.943c0.239-3.904-1.195-8.086-4.302-12.547
				c-3.027-4.461-4.461-8.683-4.302-12.667l-3.465-0.597c-1.992-4.302-3.505-10.038-4.541-17.207
				c-1.115-7.409-2.47-12.587-4.063-15.534c0.239-0.797,0.996-1.832,2.27-3.107l-1.075,2.509c1.036,0.717,2.231,4.66,3.585,11.83
				c1.036,5.417,3.665,7.05,7.887,4.899c-0.319,1.115-1.354,1.832-3.107,2.151c-1.753,0.319-3.027-0.04-3.824-1.075l0.597,4.063
				c0.239,1.673,0.637,2.828,1.195,3.465l3.585,0.478l3.226-1.075l-3.346-27.006C76.163,113.657,77.318,119.114,78.115,126.522
				 M78.592,137.157c-0.398,1.036-1.354,1.713-2.868,2.031l-3.943-0.358l0.836,2.629l0.836,2.509l5.736-0.478l0.119-3.585
				C79.309,138.472,79.07,137.556,78.592,137.157"/>
			<path class="st0" d="M100.938,210.528l0.597,0.956v1.314l-1.314,0.358l-0.956-0.358l1.075-0.956L100.938,210.528"/>
			<path class="st0" d="M100.699,79.8l0.239,0.597l-0.239,0.239c-1.992-1.354-3.226-2.031-3.704-2.031
				C97.313,78.286,98.548,78.684,100.699,79.8"/>
			<path class="st0" d="M100.699,80.636c-0.478,0.398-1.115,0.239-1.912-0.478l-1.792-1.553
				C97.473,78.605,98.708,79.282,100.699,80.636"/>
			<path class="st0" d="M91.856,199.654c0.319-1.115,1.036-1.434,2.151-0.956c1.115,0.558,1.514,1.434,1.195,2.629l-1.075-1.314
				L91.856,199.654"/>
			<path class="st0" d="M94.127,154.962c1.354-0.08,1.912,0.518,1.673,1.792c-0.239,1.275-0.797,1.992-1.673,2.151l0.358-1.434
				C94.804,156.436,94.685,155.6,94.127,154.962"/>
			<path class="st0" d="M92.334,100.95c1.115,0.319,1.314,1.115,0.597,2.39l-1.434,0.717l-2.031,0.358l2.031-1.195
				C92.295,102.743,92.573,101.986,92.334,100.95"/>
			<path class="st1" d="M74.052,92.944c1.115,1.036,1.713,3.266,1.792,6.692l-0.717,6.572l-3.465,0.478
				c-1.753-0.08-2.868,0.119-3.346,0.597c-0.797-1.036-1.314-2.031-1.553-2.987c0.319-4.939,1.195-8.524,2.629-10.755h2.629
				L74.052,92.944"/>
			<path class="st0" d="M54.693,151.019l-2.509-0.717c0.239,2.549-0.319,4.103-1.673,4.66c0.876-0.956,1.235-2.31,1.075-4.063
				l-0.478-2.868c0.319,0.876,1.195,1.434,2.629,1.673l3.704,0.597l3.226,4.899c1.275,1.753,2.669,2.987,4.182,3.704l-0.358-4.78
				l-0.836-4.421c-1.514-0.239-2.868-1.553-4.063-3.943c-1.434-2.549-2.948-4.103-4.541-4.66l-22.346,0.597l-3.107,5.497
				l-3.226,5.377h1.792c0.637,0.08,0.836,0.478,0.597,1.195c-0.398-0.398-0.996-0.597-1.792-0.597c-0.717,0-1.275,0.199-1.673,0.597
				c-1.036,2.948-1.314,5.935-0.836,8.962c0.637,3.744,2.43,5.537,5.377,5.377c0.876-3.187,4.541-5.178,10.994-5.975
				c2.868-0.319,8.405-0.438,16.61-0.358c2.31,0.08,3.027,0.199,2.151,0.358c-1.593,0.319-2.151,0.597-1.673,0.836h2.27
				c1.036-0.08,1.633,0.119,1.792,0.597l-12.667-0.478l-13.742,0.478l-1.673,2.509c-0.956,0.956-1.553,1.832-1.792,2.629
				l4.063-0.956l4.063,0.358c-4.222,0-7.488,0.757-9.799,2.27c-1.593,12.587-0.239,19.677,4.063,21.27l1.195-1.553
				c0.558-0.637,0.916-0.717,1.075-0.239c-0.876,0.398-1.474,1.354-1.792,2.868l5.736,1.075c2.47,0.319,4.222-0.04,5.258-1.075
				c-0.08-2.868-1.474-4.62-4.182-5.258c-2.709-0.717-4.979-0.08-6.811,1.912c1.593-3.027,4.023-3.983,7.289-2.868
				c3.266,1.036,5.059,3.107,5.377,6.214l3.107,0.358l2.629,2.031c6.771,0.319,9.799-1.553,9.082-5.616
				c-0.637-3.346-2.709-6.254-6.214-8.723c1.195,0.159,2.908,1.434,5.138,3.824c1.753,1.992,3.465,2.43,5.138,1.314
				c0.398-1.514,0.08-4.103-0.956-7.767c-0.956-3.505-1.195-6.094-0.717-7.767l-13.264,0.119l-11.95-1.195l12.786,0.119
				l12.428,0.358l-1.075-3.704c-0.478-1.514-0.677-2.948-0.597-4.302c0.956,0.159,1.593,1.036,1.912,2.629
				c0.319,1.753,0.797,2.788,1.434,3.107l0.119-4.063l-0.597-3.346c-2.231-0.398-4.063-1.474-5.497-3.226
				c-0.876-0.956-1.912-2.748-3.107-5.377L54.693,151.019 M65.448,149.226c1.753,4.143,2.47,10.077,2.151,17.805
				c-0.478,9.161-0.438,15.256,0.119,18.283c-1.275,1.593-3.187,4.859-5.736,9.799l-4.063,0.717l-4.541,0.358
				c-1.514-1.992-4.461-2.629-8.843-1.912c-4.939,0.797-8.484,0.478-10.635-0.956c-5.417-2.868-7.329-10.316-5.736-22.346
				c-0.319-0.558-1.195-1.115-2.629-1.673c-1.354-0.478-2.191-1.075-2.509-1.792c-1.434-5.576-0.916-10.914,1.553-16.012
				l7.528-11.472l13.145-0.717l12.189,0.717c1.275,0.558,2.43,2.27,3.465,5.138C61.943,147.633,63.456,148.987,65.448,149.226"/>
			<path class="st0" d="M66.762,104.296c0.239,0.956,0.757,1.952,1.553,2.987l-2.39,2.629L66.762,104.296"/>
			<path class="st1" d="M57.442,151.497c1.195,2.629,2.231,4.421,3.107,5.377c1.434,1.753,3.266,2.828,5.497,3.226l0.597,3.346
				l-0.119,4.063c-0.637-0.319-1.115-1.354-1.434-3.107c-0.319-1.593-0.956-2.47-1.912-2.629c-0.08,1.354,0.119,2.788,0.597,4.302
				l1.075,3.704l-12.428-0.358l-12.786-0.119l11.95,1.195l13.264-0.119c-0.478,1.673-0.239,4.262,0.717,7.767
				c1.036,3.665,1.354,6.254,0.956,7.767c-1.673,1.115-3.386,0.677-5.138-1.314c-2.231-2.39-3.943-3.665-5.138-3.824
				c3.505,2.47,5.576,5.377,6.214,8.723c0.717,4.063-2.31,5.935-9.082,5.616l-2.629-2.031l-3.107-0.358
				c-0.319-3.107-2.111-5.178-5.377-6.214c-3.266-1.115-5.696-0.159-7.289,2.868c1.832-1.992,4.103-2.629,6.811-1.912
				c2.709,0.637,4.103,2.39,4.182,5.258c-1.036,1.036-2.788,1.394-5.258,1.075l-5.736-1.075c0.319-1.514,0.916-2.47,1.792-2.868
				c-0.159-0.478-0.518-0.398-1.075,0.239l-1.195,1.553c-4.302-1.593-5.656-8.683-4.063-21.27c2.31-1.514,5.576-2.27,9.799-2.27
				l-4.063-0.358l-4.063,0.956c0.239-0.797,0.836-1.673,1.792-2.629l1.673-2.509l13.742-0.478l12.667,0.478
				c-0.159-0.478-0.757-0.677-1.792-0.597h-2.27c-0.478-0.239,0.08-0.518,1.673-0.836c0.876-0.159,0.159-0.279-2.151-0.358
				c-8.205-0.08-13.742,0.04-16.61,0.358c-6.453,0.797-10.117,2.788-10.994,5.975c-2.948,0.159-4.74-1.633-5.377-5.377
				c-0.478-3.027-0.199-6.015,0.836-8.962c0.398-0.398,0.956-0.597,1.673-0.597c0.797,0,1.394,0.199,1.792,0.597
				c0.239-0.717,0.04-1.115-0.597-1.195h-1.792l3.226-5.377l3.107-5.497l22.346-0.597c1.593,0.558,3.107,2.111,4.541,4.66
				c1.195,2.39,2.549,3.704,4.063,3.943l0.836,4.421l0.358,4.78c-1.514-0.717-2.908-1.952-4.182-3.704l-3.226-4.899l-3.704-0.597
				c-1.434-0.239-2.31-0.797-2.629-1.673l0.478,2.868c0.159,1.753-0.199,3.107-1.075,4.063c1.354-0.558,1.912-2.111,1.673-4.66
				l2.509,0.717L57.442,151.497 M32.467,151.138l2.031,1.434l2.39-0.358c0-1.992-0.239-3.346-0.717-4.063
				c-1.195-0.239-2.35,0.119-3.465,1.075L32.467,151.138 M38.442,155.44c0.876-0.637,1.474-0.438,1.792,0.597
				c-0.159,1.514-0.956,2.27-2.39,2.27c-0.637,0.239-1.115,0.08-1.434-0.478l-0.836-1.195l-0.239,1.673l0.836,1.195l2.748-0.478
				l1.792-1.195v-2.509c-0.239-0.797-0.797-1.115-1.673-0.956l-0.717,0.717C38.004,155.161,38.044,155.281,38.442,155.44
				 M43.58,173.843c-2.231-3.904-5.059-3.744-8.484,0.478c-1.275,1.514-1.832,2.908-1.673,4.182c0.159,1.514,1.275,2.27,3.346,2.27
				c-2.788-0.637-3.545-2.231-2.27-4.78c1.195-2.549,2.908-3.824,5.138-3.824c2.151,0.398,3.027,1.713,2.629,3.943
				c-0.398,2.151-1.474,3.505-3.226,4.063c1.514-0.08,2.589-0.836,3.226-2.27L43.58,173.843 M44.178,180.773l1.912-0.358
				c0.558,0.08,0.876,0.558,0.956,1.434c-1.434,1.673-3.147,1.314-5.138-1.075c-0.08,0.637,0.119,1.195,0.597,1.673l1.075,1.195
				c3.107,0,4.461-1.155,4.063-3.465c-0.797-0.558-1.753-0.558-2.868,0L44.178,180.773 M56.247,180.773l-4.063,2.27l-3.346,2.868
				c-0.159,2.629,0.199,4.143,1.075,4.541c-0.797-2.31-0.279-4.262,1.553-5.855L56.247,180.773"/>
			<path class="st0" d="M48.838,185.912l3.346-2.868l4.063-2.27l-4.78,3.824c-1.832,1.593-2.35,3.545-1.553,5.855
				C49.037,190.054,48.679,188.54,48.838,185.912"/>
			<path class="st0" d="M47.643,180.176c0.398,2.31-0.956,3.465-4.063,3.465l-1.075-1.195c-0.478-0.478-0.677-1.036-0.597-1.673
				c1.992,2.39,3.704,2.748,5.138,1.075c-0.08-0.876-0.398-1.354-0.956-1.434l-1.912,0.358l0.597-0.597
				C45.891,179.618,46.847,179.618,47.643,180.176"/>
			<path class="st0" d="M42.266,177.905c-0.637,1.434-1.713,2.191-3.226,2.27c1.753-0.558,2.828-1.912,3.226-4.063
				c0.398-2.231-0.478-3.545-2.629-3.943c-2.231,0-3.943,1.275-5.138,3.824c-1.275,2.549-0.518,4.143,2.27,4.78
				c-2.071,0-3.187-0.757-3.346-2.27c-0.159-1.275,0.398-2.669,1.673-4.182c3.426-4.222,6.254-4.381,8.484-0.478L42.266,177.905"/>
			<path class="st0" d="M39.039,154.365c0.876-0.159,1.434,0.159,1.673,0.956v2.509l-1.792,1.195l-2.748,0.478l-0.836-1.195
				l0.239-1.673l0.836,1.195c0.319,0.558,0.797,0.717,1.434,0.478c1.434,0,2.231-0.757,2.39-2.27
				c-0.319-1.036-0.916-1.235-1.792-0.597c-0.398-0.159-0.438-0.279-0.119-0.358L39.039,154.365"/>
			<path class="st3" d="M32.467,151.138l2.031,1.434l2.39-0.358c0-1.992-0.239-3.346-0.717-4.063
				c-1.195-0.239-2.35,0.119-3.465,1.075L32.467,151.138z"/>
			<path class="st3" d="M113.605,228.452h0.956c4.62-0.159,10.715-0.199,18.283-0.119c6.054-0.398,11.272-2.35,15.654-5.855
				l17.088-13.503c7.17-5.815,12.906-10.874,17.207-15.176c1.593-4.859,0.876-10.117-2.151-15.773
				c-3.983-6.293-6.692-11.073-8.126-14.339l-1.912-0.956l-1.912-0.956"/>
			<path class="st4" d="M167.497,97.007c-0.637-1.673-0.717-3.505-0.239-5.497c0.637-2.151,1.753-3.386,3.346-3.704
				c1.036,0.717,1.553,2.151,1.553,4.302c0,2.39,0.199,3.943,0.597,4.66L167.497,97.007z"/>
			<path class="st5" d="M158.057,54.228l7.05,8.245c2.709,3.107,4.62,6.015,5.736,8.723l5.736,12.308
				c2.31,5.098,3.665,9.321,4.063,12.667c0.558,4.78-0.358,11.272-2.748,19.478c-2.788,9.321-4.302,16.132-4.541,20.434l-2.27,2.151
				l-4.66,3.465"/>
		</g>
		<g transform="matrix(1.0, 0.0, 0.0, 1.0, 0.0, 0.0)">
			<g id="shape0_1_" transform="matrix(1.0, 0.0, 0.0, 1.0, 0.0, 0.0)">
				<path class="st0" d="M117.667,249.602l0.717,5.855c0.478,1.992,1.553,3.067,3.226,3.226l-0.239-3.704l-0.358-3.704
					c3.027-0.08,6.572-0.757,10.635-2.031c4.7-1.434,8.046-2.27,10.038-2.509l-0.597-6.692l-12.308,2.27l-12.308,1.553
					c0.319,1.195,0.996,2.709,2.031,4.541l2.031,4.541l-1.673-1.434L117.667,249.602 M141.088,240.042l1.075-0.358l0.717,5.855
					c2.231-2.151,1.832,0.916-1.195,9.201c-1.912-0.239-4.979,0.518-9.201,2.27c-4.621,1.832-8.046,2.788-10.277,2.868l0.119-0.239
					l8.962-3.346c3.824-1.434,6.931-2.35,9.321-2.748l1.314-2.987l0.956-3.346c-1.753,0.239-4.979,1.075-9.679,2.509l-10.994,2.748
					l0.119,4.063v3.107l-0.717,0.239c-2.47-0.558-3.983-2.748-4.541-6.572c-0.239-4.7-0.637-8.046-1.195-10.038l25.214-3.465
					V240.042"/>
				<path class="st1" d="M141.925,250.558l-1.314,2.987c-2.39,0.398-5.497,1.314-9.321,2.748l-8.962,3.346v-3.107l-0.119-4.063
					l10.994-2.748c4.7-1.434,7.927-2.27,9.679-2.509L141.925,250.558"/>
				<path class="st2" d="M170.604,87.805c1.036,0.717,1.553,2.151,1.553,4.302c0,2.39,0.199,3.943,0.597,4.66l-5.258,0.239
					c-0.637-1.673-0.717-3.505-0.239-5.497C167.895,89.358,169.011,88.123,170.604,87.805"/>
				<path class="st2" d="M131.409,28.774c0.319-2.31,2.549-3.824,6.692-4.541l8.723,0.478c-1.593,1.115-3.943,1.992-7.05,2.629
					L131.409,28.774"/>
				<path class="st2" d="M146.346,23.038l-7.528,0.478l-6.811,1.195v-4.063c2.629-1.992,5.497-2.987,8.604-2.987
					C144.275,17.661,146.187,19.453,146.346,23.038"/>
				<path class="st2" d="M130.214,31.642c1.354,1.912,1.075,3.943-0.836,6.094l-5.497,4.182l-5.258-0.717
					c-3.187,0.159-4.859-0.558-5.019-2.151l4.78,0.239l5.497-0.239l3.346-3.585L130.214,31.642"/>
				<path class="st2" d="M123.403,37.139c-3.187,1.514-6.652,1.753-10.396,0.717c1.673-2.948,3.704-4.979,6.094-6.094l10.516-0.717
					C128.342,33.753,126.271,35.784,123.403,37.139"/>
				<path class="st2" d="M94.724,70.597c0.797,0.558,1.553,0.757,2.27,0.597L95.8,70.478L94.127,70
					c1.434-1.434,3.426-2.868,5.975-4.302c1.434-0.876,3.625-2.111,6.572-3.704l0.358,2.629l0.239,2.509
					c-1.593,0-3.067,0.558-4.421,1.673l-3.585,2.39l0.597,3.465c-0.637,0.159-1.155-0.159-1.553-0.956s-0.279-1.275,0.358-1.434
					c-0.08-0.398-0.279-0.478-0.597-0.239l-1.075-0.239l0.956,2.748c0.558,1.036,0.797,2.031,0.717,2.987l-5.258,1.434
					c-1.832,0.398-3.147-0.279-3.943-2.031l1.553-3.346L92.334,70C93.131,69.92,93.928,70.119,94.724,70.597"/>
				<path class="st2" d="M80.863,89.478c0.398,1.115,0.08,2.669-0.956,4.66l-2.39,4.541c-0.319-0.398-0.597-1.553-0.836-3.465
					c-0.239-1.514-0.757-2.47-1.553-2.868l3.107-1.195C79.588,90.673,80.464,90.115,80.863,89.478"/>
				<path class="st2" d="M78.592,137.156c0.478,0.398,0.717,1.314,0.717,2.748l-0.119,3.585l-5.736,0.478l-0.836-2.509l-0.836-2.629
					l3.943,0.358C77.238,138.869,78.194,138.192,78.592,137.156"/>
				<path class="st2" d="M36.171,148.15c0.478,0.717,0.717,2.071,0.717,4.063l-2.39,0.358l-2.031-1.434l0.239-1.912
					C33.821,148.27,34.976,147.911,36.171,148.15"/>
				<path class="st1" d="M151.484,33.912c2.231,9.639,2.788,15.933,1.673,18.88c0.637-0.319,1.115-1.075,1.434-2.27l0.836-2.868
					c0.717,3.346,0.159,7.01-1.673,10.994c-2.151,4.859-3.306,8.285-3.465,10.277l3.346-7.409c1.354-2.868,2.748-5.019,4.182-6.453
					h0.478l-0.239-0.836l7.05,8.245c2.709,3.107,4.62,6.015,5.736,8.723l5.736,12.308c2.31,5.098,3.665,9.321,4.063,12.667
					c0.558,4.78-0.358,11.272-2.748,19.478c-2.788,9.321-4.302,16.132-4.541,20.434l-1.792,1.673l-0.119-0.717l-0.358,1.195
					c-1.832,5.497-3.147,10.794-3.943,15.893c-1.036,7.09-0.717,12.507,0.956,16.251v-4.302c-0.08-1.832,0.12-3.067,0.597-3.704
					v-0.597l1.912,0.956l1.912,0.956c1.434,3.266,4.143,8.046,8.126,14.339c3.027,5.656,3.744,10.914,2.151,15.773
					c-4.302,4.302-10.038,9.36-17.207,15.176l-17.088,13.503c-4.382,3.505-9.599,5.457-15.654,5.855
					c-7.568-0.08-13.662-0.04-18.283,0.119l-12.069-5.736c-5.019-2.151-8.205-2.948-9.56-2.39c0.239-1.195,0.876-1.633,1.912-1.314
					l2.151,0.119c-4.302-0.558-9.161-2.35-14.578-5.377l-13.503-7.767l-1.195-2.27l4.78-10.994c1.912-4.063,3.943-7.289,6.094-9.679
					c-0.319-2.629,0.358-4.979,2.031-7.05c1.195-1.593,2.629-2.709,4.302-3.346l1.195,5.258c5.975,4.222,10.635,7.249,13.981,9.082
					c5.656,3.107,10.914,5.019,15.773,5.736c-12.109-4.461-21.868-9.998-29.276-16.61c0.319-5.178-0.916-10.516-3.704-16.012
					c-3.187-6.293-4.979-11.073-5.377-14.339c0.717,0.08,1.275-0.119,1.673-0.597l1.195-1.195l-2.27-17.446
					c-0.797-7.409-1.952-12.866-3.465-16.371l3.346,27.006l-3.226,1.075l-3.585-0.478c-0.558-0.637-0.956-1.792-1.195-3.465
					l-0.597-4.063c0.797,1.036,2.071,1.394,3.824,1.075s2.788-1.036,3.107-2.151c-4.222,2.151-6.851,0.518-7.887-4.899
					c-1.354-7.17-2.549-11.113-3.585-11.83l1.075-2.509l2.39-2.629l4.063,0.597c1.992,0,3.107,0.398,3.346,1.195l0.956-1.434
					l1.314-1.434l-0.119-2.031l-0.358-2.031c0.319-3.027,2.231-7.01,5.736-11.95c3.585-4.939,5.497-8.803,5.736-11.591
					c0.717,1.275,1.992,1.832,3.824,1.673c1.673-0.159,3.067-0.717,4.182-1.673l1.792,1.553c0.797,0.717,1.434,0.876,1.912,0.478
					l7.648,4.78c2.788,1.673,4.342,2.27,4.66,1.792c-0.08,3.585,0.916,6.413,2.987,8.484c2.071,2.071,4.7,2.709,7.887,1.912
					c-4.382,0-7.409-2.111-9.082-6.333c0.797-0.876,3.147-2.629,7.05-5.258c4.063-2.709,6.652-4.222,7.767-4.541
					c0.876-0.159,1.474-0.876,1.792-2.151c0.319-1.673,0.876-2.868,1.673-3.585c5.098,0.239,9.759-2.47,13.981-8.126l-1.912,0.717
					c0.797-2.31,0.996-4.979,0.597-8.006h2.868c1.115-1.115,2.27-3.226,3.465-6.333l-2.151,2.987
					c-1.275,1.753-2.669,2.669-4.182,2.748c-1.354,0-2.987-0.876-4.899-2.629c-2.071-1.912-3.704-2.948-4.899-3.107v-5.736
					c-0.478,0.319-0.677,1.155-0.597,2.509v3.226l-1.792,5.258l-2.151,5.616l-0.597,2.509l1.314-2.629
					c2.231-4.302,4.262-6.373,6.094-6.214l3.226,1.195c1.036,0.398,2.071,0.398,3.107,0c0.558,0.956,0.677,2.43,0.358,4.421
					c-0.478,2.39-0.597,4.143-0.358,5.258c-2.47,4.063-6.054,5.736-10.755,5.019c-4.62-0.717-6.174-3.346-4.66-7.887l-0.836,3.585
					c-0.239,1.434-0.916,2.151-2.031,2.151c0.159-0.558-0.08-1.115-0.717-1.673c-0.558-0.558-0.916-0.558-1.075,0l-8.604-0.836
					c-4.461-0.478-6.931-1.155-7.409-2.031c0.239-2.231,0.04-5.537-0.597-9.918c-0.558-3.505-0.478-5.935,0.239-7.289h-0.239
					c-0.956-0.319-0.398-1.075,1.673-2.27l0.239,1.195c0.159,0.398,0.478,0.558,0.956,0.478c-0.319-1.912-0.159-3.505,0.478-4.78
					c0.558-1.115,1.753-2.39,3.585-3.824l5.258,0.717c2.47,0.08,4.143,0.438,5.019,1.075l4.182-4.421l3.824-4.78
					c-0.717-0.876-1.275-2.231-1.673-4.063l8.245-2.031l8.962-1.434l-2.39,4.541c-1.115,1.912-1.872,3.465-2.27,4.66
					c3.027-2.151,5.138-4.979,6.333-8.484l2.27,4.541l-3.346,2.27c-1.673,0.876-2.828,1.633-3.465,2.27l2.987-0.956L151.484,33.912
					 M139.415,39.051c-2.39,0.956-3.904,1.912-4.541,2.868l2.509-1.314l2.031-0.358c-0.717,0.319-1.474,1.075-2.27,2.27l-2.27,2.27
					l-1.195-0.717c-0.478-0.398-0.677-0.916-0.597-1.553c-4.939,1.832-7.409,3.346-7.409,4.541c1.912-1.434,4.182-2.589,6.811-3.465
					c0.717,0.478,1.155,1.195,1.314,2.151c0.08,0.956,0.438,1.593,1.075,1.912c0-1.354,0.876-2.868,2.629-4.541
					C139.176,41.52,139.814,40.166,139.415,39.051 M133.68,48.849c0.08,0.876-0.518,1.434-1.792,1.673l-2.27,1.195l3.346-0.836
					C134.317,50.403,134.556,49.726,133.68,48.849 M121.611,48.252c1.036-0.319,1.235-0.438,0.597-0.358l-2.27,0.358l5.019,6.333
					c1.992,2.788,3.545,4.501,4.66,5.138l-1.912-2.987l-2.031-2.748l1.673-1.195c-1.354-0.08-2.47-0.637-3.346-1.673L121.611,48.252
					 M121.013,61.396c0.159-0.876-0.239-1.553-1.195-2.031c-0.956-0.558-1.673-0.438-2.151,0.358c1.753,0.159,2.509,0.916,2.27,2.27
					l-1.553-0.239c-0.398-0.319-0.637-0.239-0.717,0.239l2.868,0.597L121.013,61.396 M166.899,66.057
					c-1.195-0.558-2.43-0.199-3.704,1.075l-0.239,0.478l2.031-0.836L166.899,66.057 M144.554,98.679
					c0.797-0.956,1.195-0.558,1.195,1.195c0,1.753,0.199,2.31,0.597,1.673v-4.182c-0.159-1.593-0.558-2.669-1.195-3.226
					c0.478,1.115,0.518,2.151,0.119,3.107L144.554,98.679 M134.277,100.949l5.855-0.717c2.231-0.637,2.948-1.155,2.151-1.553
					c-1.753,1.036-3.704,1.593-5.855,1.673c-2.549,0.08-4.023-0.836-4.421-2.748c1.115-1.036,2.151-2.868,3.107-5.497
					c1.036-2.629,1.314-4.262,0.836-4.899c-1.514,7.17-3.904,10.635-7.17,10.396c1.115,0.159,2.111,0.558,2.987,1.195
					L134.277,100.949 M127.944,82.667c2.231,3.187,5.935,3.864,11.113,2.031c4.939-1.753,7.369-3.784,7.289-6.094
					c-1.036,2.709-3.864,4.461-8.484,5.258C133.401,84.658,130.095,84.26,127.944,82.667 M132.246,118.874l0.239,5.019
					c-1.514-1.912-2.629-2.27-3.346-1.075c1.195,0,1.952,0.358,2.27,1.075l-6.931,0.836l-7.409,0.358
					c-0.956,0.717-1.474,2.071-1.553,4.063c0,1.832,0.319,3.147,0.956,3.943l-7.528,0.836c-3.187,0.239-5.457,0.717-6.811,1.434
					l0.597,8.484c0.319,3.744,1.075,6.851,2.27,9.321l23.899,2.27c9.639,0.319,16.769-0.996,21.39-3.943
					c-0.159-2.39,0.996-4.103,3.465-5.138c0.797,0.159,1.354,0.677,1.673,1.553s0.717,1.314,1.195,1.314
					c0.876-0.797,2.669-1.992,5.377-3.585l4.899-3.943h-0.478V141.1c-1.275,0.478-2.908,1.434-4.899,2.868l-4.899,2.868
					l-0.717-1.553c-0.319-0.558-0.836-0.797-1.553-0.717l-2.27,2.151c-0.797,0.717-1.394,0.398-1.792-0.956l-0.119,2.151
					l-0.478,1.792c-4.063,3.346-10.675,4.78-19.836,4.302l-23.66-1.912c-0.876-2.948-0.717-5.059,0.478-6.333h-1.314
					c-0.558-0.08-0.876-0.279-0.956-0.597l-0.12-3.824c0-1.514,0.438-2.35,1.314-2.509l1.553,0.478l1.912,0.119l4.063-0.239
					l-2.27-0.119c-4.62-0.239-6.572-1.075-5.855-2.509c2.948-0.956,6.572-1.514,10.874-1.673c-0.398,0.478-0.558,1.434-0.478,2.868
					l-0.119,2.27l-1.792,0.119c-0.637-0.239-1.155-0.08-1.553,0.478c2.629,0.717,4.342,0.717,5.138,0
					c0-4.859,0.199-9.48,0.597-13.861l10.755-0.717c3.744-0.558,6.054-2.031,6.931-4.421c-1.195,0-1.792-1.036-1.792-3.107
					c0-2.071,0.438-3.306,1.314-3.704c1.195,0.398,3.107,1.394,5.736,2.987c2.231,1.354,3.943,2.071,5.138,2.151l0.239,1.195
					l0.358,1.075l-1.912,1.075c-0.637,0.478-0.597,1.075,0.119,1.792c1.275-0.159,1.912-1.394,1.912-3.704
					c0-2.868,0.119-4.501,0.358-4.899c-0.717-0.159-1.195,0.239-1.434,1.195c-0.159,0.876-0.637,1.235-1.434,1.075l-2.509-2.031
					l-2.629-1.912l5.497-2.39c2.39-0.876,3.625-1.832,3.704-2.868c0.159-0.876,0-1.155-0.478-0.836
					c-0.478,0.319-0.717,0.239-0.717-0.239l0.119-3.346c0-1.434-0.199-1.872-0.597-1.314c0.876,3.904-0.279,6.413-3.465,7.528
					l-9.201,1.673C132.644,114.612,132.166,116.563,132.246,118.874 M129.139,114.811c0.398-4.063-0.956-5.815-4.063-5.258
					c0.159,0.558,0.876,1.115,2.151,1.673c1.036,0.478,1.474,1.275,1.314,2.39l-2.629,0.478l-2.031,0.119
					C125.554,115.408,127.307,115.607,129.139,114.811 M123.881,132.496l9.679-1.075c3.983-1.036,6.493-0.478,7.528,1.673
					c-0.478,0.558-0.876,0.637-1.195,0.239l-1.075-1.314v2.27l2.868-0.597c0.239-0.956,0.159-1.713-0.239-2.27l-1.434-1.195
					c1.593,0.398,2.948,0.199,4.063-0.597c1.195-0.797,1.354-1.753,0.478-2.868l-0.478,1.553l-1.195,0.836l-9.201,1.553
					l-10.277,1.314c-1.036-0.08-1.394,0.04-1.075,0.358L123.881,132.496 M164.629,117.081c0.398,0.08,0.597,0.797,0.597,2.151
					l0.239-2.151C165.386,116.444,165.107,116.444,164.629,117.081 M163.315,119.113c-0.558-0.239-0.876-0.159-0.956,0.239
					c1.195,1.753,2.151,1.753,2.868,0L163.315,119.113 M170.604,87.805c-1.593,0.319-2.709,1.553-3.346,3.704
					c-0.478,1.992-0.398,3.824,0.239,5.497l5.258-0.239c-0.398-0.717-0.597-2.27-0.597-4.66
					C172.157,89.956,171.639,88.522,170.604,87.805 M173.113,112.182c-0.398-1.115-0.916-1.195-1.553-0.239
					c1.036,0.398,1.275,1.155,0.717,2.27l-0.717,1.673l0.717-0.358l0.956-0.239L173.113,112.182 M106.196,90.075l4.66,9.201
					c1.354,3.983,1.314,7.249-0.119,9.799c-0.478,0.08-0.558,0.159-0.239,0.239l0.836-0.239l1.673-5.258
					c-0.797-1.195-1.713-3.625-2.748-7.289c-0.956-3.426-1.952-5.776-2.987-7.05c-2.31-0.239-4.222,0.159-5.736,1.195
					c-0.956,0.637-2.111,1.792-3.465,3.465l3.346-2.748C102.77,90.354,104.363,89.916,106.196,90.075 M99.743,100.232l1.195,1.912
					c1.753,0.398,3.505,0.398,5.258,0l2.39-0.119c0.717-0.398,0.279-0.558-1.314-0.478h-5.138c-0.637-0.239-1.195-0.797-1.673-1.673
					l-1.195-2.27C99.106,98.559,99.265,99.436,99.743,100.232 M97.592,95.811c-1.354,3.983-1.553,7.568-0.597,10.755
					c1.036,3.824,3.505,5.019,7.409,3.585l-4.421-0.717c-1.115-0.558-1.912-1.633-2.39-3.226c-0.478-1.434-0.358-3.904,0.358-7.409
					C98.428,96.249,98.309,95.253,97.592,95.811 M92.932,103.339c0.717-1.275,0.518-2.071-0.597-2.39
					c0.239,1.036-0.04,1.792-0.836,2.27l-2.031,1.195l2.031-0.358L92.932,103.339 M94.127,158.905
					c0.876-0.159,1.434-0.876,1.673-2.151c0.239-1.275-0.319-1.872-1.673-1.792c0.558,0.637,0.677,1.474,0.358,2.509L94.127,158.905
					 M117.428,191.049c0.319,1.115,0,1.872-0.956,2.27l10.994,0.119c4.302-0.159,7.727-0.757,10.277-1.792l-9.918,0.478
					l-9.679,0.597l-0.597-3.107c-0.478-1.195-1.036-1.474-1.673-0.836L117.428,191.049 M114.799,175.395
					c0-1.832-0.199-2.549-0.597-2.151v4.182c-0.08,1.832,0.119,2.549,0.597,2.151V175.395 M114.799,216.262
					c-0.558,1.753-1.155,4.62-1.792,8.604c0.159,1.912,0.597,0.876,1.314-3.107C115.118,217.537,115.277,215.705,114.799,216.262
					 M101.535,212.797v-1.314l-0.597-0.956l-0.597,1.314l-1.075,0.956l0.956,0.358L101.535,212.797 M94.127,200.011l1.075,1.314
					c0.319-1.195-0.08-2.071-1.195-2.629c-1.115-0.478-1.832-0.159-2.151,0.956L94.127,200.011 M175.145,173.961l-1.314-0.717
					c0.797,1.354,0.159,2.669-1.912,3.943c-2.071,1.275-2.948,2.27-2.629,2.987l2.868-2.629l3.346-2.031L175.145,173.961
					 M158.893,156.993c0.876-0.398,1.275-1.075,1.195-2.031c-0.08-0.956-0.677-1.673-1.792-2.151
					c-1.195-0.478-1.952-0.159-2.27,0.956c1.354-0.08,2.27,0.119,2.748,0.597c0.558,0.558,0.597,1.314,0.119,2.27l-1.553-0.239
					c-0.398-0.319-0.637-0.239-0.717,0.239C157.26,157.272,158.017,157.391,158.893,156.993 M125.076,163.565l-0.597,2.868
					c0.876,0.398,1.474-0.04,1.792-1.314C126.51,163.844,126.112,163.326,125.076,163.565 M129.139,184.716
					c1.514-0.159,2.47-0.717,2.868-1.673c-0.478-0.159-0.677-0.558-0.597-1.195c-1.434-0.159-2.191,0.239-2.27,1.195l1.195,0.358
					C129.378,183.72,128.98,184.158,129.139,184.716 M150.29,166.911l-0.597,0.597c1.434,0.08,2.191-0.597,2.27-2.031
					c0.159-1.514-0.398-2.35-1.673-2.509l0.597,2.151C151.126,166.074,150.927,166.672,150.29,166.911 M165.824,183.64
					c0.558,1.832,0.12,3.027-1.314,3.585l-3.346,0.358c1.115,1.673,2.629,1.753,4.541,0.239
					C167.537,186.309,167.577,184.915,165.824,183.64 M161.164,184.118l-5.377,3.704c-2.231,1.514-4.262,2.589-6.094,3.226
					c0,2.868-1.115,5.059-3.346,6.572l-6.931,3.226c2.549,0,4.74-0.677,6.572-2.031l4.302-4.302
					c0.637,5.417-0.876,9.241-4.541,11.472c-1.434,0.159-2.948-0.558-4.541-2.151c-1.514-1.514-2.669-2.151-3.465-1.912
					c3.187,4.939,6.652,5.895,10.396,2.868c3.665-3.027,4.581-7.409,2.748-13.145l5.975-3.704
					C159.331,186.508,160.765,185.234,161.164,184.118 M165.824,172.169c-3.027,2.629-7.648,5.855-13.861,9.679
					c-6.931,4.143-11.671,7.21-14.22,9.201l15.295-8.843C158.774,178.621,163.036,175.276,165.824,172.169 M126.271,203.118h-5.736
					l-0.717,0.717c-0.319,0.08-0.279,0.199,0.12,0.358l3.226-0.478C124.917,203.875,125.952,203.676,126.271,203.118
					 M133.919,223.432c-1.753-1.036-2.788-0.757-3.107,0.836l2.151-0.239c0.717,0.159,0.757,0.637,0.119,1.434
					C135.472,225.225,135.751,224.548,133.919,223.432"/>
				<path class="st0" d="M180.761,218.055c0.08,2.868-1.115,4.7-3.585,5.497l-7.409-0.358c0.956-3.107,2.31-4.82,4.063-5.138
					l-1.434,1.792c-0.558,0.637-0.836,1.354-0.836,2.151c1.434,1.115,3.067,1.354,4.899,0.717c1.992-0.558,3.027-1.753,3.107-3.585
					c-0.159-0.478-0.677-0.797-1.553-0.956l-1.912-0.717c0.478-0.637,1.235-0.757,2.27-0.358L180.761,218.055"/>
				<path class="st0" d="M173.83,173.244l1.314,0.717l0.358,1.553l-3.346,2.031l-2.868,2.629c-0.319-0.717,0.558-1.713,2.629-2.987
					C173.99,175.913,174.627,174.598,173.83,173.244"/>
				<path class="st0" d="M171.56,111.943c0.637-0.956,1.155-0.876,1.553,0.239l0.119,3.107l-0.956,0.239l-0.717,0.358l0.717-1.673
					C172.834,113.098,172.595,112.341,171.56,111.943"/>
				<path class="st0" d="M168.692,162.37c-0.478,0.637-0.677,1.872-0.597,3.704v4.302c-1.673-3.744-1.992-9.161-0.956-16.251
					c0.797-5.098,2.111-10.396,3.943-15.893l0.478-0.478l-2.27,12.069c-1.275,5.656-1.275,9.639,0,11.95h-0.597V162.37"/>
				<path class="st0" d="M166.899,66.057l-1.912,0.717l-2.031,0.836l0.239-0.478C164.47,65.857,165.704,65.499,166.899,66.057"/>
				<path class="st0" d="M133.68,113.018l9.201-1.673c3.187-1.115,4.342-3.625,3.465-7.528c0.398-0.558,0.597-0.12,0.597,1.314
					l-0.119,3.346c0,0.478,0.239,0.558,0.717,0.239c0.478-0.319,0.637-0.04,0.478,0.836c-0.08,1.036-1.314,1.992-3.704,2.868
					l-5.497,2.39l2.629,1.912l2.509,2.031c0.797,0.159,1.275-0.199,1.434-1.075c0.239-0.956,0.717-1.354,1.434-1.195
					c-0.239,0.398-0.358,2.031-0.358,4.899c0,2.31-0.637,3.545-1.912,3.704c-0.717-0.717-0.757-1.314-0.119-1.792l1.912-1.075
					l-0.358-1.075l-0.239-1.195c-1.195-0.08-2.908-0.797-5.138-2.151c-2.629-1.593-4.541-2.589-5.736-2.987
					c-0.876,0.398-1.314,1.633-1.314,3.704c0,2.071,0.597,3.107,1.792,3.107c-0.876,2.39-3.187,3.864-6.931,4.421l-10.755,0.717
					c-0.398,4.382-0.597,9.002-0.597,13.861c-0.797,0.717-2.509,0.717-5.138,0c0.398-0.558,0.916-0.717,1.553-0.478l1.792-0.119
					l0.119-2.27c-0.08-1.434,0.08-2.39,0.478-2.868c-4.302,0.159-7.927,0.717-10.874,1.673c-0.717,1.434,1.235,2.27,5.855,2.509
					l2.27,0.119l-4.063,0.239l-1.912-0.119l-1.553-0.478c-0.876,0.159-1.314,0.996-1.314,2.509l0.12,3.824
					c0.08,0.319,0.398,0.518,0.956,0.597h1.314c-1.195,1.275-1.354,3.386-0.478,6.333l23.66,1.912
					c9.161,0.478,15.773-0.956,19.836-4.302l0.478-1.792l0.119-2.151c0.398,1.354,0.996,1.673,1.792,0.956l2.27-2.151
					c0.717-0.08,1.235,0.159,1.553,0.717l0.717,1.553l4.899-2.868c1.992-1.434,3.625-2.39,4.899-2.868v0.597h0.478L162,145.641
					c-2.709,1.593-4.501,2.788-5.377,3.585c-0.478,0-0.876-0.438-1.195-1.314s-0.876-1.394-1.673-1.553
					c-2.47,1.036-3.625,2.748-3.465,5.138c-4.62,2.948-11.75,4.262-21.39,3.943l-23.899-2.27c-1.195-2.47-1.952-5.576-2.27-9.321
					l-0.597-8.484c1.354-0.717,3.625-1.195,6.811-1.434l7.528-0.836c-0.637-0.797-0.956-2.111-0.956-3.943
					c0.08-1.992,0.597-3.346,1.553-4.063l7.409-0.358l6.931-0.836c-0.319-0.717-1.075-1.075-2.27-1.075
					c0.717-1.195,1.832-0.836,3.346,1.075l-0.239-5.019C132.166,116.563,132.644,114.612,133.68,113.018"/>
				<path class="st0" d="M165.824,183.64c1.753,1.275,1.713,2.669-0.119,4.182c-1.912,1.514-3.426,1.434-4.541-0.239l3.346-0.358
					C165.943,186.667,166.382,185.473,165.824,183.64"/>
				<path class="st0" d="M164.629,117.081c0.478-0.637,0.757-0.637,0.836,0l-0.239,2.151
					C165.226,117.878,165.027,117.161,164.629,117.081"/>
				<path class="st0" d="M162.359,119.352c0.08-0.398,0.398-0.478,0.956-0.239l1.912,0.239
					C164.51,121.104,163.554,121.104,162.359,119.352"/>
				<path class="st0" d="M160.088,154.961c0.08,0.956-0.319,1.633-1.195,2.031c-0.876,0.398-1.633,0.279-2.27-0.358
					c0.08-0.478,0.319-0.558,0.717-0.239l1.553,0.239c0.478-0.956,0.438-1.713-0.119-2.27c-0.478-0.478-1.394-0.677-2.748-0.597
					c0.319-1.115,1.075-1.434,2.27-0.956C159.411,153.288,160.009,154.005,160.088,154.961"/>
				<path class="st0" d="M154.591,37.736l2.629,14.459c0.797-0.239,1.155-0.797,1.075-1.673c0.558,0.159,0.677,0.518,0.358,1.075
					c-0.478,0.717-0.597,1.314-0.358,1.792l-0.239,0.836l0.239,0.836h-0.478c-1.434,1.434-2.828,3.585-4.182,6.453l-3.346,7.409
					c0.159-1.992,1.314-5.417,3.465-10.277c1.832-3.983,2.39-7.648,1.673-10.994l-0.836,2.868c-0.319,1.195-0.797,1.952-1.434,2.27
					c1.115-2.948,0.558-9.241-1.673-18.88l-2.748,1.314l-2.987,0.956c0.637-0.637,1.792-1.394,3.465-2.27l3.346-2.27l-2.27-4.541
					C152.042,28.933,153.476,32.478,154.591,37.736"/>
				<path class="st0" d="M161.164,184.118c-0.398,1.115-1.832,2.39-4.302,3.824l-5.975,3.704c1.832,5.736,0.916,10.117-2.748,13.145
					c-3.744,3.027-7.21,2.071-10.396-2.868c0.797-0.239,1.952,0.398,3.465,1.912c1.593,1.593,3.107,2.31,4.541,2.151
					c3.665-2.231,5.178-6.054,4.541-11.472l-4.302,4.302c-1.832,1.354-4.023,2.031-6.572,2.031l6.931-3.226
					c2.231-1.514,3.346-3.704,3.346-6.572c1.832-0.637,3.864-1.713,6.094-3.226L161.164,184.118"/>
				<path class="st0" d="M165.824,172.169c-2.788,3.107-7.05,6.453-12.786,10.038l-15.295,8.843
					c2.549-1.992,7.289-5.059,14.22-9.201C158.176,178.024,162.797,174.798,165.824,172.169"/>
				<path class="st0" d="M150.29,27.101c-1.195,3.505-3.306,6.333-6.333,8.484c0.398-1.195,1.155-2.748,2.27-4.66l2.39-4.541
					l-8.962,1.434l-8.245,2.031c0.398,1.832,0.956,3.187,1.673,4.063l-3.824,4.78l-4.182,4.421
					c-0.876-0.637-2.549-0.996-5.019-1.075l-5.258-0.717c-1.832,1.434-3.027,2.709-3.585,3.824c-0.637,1.275-0.797,2.868-0.478,4.78
					c-0.478,0.08-0.797-0.08-0.956-0.478l-0.239-1.195c-2.071,1.195-2.629,1.952-1.673,2.27h0.239
					c-0.717,1.354-0.797,3.784-0.239,7.289c0.637,4.382,0.836,7.688,0.597,9.918c0.478,0.876,2.948,1.553,7.409,2.031l8.604,0.836
					l-10.277,1.673c-0.876,0.239-1.434-0.159-1.673-1.195c-0.239-1.115-0.637-1.673-1.195-1.673l-2.509,0.478l-2.151,0.717
					l1.195-2.27c-2.868-0.159-5.098,1.075-6.692,3.704c-1.593,2.629-1.753,5.218-0.478,7.767c-2.151-1.115-3.386-1.514-3.704-1.195
					c-1.115,0.956-2.509,1.514-4.182,1.673c-1.832,0.159-3.107-0.398-3.824-1.673c-0.239,2.788-2.151,6.652-5.736,11.591
					c-3.505,4.939-5.417,8.922-5.736,11.95l0.358,2.031l0.119,2.031l-1.314,1.434l-0.956,1.434
					c-0.239-0.797-1.354-1.195-3.346-1.195l-4.063-0.597c0.478-0.478,1.593-0.677,3.346-0.597l3.465-0.478l0.717-6.572
					c-0.08-3.426-0.677-5.656-1.792-6.692l-2.031,0.597h-2.629c-1.434,2.231-2.31,5.815-2.629,10.755
					c-0.478-1.593-0.358-3.465,0.358-5.616l1.792-6.333c7.01-0.319,12.189-3.147,15.534-8.484l6.811-16.729
					c2.868-0.319,5.656-1.354,8.365-3.107l6.572-4.899c-1.434-3.824-1.235-7.369,0.597-10.635l5.616-7.17
					c-1.912-1.832-1.713-4.182,0.597-7.05c2.071-2.47,4.581-4.302,7.528-5.497l4.899,0.836c1.753,0.398,3.147,0.119,4.182-0.836
					c-0.797-4.222,0.119-7.528,2.748-9.918c2.629-2.47,6.493-3.585,11.591-3.346c0.797,0.637,1.753,2.27,2.868,4.899
					c1.036,2.231,2.191,3.665,3.465,4.302c0.398-0.558,0.597-0.558,0.597,0L150.29,27.101 M132.007,24.711l6.811-1.195l7.528-0.478
					c-0.159-3.585-2.071-5.377-5.736-5.377c-3.107,0-5.975,0.996-8.604,2.987V24.711 M131.409,28.774l8.365-1.434
					c3.107-0.637,5.457-1.514,7.05-2.629l-8.723-0.478C133.958,24.95,131.728,26.464,131.409,28.774 M119.101,31.761
					c-2.39,1.115-4.421,3.147-6.094,6.094c3.744,1.036,7.21,0.797,10.396-0.717c2.868-1.354,4.939-3.386,6.214-6.094L119.101,31.761
					 M129.378,37.736c1.912-2.151,2.191-4.182,0.836-6.094l-2.987,3.824l-3.346,3.585l-5.497,0.239l-4.78-0.239
					c0.159,1.593,1.832,2.31,5.019,2.151l5.258,0.717L129.378,37.736 M92.334,70l-1.314,3.585l-1.553,3.346
					c0.797,1.753,2.111,2.43,3.943,2.031l5.258-1.434c0.08-0.956-0.159-1.952-0.717-2.987l-0.956-2.748l1.075,0.239
					c0.319-0.239,0.518-0.159,0.597,0.239c-0.637,0.159-0.757,0.637-0.358,1.434s0.916,1.115,1.553,0.956l-0.597-3.465l3.585-2.39
					c1.354-1.115,2.828-1.673,4.421-1.673l-0.239-2.509l-0.358-2.629c-2.948,1.593-5.138,2.828-6.572,3.704
					c-2.549,1.434-4.541,2.868-5.975,4.302l1.673,0.478l1.195,0.717c-0.717,0.159-1.474-0.04-2.27-0.597
					C93.928,70.119,93.131,69.92,92.334,70 M78.234,91.151l-3.107,1.195c0.797,0.398,1.314,1.354,1.553,2.868
					c0.239,1.912,0.518,3.067,0.836,3.465l2.39-4.541c1.036-1.992,1.354-3.545,0.956-4.66
					C80.464,90.115,79.588,90.673,78.234,91.151"/>
				<path class="st0" d="M150.29,162.967c1.275,0.159,1.832,0.996,1.673,2.509c-0.08,1.434-0.836,2.111-2.27,2.031l0.597-0.597
					c0.637-0.239,0.836-0.836,0.597-1.792L150.29,162.967"/>
				<path class="st0" d="M140.849,57.094c1.912,1.753,3.545,2.629,4.899,2.629c1.514-0.08,2.908-0.996,4.182-2.748l2.151-2.987
					c-1.195,3.107-2.35,5.218-3.465,6.333h-2.868c0.398,3.027,0.199,5.696-0.597,8.006l1.912-0.717
					c-4.222,5.656-8.882,8.365-13.981,8.126c-0.797,0.717-1.354,1.912-1.673,3.585c-0.319,1.275-0.916,1.992-1.792,2.151
					c-0.956-0.239-0.916-0.717,0.119-1.434c1.275-1.036,1.832-1.872,1.673-2.509c0.08-1.115-0.279-1.992-1.075-2.629l-1.792-2.031
					c-1.036,0.717-1.314,1.832-0.836,3.346l0.836,4.182c-0.797-0.797-1.474-2.43-2.031-4.899c-0.637-2.47-1.314-4.103-2.031-4.899
					c0.159-0.558,0.518-0.558,1.075,0c0.637,0.558,0.876,1.115,0.717,1.673c1.115,0,1.792-0.717,2.031-2.151l0.836-3.585
					c-1.514,4.541,0.04,7.17,4.66,7.887c4.7,0.717,8.285-0.956,10.755-5.019c-0.239-1.115-0.12-2.868,0.358-5.258
					c0.319-1.992,0.199-3.465-0.358-4.421c-1.036,0.398-2.071,0.398-3.107,0l-3.226-1.195c-1.832-0.159-3.864,1.912-6.094,6.214
					l-1.314,2.629l0.597-2.509l2.151-5.616l1.792-5.258v-3.226c-0.08-1.354,0.119-2.191,0.597-2.509v5.736
					C137.145,54.147,138.778,55.183,140.849,57.094"/>
				<path class="st0" d="M145.151,94.138c0.637,0.558,1.036,1.633,1.195,3.226v4.182c-0.398,0.637-0.597,0.08-0.597-1.673
					c0-1.753-0.398-2.151-1.195-1.195l0.717-1.434C145.669,96.289,145.629,95.253,145.151,94.138"/>
				<path class="st0" d="M146.346,78.604c0.08,2.31-2.35,4.342-7.289,6.094c-5.178,1.832-8.882,1.155-11.113-2.031
					c2.151,1.593,5.457,1.992,9.918,1.195C142.483,83.065,145.311,81.312,146.346,78.604"/>
				<path class="st0" d="M122.328,132.377c-0.319-0.319,0.04-0.438,1.075-0.358l10.277-1.314l9.201-1.553l1.195-0.836l0.478-1.553
					c0.876,1.115,0.717,2.071-0.478,2.868c-1.115,0.797-2.47,0.996-4.063,0.597l1.434,1.195c0.398,0.558,0.478,1.314,0.239,2.27
					l-2.868,0.597v-2.27l1.075,1.314c0.319,0.398,0.717,0.319,1.195-0.239c-1.036-2.151-3.545-2.709-7.528-1.673l-9.679,1.075
					L122.328,132.377"/>
				<path class="st0" d="M132.007,97.603c0.398,1.912,1.872,2.828,4.421,2.748c2.151-0.08,4.103-0.637,5.855-1.673
					c0.797,0.398,0.08,0.916-2.151,1.553l-5.855,0.717l-2.509-2.151c-0.876-0.637-1.872-1.036-2.987-1.195
					c3.266,0.239,5.656-3.226,7.17-10.396c0.478,0.637,0.199,2.27-0.836,4.899C134.158,94.736,133.122,96.568,132.007,97.603"/>
				<path class="st0" d="M142.164,239.564v0.119l-1.075,0.358v-0.239L142.164,239.564"/>
				<path class="st1" d="M116.472,243.866l12.308-1.553l12.308-2.27l0.597,6.692c-1.992,0.239-5.337,1.075-10.038,2.509
					c-4.063,1.275-7.608,1.952-10.635,2.031l0.358,3.704l0.239,3.704c-1.673-0.159-2.748-1.235-3.226-3.226l-0.717-5.855
					l1.195,1.912l1.673,1.434l-2.031-4.541C117.468,246.575,116.791,245.061,116.472,243.866"/>
				<path class="st0" d="M142.164,239.564l-1.075,0.239l-0.478-3.465L142.164,239.564"/>
				<path class="st0" d="M139.415,39.051c0.398,1.115-0.239,2.47-1.912,4.063c-1.753,1.673-2.629,3.187-2.629,4.541
					c-0.637-0.319-0.996-0.956-1.075-1.912c-0.159-0.956-0.597-1.673-1.314-2.151c-2.629,0.876-4.899,2.031-6.811,3.465
					c0-1.195,2.47-2.709,7.409-4.541c-0.08,0.637,0.119,1.155,0.597,1.553l1.195,0.717l2.27-2.27c0.797-1.195,1.553-1.952,2.27-2.27
					l-2.031,0.358l-2.509,1.314C135.512,40.963,137.026,40.007,139.415,39.051"/>
				<path class="st0" d="M118.145,192.722l9.679-0.597l9.918-0.478c-2.549,1.036-5.975,1.633-10.277,1.792l-10.994-0.119
					c0.956-0.398,1.275-1.155,0.956-2.27l-1.553-2.27c0.637-0.637,1.195-0.358,1.673,0.836L118.145,192.722"/>
				<path class="st0" d="M133.68,48.849c0.876,0.876,0.637,1.553-0.717,2.031l-3.346,0.836l2.27-1.195
					C133.162,50.283,133.759,49.726,133.68,48.849"/>
				<path class="st0" d="M130.812,224.269c0.319-1.593,1.354-1.872,3.107-0.836c1.832,1.115,1.553,1.792-0.836,2.031
					c0.637-0.797,0.597-1.275-0.119-1.434L130.812,224.269"/>
				<path class="st2" d="M131.409,77.528c0.159,0.637-0.398,1.474-1.673,2.509c-1.036,0.717-1.075,1.195-0.119,1.434l-11.113,1.314
					l-10.038,1.553l0.239,0.358c-2.868-1.912-5.537-3.545-8.006-4.899c-1.275-2.549-1.115-5.138,0.478-7.767
					c1.593-2.629,3.824-3.864,6.692-3.704l-1.195,2.27l2.151-0.717l2.509-0.478c0.558,0,0.956,0.558,1.195,1.673
					c0.239,1.036,0.797,1.434,1.673,1.195l10.277-1.673c0.717,0.797,1.394,2.43,2.031,4.899c0.558,2.47,1.235,4.103,2.031,4.899
					l-0.836-4.182c-0.478-1.514-0.199-2.629,0.836-3.346l1.792,2.031C131.13,75.537,131.489,76.413,131.409,77.528"/>
				<path class="st0" d="M131.409,181.848c-0.08,0.637,0.119,1.036,0.597,1.195c-0.398,0.956-1.354,1.514-2.868,1.673
					c-0.159-0.558,0.239-0.996,1.195-1.314l-1.195-0.358C129.219,182.087,129.975,181.688,131.409,181.848"/>
				<path class="st0" d="M121.85,86.012c-3.904,2.629-6.254,4.382-7.05,5.258c1.673,4.222,4.7,6.333,9.082,6.333
					c-3.187,0.797-5.815,0.159-7.887-1.912c-2.071-2.071-3.067-4.899-2.987-8.484c-0.239-0.478-1.195-0.996-2.868-1.553
					l-1.434-0.956l-0.239-0.358l10.038-1.553l11.113-1.314C128.502,81.79,125.912,83.304,121.85,86.012"/>
				<path class="st0" d="M125.076,109.553c3.107-0.558,4.461,1.195,4.063,5.258c-1.832,0.797-3.585,0.597-5.258-0.597l2.031-0.119
					l2.629-0.478c0.159-1.115-0.279-1.912-1.314-2.39C125.952,110.668,125.235,110.111,125.076,109.553"/>
				<path class="st0" d="M124.001,51.12c0.876,1.036,1.992,1.593,3.346,1.673l-1.673,1.195l2.031,2.748l1.912,2.987
					c-1.115-0.637-2.669-2.35-4.66-5.138l-5.019-6.333l2.27-0.358c0.637-0.08,0.438,0.04-0.597,0.358L124.001,51.12"/>
				<path class="st0" d="M120.535,203.118h5.736c-0.319,0.558-1.354,0.757-3.107,0.597l-3.226,0.478
					c-0.398-0.159-0.438-0.279-0.12-0.358L120.535,203.118"/>
				<path class="st0" d="M125.076,163.565c1.036-0.239,1.434,0.279,1.195,1.553c-0.319,1.275-0.916,1.713-1.792,1.314
					L125.076,163.565"/>
				<path class="st0" d="M120.535,62.591l-2.868-0.597c0.08-0.478,0.319-0.558,0.717-0.239l1.553,0.239
					c0.239-1.354-0.518-2.111-2.27-2.27c0.478-0.797,1.195-0.916,2.151-0.358c0.956,0.478,1.354,1.155,1.195,2.031L120.535,62.591"
					/>
				<path class="st0" d="M114.56,228.451l3.107,1.553c-1.434-0.159-5.417-1.673-11.95-4.541l-12.786-5.138
					c1.354-0.558,4.541,0.239,9.56,2.39L114.56,228.451"/>
				<path class="st0" d="M114.799,216.262c0.478-0.558,0.319,1.275-0.478,5.497c-0.717,3.983-1.155,5.019-1.314,3.107
					C113.644,220.883,114.242,218.015,114.799,216.262"/>
				<path class="st0" d="M114.202,173.244c0.398-0.398,0.597,0.319,0.597,2.151v4.182c-0.478,0.398-0.677-0.319-0.597-2.151V173.244
					"/>
				<path class="st0" d="M113.007,87.207c-0.319,0.478-1.872-0.119-4.66-1.792l-7.648-4.78l0.239-0.239l-0.239-0.597
					c2.47,1.354,5.138,2.987,8.006,4.899l1.434,0.956L113.007,87.207"/>
				<path class="st0" d="M113.007,103.817l-1.673,5.258l-0.836,0.239c-0.319-0.08-0.239-0.159,0.239-0.239
					c1.434-2.549,1.474-5.815,0.119-9.799l-4.66-9.201c-1.832-0.159-3.426,0.279-4.78,1.314l-3.346,2.748
					c1.354-1.673,2.509-2.828,3.465-3.465c1.514-1.036,3.426-1.434,5.736-1.195c1.036,1.275,2.031,3.625,2.987,7.05
					C111.294,100.193,112.21,102.622,113.007,103.817"/>
				<path class="st0" d="M107.271,101.547c1.593-0.08,2.031,0.08,1.314,0.478l-2.39,0.119c-1.753,0.398-3.505,0.398-5.258,0
					l-1.195-1.912c-0.478-0.797-0.637-1.673-0.478-2.629l1.195,2.27c0.478,0.876,1.036,1.434,1.673,1.673H107.271"/>
				<path class="st0" d="M104.403,110.15c-3.904,1.434-6.373,0.239-7.409-3.585c-0.956-3.187-0.757-6.771,0.597-10.755
					c0.717-0.558,0.836,0.438,0.358,2.987c-0.717,3.505-0.836,5.975-0.358,7.409c0.478,1.593,1.275,2.669,2.39,3.226L104.403,110.15
					"/>
				<path class="st0" d="M78.114,126.521l2.27,17.446l-1.195,1.195c-0.398,0.478-0.956,0.677-1.673,0.597
					c0.398,3.266,2.191,8.046,5.377,14.339c2.788,5.497,4.023,10.834,3.704,16.012c7.409,6.612,17.168,12.149,29.276,16.61
					c-4.859-0.717-10.117-2.629-15.773-5.736c-3.346-1.832-8.006-4.859-13.981-9.082l-1.195-5.258
					c-1.673,0.637-3.107,1.753-4.302,3.346c-1.673,2.071-2.35,4.421-2.031,7.05c-2.151,2.39-4.182,5.616-6.094,9.679l-4.78,10.994
					l1.195,2.27l13.503,7.767c5.417,3.027,10.277,4.82,14.578,5.377l-2.151-0.119c-1.036-0.319-1.673,0.119-1.912,1.314
					l-14.339-7.528l-7.289-3.704c-3.266-1.912-5.019-3.704-5.258-5.377c-0.319-1.992,0.916-5.298,3.704-9.918l6.572-11.352
					c1.115-3.346,2.031-5.656,2.748-6.931c1.036-1.992,2.788-3.306,5.258-3.943c0.239-3.904-1.195-8.086-4.302-12.547
					c-3.027-4.461-4.461-8.683-4.302-12.667l-3.465-0.597c-1.992-4.302-3.505-10.038-4.541-17.207
					c-1.115-7.409-2.47-12.587-4.063-15.534c0.239-0.797,0.996-1.832,2.27-3.107l-1.075,2.509c1.036,0.717,2.231,4.66,3.585,11.83
					c1.036,5.417,3.665,7.05,7.887,4.899c-0.319,1.115-1.354,1.832-3.107,2.151s-3.027-0.04-3.824-1.075l0.597,4.063
					c0.239,1.673,0.637,2.828,1.195,3.465l3.585,0.478l3.226-1.075l-3.346-27.006C76.163,113.656,77.318,119.113,78.114,126.521
					 M78.592,137.156c-0.398,1.036-1.354,1.713-2.868,2.031l-3.943-0.358l0.836,2.629l0.836,2.509l5.736-0.478l0.119-3.585
					C79.309,138.471,79.07,137.555,78.592,137.156"/>
				<path class="st0" d="M100.938,210.527l0.597,0.956v1.314l-1.314,0.358l-0.956-0.358l1.075-0.956L100.938,210.527"/>
				<path class="st0" d="M100.699,79.799l0.239,0.597l-0.239,0.239c-1.992-1.354-3.226-2.031-3.704-2.031
					C97.313,78.285,98.548,78.683,100.699,79.799"/>
				<path class="st0" d="M100.699,80.635c-0.478,0.398-1.115,0.239-1.912-0.478l-1.792-1.553
					C97.473,78.604,98.707,79.281,100.699,80.635"/>
				<path class="st0" d="M91.856,199.653c0.319-1.115,1.036-1.434,2.151-0.956c1.115,0.558,1.514,1.434,1.195,2.629l-1.075-1.314
					L91.856,199.653"/>
				<path class="st0" d="M94.127,154.961c1.354-0.08,1.912,0.518,1.673,1.792c-0.239,1.275-0.797,1.992-1.673,2.151l0.358-1.434
					C94.804,156.435,94.684,155.599,94.127,154.961"/>
				<path class="st0" d="M92.334,100.949c1.115,0.319,1.314,1.115,0.597,2.39l-1.434,0.717l-2.031,0.358l2.031-1.195
					C92.294,102.742,92.573,101.985,92.334,100.949"/>
				<path class="st1" d="M74.051,92.943c1.115,1.036,1.713,3.266,1.792,6.692l-0.717,6.572l-3.465,0.478
					c-1.753-0.08-2.868,0.119-3.346,0.597c-0.797-1.036-1.314-2.031-1.553-2.987c0.319-4.939,1.195-8.524,2.629-10.755h2.629
					L74.051,92.943"/>
				<path class="st0" d="M54.693,151.018l-2.509-0.717c0.239,2.549-0.319,4.103-1.673,4.66c0.876-0.956,1.235-2.31,1.075-4.063
					l-0.478-2.868c0.319,0.876,1.195,1.434,2.629,1.673l3.704,0.597l3.226,4.899c1.275,1.753,2.669,2.987,4.182,3.704l-0.358-4.78
					l-0.836-4.421c-1.514-0.239-2.868-1.553-4.063-3.943c-1.434-2.549-2.948-4.103-4.541-4.66l-22.346,0.597l-3.107,5.497
					l-3.226,5.377h1.792c0.637,0.08,0.836,0.478,0.597,1.195c-0.398-0.398-0.996-0.597-1.792-0.597
					c-0.717,0-1.275,0.199-1.673,0.597c-1.036,2.948-1.314,5.935-0.836,8.962c0.637,3.744,2.43,5.537,5.377,5.377
					c0.876-3.187,4.541-5.178,10.994-5.975c2.868-0.319,8.405-0.438,16.61-0.358c2.31,0.08,3.027,0.199,2.151,0.358
					c-1.593,0.319-2.151,0.597-1.673,0.836h2.27c1.036-0.08,1.633,0.12,1.792,0.597l-12.667-0.478l-13.742,0.478l-1.673,2.509
					c-0.956,0.956-1.553,1.832-1.792,2.629l4.063-0.956l4.063,0.358c-4.222,0-7.488,0.757-9.799,2.27
					c-1.593,12.587-0.239,19.677,4.063,21.27l1.195-1.553c0.558-0.637,0.916-0.717,1.075-0.239
					c-0.876,0.398-1.474,1.354-1.792,2.868l5.736,1.075c2.47,0.319,4.222-0.04,5.258-1.075c-0.08-2.868-1.474-4.62-4.182-5.258
					c-2.709-0.717-4.979-0.08-6.811,1.912c1.593-3.027,4.023-3.983,7.289-2.868c3.266,1.036,5.059,3.107,5.377,6.214l3.107,0.358
					l2.629,2.031c6.771,0.319,9.799-1.553,9.082-5.616c-0.637-3.346-2.709-6.254-6.214-8.723c1.195,0.159,2.908,1.434,5.138,3.824
					c1.753,1.992,3.465,2.43,5.138,1.314c0.398-1.514,0.08-4.103-0.956-7.767c-0.956-3.505-1.195-6.094-0.717-7.767l-13.264,0.119
					l-11.95-1.195l12.786,0.12l12.428,0.358l-1.075-3.704c-0.478-1.514-0.677-2.948-0.597-4.302
					c0.956,0.159,1.593,1.036,1.912,2.629c0.319,1.753,0.797,2.788,1.434,3.107l0.119-4.063l-0.597-3.346
					c-2.231-0.398-4.063-1.474-5.497-3.226c-0.876-0.956-1.912-2.748-3.107-5.377L54.693,151.018 M65.448,149.226
					c1.753,4.143,2.47,10.077,2.151,17.805c-0.478,9.161-0.438,15.256,0.119,18.283c-1.275,1.593-3.187,4.859-5.736,9.799
					l-4.063,0.717l-4.541,0.358c-1.514-1.992-4.461-2.629-8.843-1.912c-4.939,0.797-8.484,0.478-10.635-0.956
					c-5.417-2.868-7.329-10.316-5.736-22.346c-0.319-0.558-1.195-1.115-2.629-1.673c-1.354-0.478-2.191-1.075-2.509-1.792
					c-1.434-5.576-0.916-10.914,1.553-16.012l7.528-11.472l13.145-0.717l12.189,0.717c1.275,0.558,2.43,2.27,3.465,5.138
					C61.943,147.632,63.456,148.987,65.448,149.226"/>
				<path class="st0" d="M66.762,104.295c0.239,0.956,0.757,1.952,1.553,2.987l-2.39,2.629L66.762,104.295"/>
				<path class="st1" d="M57.442,151.496c1.195,2.629,2.231,4.421,3.107,5.377c1.434,1.753,3.266,2.828,5.497,3.226l0.597,3.346
					l-0.119,4.063c-0.637-0.319-1.115-1.354-1.434-3.107c-0.319-1.593-0.956-2.47-1.912-2.629c-0.08,1.354,0.119,2.788,0.597,4.302
					l1.075,3.704l-12.428-0.358l-12.786-0.12l11.95,1.195l13.264-0.119c-0.478,1.673-0.239,4.262,0.717,7.767
					c1.036,3.665,1.354,6.254,0.956,7.767c-1.673,1.115-3.386,0.677-5.138-1.314c-2.231-2.39-3.943-3.665-5.138-3.824
					c3.505,2.47,5.576,5.377,6.214,8.723c0.717,4.063-2.31,5.935-9.082,5.616l-2.629-2.031l-3.107-0.358
					c-0.319-3.107-2.111-5.178-5.377-6.214c-3.266-1.115-5.696-0.159-7.289,2.868c1.832-1.992,4.103-2.629,6.811-1.912
					c2.709,0.637,4.103,2.39,4.182,5.258c-1.036,1.036-2.788,1.394-5.258,1.075l-5.736-1.075c0.319-1.514,0.916-2.47,1.792-2.868
					c-0.159-0.478-0.518-0.398-1.075,0.239l-1.195,1.553c-4.302-1.593-5.656-8.683-4.063-21.27c2.31-1.514,5.576-2.27,9.799-2.27
					l-4.063-0.358l-4.063,0.956c0.239-0.797,0.836-1.673,1.792-2.629l1.673-2.509l13.742-0.478l12.667,0.478
					c-0.159-0.478-0.757-0.677-1.792-0.597h-2.27c-0.478-0.239,0.08-0.518,1.673-0.836c0.876-0.159,0.159-0.279-2.151-0.358
					c-8.205-0.08-13.742,0.04-16.61,0.358c-6.453,0.797-10.117,2.788-10.994,5.975c-2.948,0.159-4.74-1.633-5.377-5.377
					c-0.478-3.027-0.199-6.015,0.836-8.962c0.398-0.398,0.956-0.597,1.673-0.597c0.797,0,1.394,0.199,1.792,0.597
					c0.239-0.717,0.04-1.115-0.597-1.195h-1.792l3.226-5.377l3.107-5.497l22.346-0.597c1.593,0.558,3.107,2.111,4.541,4.66
					c1.195,2.39,2.549,3.704,4.063,3.943l0.836,4.421l0.358,4.78c-1.514-0.717-2.908-1.952-4.182-3.704l-3.226-4.899l-3.704-0.597
					c-1.434-0.239-2.31-0.797-2.629-1.673l0.478,2.868c0.159,1.753-0.199,3.107-1.075,4.063c1.354-0.558,1.912-2.111,1.673-4.66
					l2.509,0.717L57.442,151.496 M32.467,151.137l2.031,1.434l2.39-0.358c0-1.992-0.239-3.346-0.717-4.063
					c-1.195-0.239-2.35,0.12-3.465,1.075L32.467,151.137 M38.442,155.439c0.876-0.637,1.474-0.438,1.792,0.597
					c-0.159,1.514-0.956,2.27-2.39,2.27c-0.637,0.239-1.115,0.08-1.434-0.478l-0.836-1.195l-0.239,1.673l0.836,1.195l2.748-0.478
					l1.792-1.195v-2.509c-0.239-0.797-0.797-1.115-1.673-0.956l-0.717,0.717C38.004,155.16,38.043,155.28,38.442,155.439
					 M43.58,173.842c-2.231-3.904-5.059-3.744-8.484,0.478c-1.275,1.514-1.832,2.908-1.673,4.182c0.159,1.514,1.275,2.27,3.346,2.27
					c-2.788-0.637-3.545-2.231-2.27-4.78c1.195-2.549,2.908-3.824,5.138-3.824c2.151,0.398,3.027,1.713,2.629,3.943
					c-0.398,2.151-1.474,3.505-3.226,4.063c1.514-0.08,2.589-0.836,3.226-2.27L43.58,173.842 M44.178,180.772l1.912-0.358
					c0.558,0.08,0.876,0.558,0.956,1.434c-1.434,1.673-3.147,1.314-5.138-1.075c-0.08,0.637,0.119,1.195,0.597,1.673l1.075,1.195
					c3.107,0,4.461-1.155,4.063-3.465c-0.797-0.558-1.753-0.558-2.868,0L44.178,180.772 M56.247,180.772l-4.063,2.27l-3.346,2.868
					c-0.159,2.629,0.199,4.143,1.075,4.541c-0.797-2.31-0.279-4.262,1.553-5.855L56.247,180.772"/>
				<path class="st0" d="M48.838,185.911l3.346-2.868l4.063-2.27l-4.78,3.824c-1.832,1.593-2.35,3.545-1.553,5.855
					C49.037,190.053,48.679,188.54,48.838,185.911"/>
				<path class="st0" d="M47.643,180.175c0.398,2.31-0.956,3.465-4.063,3.465l-1.075-1.195c-0.478-0.478-0.677-1.036-0.597-1.673
					c1.992,2.39,3.704,2.748,5.138,1.075c-0.08-0.876-0.398-1.354-0.956-1.434l-1.912,0.358l0.597-0.597
					C45.89,179.617,46.846,179.617,47.643,180.175"/>
				<path class="st0" d="M42.266,177.904c-0.637,1.434-1.713,2.191-3.226,2.27c1.753-0.558,2.828-1.912,3.226-4.063
					c0.398-2.231-0.478-3.545-2.629-3.943c-2.231,0-3.943,1.275-5.138,3.824c-1.275,2.549-0.518,4.143,2.27,4.78
					c-2.071,0-3.187-0.757-3.346-2.27c-0.159-1.275,0.398-2.669,1.673-4.182c3.426-4.222,6.254-4.381,8.484-0.478L42.266,177.904"/>
				<path class="st0" d="M39.039,154.364c0.876-0.159,1.434,0.159,1.673,0.956v2.509l-1.792,1.195l-2.748,0.478l-0.836-1.195
					l0.239-1.673l0.836,1.195c0.319,0.558,0.797,0.717,1.434,0.478c1.434,0,2.231-0.757,2.39-2.27
					c-0.319-1.036-0.916-1.235-1.792-0.597c-0.398-0.159-0.438-0.279-0.119-0.358L39.039,154.364"/>
				<path class="st3" d="M32.467,151.137l2.031,1.434l2.39-0.358c0-1.992-0.239-3.346-0.717-4.063
					c-1.195-0.239-2.35,0.12-3.465,1.075L32.467,151.137z"/>
				<path class="st3" d="M113.604,228.451h0.956c4.62-0.159,10.715-0.199,18.283-0.119c6.054-0.398,11.272-2.35,15.654-5.855
					l17.088-13.503c7.17-5.815,12.906-10.874,17.207-15.176c1.593-4.859,0.876-10.117-2.151-15.773
					c-3.983-6.293-6.692-11.073-8.126-14.339l-1.912-0.956l-1.912-0.956"/>
				<path class="st4" d="M167.497,97.006c-0.637-1.673-0.717-3.505-0.239-5.497c0.637-2.151,1.753-3.386,3.346-3.704
					c1.036,0.717,1.553,2.151,1.553,4.302c0,2.39,0.199,3.943,0.597,4.66L167.497,97.006z"/>
				<path class="st5" d="M158.057,54.227l7.05,8.245c2.709,3.107,4.62,6.015,5.736,8.723l5.736,12.308
					c2.31,5.098,3.665,9.321,4.063,12.667c0.558,4.78-0.358,11.272-2.748,19.478c-2.788,9.321-4.302,16.132-4.541,20.434
					l-2.27,2.151l-4.66,3.465"/>
			</g>
		</g>
	</g>
	<path class="st6" d="M173.591,86.133l-2.748,3.824c0.08,2.231,1.394,3.904,3.943,5.019c3.187,1.434,5.059,2.589,5.616,3.465
		c-0.239,5.098-1.593,11.272-4.063,18.522c-2.629,7.727-4.182,13.662-4.66,17.805c3.027,1.434,4.82,4.262,5.377,8.484
		c0.558,4.461-1.514,6.771-6.214,6.931v10.038c12.348,4.143,19.796,10.316,22.346,18.522c2.31,7.249,0.597,15.056-5.138,23.421
		c-5.497,7.966-13.224,14.499-23.182,19.597c-10.516,5.417-20.991,7.807-31.427,7.17c-2.071-1.275-3.386-3.067-3.943-5.377
		c-0.398-0.478-1.155-0.159-2.27,0.956c-1.275,1.434-2.629,1.872-4.063,1.314c-1.434-1.992-1.952-4.302-1.553-6.931l2.748-2.27
		c1.195-0.637,2.629-0.916,4.302-0.836c-3.266-6.612-3.386-15.654-0.358-27.125c3.744-14.499,5.457-24.258,5.138-29.276
		l-17.924-1.434c-6.771-0.717-11.671-2.27-14.698-4.66v-6.931L113.485,146l15.176,1.075c-0.717-3.505,0.836-7.249,4.66-11.233
		c3.983-4.302,5.895-8.285,5.736-11.95l-4.66,0.119l-5.736,0.717c-3.904-3.426-7.329-8.325-10.277-14.698l-12.786,0.956
		c-4.78-1.036-6.373-3.665-4.78-7.887c7.329-0.797,10.715-3.904,10.157-9.321c-0.558-5.417-4.182-8.484-10.874-9.201
		c-0.637-5.337,0.956-8.922,4.78-10.755c3.027-1.434,7.807-1.992,14.339-1.673c1.992-1.753,4.262-6.054,6.811-12.906l6.811-17.685
		c6.134-13.304,13.224-14.419,21.27-3.346l11.113,22.226c6.373,13.304,9.56,20.314,9.56,21.031
		C174.946,83.225,174.547,84.779,173.591,86.133"/>
	<path class="st6" d="M62.58,151.855c4.302-4.62,9.639-5.457,16.012-2.509c6.851,6.453,9.36,13.025,7.528,19.717
		c-0.717,2.549-2.231,5.776-4.541,9.679l-6.214,10.755c-6.373,2.549-11.352,1.394-14.937-3.465
		c-3.187-4.222-4.541-9.958-4.063-17.207C56.844,161.495,58.916,155.839,62.58,151.855"/>
	<path class="st6" d="M151.724,240.521v8.484c-3.585,2.948-7.767,4.979-12.547,6.094c-5.975,1.434-10.794,0.677-14.459-2.27
		c-0.876,0-2.31,0.597-4.302,1.792c-1.514,0.956-2.709,1.115-3.585,0.478c-0.558-0.478-0.876-1.474-0.956-2.987l0.119-3.943
		l16.49-7.767C139.416,237.852,145.829,237.892,151.724,240.521"/>
</g>
</svg>
