<?xml version="1.0" encoding="utf-8"?>
<!-- Generator: Adobe Illustrator 24.0.1, SVG Export Plug-In . SVG Version: 6.00 Build 0)  -->
<svg version="1.1" id="Camada_1" xmlns="http://www.w3.org/2000/svg" xmlns:xlink="http://www.w3.org/1999/xlink" x="0px" y="0px"
	 viewBox="0 0 158.95 95.5" style="enable-background:new 0 0 158.95 95.5;" xml:space="preserve">
<style type="text/css">
	.st0{fill-rule:evenodd;clip-rule:evenodd;}
	.st1{fill-rule:evenodd;clip-rule:evenodd;fill:#462C2D;}
	.st2{fill-rule:evenodd;clip-rule:evenodd;fill:#B0795B;}
	.st3{fill-rule:evenodd;clip-rule:evenodd;fill:#B97E5A;}
	.st4{fill:none;stroke:#000000;stroke-width:0.25;stroke-linecap:round;}
	.st5{fill:none;stroke:#000000;stroke-width:0.45;stroke-linecap:round;}
	.st6{fill:none;stroke:#000000;stroke-width:0.35;stroke-linecap:round;}
	.st7{fill:none;stroke:#000000;stroke-width:0.4;stroke-linecap:round;}
	.st8{fill:none;stroke:#000000;stroke-width:0.5;stroke-linecap:round;}
	.st9{fill:none;stroke:#000000;stroke-width:0.55;stroke-linecap:round;}
	.st10{opacity:0.34;fill-rule:evenodd;clip-rule:evenodd;fill:#100C4D;}
</style>
<g transform="matrix(1.0, 0.0, 0.0, 1.0, 0.0, 0.05)">
	<g transform="matrix(1.0, 0.0, 0.0, 1.0, 0.0, -0.05)">
		<g id="shape0" transform="matrix(1.0, 0.0, 0.0, 1.0, 0.0, 0.05)">
			<path class="st0" d="M126.95,38.9c1.5-0.967,2.867-1.3,4.1-1c2.3,1.367,3.5,2.25,3.6,2.65l1.95,0.2l1.65,0.5
				c0.233,0.867,0.783,2.1,1.65,3.7c0.633,1.533,0.733,3.017,0.3,4.45l-1.3,1c-0.567,0.367-0.933,0.75-1.1,1.15l0.85,0.2l1.3,0.05
				l1.95,1.7c0.6,0.733,0.833,1.683,0.7,2.85c0,0.333-0.067,0.2-0.2-0.4l-0.55-1.75l-1.15-1.1l-1-0.8h-2.4l0.5,1.35
				c0.3,0.8,0.367,1.55,0.2,2.25l-1.1,0.9l-1.3,0.75l-0.95,2.65c0.167-1.033,0.417-1.983,0.75-2.85l-4.1,1.45
				c-2.1,0.867-3.167,1.667-3.2,2.4l0.15-1h0.05c0.5-0.833,1.983-1.667,4.45-2.5l4.8-1.55c-0.233-1.833-0.65-3.267-1.25-4.3
				c-0.767-1.2-1.867-1.933-3.3-2.2h-0.5v0.5c-3.267-0.767-6.833,0.417-10.7,3.55c-2,1.6-3.533,2.65-4.6,3.15
				c-1.833,0.867-3.767,1.1-5.8,0.7c1.533,0.133,2.4-0.5,2.6-1.9c-0.4-0.333-0.9-0.583-1.5-0.75l-1.5-0.2l4.3-0.5
				c1.8-0.2,3.367-0.2,4.7,0l4.45-2.85c1.8-1.133,3.05-2.333,3.75-3.6c-1.933-3.133-3.3-5.067-4.1-5.8
				c0.7,0.267,1.333,0.883,1.9,1.85l1.45,2.25l1.65-1.6c0.633-0.667,0.967-1.417,1-2.25c-0.8-0.867-1.367-1.75-1.7-2.65L126.95,38.9
				 M128.4,39.35c0.667,0.433,1.4,1.467,2.2,3.1c-0.033,0.667-0.55,1.483-1.55,2.45c-0.867,0.8-1.15,1.667-0.85,2.6
				c0.6,0,1.617-0.4,3.05-1.2c1.4-0.8,2.617-1.2,3.65-1.2l0.2-2.2c0.033-0.767-0.117-1.4-0.45-1.9c-0.533,0-1.567-0.567-3.1-1.7
				L128.4,39.35 M130.6,48.2c-0.467-0.667-1.133-0.633-2,0.1c-0.833,0.7-1.217,1.233-1.15,1.6c0.433-0.433,1.233-0.633,2.4-0.6
				l2.4-0.35l-0.8-0.9C131.083,47.75,130.8,47.8,130.6,48.2 M135.15,41.25c0.4,0.333,0.533,0.967,0.4,1.9l-0.4,2.2
				c-0.3,0.233-1.017,0.417-2.15,0.55c-1.033,0.133-1.683,0.417-1.95,0.85l0.95,1c0.4,0.333,0.567,0.8,0.5,1.4
				c1.1-0.433,2.067-0.233,2.9,0.6l2.15,1.8l0.8-1.35c0.367-0.467,0.817-0.733,1.35-0.8c0.433-1.4,0.35-2.817-0.25-4.25
				c-0.867-1.467-1.417-2.6-1.65-3.4l-1.4-0.5C135.8,41.05,135.383,41.05,135.15,41.25 M115.2,54.7l-0.85,1.35
				c-0.333,0.633-0.45,1.067-0.35,1.3c0.867-1.167,2-2.133,3.4-2.9l-1.1,0.1L115.2,54.7"/>
			<path class="st1" d="M137.8,41.75c0.233,0.8,0.783,1.933,1.65,3.4c0.6,1.433,0.683,2.85,0.25,4.25
				c-0.533,0.067-0.983,0.333-1.35,0.8l-0.8,1.35l-2.15-1.8c-0.833-0.833-1.8-1.033-2.9-0.6c0.067-0.6-0.1-1.067-0.5-1.4l-0.95-1
				c0.267-0.433,0.917-0.717,1.95-0.85c1.133-0.133,1.85-0.317,2.15-0.55l0.4-2.2c0.133-0.933,0-1.567-0.4-1.9
				c0.233-0.2,0.65-0.2,1.25,0L137.8,41.75"/>
			<path class="st1" d="M133,49.65c1.433,0.267,2.533,1,3.3,2.2c0.6,1.033,1.017,2.467,1.25,4.3l-4.8,1.55
				c-2.467,0.833-3.95,1.667-4.45,2.5l0.3-0.85v-0.9c0.8-0.833,2.117-1.35,3.95-1.55c1.133-0.9,1.7-2.133,1.7-3.7
				c0.033-1.6-0.55-2.783-1.75-3.55H133"/>
			<path class="st1" d="M131.55,39.3c1.533,1.133,2.567,1.7,3.1,1.7c0.333,0.5,0.483,1.133,0.45,1.9l-0.2,2.2
				c-1.033,0-2.25,0.4-3.65,1.2c-1.433,0.8-2.45,1.2-3.05,1.2c-0.3-0.933-0.017-1.8,0.85-2.6c1-0.967,1.517-1.783,1.55-2.45
				c-0.8-1.633-1.533-2.667-2.2-3.1L131.55,39.3"/>
			<path class="st1" d="M130.6,48.2c0.2-0.4,0.483-0.45,0.85-0.15l0.8,0.9l-2.4,0.35c-1.167-0.033-1.967,0.167-2.4,0.6
				c-0.067-0.367,0.317-0.9,1.15-1.6C129.467,47.567,130.133,47.533,130.6,48.2"/>
			<path class="st0" d="M128.4,39.55l-1.75-0.5l0.3-0.15L128.4,39.55"/>
			<path class="st0" d="M119.8,47v2.15c-0.2-0.067-0.283-0.333-0.25-0.8v-1.1c-0.2-0.6-0.6-1-1.2-1.2
				c0.133-0.2,0.383-0.15,0.75,0.15L119.8,47"/>
			<path class="st1" d="M132.5,49.65v0.5c-3.267-0.767-6.833,0.417-10.7,3.55c-2,1.6-3.533,2.65-4.6,3.15
				c-1.833,0.867-3.767,1.1-5.8,0.7c1.533,0.133,2.4-0.5,2.6-1.9c-0.4-0.333-0.9-0.583-1.5-0.75l-1.5-0.2l4.3-0.5
				c1.8-0.2,3.367-0.2,4.7,0l4.45-2.85c1.8-1.133,3.05-2.333,3.75-3.6c-1.933-3.133-3.3-5.067-4.1-5.8
				c0.7,0.267,1.333,0.883,1.9,1.85l1.45,2.25l1.65-1.6c0.633-0.667,0.967-1.417,1-2.25c-0.8-0.867-1.367-1.75-1.7-2.65l-1.75-0.5
				l0.3-0.15c-1.467-0.867-3.017-2.333-4.65-4.4l-3.7-5l-6.6-0.05c-2.2,0.067-3.45,1.033-3.75,2.9c-0.967,0.467-2,1.467-3.1,3
				c-1.2,1.667-2.167,2.75-2.9,3.25c-0.6,0.433-1.9,0.95-3.9,1.55c-1.733,0.533-2.983,1.217-3.75,2.05l-0.2,2.15
				c-0.167,0.733-0.583,1.217-1.25,1.45c-0.667-0.667-1.533-0.867-2.6-0.6c-0.933,0.233-1.667,0.683-2.2,1.35
				c-0.267-0.333-0.917-0.667-1.95-1c-0.833,0.333-1.633,1.067-2.4,2.2c-0.9,0.067-2,0.567-3.3,1.5c-1.233,0.933-2.2,1.383-2.9,1.35
				c0.3-0.9,1.75-2.2,4.35-3.9c2.1-1.367,2.883-2.95,2.35-4.75c1.2-0.8,2.317-2.283,3.35-4.45c1.433-2.933,2.317-4.65,2.65-5.15
				c0.2,0.533,0.533,0.733,1,0.6l0.9-0.35v0.95l1.15-0.15l1.25-0.05c0.2-0.1,0.35-0.4,0.45-0.9c0.1-0.467,0.283-0.733,0.55-0.8
				c-0.1,0.733,0.217,1.133,0.95,1.2l0.75-2c0.167-0.833,0.15-1.45-0.05-1.85l0.95,0.2l1,0.05c0.9-1.133,1.05-2.167,0.45-3.1
				c-1.267,0.167-1.983-0.233-2.15-1.2l1-0.2l1.15-0.05c0.033-0.533-0.15-0.95-0.55-1.25l-1.1-0.7c0.167-0.867-0.2-1.367-1.1-1.5
				c-1.2-0.2-1.883-0.417-2.05-0.65c0.933-0.8,1.583-1.55,1.95-2.25c0.567-1.1,0.633-2.267,0.2-3.5
				c-0.233,0.067-0.483,0.417-0.75,1.05c-0.233,0.533-0.617,0.75-1.15,0.65l-0.6-0.85c-0.367-0.267-0.567-0.55-0.6-0.85
				c0.267-0.6,0.75-0.767,1.45-0.5v-1.9l-1.6-1.05l-1.3-1.35L94.6,8.1c0.733-0.867,0.967-1.733,0.7-2.6
				c-0.133,0.4-0.7,0.633-1.7,0.7l-0.2-0.35L93.15,5.5c-0.033-0.633,0.517-1.083,1.65-1.35c0.9-0.233,1.067-0.667,0.5-1.3L95,3.25
				l0.3,0.55l-0.85-0.65l-0.6-1l0.65-0.7c0.233-0.3,0.333-0.633,0.3-1c-0.5-0.1-0.95,0.017-1.35,0.35L92.4,1.4l-0.45-0.95
				c-0.167-0.433-0.483-0.6-0.95-0.5c0.2,0.7,0.283,1.433,0.25,2.2c-0.033,0.933-0.283,1.483-0.75,1.65l-0.45-0.5l-0.5-0.45
				L88.6,3.7c-0.333,0.4-0.417,0.917-0.25,1.55h-1.1c-0.367,0.033-0.567,0.2-0.6,0.5c0.267,0.133,0.383,0.367,0.35,0.7l-0.3,1.3
				l0.45-0.1c0.667,0.1,1.017-0.067,1.05-0.5l-0.35-1.2c0.767,0.067,1.167-0.083,1.2-0.45c-0.267-0.167-0.35-0.517-0.25-1.05
				c0.133-0.433,0.3-0.733,0.5-0.9L90,4.1l1,0.2l0.5-1.15l0.2-1.5c0.5,0.267,0.983,0.2,1.45-0.2c0.567-0.5,1.05-0.75,1.45-0.75
				l-0.75,0.8c-0.367,0.3-0.517,0.667-0.45,1.1c0.1,0.167,0.3,0.333,0.6,0.5l0.6,0.45c-1.7,0.7-2.267,1.667-1.7,2.9l2.15-0.25
				c-0.067,0.833-0.533,1.6-1.4,2.3c-0.967,0.8-1.533,1.483-1.7,2.05l1.7,1.4c0.633,0.567,1.017,1.217,1.15,1.95
				c-0.767-0.033-1.167,0.283-1.2,0.95c0.033,0.367,0.233,0.733,0.6,1.1c0.367,0.367,0.567,0.717,0.6,1.05
				c0.467,0.067,0.867-0.05,1.2-0.35c0.4-0.367,0.733-0.567,1-0.6c0.067,1-0.3,1.917-1.1,2.75c-0.9,1-1.417,1.767-1.55,2.3
				c0.233,0.267,0.8,0.45,1.7,0.55c0.9,0.1,1.45,0.317,1.65,0.65l-0.1,0.5c-0.1,0.167-0.15,0.317-0.15,0.45l0.85,0.35
				c0.4,0.1,0.6,0.3,0.6,0.6c-0.933-0.033-1.567,0.283-1.9,0.95c0.1,0.6,0.5,1.05,1.2,1.35l1.65,0.35
				c0.1,0.933-0.217,1.567-0.95,1.9l-0.95-0.3L97,28.55l0.1,1.95c0.033,0.8-0.25,1.35-0.85,1.65c-0.1-0.733-0.417-1.217-0.95-1.45
				c-0.1,0.133-0.217,0.533-0.35,1.2c-0.1,0.533-0.3,0.85-0.6,0.95L93.4,32.9l-0.5-0.05l0.05-1.1c0-0.467-0.183-0.667-0.55-0.6
				c-0.133,0.067-0.283,0.35-0.45,0.85c-0.167,0.4-0.417,0.6-0.75,0.6l-0.4-0.75l-0.3-0.45L90,32.15c-0.2-0.5-0.567-0.8-1.1-0.9
				c-0.567-0.1-1,0.117-1.3,0.65l-0.05-0.65L87.4,30.7c-0.4,0-0.767,0.15-1.1,0.45c-0.233,0.167-0.517,0.1-0.85-0.2
				c0.067,0.533-0.1,0.817-0.5,0.85c-0.4,0.067-0.717-0.067-0.95-0.4l-0.45,0.75l-0.5,0.7L82.5,32.3l-0.9-0.15
				c-0.233,0.133-0.283,0.383-0.15,0.75c0.167,0.367,0.15,0.583-0.05,0.65l-0.95,0.05l-0.75,0.2c-0.067-0.367-0.083-0.917-0.05-1.65
				c0.067-0.567,0-1.05-0.2-1.45c0,0.667-0.15,1.15-0.45,1.45l-0.6-1c-0.167-0.467-0.45-0.7-0.85-0.7l0.05,1
				c0,0.433-0.1,0.667-0.3,0.7c-0.1-0.2-0.5-0.283-1.2-0.25c-0.667,0.033-0.983-0.133-0.95-0.5c0.867,0.067,1.267-0.333,1.2-1.2
				l-0.95-1.1c-0.333-0.467-0.733-0.733-1.2-0.8c0.967,0.1,1.517-0.15,1.65-0.75c-0.5-0.433-0.7-1.033-0.6-1.8
				c0.1-0.733,0.383-1.333,0.85-1.8V26c0.1,0.7,0.417,1.067,0.95,1.1c0.633-0.167,1.05-0.683,1.25-1.55
				c0.233-0.867,0.133-1.55-0.3-2.05l0.65,0.55c0.233,0.3,0.5,0.433,0.8,0.4L80,22.5c0.3-0.7,0.833-1.017,1.6-0.95l-0.25,0.95
				l-0.2,1c0.667,0.467,1.3,0.7,1.9,0.7c0.2-0.033,0.433-0.2,0.7-0.5c0.267-0.267,0.517-0.417,0.75-0.45
				c-0.167,0.167-0.25,0.483-0.25,0.95s0.083,0.783,0.25,0.95c0.533-0.1,1.033-0.317,1.5-0.65l1.05-0.8l-0.6-0.65
				c-0.2-0.3-0.45-0.467-0.75-0.5c-0.1,0.267-0.067,0.717,0.1,1.35c0.033,0.5-0.317,0.767-1.05,0.8l0.05-1.85
				c-0.067-0.533-0.333-0.967-0.8-1.3c-0.067,0.8-0.283,1.4-0.65,1.8c-0.433,0.5-0.933,0.467-1.5-0.1
				c-0.033-0.367,0.033-0.75,0.2-1.15l0.3-1c-0.967-0.133-1.717,0.083-2.25,0.65L79,23.5c-0.1-0.267-0.367-0.45-0.8-0.55l-1.15-0.2
				L77.7,25c0.167,0.833,0.033,1.45-0.4,1.85c-0.5-0.267-0.783-0.75-0.85-1.45l-0.1-1.9c-0.7,0.3-1.183,0.9-1.45,1.8
				c-0.3,0.933-0.217,1.767,0.25,2.5h-1.1c-0.367,0.033-0.567,0.2-0.6,0.5L75,29.45c0.6,0.5,0.8,1,0.6,1.5
				c-0.333,0.033-0.617-0.083-0.85-0.35l-0.55-0.65c-0.333,0.8-0.1,1.517,0.7,2.15c0.767,0.567,1.567,0.733,2.4,0.5v0.95h0.25
				l-1.45,5.4c-0.6,2.1-0.533,3.917,0.2,5.45c-0.5,3.067-2.283,6-5.35,8.8l-2.9,0.35c-1.167,0.133-2,0.483-2.5,1.05
				c-0.233,0.633-1.367,1.567-3.4,2.8c-1.6,1-2.217,2.267-1.85,3.8c-1.033-0.467-2.183-0.333-3.45,0.4
				c-1.367,0.967-2.433,1.583-3.2,1.85l0.15,0.1c1.133,1.167,2.767,1.867,4.9,2.1l5.65,0.1c0.567-0.867,0.433-1.683-0.4-2.45
				l-2.25-1.65c1.5-1.4,2.617-1.967,3.35-1.7L63.3,60.6c-0.6,0.3-0.967,0.733-1.1,1.3c1.933-0.1,2.85,0.783,2.75,2.65
				c-0.1,1.8-1.267,2.267-3.5,1.4l-1,0.6l-1.15,0.4c0.267-0.533,0.117-0.9-0.45-1.1l-1.7-0.35c-0.267,0.067-0.4,0.233-0.4,0.5
				l-0.1,0.45c-0.3-0.333-0.967-0.75-2-1.25c-0.933-0.433-1.55-0.9-1.85-1.4l-0.35,0.95c-0.2,0.3-0.483,0.467-0.85,0.5
				c-1.433-0.2-2.217-1.45-2.35-3.75c0.1-2.8,0.017-4.75-0.25-5.85c0.167,0.967,0.067,3.15-0.3,6.55c-0.3,2.667-0.05,4.567,0.75,5.7
				c-0.233-0.033-0.433-0.233-0.6-0.6l-0.6-0.6c-0.5,0.1-0.85,0.517-1.05,1.25c-0.133,0.5-0.183,1.033-0.15,1.6
				c-0.5-0.767-0.417-1.617,0.25-2.55c0.667-1,0.833-1.9,0.5-2.7l-3.15-0.05c-1.1,0.067-1.9,0.4-2.4,1l2.3,0.15
				c0.667,0.2,1.017,0.633,1.05,1.3l-0.55-0.75c-0.233-0.3-0.517-0.45-0.85-0.45H38l-6.65-0.7l-0.25,0.05l-3.95,2.8
				c0.3-0.033,0.817-0.317,1.55-0.85c0.633-0.467,1.15-0.583,1.55-0.35L28.6,67.1c-0.567,0.3-0.9,0.717-1,1.25l2.25-1
				c1.167-0.4,2.183-0.3,3.05,0.3c-1.967-0.133-3.833,0.4-5.6,1.6c-2.233,1.467-3.8,2.3-4.7,2.5L22,73
				c-0.267,0.533-0.317,0.917-0.15,1.15c0.333-0.567,0.983-1.05,1.95-1.45l1.9-0.6l4.15-1.2c-1.567,1.167-3.583,1.767-6.05,1.8
				c-0.333,0.633-1.083,1.217-2.25,1.75l0.2,0.1l-0.65,0.1c-1.067,0.467-1.783,0.85-2.15,1.15C18.317,76.267,18,76.833,18,77.5
				l1-0.9c0.467-0.3,0.783-0.4,0.95-0.3l-1.25,0.95l-1.15,0.95H17.3l1.25,0.45l1.2,0.45L20,79.35c-0.033,1-0.3,2.233-0.8,3.7
				L18,86.6c0.7-0.333,1.7-0.533,3-0.6c1.1-2.5,2.433-4.5,4-6c1.567-1.533,3.5-2.667,5.8-3.4c1.667-0.567,3.4-0.833,5.2-0.8l5.4,0.6
				c3.7-2.1,6.15-1.983,7.35,0.35c1.233-0.133,2.9,0.283,5,1.25c2.033,0.967,3.7,1.35,5,1.15c1.533-1.533,3.367-2.767,5.5-3.7
				c2.067-0.867,4.217-1.35,6.45-1.45l0.1-0.35c1.233-1.167,3.167-1.4,5.8-0.7c1.433,0.367,3.35,1.083,5.75,2.15l2-0.8l2.05-0.65
				h0.25c-1.167-0.933-2.767-1.733-4.8-2.4l-5.15-1.7l0.35-0.65c6.567-2.533,13.117-3.333,19.65-2.4
				c0.633,0.367,1.533,0.617,2.7,0.75l2.8,0.45c1.433,1.833,3.783,2.45,7.05,1.85c2.633-0.467,5.467-1.617,8.5-3.45l5.2-3.25
				c1.933-1.133,3.65-1.683,5.15-1.65c-0.1-0.367-0.05-0.7,0.15-1h0.05l0.3-0.85v-0.9c0.8-0.833,2.117-1.35,3.95-1.55
				c1.133-0.9,1.7-2.133,1.7-3.7C134.283,51.6,133.7,50.417,132.5,49.65z M119.1,46.2l0.7,0.8v2.15c-0.2-0.067-0.283-0.333-0.25-0.8
				v-1.1c-0.2-0.6-0.6-1-1.2-1.2C118.483,45.85,118.733,45.9,119.1,46.2z M116.9,46.85c0.033,0.5,0.2,0.95,0.5,1.35l-0.8-0.5
				L116.9,46.85z M113.55,35.5c0.367-0.3,0.283,0.333-0.25,1.9C112.967,38.133,113.05,37.5,113.55,35.5z M78.35,39.55
				c0.4-2.167,1.017-4,1.85-5.5h0.95l0.7-0.25c0.233-0.067,0.267-0.25,0.1-0.55c-0.167-0.367-0.2-0.667-0.1-0.9
				c0.733,0.4,1.217,0.733,1.45,1c0.367-0.3,0.6-0.783,0.7-1.45l1.55,0.15c0.6-0.2,0.967-0.5,1.1-0.9l0.45,0.75
				c0.133,0.367,0.383,0.517,0.75,0.45c-0.433,0.633-0.9,1.75-1.4,3.35c-0.467,1.533-0.95,2.583-1.45,3.15
				c-0.233,0.267-0.733,0.55-1.5,0.85c-0.733,0.267-1.2,0.55-1.4,0.85L81,43.3c-0.433,1.033-1.167,1.633-2.2,1.8
				C78.033,43.967,77.883,42.117,78.35,39.55z M25.3,77.15l-2.5,1.8c0.133-0.467,0.767-1.05,1.9-1.75
				c1.333-0.8,2.15-1.417,2.45-1.85C27.05,75.883,26.433,76.483,25.3,77.15z M37.25,71.8l-1.1,0.5l-0.85-0.35
				c-0.167-0.267-0.183-0.6-0.05-1c0.367-0.467,0.867-0.733,1.5-0.8c0.667-0.067,1.1,0.183,1.3,0.75
				C37.983,71.267,37.717,71.567,37.25,71.8z M51.5,70.5l-0.85-0.7c-0.133-0.267,0.05-0.233,0.55,0.1l1.15,0.65L51.5,70.5z
				 M57.15,75.8c-0.7-0.1-1.067-0.3-1.1-0.6c-0.067-0.333,0.217-0.217,0.85,0.35c0.3,0.1,0.5,0.033,0.6-0.2l0.35-0.5
				c-0.067-0.333-0.233-0.467-0.5-0.4L56.4,74.6c0.1-0.233,0.367-0.383,0.8-0.45c0.4-0.067,0.7,0,0.9,0.2
				C58,75.083,57.683,75.567,57.15,75.8z M69.4,55.9c0.133,0.133,0.067,0.45-0.2,0.95c-0.3,0.567-0.4,1.05-0.3,1.45l1,0.3
				c0.467,0.1,0.767,0.233,0.9,0.4c-0.933,0.267-1.6,0-2-0.8C68.4,57.4,68.6,56.633,69.4,55.9z M68.2,61.8
				c0.933-0.767,1.95-0.983,3.05-0.65c-1-0.267-2.733,0.7-5.2,2.9L68.2,61.8z M71.25,66.65c-0.5,0.433-0.867,0.583-1.1,0.45
				L70,66.35c0.267-0.533,0.617-0.733,1.05-0.6l0.25,0.45L71.25,66.65z M91.5,49.2l3.3-1.45c0.167-0.667-0.067-1.067-0.7-1.2
				c0.133-0.3,0.333-0.367,0.6-0.2l0.6,0.4c-0.1,0.9-0.617,1.55-1.55,1.95l-2.65,0.7L91.5,49.2z M91,49.45l-0.85,1
				c-0.333,0.4-0.85,0.617-1.55,0.65C89.1,50.5,89.9,49.95,91,49.45z M82.25,64.95c-0.9,1.767-2.233,2.1-4,1
				c2.067,0.833,3.333,0.333,3.8-1.5c0.5-1.833-0.233-2.967-2.2-3.4c1.4-0.233,2.233-0.75,2.5-1.55c0.233,0.233,0.15,0.533-0.25,0.9
				l-0.95,0.75C82.75,61.883,83.117,63.15,82.25,64.95z M81.4,50.85c0.7-0.467,1.417-0.7,2.15-0.7l2.45,0.3
				c1.067,0.3,0.967,0.35-0.3,0.15c-0.8,0.167-1.433,0.083-1.9-0.25C82.933,50.717,82.133,50.883,81.4,50.85z M93.6,60.05
				c-2.567,0.667-5.25,0.733-8.05,0.2l-0.25-1.3l-0.45-1.25c0.6-2.567,2.65-4.2,6.15-4.9c3.567-0.733,6.15,0.033,7.75,2.3
				C98.583,57.567,96.867,59.217,93.6,60.05z M99.4,46.75l-0.042-0.017c0.005-0.004,0.008-0.008,0.013-0.012L99.4,46.75l1-0.2
				c0.333-0.133,0.55-0.133,0.65,0C100.383,46.95,99.833,47.017,99.4,46.75z M108.45,63.25l-0.9,0.3c-0.167-0.3-0.15-0.633,0.05-1
				c0.167-0.367,0.433-0.583,0.8-0.65c0.267,0.1,0.383,0.317,0.35,0.65L108.45,63.25z M108.75,41v1.15
				c-0.033,0.467,0.05,0.733,0.25,0.8c-0.8-0.2-0.833-1.167-0.1-2.9c0.233-0.6,0.383-0.85,0.45-0.75L108.75,41z"/>
			<path class="st1" d="M115.2,54.7l1.1-0.15l1.1-0.1c-1.4,0.767-2.533,1.733-3.4,2.9c-0.1-0.233,0.017-0.667,0.35-1.3L115.2,54.7"
				/>
			<path class="st0" d="M116.9,46.85c0.033,0.5,0.2,0.95,0.5,1.35l-0.4-0.25l-0.4-0.25L116.9,46.85"/>
			<path class="st0" d="M113.55,35.5c0.367-0.3,0.283,0.333-0.25,1.9C112.967,38.133,113.05,37.5,113.55,35.5"/>
			<path class="st0" d="M109,42.95c-0.8-0.2-0.833-1.167-0.1-2.9c0.233-0.6,0.383-0.85,0.45-0.75l-0.6,1.7v1.15
				C108.717,42.617,108.8,42.883,109,42.95"/>
			<path class="st1" d="M108.4,61.9c0.267,0.1,0.383,0.317,0.35,0.65l-0.3,0.7l-0.9,0.3c-0.167-0.3-0.15-0.633,0.05-1
				C107.767,62.183,108.033,61.967,108.4,61.9"/>
			<path class="st0" d="M99.4,46.75l1-0.2c0.333-0.133,0.55-0.133,0.65,0C100.383,46.95,99.833,47.017,99.4,46.75"/>
			<path class="st2" d="M91.7,1.65c0.5,0.267,0.983,0.2,1.45-0.2c0.567-0.5,1.05-0.75,1.45-0.75l-0.75,0.8
				c-0.367,0.3-0.517,0.667-0.45,1.1c0.1,0.167,0.3,0.333,0.6,0.5l0.6,0.45c-1.7,0.7-2.267,1.667-1.7,2.9l2.15-0.25
				c-0.067,0.833-0.533,1.6-1.4,2.3c-0.967,0.8-1.533,1.483-1.7,2.05l1.7,1.4c0.633,0.567,1.017,1.217,1.15,1.95
				c-0.767-0.033-1.167,0.283-1.2,0.95c0.033,0.367,0.233,0.733,0.6,1.1c0.367,0.367,0.567,0.717,0.6,1.05
				c0.467,0.067,0.867-0.05,1.2-0.35c0.4-0.367,0.733-0.567,1-0.6c0.067,1-0.3,1.917-1.1,2.75c-0.9,1-1.417,1.767-1.55,2.3
				c0.233,0.267,0.8,0.45,1.7,0.55s1.45,0.317,1.65,0.65l-0.1,0.5c-0.1,0.167-0.15,0.317-0.15,0.45l0.85,0.35
				c0.4,0.1,0.6,0.3,0.6,0.6c-0.933-0.033-1.567,0.283-1.9,0.95c0.1,0.6,0.5,1.05,1.2,1.35l1.65,0.35
				c0.1,0.933-0.217,1.567-0.95,1.9l-0.95-0.3L97,28.55l0.1,1.95c0.033,0.8-0.25,1.35-0.85,1.65c-0.1-0.733-0.417-1.217-0.95-1.45
				c-0.1,0.133-0.217,0.533-0.35,1.2c-0.1,0.533-0.3,0.85-0.6,0.95L93.4,32.9l-0.5-0.05l0.05-1.1c0-0.467-0.183-0.667-0.55-0.6
				c-0.133,0.067-0.283,0.35-0.45,0.85c-0.167,0.4-0.417,0.6-0.75,0.6l-0.4-0.75l-0.3-0.45L90,32.15c-0.2-0.5-0.567-0.8-1.1-0.9
				c-0.567-0.1-1,0.117-1.3,0.65l-0.05-0.65L87.4,30.7c-0.4,0-0.767,0.15-1.1,0.45c-0.233,0.167-0.517,0.1-0.85-0.2
				c0.067,0.533-0.1,0.817-0.5,0.85c-0.4,0.067-0.717-0.067-0.95-0.4l-0.45,0.75l-0.5,0.7L82.5,32.3l-0.9-0.15
				c-0.233,0.133-0.283,0.383-0.15,0.75c0.167,0.367,0.15,0.583-0.05,0.65l-0.95,0.05l-0.75,0.2c-0.067-0.367-0.083-0.917-0.05-1.65
				c0.067-0.567,0-1.05-0.2-1.45c0,0.667-0.15,1.15-0.45,1.45l-0.6-1c-0.167-0.467-0.45-0.7-0.85-0.7l0.05,1
				c0,0.433-0.1,0.667-0.3,0.7c-0.1-0.2-0.5-0.283-1.2-0.25c-0.667,0.033-0.983-0.133-0.95-0.5c0.867,0.067,1.267-0.333,1.2-1.2
				l-0.95-1.1c-0.333-0.467-0.733-0.733-1.2-0.8c0.967,0.1,1.517-0.15,1.65-0.75c-0.5-0.433-0.7-1.033-0.6-1.8
				c0.1-0.733,0.383-1.333,0.85-1.8V26c0.1,0.7,0.417,1.067,0.95,1.1c0.633-0.167,1.05-0.683,1.25-1.55
				c0.233-0.867,0.133-1.55-0.3-2.05l0.65,0.55c0.233,0.3,0.5,0.433,0.8,0.4L80,22.5c0.3-0.7,0.833-1.017,1.6-0.95l-0.25,0.95
				l-0.2,1c0.667,0.467,1.3,0.7,1.9,0.7c0.2-0.033,0.433-0.2,0.7-0.5c0.267-0.267,0.517-0.417,0.75-0.45
				c-0.167,0.167-0.25,0.483-0.25,0.95s0.083,0.783,0.25,0.95c0.533-0.1,1.033-0.317,1.5-0.65l1.05-0.8l0.1,0.05l0.1-0.1l0.6-0.15
				l-0.45-2.4c0.067-0.2,0.317-0.45,0.75-0.75c0.4-0.3,0.617-0.617,0.65-0.95c-0.167-0.067-0.233-0.217-0.2-0.45
				c-0.033-0.233-0.267-0.383-0.7-0.45c-0.433-0.033-0.683-0.133-0.75-0.3c0.5-0.267,0.783-0.75,0.85-1.45
				c0.067-0.733-0.133-1.367-0.6-1.9l0.75,0.55l1.15,0.15c0-0.8-0.233-1.667-0.7-2.6l-1.55-0.4c-0.533-0.2-0.817-0.55-0.85-1.05
				l0.9,0.65l1.25,0.3c0.333-0.767,0.167-1.55-0.5-2.35c-0.8-0.9-1.2-1.633-1.2-2.2l0.05-0.15l0.45-0.1
				c0.667,0.1,1.017-0.067,1.05-0.5l-0.35-1.2c0.767,0.067,1.167-0.083,1.2-0.45c-0.267-0.167-0.35-0.517-0.25-1.05
				c0.133-0.433,0.3-0.733,0.5-0.9L90,4.1l1,0.2l0.5-1.15L91.7,1.65"/>
			<path class="st0" d="M94.8,47.75c0.167-0.667-0.067-1.067-0.7-1.2c0.133-0.3,0.333-0.367,0.6-0.2l0.6,0.4
				c-0.1,0.9-0.617,1.55-1.55,1.95l-2.65,0.7l0.4-0.2L94.8,47.75 M88.6,51.1c0.5-0.6,1.3-1.15,2.4-1.65l-0.85,1
				C89.817,50.85,89.3,51.067,88.6,51.1"/>
			<path class="st1" d="M93.6,60.05c-2.567,0.667-5.25,0.733-8.05,0.2l-0.25-1.3l-0.45-1.25c0.6-2.567,2.65-4.2,6.15-4.9
				c3.567-0.733,6.15,0.033,7.75,2.3C98.583,57.567,96.867,59.217,93.6,60.05 M89.55,56.85c-0.5,0.467-0.983,1.1-1.45,1.9l1-0.95
				L89.55,56.85 M87.6,55.85c0.733-1.133,1.533-1.767,2.4-1.9c-1.067,0.067-1.95,0.633-2.65,1.7l-1.9,2.4
				C86.05,57.817,86.767,57.083,87.6,55.85"/>
			<path class="st0" d="M89.55,56.85L89.1,57.8l-1,0.95C88.567,57.95,89.05,57.317,89.55,56.85"/>
			<path class="st0" d="M86.2,11.5c0.033,0.5,0.317,0.85,0.85,1.05l1.55,0.4c0.467,0.933,0.7,1.8,0.7,2.6l-1.15-0.15l-0.75-0.55
				c0.467,0.533,0.667,1.167,0.6,1.9c-0.067,0.7-0.35,1.183-0.85,1.45c0.067,0.167,0.317,0.267,0.75,0.3
				c0.433,0.067,0.667,0.217,0.7,0.45c-0.033,0.233,0.033,0.383,0.2,0.45c-0.033,0.333-0.25,0.65-0.65,0.95
				c-0.433,0.3-0.683,0.55-0.75,0.75l0.45,2.4l-0.6,0.15c0.267-0.4,0.15-1.167-0.35-2.3c-0.033-0.367,0.133-0.65,0.5-0.85l0.7-0.6
				c-0.067-0.433-0.433-0.733-1.1-0.9l-1.55-0.55c0.1-0.1,0.533-0.35,1.3-0.75c0.533-0.267,0.817-0.65,0.85-1.15l-0.45-1.15
				c-0.167-0.467-0.167-0.817,0-1.05l0.85,0.1l0.6,0.4l-0.15-0.7c-0.133-0.233-0.167-0.483-0.1-0.75c-0.733,0.1-1.433-0.1-2.1-0.6
				c-0.7-0.567-0.883-1.25-0.55-2.05c0.433,0.033,0.867,0.217,1.3,0.55l1.1,0.65c0.067-0.6-0.283-1.25-1.05-1.95
				c-0.667-0.6-0.8-1.3-0.4-2.1c0,0.567,0.4,1.3,1.2,2.2c0.667,0.8,0.833,1.583,0.5,2.35l-1.25-0.3L86.2,11.5"/>
			<path class="st0" d="M90,53.95c-0.867,0.133-1.667,0.767-2.4,1.9c-0.833,1.233-1.55,1.967-2.15,2.2l1.9-2.4
				C88.05,54.583,88.933,54.017,90,53.95"/>
			<path class="st0" d="M86.65,73.4l0.95,0.25l-4.55,1.55c-1.767,0.5-2.8,1.417-3.1,2.75c-0.433,0.6-1.233,1.017-2.4,1.25
				l-3.15,0.45c-0.367-0.067,0.217-0.25,1.75-0.55c1.867-0.333,2.967-0.633,3.3-0.9c-0.067-0.733,0.117-1.317,0.55-1.75l1.4-0.9
				c-1.2-1.067-3.283-1.867-6.25-2.4c-0.167-0.033-0.267,0.117-0.3,0.45c0,0.333-0.15,0.433-0.45,0.3
				c0.5,0.367,1.233,0.517,2.2,0.45c-0.5,0.2-1.467,0.2-2.9,0c-1.433-0.167-2.4-0.167-2.9,0L70.7,74l0.1-0.35
				c1.233-1.167,3.167-1.4,5.8-0.7c1.433,0.367,3.35,1.083,5.75,2.15l2-0.8l2.05-0.65h0.25V73.4 M71.05,73.9l2-0.1
				c0.667-0.067,1.05-0.35,1.15-0.85C72.5,72.783,71.45,73.1,71.05,73.9"/>
			<path class="st0" d="M83.55,50.15l2.45,0.3c1.067,0.3,0.967,0.35-0.3,0.15c-0.8,0.167-1.433,0.083-1.9-0.25
				c-0.867,0.367-1.667,0.533-2.4,0.5C82.1,50.383,82.817,50.15,83.55,50.15"/>
			<path class="st0" d="M82.25,64.95c-0.9,1.767-2.233,2.1-4,1c2.067,0.833,3.333,0.333,3.8-1.5c0.5-1.833-0.233-2.967-2.2-3.4
				c1.4-0.233,2.233-0.75,2.5-1.55c0.233,0.233,0.15,0.533-0.25,0.9l-0.95,0.75C82.75,61.883,83.117,63.15,82.25,64.95"/>
			<path class="st0" d="M77.4,60.25l-0.1-0.05l-2.4-0.45l1.25,0.1C76.85,60.017,77.267,60.15,77.4,60.25"/>
			<path class="st1" d="M71.05,65.75l0.25,0.45l-0.05,0.45c-0.5,0.433-0.867,0.583-1.1,0.45L70,66.35
				C70.267,65.817,70.617,65.617,71.05,65.75"/>
			<path class="st0" d="M66.05,64.05l2.15-2.25c0.933-0.767,1.95-0.983,3.05-0.65C70.25,60.883,68.517,61.85,66.05,64.05"/>
			<path class="st0" d="M70.8,59c-0.933,0.267-1.6,0-2-0.8s-0.2-1.567,0.6-2.3c0.133,0.133,0.067,0.45-0.2,0.95
				c-0.3,0.567-0.4,1.05-0.3,1.45l1,0.3C70.367,58.7,70.667,58.833,70.8,59"/>
			<path class="st0" d="M60.9,21.55c-1,1.433-1.45,2.633-1.35,3.6c0.167,0.233,0.467,0.117,0.9-0.35c0.433-0.5,0.767-0.617,1-0.35
				L61.1,26.8c-0.133,0.833,0.15,1.333,0.85,1.5c0.3,0.033,0.483-0.15,0.55-0.55s0.283-0.533,0.65-0.4c0.6,0.9,0.583,1.833-0.05,2.8
				l-1.4,2.45l0.7,0.5l1,0.25c0.033,0.3-0.067,0.517-0.3,0.65l-0.7,0.3l0.55,1.35c0.2,0.533,0.183,0.967-0.05,1.3l-0.95-0.75
				c-0.333-0.333-0.733-0.483-1.2-0.45c-0.467,0.2-0.617,0.683-0.45,1.45c0.133,0.633,0.367,1.1,0.7,1.4l1.85-0.2l1.25-1.25
				c0.067,1.467-0.1,2.433-0.5,2.9c0.767,0.133,1.383,0.467,1.85,1c0.5,0.567,0.617,1.2,0.35,1.9l-0.95,0.25l-1.25-0.05
				c-0.167,0.2-0.2,0.45-0.1,0.75l0.1,0.95c-0.7-0.3-1.25-0.133-1.65,0.5c-0.5,0.7-1.067,1.017-1.7,0.95c-0.467,0-0.7-0.4-0.7-1.2
				c-0.433,0.433-1.083,0.583-1.95,0.45l-0.5-1c-0.2-0.4-0.583-0.533-1.15-0.4c-1.967,2.333-3.35,5.383-4.15,9.15
				c-0.933,4.233-0.633,7.667,0.9,10.3v0.05c-1.8-2.067-2.333-5.267-1.6-9.6c0.667-4.067,1.967-7.05,3.9-8.95
				c0-1.4,0.317-2.767,0.95-4.1c-1.067,0.367-2.25,1.867-3.55,4.5c-1.3,2.667-2.433,4.217-3.4,4.65c-0.067,0.2-0.233,0.167-0.5-0.1
				L48,49.4h0.25v-0.25l0.6,0.15l0.6,0.1l2.4-3.95c0.9-1.6,1.383-3.233,1.45-4.9c-0.433-0.033-0.717,0.233-0.85,0.8
				c-0.2,0.633-0.4,1-0.6,1.1c-1.067-0.467-1.417-1.333-1.05-2.6l1.3-2.9c-1.033,0.6-1.8,0.3-2.3-0.9c-0.5-1.167-0.133-2,1.1-2.5
				c-0.067,0.367,0,0.667,0.2,0.9L51.6,35c0.033-0.533,0.233-1.05,0.6-1.55c0.467-0.6,1.067-0.883,1.8-0.85
				c-0.067,0.533,0.017,1.1,0.25,1.7l1.2-1.95c-1.033-0.567-1.733-1.05-2.1-1.45c-0.7-0.767-0.717-1.55-0.05-2.35l0.5,0.2l0.65,0.4
				c0.433,0.3,0.817,0.483,1.15,0.55c-0.9-0.3-1.55-1.25-1.95-2.85c-0.4-1.7,0.05-2.733,1.35-3.1c0.533,1.1,1,1.733,1.4,1.9
				c-0.367-0.467-0.45-1.4-0.25-2.8c0.167-1.2-0.15-1.95-0.95-2.25c-0.333-0.133-0.633-0.017-0.9,0.35c-0.233,0.3-0.4,0.35-0.5,0.15
				l0.25-1.2l0.45-0.95l0.65-0.2l0.8-0.05c-0.133-1.367,0.1-2.483,0.7-3.35c0.633,0.133,0.883,0.533,0.75,1.2l1.55-1.15
				c0.633-0.5,1.233-0.6,1.8-0.3c0,0.533-0.2,1.133-0.6,1.8c-0.367,0.7-0.567,1.3-0.6,1.8l1.6,0.1l1.5-1.05
				C62.583,18.75,62,20.017,60.9,21.55 M56.45,18l0.45,1.9c-0.367,0.067-0.65-0.017-0.85-0.25l-0.6-0.5
				c-0.3,0.033-0.55,0.15-0.75,0.35l-0.45,0.65l0.5,0.05l0.95-0.05c0.567,0.4,0.933,1.4,1.1,3c0.133,1.4,0.083,2.4-0.15,3
				c-0.6,0.033-1.05-0.117-1.35-0.45l-0.55-1.25c-0.567,0.733-0.617,1.667-0.15,2.8l1.35,2.5l-1.4,0.1
				c-0.533-0.267-0.783-0.633-0.75-1.1c-0.6,0.633-0.5,1.25,0.3,1.85l1.85,1.55c-0.233,0.833-0.717,1.783-1.45,2.85
				c-0.633-0.167-0.867-0.717-0.7-1.65c-0.7-0.033-1.117,0.2-1.25,0.7l-0.2,1.45c-1.133,0.1-1.7-0.217-1.7-0.95
				c-0.333,0.167-0.467,0.467-0.4,0.9c0.033,0.333,0.167,0.667,0.4,1l1-0.05l0.95-0.2c0.1,0.8-0.117,1.617-0.65,2.45
				c-0.533,0.833-0.717,1.7-0.55,2.6l0.9-1.05c0.333-0.4,0.833-0.533,1.5-0.4c0.433,0.433,0.583,1.083,0.45,1.95l1-1.1
				c0.433-0.433,0.817-0.55,1.15-0.35c0,0.267,0.083,0.417,0.25,0.45l-0.5,0.75c-0.167,0.4-0.233,0.883-0.2,1.45
				c1.3,0.3,2.017,0.933,2.15,1.9l0.8-0.25c0.3-0.233,0.6-0.383,0.9-0.45l0.45,1.65l0.55-0.3l0.65-0.15l0.05-1.2l-0.05-1.45
				c0.633,0,0.95,0.317,0.95,0.95c0.167-0.467,0.6-0.767,1.3-0.9l1.85-0.3c-0.033-0.6-0.3-1.05-0.8-1.35
				c-0.333-0.2-0.867-0.383-1.6-0.55c-0.033-0.333,0.033-0.683,0.2-1.05l0.25-0.9l-1.3,0.55l-2.05-0.05l-0.35-1.55
				c-0.133-0.6-0.167-1.2-0.1-1.8l0.4-0.2l0.3-0.3l1.3,0.25l0.85,0.7l-0.75-1.35c-0.3-0.6-0.133-0.95,0.5-1.05
				c0-0.267-0.2-0.417-0.6-0.45L61,33.1c0-0.767,0.267-1.45,0.8-2.05l1.35-1.55L63,29.05l-0.1-0.5l-0.75,0.1L61,28.55l-0.3-1.7
				c-0.033-0.833,0.067-1.4,0.3-1.7c-0.167-0.1-0.467,0.083-0.9,0.55c-0.433,0.467-0.867,0.533-1.3,0.2
				c-0.167-1.333,0.133-2.517,0.9-3.55l1.75-2.7L60.2,19.6c-0.733,0-1.2-0.15-1.4-0.45c-0.133-0.767,0-1.467,0.4-2.1l0.8-1.7
				c-0.633-0.033-1.1,0.25-1.4,0.85l-0.75,1.55c-0.4,0.067-0.65-0.067-0.75-0.4l-0.2-1.05C56.467,16.6,56.317,17.167,56.45,18"/>
			<path class="st2" d="M59.2,17.05c-0.4,0.633-0.533,1.333-0.4,2.1c0.2,0.3,0.667,0.45,1.4,0.45l1.25,0.05l-1.75,2.7
				c-0.767,1.033-1.067,2.217-0.9,3.55c0.433,0.333,0.867,0.267,1.3-0.2c0.433-0.467,0.733-0.65,0.9-0.55
				c-0.233,0.3-0.333,0.867-0.3,1.7l0.3,1.7l1.15,0.1l0.75-0.1l0.1,0.5l0.15,0.45l-1.35,1.55c-0.533,0.6-0.8,1.283-0.8,2.05
				l0.8,0.25c0.4,0.033,0.6,0.183,0.6,0.45c-0.633,0.1-0.8,0.45-0.5,1.05l0.75,1.35l-0.85-0.7l-1.3-0.25l-0.3,0.3l-0.4,0.2
				c-0.067,0.6-0.033,1.2,0.1,1.8l0.35,1.55l2.05,0.05l1.3-0.55l-0.25,0.9c-0.167,0.367-0.233,0.717-0.2,1.05
				c0.733,0.167,1.267,0.35,1.6,0.55c0.5,0.3,0.767,0.75,0.8,1.35l-1.85,0.3c-0.7,0.133-1.133,0.433-1.3,0.9
				c0-0.633-0.317-0.95-0.95-0.95l0.05,1.45l-0.05,1.2L60.8,45.5l-0.55,0.3l-0.45-1.65c-0.3,0.067-0.6,0.217-0.9,0.45l-0.8,0.25
				c-0.133-0.967-0.85-1.6-2.15-1.9c-0.033-0.567,0.033-1.05,0.2-1.45l0.5-0.75c-0.167-0.033-0.25-0.183-0.25-0.45
				c-0.333-0.2-0.717-0.083-1.15,0.35l-1,1.1c0.133-0.867-0.017-1.517-0.45-1.95c-0.667-0.133-1.167,0-1.5,0.4l-0.9,1.05
				c-0.167-0.9,0.017-1.767,0.55-2.6c0.533-0.833,0.75-1.65,0.65-2.45l-0.95,0.2l-1,0.05c-0.233-0.333-0.367-0.667-0.4-1
				c-0.067-0.433,0.067-0.733,0.4-0.9c0,0.733,0.567,1.05,1.7,0.95l0.2-1.45c0.133-0.5,0.55-0.733,1.25-0.7
				c-0.167,0.933,0.067,1.483,0.7,1.65c0.733-1.067,1.217-2.017,1.45-2.85L54.1,30.6c-0.8-0.6-0.9-1.217-0.3-1.85
				c-0.033,0.467,0.217,0.833,0.75,1.1l1.4-0.1l-1.35-2.5c-0.467-1.133-0.417-2.067,0.15-2.8l0.55,1.25
				c0.3,0.333,0.75,0.483,1.35,0.45c0.233-0.6,0.283-1.6,0.15-3c-0.167-1.6-0.533-2.6-1.1-3l-0.95,0.05l-0.5-0.05l0.45-0.65
				c0.2-0.2,0.45-0.317,0.75-0.35l0.6,0.5c0.2,0.233,0.483,0.317,0.85,0.25L56.45,18c-0.133-0.833,0.017-1.4,0.45-1.7l0.2,1.05
				c0.1,0.333,0.35,0.467,0.75,0.4l0.75-1.55c0.3-0.6,0.767-0.883,1.4-0.85L59.2,17.05"/>
			<path class="st0" d="M61.7,61.65c1.5-1.4,2.617-1.967,3.35-1.7L63.3,60.6c-0.6,0.3-0.967,0.733-1.1,1.3
				c1.933-0.1,2.85,0.783,2.75,2.65c-0.1,1.8-1.267,2.267-3.5,1.4l-1,0.6l-1.15,0.4c0.267-0.533,0.117-0.9-0.45-1.1l-1.7-0.35
				c-0.267,0.067-0.4,0.233-0.4,0.5l-0.1,0.45c-0.3-0.333-0.967-0.75-2-1.25c-0.933-0.433-1.55-0.9-1.85-1.4l-0.1-0.2l-0.1-0.5
				c0.133-0.267,0.3-0.3,0.5-0.1c0.267,0.3,0.5,0.417,0.7,0.35l-0.15,0.1l0.15,0.1c1.133,1.167,2.767,1.867,4.9,2.1l5.65,0.1
				c0.567-0.867,0.433-1.683-0.4-2.45L61.7,61.65"/>
			<path class="st0" d="M57.5,75.35l0.35-0.5c-0.067-0.333-0.233-0.467-0.5-0.4L56.4,74.6c0.1-0.233,0.367-0.383,0.8-0.45
				c0.4-0.067,0.7,0,0.9,0.2c-0.1,0.733-0.417,1.217-0.95,1.45c-0.7-0.1-1.067-0.3-1.1-0.6c-0.067-0.333,0.217-0.217,0.85,0.35
				C57.2,75.65,57.4,75.583,57.5,75.35"/>
			<path class="st1" d="M55.95,41C55.317,42.333,55,43.7,55,45.1c-1.933,1.9-3.233,4.883-3.9,8.95c-0.733,4.333-0.2,7.533,1.6,9.6
				l-0.45,0.9C51.983,64.85,51.7,65,51.4,65c-0.733-0.167-1.25-0.667-1.55-1.5c-0.167-0.467-0.3-1.317-0.4-2.55l0.8,0.7
				c0.333,0.3,0.633,0.3,0.9,0c-1.133-0.133-1.667-1.133-1.6-3c0.067-2.1-0.117-3.333-0.55-3.7l-0.15,0.35
				c-0.4-0.9-0.617-1.583-0.65-2.05c-1.633-1.2-2.55-3.217-2.75-6.05c-0.233-3.433-0.667-5.667-1.3-6.7c1.467,0.667,2.4,2,2.8,4
				c0.533,2.733,0.967,4.367,1.3,4.9H48l0.5,0.65c0.267,0.267,0.433,0.3,0.5,0.1c0.967-0.433,2.1-1.983,3.4-4.65
				C53.7,42.867,54.883,41.367,55.95,41"/>
			<path class="st0" d="M25.7,29.25c0.6,0.5,0.983,1.383,1.15,2.65c0.167,1.333-0.05,2.283-0.65,2.85
				c-0.033,0.233,0.117,0.333,0.45,0.3L27.4,35c0.533-0.233,0.767-0.783,0.7-1.65c0.5,0.067,0.783,0.417,0.85,1.05l0.1,1.8l0.9,0.45
				c0.333,0.2,0.517,0.45,0.55,0.75c0.033,0.4-0.2,0.733-0.7,1c-0.5,0.233-0.75,0.55-0.75,0.95c-0.133,0.333,0,0.483,0.4,0.45
				c0.4-0.033,0.583,0.05,0.55,0.25c0.033,0.567-0.217,1.033-0.75,1.4l-1.15,1c-0.033,0.967,0.683,1.367,2.15,1.2
				c0.2,0.033,0.3-0.117,0.3-0.45l-0.05-0.75c0.8,0.433,1.383,1.1,1.75,2c0.367,0.933,0.35,1.867-0.05,2.8l1.2-0.45l1.2-0.5
				c0,0.967-0.167,1.6-0.5,1.9c1.367,0.433,2,1.4,1.9,2.9h-2.15l0.35,2c0.1,0.667-0.017,1.283-0.35,1.85
				c1.4,1.467,2.383,2.35,2.95,2.65c1.333,0.8,3,1.033,5,0.7c0.967,0.767,1.75,2.583,2.35,5.45c1.3-0.5,2.433-0.4,3.4,0.3
				c0.433-0.833,0.683-2.217,0.75-4.15l0.2-4.75l0.35,0.15L49,54.95c0.433,0.367,0.617,1.6,0.55,3.7c-0.067,1.867,0.467,2.867,1.6,3
				c-0.267,0.3-0.567,0.3-0.9,0l-0.8-0.7c0.1,1.233,0.233,2.083,0.4,2.55c0.3,0.833,0.817,1.333,1.55,1.5
				c0.3,0,0.583-0.15,0.85-0.45l0.45-0.9l0.1,0.15l-0.35,0.95c-0.2,0.3-0.483,0.467-0.85,0.5c-1.433-0.2-2.217-1.45-2.35-3.75
				c0.1-2.8,0.017-4.75-0.25-5.85c0.167,0.967,0.067,3.15-0.3,6.55c-0.3,2.667-0.05,4.567,0.75,5.7
				c-0.233-0.033-0.433-0.233-0.6-0.6l-0.6-0.6c-0.5,0.1-0.85,0.517-1.05,1.25c-0.133,0.5-0.183,1.033-0.15,1.6
				c-0.5-0.767-0.417-1.617,0.25-2.55c0.667-1,0.833-1.9,0.5-2.7l-3.15-0.05c-1.1,0.067-1.9,0.4-2.4,1l2.3,0.15
				c0.667,0.2,1.017,0.633,1.05,1.3l-0.55-0.75c-0.233-0.3-0.517-0.45-0.85-0.45H38l-6.65-0.7l7.3,0.2c0.333-0.6,0.333-1.3,0-2.1
				l-0.95-1.75c-0.733-0.1-2.183-0.967-4.35-2.6c-1.6-1.2-3.183-1.367-4.75-0.5l-1.7-2.65l-0.65,0.7l-1.05,0.25
				c-0.333-0.2-0.483-0.583-0.45-1.15c0.033-0.5,0.183-0.917,0.45-1.25l-1.05,0.3l-1.1,0.2c-0.467-0.233-0.867-0.65-1.2-1.25
				c-0.367-0.633-0.45-1.183-0.25-1.65l0.8,0.3c0.267,0.2,0.567,0.267,0.9,0.2c0.467-0.2,0.7-0.833,0.7-1.9l-0.2-0.5l-1.25,0.05
				l-1.15,0.2c-0.2-0.333-0.267-0.717-0.2-1.15l0.2-1.25c-0.033-0.333-0.317-0.5-0.85-0.5H19.2c0.067-0.833,0.5-1.417,1.3-1.75
				l2.55,0.1c0.167-0.2-0.1-0.533-0.8-1s-0.917-0.867-0.65-1.2c0.2-0.167,0.417-0.167,0.65,0l0.8,0.25
				c-0.1-0.533-0.967-1.767-2.6-3.7c-1.167-1.367-1.25-2.85-0.25-4.45c0.267,0.167,0.4,0.483,0.4,0.95
				c0.033,0.467,0.217,0.783,0.55,0.95c0.633-0.7,0.783-1.617,0.45-2.75l-1.35-3.25c-1.267-2.867-0.817-5.017,1.35-6.45
				c0.133,2.033,0.35,3.467,0.65,4.3c0.567,1.767,1.55,2.417,2.95,1.95c0.2-0.067,0.3-0.35,0.3-0.85
				C25.467,29.6,25.533,29.317,25.7,29.25 M21.6,25.4c-1.533,1.4-1.75,3.4-0.65,6c1.233,2.9,1.533,4.9,0.9,6l-0.9,0.15l-0.75-0.4
				c-0.133,1.067,0.083,1.9,0.65,2.5c0.367,0.4,1.017,0.767,1.95,1.1l0.75,3.15c-0.4,0.3-0.65,0.3-0.75,0
				c-0.167,0.133-0.067,0.333,0.3,0.6c0.433,0.333,0.583,0.683,0.45,1.05l-1.8,0.2c-0.9-0.167-1.5,0.017-1.8,0.55
				c0.067,0.2,0.383,0.283,0.95,0.25c0.567-0.033,0.883,0.033,0.95,0.2l0.1,1.05l-0.1,1.15l1.3,0.25
				c0.667,0.133,1.117,0.367,1.35,0.7l-0.15,1.4C24.117,51.867,24,52.283,24,52.55c-0.833,0.367-1.467,0.283-1.9-0.25
				c-0.1,0.733,0.283,1.2,1.15,1.4l2.2-0.2c0.2,0.1,0.233,0.467,0.1,1.1c-0.167,0.667-0.117,1.1,0.15,1.3l0.65-0.65
				c0.2-0.433,0.383-0.7,0.55-0.8c0.467,0.2,0.867,0.667,1.2,1.4c0.4,0.933,0.717,1.5,0.95,1.7c0.5-0.433,1.067-0.583,1.7-0.45
				l1.65,0.25c0.033-0.4-0.183-0.667-0.65-0.8C31.25,56.383,31,56.167,31,55.9c0-0.333,0.3-0.883,0.9-1.65
				c0.567-0.7,1.083-1.233,1.55-1.6c-0.267-0.767-0.217-1.45,0.15-2.05h1.95l-0.65-1.25c-0.333-0.4-0.833-0.533-1.5-0.4
				c-0.067-0.267-0.05-0.533,0.05-0.8l0.15-0.65l-0.8,0.1l-1.1-0.1c0.367-0.7,0.417-1.367,0.15-2L31,43.65
				c-0.6,0.533-1.333,0.65-2.2,0.35c-0.933-0.3-1.333-0.9-1.2-1.8c0.067-0.4,0.3-0.717,0.7-0.95l1-0.7l-0.6-0.7
				c-0.3-0.267-0.417-0.6-0.35-1l0.75-0.7c0.267-0.267,0.567-0.433,0.9-0.5c-0.033-0.3-0.25-0.517-0.65-0.65l-1-0.3v-1.45l-1,0.15
				l-1.65,0.1l0.6-2.25c0.233-0.833,0.117-1.533-0.35-2.1c-1.467,1.033-2.783,0.767-3.95-0.8C20.833,28.783,20.7,27.133,21.6,25.4
				 M32.75,54.1L33,53.9l-0.35,0.05L32.75,54.1l-1.3,1.55l0.75,0.5l0.1-0.25c-0.1-0.133-0.217-0.217-0.35-0.25
				c0.167-0.133,0.433,0.017,0.8,0.45c0.467,0.5,0.833,0.75,1.1,0.75l-0.6,0.05l-0.6-0.55c0.333,0.633,0.917,1.35,1.75,2.15
				l1.85,1.95c1.4-0.067,2.4,0.567,3,1.9c0.633,1.433,1.4,2.167,2.3,2.2l1.25-0.25l1.35-0.55c-0.4-0.367-0.85-1.183-1.35-2.45
				c-0.5-1.333-0.917-2.183-1.25-2.55c-2,0.4-3.8,0.05-5.4-1.05C35.117,57,33.983,55.8,32.75,54.1 M33.9,52.55
				c0.133-0.3-0.017-0.267-0.45,0.1l0.15,0.6L33.9,52.55 M33.6,53.25L33,53.9l0.4,0.55C33.633,54.083,33.7,53.683,33.6,53.25"/>
			<path class="st0" d="M52.35,70.55L51.5,70.5l-0.85-0.7c-0.133-0.267,0.05-0.233,0.55,0.1L52.35,70.55"/>
			<path class="st1" d="M41.4,76.4c3.7-2.1,6.15-1.983,7.35,0.35L46.9,77.5l-1.75,0.9l-1.95-0.9C42.4,77.167,41.8,76.8,41.4,76.4"/>
			<path class="st1" d="M32.65,56.35l0.6,0.55l0.6-0.05c-0.267,0-0.633-0.25-1.1-0.75c-0.367-0.433-0.633-0.583-0.8-0.45
				c0.133,0.033,0.25,0.117,0.35,0.25l-0.1,0.25l-0.75-0.5l1.3-1.55c1.233,1.7,2.367,2.9,3.4,3.6c1.6,1.1,3.4,1.45,5.4,1.05
				c0.333,0.367,0.75,1.217,1.25,2.55c0.5,1.267,0.95,2.083,1.35,2.45L42.8,64.3l-1.25,0.25c-0.9-0.033-1.667-0.767-2.3-2.2
				c-0.6-1.333-1.6-1.967-3-1.9L34.4,58.5C33.567,57.7,32.983,56.983,32.65,56.35"/>
			<path class="st1" d="M38.05,70.9c-0.067,0.367-0.333,0.667-0.8,0.9l-1.1,0.5l-0.85-0.35c-0.167-0.267-0.183-0.6-0.05-1
				c0.367-0.467,0.867-0.733,1.5-0.8C37.417,70.083,37.85,70.333,38.05,70.9"/>
			<path class="st3" d="M22,30.35c1.167,1.567,2.483,1.833,3.95,0.8c0.467,0.567,0.583,1.267,0.35,2.1l-0.6,2.25l1.65-0.1l1-0.15
				v1.45l1,0.3c0.4,0.133,0.617,0.35,0.65,0.65c-0.333,0.067-0.633,0.233-0.9,0.5l-0.75,0.7c-0.067,0.4,0.05,0.733,0.35,1l0.6,0.7
				l-1,0.7c-0.4,0.233-0.633,0.55-0.7,0.95c-0.133,0.9,0.267,1.5,1.2,1.8c0.867,0.3,1.6,0.183,2.2-0.35l0.85,1.85
				c0.267,0.633,0.217,1.3-0.15,2l1.1,0.1l0.8-0.1l-0.15,0.65c-0.1,0.267-0.117,0.533-0.05,0.8c0.667-0.133,1.167,0,1.5,0.4
				l0.65,1.25H33.6c-0.367,0.6-0.417,1.283-0.15,2.05c-0.467,0.367-0.983,0.9-1.55,1.6c-0.6,0.767-0.9,1.317-0.9,1.65
				c0,0.267,0.25,0.483,0.75,0.65c0.467,0.133,0.683,0.4,0.65,0.8l-1.65-0.25c-0.633-0.133-1.2,0.017-1.7,0.45
				c-0.233-0.2-0.55-0.767-0.95-1.7c-0.333-0.733-0.733-1.2-1.2-1.4c-0.167,0.1-0.35,0.367-0.55,0.8L25.7,55.9
				c-0.267-0.2-0.317-0.633-0.15-1.3c0.133-0.633,0.1-1-0.1-1.1l-2.2,0.2c-0.867-0.2-1.25-0.667-1.15-1.4
				c0.433,0.533,1.067,0.617,1.9,0.25c0-0.267,0.117-0.683,0.35-1.25l0.15-1.4c-0.233-0.333-0.683-0.567-1.35-0.7l-1.3-0.25
				l0.1-1.15l-0.1-1.05c-0.067-0.167-0.383-0.233-0.95-0.2c-0.567,0.033-0.883-0.05-0.95-0.25c0.3-0.533,0.9-0.717,1.8-0.55l1.8-0.2
				c0.133-0.367-0.017-0.717-0.45-1.05c-0.367-0.267-0.467-0.467-0.3-0.6c0.1,0.3,0.35,0.3,0.75,0l-0.75-3.15
				c-0.933-0.333-1.583-0.7-1.95-1.1c-0.567-0.6-0.783-1.433-0.65-2.5l0.75,0.4l0.9-0.15c0.633-1.1,0.333-3.1-0.9-6
				c-1.1-2.6-0.883-4.6,0.65-6C20.7,27.133,20.833,28.783,22,30.35"/>
			<path class="st0" d="M33.45,52.65c0.433-0.367,0.583-0.4,0.45-0.1l-0.3,0.7L33.45,52.65"/>
			<path class="st0" d="M33,53.9l-0.25,0.2l-0.1-0.15L33,53.9"/>
			<path class="st0" d="M28.6,67.1c-0.567,0.3-0.9,0.717-1,1.25l2.25-1c1.167-0.4,2.183-0.3,3.05,0.3
				c-1.967-0.133-3.833,0.4-5.6,1.6c-2.233,1.467-3.8,2.3-4.7,2.5L22,73c-0.267,0.533-0.317,0.917-0.15,1.15
				c0.333-0.567,0.983-1.033,1.95-1.4c-0.333,0.6-1.083,1.167-2.25,1.7l-0.5-0.05l-0.1-0.3c0.967-0.667,1.35-1.533,1.15-2.6
				l2.6-1.35c1.1-0.7,1.917-1.217,2.45-1.55c-0.1-0.033-0.167-0.2-0.2-0.5c-0.033-0.267-0.133-0.417-0.3-0.45
				c1.033-1.5,2.517-2.433,4.45-2.8l-3.95,2.8c0.3-0.033,0.817-0.317,1.55-0.85c0.633-0.467,1.15-0.583,1.55-0.35L28.6,67.1
				 M29.85,70.9c-1.567,1.167-3.567,1.767-6,1.8c0.5-0.233,1.117-0.433,1.85-0.6L29.85,70.9"/>
			<path class="st0" d="M27.15,75.35c-0.1,0.533-0.717,1.133-1.85,1.8l-2.5,1.8c0.133-0.467,0.767-1.05,1.9-1.75
				C26.033,76.4,26.85,75.783,27.15,75.35"/>
			<path class="st0" d="M21.55,74.45l-0.45,0.2l-0.05-0.25L21.55,74.45"/>
			<path class="st0" d="M18.7,77.25l-1.15,0.95H17.3v0.25l-1.55,0.8v-0.8c0.3-0.133,0.817-0.3,1.55-0.5c0-0.933,0.367-1.7,1.1-2.3
				l2.2-1.3l0.45,0.05l0.05,0.25c-1.067,0.467-1.783,0.85-2.15,1.15C18.317,76.267,18,76.833,18,77.5l1-0.9
				c0.467-0.3,0.783-0.4,0.95-0.3L18.7,77.25"/>
			<path class="st0" d="M20.95,74.1l0.1,0.3l-0.45-0.05L20.95,74.1"/>
			<path class="st0" d="M10.8,59c-0.3,0.1-0.567,0.267-0.8,0.5l-0.6,0.7c-0.567,0.067-0.817-0.167-0.75-0.7
				c-0.533,0.167-0.767,0.967-0.7,2.4c-0.6-0.167-1.05-0.017-1.35,0.45c-0.333,0.6-0.6,0.933-0.8,1c-0.7-0.333-1.183-0.733-1.45-1.2
				c-0.5,0.533-0.783,1.367-0.85,2.5c-0.033,1,0.083,1.833,0.35,2.5c0.233,0.8-0.217,1.1-1.35,0.9c-1.1-0.2-1.767-0.567-2-1.1
				C0.633,67.483,0.95,68,1.45,68.5l1.2,1.3c-0.967,0.067-1.683,0.383-2.15,0.95l1.05,0.15l1.1,0.1L2.3,71.95
				c-0.167,0.367-0.2,0.767-0.1,1.2l1.4-1.4l0.75,0.2c0.333,0.8,0.333,1.6,0,2.4c0.4-0.067,0.717-0.383,0.95-0.95
				c0.267-0.667,0.5-1.067,0.7-1.2c0.267,0.067,0.517,0.233,0.75,0.5l0.45,0.7c1.933-1.5,2.333-2.933,1.2-4.3l1.25,0.1l0.45-0.85
				c0.2,0.033,0.283,0.267,0.25,0.7c0,0.467,0.083,0.717,0.25,0.75l0.7-0.7l0.7-0.75c-0.533-1-0.45-1.867,0.25-2.6
				c0.467-0.067,0.917,0.033,1.35,0.3c0.5,0.3,0.933,0.433,1.3,0.4l0.7-0.3c0.167-0.267,0.333-0.4,0.5-0.4l-0.95-0.5
				c-0.3-0.233-0.467-0.55-0.5-0.95c0.033-0.6,0.517-1,1.45-1.2c-0.033-0.2-0.217-0.283-0.55-0.25h-0.9
				c0.267-0.533,0.333-1.133,0.2-1.8L14.2,59.5c-0.1,0.967-0.45,1.6-1.05,1.9l-2.35,0.25C11.067,61.15,11.067,60.267,10.8,59
				 M12.15,61.1c0.233-0.033,0.433,0.067,0.6,0.3c0.6-0.2,0.85-0.767,0.75-1.7L13,57.55l1.65,1.8c0.533,0.8,0.783,1.733,0.75,2.8
				c0.033,0.167,0.267,0.25,0.7,0.25l0.7,0.2c0,0.367-0.35,0.783-1.05,1.25c-0.567,0.367-0.617,0.75-0.15,1.15
				c0.3,0.067,0.55-0.05,0.75-0.35c0.2-0.267,0.433-0.383,0.7-0.35c0.033,1.133-0.467,1.917-1.5,2.35
				c-1.033,0.433-1.967,0.283-2.8-0.45l-0.55,2.1c-0.2,0.833-0.5,1.5-0.9,2c0.567,0.767,2.233,1.333,5,1.7c2.6,0.3,4.15,1,4.65,2.1
				l-0.35,0.25l-1.85-0.2L18.1,73.1l-0.95-0.75c-1.2,0.5-2.617,0.5-4.25,0c-1.733-0.533-2.667-1.383-2.8-2.55l-0.55-0.05l-0.4-0.2
				c-0.1,0.767,0.167,1.633,0.8,2.6l1.85,2.2c0.967-0.733,2.167-0.8,3.6-0.2c0.267,0.4,0.4,1.05,0.4,1.95l-0.05,2.35l-0.3,0.15
				l-0.2-1.85l-0.1-1.65c-0.167-0.5-0.683-0.75-1.55-0.75c-0.867,0.033-1.4,0.283-1.6,0.75c-0.567-0.167-1.1-0.617-1.6-1.35
				c-0.6-0.833-1.1-1.35-1.5-1.55l-0.75,0.95L7.2,73.9l-0.6-0.45L6,72.95c-0.567,1.467-1.767,2.267-3.6,2.4l1.3-1.25
				c0.333-0.533,0.383-1.167,0.15-1.9c-0.433,0.067-0.783,0.317-1.05,0.75l-0.6,1.2c-0.467-0.167-0.7-0.567-0.7-1.2
				c0-0.533,0.15-1.017,0.45-1.45l-0.9-0.1L0,71.25c0-0.967,0.483-1.533,1.45-1.7C0.483,68.517,0,67.4,0,66.2
				c0.4,0.1,1.05,0.45,1.95,1.05l1.9-0.1c-0.767-0.433-1.1-1.333-1-2.7c0.1-1.367,0.517-2.383,1.25-3.05
				c0.367-0.033,0.65,0.133,0.85,0.5c0.2,0.433,0.4,0.667,0.6,0.7c0.367-0.067,0.583-0.317,0.65-0.75c0.067-0.367,0-0.75-0.2-1.15
				l0.75,0.1l0.7,0.6c-0.1-1.2,0.3-2.083,1.2-2.65c0.333,0.1,0.5,0.35,0.5,0.75l0.4-0.3C9.683,59,9.867,58.933,10.1,59L10,58.15
				c-0.1-0.233-0.067-0.433,0.1-0.6c0.567,0.167,0.95,0.6,1.15,1.3l0.3,2.1L12.15,61.1"/>
			<path class="st1" d="M19.75,79.1L20,79.35c-0.033,1-0.3,2.233-0.8,3.7L18,86.6c-2,1.667-4.35,2.967-7.05,3.9
				c-2.1,0.7-4.767,1.3-8,1.8c0.533-0.767,1.867-1.85,4-3.25c1.867-1.267,3.05-2.567,3.55-3.9c0.8,0.067,1.467-0.167,2-0.7v0.25
				l1.55-0.3l1.55,0.3c0.133,0.533-0.15,1.2-0.85,2c-0.533,0.567-0.483,1.017,0.15,1.35c-0.233-0.333-0.167-0.783,0.2-1.35l1-1.55
				c0-0.467-0.25-0.783-0.75-0.95l-1.4-0.25l0.7-4.05c0.467-0.333,0.833-0.55,1.1-0.65l1.55-0.8V78.2l1.25,0.45L19.75,79.1"/>
			<path class="st1" d="M18.75,74.15l1.85,0.2l-2.2,1.3c-0.733,0.6-1.1,1.367-1.1,2.3c-0.733,0.2-1.25,0.367-1.55,0.5l0.05-2.35
				c0-0.9-0.133-1.55-0.4-1.95c-1.433-0.6-2.633-0.533-3.6,0.2l-1.85-2.2c-0.633-0.967-0.9-1.833-0.8-2.6l0.4,0.2l0.55,0.05
				c0.133,1.167,1.067,2.017,2.8,2.55c1.633,0.5,3.05,0.5,4.25,0l0.95,0.75L18.75,74.15"/>
			<path class="st3" d="M14.85,61.05c0.133,0.667,0.067,1.267-0.2,1.8h0.9c0.333-0.033,0.517,0.05,0.55,0.25
				c-0.933,0.2-1.417,0.6-1.45,1.2c0.033,0.4,0.2,0.717,0.5,0.95l0.95,0.5c-0.167,0-0.333,0.133-0.5,0.4l-0.7,0.3
				c-0.367,0.033-0.8-0.1-1.3-0.4c-0.433-0.267-0.883-0.367-1.35-0.3c-0.7,0.733-0.783,1.6-0.25,2.6l-0.7,0.75l-0.7,0.7
				c-0.167-0.033-0.25-0.283-0.25-0.75c0.033-0.433-0.05-0.667-0.25-0.7L9.65,69.2L8.4,69.1c1.133,1.367,0.733,2.8-1.2,4.3
				l-0.45-0.7C6.517,72.433,6.267,72.267,6,72.2c-0.2,0.133-0.433,0.533-0.7,1.2c-0.233,0.567-0.55,0.883-0.95,0.95
				c0.333-0.8,0.333-1.6,0-2.4l-0.75-0.2l-1.4,1.4c-0.1-0.433-0.067-0.833,0.1-1.2L2.65,71l-1.1-0.1L0.5,70.75
				c0.467-0.567,1.183-0.883,2.15-0.95l-1.2-1.3c-0.5-0.5-0.817-1.017-0.95-1.55c0.233,0.533,0.9,0.9,2,1.1
				c1.133,0.2,1.583-0.1,1.35-0.9c-0.267-0.667-0.383-1.5-0.35-2.5c0.067-1.133,0.35-1.967,0.85-2.5
				c0.267,0.467,0.75,0.867,1.45,1.2c0.2-0.067,0.467-0.4,0.8-1c0.3-0.467,0.75-0.617,1.35-0.45c-0.067-1.433,0.167-2.233,0.7-2.4
				c-0.067,0.533,0.183,0.767,0.75,0.7l0.6-0.7c0.233-0.233,0.5-0.4,0.8-0.5c0.267,1.267,0.267,2.15,0,2.65l2.35-0.25
				c0.6-0.3,0.95-0.933,1.05-1.9L14.85,61.05"/>
			<path class="st0" d="M15.75,78.45v0.8l-0.3-0.65L15.75,78.45"/>
			<path class="st0" d="M15.75,79.25c-0.267,0.1-0.633,0.317-1.1,0.65l-0.7,4.05l1.4,0.25c0.5,0.167,0.75,0.483,0.75,0.95l-1,1.55
				c-0.367,0.567-0.433,1.017-0.2,1.35c-0.633-0.333-0.683-0.783-0.15-1.35c0.7-0.8,0.983-1.467,0.85-2l-1.55-0.3l-1.55,0.3v-0.25
				h-0.25c0.5-0.467,0.867-1.15,1.1-2.05c0.267-0.933,0.3-1.767,0.1-2.5l2-1.3L15.75,79.25"/>
			<path class="st4" d="M35.3,71.95l0.85,0.35l1.1-0.5c0.467-0.233,0.733-0.533,0.8-0.9c-0.2-0.567-0.633-0.817-1.3-0.75
				c-0.633,0.067-1.133,0.333-1.5,0.8C35.117,71.35,35.133,71.683,35.3,71.95z"/>
			<path class="st5" d="M70,66.35l0.15,0.75c0.233,0.133,0.6-0.017,1.1-0.45l0.05-0.45l-0.25-0.45
				C70.617,65.617,70.267,65.817,70,66.35z"/>
			<path class="st6" d="M107.55,63.55l0.9-0.3l0.3-0.7c0.033-0.333-0.083-0.55-0.35-0.65c-0.367,0.067-0.633,0.283-0.8,0.65
				C107.4,62.917,107.383,63.25,107.55,63.55z"/>
			<path class="st7" d="M84.85,57.7l0.45,1.25l0.25,1.3c2.8,0.533,5.483,0.467,8.05-0.2c3.267-0.833,4.983-2.483,5.15-4.95
				c-1.6-2.267-4.183-3.033-7.75-2.3C87.5,53.5,85.45,55.133,84.85,57.7z"/>
			<path class="st8" d="M128.25,60.2l-0.15,1c-1.5-0.033-3.217,0.517-5.15,1.65l-5.2,3.25c-3.033,1.833-5.867,2.983-8.5,3.45
				c-3.267,0.6-5.617-0.017-7.05-1.85l-2.8-0.45c-1.167-0.133-2.067-0.383-2.7-0.75c-6.533-0.933-13.083-0.133-19.65,2.4l-0.35,0.65
				l5.15,1.7c2.033,0.667,3.633,1.467,4.8,2.4"/>
			<path class="st8" d="M132.5,49.65c1.2,0.767,1.783,1.95,1.75,3.55c0,1.567-0.567,2.8-1.7,3.7c-1.833,0.2-3.15,0.717-3.95,1.55
				v0.9l-0.3,0.85"/>
			<path class="st5" d="M53.65,63.45c0.767-0.267,1.833-0.883,3.2-1.85c1.267-0.733,2.417-0.867,3.45-0.4
				c-0.367-1.533,0.25-2.8,1.85-3.8c2.033-1.233,3.167-2.167,3.4-2.8c0.5-0.567,1.333-0.917,2.5-1.05l2.9-0.35
				c3.067-2.8,4.85-5.733,5.35-8.8c-0.733-1.533-0.8-3.35-0.2-5.45l1.45-5.4"/>
			<path class="st5" d="M48.85,55.3c-0.4-0.9-0.617-1.583-0.65-2.05c-1.633-1.2-2.55-3.217-2.75-6.05
				c-0.233-3.433-0.667-5.667-1.3-6.7c1.467,0.667,2.4,2,2.8,4c0.533,2.733,0.967,4.367,1.3,4.9"/>
			<path class="st8" d="M48.75,76.75c1.233-0.133,2.9,0.283,5,1.25c2.033,0.967,3.7,1.35,5,1.15c1.533-1.533,3.367-2.767,5.5-3.7
				c2.067-0.867,4.217-1.35,6.45-1.45"/>
			<path class="st6" d="M41.4,76.4c3.7-2.1,6.15-1.983,7.35,0.35"/>
			<path class="st7" d="M41.4,76.4c0.4,0.4,1,0.767,1.8,1.1l1.95,0.9l1.75-0.9l1.85-0.75"/>
			<path class="st4" d="M18,86.6l1.2-3.55c0.5-1.467,0.767-2.7,0.8-3.7l-0.25-0.25l-1.2-0.45L17.3,78.2"/>
			<path class="st9" d="M18,86.6c0.7-0.333,1.7-0.533,3-0.6c1.1-2.5,2.433-4.5,4-6c1.567-1.533,3.5-2.667,5.8-3.4
				c1.667-0.567,3.4-0.833,5.2-0.8l5.4,0.6"/>
			<path class="st7" d="M12.5,84.45c-0.533,0.533-1.2,0.767-2,0.7c-0.5,1.333-1.683,2.633-3.55,3.9c-2.133,1.4-3.467,2.483-4,3.25
				c3.233-0.5,5.9-1.1,8-1.8c2.7-0.933,5.05-2.233,7.05-3.9"/>
		</g>
		<g transform="matrix(1.0, 0.0, 0.0, 1.0, 0.0, -0.05)">
			<g id="shape0_1_" transform="matrix(1.0, 0.0, 0.0, 1.0, 0.0, 0.05)">
				<path class="st0" d="M126.95,38.9c1.5-0.967,2.867-1.3,4.1-1c2.3,1.367,3.5,2.25,3.6,2.65l1.95,0.2l1.65,0.5
					c0.233,0.867,0.783,2.1,1.65,3.7c0.633,1.533,0.733,3.017,0.3,4.45l-1.3,1c-0.567,0.367-0.933,0.75-1.1,1.15l0.85,0.2l1.3,0.05
					l1.95,1.7c0.6,0.733,0.833,1.683,0.7,2.85c0,0.333-0.067,0.2-0.2-0.4l-0.55-1.75l-1.15-1.1l-1-0.8h-2.4l0.5,1.35
					c0.3,0.8,0.367,1.55,0.2,2.25l-1.1,0.9l-1.3,0.75l-0.95,2.65c0.167-1.033,0.417-1.983,0.75-2.85l-4.1,1.45
					c-2.1,0.867-3.167,1.667-3.2,2.4l0.15-1h0.05c0.5-0.833,1.983-1.667,4.45-2.5l4.8-1.55c-0.233-1.833-0.65-3.267-1.25-4.3
					c-0.767-1.2-1.867-1.933-3.3-2.2h-0.5v0.5c-3.267-0.767-6.833,0.417-10.7,3.55c-2,1.6-3.533,2.65-4.6,3.15
					c-1.833,0.867-3.767,1.1-5.8,0.7c1.533,0.133,2.4-0.5,2.6-1.9c-0.4-0.333-0.9-0.583-1.5-0.75l-1.5-0.2l4.3-0.5
					c1.8-0.2,3.367-0.2,4.7,0l4.45-2.85c1.8-1.133,3.05-2.333,3.75-3.6c-1.933-3.133-3.3-5.067-4.1-5.8
					c0.7,0.267,1.333,0.883,1.9,1.85l1.45,2.25l1.65-1.6c0.633-0.667,0.967-1.417,1-2.25c-0.8-0.867-1.367-1.75-1.7-2.65
					L126.95,38.9 M128.4,39.35c0.667,0.433,1.4,1.467,2.2,3.1c-0.033,0.667-0.55,1.483-1.55,2.45c-0.867,0.8-1.15,1.667-0.85,2.6
					c0.6,0,1.617-0.4,3.05-1.2c1.4-0.8,2.617-1.2,3.65-1.2l0.2-2.2c0.033-0.767-0.117-1.4-0.45-1.9c-0.533,0-1.567-0.567-3.1-1.7
					L128.4,39.35 M130.6,48.2c-0.467-0.667-1.133-0.633-2,0.1c-0.833,0.7-1.217,1.233-1.15,1.6c0.433-0.433,1.233-0.633,2.4-0.6
					l2.4-0.35l-0.8-0.9C131.083,47.75,130.8,47.8,130.6,48.2 M135.15,41.25c0.4,0.333,0.533,0.967,0.4,1.9l-0.4,2.2
					c-0.3,0.233-1.017,0.417-2.15,0.55c-1.033,0.133-1.683,0.417-1.95,0.85l0.95,1c0.4,0.333,0.567,0.8,0.5,1.4
					c1.1-0.433,2.067-0.233,2.9,0.6l2.15,1.8l0.8-1.35c0.367-0.467,0.817-0.733,1.35-0.8c0.433-1.4,0.35-2.817-0.25-4.25
					c-0.867-1.467-1.417-2.6-1.65-3.4l-1.4-0.5C135.8,41.05,135.383,41.05,135.15,41.25 M115.2,54.7l-0.85,1.35
					c-0.333,0.633-0.45,1.067-0.35,1.3c0.867-1.167,2-2.133,3.4-2.9l-1.1,0.1L115.2,54.7"/>
				<path class="st1" d="M137.8,41.75c0.233,0.8,0.783,1.933,1.65,3.4c0.6,1.433,0.683,2.85,0.25,4.25
					c-0.533,0.067-0.983,0.333-1.35,0.8l-0.8,1.35l-2.15-1.8c-0.833-0.833-1.8-1.033-2.9-0.6c0.067-0.6-0.1-1.067-0.5-1.4l-0.95-1
					c0.267-0.433,0.917-0.717,1.95-0.85c1.133-0.133,1.85-0.317,2.15-0.55l0.4-2.2c0.133-0.933,0-1.567-0.4-1.9
					c0.233-0.2,0.65-0.2,1.25,0L137.8,41.75"/>
				<path class="st1" d="M133,49.65c1.433,0.267,2.533,1,3.3,2.2c0.6,1.033,1.017,2.467,1.25,4.3l-4.8,1.55
					c-2.467,0.833-3.95,1.667-4.45,2.5l0.3-0.85v-0.9c0.8-0.833,2.117-1.35,3.95-1.55c1.133-0.9,1.7-2.133,1.7-3.7
					c0.033-1.6-0.55-2.783-1.75-3.55H133"/>
				<path class="st1" d="M131.55,39.3c1.533,1.133,2.567,1.7,3.1,1.7c0.333,0.5,0.483,1.133,0.45,1.9l-0.2,2.2
					c-1.033,0-2.25,0.4-3.65,1.2c-1.433,0.8-2.45,1.2-3.05,1.2c-0.3-0.933-0.017-1.8,0.85-2.6c1-0.967,1.517-1.783,1.55-2.45
					c-0.8-1.633-1.533-2.667-2.2-3.1L131.55,39.3"/>
				<path class="st1" d="M130.6,48.2c0.2-0.4,0.483-0.45,0.85-0.15l0.8,0.9l-2.4,0.35c-1.167-0.033-1.967,0.167-2.4,0.6
					c-0.067-0.367,0.317-0.9,1.15-1.6C129.466,47.567,130.133,47.533,130.6,48.2"/>
				<path class="st0" d="M128.4,39.55l-1.75-0.5l0.3-0.15L128.4,39.55"/>
				<path class="st0" d="M119.8,47v2.15c-0.2-0.067-0.283-0.333-0.25-0.8v-1.1c-0.2-0.6-0.6-1-1.2-1.2
					c0.133-0.2,0.383-0.15,0.75,0.15L119.8,47"/>
				<path class="st1" d="M132.5,49.65v0.5c-3.267-0.767-6.833,0.417-10.7,3.55c-2,1.6-3.533,2.65-4.6,3.15
					c-1.833,0.867-3.767,1.1-5.8,0.7c1.533,0.133,2.4-0.5,2.6-1.9c-0.4-0.333-0.9-0.583-1.5-0.75l-1.5-0.2l4.3-0.5
					c1.8-0.2,3.367-0.2,4.7,0l4.45-2.85c1.8-1.133,3.05-2.333,3.75-3.6c-1.933-3.133-3.3-5.067-4.1-5.8
					c0.7,0.267,1.333,0.883,1.9,1.85l1.45,2.25l1.65-1.6c0.633-0.667,0.967-1.417,1-2.25c-0.8-0.867-1.367-1.75-1.7-2.65l-1.75-0.5
					l0.3-0.15c-1.467-0.867-3.017-2.333-4.65-4.4l-3.7-5l-6.6-0.05c-2.2,0.067-3.45,1.033-3.75,2.9c-0.967,0.467-2,1.467-3.1,3
					c-1.2,1.667-2.167,2.75-2.9,3.25c-0.6,0.433-1.9,0.95-3.9,1.55c-1.733,0.533-2.983,1.217-3.75,2.05l-0.2,2.15
					c-0.167,0.733-0.583,1.217-1.25,1.45c-0.667-0.667-1.533-0.867-2.6-0.6c-0.933,0.233-1.667,0.683-2.2,1.35
					c-0.267-0.333-0.917-0.667-1.95-1c-0.833,0.333-1.633,1.067-2.4,2.2c-0.9,0.067-2,0.567-3.3,1.5
					c-1.233,0.933-2.2,1.383-2.9,1.35c0.3-0.9,1.75-2.2,4.35-3.9c2.1-1.367,2.883-2.95,2.35-4.75c1.2-0.8,2.317-2.283,3.35-4.45
					c1.433-2.933,2.317-4.65,2.65-5.15c0.2,0.533,0.533,0.733,1,0.6l0.9-0.35v0.95l1.15-0.15l1.25-0.05c0.2-0.1,0.35-0.4,0.45-0.9
					c0.1-0.467,0.283-0.733,0.55-0.8c-0.1,0.733,0.217,1.133,0.95,1.2l0.75-2c0.167-0.833,0.15-1.45-0.05-1.85l0.95,0.2l1,0.05
					c0.9-1.133,1.05-2.167,0.45-3.1c-1.267,0.167-1.983-0.233-2.15-1.2l1-0.2l1.15-0.05c0.033-0.533-0.15-0.95-0.55-1.25l-1.1-0.7
					c0.167-0.867-0.2-1.367-1.1-1.5c-1.2-0.2-1.883-0.417-2.05-0.65c0.933-0.8,1.583-1.55,1.95-2.25c0.567-1.1,0.633-2.267,0.2-3.5
					c-0.233,0.067-0.483,0.417-0.75,1.05c-0.233,0.533-0.617,0.75-1.15,0.65l-0.6-0.85c-0.367-0.267-0.567-0.55-0.6-0.85
					c0.267-0.6,0.75-0.767,1.45-0.5v-1.9l-1.6-1.05l-1.3-1.35L94.6,8.1c0.733-0.867,0.967-1.733,0.7-2.6
					c-0.133,0.4-0.7,0.633-1.7,0.7l-0.2-0.35L93.15,5.5c-0.033-0.633,0.517-1.083,1.65-1.35c0.9-0.233,1.067-0.667,0.5-1.3L95,3.25
					l0.3,0.55l-0.85-0.65l-0.6-1l0.65-0.7c0.233-0.3,0.333-0.633,0.3-1c-0.5-0.1-0.95,0.017-1.35,0.35L92.4,1.4l-0.45-0.95
					c-0.167-0.433-0.483-0.6-0.95-0.5c0.2,0.7,0.283,1.433,0.25,2.2c-0.033,0.933-0.283,1.483-0.75,1.65l-0.45-0.5l-0.5-0.45
					L88.6,3.7c-0.333,0.4-0.417,0.917-0.25,1.55h-1.1c-0.367,0.033-0.567,0.2-0.6,0.5c0.267,0.133,0.383,0.367,0.35,0.7l-0.3,1.3
					l0.45-0.1c0.667,0.1,1.017-0.067,1.05-0.5l-0.35-1.2c0.767,0.067,1.167-0.083,1.2-0.45c-0.267-0.167-0.35-0.517-0.25-1.05
					c0.133-0.433,0.3-0.733,0.5-0.9L90,4.1l1,0.2l0.5-1.15l0.2-1.5c0.5,0.267,0.983,0.2,1.45-0.2c0.567-0.5,1.05-0.75,1.45-0.75
					l-0.75,0.8c-0.367,0.3-0.517,0.667-0.45,1.1c0.1,0.167,0.3,0.333,0.6,0.5l0.6,0.45c-1.7,0.7-2.267,1.667-1.7,2.9l2.15-0.25
					c-0.067,0.833-0.533,1.6-1.4,2.3c-0.967,0.8-1.533,1.483-1.7,2.05l1.7,1.4c0.633,0.567,1.017,1.217,1.15,1.95
					c-0.767-0.033-1.167,0.283-1.2,0.95c0.033,0.367,0.233,0.733,0.6,1.1c0.367,0.367,0.567,0.717,0.6,1.05
					c0.467,0.067,0.867-0.05,1.2-0.35c0.4-0.367,0.733-0.567,1-0.6c0.067,1-0.3,1.917-1.1,2.75c-0.9,1-1.417,1.767-1.55,2.3
					c0.233,0.267,0.8,0.45,1.7,0.55c0.9,0.1,1.45,0.317,1.65,0.65l-0.1,0.5c-0.1,0.167-0.15,0.317-0.15,0.45l0.85,0.35
					c0.4,0.1,0.6,0.3,0.6,0.6c-0.933-0.033-1.567,0.283-1.9,0.95c0.1,0.6,0.5,1.05,1.2,1.35l1.65,0.35
					c0.1,0.933-0.217,1.567-0.95,1.9l-0.95-0.3L97,28.55l0.1,1.95c0.033,0.8-0.25,1.35-0.85,1.65c-0.1-0.733-0.417-1.217-0.95-1.45
					c-0.1,0.133-0.217,0.533-0.35,1.2c-0.1,0.533-0.3,0.85-0.6,0.95L93.4,32.9l-0.5-0.05l0.05-1.1c0-0.467-0.183-0.667-0.55-0.6
					c-0.133,0.067-0.283,0.35-0.45,0.85c-0.167,0.4-0.417,0.6-0.75,0.6l-0.4-0.75l-0.3-0.45L90,32.15c-0.2-0.5-0.567-0.8-1.1-0.9
					c-0.567-0.1-1,0.117-1.3,0.65l-0.05-0.65L87.4,30.7c-0.4,0-0.767,0.15-1.1,0.45c-0.233,0.167-0.517,0.1-0.85-0.2
					c0.067,0.533-0.1,0.817-0.5,0.85c-0.4,0.067-0.717-0.067-0.95-0.4l-0.45,0.75l-0.5,0.7L82.5,32.3l-0.9-0.15
					c-0.233,0.133-0.283,0.383-0.15,0.75c0.167,0.367,0.15,0.583-0.05,0.65l-0.95,0.05l-0.75,0.2
					c-0.067-0.367-0.083-0.917-0.05-1.65c0.067-0.567,0-1.05-0.2-1.45c0,0.667-0.15,1.15-0.45,1.45l-0.6-1
					c-0.167-0.467-0.45-0.7-0.85-0.7l0.05,1c0,0.433-0.1,0.667-0.3,0.7c-0.1-0.2-0.5-0.283-1.2-0.25
					c-0.667,0.033-0.983-0.133-0.95-0.5c0.867,0.067,1.267-0.333,1.2-1.2l-0.95-1.1c-0.333-0.467-0.733-0.733-1.2-0.8
					c0.967,0.1,1.517-0.15,1.65-0.75c-0.5-0.433-0.7-1.033-0.6-1.8c0.1-0.733,0.383-1.333,0.85-1.8V26c0.1,0.7,0.417,1.067,0.95,1.1
					c0.633-0.167,1.05-0.683,1.25-1.55c0.233-0.867,0.133-1.55-0.3-2.05l0.65,0.55c0.233,0.3,0.5,0.433,0.8,0.4L80,22.5
					c0.3-0.7,0.833-1.017,1.6-0.95l-0.25,0.95l-0.2,1c0.667,0.467,1.3,0.7,1.9,0.7c0.2-0.033,0.433-0.2,0.7-0.5
					c0.267-0.267,0.517-0.417,0.75-0.45c-0.167,0.167-0.25,0.483-0.25,0.95s0.083,0.783,0.25,0.95c0.533-0.1,1.033-0.317,1.5-0.65
					l1.05-0.8l-0.6-0.65c-0.2-0.3-0.45-0.467-0.75-0.5c-0.1,0.267-0.067,0.717,0.1,1.35c0.033,0.5-0.317,0.767-1.05,0.8l0.05-1.85
					c-0.067-0.533-0.333-0.967-0.8-1.3c-0.067,0.8-0.283,1.4-0.65,1.8c-0.433,0.5-0.933,0.467-1.5-0.1
					c-0.033-0.367,0.033-0.75,0.2-1.15l0.3-1c-0.967-0.133-1.717,0.083-2.25,0.65L79,23.5c-0.1-0.267-0.367-0.45-0.8-0.55l-1.15-0.2
					L77.7,25c0.167,0.833,0.033,1.45-0.4,1.85c-0.5-0.267-0.783-0.75-0.85-1.45l-0.1-1.9c-0.7,0.3-1.183,0.9-1.45,1.8
					c-0.3,0.933-0.217,1.767,0.25,2.5h-1.1c-0.367,0.033-0.567,0.2-0.6,0.5L75,29.45c0.6,0.5,0.8,1,0.6,1.5
					c-0.333,0.033-0.617-0.083-0.85-0.35l-0.55-0.65c-0.333,0.8-0.1,1.517,0.7,2.15c0.767,0.567,1.567,0.733,2.4,0.5v0.95h0.25
					l-1.45,5.4c-0.6,2.1-0.533,3.917,0.2,5.45c-0.5,3.067-2.283,6-5.35,8.8l-2.9,0.35c-1.167,0.133-2,0.483-2.5,1.05
					c-0.233,0.633-1.367,1.567-3.4,2.8c-1.6,1-2.217,2.267-1.85,3.8c-1.033-0.467-2.183-0.333-3.45,0.4
					c-1.367,0.967-2.433,1.583-3.2,1.85l0.15,0.1c1.133,1.167,2.767,1.867,4.9,2.1l5.65,0.1c0.567-0.867,0.433-1.683-0.4-2.45
					l-2.25-1.65c1.5-1.4,2.617-1.967,3.35-1.7L63.3,60.6c-0.6,0.3-0.967,0.733-1.1,1.3c1.933-0.1,2.85,0.783,2.75,2.65
					c-0.1,1.8-1.267,2.267-3.5,1.4l-1,0.6l-1.15,0.4c0.267-0.533,0.117-0.9-0.45-1.1l-1.7-0.35c-0.267,0.067-0.4,0.233-0.4,0.5
					l-0.1,0.45c-0.3-0.333-0.967-0.75-2-1.25c-0.933-0.433-1.55-0.9-1.85-1.4l-0.35,0.95c-0.2,0.3-0.483,0.467-0.85,0.5
					c-1.433-0.2-2.217-1.45-2.35-3.75c0.1-2.8,0.017-4.75-0.25-5.85c0.167,0.967,0.067,3.15-0.3,6.55
					c-0.3,2.667-0.05,4.567,0.75,5.7c-0.233-0.033-0.433-0.233-0.6-0.6l-0.6-0.6c-0.5,0.1-0.85,0.517-1.05,1.25
					c-0.133,0.5-0.183,1.033-0.15,1.6c-0.5-0.767-0.417-1.617,0.25-2.55c0.667-1,0.833-1.9,0.5-2.7l-3.15-0.05
					c-1.1,0.067-1.9,0.4-2.4,1l2.3,0.15c0.667,0.2,1.017,0.633,1.05,1.3l-0.55-0.75c-0.233-0.3-0.517-0.45-0.85-0.45H38l-6.65-0.7
					l-0.25,0.05l-3.95,2.8c0.3-0.033,0.817-0.317,1.55-0.85c0.633-0.467,1.15-0.583,1.55-0.35L28.6,67.1
					c-0.567,0.3-0.9,0.717-1,1.25l2.25-1c1.167-0.4,2.183-0.3,3.05,0.3c-1.967-0.133-3.833,0.4-5.6,1.6
					c-2.233,1.467-3.8,2.3-4.7,2.5L22,73c-0.267,0.533-0.317,0.917-0.15,1.15c0.333-0.567,0.983-1.05,1.95-1.45l1.9-0.6l4.15-1.2
					c-1.567,1.167-3.583,1.767-6.05,1.8c-0.333,0.633-1.083,1.217-2.25,1.75l0.2,0.1l-0.65,0.1c-1.067,0.467-1.783,0.85-2.15,1.15
					C18.316,76.267,18,76.833,18,77.5l1-0.9c0.467-0.3,0.783-0.4,0.95-0.3l-1.25,0.95l-1.15,0.95H17.3l1.25,0.45l1.2,0.45L20,79.35
					c-0.033,1-0.3,2.233-0.8,3.7L18,86.6c0.7-0.333,1.7-0.533,3-0.6c1.1-2.5,2.433-4.5,4-6c1.567-1.533,3.5-2.667,5.8-3.4
					c1.667-0.567,3.4-0.833,5.2-0.8l5.4,0.6c3.7-2.1,6.15-1.983,7.35,0.35c1.233-0.133,2.9,0.283,5,1.25
					c2.033,0.967,3.7,1.35,5,1.15c1.533-1.533,3.367-2.767,5.5-3.7c2.067-0.867,4.217-1.35,6.45-1.45l0.1-0.35
					c1.233-1.167,3.167-1.4,5.8-0.7c1.433,0.367,3.35,1.083,5.75,2.15l2-0.8l2.05-0.65h0.25c-1.167-0.933-2.767-1.733-4.8-2.4
					l-5.15-1.7l0.35-0.65c6.567-2.533,13.117-3.333,19.65-2.4c0.633,0.367,1.533,0.617,2.7,0.75l2.8,0.45
					c1.433,1.833,3.783,2.45,7.05,1.85c2.633-0.467,5.467-1.617,8.5-3.45l5.2-3.25c1.933-1.133,3.65-1.683,5.15-1.65
					c-0.1-0.367-0.05-0.7,0.15-1h0.05l0.3-0.85v-0.9c0.8-0.833,2.117-1.35,3.95-1.55c1.133-0.9,1.7-2.133,1.7-3.7
					C134.283,51.6,133.7,50.417,132.5,49.65z M119.1,46.2l0.7,0.8v2.15c-0.2-0.067-0.283-0.333-0.25-0.8v-1.1
					c-0.2-0.6-0.6-1-1.2-1.2C118.483,45.85,118.733,45.9,119.1,46.2z M116.9,46.85c0.033,0.5,0.2,0.95,0.5,1.35l-0.8-0.5
					L116.9,46.85z M113.55,35.5c0.367-0.3,0.283,0.333-0.25,1.9C112.966,38.133,113.05,37.5,113.55,35.5z M78.35,39.55
					c0.4-2.167,1.017-4,1.85-5.5h0.95l0.7-0.25c0.233-0.067,0.267-0.25,0.1-0.55c-0.167-0.367-0.2-0.667-0.1-0.9
					c0.733,0.4,1.217,0.733,1.45,1c0.367-0.3,0.6-0.783,0.7-1.45l1.55,0.15c0.6-0.2,0.967-0.5,1.1-0.9l0.45,0.75
					c0.133,0.367,0.383,0.517,0.75,0.45c-0.433,0.633-0.9,1.75-1.4,3.35c-0.467,1.533-0.95,2.583-1.45,3.15
					c-0.233,0.267-0.733,0.55-1.5,0.85c-0.733,0.267-1.2,0.55-1.4,0.85L81,43.3c-0.433,1.033-1.167,1.633-2.2,1.8
					C78.033,43.967,77.883,42.117,78.35,39.55z M25.3,77.15l-2.5,1.8c0.133-0.467,0.767-1.05,1.9-1.75
					c1.333-0.8,2.15-1.417,2.45-1.85C27.05,75.883,26.433,76.483,25.3,77.15z M37.25,71.8l-1.1,0.5l-0.85-0.35
					c-0.167-0.267-0.183-0.6-0.05-1c0.367-0.467,0.867-0.733,1.5-0.8c0.667-0.067,1.1,0.183,1.3,0.75
					C37.983,71.267,37.716,71.567,37.25,71.8z M51.5,70.5l-0.85-0.7c-0.133-0.267,0.05-0.233,0.55,0.1l1.15,0.65L51.5,70.5z
					 M57.15,75.8c-0.7-0.1-1.067-0.3-1.1-0.6c-0.067-0.333,0.217-0.217,0.85,0.35c0.3,0.1,0.5,0.033,0.6-0.2l0.35-0.5
					c-0.067-0.333-0.233-0.467-0.5-0.4L56.4,74.6c0.1-0.233,0.367-0.383,0.8-0.45c0.4-0.067,0.7,0,0.9,0.2
					C58,75.083,57.683,75.567,57.15,75.8z M69.4,55.9c0.133,0.133,0.067,0.45-0.2,0.95c-0.3,0.567-0.4,1.05-0.3,1.45l1,0.3
					c0.467,0.1,0.767,0.233,0.9,0.4c-0.933,0.267-1.6,0-2-0.8C68.4,57.4,68.6,56.633,69.4,55.9z M68.2,61.8
					c0.933-0.767,1.95-0.983,3.05-0.65c-1-0.267-2.733,0.7-5.2,2.9L68.2,61.8z M71.25,66.65c-0.5,0.433-0.867,0.583-1.1,0.45
					L70,66.35c0.267-0.533,0.617-0.733,1.05-0.6l0.25,0.45L71.25,66.65z M91.5,49.2l3.3-1.45c0.167-0.667-0.067-1.067-0.7-1.2
					c0.133-0.3,0.333-0.367,0.6-0.2l0.6,0.4c-0.1,0.9-0.617,1.55-1.55,1.95l-2.65,0.7L91.5,49.2z M91,49.45l-0.85,1
					c-0.333,0.4-0.85,0.617-1.55,0.65C89.1,50.5,89.9,49.95,91,49.45z M82.25,64.95c-0.9,1.767-2.233,2.1-4,1
					c2.067,0.833,3.333,0.333,3.8-1.5c0.5-1.833-0.233-2.967-2.2-3.4c1.4-0.233,2.233-0.75,2.5-1.55
					c0.233,0.233,0.15,0.533-0.25,0.9l-0.95,0.75C82.75,61.883,83.117,63.15,82.25,64.95z M81.4,50.85c0.7-0.467,1.417-0.7,2.15-0.7
					l2.45,0.3c1.067,0.3,0.967,0.35-0.3,0.15c-0.8,0.167-1.433,0.083-1.9-0.25C82.933,50.717,82.133,50.883,81.4,50.85z M93.6,60.05
					c-2.567,0.667-5.25,0.733-8.05,0.2l-0.25-1.3l-0.45-1.25c0.6-2.567,2.65-4.2,6.15-4.9c3.567-0.733,6.15,0.033,7.75,2.3
					C98.583,57.567,96.867,59.217,93.6,60.05z M99.4,46.75l-0.042-0.017c0.005-0.004,0.008-0.008,0.013-0.012L99.4,46.75l1-0.2
					c0.333-0.133,0.55-0.133,0.65,0C100.383,46.95,99.833,47.017,99.4,46.75z M108.45,63.25l-0.9,0.3c-0.167-0.3-0.15-0.633,0.05-1
					c0.167-0.367,0.433-0.583,0.8-0.65c0.267,0.1,0.383,0.317,0.35,0.65L108.45,63.25z M108.75,41v1.15
					c-0.033,0.467,0.05,0.733,0.25,0.8c-0.8-0.2-0.833-1.167-0.1-2.9c0.233-0.6,0.383-0.85,0.45-0.75L108.75,41z"/>
				<path class="st1" d="M115.2,54.7l1.1-0.15l1.1-0.1c-1.4,0.767-2.533,1.733-3.4,2.9c-0.1-0.233,0.017-0.667,0.35-1.3L115.2,54.7"
					/>
				<path class="st0" d="M116.9,46.85c0.033,0.5,0.2,0.95,0.5,1.35l-0.4-0.25l-0.4-0.25L116.9,46.85"/>
				<path class="st0" d="M113.55,35.5c0.367-0.3,0.283,0.333-0.25,1.9C112.966,38.133,113.05,37.5,113.55,35.5"/>
				<path class="st0" d="M109,42.95c-0.8-0.2-0.833-1.167-0.1-2.9c0.233-0.6,0.383-0.85,0.45-0.75l-0.6,1.7v1.15
					C108.716,42.617,108.8,42.883,109,42.95"/>
				<path class="st1" d="M108.4,61.9c0.267,0.1,0.383,0.317,0.35,0.65l-0.3,0.7l-0.9,0.3c-0.167-0.3-0.15-0.633,0.05-1
					C107.766,62.183,108.033,61.967,108.4,61.9"/>
				<path class="st0" d="M99.4,46.75l1-0.2c0.333-0.133,0.55-0.133,0.65,0C100.383,46.95,99.833,47.017,99.4,46.75"/>
				<path class="st2" d="M91.7,1.65c0.5,0.267,0.983,0.2,1.45-0.2c0.567-0.5,1.05-0.75,1.45-0.75l-0.75,0.8
					c-0.367,0.3-0.517,0.667-0.45,1.1c0.1,0.167,0.3,0.333,0.6,0.5l0.6,0.45c-1.7,0.7-2.267,1.667-1.7,2.9l2.15-0.25
					c-0.067,0.833-0.533,1.6-1.4,2.3c-0.967,0.8-1.533,1.483-1.7,2.05l1.7,1.4c0.633,0.567,1.017,1.217,1.15,1.95
					c-0.767-0.033-1.167,0.283-1.2,0.95c0.033,0.367,0.233,0.733,0.6,1.1c0.367,0.367,0.567,0.717,0.6,1.05
					c0.467,0.067,0.867-0.05,1.2-0.35c0.4-0.367,0.733-0.567,1-0.6c0.067,1-0.3,1.917-1.1,2.75c-0.9,1-1.417,1.767-1.55,2.3
					c0.233,0.267,0.8,0.45,1.7,0.55s1.45,0.317,1.65,0.65l-0.1,0.5c-0.1,0.167-0.15,0.317-0.15,0.45l0.85,0.35
					c0.4,0.1,0.6,0.3,0.6,0.6c-0.933-0.033-1.567,0.283-1.9,0.95c0.1,0.6,0.5,1.05,1.2,1.35l1.65,0.35
					c0.1,0.933-0.217,1.567-0.95,1.9l-0.95-0.3L97,28.55l0.1,1.95c0.033,0.8-0.25,1.35-0.85,1.65c-0.1-0.733-0.417-1.217-0.95-1.45
					c-0.1,0.133-0.217,0.533-0.35,1.2c-0.1,0.533-0.3,0.85-0.6,0.95L93.4,32.9l-0.5-0.05l0.05-1.1c0-0.467-0.183-0.667-0.55-0.6
					c-0.133,0.067-0.283,0.35-0.45,0.85c-0.167,0.4-0.417,0.6-0.75,0.6l-0.4-0.75l-0.3-0.45L90,32.15c-0.2-0.5-0.567-0.8-1.1-0.9
					c-0.567-0.1-1,0.117-1.3,0.65l-0.05-0.65L87.4,30.7c-0.4,0-0.767,0.15-1.1,0.45c-0.233,0.167-0.517,0.1-0.85-0.2
					c0.067,0.533-0.1,0.817-0.5,0.85c-0.4,0.067-0.717-0.067-0.95-0.4l-0.45,0.75l-0.5,0.7L82.5,32.3l-0.9-0.15
					c-0.233,0.133-0.283,0.383-0.15,0.75c0.167,0.367,0.15,0.583-0.05,0.65l-0.95,0.05l-0.75,0.2
					c-0.067-0.367-0.083-0.917-0.05-1.65c0.067-0.567,0-1.05-0.2-1.45c0,0.667-0.15,1.15-0.45,1.45l-0.6-1
					c-0.167-0.467-0.45-0.7-0.85-0.7l0.05,1c0,0.433-0.1,0.667-0.3,0.7c-0.1-0.2-0.5-0.283-1.2-0.25
					c-0.667,0.033-0.983-0.133-0.95-0.5c0.867,0.067,1.267-0.333,1.2-1.2l-0.95-1.1c-0.333-0.467-0.733-0.733-1.2-0.8
					c0.967,0.1,1.517-0.15,1.65-0.75c-0.5-0.433-0.7-1.033-0.6-1.8c0.1-0.733,0.383-1.333,0.85-1.8V26c0.1,0.7,0.417,1.067,0.95,1.1
					c0.633-0.167,1.05-0.683,1.25-1.55c0.233-0.867,0.133-1.55-0.3-2.05l0.65,0.55c0.233,0.3,0.5,0.433,0.8,0.4L80,22.5
					c0.3-0.7,0.833-1.017,1.6-0.95l-0.25,0.95l-0.2,1c0.667,0.467,1.3,0.7,1.9,0.7c0.2-0.033,0.433-0.2,0.7-0.5
					c0.267-0.267,0.517-0.417,0.75-0.45c-0.167,0.167-0.25,0.483-0.25,0.95s0.083,0.783,0.25,0.95c0.533-0.1,1.033-0.317,1.5-0.65
					l1.05-0.8l0.1,0.05l0.1-0.1l0.6-0.15l-0.45-2.4c0.067-0.2,0.317-0.45,0.75-0.75c0.4-0.3,0.617-0.617,0.65-0.95
					c-0.167-0.067-0.233-0.217-0.2-0.45c-0.033-0.233-0.267-0.383-0.7-0.45c-0.433-0.033-0.683-0.133-0.75-0.3
					c0.5-0.267,0.783-0.75,0.85-1.45c0.067-0.733-0.133-1.367-0.6-1.9l0.75,0.55l1.15,0.15c0-0.8-0.233-1.667-0.7-2.6l-1.55-0.4
					c-0.533-0.2-0.817-0.55-0.85-1.05l0.9,0.65l1.25,0.3c0.333-0.767,0.167-1.55-0.5-2.35c-0.8-0.9-1.2-1.633-1.2-2.2l0.05-0.15
					l0.45-0.1c0.667,0.1,1.017-0.067,1.05-0.5l-0.35-1.2c0.767,0.067,1.167-0.083,1.2-0.45c-0.267-0.167-0.35-0.517-0.25-1.05
					c0.133-0.433,0.3-0.733,0.5-0.9L90,4.1l1,0.2l0.5-1.15L91.7,1.65"/>
				<path class="st0" d="M94.8,47.75c0.167-0.667-0.067-1.067-0.7-1.2c0.133-0.3,0.333-0.367,0.6-0.2l0.6,0.4
					c-0.1,0.9-0.617,1.55-1.55,1.95l-2.65,0.7l0.4-0.2L94.8,47.75 M88.6,51.1c0.5-0.6,1.3-1.15,2.4-1.65l-0.85,1
					C89.816,50.85,89.3,51.067,88.6,51.1"/>
				<path class="st1" d="M93.6,60.05c-2.567,0.667-5.25,0.733-8.05,0.2l-0.25-1.3l-0.45-1.25c0.6-2.567,2.65-4.2,6.15-4.9
					c3.567-0.733,6.15,0.033,7.75,2.3C98.583,57.567,96.866,59.217,93.6,60.05 M89.55,56.85c-0.5,0.467-0.983,1.1-1.45,1.9l1-0.95
					L89.55,56.85 M87.6,55.85c0.733-1.133,1.533-1.767,2.4-1.9c-1.067,0.067-1.95,0.633-2.65,1.7l-1.9,2.4
					C86.05,57.817,86.766,57.083,87.6,55.85"/>
				<path class="st0" d="M89.55,56.85L89.1,57.8l-1,0.95C88.566,57.95,89.05,57.317,89.55,56.85"/>
				<path class="st0" d="M86.2,11.5c0.033,0.5,0.317,0.85,0.85,1.05l1.55,0.4c0.467,0.933,0.7,1.8,0.7,2.6l-1.15-0.15l-0.75-0.55
					c0.467,0.533,0.667,1.167,0.6,1.9c-0.067,0.7-0.35,1.183-0.85,1.45c0.067,0.167,0.317,0.267,0.75,0.3
					c0.433,0.067,0.667,0.217,0.7,0.45c-0.033,0.233,0.033,0.383,0.2,0.45c-0.033,0.333-0.25,0.65-0.65,0.95
					c-0.433,0.3-0.683,0.55-0.75,0.75l0.45,2.4l-0.6,0.15c0.267-0.4,0.15-1.167-0.35-2.3c-0.033-0.367,0.133-0.65,0.5-0.85l0.7-0.6
					c-0.067-0.433-0.433-0.733-1.1-0.9l-1.55-0.55c0.1-0.1,0.533-0.35,1.3-0.75c0.533-0.267,0.817-0.65,0.85-1.15l-0.45-1.15
					c-0.167-0.467-0.167-0.817,0-1.05l0.85,0.1l0.6,0.4l-0.15-0.7c-0.133-0.233-0.167-0.483-0.1-0.75c-0.733,0.1-1.433-0.1-2.1-0.6
					c-0.7-0.567-0.883-1.25-0.55-2.05c0.433,0.033,0.867,0.217,1.3,0.55l1.1,0.65c0.067-0.6-0.283-1.25-1.05-1.95
					c-0.667-0.6-0.8-1.3-0.4-2.1c0,0.567,0.4,1.3,1.2,2.2c0.667,0.8,0.833,1.583,0.5,2.35l-1.25-0.3L86.2,11.5"/>
				<path class="st0" d="M90,53.95c-0.867,0.133-1.667,0.767-2.4,1.9c-0.833,1.233-1.55,1.967-2.15,2.2l1.9-2.4
					C88.05,54.583,88.933,54.017,90,53.95"/>
				<path class="st0" d="M86.65,73.4l0.95,0.25l-4.55,1.55c-1.767,0.5-2.8,1.417-3.1,2.75c-0.433,0.6-1.233,1.017-2.4,1.25
					l-3.15,0.45c-0.367-0.067,0.217-0.25,1.75-0.55c1.867-0.333,2.967-0.633,3.3-0.9c-0.067-0.733,0.117-1.317,0.55-1.75l1.4-0.9
					c-1.2-1.067-3.283-1.867-6.25-2.4c-0.167-0.033-0.267,0.117-0.3,0.45c0,0.333-0.15,0.433-0.45,0.3
					c0.5,0.367,1.233,0.517,2.2,0.45c-0.5,0.2-1.467,0.2-2.9,0c-1.433-0.167-2.4-0.167-2.9,0L70.7,74l0.1-0.35
					c1.233-1.167,3.167-1.4,5.8-0.7c1.433,0.367,3.35,1.083,5.75,2.15l2-0.8l2.05-0.65h0.25V73.4 M71.05,73.9l2-0.1
					c0.667-0.067,1.05-0.35,1.15-0.85C72.5,72.783,71.45,73.1,71.05,73.9"/>
				<path class="st0" d="M83.55,50.15l2.45,0.3c1.067,0.3,0.967,0.35-0.3,0.15c-0.8,0.167-1.433,0.083-1.9-0.25
					c-0.867,0.367-1.667,0.533-2.4,0.5C82.1,50.383,82.816,50.15,83.55,50.15"/>
				<path class="st0" d="M82.25,64.95c-0.9,1.767-2.233,2.1-4,1c2.067,0.833,3.333,0.333,3.8-1.5c0.5-1.833-0.233-2.967-2.2-3.4
					c1.4-0.233,2.233-0.75,2.5-1.55c0.233,0.233,0.15,0.533-0.25,0.9l-0.95,0.75C82.75,61.883,83.116,63.15,82.25,64.95"/>
				<path class="st0" d="M77.4,60.25l-0.1-0.05l-2.4-0.45l1.25,0.1C76.85,60.017,77.266,60.15,77.4,60.25"/>
				<path class="st1" d="M71.05,65.75l0.25,0.45l-0.05,0.45c-0.5,0.433-0.867,0.583-1.1,0.45L70,66.35
					C70.266,65.817,70.616,65.617,71.05,65.75"/>
				<path class="st0" d="M66.05,64.05l2.15-2.25c0.933-0.767,1.95-0.983,3.05-0.65C70.25,60.883,68.516,61.85,66.05,64.05"/>
				<path class="st0" d="M70.8,59c-0.933,0.267-1.6,0-2-0.8s-0.2-1.567,0.6-2.3c0.133,0.133,0.067,0.45-0.2,0.95
					c-0.3,0.567-0.4,1.05-0.3,1.45l1,0.3C70.366,58.7,70.666,58.833,70.8,59"/>
				<path class="st0" d="M60.9,21.55c-1,1.433-1.45,2.633-1.35,3.6c0.167,0.233,0.467,0.117,0.9-0.35c0.433-0.5,0.767-0.617,1-0.35
					L61.1,26.8c-0.133,0.833,0.15,1.333,0.85,1.5c0.3,0.033,0.483-0.15,0.55-0.55s0.283-0.533,0.65-0.4
					c0.6,0.9,0.583,1.833-0.05,2.8l-1.4,2.45l0.7,0.5l1,0.25c0.033,0.3-0.067,0.517-0.3,0.65l-0.7,0.3l0.55,1.35
					c0.2,0.533,0.183,0.967-0.05,1.3l-0.95-0.75c-0.333-0.333-0.733-0.483-1.2-0.45c-0.467,0.2-0.617,0.683-0.45,1.45
					c0.133,0.633,0.367,1.1,0.7,1.4l1.85-0.2l1.25-1.25c0.067,1.467-0.1,2.433-0.5,2.9c0.767,0.133,1.383,0.467,1.85,1
					c0.5,0.567,0.617,1.2,0.35,1.9l-0.95,0.25l-1.25-0.05c-0.167,0.2-0.2,0.45-0.1,0.75l0.1,0.95c-0.7-0.3-1.25-0.133-1.65,0.5
					c-0.5,0.7-1.067,1.017-1.7,0.95c-0.467,0-0.7-0.4-0.7-1.2c-0.433,0.433-1.083,0.583-1.95,0.45l-0.5-1
					c-0.2-0.4-0.583-0.533-1.15-0.4c-1.967,2.333-3.35,5.383-4.15,9.15c-0.933,4.233-0.633,7.667,0.9,10.3v0.05
					c-1.8-2.067-2.333-5.267-1.6-9.6c0.667-4.067,1.967-7.05,3.9-8.95c0-1.4,0.317-2.767,0.95-4.1c-1.067,0.367-2.25,1.867-3.55,4.5
					c-1.3,2.667-2.433,4.217-3.4,4.65c-0.067,0.2-0.233,0.167-0.5-0.1L48,49.4h0.25v-0.25l0.6,0.15l0.6,0.1l2.4-3.95
					c0.9-1.6,1.383-3.233,1.45-4.9c-0.433-0.033-0.717,0.233-0.85,0.8c-0.2,0.633-0.4,1-0.6,1.1c-1.067-0.467-1.417-1.333-1.05-2.6
					l1.3-2.9c-1.033,0.6-1.8,0.3-2.3-0.9c-0.5-1.167-0.133-2,1.1-2.5c-0.067,0.367,0,0.667,0.2,0.9L51.6,35
					c0.033-0.533,0.233-1.05,0.6-1.55c0.467-0.6,1.067-0.883,1.8-0.85c-0.067,0.533,0.017,1.1,0.25,1.7l1.2-1.95
					c-1.033-0.567-1.733-1.05-2.1-1.45c-0.7-0.767-0.717-1.55-0.05-2.35l0.5,0.2l0.65,0.4c0.433,0.3,0.817,0.483,1.15,0.55
					c-0.9-0.3-1.55-1.25-1.95-2.85c-0.4-1.7,0.05-2.733,1.35-3.1c0.533,1.1,1,1.733,1.4,1.9c-0.367-0.467-0.45-1.4-0.25-2.8
					c0.167-1.2-0.15-1.95-0.95-2.25c-0.333-0.133-0.633-0.017-0.9,0.35c-0.233,0.3-0.4,0.35-0.5,0.15l0.25-1.2l0.45-0.95l0.65-0.2
					l0.8-0.05c-0.133-1.367,0.1-2.483,0.7-3.35c0.633,0.133,0.883,0.533,0.75,1.2l1.55-1.15c0.633-0.5,1.233-0.6,1.8-0.3
					c0,0.533-0.2,1.133-0.6,1.8c-0.367,0.7-0.567,1.3-0.6,1.8l1.6,0.1l1.5-1.05C62.583,18.75,62,20.017,60.9,21.55 M56.45,18
					l0.45,1.9c-0.367,0.067-0.65-0.017-0.85-0.25l-0.6-0.5c-0.3,0.033-0.55,0.15-0.75,0.35l-0.45,0.65l0.5,0.05l0.95-0.05
					c0.567,0.4,0.933,1.4,1.1,3c0.133,1.4,0.083,2.4-0.15,3c-0.6,0.033-1.05-0.117-1.35-0.45l-0.55-1.25
					c-0.567,0.733-0.617,1.667-0.15,2.8l1.35,2.5l-1.4,0.1c-0.533-0.267-0.783-0.633-0.75-1.1c-0.6,0.633-0.5,1.25,0.3,1.85
					l1.85,1.55c-0.233,0.833-0.717,1.783-1.45,2.85c-0.633-0.167-0.867-0.717-0.7-1.65c-0.7-0.033-1.117,0.2-1.25,0.7l-0.2,1.45
					c-1.133,0.1-1.7-0.217-1.7-0.95c-0.333,0.167-0.467,0.467-0.4,0.9c0.033,0.333,0.167,0.667,0.4,1l1-0.05l0.95-0.2
					c0.1,0.8-0.117,1.617-0.65,2.45c-0.533,0.833-0.717,1.7-0.55,2.6l0.9-1.05c0.333-0.4,0.833-0.533,1.5-0.4
					c0.433,0.433,0.583,1.083,0.45,1.95l1-1.1c0.433-0.433,0.817-0.55,1.15-0.35c0,0.267,0.083,0.417,0.25,0.45l-0.5,0.75
					c-0.167,0.4-0.233,0.883-0.2,1.45c1.3,0.3,2.017,0.933,2.15,1.9l0.8-0.25c0.3-0.233,0.6-0.383,0.9-0.45l0.45,1.65l0.55-0.3
					l0.65-0.15l0.05-1.2l-0.05-1.45c0.633,0,0.95,0.317,0.95,0.95c0.167-0.467,0.6-0.767,1.3-0.9l1.85-0.3
					c-0.033-0.6-0.3-1.05-0.8-1.35c-0.333-0.2-0.867-0.383-1.6-0.55c-0.033-0.333,0.033-0.683,0.2-1.05l0.25-0.9l-1.3,0.55
					l-2.05-0.05l-0.35-1.55c-0.133-0.6-0.167-1.2-0.1-1.8l0.4-0.2l0.3-0.3l1.3,0.25l0.85,0.7l-0.75-1.35
					c-0.3-0.6-0.133-0.95,0.5-1.05c0-0.267-0.2-0.417-0.6-0.45L61,33.1c0-0.767,0.267-1.45,0.8-2.05l1.35-1.55L63,29.05l-0.1-0.5
					l-0.75,0.1L61,28.55l-0.3-1.7c-0.033-0.833,0.067-1.4,0.3-1.7c-0.167-0.1-0.467,0.083-0.9,0.55
					c-0.433,0.467-0.867,0.533-1.3,0.2c-0.167-1.333,0.133-2.517,0.9-3.55l1.75-2.7L60.2,19.6c-0.733,0-1.2-0.15-1.4-0.45
					c-0.133-0.767,0-1.467,0.4-2.1l0.8-1.7c-0.633-0.033-1.1,0.25-1.4,0.85l-0.75,1.55c-0.4,0.067-0.65-0.067-0.75-0.4l-0.2-1.05
					C56.466,16.6,56.316,17.167,56.45,18"/>
				<path class="st2" d="M59.2,17.05c-0.4,0.633-0.533,1.333-0.4,2.1c0.2,0.3,0.667,0.45,1.4,0.45l1.25,0.05l-1.75,2.7
					c-0.767,1.033-1.067,2.217-0.9,3.55c0.433,0.333,0.867,0.267,1.3-0.2c0.433-0.467,0.733-0.65,0.9-0.55
					c-0.233,0.3-0.333,0.867-0.3,1.7l0.3,1.7l1.15,0.1l0.75-0.1l0.1,0.5l0.15,0.45l-1.35,1.55c-0.533,0.6-0.8,1.283-0.8,2.05
					l0.8,0.25c0.4,0.033,0.6,0.183,0.6,0.45c-0.633,0.1-0.8,0.45-0.5,1.05l0.75,1.35l-0.85-0.7l-1.3-0.25l-0.3,0.3l-0.4,0.2
					c-0.067,0.6-0.033,1.2,0.1,1.8l0.35,1.55l2.05,0.05l1.3-0.55l-0.25,0.9c-0.167,0.367-0.233,0.717-0.2,1.05
					c0.733,0.167,1.267,0.35,1.6,0.55c0.5,0.3,0.767,0.75,0.8,1.35l-1.85,0.3c-0.7,0.133-1.133,0.433-1.3,0.9
					c0-0.633-0.317-0.95-0.95-0.95l0.05,1.45l-0.05,1.2L60.8,45.5l-0.55,0.3l-0.45-1.65c-0.3,0.067-0.6,0.217-0.9,0.45l-0.8,0.25
					c-0.133-0.967-0.85-1.6-2.15-1.9c-0.033-0.567,0.033-1.05,0.2-1.45l0.5-0.75c-0.167-0.033-0.25-0.183-0.25-0.45
					c-0.333-0.2-0.717-0.083-1.15,0.35l-1,1.1c0.133-0.867-0.017-1.517-0.45-1.95c-0.667-0.133-1.167,0-1.5,0.4l-0.9,1.05
					c-0.167-0.9,0.017-1.767,0.55-2.6c0.533-0.833,0.75-1.65,0.65-2.45l-0.95,0.2l-1,0.05c-0.233-0.333-0.367-0.667-0.4-1
					c-0.067-0.433,0.067-0.733,0.4-0.9c0,0.733,0.567,1.05,1.7,0.95l0.2-1.45c0.133-0.5,0.55-0.733,1.25-0.7
					c-0.167,0.933,0.067,1.483,0.7,1.65c0.733-1.067,1.217-2.017,1.45-2.85L54.1,30.6c-0.8-0.6-0.9-1.217-0.3-1.85
					c-0.033,0.467,0.217,0.833,0.75,1.1l1.4-0.1l-1.35-2.5c-0.467-1.133-0.417-2.067,0.15-2.8l0.55,1.25
					c0.3,0.333,0.75,0.483,1.35,0.45c0.233-0.6,0.283-1.6,0.15-3c-0.167-1.6-0.533-2.6-1.1-3l-0.95,0.05l-0.5-0.05l0.45-0.65
					c0.2-0.2,0.45-0.317,0.75-0.35l0.6,0.5c0.2,0.233,0.483,0.317,0.85,0.25L56.45,18c-0.133-0.833,0.017-1.4,0.45-1.7l0.2,1.05
					c0.1,0.333,0.35,0.467,0.75,0.4l0.75-1.55c0.3-0.6,0.767-0.883,1.4-0.85L59.2,17.05"/>
				<path class="st0" d="M61.7,61.65c1.5-1.4,2.617-1.967,3.35-1.7L63.3,60.6c-0.6,0.3-0.967,0.733-1.1,1.3
					c1.933-0.1,2.85,0.783,2.75,2.65c-0.1,1.8-1.267,2.267-3.5,1.4l-1,0.6l-1.15,0.4c0.267-0.533,0.117-0.9-0.45-1.1l-1.7-0.35
					c-0.267,0.067-0.4,0.233-0.4,0.5l-0.1,0.45c-0.3-0.333-0.967-0.75-2-1.25c-0.933-0.433-1.55-0.9-1.85-1.4l-0.1-0.2l-0.1-0.5
					c0.133-0.267,0.3-0.3,0.5-0.1c0.267,0.3,0.5,0.417,0.7,0.35l-0.15,0.1l0.15,0.1c1.133,1.167,2.767,1.867,4.9,2.1l5.65,0.1
					c0.567-0.867,0.433-1.683-0.4-2.45L61.7,61.65"/>
				<path class="st0" d="M57.5,75.35l0.35-0.5c-0.067-0.333-0.233-0.467-0.5-0.4L56.4,74.6c0.1-0.233,0.367-0.383,0.8-0.45
					c0.4-0.067,0.7,0,0.9,0.2c-0.1,0.733-0.417,1.217-0.95,1.45c-0.7-0.1-1.067-0.3-1.1-0.6c-0.067-0.333,0.217-0.217,0.85,0.35
					C57.2,75.65,57.4,75.583,57.5,75.35"/>
				<path class="st1" d="M55.95,41C55.316,42.333,55,43.7,55,45.1c-1.933,1.9-3.233,4.883-3.9,8.95c-0.733,4.333-0.2,7.533,1.6,9.6
					l-0.45,0.9C51.983,64.85,51.7,65,51.4,65c-0.733-0.167-1.25-0.667-1.55-1.5c-0.167-0.467-0.3-1.317-0.4-2.55l0.8,0.7
					c0.333,0.3,0.633,0.3,0.9,0c-1.133-0.133-1.667-1.133-1.6-3c0.067-2.1-0.117-3.333-0.55-3.7l-0.15,0.35
					c-0.4-0.9-0.617-1.583-0.65-2.05c-1.633-1.2-2.55-3.217-2.75-6.05c-0.233-3.433-0.667-5.667-1.3-6.7c1.467,0.667,2.4,2,2.8,4
					c0.533,2.733,0.967,4.367,1.3,4.9H48l0.5,0.65c0.267,0.267,0.433,0.3,0.5,0.1c0.967-0.433,2.1-1.983,3.4-4.65
					C53.7,42.867,54.883,41.367,55.95,41"/>
				<path class="st0" d="M25.7,29.25c0.6,0.5,0.983,1.383,1.15,2.65c0.167,1.333-0.05,2.283-0.65,2.85
					c-0.033,0.233,0.117,0.333,0.45,0.3L27.4,35c0.533-0.233,0.767-0.783,0.7-1.65c0.5,0.067,0.783,0.417,0.85,1.05l0.1,1.8
					l0.9,0.45c0.333,0.2,0.517,0.45,0.55,0.75c0.033,0.4-0.2,0.733-0.7,1c-0.5,0.233-0.75,0.55-0.75,0.95
					c-0.133,0.333,0,0.483,0.4,0.45c0.4-0.033,0.583,0.05,0.55,0.25c0.033,0.567-0.217,1.033-0.75,1.4l-1.15,1
					c-0.033,0.967,0.683,1.367,2.15,1.2c0.2,0.033,0.3-0.117,0.3-0.45l-0.05-0.75c0.8,0.433,1.383,1.1,1.75,2
					c0.367,0.933,0.35,1.867-0.05,2.8l1.2-0.45l1.2-0.5c0,0.967-0.167,1.6-0.5,1.9c1.367,0.433,2,1.4,1.9,2.9h-2.15l0.35,2
					c0.1,0.667-0.017,1.283-0.35,1.85c1.4,1.467,2.383,2.35,2.95,2.65c1.333,0.8,3,1.033,5,0.7c0.967,0.767,1.75,2.583,2.35,5.45
					c1.3-0.5,2.433-0.4,3.4,0.3c0.433-0.833,0.683-2.217,0.75-4.15l0.2-4.75l0.35,0.15L49,54.95c0.433,0.367,0.617,1.6,0.55,3.7
					c-0.067,1.867,0.467,2.867,1.6,3c-0.267,0.3-0.567,0.3-0.9,0l-0.8-0.7c0.1,1.233,0.233,2.083,0.4,2.55
					c0.3,0.833,0.817,1.333,1.55,1.5c0.3,0,0.583-0.15,0.85-0.45l0.45-0.9l0.1,0.15l-0.35,0.95c-0.2,0.3-0.483,0.467-0.85,0.5
					c-1.433-0.2-2.217-1.45-2.35-3.75c0.1-2.8,0.017-4.75-0.25-5.85c0.167,0.967,0.067,3.15-0.3,6.55
					c-0.3,2.667-0.05,4.567,0.75,5.7c-0.233-0.033-0.433-0.233-0.6-0.6l-0.6-0.6c-0.5,0.1-0.85,0.517-1.05,1.25
					c-0.133,0.5-0.183,1.033-0.15,1.6c-0.5-0.767-0.417-1.617,0.25-2.55c0.667-1,0.833-1.9,0.5-2.7l-3.15-0.05
					c-1.1,0.067-1.9,0.4-2.4,1l2.3,0.15c0.667,0.2,1.017,0.633,1.05,1.3l-0.55-0.75c-0.233-0.3-0.517-0.45-0.85-0.45H38l-6.65-0.7
					l7.3,0.2c0.333-0.6,0.333-1.3,0-2.1l-0.95-1.75c-0.733-0.1-2.183-0.967-4.35-2.6c-1.6-1.2-3.183-1.367-4.75-0.5l-1.7-2.65
					l-0.65,0.7l-1.05,0.25c-0.333-0.2-0.483-0.583-0.45-1.15c0.033-0.5,0.183-0.917,0.45-1.25l-1.05,0.3l-1.1,0.2
					c-0.467-0.233-0.867-0.65-1.2-1.25c-0.367-0.633-0.45-1.183-0.25-1.65l0.8,0.3c0.267,0.2,0.567,0.267,0.9,0.2
					c0.467-0.2,0.7-0.833,0.7-1.9l-0.2-0.5l-1.25,0.05l-1.15,0.2c-0.2-0.333-0.267-0.717-0.2-1.15l0.2-1.25
					c-0.033-0.333-0.317-0.5-0.85-0.5H19.2c0.067-0.833,0.5-1.417,1.3-1.75l2.55,0.1c0.167-0.2-0.1-0.533-0.8-1
					s-0.917-0.867-0.65-1.2c0.2-0.167,0.417-0.167,0.65,0l0.8,0.25c-0.1-0.533-0.967-1.767-2.6-3.7
					c-1.167-1.367-1.25-2.85-0.25-4.45c0.267,0.167,0.4,0.483,0.4,0.95c0.033,0.467,0.217,0.783,0.55,0.95
					c0.633-0.7,0.783-1.617,0.45-2.75l-1.35-3.25c-1.267-2.867-0.817-5.017,1.35-6.45c0.133,2.033,0.35,3.467,0.65,4.3
					c0.567,1.767,1.55,2.417,2.95,1.95c0.2-0.067,0.3-0.35,0.3-0.85C25.466,29.6,25.533,29.317,25.7,29.25 M21.6,25.4
					c-1.533,1.4-1.75,3.4-0.65,6c1.233,2.9,1.533,4.9,0.9,6l-0.9,0.15l-0.75-0.4c-0.133,1.067,0.083,1.9,0.65,2.5
					c0.367,0.4,1.017,0.767,1.95,1.1l0.75,3.15c-0.4,0.3-0.65,0.3-0.75,0c-0.167,0.133-0.067,0.333,0.3,0.6
					c0.433,0.333,0.583,0.683,0.45,1.05l-1.8,0.2c-0.9-0.167-1.5,0.017-1.8,0.55c0.067,0.2,0.383,0.283,0.95,0.25
					c0.567-0.033,0.883,0.033,0.95,0.2l0.1,1.05l-0.1,1.15l1.3,0.25c0.667,0.133,1.117,0.367,1.35,0.7l-0.15,1.4
					C24.116,51.867,24,52.283,24,52.55c-0.833,0.367-1.467,0.283-1.9-0.25c-0.1,0.733,0.283,1.2,1.15,1.4l2.2-0.2
					c0.2,0.1,0.233,0.467,0.1,1.1c-0.167,0.667-0.117,1.1,0.15,1.3l0.65-0.65c0.2-0.433,0.383-0.7,0.55-0.8
					c0.467,0.2,0.867,0.667,1.2,1.4c0.4,0.933,0.717,1.5,0.95,1.7c0.5-0.433,1.067-0.583,1.7-0.45l1.65,0.25
					c0.033-0.4-0.183-0.667-0.65-0.8C31.25,56.383,31,56.167,31,55.9c0-0.333,0.3-0.883,0.9-1.65c0.567-0.7,1.083-1.233,1.55-1.6
					c-0.267-0.767-0.217-1.45,0.15-2.05h1.95l-0.65-1.25c-0.333-0.4-0.833-0.533-1.5-0.4c-0.067-0.267-0.05-0.533,0.05-0.8
					l0.15-0.65l-0.8,0.1l-1.1-0.1c0.367-0.7,0.417-1.367,0.15-2L31,43.65c-0.6,0.533-1.333,0.65-2.2,0.35
					c-0.933-0.3-1.333-0.9-1.2-1.8c0.067-0.4,0.3-0.717,0.7-0.95l1-0.7l-0.6-0.7c-0.3-0.267-0.417-0.6-0.35-1l0.75-0.7
					c0.267-0.267,0.567-0.433,0.9-0.5c-0.033-0.3-0.25-0.517-0.65-0.65l-1-0.3v-1.45l-1,0.15l-1.65,0.1l0.6-2.25
					c0.233-0.833,0.117-1.533-0.35-2.1c-1.467,1.033-2.783,0.767-3.95-0.8C20.833,28.783,20.7,27.133,21.6,25.4 M32.75,54.1L33,53.9
					l-0.35,0.05L32.75,54.1l-1.3,1.55l0.75,0.5l0.1-0.25c-0.1-0.133-0.217-0.217-0.35-0.25c0.167-0.133,0.433,0.017,0.8,0.45
					c0.467,0.5,0.833,0.75,1.1,0.75l-0.6,0.05l-0.6-0.55c0.333,0.633,0.917,1.35,1.75,2.15l1.85,1.95c1.4-0.067,2.4,0.567,3,1.9
					c0.633,1.433,1.4,2.167,2.3,2.2l1.25-0.25l1.35-0.55c-0.4-0.367-0.85-1.183-1.35-2.45c-0.5-1.333-0.917-2.183-1.25-2.55
					c-2,0.4-3.8,0.05-5.4-1.05C35.116,57,33.983,55.8,32.75,54.1 M33.9,52.55c0.133-0.3-0.017-0.267-0.45,0.1l0.15,0.6L33.9,52.55
					 M33.6,53.25L33,53.9l0.4,0.55C33.633,54.083,33.7,53.683,33.6,53.25"/>
				<path class="st0" d="M52.35,70.55L51.5,70.5l-0.85-0.7c-0.133-0.267,0.05-0.233,0.55,0.1L52.35,70.55"/>
				<path class="st1" d="M41.4,76.4c3.7-2.1,6.15-1.983,7.35,0.35L46.9,77.5l-1.75,0.9l-1.95-0.9C42.4,77.167,41.8,76.8,41.4,76.4"
					/>
				<path class="st1" d="M32.65,56.35l0.6,0.55l0.6-0.05c-0.267,0-0.633-0.25-1.1-0.75c-0.367-0.433-0.633-0.583-0.8-0.45
					c0.133,0.033,0.25,0.117,0.35,0.25l-0.1,0.25l-0.75-0.5l1.3-1.55c1.233,1.7,2.367,2.9,3.4,3.6c1.6,1.1,3.4,1.45,5.4,1.05
					c0.333,0.367,0.75,1.217,1.25,2.55c0.5,1.267,0.95,2.083,1.35,2.45L42.8,64.3l-1.25,0.25c-0.9-0.033-1.667-0.767-2.3-2.2
					c-0.6-1.333-1.6-1.967-3-1.9L34.4,58.5C33.566,57.7,32.983,56.983,32.65,56.35"/>
				<path class="st1" d="M38.05,70.9c-0.067,0.367-0.333,0.667-0.8,0.9l-1.1,0.5l-0.85-0.35c-0.167-0.267-0.183-0.6-0.05-1
					c0.367-0.467,0.867-0.733,1.5-0.8C37.416,70.083,37.85,70.333,38.05,70.9"/>
				<path class="st3" d="M22,30.35c1.167,1.567,2.483,1.833,3.95,0.8c0.467,0.567,0.583,1.267,0.35,2.1l-0.6,2.25l1.65-0.1l1-0.15
					v1.45l1,0.3c0.4,0.133,0.617,0.35,0.65,0.65c-0.333,0.067-0.633,0.233-0.9,0.5l-0.75,0.7c-0.067,0.4,0.05,0.733,0.35,1l0.6,0.7
					l-1,0.7c-0.4,0.233-0.633,0.55-0.7,0.95c-0.133,0.9,0.267,1.5,1.2,1.8c0.867,0.3,1.6,0.183,2.2-0.35l0.85,1.85
					c0.267,0.633,0.217,1.3-0.15,2l1.1,0.1l0.8-0.1l-0.15,0.65c-0.1,0.267-0.117,0.533-0.05,0.8c0.667-0.133,1.167,0,1.5,0.4
					l0.65,1.25H33.6c-0.367,0.6-0.417,1.283-0.15,2.05c-0.467,0.367-0.983,0.9-1.55,1.6c-0.6,0.767-0.9,1.317-0.9,1.65
					c0,0.267,0.25,0.483,0.75,0.65c0.467,0.133,0.683,0.4,0.65,0.8l-1.65-0.25c-0.633-0.133-1.2,0.017-1.7,0.45
					c-0.233-0.2-0.55-0.767-0.95-1.7c-0.333-0.733-0.733-1.2-1.2-1.4c-0.167,0.1-0.35,0.367-0.55,0.8L25.7,55.9
					c-0.267-0.2-0.317-0.633-0.15-1.3c0.133-0.633,0.1-1-0.1-1.1l-2.2,0.2c-0.867-0.2-1.25-0.667-1.15-1.4
					c0.433,0.533,1.067,0.617,1.9,0.25c0-0.267,0.117-0.683,0.35-1.25l0.15-1.4c-0.233-0.333-0.683-0.567-1.35-0.7l-1.3-0.25
					l0.1-1.15l-0.1-1.05c-0.067-0.167-0.383-0.233-0.95-0.2c-0.567,0.033-0.883-0.05-0.95-0.25c0.3-0.533,0.9-0.717,1.8-0.55
					l1.8-0.2c0.133-0.367-0.017-0.717-0.45-1.05c-0.367-0.267-0.467-0.467-0.3-0.6c0.1,0.3,0.35,0.3,0.75,0l-0.75-3.15
					c-0.933-0.333-1.583-0.7-1.95-1.1c-0.567-0.6-0.783-1.433-0.65-2.5l0.75,0.4l0.9-0.15c0.633-1.1,0.333-3.1-0.9-6
					c-1.1-2.6-0.883-4.6,0.65-6C20.7,27.133,20.833,28.783,22,30.35"/>
				<path class="st0" d="M33.45,52.65c0.433-0.367,0.583-0.4,0.45-0.1l-0.3,0.7L33.45,52.65"/>
				<path class="st0" d="M33,53.9l-0.25,0.2l-0.1-0.15L33,53.9"/>
				<path class="st0" d="M28.6,67.1c-0.567,0.3-0.9,0.717-1,1.25l2.25-1c1.167-0.4,2.183-0.3,3.05,0.3
					c-1.967-0.133-3.833,0.4-5.6,1.6c-2.233,1.467-3.8,2.3-4.7,2.5L22,73c-0.267,0.533-0.317,0.917-0.15,1.15
					c0.333-0.567,0.983-1.033,1.95-1.4c-0.333,0.6-1.083,1.167-2.25,1.7l-0.5-0.05l-0.1-0.3c0.967-0.667,1.35-1.533,1.15-2.6
					l2.6-1.35c1.1-0.7,1.917-1.217,2.45-1.55c-0.1-0.033-0.167-0.2-0.2-0.5c-0.033-0.267-0.133-0.417-0.3-0.45
					c1.033-1.5,2.517-2.433,4.45-2.8l-3.95,2.8c0.3-0.033,0.817-0.317,1.55-0.85c0.633-0.467,1.15-0.583,1.55-0.35L28.6,67.1
					 M29.85,70.9c-1.567,1.167-3.567,1.767-6,1.8c0.5-0.233,1.117-0.433,1.85-0.6L29.85,70.9"/>
				<path class="st0" d="M27.15,75.35c-0.1,0.533-0.717,1.133-1.85,1.8l-2.5,1.8c0.133-0.467,0.767-1.05,1.9-1.75
					C26.033,76.4,26.85,75.783,27.15,75.35"/>
				<path class="st0" d="M21.55,74.45l-0.45,0.2l-0.05-0.25L21.55,74.45"/>
				<path class="st0" d="M18.7,77.25l-1.15,0.95H17.3v0.25l-1.55,0.8v-0.8c0.3-0.133,0.817-0.3,1.55-0.5c0-0.933,0.367-1.7,1.1-2.3
					l2.2-1.3l0.45,0.05l0.05,0.25c-1.067,0.467-1.783,0.85-2.15,1.15C18.316,76.267,18,76.833,18,77.5l1-0.9
					c0.467-0.3,0.783-0.4,0.95-0.3L18.7,77.25"/>
				<path class="st0" d="M20.95,74.1l0.1,0.3l-0.45-0.05L20.95,74.1"/>
				<path class="st0" d="M10.8,59c-0.3,0.1-0.567,0.267-0.8,0.5l-0.6,0.7c-0.567,0.067-0.817-0.167-0.75-0.7
					c-0.533,0.167-0.767,0.967-0.7,2.4c-0.6-0.167-1.05-0.017-1.35,0.45c-0.333,0.6-0.6,0.933-0.8,1
					c-0.7-0.333-1.183-0.733-1.45-1.2c-0.5,0.533-0.783,1.367-0.85,2.5c-0.033,1,0.083,1.833,0.35,2.5c0.233,0.8-0.217,1.1-1.35,0.9
					c-1.1-0.2-1.767-0.567-2-1.1C0.633,67.483,0.95,68,1.45,68.5l1.2,1.3c-0.967,0.067-1.683,0.383-2.15,0.95l1.05,0.15l1.1,0.1
					L2.3,71.95c-0.167,0.367-0.2,0.767-0.1,1.2l1.4-1.4l0.75,0.2c0.333,0.8,0.333,1.6,0,2.4c0.4-0.067,0.717-0.383,0.95-0.95
					c0.267-0.667,0.5-1.067,0.7-1.2c0.267,0.067,0.517,0.233,0.75,0.5l0.45,0.7c1.933-1.5,2.333-2.933,1.2-4.3l1.25,0.1l0.45-0.85
					c0.2,0.033,0.283,0.267,0.25,0.7c0,0.467,0.083,0.717,0.25,0.75l0.7-0.7l0.7-0.75c-0.533-1-0.45-1.867,0.25-2.6
					c0.467-0.067,0.917,0.033,1.35,0.3c0.5,0.3,0.933,0.433,1.3,0.4l0.7-0.3c0.167-0.267,0.333-0.4,0.5-0.4l-0.95-0.5
					c-0.3-0.233-0.467-0.55-0.5-0.95c0.033-0.6,0.517-1,1.45-1.2c-0.033-0.2-0.217-0.283-0.55-0.25h-0.9
					c0.267-0.533,0.333-1.133,0.2-1.8L14.2,59.5c-0.1,0.967-0.45,1.6-1.05,1.9l-2.35,0.25C11.066,61.15,11.066,60.267,10.8,59
					 M12.15,61.1c0.233-0.033,0.433,0.067,0.6,0.3c0.6-0.2,0.85-0.767,0.75-1.7L13,57.55l1.65,1.8c0.533,0.8,0.783,1.733,0.75,2.8
					c0.033,0.167,0.267,0.25,0.7,0.25l0.7,0.2c0,0.367-0.35,0.783-1.05,1.25c-0.567,0.367-0.617,0.75-0.15,1.15
					c0.3,0.067,0.55-0.05,0.75-0.35c0.2-0.267,0.433-0.383,0.7-0.35c0.033,1.133-0.467,1.917-1.5,2.35
					c-1.033,0.433-1.967,0.283-2.8-0.45l-0.55,2.1c-0.2,0.833-0.5,1.5-0.9,2c0.567,0.767,2.233,1.333,5,1.7c2.6,0.3,4.15,1,4.65,2.1
					l-0.35,0.25l-1.85-0.2L18.1,73.1l-0.95-0.75c-1.2,0.5-2.617,0.5-4.25,0c-1.733-0.533-2.667-1.383-2.8-2.55l-0.55-0.05l-0.4-0.2
					c-0.1,0.767,0.167,1.633,0.8,2.6l1.85,2.2c0.967-0.733,2.167-0.8,3.6-0.2c0.267,0.4,0.4,1.05,0.4,1.95l-0.05,2.35l-0.3,0.15
					l-0.2-1.85l-0.1-1.65c-0.167-0.5-0.683-0.75-1.55-0.75c-0.867,0.033-1.4,0.283-1.6,0.75c-0.567-0.167-1.1-0.617-1.6-1.35
					c-0.6-0.833-1.1-1.35-1.5-1.55l-0.75,0.95L7.2,73.9l-0.6-0.45L6,72.95c-0.567,1.467-1.767,2.267-3.6,2.4l1.3-1.25
					c0.333-0.533,0.383-1.167,0.15-1.9c-0.433,0.067-0.783,0.317-1.05,0.75l-0.6,1.2c-0.467-0.167-0.7-0.567-0.7-1.2
					c0-0.533,0.15-1.017,0.45-1.45l-0.9-0.1L0,71.25c0-0.967,0.483-1.533,1.45-1.7C0.483,68.517,0,67.4,0,66.2
					c0.4,0.1,1.05,0.45,1.95,1.05l1.9-0.1c-0.767-0.433-1.1-1.333-1-2.7c0.1-1.367,0.517-2.383,1.25-3.05
					c0.367-0.033,0.65,0.133,0.85,0.5c0.2,0.433,0.4,0.667,0.6,0.7c0.367-0.067,0.583-0.317,0.65-0.75c0.067-0.367,0-0.75-0.2-1.15
					l0.75,0.1l0.7,0.6c-0.1-1.2,0.3-2.083,1.2-2.65c0.333,0.1,0.5,0.35,0.5,0.75l0.4-0.3C9.683,59,9.866,58.933,10.1,59L10,58.15
					c-0.1-0.233-0.067-0.433,0.1-0.6c0.567,0.167,0.95,0.6,1.15,1.3l0.3,2.1L12.15,61.1"/>
				<path class="st1" d="M19.75,79.1L20,79.35c-0.033,1-0.3,2.233-0.8,3.7L18,86.6c-2,1.667-4.35,2.967-7.05,3.9
					c-2.1,0.7-4.767,1.3-8,1.8c0.533-0.767,1.867-1.85,4-3.25c1.867-1.267,3.05-2.567,3.55-3.9c0.8,0.067,1.467-0.167,2-0.7v0.25
					l1.55-0.3l1.55,0.3c0.133,0.533-0.15,1.2-0.85,2c-0.533,0.567-0.483,1.017,0.15,1.35c-0.233-0.333-0.167-0.783,0.2-1.35l1-1.55
					c0-0.467-0.25-0.783-0.75-0.95l-1.4-0.25l0.7-4.05c0.467-0.333,0.833-0.55,1.1-0.65l1.55-0.8V78.2l1.25,0.45L19.75,79.1"/>
				<path class="st1" d="M18.75,74.15l1.85,0.2l-2.2,1.3c-0.733,0.6-1.1,1.367-1.1,2.3c-0.733,0.2-1.25,0.367-1.55,0.5l0.05-2.35
					c0-0.9-0.133-1.55-0.4-1.95c-1.433-0.6-2.633-0.533-3.6,0.2l-1.85-2.2c-0.633-0.967-0.9-1.833-0.8-2.6l0.4,0.2l0.55,0.05
					c0.133,1.167,1.067,2.017,2.8,2.55c1.633,0.5,3.05,0.5,4.25,0l0.95,0.75L18.75,74.15"/>
				<path class="st3" d="M14.85,61.05c0.133,0.667,0.067,1.267-0.2,1.8h0.9c0.333-0.033,0.517,0.05,0.55,0.25
					c-0.933,0.2-1.417,0.6-1.45,1.2c0.033,0.4,0.2,0.717,0.5,0.95l0.95,0.5c-0.167,0-0.333,0.133-0.5,0.4l-0.7,0.3
					c-0.367,0.033-0.8-0.1-1.3-0.4c-0.433-0.267-0.883-0.367-1.35-0.3c-0.7,0.733-0.783,1.6-0.25,2.6l-0.7,0.75l-0.7,0.7
					c-0.167-0.033-0.25-0.283-0.25-0.75c0.033-0.433-0.05-0.667-0.25-0.7L9.65,69.2L8.4,69.1c1.133,1.367,0.733,2.8-1.2,4.3
					l-0.45-0.7C6.516,72.433,6.266,72.267,6,72.2c-0.2,0.133-0.433,0.533-0.7,1.2c-0.233,0.567-0.55,0.883-0.95,0.95
					c0.333-0.8,0.333-1.6,0-2.4l-0.75-0.2l-1.4,1.4c-0.1-0.433-0.067-0.833,0.1-1.2L2.65,71l-1.1-0.1L0.5,70.75
					c0.467-0.567,1.183-0.883,2.15-0.95l-1.2-1.3c-0.5-0.5-0.817-1.017-0.95-1.55c0.233,0.533,0.9,0.9,2,1.1
					c1.133,0.2,1.583-0.1,1.35-0.9c-0.267-0.667-0.383-1.5-0.35-2.5c0.067-1.133,0.35-1.967,0.85-2.5
					c0.267,0.467,0.75,0.867,1.45,1.2c0.2-0.067,0.467-0.4,0.8-1c0.3-0.467,0.75-0.617,1.35-0.45c-0.067-1.433,0.167-2.233,0.7-2.4
					c-0.067,0.533,0.183,0.767,0.75,0.7l0.6-0.7c0.233-0.233,0.5-0.4,0.8-0.5c0.267,1.267,0.267,2.15,0,2.65l2.35-0.25
					c0.6-0.3,0.95-0.933,1.05-1.9L14.85,61.05"/>
				<path class="st0" d="M15.75,78.45v0.8l-0.3-0.65L15.75,78.45"/>
				<path class="st0" d="M15.75,79.25c-0.267,0.1-0.633,0.317-1.1,0.65l-0.7,4.05l1.4,0.25c0.5,0.167,0.75,0.483,0.75,0.95l-1,1.55
					c-0.367,0.567-0.433,1.017-0.2,1.35c-0.633-0.333-0.683-0.783-0.15-1.35c0.7-0.8,0.983-1.467,0.85-2l-1.55-0.3l-1.55,0.3v-0.25
					h-0.25c0.5-0.467,0.867-1.15,1.1-2.05c0.267-0.933,0.3-1.767,0.1-2.5l2-1.3L15.75,79.25"/>
				<path class="st4" d="M35.3,71.95l0.85,0.35l1.1-0.5c0.467-0.233,0.733-0.533,0.8-0.9c-0.2-0.567-0.633-0.817-1.3-0.75
					c-0.633,0.067-1.133,0.333-1.5,0.8C35.116,71.35,35.133,71.683,35.3,71.95z"/>
				<path class="st5" d="M70,66.35l0.15,0.75c0.233,0.133,0.6-0.017,1.1-0.45l0.05-0.45l-0.25-0.45
					C70.616,65.617,70.266,65.817,70,66.35z"/>
				<path class="st6" d="M107.55,63.55l0.9-0.3l0.3-0.7c0.033-0.333-0.083-0.55-0.35-0.65c-0.367,0.067-0.633,0.283-0.8,0.65
					C107.4,62.917,107.383,63.25,107.55,63.55z"/>
				<path class="st7" d="M84.85,57.7l0.45,1.25l0.25,1.3c2.8,0.533,5.483,0.467,8.05-0.2c3.267-0.833,4.983-2.483,5.15-4.95
					c-1.6-2.267-4.183-3.033-7.75-2.3C87.5,53.5,85.45,55.133,84.85,57.7z"/>
				<path class="st8" d="M128.25,60.2l-0.15,1c-1.5-0.033-3.217,0.517-5.15,1.65l-5.2,3.25c-3.033,1.833-5.867,2.983-8.5,3.45
					c-3.267,0.6-5.617-0.017-7.05-1.85l-2.8-0.45c-1.167-0.133-2.067-0.383-2.7-0.75c-6.533-0.933-13.083-0.133-19.65,2.4
					l-0.35,0.65l5.15,1.7c2.033,0.667,3.633,1.467,4.8,2.4"/>
				<path class="st8" d="M132.5,49.65c1.2,0.767,1.783,1.95,1.75,3.55c0,1.567-0.567,2.8-1.7,3.7c-1.833,0.2-3.15,0.717-3.95,1.55
					v0.9l-0.3,0.85"/>
				<path class="st5" d="M53.65,63.45c0.767-0.267,1.833-0.883,3.2-1.85c1.267-0.733,2.417-0.867,3.45-0.4
					c-0.367-1.533,0.25-2.8,1.85-3.8c2.033-1.233,3.167-2.167,3.4-2.8c0.5-0.567,1.333-0.917,2.5-1.05l2.9-0.35
					c3.067-2.8,4.85-5.733,5.35-8.8c-0.733-1.533-0.8-3.35-0.2-5.45l1.45-5.4"/>
				<path class="st5" d="M48.85,55.3c-0.4-0.9-0.617-1.583-0.65-2.05c-1.633-1.2-2.55-3.217-2.75-6.05
					c-0.233-3.433-0.667-5.667-1.3-6.7c1.467,0.667,2.4,2,2.8,4c0.533,2.733,0.967,4.367,1.3,4.9"/>
				<path class="st8" d="M48.75,76.75c1.233-0.133,2.9,0.283,5,1.25c2.033,0.967,3.7,1.35,5,1.15c1.533-1.533,3.367-2.767,5.5-3.7
					c2.067-0.867,4.217-1.35,6.45-1.45"/>
				<path class="st6" d="M41.4,76.4c3.7-2.1,6.15-1.983,7.35,0.35"/>
				<path class="st7" d="M41.4,76.4c0.4,0.4,1,0.767,1.8,1.1l1.95,0.9l1.75-0.9l1.85-0.75"/>
				<path class="st4" d="M18,86.6l1.2-3.55c0.5-1.467,0.767-2.7,0.8-3.7l-0.25-0.25l-1.2-0.45L17.3,78.2"/>
				<path class="st9" d="M18,86.6c0.7-0.333,1.7-0.533,3-0.6c1.1-2.5,2.433-4.5,4-6c1.567-1.533,3.5-2.667,5.8-3.4
					c1.667-0.567,3.4-0.833,5.2-0.8l5.4,0.6"/>
				<path class="st7" d="M12.5,84.45c-0.533,0.533-1.2,0.767-2,0.7c-0.5,1.333-1.683,2.633-3.55,3.9c-2.133,1.4-3.467,2.483-4,3.25
					c3.233-0.5,5.9-1.1,8-1.8c2.7-0.933,5.05-2.233,7.05-3.9"/>
			</g>
		</g>
	</g>
	<path class="st10" d="M156.95,50.2c-2.5,2.933-7.1,6.167-13.8,9.7c-3.067,1.633-8.117,4.017-15.15,7.15
		c-1.667,5.233-5.617,9.467-11.85,12.7c-3.567,1.833-10.25,4.2-20.05,7.1L79.65,92c-6.1,1.833-10.767,2.933-14,3.3
		c-1.767,0.2-3.5,0.217-5.2,0.05l-3.8-0.55c-2.333-2.4-4.15-4.55-5.45-6.45l-5.45,0.75l-5.65,1.2c-4.467,0.8-7.6,0.15-9.4-1.95
		c-0.333-0.8,0.1-1.833,1.3-3.1c1.267-1.367,1.833-2.65,1.7-3.85c0.2-0.7-0.1-1.033-0.9-1l-2.1,0.05l3.45-4.3
		c1.367-1.6,2.717-2.817,4.05-3.65c12.967-0.267,25.133-1.85,36.5-4.75c11.633-3,21.583-7.2,29.85-12.6
		c0.533-0.1,1.033-0.017,1.5,0.25l1.5,0.25c13.467-7.5,16.133-12.467,8-14.9c1.067-1,2.217-1.483,3.45-1.45
		c-2.5-0.4-4.55-1.55-6.15-3.45c-1.5-1.767-2.217-3.683-2.15-5.75c0.1-2.2,1.067-3.917,2.9-5.15c2.133-1.433,5.1-1.95,8.9-1.55
		c5.033,0.533,11.6,2.183,19.7,4.95c8.3,2.833,13.217,5.15,14.75,6.95c1.367,1.633,2.033,4.15,2,7.55
		C158.917,46.217,158.25,48.667,156.95,50.2"/>
</g>
</svg>
